<svg width="180" height="180" xmlns="http://www.w3.org/2000/svg"><g fill="none" fill-rule="evenodd"><circle fill="#FFF" cx="90" cy="90" r="90"/><path d="M65 3.518v172.964A90.046 90.046 0 0 0 90 180a90.046 90.046 0 0 0 25-3.518V3.518A90.046 90.046 0 0 0 90 0a90.046 90.046 0 0 0-25 3.518z" fill="#E94B35"/><path d="M3.518 115h172.964A90.046 90.046 0 0 0 180 90a90.046 90.046 0 0 0-3.518-25H3.518A90.046 90.046 0 0 0 0 90a90.046 90.046 0 0 0 3.518 25z" fill="#227FBB"/><path d="M89 73.4l-3.527 2.454 1.244-4.112-3.423-2.596 4.295-.088L89 65l1.41 4.058 4.296.088-3.423 2.596 1.244 4.112L89 73.4zm-30 11l-3.527 2.454 1.244-4.112-3.423-2.596 4.295-.088L59 76l1.41 4.058 4.296.088-3.423 2.596 1.244 4.112L59 84.4zm62 0l-3.527 2.454 1.244-4.112-3.423-2.596 4.295-.088L121 76l1.41 4.058 4.296.088-3.423 2.596 1.244 4.112L121 84.4zm-18 26l-3.527 2.454 1.244-4.112-3.423-2.596 4.295-.088L103 102l1.41 4.058 4.296.088-3.423 2.596 1.244 4.112L103 110.4zm-28 0l-3.527 2.454 1.244-4.112-3.423-2.596 4.295-.088L75 102l1.41 4.058 4.296.088-3.423 2.596 1.244 4.112L75 110.4z" fill="#FFF"/></g></svg>