<svg width="180" height="180" xmlns="http://www.w3.org/2000/svg"><g fill="none" fill-rule="evenodd"><path d="M174.879 120c-12.355 34.956-45.692 60-84.879 60-39.187 0-72.524-25.044-84.879-60H174.88z" fill="#1AAF5D"/><path d="M174.879 120c3.316-9.383 5.121-19.48 5.121-30s-1.805-20.617-5.121-30H5.12C1.805 69.383 0 79.48 0 90s1.805 20.617 5.121 30H174.88z" fill="#E94B35"/><path d="M174.879 60C162.524 25.044 129.187 0 90 0 50.813 0 17.476 25.044 5.121 60H174.88z" fill="#227FBB"/><g transform="translate(28 51)"><path d="M77.995 39C77.995 17.464 60.536.005 39 .005 17.464.005.005 17.464.005 39 .005 60.536 17.464 77.995 39 77.995c21.536 0 38.995-17.459 38.995-38.995z" fill="#000"/><circle fill="#F2C500" cx="39" cy="39" r="38.345"/><path d="M38.22 45.5v.796c-4.417.185-6.553 1.963-6.79 4.498-.513 5.507-1.53 9.786-1.53 9.786s1.637-2.019 3.552-6.753c.88-2.178 2.825-3.552 4.768-3.847v.563c-1.997.533-3.51 3.078-3.51 6.137 0 3.059 1.513 5.604 3.51 6.137v1.781c-2.581.067-5.099.634-6.414 1.671-2.32 1.83-8.976 8.573-8.245 7.94 15.65 6.39 30.318.393 30.318.393s-5.537-5.993-8.375-8.333c-1.195-.984-3.39-1.527-5.724-1.65V45.5h5.72v-1.56h-5.72V30.922v2.613c2.999-.047 6.797-.509 7.02-4.805.152-2.93 1.17-5.85 1.17-5.85s-2.163 2.6-2.99 4.29c-1.484 3.035-3.222 3.651-5.2 3.752v-1.08a5.201 5.201 0 0 0 0-10.284v-5.47c1.522-1.262 3.243-3.208 4.963-6.305.948-1.707.495-2.456.497-2.453l-.002-.003s.05.11-.653.72c-1.54 1.334-3.225 2.206-4.805 2.928V.78h-1.56v8.89c-2.35 1.042-4.216 1.973-4.59 4.041-.05.276-.112 3.133-.18 3.832 0 0 .401.053 1.352-.721.418-.34 1.696-.557 3.418-1.612v4.348a5.201 5.201 0 0 0 0 10.284v1.08c-1.978-.101-3.716-.717-5.2-3.752-.827-1.69-2.99-4.29-2.99-4.29s1.018 2.92 1.17 5.85c.223 4.296 4.021 4.758 7.02 4.805v.785H32.5v1.56h5.72v.775c-2.502.238-4.42 1.605-4.42 3.255s1.918 3.017 4.42 3.255v.775H32.5v1.56h5.72zm1.56 0v.796c4.417.185 6.553 1.963 6.79 4.498.513 5.507 1.53 9.786 1.53 9.786s-1.637-2.019-3.552-6.753c-.88-2.178-2.825-3.552-4.768-3.847v.563c1.997.533 3.51 3.078 3.51 6.137 0 3.059-1.513 5.604-3.51 6.137V45.5zm0-1.56v-.775c2.502-.238 4.42-1.605 4.42-3.255s-1.918-3.017-4.42-3.255v-.775h5.72v-1.56h-5.72v-.785V43.94z" fill="#000"/></g></g></svg>