<svg width="180" height="180" xmlns="http://www.w3.org/2000/svg"><g fill="none" fill-rule="evenodd"><circle fill="#E94B35" cx="90" cy="90" r="90"/><path d="M92 .022A91.751 91.751 0 0 0 90 0C40.294 0 0 40.294 0 90c0 .668.007 1.335.022 2H92V.022zM134.8 84.6L113.2 63h43.2l-21.6 21.6zm-7.2 7.2L106 70.2v43.2l21.6-21.6zm7.2 7.2l-21.6 21.6h43.2L134.8 99zm7.2-7.2l21.6-21.6v43.2L142 91.8z" fill="#FFF"/><path d="M30 22.917C11.588 39.397 0 63.345 0 90h30V22.917z" fill="#227FBB"/><path d="M60 5.121C69.383 1.805 79.48 0 90 0v90H60V5.121z" fill="#E94B35"/><path d="M60 5.121a89.944 89.944 0 0 0-30 17.796V90h30V5.121z" fill="#FFF"/></g></svg>