<svg id="Capa_1" data-name="Capa 1" xmlns="http://www.w3.org/2000/svg" viewBox="0 0 504.6 512"><defs><style>.cls-1{fill:#939698;}</style></defs><title>custom-range-icon</title><path class="cls-1" d="M381.5,108.1a35.4,35.4,0,0,0,35.6-35.4V35.5a35.5,35.5,0,1,0-71,0V72.7A35.4,35.4,0,0,0,381.5,108.1Z" transform="translate(-3.7 0)"/><path class="cls-1" d="M507.8,61.5H436.2v18a54.1,54.1,0,1,1-108.1,0v-18H183.9v18a54.1,54.1,0,1,1-108.1,0v-18L3.7,60.6V512H508.3ZM472.3,476.1H39.7V187.7H472.3Z" transform="translate(-3.7 0)"/><path class="cls-1" d="M129.2,108.1a35.4,35.4,0,0,0,35.6-35.4V35.5a35.6,35.6,0,0,0-71.1,0V72.7A35.5,35.5,0,0,0,129.2,108.1Z" transform="translate(-3.7 0)"/><path class="cls-1" d="M375.6,298.1l-63.7-63.6a8.9,8.9,0,0,0-12.8,0,9.1,9.1,0,0,0-2.7,6.4v27.3H232.7a9.1,9.1,0,0,0,0,18.2h72.8a9.1,9.1,0,0,0,9.1-9.1V262.9l41.7,41.7-41.7,41.7V331.9a9.1,9.1,0,0,0-9.1-9.1H205.4V295.5a9.1,9.1,0,0,0-15.5-6.5l-63.7,63.7a9.2,9.2,0,0,0,0,12.9l63.7,63.7a9,9,0,0,0,6.4,2.6,8.4,8.4,0,0,0,3.5-.7,9,9,0,0,0,5.6-8.4V395.5h63.7a9.1,9.1,0,1,0,0-18.1H196.3a9,9,0,0,0-9,9v14.5l-41.8-41.7,41.8-41.8v14.5a9,9,0,0,0,9,9.1H296.4v27.3a9.1,9.1,0,0,0,15.5,6.4L375.6,311A9.1,9.1,0,0,0,375.6,298.1Z" transform="translate(-3.7 0)"/></svg>