<svg id="Capa_1" data-name="Capa 1" xmlns="http://www.w3.org/2000/svg" viewBox="0 0 504.6 512"><defs><style>.cls-1,.cls-2{fill:#939698;}.cls-2{font-size:224.27px;stroke:#939698;stroke-miterlimit:10;stroke-width:10px;font-family:Gudea-Bold, Gudea;font-weight:700;letter-spacing:0.1em;}</style></defs><title>past-month-icon</title><path class="cls-1" d="M381.5,108.1a35.4,35.4,0,0,0,35.6-35.4V35.5a35.5,35.5,0,1,0-71,0V72.7A35.4,35.4,0,0,0,381.5,108.1Z" transform="translate(-3.7 0)"/><path class="cls-1" d="M507.8,61.5H436.2v18a54.1,54.1,0,1,1-108.1,0v-18H183.9v18a54.1,54.1,0,1,1-108.1,0v-18L3.7,60.6V512H508.3ZM472.3,476.1H39.7V187.7H472.3Z" transform="translate(-3.7 0)"/><path class="cls-1" d="M129.2,108.1a35.4,35.4,0,0,0,35.6-35.4V35.5a35.6,35.6,0,0,0-71.1,0V72.7A35.5,35.5,0,0,0,129.2,108.1Z" transform="translate(-3.7 0)"/><text class="cls-2" transform="translate(121.6 412.8)">31</text></svg>