<svg id="Capa_1" data-name="Capa 1" xmlns="http://www.w3.org/2000/svg" viewBox="0 0 48.4 17.1"><defs><style>.cls-1{fill:#ff4800;}</style></defs><title>payoneer-logo</title><path d="M12.5,22.9l-1.4-.2a4,4,0,0,0-2.8.7,4.2,4.2,0,0,0-1.8,3.7,1.9,1.9,0,0,0,1,1.7,2,2,0,0,0,2.1-.3,6,6,0,0,0,.8-.8,2.8,2.8,0,0,1-.1.9c0,.2.1.2.3.2h1.1c.2,0,.2,0,.2-.2s.1-1.3.2-1.9l.6-3.5C12.8,23.1,12.7,22.9,12.5,22.9Zm-2.5,4a.8.8,0,0,1-.4.4.8.8,0,0,1-.8.2c-.3-.1-.4-.4-.5-.7a2.8,2.8,0,0,1,1.1-2.4,1.2,1.2,0,0,1,1.4-.3A7.4,7.4,0,0,1,10,26.9Z" transform="translate(0 -15.7)"/><path class="cls-1" d="M30.4,16.8a2.8,2.8,0,0,0-2.7-1.1h-.4a13.4,13.4,0,0,0-2.6.9A22.5,22.5,0,0,0,20,20.1c-1,.9-1.9,1.9-2.8,2.8a25,25,0,0,0-3.9,5.7A12,12,0,0,0,12,31.9c0,.2.1.5.1.7l.3.2c.1,0,.1-.2.2-.3a11.9,11.9,0,0,1,.8-1.6,32.8,32.8,0,0,1,2-3.1,32.3,32.3,0,0,1,3.8-4.5,20.6,20.6,0,0,1,4.3-3.5l2.4-1.1a15.2,15.2,0,0,1,4.3-1.2l.4-.3Z" transform="translate(0 -15.7)"/><path d="M6.7,22.3A2.2,2.2,0,0,0,5,20.6a9.2,9.2,0,0,0-3.3.1l-.2.2C1.1,23.1.6,25.4.2,27.6c-.1.4-.1.8-.2,1.2H1.6c.1,0,.1-.1.1-.2a22.1,22.1,0,0,0,.5-2.5c.1-.2.1-.3.3-.2a5.6,5.6,0,0,0,2.2-.3A2.8,2.8,0,0,0,6.7,22.3ZM4.9,23.5a1.8,1.8,0,0,1-1.4,1h-1c.2-.9.3-1.7.5-2.4a.3.3,0,0,1,.1-.2,2.9,2.9,0,0,1,1.3.1A1,1,0,0,1,4.9,23.5Z" transform="translate(0 -15.7)"/><path class="cls-1" d="M15.4,20.6a5.3,5.3,0,0,0-1.7-3.5l-.4-.3a.2.2,0,0,0-.2.2v.5l.6,3.2c.2.9.3,1.7.5,2.5l.3.8a.2.2,0,0,0,.4,0v-.2a6.9,6.9,0,0,0,.5-2.4C15.5,21.1,15.4,20.9,15.4,20.6Z" transform="translate(0 -15.7)"/><path d="M46.2,24a4.9,4.9,0,0,1,.1-1.2H44.9a.2.2,0,0,0-.2.2,34,34,0,0,1-.7,4.6c-.1.4-.1.8-.2,1.2h1.6l.2-.2c.1-.8.3-1.6.5-2.5A1.8,1.8,0,0,1,48,24.4h.1l.3-1.6A2.2,2.2,0,0,0,46.2,24Z" transform="translate(0 -15.7)"/><path d="M42.6,26.1a1.7,1.7,0,0,0-.2-3.3,3.2,3.2,0,0,0-3.3,1,3.9,3.9,0,0,0-1,3.1,2.2,2.2,0,0,0,1.6,1.9,4.7,4.7,0,0,0,3.1-.2.3.3,0,0,1,.1-.2,3.7,3.7,0,0,0-.1-1.1h-.3a3.2,3.2,0,0,1-1.7.2,1.1,1.1,0,0,1-1-1.1h.5A5.9,5.9,0,0,0,42.6,26.1Zm-1-2.1a.4.4,0,0,1,.4.4.4.4,0,0,1-.3.6l-.6.2H40A1.4,1.4,0,0,1,41.6,24Z" transform="translate(0 -15.7)"/><path d="M31.6,23.9a1.5,1.5,0,0,0-1.2-1.2,2.4,2.4,0,0,0-2,.6l-.5.5c0-.3.1-.6.1-1H26.5c-.4,2-.7,4-1.1,6H27a.2.2,0,0,0,.2-.2l.3-1.9a4.3,4.3,0,0,1,.6-1.8,2,2,0,0,1,.8-.8c.5-.1.8.1.8.5a.8.8,0,0,1,.1.4,22.3,22.3,0,0,0-.4,2.3l-.3,1.5h1.6c.1,0,.1-.1.2-.2a22.1,22.1,0,0,1,.5-2.5A15,15,0,0,0,31.6,23.9Z" transform="translate(0 -15.7)"/><path d="M35.1,26.5l1.7-.4a1.7,1.7,0,0,0,1-1.7,1.5,1.5,0,0,0-1.2-1.6,3,3,0,0,0-3,.7,3.5,3.5,0,0,0-1.3,3.4,1.9,1.9,0,0,0,1.6,1.9,4.4,4.4,0,0,0,3-.2l.2-.2a4.5,4.5,0,0,1-.1-1.1h-.3a3.3,3.3,0,0,1-1.7.2c-.7-.1-1.1-.5-1-1.1Zm.6-2.5a.5.5,0,0,1,.5.4.6.6,0,0,1-.3.6,3.6,3.6,0,0,1-1.8.2A1.4,1.4,0,0,1,35.7,24Z" transform="translate(0 -15.7)"/><path d="M25.1,25a2,2,0,0,0-.9-1.8,2.6,2.6,0,0,0-2.1-.5,3.8,3.8,0,0,0-3,4.7c.3,1,1.2,1.6,2.8,1.6a3.7,3.7,0,0,0,2.8-1.9A3.9,3.9,0,0,0,25.1,25Zm-2.5,2.2a1,1,0,0,1-.7.4.9.9,0,0,1-1.1-.9v-.3a2.8,2.8,0,0,1,.6-1.8,1.3,1.3,0,0,1,.7-.6,1,1,0,0,1,1.2.9A3.2,3.2,0,0,1,22.6,27.2Z" transform="translate(0 -15.7)"/></svg>