<svg xmlns="http://www.w3.org/2000/svg" width="85.06" height="45.8" viewBox="0 0 85.06 45.8">
  <title>intercAsset 26</title>
  <g id="2667efe6-b00b-47f7-8779-90c0737dc201" data-name="Layer 2">
    <g id="660126c3-b317-4c40-b4d2-431394e94652" data-name="Layer 1">
      <g>
        <rect x="-64.01" y="-200" width="49.07" height="6.54" rx="1.31" ry="1.31" transform="translate(21.05 -193.46) rotate(-180)" fill="#e8e8e8"/>
        <rect x="-100" y="-180.37" width="49.07" height="6.54" rx="1.31" ry="1.31" transform="translate(-50.93 -154.2) rotate(-180)" fill="#e8e8e8"/>
        <rect x="-100" y="-200" width="32.72" height="6.54" rx="1.31" ry="1.31" transform="translate(-67.28 -193.46) rotate(-180)" fill="#e8e8e8"/>
        <rect x="-100" y="-190.19" width="22.9" height="6.54" rx="1.31" ry="1.31" transform="translate(-77.1 -173.83) rotate(-180)" fill="#e8e8e8"/>
        <rect x="-73.83" y="-190.19" width="58.89" height="6.54" rx="1.31" ry="1.31" transform="translate(11.23 -173.83) rotate(-180)" fill="#e8e8e8"/>
        <rect x="-47.65" y="-180.37" width="32.72" height="6.54" rx="1.31" ry="1.31" transform="translate(37.41 -154.2) rotate(180)" fill="#e8e8e8"/>
        <rect x="-64.01" y="-170.56" width="49.07" height="6.54" rx="1.31" ry="1.31" transform="translate(21.05 -134.57) rotate(-180)" fill="#e8e8e8"/>
        <rect x="-100" y="-170.56" width="32.72" height="6.54" rx="1.31" ry="1.31" transform="translate(-67.28 -134.57) rotate(-180)" fill="#e8e8e8"/>
        <rect x="-100" y="-160.74" width="22.9" height="6.54" rx="1.31" ry="1.31" transform="translate(-77.1 -114.94) rotate(-180)" fill="#e8e8e8"/>
        <rect x="-73.83" y="-160.74" width="58.89" height="6.54" rx="1.31" ry="1.31" transform="translate(11.23 -114.94) rotate(180)" fill="#e8e8e8"/>
      </g>
    </g>
  </g>
</svg>
