<svg xmlns="http://www.w3.org/2000/svg" xmlns:xlink="http://www.w3.org/1999/xlink" width="942.36" height="914.3" viewBox="0 0 942.36 914.3">
  <defs>
    <clipPath id="1d1ce7d3-5d88-4763-8437-119a29768a3b">
      <path id="9f9683c2-d922-46ad-ae64-db14773fdbc8" data-name="&lt;Clipping Path&gt;" d="M390.73,517.93s-15.9-37.83,29.89-34.81L538.41,816.44s22.86,43.81,32,44.41,35-1.36,12.33,8.18-30.26,12.71-38.82,3-18.69-23.3-18.69-23.3l12.11,39.42s-39-50.39-15.67-69.09c0,0-129.27-159.34-122.85-228.81a30.78,30.78,0,0,0,1.81-27.47c-6.36-15.14-9.92-44.8-9.92-44.8" fill="#fdb483"/>
    </clipPath>
    <clipPath id="9d68d333-fe54-4fcf-a452-1858fcbd57a4">
      <path id="53a65665-70e0-44c0-b734-30cde53dd7ea" data-name="&lt;Clipping Path&gt;" d="M322.39,482.92s55-18.34,95.73-3a10.21,10.21,0,0,1,6.45,10.19l-20.09,345.5a2.14,2.14,0,0,0,0,.44c.3,3.49,4.39,49.2,12.29,53.14,8.21,4.11,32.83,12.31,8.21,12.31s-32.83,0-36.94-12.31c-1.25-3.75-2.5-7.89-3.64-11.83a3.23,3.23,0,0,0-6.31.58h0a3.24,3.24,0,0,1-6.44,0c-1.67-17.31-.56-38.86,13.76-45.23a3.19,3.19,0,0,0,1.82-3.79c-6.69-23.74-51.92-189.71-26-251.1a3.17,3.17,0,0,0-3-4.44c-21.38.57-101.51,1.75-101.51-12.47,0-16.42,61.56-78,61.56-78" fill="#fdb483"/>
    </clipPath>
    <clipPath id="a76d3539-a1a7-41ca-a0f2-60ac53b77bb8">
      <path id="a0d25c61-012c-4d98-bc29-5d690284f013" data-name="&lt;Clipping Path&gt;" d="M121.3,450.09s-41,53.35-16.41,94.39,205.19,28.73,205.19,28.73S330.6,487,396.26,474.72c0,0-139.53-24.63-188.78-12.31S121.3,450.09,121.3,450.09Z" fill="#155c8f"/>
    </clipPath>
    <clipPath id="5b8878e7-e128-40db-bcde-5db5447a7e89">
      <path id="399ecb47-0106-40f1-b5b2-eb7200017c3f" data-name="&lt;Clipping Path&gt;" d="M213.91,176.7s-38.53,9.63-48.16,77.05,4.81,130-53,207.09c0,0-11.66,71.87,132.82-.37,0,0,79.08-165.78,2-268.12C247.62,192.35,228.35,196,213.91,176.7Z" fill="#2979ff"/>
    </clipPath>
  </defs>
  <title>intercAsset 20</title>
  <g id="3cecb53d-787d-4386-82f9-654c7a70ebe0" data-name="Layer 2">
    <g id="c5a09281-3303-4a8c-b712-187b1772dd6c" data-name="Layer 1">
      <rect x="308.72" y="418.51" width="596.48" height="30.17" fill="#e8e8e8"/>
      <polygon points="814.54 433.19 942.36 906.3 924.77 911.35 777.17 443.92 814.54 433.19" fill="#e8e8e8"/>
      <polygon points="273.46 595.93 332.1 901.71 319.54 901.71 244.14 595.93 273.46 595.93" fill="#b3b7d4"/>
      <polygon points="139.42 595.93 80.78 901.71 93.34 901.71 168.74 595.93 139.42 595.93" fill="#b3b7d4"/>
      <path d="M348.86,562.42s29.32,37.7-104.72,33.51S76.59,591.74,64,558.23,26.33,323.66,5.38,315.29,30.51,286,43.08,332,72.4,545.67,126.86,549.86,348.86,562.42,348.86,562.42Z" fill="#e8e8e8"/>
      <path d="M205.16,227.45c11.76-33.06,32.56-26.18,32.56-26.18C269,214.82,301.4,345.8,301.4,345.8c22.52,15.3,128.85,44.8,128.85,44.8s21.88-14.42,26.81-8.35,12.22,25.36,5.77,34-44.09-4.7-44.09-4.7c-57-7.63-139.28-32.75-139.28-32.75S193.41,260.51,205.16,227.45Z" fill="#f0a475"/>
      <g>
        <path id="870755fa-d2be-41f1-a845-eb3b6a4f8643" data-name="&lt;Clipping Path&gt;" d="M390.73,517.93s-15.9-37.83,29.89-34.81L538.41,816.44s22.86,43.81,32,44.41,35-1.36,12.33,8.18-30.26,12.71-38.82,3-18.69-23.3-18.69-23.3l12.11,39.42s-39-50.39-15.67-69.09c0,0-129.27-159.34-122.85-228.81a30.78,30.78,0,0,0,1.81-27.47c-6.36-15.14-9.92-44.8-9.92-44.8" fill="#fdb483"/>
        <g clip-path="url(#1d1ce7d3-5d88-4763-8437-119a29768a3b)">
          <path d="M513,819.08h8.1s30.39,68.88,48.62,38.49,40.53,10.13,40.53,10.13l-42.55,34.44-50.65,10.13-32.42-70.91Z" fill="#4d5ba3"/>
        </g>
      </g>
      <g>
        <path id="bb6ceb5b-2b44-4690-899f-612b9b8390e5" data-name="&lt;Clipping Path&gt;" d="M322.39,482.92s55-18.34,95.73-3a10.21,10.21,0,0,1,6.45,10.19l-20.09,345.5a2.14,2.14,0,0,0,0,.44c.3,3.49,4.39,49.2,12.29,53.14,8.21,4.11,32.83,12.31,8.21,12.31s-32.83,0-36.94-12.31c-1.25-3.75-2.5-7.89-3.64-11.83a3.23,3.23,0,0,0-6.31.58h0a3.24,3.24,0,0,1-6.44,0c-1.67-17.31-.56-38.86,13.76-45.23a3.19,3.19,0,0,0,1.82-3.79c-6.69-23.74-51.92-189.71-26-251.1a3.17,3.17,0,0,0-3-4.44c-21.38.57-101.51,1.75-101.51-12.47,0-16.42,61.56-78,61.56-78" fill="#fdb483"/>
        <g clip-path="url(#9d68d333-fe54-4fcf-a452-1858fcbd57a4)">
          <path d="M381.34,827.18l6.07,4.05s2,58.76,28.37,56.73,34.44,16.21,34.44,16.21L407.67,914.3l-48.62-2-10.13-28.36,14.18-52.68Z" fill="#4d5ba3"/>
        </g>
      </g>
      <g>
        <path id="e5ba08af-f704-4324-a753-028fa538b191" data-name="&lt;Clipping Path&gt;" d="M121.3,450.09s-41,53.35-16.41,94.39,205.19,28.73,205.19,28.73S330.6,487,396.26,474.72c0,0-139.53-24.63-188.78-12.31S121.3,450.09,121.3,450.09Z" fill="#155c8f"/>
        <g clip-path="url(#a76d3539-a1a7-41ca-a0f2-60ac53b77bb8)">
          <path d="M292.16,494.44l1.95-.63c.94-.3.54-1.81-.42-1.5l-1.94.63c-.95.31-.54,1.81.41,1.5Z" fill="#155c8f"/>
          <path d="M319.55,590.41v.64a.78.78,0,0,0,1.55,0v-.64a.78.78,0,0,0-1.55,0Z" fill="#2e77a3"/>
          <path d="M391.31,472.38A438,438,0,0,0,308.7,482c-.25.05-.14.43.1.37a437.8,437.8,0,0,1,82.51-9.6c.25,0,.25-.4,0-.39Z" fill="#2e77a3"/>
          <path d="M393.24,476.39a165,165,0,0,0-49.68,10.07c-.23.09-.13.47.11.38a164.51,164.51,0,0,1,49.57-10.06c.25,0,.25-.4,0-.39Z" fill="#2e77a3"/>
          <path d="M302.07,580.14A54.65,54.65,0,0,1,304,532.57c.11-.22-.22-.41-.34-.19a55.09,55.09,0,0,0-1.92,48c.1.23.44,0,.34-.2Z" fill="#2e77a3"/>
          <path d="M288.19,571.47a94.55,94.55,0,0,1-20.69-19.24c-.16-.2-.43.08-.28.27A95.24,95.24,0,0,0,288,571.81c.21.14.4-.2.2-.34Z" fill="#2e77a3"/>
          <path d="M246.7,467l-46.48,16.75c-.23.08-.13.46.11.37l46.47-16.75c.24-.08.14-.46-.1-.37Z" fill="#2e77a3"/>
          <path d="M290.57,474a887.27,887.27,0,0,1-121.91,20.76c-.24,0-.25.42,0,.39a888.7,888.7,0,0,0,122-20.77c.25-.06.14-.44-.1-.38Z" fill="#2e77a3"/>
        </g>
      </g>
      <path d="M300.59,37c0,4.81,19.27,110.76-24.08,125.21s-62.6-48.16-62.6-48.16L242.8,46.67Z" fill="#fdb483"/>
      <polygon points="247.62 138.17 247.62 210.41 204.28 186.33 217.27 106.24 247.62 138.17" fill="#fdb483"/>
      <g>
        <path id="7d3a1434-7b91-42e2-aecc-27d444702e72" data-name="&lt;Clipping Path&gt;" d="M213.91,176.7s-38.53,9.63-48.16,77.05,4.81,130-53,207.09c0,0-11.66,71.87,132.82-.37,0,0,79.08-165.78,2-268.12C247.62,192.35,228.35,196,213.91,176.7Z" fill="#2979ff"/>
        <g clip-path="url(#5b8878e7-e128-40db-bcde-5db5447a7e89)">
          <path d="M273.21,419.51a.78.78,0,0,0,0-1.55.78.78,0,0,0,0,1.55Z" fill="#4ea89b"/>
          <path d="M249.45,457.12a303.91,303.91,0,0,1-47.3,12.31c-.25.05-.14.42.1.38a305.18,305.18,0,0,0,47.31-12.32c.23-.08.13-.46-.11-.37Z" fill="#4ea89b"/>
          <path d="M246.1,454.83a136.13,136.13,0,0,1-29.57-4.26.2.2,0,0,0-.1.38,137,137,0,0,0,29.67,4.27.2.2,0,0,0,0-.39Z" fill="#4ea89b"/>
          <path d="M116.93,443.2c-3.63,8.08.79,17,5.88,23.37A42.4,42.4,0,0,0,144,480.7c.24.07.34-.31.1-.38a41.85,41.85,0,0,1-19-11.69c-5.93-6.46-11.79-16.4-7.83-25.23.11-.23-.23-.43-.33-.2Z" fill="#4ea89b"/>
          <path d="M255.74,199.59c-18.17,2.74-40.7,3.55-51.85-14.11-.13-.21-.47,0-.34.19,11.24,17.8,33.95,17.06,52.29,14.3.25,0,.15-.42-.1-.38Z" fill="#4ea89b"/>
          <path d="M267.4,413.57c-3.87-3.87-103.15-129.63-91.26-155.81S281,394.21,281,394.21Z" fill="#236cff" opacity="0.35"/>
        </g>
      </g>
      <path d="M300.29,37s-26,58.2-78.86,59.49c0,0,5.93,94.48-10.28,106.64s-46,32.66-47.32,67c0,0-68.16-58.88-17.51-105.48S162.53,55.27,194.94,37c0,0,64.83-48.63,99.28-34.45s29.89,60,9.88,67.46C304.1,70.05,302.32,47.16,300.29,37Z" fill="#0d537c"/>
      <path d="M175.7,244.72c9.11-37.46,32.63-32.28,32.63-32.28,35.67,11.29,85.89,150.78,85.89,150.78,26.34,14.19,145.87,34.45,145.87,34.45s22.29-18.24,28.36-12.16,16.21,26.34,10.13,36.47-48.71-.17-48.71-.17C366.71,419.9,274,401.72,274,401.72S166.58,282.18,175.7,244.72Z" fill="#fdb483"/>
      <path d="M208.62,111.1c3.08,7.32,9.72,11.52,14.85,9.36s6.79-9.83,3.72-17.15-9.72-11.52-14.85-9.37S205.55,103.77,208.62,111.1Z" fill="#fdb483"/>
      <path d="M302.32,33s-38,97.25-79.77,61.8" fill="#0d537c"/>
      <path d="M275.52,95.3c3.16-6.18,10.49-8.84,17.16-7.16,1,.25,1.57-1.23.57-1.48-7.53-1.9-15.56.93-19.22,8.07-.46.91,1,1.48,1.49.57Z" fill="#0d537c"/>
      <path d="M274.18,134.12a17.42,17.42,0,0,0,4,7.55c4,4.52,9.76,5.78,15.6,5.25,1-.1.68-1.65-.33-1.56-7.94.73-15.89-3.32-17.69-11.56a.79.79,0,0,0-1.55.32Z" fill="#573c37"/>
      <path d="M428.4,413.34l52-128.45A11.4,11.4,0,0,1,491,277.77H710.08a8,8,0,0,1,7.34,11.09L657.58,429.48H341.24l3-11.34Z" fill="#4d5ba3"/>
      <polygon points="392.81 437.14 259.55 902.24 277.81 907.72 434.18 439.15 392.81 437.14" fill="#e8e8e8"/>
      <g>
        <path d="M735.5,196.57s-16.43,72.56,9.58,121.84l26,49.29S777.94,244.49,735.5,196.57Z" fill="#5bb59b"/>
        <path d="M736.61,386c1.58,8.9,3.6,17.87,8,25.76s11.51,14.67,20.3,16.8a47.16,47.16,0,0,0,12.22.84c4.5-.12,9.19-.41,13.07-2.69,5-3,7.69-8.71,9.74-14.2a165.33,165.33,0,0,0,7.86-28.65c1-5.63,1.67-11.74-1-16.82-3.56-6.89-11.91-9.66-19.56-10.91-12.72-2.07-30.23-3.13-42.41,2C734.24,362.69,734.88,376.28,736.61,386Z" fill="#d8dae9"/>
        <path d="M765.45,367.94c10.09.59,21-1,27.38-4.38,1.27-.69,2.4-1.57,1.8-2.4-.71-1-3.4-1.4-5.74-1.64-12.13-1.25-25.57-1.82-37.44.19C734.06,362.66,756.22,367.4,765.45,367.94Z" fill="#524f63"/>
        <path d="M760.14,178.77s-8.21,138.28,11,188.93C771.09,367.7,783.41,244.49,760.14,178.77Z" fill="#63a590"/>
        <path d="M768.67,366.69h4.45c6.54-27.37,26.11-116,15.77-157.42,0,0-32.86,116.36-24.64,142.38C766.25,358.47,767.67,363.28,768.67,366.69Z" fill="#5bb59b"/>
      </g>
      <g>
        <path d="M556.18,325.29H604.4c2.91,0,4.6,2.36,3.78,5.26L598.78,364a7.5,7.5,0,0,1-6.75,5.27H543.81c-2.91,0-4.6-2.36-3.78-5.27l9.4-33.46A7.5,7.5,0,0,1,556.18,325.29Z" fill="#fff" opacity="0.66" style="isolation: isolate"/>
        <path d="M563.14,334.85h48.22c2.91,0,4.6,2.36,3.79,5.27l-9.41,33.46a7.48,7.48,0,0,1-6.74,5.26H550.78c-2.91,0-4.61-2.36-3.79-5.26l9.41-33.46A7.48,7.48,0,0,1,563.14,334.85Z" fill="#fff" opacity="0.7" style="isolation: isolate"/>
      </g>
    </g>
  </g>
</svg>
