<svg id="Capa_1" data-name="Capa 1" xmlns="http://www.w3.org/2000/svg" viewBox="0 0 384 384"><defs><style>.cls-1{fill:#939698;}</style></defs><title>dashboard-icon</title><path class="cls-1" d="M74,277.3H224.7a10,10,0,0,0,10-10V74a10,10,0,0,0-10-10H74A10,10,0,0,0,64,74V267.3A10,10,0,0,0,74,277.3ZM74,448H224.7a10,10,0,0,0,10-10V330a10,10,0,0,0-10-10H74a10,10,0,0,0-10,10V438A10,10,0,0,0,74,448Zm213.3,0H438a10,10,0,0,0,10-10V244.7a10,10,0,0,0-10-10H287.3a10,10,0,0,0-10,10V438A10,10,0,0,0,287.3,448Zm-10-374V182a10,10,0,0,0,10,10H438a10,10,0,0,0,10-10V74a10,10,0,0,0-10-10H287.3A10,10,0,0,0,277.3,74Z" transform="translate(-64 -64)"/></svg>