<svg id="Capa_1" data-name="Capa 1" xmlns="http://www.w3.org/2000/svg" viewBox="0 0 413.1 512"><defs><style>.cls-1{fill:#2c58ff;}</style></defs><title>download</title><path class="cls-1" d="M256,381.2h0a7.7,7.7,0,0,1-7.7-7.7V200a7.8,7.8,0,0,1,7.7-7.7h0a7.7,7.7,0,0,1,7.7,7.7V373.5A7.8,7.8,0,0,1,256,381.2Z" transform="translate(-49.4)"/><path class="cls-1" d="M256,381.2a8,8,0,0,1-5.5-2.3l-66.3-66.3a7.7,7.7,0,1,1,10.9-10.9L256,362.6l60.9-60.9a7.6,7.6,0,0,1,10.8,0,7.7,7.7,0,0,1,0,10.9l-66.3,66.3A7.6,7.6,0,0,1,256,381.2Z" transform="translate(-49.4)"/><path class="cls-1" d="M424.1,512H87.9a38.5,38.5,0,0,1-38.5-38.4V38.4A38.5,38.5,0,0,1,87.9,0H332.1a7.6,7.6,0,0,1,7.6,7.7,7.7,7.7,0,0,1-7.6,7.7H87.9a23.1,23.1,0,0,0-23.1,23V473.6a23.1,23.1,0,0,0,23.1,23H424.1a23.1,23.1,0,0,0,23.1-23V133.9a7.7,7.7,0,0,1,15.4,0V473.6A38.5,38.5,0,0,1,424.1,512Z" transform="translate(-49.4)"/><path class="cls-1" d="M454.9,141.5H332.1a7.6,7.6,0,0,1-7.7-7.6V11a7.7,7.7,0,1,1,15.3,0V126.2H454.9a7.7,7.7,0,1,1,0,15.3Z" transform="translate(-49.4)"/><path class="cls-1" d="M454.9,141.5a7.4,7.4,0,0,1-5.5-2.3L326.5,13.1a7.8,7.8,0,0,1,.2-10.9,7.6,7.6,0,0,1,10.9.2L460.4,128.5a7.6,7.6,0,0,1-5.5,13Z" transform="translate(-49.4)"/></svg>