<svg xmlns="http://www.w3.org/2000/svg" width="74.2" height="74.2" viewBox="0 0 74.2 74.2">
  <title>intercAsset 32</title>
  <g id="15257764-c8ea-405d-8063-10a6b711cdb6" data-name="Layer 2">
    <g id="0c47b4f8-4cfe-435c-908c-e2772093abe5" data-name="Layer 1">
      <g>
        <path d="M70.13,54A37.09,37.09,0,1,1,54,4.07,37.09,37.09,0,0,1,70.13,54Z" fill="#ffbf40"/>
        <path d="M22.57,65.38A31.86,31.86,0,0,1,27.26,6.7,31.58,31.58,0,0,1,51.57,8.64h0a31.86,31.86,0,0,1-4.7,58.68,31.59,31.59,0,0,1-24.31-1.94ZM49.37,13h0A27,27,0,0,0,24.78,61h0A27,27,0,0,0,49.37,13Z" fill="#ffdf67"/>
      </g>
    </g>
  </g>
</svg>
