<svg xmlns="http://www.w3.org/2000/svg" width="824.14" height="553.05" viewBox="0 0 824.14 553.05">
  <defs>
    <style type="text/css">@import url("https://fonts.googleapis.com/css?family=Gudea:400,700");</style>
  </defs>
  <title>intercAsset 29</title>
  <g id="12f54416-7121-4d31-a8f5-d260f67bb22b" data-name="Layer 2">
    <g id="4dbab4ad-a3d5-4ea4-b964-ec488aaf8420" data-name="Layer 1">
      <rect x="1.42" y="2.2" width="698.9" height="460.53" rx="11.89" ry="11.89" transform="translate(-1.51 2.29) rotate(-0.37)" fill="#2979ff"/>
      <rect x="56.53" y="142.9" width="121.17" height="129.59" rx="2" ry="2" transform="translate(-1.35 0.77) rotate(-0.37)" fill="#ffbf40"/>
      <g>
        <rect x="55.03" y="330.22" width="126.08" height="45.94" transform="translate(-2.3 0.78) rotate(-0.37)" fill="#eff3f4"/>
        <rect x="210.75" y="329.21" width="126.08" height="45.94" transform="translate(-2.29 1.79) rotate(-0.37)" fill="#eff3f4"/>
        <rect x="366.47" y="328.19" width="126.08" height="45.94" transform="translate(-2.28 2.81) rotate(-0.37)" fill="#eff3f4"/>
        <rect x="522.18" y="327.17" width="126.08" height="45.94" transform="translate(-2.27 3.83) rotate(-0.37)" fill="#eff3f4"/>
      </g>
      <text transform="translate(334.79 121.06) rotate(-0.37)" font-size="99.49" fill="#fff" font-family="Gudea, Gudea" font-weight="700">BANK</text>
      <g>
        <path d="M783.38,151.84a46.07,46.07,0,0,1,1.53-11.76c-28.26-4.82-65.91-9-86.67-9-20.12,0-56.08,4-84,8.59a45.82,45.82,0,0,1-41.89,58c3,40.49,13.42,95.55,25.72,125.27,20.37,49.23,90.83,92.52,100.17,100.17,9.33-7.65,79.79-50.94,100.16-100.17,12.32-29.77,22.78-85,25.74-125.5A45.85,45.85,0,0,1,783.38,151.84Z" transform="translate(0)" fill="#075edb"/>
        <g>
          <path d="M698.24,154c-13.53,0-36.66,2.07-59.81,5.21a68.72,68.72,0,0,1-41.36,55.94c2.15,18.25,5.43,37.41,9.26,54.72,3.93,17.7,8.43,33.45,12.92,44.29,13.56,32.79,57.25,65.35,79,80.75l.07,0V154Z" transform="translate(0)" fill="#5eaef7"/>
          <path d="M760.89,159.57C737,156.23,712.37,154,698.31,154V394.83c21.76-15.44,65.36-48,78.91-80.71,4.5-10.85,9-26.6,12.92-44.29a562.3,562.3,0,0,0,9.41-55.93A68.66,68.66,0,0,1,760.89,159.57Z" transform="translate(0)" fill="#268fef"/>
        </g>
        <g>
          <path d="M697.12,254.38a10.55,10.55,0,0,0-7.25,18.21v9.52a7.26,7.26,0,1,0,14.51,0v-9.52a10.55,10.55,0,0,0-7.26-18.21Zm3.74,14.51a5,5,0,0,0-1.59,3.64v9.58a2.15,2.15,0,1,1-4.29,0v-9.58a5,5,0,0,0-1.59-3.64,5.44,5.44,0,1,1,7.47,0Z" transform="translate(0)" fill="#fff"/>
          <path d="M728.05,240.51h-7.66v-20.3a23.27,23.27,0,1,0-46.53,0v20.3h-7.67a7.68,7.68,0,0,0-7.66,7.67v47.39a7.68,7.68,0,0,0,7.66,7.67h61.86a7.67,7.67,0,0,0,7.66-7.67V248.18A7.67,7.67,0,0,0,728.05,240.51ZM679,220.21a18.16,18.16,0,1,1,36.32,0v20.3H679Zm51.65,75.36h0a2.56,2.56,0,0,1-2.56,2.56H666.19a2.56,2.56,0,0,1-2.55-2.56V248.18a2.56,2.56,0,0,1,2.55-2.56h61.86a2.56,2.56,0,0,1,2.56,2.56Z" transform="translate(0)" fill="#fff"/>
        </g>
      </g>
      <g>
        <path d="M442.42,513.4h-9.26a1.79,1.79,0,0,0-1.36,1.08l-3.82,24a.73.73,0,0,0,.82.82h4.9a.72.72,0,0,0,.82-.82l1.09-6.8a1.24,1.24,0,0,1,1.36-1.09h3q9.41,0,10.62-9a7.11,7.11,0,0,0-1.09-6,11,11,0,0,0-7.07-2.17m1.08,9c-.54,3.27-3,3.27-5.44,3.27h-1.63l1.08-6.26c0-.28.28-.55.82-.55h.55c1.63,0,3.26,0,4.08,1.09.54.27.54,1.09.54,2.45" transform="translate(0)" fill="#139ad6"/>
        <g>
          <path d="M375.71,513.4h-9.26a1.81,1.81,0,0,0-1.36,1.08l-3.81,24a.72.72,0,0,0,.82.82h4.35a1.78,1.78,0,0,0,1.36-1.09l1.09-6.53a1.25,1.25,0,0,1,1.36-1.09h3q9.39,0,10.62-9a7.15,7.15,0,0,0-1.09-6c-1.64-1.36-3.81-2.17-7.08-2.17m1.09,9c-.55,3.27-3,3.27-5.45,3.27H370l1.09-6.26c0-.28.27-.55.82-.55h.54c1.64,0,3.27,0,4.09,1.09a2.93,2.93,0,0,1,.27,2.45" transform="translate(0)" fill="#263b80"/>
          <path d="M403.75,522.11H399.4c-.28,0-.82.27-.82.54l-.27,1.36-.27-.54c-1.09-1.36-3-1.91-5.18-1.91a10.46,10.46,0,0,0-10.07,9,8.12,8.12,0,0,0,1.63,6.81c1.36,1.63,3.27,2.17,5.72,2.17a8.71,8.71,0,0,0,6.26-2.45l-.27,1.36a.72.72,0,0,0,.82.82H401a1.8,1.8,0,0,0,1.36-1.09l2.45-15.25c-.27-.27-.81-.81-1.09-.81m-6.26,8.71a5.26,5.26,0,0,1-5.17,4.36,4.4,4.4,0,0,1-3-1.09,5.86,5.86,0,0,1-.81-3.27,4.85,4.85,0,0,1,7.89-3.27,4.75,4.75,0,0,1,1.09,3.27" transform="translate(0)" fill="#263b80"/>
        </g>
        <path d="M470.19,522.11h-4.36c-.27,0-.82.27-.82.54l-.27,1.36-.27-.54c-1.09-1.36-3-1.91-5.17-1.91a10.48,10.48,0,0,0-10.08,9,8.12,8.12,0,0,0,1.64,6.81c1.36,1.63,3.26,2.17,5.71,2.17a8.72,8.72,0,0,0,6.27-2.45l-.28,1.36a.73.73,0,0,0,.82.82h4.08a1.81,1.81,0,0,0,1.37-1.09l2.45-15.25c-.28-.27-.55-.81-1.09-.81m-6.27,8.71a5.26,5.26,0,0,1-5.17,4.36,4.36,4.36,0,0,1-3-1.09,5.78,5.78,0,0,1-.82-3.27,4.86,4.86,0,0,1,7.9-3.27,3.13,3.13,0,0,1,1.08,3.27" transform="translate(0)" fill="#139ad6"/>
        <path d="M427.44,522.11h-4.63a1.44,1.44,0,0,0-1.09.54l-6,9.26L413,523.2a1.25,1.25,0,0,0-1.36-.82h-4.36c-.54,0-.81.54-.81,1.09l4.9,14.43-4.63,6.53c-.27.55,0,1.37.54,1.37h4.36a1.43,1.43,0,0,0,1.09-.55l15-21.51c.82-.82.27-1.63-.27-1.63" transform="translate(0)" fill="#263b80"/>
        <path d="M475.36,514.21l-3.81,24.51a.72.72,0,0,0,.82.81h3.81a1.8,1.8,0,0,0,1.36-1.09l3.81-24a.72.72,0,0,0-.82-.81h-4.35c-.28-.27-.55,0-.82.54" transform="translate(0)" fill="#139ad6"/>
        <path d="M341.13,505.23c-1.91-2.18-5.44-3.27-10.35-3.27H317.17a2.35,2.35,0,0,0-1.91,1.63l-5.44,35.67a1.24,1.24,0,0,0,1.09,1.36h8.44l2.18-13.34v.55a2.34,2.34,0,0,1,1.9-1.64h4.09c7.89,0,13.88-3.27,15.79-12.25v-.82h0c.27-3.54-.27-5.71-2.18-7.89" transform="translate(0)" fill="#263b80"/>
        <path d="M343,513.12h0v.82c-1.91,9.26-7.9,12.25-15.8,12.25h-4.08a2.35,2.35,0,0,0-1.91,1.64l-2.72,16.6a1,1,0,0,0,1.09,1.09h7.08a1.52,1.52,0,0,0,1.63-1.36v-.27l1.37-8.44v-.55a1.52,1.52,0,0,1,1.63-1.36h1.09c6.8,0,12.25-2.72,13.61-10.89.55-3.26.27-6.26-1.36-8.17a2.84,2.84,0,0,0-1.63-1.36" transform="translate(0)" fill="#139ad6"/>
        <path d="M341.13,512.31c-.27,0-.54-.28-.82-.28a1,1,0,0,1-.81-.27,14.51,14.51,0,0,0-3.54-.27H325.34a1,1,0,0,0-.82.27,1.5,1.5,0,0,0-.81,1.36l-2.18,14.16v.55a2.34,2.34,0,0,1,1.9-1.64h4.09c7.89,0,13.88-3.27,15.79-12.25a1,1,0,0,1,.27-.82c-.54-.27-.82-.54-1.36-.54-.82-.27-.82-.27-1.09-.27" transform="translate(0)" fill="#232c65"/>
      </g>
      <g>
        <path d="M570.8,515.74c-1.88-.25-3.76-.71-5.65-.81a16.25,16.25,0,0,0-10.38,2.57c-5,3.38-7,8.25-6.78,14.13.11,2.8,1.21,5.17,3.88,6.4a7.12,7.12,0,0,0,7.68-1,31.82,31.82,0,0,0,3.13-3.2c-.08,1.16-.12,2.27-.22,3.38-.07.69.16,1,.87.93q2.07-.07,4.14,0c.75,0,.92-.25,1-1a70.14,70.14,0,0,1,.65-7.1c.72-4.39,1.61-8.77,2.45-13.16C571.67,516.27,571.56,515.85,570.8,515.74Zm-9.5,15.1a7.61,7.61,0,0,1-1.49,1.66,3,3,0,0,1-3.23.66,2.86,2.86,0,0,1-1.7-2.72,10.57,10.57,0,0,1,3.88-9.22,5.65,5.65,0,0,1,5.47-1.09C563.46,523.82,563.41,527.61,561.3,530.84Z" transform="translate(0)"/>
        <path d="M638.48,492.4c-3.06-5.25-10.08-3.91-10.08-3.91-.55.13-1.12.27-1.68.37a36,36,0,0,0-9.7,3.37A74.6,74.6,0,0,0,599,505.17c-3.57,3.44-7.05,7-10.4,10.67a99.77,99.77,0,0,0-14.94,21.31,46.34,46.34,0,0,0-4.77,12.59,5.5,5.5,0,0,0,.37,2.6c.11.33.72.58,1.14.71.12,0,.46-.51.61-.84a65.8,65.8,0,0,1,3-6.36c2.4-4,4.91-7.93,7.59-11.73a132,132,0,0,1,14.53-17c5-5,10.1-9.88,16.39-13.25a95.06,95.06,0,0,1,8.86-4.29,68.75,68.75,0,0,1,16.26-4.45,2.25,2.25,0,0,0,1.59-1C639.31,493.68,638.48,492.4,638.48,492.4Z" transform="translate(0)" fill="#ff4800"/>
        <path d="M548.82,513.59c-.43-3-3-5.53-6.58-6.43-4.15-1-8.32-.6-12.48,0-.55.08-.71.45-.81,1q-2.38,12.62-4.81,25.23c-.3,1.52-.56,3.06-.86,4.73,2.13,0,4.12,0,6.11,0,.16,0,.4-.43.44-.69.65-3.25,1.28-6.5,1.87-9.75.12-.63.32-.81,1-.75a20.17,20.17,0,0,0,8.34-.85A11.12,11.12,0,0,0,548.82,513.59Zm-7,4.53a6,6,0,0,1-5.19,3.48,35.86,35.86,0,0,1-3.76,0c.62-3.28,1.16-6.19,1.73-9.1a.86.86,0,0,1,.51-.54,10,10,0,0,1,4.82.23C542.13,513,543,515.63,541.8,518.12Z" transform="translate(0)"/>
        <path d="M581.7,507a22.9,22.9,0,0,0-6.36-13.28,4,4,0,0,0-1.57-1c-.59-.22-1,.12-.92.79s.11,1.18.21,1.76c.71,4.05,1.41,8.11,2.18,12.16q.9,4.74,2,9.45a13.13,13.13,0,0,0,1.13,2.94c.37.71.9.65,1.39,0a3.3,3.3,0,0,0,.55-.86,27.69,27.69,0,0,0,1.67-9C581.87,509,581.82,508,581.7,507Z" transform="translate(0)" fill="#ff4800"/>
        <path d="M698.18,520c.14-1.48.25-3,.37-4.54-1.82,0-3.53,0-5.2,0-.2,0-.53.42-.55.66A148.2,148.2,0,0,1,690,533.51c-.29,1.49-.55,3-.84,4.63,2.19,0,4.24,0,6.29,0,.16,0,.39-.43.44-.69.64-3.14,1.14-6.33,1.9-9.45,1.1-4.49,2.94-6,7.32-6.62.2,0,.49-.23.52-.39.42-2,.79-3.89,1.2-6C702.59,514.52,700.23,517,698.18,520Z" transform="translate(0)"/>
        <path d="M684.85,527.77a6.24,6.24,0,0,0,3.93-6.43,6.1,6.1,0,0,0-4.72-5.94A11.84,11.84,0,0,0,671.59,519a14.33,14.33,0,0,0-3.79,12c.43,3.56,2.31,6.16,5.89,7.13a17.68,17.68,0,0,0,11.64-1,1.05,1.05,0,0,0,.54-.81c-.07-1.35-.23-2.71-.38-4.14-.46.17-.81.31-1.16.42a13.65,13.65,0,0,1-6.45.83c-2.38-.28-4-2-3.73-4.15.66,0,1.28,0,1.9,0A21.33,21.33,0,0,0,684.85,527.77Zm-3.88-8a1.92,1.92,0,0,1,1.62,1.61,1.89,1.89,0,0,1-1.16,2.15,9.29,9.29,0,0,1-2.59.75c-1.32.18-2.65.19-4.07.28C675.07,521.48,678.33,519.08,681,519.8Z" transform="translate(0)"/>
        <path d="M642.85,519.66a5.08,5.08,0,0,0-4.34-4.64,8.94,8.94,0,0,0-7.63,2.28c-.6.52-1.16,1.08-1.82,1.69.1-1.19.19-2.35.28-3.54H623.7c-1.4,7.55-2.77,15-4.17,22.68,2.17,0,4.13,0,6.1,0,.22,0,.56-.45.61-.74.49-2.45.93-4.91,1.36-7.36a19.59,19.59,0,0,1,2-6.53,6.07,6.07,0,0,1,3.35-3.12,2.17,2.17,0,0,1,3.08,2,5.31,5.31,0,0,1,0,1.49c-.46,2.87-1,5.73-1.46,8.59-.33,1.87-.69,3.73-1,5.58.18.08.26.15.35.15,1.91,0,3.82,0,5.73,0,.22,0,.55-.44.61-.72.66-3.22,1.26-6.43,1.87-9.66A26.78,26.78,0,0,0,642.85,519.66Z" transform="translate(0)"/>
        <path d="M656.28,529.22a16.8,16.8,0,0,0,6.61-1.55,6.61,6.61,0,0,0-.89-12.25,11.69,11.69,0,0,0-11.43,2.45c-4,3.42-5.53,8-5,13.13a7.77,7.77,0,0,0,6,7.21,17.93,17.93,0,0,0,11.48-1,1.11,1.11,0,0,0,.55-.8c-.08-1.36-.24-2.71-.37-4.06a1,1,0,0,0-.28,0l-.71.25a13.49,13.49,0,0,1-6.62.9,3.93,3.93,0,0,1-3.77-4.23C653.41,529.24,654.85,529.31,656.28,529.22Zm2.44-9.43a2,2,0,0,1,1.69,1.65,2.07,2.07,0,0,1-1.24,2.21,13.37,13.37,0,0,1-6.57.77C653,521.47,656.07,519.15,658.72,519.79Z" transform="translate(0)"/>
        <path d="M618.41,523.46a8.6,8.6,0,0,0-3.49-6.67,10.54,10.54,0,0,0-7.84-1.78c-9.52,1.06-13.41,11.12-11.38,17.56,1.23,3.93,4.58,6.1,10.47,6.1,4.06-.12,8.06-2.42,10.58-7.13A15.06,15.06,0,0,0,618.41,523.46ZM609,532a4.14,4.14,0,0,1-2.92,1.68,3.65,3.65,0,0,1-4-3.63c0-.34,0-.7,0-1a12,12,0,0,1,2.23-7,4.6,4.6,0,0,1,2.7-1.91,3.51,3.51,0,0,1,4.5,3.38A11.72,11.72,0,0,1,609,532Z" transform="translate(0)"/>
      </g>
    </g>
  </g>
</svg>
