<svg xmlns="http://www.w3.org/2000/svg" width="325.22" height="274.18" viewBox="0 0 325.22 274.18">
  <title>intercAsset 31</title>
  <g id="5f14f2b7-3e3c-4834-ab18-8efcffaae844" data-name="Layer 2">
    <g id="7e849ed2-1ca7-49aa-9309-cbec9d91b9fc" data-name="Layer 1">
      <g>
        <g>
          <path d="M0,87.21A1093.87,1093.87,0,0,0,99.76,0l2.46,2.46A1094.11,1094.11,0,0,1,2.63,90Z" fill="#28b260"/>
          <path d="M2.54,89.86a1095.69,1095.69,0,0,0,99.6-87.48c62.23,62.06,137,118,223.08,163.54a1193.13,1193.13,0,0,1-85,108.26C148.64,221.91,69,159.1,2.54,89.86Z" fill="#2ecc71"/>
          <path d="M41.5,73.87q21.21-18,41.22-36.81c12.51,12.33,33.17,12.28,45-.06A942.47,942.47,0,0,0,280.32,149.52C269.8,163.47,274,182.63,290.77,192q-17.17,22.64-35.68,44.71c-17.16-9.81-40.09-7.31-52.37,5.85A1046,1046,0,0,1,41.28,117.52C54.71,106.19,54.28,86.66,41.5,73.87Z" fill="#28b260"/>
        </g>
        <path d="M131.38,169.7c-19.64-15.15-21-40.41-5.12-56.21s42.6-17.17,61.37-3.26S210.86,149,195.75,166,151,184.86,131.38,169.7Z" fill="#2ecc71"/>
      </g>
    </g>
  </g>
</svg>
