<svg xmlns="http://www.w3.org/2000/svg" width="305.18" height="221.49" viewBox="0 0 305.18 221.49">
  <title>intercAsset 30</title>
  <g id="6d955e97-0210-4a56-896c-62fc99e42213" data-name="Layer 2">
    <g id="df52a6b3-d066-448b-8a27-681ecb33fe4a" data-name="Layer 1">
      <g>
        <g>
          <path d="M14.34,221.49A1094.12,1094.12,0,0,0,0,89.76l3.42-.6A1094.11,1094.11,0,0,1,18.09,220.91Z" fill="#28b260"/>
          <path d="M18,220.93A1096.15,1096.15,0,0,0,3.31,89.18C89.83,73.72,178.46,44.46,265.15,0a1191.19,1191.19,0,0,1,40,131.71C209.89,176.82,112.8,206.09,18,220.93Z" fill="#2ecc71"/>
          <path d="M27.17,179.84Q24.58,152.14,20.62,125c17.27-3.19,29.06-20.15,25.69-36.88A941.76,941.76,0,0,0,226,27.41c5.4,16.62,23.49,24.19,40.82,15.78q8.7,27,16.21,54.86c-17.87,8.45-29,28.67-25.2,46.28A1046.3,1046.3,0,0,1,62.83,205C61.23,187.52,45,176.69,27.17,179.84Z" fill="#28b260"/>
        </g>
        <path d="M157.21,161.06c-23.67,7.42-45.18-5.9-49-28s10.32-44.75,32.47-52.17,45.07,3.15,50.39,25.31S180.86,153.68,157.21,161.06Z" fill="#2ecc71"/>
      </g>
    </g>
  </g>
</svg>
