<svg xmlns="http://www.w3.org/2000/svg" xmlns:xlink="http://www.w3.org/1999/xlink" width="345.76" height="272.72" viewBox="0 0 345.76 272.72">
  <defs>
    <linearGradient id="21e393be-a0cf-470e-81ba-126d73d7023c" x1="31.79" y1="61.52" x2="54.59" y2="61.52" gradientUnits="userSpaceOnUse">
      <stop offset="0" stop-color="#007cff"/>
      <stop offset="1" stop-color="#002aff"/>
    </linearGradient>
  </defs>
  <title>intercAsset 2</title>
  <g id="4a70e468-ba82-46f2-8e8b-be9d84cfcec7" data-name="Layer 2">
    <g id="4f460ebf-a5c7-48e8-b593-ed7288db5fe0" data-name="Layer 4">
      <g>
        <path d="M.5,40.07v204.2a1.75,1.75,0,0,0,1.76,1.67l341.31,12.22a1.57,1.57,0,0,0,1.69-1.47V3.37A3.07,3.07,0,0,0,341.72.52L3,37.5A2.7,2.7,0,0,0,.5,40.07Z" fill="none" stroke="#e8e8e8" stroke-miterlimit="10"/>
        <polygon points="10.09 90.91 76.75 84.01 76.75 104.07 10.09 109.44 10.09 90.91" fill="#e8e8e8"/>
        <polygon points="10.09 116.23 40.51 113.91 40.51 123.42 10.09 125.01 10.09 116.23" fill="#e8e8e8"/>
        <polygon points="44.31 113.81 75.08 111.49 75.08 121 44.31 122.59 44.31 113.81" fill="#e8e8e8"/>
        <polygon points="92.56 117.51 125.48 115.02 125.48 125.2 92.56 126.91 92.56 117.51" fill="#e8e8e8"/>
        <polygon points="92.56 134.21 115.99 132.75 115.99 138.75 92.56 139.76 92.56 134.21" fill="#e8e8e8"/>
        <polygon points="118.28 132.76 141.71 131.29 141.71 137.29 118.28 138.3 118.28 132.76" fill="#e8e8e8"/>
        <polygon points="92.73 152.01 116.17 150.54 116.17 156.55 92.73 157.55 92.73 152.01" fill="#e8e8e8"/>
        <polygon points="118.45 150.55 141.88 149.09 141.88 155.09 118.45 156.1 118.45 150.55" fill="#e8e8e8"/>
        <polygon points="92.31 143.04 115.74 141.57 115.74 147.58 92.31 148.59 92.31 143.04" fill="#e8e8e8"/>
        <polygon points="118.03 141.55 133.33 140.66 133.33 146.61 118.03 147.09 118.03 141.55" fill="#e8e8e8"/>
        <polygon points="135.61 140.74 150.91 139.86 150.91 145.8 135.61 146.29 135.61 140.74" fill="#e8e8e8"/>
        <polygon points="32.74 155.44 76.75 153 76.75 163.03 32.74 164.71 32.74 155.44" fill="#e8e8e8"/>
        <path d="M18.08,153.41h0a6.62,6.62,0,0,1,7.21,6.6v.92a6.62,6.62,0,0,1-5.95,6.59h0a6.62,6.62,0,0,1-7.3-6.59V160A6.62,6.62,0,0,1,18.08,153.41Z" fill="#e8e8e8"/>
        <polygon points="32.66 135.06 76.67 132.61 76.67 142.64 32.66 144.32 32.66 135.06" fill="#e8e8e8"/>
        <path d="M18,133h0a6.62,6.62,0,0,1,7.21,6.6v.92a6.64,6.64,0,0,1-6,6.6h0a6.63,6.63,0,0,1-7.29-6.6v-.92A6.62,6.62,0,0,1,18,133Z" fill="#e8e8e8"/>
        <polygon points="287.1 22.89 332.67 18.09 332.67 25.62 287.1 30.17 287.1 22.89" fill="#e8e8e8"/>
        <polygon points="111.61 45.16 133.82 42.76 133.82 50.28 111.61 52.45 111.61 45.16" fill="#e8e8e8"/>
        <polygon points="85.27 47.8 107.47 45.4 107.47 52.92 85.27 55.08 85.27 47.8" fill="#e8e8e8"/>
        <path d="M274.13,22.38l1.55-.2a5.69,5.69,0,0,1,6.18,6.22v.05a5.81,5.81,0,0,1-5.1,5.53l-1.55.15a5.68,5.68,0,0,1-6-6.23h0A5.82,5.82,0,0,1,274.13,22.38Z" fill="#e8e8e8"/>
        <polygon points="32.74 196.61 76.75 194.16 76.75 204.19 32.74 205.87 32.74 196.61" fill="#e8e8e8"/>
        <path d="M18.08,194.57h0a6.62,6.62,0,0,1,7.21,6.6v.92a6.64,6.64,0,0,1-5.95,6.6h0a6.63,6.63,0,0,1-7.3-6.6v-.92A6.62,6.62,0,0,1,18.08,194.57Z" fill="#e8e8e8"/>
        <polygon points="32.66 176.22 76.67 173.77 76.67 183.8 32.66 185.48 32.66 176.22" fill="#e8e8e8"/>
        <path d="M18,174.18h0a6.62,6.62,0,0,1,7.21,6.6v.92a6.64,6.64,0,0,1-6,6.6h0A6.63,6.63,0,0,1,12,181.7v-.92A6.62,6.62,0,0,1,18,174.18Z" fill="#e8e8e8"/>
        <g>
          <path d="M25.68,51.16l18.55-2.22a2,2,0,0,1,2.24,2l-.23,13.67a2,2,0,0,1-1.83,2L25.84,68.16a2,2,0,0,1-2.17-2l.25-13A2,2,0,0,1,25.68,51.16Z" fill="#00b1ff" opacity="0.66" style="isolation: isolate"/>
          <path d="M33.8,54.14l18.55-2.23a2,2,0,0,1,2.24,2l-.23,13.68a2,2,0,0,1-1.83,2L34,71.13a2,2,0,0,1-2.16-2l.25-13A2,2,0,0,1,33.8,54.14Z" opacity="0.7" fill="url(#21e393be-a0cf-470e-81ba-126d73d7023c)" style="isolation: isolate"/>
        </g>
        <polygon points="85.27 82.88 85.27 171.97 159.31 168.87 159.31 76.99 85.27 82.88" fill="none" stroke="#e8e8e8" stroke-miterlimit="10" stroke-width="0.75"/>
        <path d="M92.31,100.1h0c0,5.05,3.62,9,7.74,8.4l2.15-.3c3.5-.49,6.15-4.11,6.15-8.4v-.12a8.21,8.21,0,0,0-4.13-7.39,7.7,7.7,0,0,0-5.21-.7l-.84.16C94.79,92.4,92.31,95.94,92.31,100.1Z" fill="#e8e8e8"/>
        <polygon points="179.31 110.63 212.23 108.15 212.23 118.32 179.31 120.03 179.31 110.63" fill="#e8e8e8"/>
        <polygon points="179.31 127.34 202.74 125.87 202.74 131.88 179.31 132.89 179.31 127.34" fill="#e8e8e8"/>
        <polygon points="205.02 125.88 228.46 124.42 228.46 130.42 205.02 131.43 205.02 125.88" fill="#e8e8e8"/>
        <polygon points="179.48 145.13 202.91 143.67 202.91 149.67 179.48 150.68 179.48 145.13" fill="#e8e8e8"/>
        <polygon points="205.19 143.68 228.63 142.21 228.63 148.22 205.19 149.22 205.19 143.68" fill="#e8e8e8"/>
        <polygon points="179.06 136.17 202.49 134.7 202.49 140.71 179.06 141.72 179.06 136.17" fill="#e8e8e8"/>
        <polygon points="204.77 134.68 220.08 133.79 220.08 139.73 204.77 140.22 204.77 134.68" fill="#e8e8e8"/>
        <polygon points="222.35 133.87 237.66 132.99 237.66 138.93 222.35 139.42 222.35 133.87" fill="#e8e8e8"/>
        <polygon points="172.01 76.15 172.01 167.43 246.05 164.26 246.05 70.11 172.01 76.15" fill="none" stroke="#e8e8e8" stroke-miterlimit="10" stroke-width="0.75"/>
        <path d="M179.06,93.23h0c0,5,3.61,9,7.74,8.4l2.14-.3c3.51-.49,6.15-4.11,6.15-8.4v-.12A8.2,8.2,0,0,0,191,85.42a7.75,7.75,0,0,0-5.21-.71l-.84.16C181.54,85.53,179.06,89.07,179.06,93.23Z" fill="#e8e8e8"/>
        <polygon points="265.92 101.58 298.84 99.1 298.84 109.28 265.92 110.98 265.92 101.58" fill="#e8e8e8"/>
        <polygon points="265.92 118.29 289.35 116.83 289.35 122.83 265.92 123.84 265.92 118.29" fill="#e8e8e8"/>
        <polygon points="291.63 116.83 315.07 115.37 315.07 121.37 291.63 122.38 291.63 116.83" fill="#e8e8e8"/>
        <polygon points="266.09 136.09 289.52 134.62 289.52 140.63 266.09 141.63 266.09 136.09" fill="#e8e8e8"/>
        <polygon points="291.81 134.63 315.24 133.16 315.24 139.17 291.81 140.18 291.81 134.63" fill="#e8e8e8"/>
        <polygon points="265.67 127.12 289.1 125.65 289.1 131.66 265.67 132.67 265.67 127.12" fill="#e8e8e8"/>
        <polygon points="291.39 125.63 306.69 124.74 306.69 130.68 291.39 131.17 291.39 125.63" fill="#e8e8e8"/>
        <polygon points="308.97 124.82 324.27 123.94 324.27 129.88 308.97 130.37 308.97 124.82" fill="#e8e8e8"/>
        <polygon points="258.62 67.43 258.62 163.63 332.67 160.28 332.67 61.07 258.62 67.43" fill="none" stroke="#e8e8e8" stroke-miterlimit="10" stroke-width="0.75"/>
        <path d="M265.67,84.18h0c0,5,3.62,9,7.74,8.4l2.14-.3c3.51-.49,6.15-4.11,6.15-8.4v-.12a8.19,8.19,0,0,0-4.13-7.39,7.75,7.75,0,0,0-5.21-.71l-.84.17C268.15,76.48,265.67,80,265.67,84.18Z" fill="#e8e8e8"/>
        <polygon points="86.39 183.29 83.6 272.34 157.7 271.56 160.58 179.72 86.39 183.29" fill="#fff" stroke="#e8e8e8" stroke-miterlimit="10" stroke-width="0.75"/>
        <path d="M92.89,200.72h0c-.16,5.05,3.34,9.09,7.48,8.64l2.15-.23c3.52-.38,6.28-3.91,6.41-8.21v-.11a8.2,8.2,0,0,0-3.89-7.52,7.73,7.73,0,0,0-5.19-.87l-.84.14C95.62,193.1,93,196.57,92.89,200.72Z" fill="#e8e8e8"/>
        <polygon points="173.3 179.29 170.44 270.52 244.55 269.67 247.5 175.57 173.3 179.29" fill="#fff" stroke="#e8e8e8" stroke-miterlimit="10" stroke-width="0.75"/>
        <polygon points="260.14 173.28 257.13 269.44 331.24 268.41 334.35 169.24 260.14 173.28" fill="#fff" stroke="#e8e8e8" stroke-miterlimit="10" stroke-width="0.75"/>
        <polygon points="92.6 218.13 125.58 216.68 125.26 226.85 92.3 227.52 92.6 218.13" fill="#e8e8e8"/>
        <polygon points="92.07 234.83 115.54 234.09 115.35 240.1 91.9 240.37 92.07 234.83" fill="#e8e8e8"/>
        <polygon points="117.82 234.18 141.29 233.44 141.1 239.45 117.65 239.72 117.82 234.18" fill="#e8e8e8"/>
        <polygon points="91.69 252.62 115.16 251.89 114.97 257.89 91.51 258.16 91.69 252.62" fill="#e8e8e8"/>
        <polygon points="117.44 251.97 140.91 251.24 140.72 257.24 117.26 257.51 117.44 251.97" fill="#e8e8e8"/>
        <polygon points="91.55 243.64 115.01 242.91 114.83 248.91 91.37 249.19 91.55 243.64" fill="#e8e8e8"/>
        <polygon points="117.3 242.96 132.62 242.55 132.44 248.49 117.12 248.5 117.3 242.96" fill="#e8e8e8"/>
        <polygon points="134.9 242.7 150.22 242.3 150.03 248.24 134.72 248.25 134.9 242.7" fill="#e8e8e8"/>
        <polygon points="179.51 213.98 212.5 212.53 212.18 222.7 179.22 223.37 179.51 213.98" fill="#e8e8e8"/>
        <polygon points="178.99 230.68 202.46 229.94 202.27 235.95 178.81 236.22 178.99 230.68" fill="#e8e8e8"/>
        <polygon points="204.74 230.03 228.21 229.29 228.02 235.3 204.57 235.57 204.74 230.03" fill="#e8e8e8"/>
        <polygon points="178.6 248.47 202.07 247.74 201.88 253.74 178.43 254.01 178.6 248.47" fill="#e8e8e8"/>
        <polygon points="204.35 247.82 227.82 247.09 227.63 253.09 204.18 253.36 204.35 247.82" fill="#e8e8e8"/>
        <polygon points="178.46 239.49 201.93 238.76 201.74 244.76 178.29 245.04 178.46 239.49" fill="#e8e8e8"/>
        <polygon points="204.22 238.81 219.54 238.4 219.35 244.34 204.04 244.35 204.22 238.81" fill="#e8e8e8"/>
        <polygon points="221.81 238.55 237.14 238.15 236.95 244.09 221.64 244.1 221.81 238.55" fill="#e8e8e8"/>
        <path d="M179.81,196.57h0c-.16,5.05,3.33,9.09,7.48,8.64l2.15-.23c3.52-.38,6.27-3.91,6.41-8.21v-.11a8.21,8.21,0,0,0-3.9-7.52,7.69,7.69,0,0,0-5.18-.87l-.85.14C182.53,189,179.94,192.42,179.81,196.57Z" fill="#e8e8e8"/>
        <polygon points="266.37 207.65 299.35 206.2 299.03 216.37 266.07 217.04 266.37 207.65" fill="#e8e8e8"/>
        <polygon points="265.84 224.35 289.31 223.62 289.12 229.62 265.67 229.89 265.84 224.35" fill="#e8e8e8"/>
        <polygon points="291.59 223.7 315.06 222.97 314.87 228.97 291.42 229.24 291.59 223.7" fill="#e8e8e8"/>
        <polygon points="265.46 242.14 288.93 241.41 288.74 247.41 265.29 247.68 265.46 242.14" fill="#e8e8e8"/>
        <polygon points="291.21 241.49 314.68 240.76 314.49 246.76 291.04 247.03 291.21 241.49" fill="#e8e8e8"/>
        <polygon points="265.32 233.16 288.79 232.43 288.6 238.43 265.14 238.71 265.32 233.16" fill="#e8e8e8"/>
        <polygon points="291.07 232.48 306.39 232.07 306.21 238.01 290.89 238.02 291.07 232.48" fill="#e8e8e8"/>
        <polygon points="308.67 232.22 323.99 231.82 323.81 237.76 308.49 237.77 308.67 232.22" fill="#e8e8e8"/>
        <path d="M266.66,190.24h0c-.16,5.06,3.34,9.09,7.48,8.64l2.15-.23c3.52-.38,6.28-3.91,6.41-8.2v-.12a8.18,8.18,0,0,0-3.89-7.51,7.73,7.73,0,0,0-5.19-.88l-.84.14C269.39,182.63,266.79,186.09,266.66,190.24Z" fill="#e8e8e8"/>
      </g>
    </g>
  </g>
</svg>
