<svg xmlns="http://www.w3.org/2000/svg" xmlns:xlink="http://www.w3.org/1999/xlink" width="114.76" height="250.34" viewBox="0 0 114.76 250.34">
  <defs>
    <linearGradient id="24996467-95a9-41bb-8f04-e2003c176d58" x1="19.86" y1="33.3" x2="39.34" y2="33.3" gradientUnits="userSpaceOnUse">
      <stop offset="0" stop-color="#007cff"/>
      <stop offset="1" stop-color="#002aff"/>
    </linearGradient>
  </defs>
  <title>intercAsset 8</title>
  <g id="e128c4d9-b819-484f-add5-a514a0eb5cfa" data-name="Layer 2">
    <g id="aac42837-aa96-476a-b5dc-5bb52fbf0e23" data-name="Layer 4">
      <path d="M.5,13.07v204.2a1.75,1.75,0,0,0,1.76,1.67l110.31,15.22a1.57,1.57,0,0,0,1.69-1.47V3.37A3.07,3.07,0,0,0,110.72.52L3,10.5A2.7,2.7,0,0,0,.5,13.07Z" fill="none" stroke="#e8e8e8" stroke-miterlimit="10"/>
      <polygon points="19.56 91.51 52.48 89.02 52.48 99.2 19.56 100.91 19.56 91.51" fill="#e8e8e8"/>
      <polygon points="19.56 108.21 42.99 106.75 42.99 112.75 19.56 113.76 19.56 108.21" fill="#e8e8e8"/>
      <polygon points="45.28 106.76 68.71 105.29 68.71 111.29 45.28 112.3 45.28 106.76" fill="#e8e8e8"/>
      <polygon points="19.73 126.01 43.17 124.54 43.17 130.55 19.73 131.55 19.73 126.01" fill="#e8e8e8"/>
      <polygon points="45.45 124.55 68.88 123.08 68.88 129.09 45.45 130.1 45.45 124.55" fill="#e8e8e8"/>
      <polygon points="19.31 117.04 42.74 115.58 42.74 121.58 19.31 122.59 19.31 117.04" fill="#e8e8e8"/>
      <polygon points="45.03 115.55 60.33 114.66 60.33 120.61 45.03 121.09 45.03 115.55" fill="#e8e8e8"/>
      <polygon points="62.61 114.74 77.91 113.86 77.91 119.8 62.61 120.29 62.61 114.74" fill="#e8e8e8"/>
      <polygon points="72.09 24.72 101.66 21.92 101.66 29.44 72.09 32 72.09 24.72" fill="#e8e8e8"/>
      <path d="M59.12,24.21l1.56-.2a5.68,5.68,0,0,1,6.17,6.22v0a5.81,5.81,0,0,1-5.1,5.54L60.21,36a5.69,5.69,0,0,1-6-6.23h0A5.82,5.82,0,0,1,59.12,24.21Z" fill="#e8e8e8"/>
      <g>
        <path d="M14.64,24.45l15.85-1.9a1.71,1.71,0,0,1,1.91,1.73L32.21,36a1.71,1.71,0,0,1-1.57,1.67L14.77,39a1.7,1.7,0,0,1-1.85-1.73l.21-11.12A1.71,1.71,0,0,1,14.64,24.45Z" fill="#00b1ff" opacity="0.66" style="isolation: isolate"/>
        <path d="M21.58,27l15.84-1.9a1.71,1.71,0,0,1,1.92,1.72l-.2,11.68a1.71,1.71,0,0,1-1.56,1.68L21.71,41.52a1.71,1.71,0,0,1-1.85-1.74l.21-11.12A1.71,1.71,0,0,1,21.58,27Z" opacity="0.7" fill="url(#24996467-95a9-41bb-8f04-e2003c176d58)" style="isolation: isolate"/>
      </g>
      <polygon points="12.27 56.88 12.27 145.97 100.25 142.87 100.25 50.99 12.27 56.88" fill="none" stroke="#e8e8e8" stroke-miterlimit="10" stroke-width="0.75"/>
      <path d="M19.31,74.1h0c0,5.05,3.62,9,7.74,8.4l2.15-.3c3.5-.49,6.15-4.11,6.15-8.4v-.12a8.21,8.21,0,0,0-4.13-7.39,7.7,7.7,0,0,0-5.21-.7l-.84.16C21.79,66.4,19.31,69.94,19.31,74.1Z" fill="#e8e8e8"/>
      <polygon points="13.39 156.29 12.6 244.34 98.85 249.94 99.73 154.1 13.39 156.29" fill="#fff" stroke="#e8e8e8" stroke-miterlimit="10" stroke-width="0.75"/>
      <path d="M19.89,174.72h0c-.16,5.05,3.34,9.09,7.48,8.64l2.15-.23c3.52-.38,6.28-3.91,6.41-8.21v-.11A8.2,8.2,0,0,0,32,167.29a7.73,7.73,0,0,0-5.19-.87l-.84.14C22.62,167.1,20,170.57,19.89,174.72Z" fill="#e8e8e8"/>
      <polygon points="19.6 192.13 52.58 190.68 52.26 200.85 19.3 201.52 19.6 192.13" fill="#e8e8e8"/>
      <polygon points="19.07 208.83 42.54 208.09 42.35 214.1 18.9 214.37 19.07 208.83" fill="#e8e8e8"/>
      <polygon points="44.82 208.18 68.29 207.44 68.1 213.45 44.65 213.72 44.82 208.18" fill="#e8e8e8"/>
      <polygon points="18.69 226.62 42.16 225.89 41.97 231.89 18.51 232.16 18.69 226.62" fill="#e8e8e8"/>
      <polygon points="44.44 225.97 67.91 225.24 67.72 231.24 44.26 231.51 44.44 225.97" fill="#e8e8e8"/>
      <polygon points="18.55 217.64 42.01 216.91 41.83 222.91 18.37 223.19 18.55 217.64" fill="#e8e8e8"/>
      <polygon points="44.3 216.96 59.62 216.55 59.44 222.49 44.12 222.5 44.3 216.96" fill="#e8e8e8"/>
      <polygon points="61.9 216.7 77.22 216.3 77.03 222.24 61.72 222.25 61.9 216.7" fill="#e8e8e8"/>
    </g>
  </g>
</svg>
