<svg xmlns="http://www.w3.org/2000/svg" xmlns:xlink="http://www.w3.org/1999/xlink" width="184.76" height="256.72" viewBox="0 0 184.76 256.72">
  <defs>
    <linearGradient id="928d40c8-8d4a-4d42-a546-2195aa0e428f" x1="20.79" y1="44.52" x2="43.59" y2="44.52" gradientUnits="userSpaceOnUse">
      <stop offset="0" stop-color="#007cff"/>
      <stop offset="1" stop-color="#002aff"/>
    </linearGradient>
  </defs>
  <title>intercAsset 6</title>
  <g id="4d114bb1-f30a-449a-b4f2-a7579ca5d4dc" data-name="Layer 2">
    <g id="691d03d4-0f09-4322-8e0d-d9fea7585e3b" data-name="Layer 4">
      <path d="M.5,23.07v204.2a1.75,1.75,0,0,0,1.76,1.67l180.31,19.22a1.57,1.57,0,0,0,1.69-1.47V3.37A3.07,3.07,0,0,0,180.72.52L3,20.5A2.7,2.7,0,0,0,.5,23.07Z" fill="none" stroke="#e8e8e8" stroke-miterlimit="10"/>
      <polygon points="19.56 101.51 52.48 99.02 52.48 109.2 19.56 110.91 19.56 101.51" fill="#e8e8e8"/>
      <polygon points="19.56 118.21 42.99 116.75 42.99 122.75 19.56 123.76 19.56 118.21" fill="#e8e8e8"/>
      <polygon points="45.28 116.76 68.71 115.29 68.71 121.29 45.28 122.3 45.28 116.76" fill="#e8e8e8"/>
      <polygon points="19.73 136.01 43.17 134.54 43.17 140.55 19.73 141.55 19.73 136.01" fill="#e8e8e8"/>
      <polygon points="45.45 134.55 68.88 133.09 68.88 139.09 45.45 140.1 45.45 134.55" fill="#e8e8e8"/>
      <polygon points="19.31 127.04 42.74 125.58 42.74 131.58 19.31 132.59 19.31 127.04" fill="#e8e8e8"/>
      <polygon points="45.03 125.55 60.33 124.66 60.33 130.61 45.03 131.09 45.03 125.55" fill="#e8e8e8"/>
      <polygon points="62.61 124.74 77.91 123.86 77.91 129.8 62.61 130.29 62.61 124.74" fill="#e8e8e8"/>
      <polygon points="141.1 24.89 170.66 22.09 170.66 29.62 141.1 32.17 141.1 24.89" fill="#e8e8e8"/>
      <polygon points="82.61 32.16 104.82 29.76 104.82 37.28 82.61 39.45 82.61 32.16" fill="#e8e8e8"/>
      <polygon points="56.27 34.8 78.47 32.4 78.47 39.92 56.27 42.08 56.27 34.8" fill="#e8e8e8"/>
      <path d="M128.13,24.38l1.55-.2a5.69,5.69,0,0,1,6.18,6.22v.05a5.81,5.81,0,0,1-5.1,5.53l-1.55.15a5.68,5.68,0,0,1-6-6.23h0A5.82,5.82,0,0,1,128.13,24.38Z" fill="#e8e8e8"/>
      <g>
        <path d="M14.68,34.16l18.55-2.22a2,2,0,0,1,2.24,2l-.23,13.67a2,2,0,0,1-1.83,2L14.84,51.16a2,2,0,0,1-2.17-2l.25-13A2,2,0,0,1,14.68,34.16Z" fill="#00b1ff" opacity="0.66" style="isolation: isolate"/>
        <path d="M22.8,37.14l18.55-2.23a2,2,0,0,1,2.24,2l-.23,13.68a2,2,0,0,1-1.83,2L23,54.13a2,2,0,0,1-2.16-2l.25-13A2,2,0,0,1,22.8,37.14Z" opacity="0.7" fill="url(#928d40c8-8d4a-4d42-a546-2195aa0e428f)" style="isolation: isolate"/>
      </g>
      <polygon points="12.27 66.88 12.27 155.97 86.31 152.87 86.31 60.99 12.27 66.88" fill="none" stroke="#e8e8e8" stroke-miterlimit="10" stroke-width="0.75"/>
      <path d="M19.31,84.1h0c0,5.05,3.62,9,7.74,8.4l2.15-.3c3.5-.49,6.15-4.11,6.15-8.4v-.12a8.21,8.21,0,0,0-4.13-7.39,7.7,7.7,0,0,0-5.21-.7l-.84.16C21.79,76.4,19.31,79.94,19.31,84.1Z" fill="#e8e8e8"/>
      <polygon points="106.31 94.63 139.23 92.15 139.23 102.32 106.31 104.03 106.31 94.63" fill="#e8e8e8"/>
      <polygon points="106.31 111.34 129.74 109.87 129.74 115.88 106.31 116.89 106.31 111.34" fill="#e8e8e8"/>
      <polygon points="132.02 109.88 155.46 108.42 155.46 114.42 132.02 115.43 132.02 109.88" fill="#e8e8e8"/>
      <polygon points="106.48 129.13 129.91 127.67 129.91 133.67 106.48 134.68 106.48 129.13" fill="#e8e8e8"/>
      <polygon points="132.19 127.68 155.63 126.21 155.63 132.22 132.19 133.22 132.19 127.68" fill="#e8e8e8"/>
      <polygon points="106.06 120.17 129.49 118.7 129.49 124.71 106.06 125.72 106.06 120.17" fill="#e8e8e8"/>
      <polygon points="131.77 118.67 147.08 117.79 147.08 123.73 131.77 124.22 131.77 118.67" fill="#e8e8e8"/>
      <polygon points="149.35 117.87 164.66 116.99 164.66 122.93 149.35 123.42 149.35 117.87" fill="#e8e8e8"/>
      <polygon points="99.01 60.15 99.01 151.43 173.05 148.26 173.05 54.11 99.01 60.15" fill="none" stroke="#e8e8e8" stroke-miterlimit="10" stroke-width="0.75"/>
      <path d="M106.06,77.23h0c0,5,3.61,9,7.74,8.4l2.14-.3c3.51-.49,6.15-4.11,6.15-8.4v-.12A8.2,8.2,0,0,0,118,69.42a7.75,7.75,0,0,0-5.21-.71l-.84.16C108.54,69.53,106.06,73.07,106.06,77.23Z" fill="#e8e8e8"/>
      <polygon points="13.39 167.29 10.6 256.34 84.7 255.56 87.58 163.72 13.39 167.29" fill="#fff" stroke="#e8e8e8" stroke-miterlimit="10" stroke-width="0.75"/>
      <path d="M19.89,184.72h0c-.16,5.05,3.34,9.09,7.48,8.64l2.15-.23c3.52-.38,6.28-3.91,6.41-8.21v-.11A8.2,8.2,0,0,0,32,177.29a7.73,7.73,0,0,0-5.19-.87l-.84.14C22.62,177.1,20,180.57,19.89,184.72Z" fill="#e8e8e8"/>
      <polygon points="100.3 163.29 97.44 254.52 171.55 253.67 174.5 159.57 100.3 163.29" fill="#fff" stroke="#e8e8e8" stroke-miterlimit="10" stroke-width="0.75"/>
      <polygon points="19.6 202.13 52.58 200.68 52.26 210.85 19.3 211.52 19.6 202.13" fill="#e8e8e8"/>
      <polygon points="19.07 218.83 42.54 218.09 42.35 224.1 18.9 224.37 19.07 218.83" fill="#e8e8e8"/>
      <polygon points="44.82 218.18 68.29 217.44 68.1 223.45 44.65 223.72 44.82 218.18" fill="#e8e8e8"/>
      <polygon points="18.69 236.62 42.16 235.89 41.97 241.89 18.51 242.16 18.69 236.62" fill="#e8e8e8"/>
      <polygon points="44.44 235.97 67.91 235.24 67.72 241.24 44.26 241.51 44.44 235.97" fill="#e8e8e8"/>
      <polygon points="18.55 227.64 42.01 226.91 41.83 232.91 18.37 233.19 18.55 227.64" fill="#e8e8e8"/>
      <polygon points="44.3 226.96 59.62 226.55 59.44 232.49 44.12 232.5 44.3 226.96" fill="#e8e8e8"/>
      <polygon points="61.9 226.7 77.22 226.3 77.03 232.24 61.72 232.25 61.9 226.7" fill="#e8e8e8"/>
      <polygon points="106.51 197.98 139.5 196.53 139.18 206.7 106.22 207.37 106.51 197.98" fill="#e8e8e8"/>
      <polygon points="105.99 214.68 129.46 213.94 129.27 219.95 105.81 220.22 105.99 214.68" fill="#e8e8e8"/>
      <polygon points="131.74 214.03 155.21 213.29 155.02 219.3 131.57 219.57 131.74 214.03" fill="#e8e8e8"/>
      <polygon points="105.6 232.47 129.07 231.74 128.88 237.74 105.43 238.01 105.6 232.47" fill="#e8e8e8"/>
      <polygon points="131.35 231.82 154.82 231.09 154.63 237.09 131.18 237.36 131.35 231.82" fill="#e8e8e8"/>
      <polygon points="105.46 223.49 128.93 222.76 128.74 228.76 105.29 229.04 105.46 223.49" fill="#e8e8e8"/>
      <polygon points="131.22 222.81 146.54 222.4 146.35 228.34 131.04 228.35 131.22 222.81" fill="#e8e8e8"/>
      <polygon points="148.81 222.55 164.14 222.15 163.95 228.09 148.64 228.1 148.81 222.55" fill="#e8e8e8"/>
      <path d="M106.81,180.57h0c-.16,5.05,3.33,9.09,7.48,8.64l2.15-.23c3.52-.38,6.27-3.91,6.41-8.21v-.11a8.21,8.21,0,0,0-3.9-7.52,7.69,7.69,0,0,0-5.18-.87l-.85.14C109.53,173,106.94,176.42,106.81,180.57Z" fill="#e8e8e8"/>
    </g>
  </g>
</svg>
