<svg xmlns="http://www.w3.org/2000/svg" width="366.05" height="252.83" viewBox="0 0 366.05 252.83">
  <title>intercAsset 4</title>
  <g id="7cfc8e26-255f-445d-9496-51b0cb23b663" data-name="Layer 2">
    <g id="c7371e27-0bcf-4066-ac83-d569b79ff237" data-name="Layer 3">
      <rect x="0.5" y="0.5" width="365.05" height="251.83" rx="7.08" ry="7.08" fill="#fff" stroke="#e8e8e8" stroke-miterlimit="10"/>
      <rect x="12.25" y="16.75" width="95.44" height="114.96" rx="2.43" ry="2.43" fill="#fff" stroke="#e8e8e8" stroke-miterlimit="10" stroke-width="0.75"/>
      <rect x="117.87" y="16.75" width="145.34" height="114.96" rx="2.43" ry="2.43" fill="#fff" stroke="#e8e8e8" stroke-miterlimit="10" stroke-width="0.75"/>
      <circle cx="39.3" cy="47.62" r="17.46" fill="#e8e8e8"/>
      <circle cx="49.45" cy="61.52" r="4.73" fill="#2ecc71" stroke="#fff" stroke-miterlimit="10"/>
      <path d="M26.11,80.69s7.13-8.72,16-2.25c6.77,5,10.65,1.67,12.09-.13a4.53,4.53,0,0,1,4.11-1.6,12.8,12.8,0,0,1,5.1,2.16c5.88,3.89,11.51-2.4,11.51-2.4" fill="#fff" stroke="#e8e8e8" stroke-linecap="round" stroke-miterlimit="10" stroke-width="3"/>
      <rect x="26.11" y="87.57" width="23.13" height="3.58" rx="0.63" ry="0.63" fill="#e8e8e8"/>
      <rect x="50.96" y="87.57" width="19.24" height="3.58" rx="0.63" ry="0.63" fill="#e8e8e8"/>
      <rect x="26.11" y="92.78" width="18.15" height="3.58" rx="0.63" ry="0.63" fill="#e8e8e8"/>
      <rect x="45.91" y="92.78" width="18.15" height="3.58" rx="0.63" ry="0.63" fill="#e8e8e8"/>
      <rect x="125.41" y="25.43" width="67.19" height="19.66" rx="1.12" ry="1.12" fill="#e8e8e8"/>
      <rect x="186.99" y="54.68" width="67.19" height="19.66" rx="1.12" ry="1.12" fill="#2979ff"/>
      <rect x="125.41" y="85.94" width="67.19" height="19.66" rx="1.12" ry="1.12" fill="#e8e8e8"/>
      <rect x="270.04" y="17.59" width="36.45" height="27.61" rx="2.43" ry="2.43" fill="#fff" stroke="#e8e8e8" stroke-miterlimit="10" stroke-width="0.75"/>
      <circle cx="16.17" cy="152.08" r="4.4" fill="#fff" stroke="#e8e8e8" stroke-miterlimit="10" stroke-width="0.75"/>
      <rect x="15.71" y="160.3" width="0.92" height="67.75" fill="#e8e8e8"/>
      <g>
        <rect x="270.6" y="54.02" width="84.26" height="33.92" rx="2.43" ry="2.43" fill="#fff" stroke="#e8e8e8" stroke-miterlimit="10" stroke-width="0.75"/>
        <rect x="277.15" y="60.82" width="19.24" height="3.58" rx="0.63" ry="0.63" fill="#e8e8e8"/>
        <g>
          <path d="M282,78.83V77.38h-4V76.16l2.85-6.43h1.62L279.71,76H282V73.86h1.52V76h.88v1.43h-.88v1.45Z" fill="#e8e8e8"/>
          <path d="M291.5,78.83h-1.69V74.94a1.56,1.56,0,0,0-.21-.86.75.75,0,0,0-.7-.34,2.05,2.05,0,0,0-1.21.6v4.49H286v-9.1h1.69v3.18a3.74,3.74,0,0,1,1-.56,2.75,2.75,0,0,1,.95-.15,1.73,1.73,0,0,1,1.38.58,2.49,2.49,0,0,1,.51,1.7Z" fill="#e8e8e8"/>
          <path d="M295.31,74.51v4.32H293.6v-6.5H295l.15.63a6.39,6.39,0,0,1,.87-.59,1.53,1.53,0,0,1,.62-.17H297l.15,0,.22,0-.15,1.55a2.17,2.17,0,0,0-.64-.08A1.86,1.86,0,0,0,295.31,74.51Z" fill="#e8e8e8"/>
          <path d="M298.57,77.1a4,4,0,0,0,1.79.44c.61,0,.91-.23.91-.68s-.34-.72-1-.92c-.29-.08-.58-.17-.87-.28a1.78,1.78,0,0,1-.74-.53,1.44,1.44,0,0,1-.31-1,1.83,1.83,0,0,1,.58-1.46,2.42,2.42,0,0,1,1.64-.51,5.51,5.51,0,0,1,2,.36l-.27,1.35a4.56,4.56,0,0,0-1.68-.35q-.57,0-.57.39c0,.27.25.47.76.61a5,5,0,0,1,1.43.6,1.57,1.57,0,0,1,.55.59,1.83,1.83,0,0,1,.22.93,2,2,0,0,1-.69,1.63,2.79,2.79,0,0,1-1.9.59,4.17,4.17,0,0,1-2.15-.55Z" fill="#e8e8e8"/>
          <path d="M308.29,73.48h1.37a1.37,1.37,0,0,0,1-.38,1.29,1.29,0,0,0,.39-1q0-1.11-1.29-1.11a3.86,3.86,0,0,0-1,.13,4.58,4.58,0,0,0-.83.26l-.3.14-.31-1.34a5,5,0,0,1,1.11-.44,4.89,4.89,0,0,1,1.25-.18,3.14,3.14,0,0,1,2.17.65,2.31,2.31,0,0,1,.72,1.79,2.56,2.56,0,0,1-.38,1.39,1.61,1.61,0,0,1-1,.73,1.92,1.92,0,0,1,1.65,2,2.52,2.52,0,0,1-.87,2,3.61,3.61,0,0,1-2.42.73,5.55,5.55,0,0,1-1.29-.15,4.63,4.63,0,0,1-.91-.31l-.3-.15.52-1.31a4.6,4.6,0,0,0,2,.49,2.1,2.1,0,0,0,1.32-.32,1.08,1.08,0,0,0,.41-.91,1.21,1.21,0,0,0-.44-1,2,2,0,0,0-1.27-.37h-1.37Z" fill="#e8e8e8"/>
          <path d="M318.64,76c0-1-.61-1.56-1.84-1.56l-2.11,0,.31-4.66h4.9l-.06,1.36h-3.36l-.14,1.9h.56a3.58,3.58,0,0,1,2.4.76,2.64,2.64,0,0,1,.9,2.14,2.89,2.89,0,0,1-.86,2.2,3.44,3.44,0,0,1-2.48.82,5.52,5.52,0,0,1-1.34-.16,4.3,4.3,0,0,1-1-.36l-.32-.16L314.7,77a5.21,5.21,0,0,0,2.1.52C318,77.53,318.64,77,318.64,76Z" fill="#e8e8e8"/>
          <path d="M323.53,78.83h-1.7v-6.5h1.43l.22.58a3.74,3.74,0,0,1,1-.56,2.75,2.75,0,0,1,.95-.15,1.51,1.51,0,0,1,1.44.89,6.25,6.25,0,0,1,1.18-.71,2.63,2.63,0,0,1,1-.18,1.54,1.54,0,0,1,1.28.59,2.75,2.75,0,0,1,.46,1.73v4.31H329V75c0-.8-.24-1.2-.71-1.2a2,2,0,0,0-1.23.6v4.45h-1.69V75c0-.8-.23-1.2-.7-1.2a2,2,0,0,0-1.18.56Z" fill="#e8e8e8"/>
          <path d="M334.49,71.35H332.8V69.73h1.69Zm0,7.48H332.8v-6.5h1.69Z" fill="#e8e8e8"/>
          <path d="M342.05,78.83h-1.71V74.94a1.56,1.56,0,0,0-.21-.86.74.74,0,0,0-.69-.34,2.09,2.09,0,0,0-1.2.6v4.49h-1.7v-6.5H338l.27.58a4.1,4.1,0,0,1,1-.56,2.85,2.85,0,0,1,1-.15,1.73,1.73,0,0,1,1.38.58,2.48,2.48,0,0,1,.5,1.7Z" fill="#e8e8e8"/>
        </g>
      </g>
      <g>
        <rect x="270.6" y="96.76" width="84.26" height="33.92" rx="2.43" ry="2.43" fill="#fff" stroke="#e8e8e8" stroke-miterlimit="10" stroke-width="0.75"/>
        <rect x="277.15" y="103.56" width="19.24" height="3.58" rx="0.63" ry="0.63" fill="#e8e8e8"/>
        <g>
          <path d="M279.56,116.22h1.37a1.41,1.41,0,0,0,1.05-.38,1.32,1.32,0,0,0,.38-1q0-1.11-1.29-1.11a3.86,3.86,0,0,0-1,.13,4.85,4.85,0,0,0-.83.26l-.3.14-.31-1.34a4.59,4.59,0,0,1,1.11-.43,4.53,4.53,0,0,1,1.25-.19,3.14,3.14,0,0,1,2.17.65,2.31,2.31,0,0,1,.72,1.79,2.56,2.56,0,0,1-.38,1.39,1.61,1.61,0,0,1-1,.73,1.92,1.92,0,0,1,1.65,2,2.52,2.52,0,0,1-.87,2,3.61,3.61,0,0,1-2.42.73,5.55,5.55,0,0,1-1.29-.15,4.89,4.89,0,0,1-.91-.31l-.3-.15.52-1.31a4.6,4.6,0,0,0,2,.49,2.15,2.15,0,0,0,1.33-.32,1.1,1.1,0,0,0,.4-.91,1.21,1.21,0,0,0-.44-1,2,2,0,0,0-1.27-.37h-1.37Z" fill="#e8e8e8"/>
          <path d="M288.83,121.57v-1.45h-4V118.9l2.84-6.43h1.63l-2.76,6.22h2.26V116.6h1.52v2.09h.89v1.43h-.89v1.45Z" fill="#e8e8e8"/>
          <path d="M298.36,121.57h-1.69v-3.89a1.56,1.56,0,0,0-.21-.86.75.75,0,0,0-.7-.34,2.08,2.08,0,0,0-1.21.6v4.49h-1.69v-9.1h1.69v3.18a3.91,3.91,0,0,1,1-.56,2.76,2.76,0,0,1,1-.15,1.7,1.7,0,0,1,1.37.58,2.49,2.49,0,0,1,.51,1.7Z" fill="#e8e8e8"/>
          <path d="M302.17,117.25v4.32h-1.7v-6.5h1.35l.16.63a5.35,5.35,0,0,1,.87-.59,1.49,1.49,0,0,1,.61-.17h.36l.16,0,.22.05-.16,1.55a2.1,2.1,0,0,0-.63-.08A1.86,1.86,0,0,0,302.17,117.25Z" fill="#e8e8e8"/>
          <path d="M305.43,119.84a4,4,0,0,0,1.79.44c.61,0,.92-.23.92-.68s-.35-.72-1-.92a9,9,0,0,1-.88-.28,1.69,1.69,0,0,1-.74-.53,1.44,1.44,0,0,1-.31-1,1.84,1.84,0,0,1,.59-1.46,2.39,2.39,0,0,1,1.63-.51,5.44,5.44,0,0,1,2,.36l-.27,1.35a4.48,4.48,0,0,0-1.68-.35q-.57,0-.57.39c0,.27.26.47.77.61a5.26,5.26,0,0,1,1.43.6,1.55,1.55,0,0,1,.54.59,1.83,1.83,0,0,1,.22.93,2,2,0,0,1-.69,1.63,2.76,2.76,0,0,1-1.89.59,4.18,4.18,0,0,1-2.16-.55Z" fill="#e8e8e8"/>
          <path d="M320.49,117c0,2.34-.65,3.81-1.94,4.39a3.17,3.17,0,0,1-1.34.26q-3.1,0-3.11-4.65a6.8,6.8,0,0,1,.67-3.18,2.57,2.57,0,0,1,1-1.08,3.07,3.07,0,0,1,1.59-.39Q320.49,112.34,320.49,117Zm-1.63,0V117c0-2.13-.52-3.19-1.56-3.19a1.26,1.26,0,0,0-1.2.89,7.52,7.52,0,0,0,0,4.66,1.25,1.25,0,0,0,1.2.89C318.34,120.21,318.86,119.15,318.86,117Z" fill="#e8e8e8"/>
          <path d="M326.18,118.71c0-1-.61-1.56-1.84-1.56l-2.11,0,.31-4.66h4.9l-.06,1.36H324l-.14,1.9h.56a3.58,3.58,0,0,1,2.4.76,2.64,2.64,0,0,1,.9,2.14,2.89,2.89,0,0,1-.86,2.2,3.44,3.44,0,0,1-2.48.82,5.52,5.52,0,0,1-1.34-.16,4.3,4.3,0,0,1-1-.36l-.32-.16.49-1.21a5.21,5.21,0,0,0,2.1.52C325.57,120.27,326.18,119.75,326.18,118.71Z" fill="#e8e8e8"/>
          <path d="M331.07,121.57h-1.7v-6.5h1.43l.22.58a3.74,3.74,0,0,1,1-.56,2.75,2.75,0,0,1,.95-.15,1.51,1.51,0,0,1,1.44.89,6.25,6.25,0,0,1,1.18-.71,2.63,2.63,0,0,1,1-.18,1.54,1.54,0,0,1,1.28.59,2.75,2.75,0,0,1,.46,1.73v4.31h-1.7v-3.85c0-.8-.24-1.2-.71-1.2a2,2,0,0,0-1.23.6v4.45H333v-3.85c0-.8-.23-1.2-.7-1.2a2,2,0,0,0-1.18.56Z" fill="#e8e8e8"/>
          <path d="M342,114.09h-1.69v-1.62H342Zm0,7.48h-1.69v-6.5H342Z" fill="#e8e8e8"/>
          <path d="M349.59,121.57h-1.71v-3.89a1.56,1.56,0,0,0-.21-.86.74.74,0,0,0-.69-.34,2.09,2.09,0,0,0-1.2.6v4.49h-1.7v-6.5h1.43l.27.58a4.1,4.1,0,0,1,1-.56,2.85,2.85,0,0,1,1-.15,1.73,1.73,0,0,1,1.38.58,2.48,2.48,0,0,1,.5,1.7Z" fill="#e8e8e8"/>
        </g>
      </g>
      <g id="3e9c0256-0618-4265-932d-c80ce3f410ca" data-name="Layer 8">
        <path d="M284.17,25.36a.61.61,0,0,1,.64,0l7.55,5.49a.64.64,0,0,1,.32.55.62.62,0,0,1-.32.54l-7.55,5.49a.61.61,0,0,1-.64,0,.64.64,0,0,1-.32-.55v-11A.64.64,0,0,1,284.17,25.36Z" fill="#e8e8e8"/>
      </g>
      <rect x="316.36" y="17.22" width="38.26" height="27.61" rx="2.43" ry="2.43" fill="#fff" stroke="#e8e8e8" stroke-miterlimit="10" stroke-width="0.75"/>
      <path d="M339.64,26.63h-8.3a.25.25,0,0,0-.24.25v8.3a.24.24,0,0,0,.24.24h8.3a.25.25,0,0,0,.25-.24v-8.3A.25.25,0,0,0,339.64,26.63Z" fill="#e8e8e8"/>
    </g>
  </g>
</svg>
