<svg xmlns="http://www.w3.org/2000/svg" width="95.1" height="55.17" viewBox="0 0 95.1 55.17">
  <title>intercAsset 5</title>
  <g id="3c62385b-4284-407f-b726-b3374607200c" data-name="Layer 2">
    <g id="f533c417-51ac-43be-804c-f4343c7c8777" data-name="Layer 3">
      <path d="M2.92.38H92.19a2.54,2.54,0,0,1,2.54,2.54V53.38a1.42,1.42,0,0,1-1.42,1.42H1.8A1.42,1.42,0,0,1,.38,53.38V2.92A2.54,2.54,0,0,1,2.92.38Z" fill="#fff" stroke="#eaeaea" stroke-miterlimit="10" stroke-width="0.75"/>
      <g>
        <path d="M94.73,37v16.5a1.33,1.33,0,0,1-1.31,1.33H1.68a1.32,1.32,0,0,1-1.3-1.33V17.23c8.47,0,12.69,3.24,15.16,7.5.16.27.31.55.45.83,4.19,8.11,2.93,19.22,12.13,19.22a3.85,3.85,0,0,0,1-.13,2.64,2.64,0,0,0,.56-.19c6.19-2.67,5.23-21.6,16.24-21.47a7.38,7.38,0,0,1,5.5,2.43l.39.45c4.93,5.93,5,19.12,12.57,21.52,2.73.86,5.14-.31,7.52-2.24.15-.13.31-.25.46-.39,5-4.27,10-11.59,17.8-9.79l.69.17A16,16,0,0,1,94.73,37Z" fill="#2979ff" opacity="0.39"/>
        <path d="M94.73,31.91a5.81,5.81,0,0,0-3.92,1.48c-1.87,1.66-2.88,4.49-3.86,7.26-1.47,4.14-3,8.42-7.44,8.42a6.34,6.34,0,0,1-.74,0c-2.89-.28-5-2.64-6.9-5.87-1.17-2-2.24-4.34-3.33-6.74-3.07-6.74-6.26-13.72-12.12-13.88h-.19a6.38,6.38,0,0,0-4.45,1.79c-2.48,2.26-4.06,6.34-5.6,10.32-2.29,5.9-4.64,12-10,12.13-3.82.08-5.56-1.36-7.12-4.1-.6-1.07-1.18-2.33-1.84-3.77a69.82,69.82,0,0,0-5.19-9.72A13.5,13.5,0,0,0,16,24C9.85,21.35,2.63,23.31.38,24v-.6c2.41-.77,9.16-2.49,15.16-.23a14.2,14.2,0,0,1,7,5.66,69.9,69.9,0,0,1,5.23,9.8c.69,1.49,1.27,2.77,1.88,3.82,1.47,2.54,3.08,3.79,6.55,3.71,4.94-.11,7.12-5.77,9.44-11.75,1.57-4.07,3.17-8.22,5.74-10.56a7,7,0,0,1,5-1.93c6.23.17,9.49,7.31,12.64,14.23,1.07,2.34,2.11,4.64,3.25,6.6,1.8,3.13,3.83,5.4,6.51,5.67,4.58.45,6-3.66,7.58-8,1-2.71,1.94-5.47,3.72-7.23a6.28,6.28,0,0,1,4.59-1.88Z" fill="#2960ff" opacity="0.8"/>
      </g>
    </g>
  </g>
</svg>
