<svg xmlns="http://www.w3.org/2000/svg" width="129.61" height="55.17" viewBox="0 0 129.61 55.17">
  <title>intercAsset 11</title>
  <g id="2e232532-de4c-42e9-9750-0292f5d557d7" data-name="Layer 2">
    <g id="e923efaf-5188-4ca1-84d0-919bb69edfd0" data-name="Layer 3">
      <g>
        <path d="M2.92.38H126.69a2.54,2.54,0,0,1,2.54,2.54V53.38a1.42,1.42,0,0,1-1.42,1.42H1.8A1.42,1.42,0,0,1,.38,53.38V2.92A2.54,2.54,0,0,1,2.92.38Z" fill="#fff" stroke="#eaeaea" stroke-miterlimit="10" stroke-width="0.75"/>
        <g>
          <path d="M129.23,37v16.5c0,.73-.79,1.33-1.78,1.33H2.16c-1,0-1.78-.6-1.78-1.33V17.23c11.57,0,17.33,3.24,20.71,7.5.22.27.42.55.61.83,5.72,8.11,4,19.22,16.56,19.22a7.06,7.06,0,0,0,1.33-.13,4.56,4.56,0,0,0,.77-.19C48.82,41.79,47.5,22.86,62.53,23A11.94,11.94,0,0,1,70,25.42c.18.15.36.29.54.45C77.31,31.8,77.41,45,87.75,47.39c3.72.86,7-.31,10.27-2.24l.62-.39C105.51,40.49,112.35,33.17,123,35l.93.17A26,26,0,0,1,129.23,37Z" fill="#2979ff" opacity="0.39"/>
          <path d="M129.23,31.91a9.73,9.73,0,0,0-5.35,1.48c-2.56,1.66-3.93,4.49-5.27,7.26-2,4.14-4.09,8.42-10.16,8.42-.32,0-.66,0-1,0-4-.28-6.87-2.64-9.43-5.87a68.17,68.17,0,0,1-4.54-6.74c-4.2-6.74-8.55-13.72-16.55-13.88h-.27a10.65,10.65,0,0,0-6.08,1.79c-3.38,2.26-5.54,6.34-7.64,10.32-3.12,5.9-6.34,12-13.61,12.13-5.23.08-7.6-1.36-9.73-4.1-.82-1.07-1.61-2.33-2.51-3.77A67,67,0,0,0,30,29.19,18.19,18.19,0,0,0,21.7,24C13.32,21.35,3.45,23.31.38,24v-.6c3.29-.77,12.51-2.49,20.71-.23a19.47,19.47,0,0,1,9.55,5.66,65.5,65.5,0,0,1,7.15,9.8,43.27,43.27,0,0,0,2.57,3.82c2,2.54,4.21,3.79,8.94,3.71C56,46.09,59,40.43,62.19,34.45c2.15-4.07,4.33-8.22,7.85-10.56A11.59,11.59,0,0,1,76.94,22c8.5.17,13,7.31,17.25,14.23a75.74,75.74,0,0,0,4.44,6.6c2.47,3.13,5.23,5.4,8.89,5.67,6.25.45,8.24-3.66,10.35-8,1.31-2.71,2.65-5.47,5.08-7.23a10.37,10.37,0,0,1,6.27-1.88Z" fill="#2960ff" opacity="0.8"/>
        </g>
      </g>
    </g>
  </g>
</svg>
