<svg xmlns="http://www.w3.org/2000/svg" width="96.19" height="50.24" viewBox="0 0 96.19 50.24">
  <title>intercAsset 4</title>
  <g id="0daac503-cbf7-479e-b7b1-b61b01643d22" data-name="Layer 2">
    <g id="c03dede3-aa2f-4f56-832a-535135f4a142" data-name="Layer 3">
      <g>
        <rect x="0.38" y="0.38" width="95.44" height="49.49" rx="2.43" ry="2.43" fill="#fff" stroke="#e8e8e8" stroke-miterlimit="10" stroke-width="0.75"/>
        <g>
          <path d="M60.27,15.12H35.92a.44.44,0,0,0-.44.43V34.69a.44.44,0,0,0,.44.43H60.27a.44.44,0,0,0,.44-.43V15.55A.44.44,0,0,0,60.27,15.12Zm-.43,19.13H36.35V16H59.84Z" fill="#e8e8e8"/>
          <path d="M42.44,24.74A2.42,2.42,0,1,0,40,22.32,2.42,2.42,0,0,0,42.44,24.74Zm0-4a1.55,1.55,0,1,1-1.55,1.55A1.55,1.55,0,0,1,42.44,20.77Z" fill="#e8e8e8"/>
          <path d="M38.53,32.51a.38.38,0,0,0,.28-.11l7.1-6.24,4.48,4.48a.43.43,0,0,0,.61,0A.44.44,0,0,0,51,30l-2.09-2.09,4-4.37,4.89,4.49a.44.44,0,0,0,.62,0,.43.43,0,0,0,0-.61l-5.22-4.79a.49.49,0,0,0-.31-.11.47.47,0,0,0-.3.14L48.3,27.32l-2.06-2.07a.44.44,0,0,0-.6,0l-7.4,6.51a.44.44,0,0,0,0,.62A.47.47,0,0,0,38.53,32.51Z" fill="#e8e8e8"/>
        </g>
      </g>
    </g>
  </g>
</svg>
