<svg xmlns="http://www.w3.org/2000/svg" xmlns:xlink="http://www.w3.org/1999/xlink" width="235.87" height="276.63" viewBox="0 0 235.87 276.63">
  <defs>
    <clipPath id="6d9595ec-2811-4435-b230-a9422d9ec0f0">
      <circle cx="123.39" cy="112.47" r="112.47" fill="none"/>
    </clipPath>
  </defs>
  <title>intercAsset 33</title>
  <g id="08af8673-97bd-46c3-a75b-28188c114be2" data-name="Layer 2">
    <g id="d54848db-b1a8-4519-8007-a0f6ce67fbfe" data-name="Layer 1">
      <circle cx="123.39" cy="112.47" r="112.47" fill="#efefef"/>
      <g clip-path="url(#6d9595ec-2811-4435-b230-a9422d9ec0f0)">
        <g>
          <g>
            <g>
              <path d="M92.77,189s-16,39.7-29.19,44C54.91,235.87,7.19,185.5,7.19,185.5s-16.81-18.34,1-2.63c0,0-17.74-21.7,1.64-2,0,0-19-22.95,2.62-2.63,0,0-16.06-23.27,6.89,1,0,0,5.91-12.49,3.6,2C59.29,206,55.71,201.76,58.6,205.15c.49.57,9.11-33.16,13.2-33.48S92.77,189,92.77,189Z" fill="#9d5050"/>
              <path d="M89.58,199.52c2-6.15,3.19-10.5,3.19-10.5s-16.89-17.67-21-17.35c-1.49.12-3.58,4.67-5.66,10.37C74.82,186.41,82.27,192.86,89.58,199.52Z" fill="#894141"/>
            </g>
            <g>
              <path d="M164.58,183.71l20.26-18.58s21,52.11,18.35,61.4-39,50.1-39,50.1-4-10.27-5.39-17.76l21.79-38.31Z" fill="#9d5050"/>
              <path d="M187.31,171.42c-1.5-3.88-2.47-6.29-2.47-6.29l-20.26,18.58,2.64,6.07C174.52,184.33,181.78,178.61,187.31,171.42Z" fill="#693333" opacity="0.6"/>
            </g>
          </g>
          <g>
            <path d="M107.87,138.24s-18.09,4.46-21.66,10.07-3.57,80.15-.51,114.3c0,0,33.39,17.2,75.05-4.21l3.44-73.78,23.45-21.91s-15.29-19.88-23.45-22.94a93.31,93.31,0,0,0-17.45-4.33Z" fill="#ff9c5e"/>
            <path d="M84.11,234.77c.37,10.49.91,20.18,1.59,27.84,0,0,33.39,17.2,75.05-4.21l3.22-69A556.12,556.12,0,0,1,84.11,234.77Z" fill="#000309" opacity="0.2"/>
            <path d="M107.87,138.24s-35.42,5.48-41,38.53c0,0,8.62,6.52,23,11.12S107.87,138.24,107.87,138.24Z" fill="#ff9c5e"/>
          </g>
          <g>
            <g>
              <path d="M139,107.47,138.65,135l8.09.45s-11.15,13.31-38.87,2.8l5.93-1.72-.38-31.73Z" fill="#693333"/>
              <polygon points="146.23 98.8 140.3 111.99 140.49 96.7 146.23 98.8" fill="#000e23"/>
              <path d="M151.45,83.58c-2.54-2.55-5.51-1.06-7.66.77a181.24,181.24,0,0,0-1.13-19.89l-42.43-.76s-9.94,48.55,2.29,58.49,38.61,3.44,40.52-18.35c.13-1.47.24-2.92.33-4.34C150,101.34,155.88,88,151.45,83.58Z" fill="#9d5050"/>
              <path d="M143.55,86.25v6.37h-3.06l-1-13.76s-6.62,2-7.64-7.64c0,0-11.21,8.41-15,6.37s-.25-5.86-.25-5.86-9.69,7.39-14.78,4.33,1-10.2,1-10.2S91.56,76.57,84.94,69.18s-.26-23.45,13.25-18.61c0,0-9.94-4.33-7.14-12.23s13.76-8.67,19.88,1.27c0,0-3.82-10.44-.76-11.21s6.62,8.41,6.62,8.41.77-13,7.9-11.72,7.9,9.17,7.39,15.29c0,0,1-6.37,6.12-4.84S140,44.2,140,44.2s2.62-7.71,9.31-6.75,8.41,11.08,4.2,15.86c0,0,6.5-9.55,11.66-1.14s-4.78,13.76-10.32,13.76c0,0,6.31-3.83,7.64,3.25s-8.79,6.11-8.79,6.11l-2.86,7.84S146,80,143.55,86.25Z" fill="#000e23"/>
            </g>
            <path d="M102.11,85.12s6.08-3,9.12,0" fill="none" stroke="#000e23" stroke-linecap="round" stroke-miterlimit="10" stroke-width="0.5"/>
            <path d="M120.36,86.76s6.71-1.08,8.7,2.73" fill="none" stroke="#000e23" stroke-linecap="round" stroke-miterlimit="10" stroke-width="0.5"/>
          </g>
        </g>
      </g>
    </g>
  </g>
</svg>
