<svg xmlns="http://www.w3.org/2000/svg" xmlns:xlink="http://www.w3.org/1999/xlink" width="224.95" height="294.87" viewBox="0 0 224.95 294.87">
  <defs>
    <clipPath id="480ddf3d-7445-48b9-937b-b6c4bf2af721">
      <circle cx="112.47" cy="112.47" r="112.47" fill="none"/>
    </clipPath>
  </defs>
  <title>intercAsset 31</title>
  <g id="af722719-59a4-4cce-a2c0-745c52040e3b" data-name="Layer 2">
    <g id="8487303f-5728-4305-9ba0-5dfc3b9ad517" data-name="Layer 1">
      <g>
        <circle cx="112.47" cy="112.47" r="112.47" fill="#efefef"/>
        <g clip-path="url(#480ddf3d-7445-48b9-937b-b6c4bf2af721)">
          <g>
            <g>
              <path d="M90.76,106.43l.44,31.66-6.77,1.48s16.15,12.32,48,.23L122,138.87,125,102.73Z" fill="#ffd7cc"/>
              <path d="M115.5,135.8a58,58,0,0,0,6.68,1.4L125,102.73l-34.23,3.7L91,125.26C99.21,128.76,106.91,133.48,115.5,135.8Z" fill="#000e23" opacity="0.1"/>
              <path d="M79,75.39c3.09-3.08,6.69-1.28,9.29.94a220,220,0,0,1,1.37-24.11l51.44-.93s12,58.85-2.79,70.9S91.5,126.36,89.19,100c-.16-1.78-.29-3.53-.4-5.26C80.78,96.92,73.63,80.76,79,75.39Z" fill="#ffd7cc"/>
              <path d="M87.28,74.2s1.48,19.94,1.23,32,13,28.57,37.67,26.59c27.57-2.22,20.11-27.06,19.62-37.89,0,0-.66,12.78-4.6,13s-3.2-6.16-9.6-5.91-23.39-3.2-25.36,6.64-11.08,6.65-10.83-9.11-.74-32.74-.74-32.74,10.34-1.48,10.83-15c0,0,15,4.93,29.3,3.7l-4.43-2.22s12.84,2.18,17.52-4.22,1.23-11.82,1.23-11.82a24.76,24.76,0,0,1-5.71,5.21s5.42-5.42.5-15c0,0-2.22,7.63-7.39,7.63s-30-23.88-43.82,0c0,0-6.65-3.44-12.06,4.93s.73,34,.73,34,5.91-.49,7.64,3.69" fill="#f07760"/>
            </g>
            <g>
              <g>
                <path d="M132.46,139.8s20.73,1.87,26.6,9.38c4.91,6.29,6.48,94.46,4.47,134.31,0,0-50.11,24.22-105.08,2l-.62-87.59s-10.14-37.22-1.44-48.15c6.93-8.71,27.48-10.41,27.48-10.41Z" fill="#2e6da7"/>
                <path d="M164,251.07c.11,12.2,0,23.48-.47,32.42,0,0-50.11,24.22-105.08,2l-.06-82C91.89,222.09,127.47,237.69,164,251.07Z" fill="#000309" opacity="0.2"/>
              </g>
              <g>
                <path d="M161.33,177.31l-.16,17.28-49.84,28.9s1.48.89,11.65,1.94c5.17.53,49.76-6.66,49.76-6.66s7.6-13,2.8-41Z" fill="#ffc1ac"/>
                <path d="M59.9,193.69l28.38-14.17,11.52,25.6,49.81-13.68s11.72-3.21,17,2.75c0,0-66.81,41.72-71.62,42.71S67.59,211.57,59.9,193.69Z" fill="#ffd7cc"/>
                <path d="M156.62,180.92l21.72-2.1s-3.15-30.14-30.83-36.09C131.55,139.29,156.62,180.92,156.62,180.92Z" fill="#2e6da7"/>
              </g>
            </g>
            <path d="M102.77,72.74s7.45-7.45,14.9-2.48" fill="none" stroke="#f07760" stroke-linecap="round" stroke-miterlimit="10" stroke-width="0.5"/>
            <path d="M124.84,70.32s7.78-3.79,11.1,2.5" fill="none" stroke="#f07760" stroke-linecap="round" stroke-miterlimit="10" stroke-width="0.5"/>
            <path d="M107.74,107.48s12.41,9.93,24.82,0" fill="none" stroke="#fff" stroke-linecap="round" stroke-miterlimit="10" stroke-width="0.5"/>
          </g>
        </g>
      </g>
    </g>
  </g>
</svg>
