<svg xmlns="http://www.w3.org/2000/svg" xmlns:xlink="http://www.w3.org/1999/xlink" width="224.95" height="370.86" viewBox="0 0 224.95 370.86">
  <defs>
    <clipPath id="6f359ff9-d34d-4876-b46a-80175cee1add">
      <circle cx="112.47" cy="112.47" r="112.47" fill="none"/>
    </clipPath>
  </defs>
  <title>intercAsset 30</title>
  <g id="a517aae8-d986-4210-b606-9b08c8547d0e" data-name="Layer 2">
    <g id="192869f8-d99c-4fea-8028-56fdc983be5a" data-name="Layer 1">
      <g>
        <circle cx="112.47" cy="112.47" r="112.47" fill="#efefef"/>
        <g clip-path="url(#6f359ff9-d34d-4876-b46a-80175cee1add)">
          <g>
            <g>
              <path d="M125.3,41.43s5.19-9.16,16-6,34.58,16,33.14,44.86-11.94,72.62,5.8,98.11c0,0-41.12.26-54.53-20.66S125.3,41.43,125.3,41.43Z" fill="#000e23"/>
              <polygon points="131.64 134.21 129.39 155.88 154.65 160.54 119.33 188.64 75.07 157.35 99.79 154.42 101.08 130.68 131.64 134.21" fill="#fba97d"/>
              <path d="M129.73,152.6l1.91-18.39-30.56-3.53-.76,14C110,147.69,119.9,150.08,129.73,152.6Z" fill="#000309" opacity="0.1"/>
              <path d="M107.43,45s26.34-5.75,45.41,15.17,6.12,75.5-20.2,81.39S80.59,131,79.3,91,107.43,45,107.43,45Z" fill="#ffb785"/>
              <path d="M128.42,45s-4.7,36.91-45.86,37.47c0,0-11.1,33.39,18.77,54.8l-1.6,17.62L76.5,156.6l-21,14.56s-14.4-37,13.59-105.63C85.81,24.54,127.82,21.66,128.42,45Z" fill="#000e23"/>
              <path d="M127,42.54S117.28,83.29,163,92.25c0,0,5.69-13.12,2.42-26S127,42.54,127,42.54Z" fill="#000e23"/>
              <path d="M167.37,98.49s-2,10.19-6,17.75c0,0,9.94.85,12.93-7S173.9,95.83,167.37,98.49Z" fill="#ffb785"/>
              <path d="M74.85,86.69s-.64,10.37,1.33,18.69c0,0-9.83-1.67-10.77-10S69.2,82.48,74.85,86.69Z" fill="#ffb785"/>
            </g>
            <path d="M87,156.05S48.48,151.14,32,191.43c0,0,7.72,14.45,29.52,22.45,0,0-.87,18.8,11.4,31.66l.07,13s39.15,9.72,82.14,3.52S157,247.57,157,247.57a76.89,76.89,0,0,0,10.77-29.93s18.19-7.73,27.74-21.29c0,0-6.64-35.13-50.59-38.13C145,158.22,122.31,185.76,87,156.05Z" fill="#ff6d75"/>
            <g>
              <g>
                <path d="M96.65,349.15C93.61,319.55,73,245.54,73,245.54s-12-14.57-10.73-31.79c0,0-10.26-1.31-25-15.36,0,0-8.61,60.87,49.75,153.7A51.31,51.31,0,0,1,96.65,349.15Z" fill="#fba97d"/>
                <path d="M61.54,217.85l.65.08a34.35,34.35,0,0,1,0-4.18s-10.26-1.31-25-15.36a82.08,82.08,0,0,0-.41,12C45,213.23,52.88,216.7,61.54,217.85Z" fill="#000309" opacity="0.1"/>
                <path d="M78.85,339.1s17.55,41.36,10.5,16.55c0,0,10.08,21.5,3.18-1.11,0,0,10.19,22.38,3.16-.9,0,0,9.74,20.8.13-11.29,0,0,19.6,11.63-1-5.78S78.85,339.1,78.85,339.1Z" fill="#fba97d"/>
              </g>
              <g>
                <path d="M120.63,350.49a56.2,56.2,0,0,1,9.63,4c63.16-89.13,58-150.16,58-150.16-15.5,13.19-25.82,13.92-25.82,13.92.35,17.26-12.51,31.14-12.51,31.14S125.73,320.47,120.63,350.49Z" fill="#fba97d"/>
                <path d="M170.65,219.48c5.43-.92,12.15-1.61,17.44-3.95a81.24,81.24,0,0,0,.2-11.16c-15.5,13.19-25.82,13.92-25.82,13.92,0,.76,0,1.51-.06,2.27C165.17,220.28,167.92,220,170.65,219.48Z" fill="#000309" opacity="0.1"/>
                <path d="M135.57,346.69s-23.86,38.07-13,14.69c0,0-15.59,22.37-3-1.61,0,0-13.59,20.5-3-1.38,0,0-13.4,21.2,1.64-11.17,0,0-21.19,8.39,1.91-5.55S135.57,346.69,135.57,346.69Z" fill="#fba97d"/>
              </g>
            </g>
          </g>
          <path d="M91.2,94.24s9.12-9.12,18.23-3" fill="none" stroke="#000e23" stroke-linecap="round" stroke-miterlimit="10" stroke-width="0.5"/>
          <path d="M127.48,93s12.21-4.15,17.7,5.33" fill="none" stroke="#000e23" stroke-linecap="round" stroke-miterlimit="10" stroke-width="0.5"/>
        </g>
      </g>
    </g>
  </g>
</svg>
