<svg xmlns="http://www.w3.org/2000/svg" xmlns:xlink="http://www.w3.org/1999/xlink" width="244.13" height="243.11" viewBox="0 0 244.13 243.11">
  <defs>
    <clipPath id="9e942aab-909e-478d-899e-cc0581920e93">
      <circle cx="131.66" cy="112.47" r="112.47" fill="none"/>
    </clipPath>
  </defs>
  <title>intercAsset 32</title>
  <g id="5ebfadee-454a-4b24-9b26-77394766efb3" data-name="Layer 2">
    <g id="1b1a3d7c-6594-4b0d-b5ec-b4b478a2a26e" data-name="Layer 1">
      <circle cx="131.66" cy="112.47" r="112.47" fill="#efefef"/>
      <g clip-path="url(#9e942aab-909e-478d-899e-cc0581920e93)">
        <g>
          <g>
            <polygon points="116.6 103.25 116.17 121.59 138.67 121.65 139.49 99.89 116.6 103.25" fill="#ffc1ac"/>
            <path d="M116.41,110.65l.28-11.81,22.89-3.36-.71,19A159.69,159.69,0,0,0,116.41,110.65Z" fill="#f9a493"/>
            <path d="M149.13,53.49s4.7-11.6,16.66-11.16,26.26,13,15.16,29.86-5.73,24.92,5.58,26.74c0,0-32.67,13.76-33.88-13.12-1.09-24.08,13.92-25.24,12.12-30.16-3-8.14-15.79-.26-15.79-.26" fill="#8c5454"/>
            <path d="M114,35.89s-11.18-4.16-20,7.54-12.44,48.55-.31,61C93.71,104.46,104.64,44.66,114,35.89Z" fill="#8c5454"/>
            <path d="M123,41.57S95.57,44.65,93.2,71.21c-2.14,24,9.12,40,25,37.34,23.52-4,26.3-15.33,28.09-26.88,0,0,9.07.23,9-9.59S148,63.3,145.26,66.16C145.26,66.16,150.6,37.28,123,41.57Z" fill="#ffc1ac"/>
            <path d="M112.52,35S97.24,53,115,60.51l-1.11-7.3s5.6,13.42,27.32,12.61c0,0-1.23,19.5.81,18.83s1.51-19.69,6.3-20.15,7,3.07,7,7.58-4.44,8.28-9,9.59a39,39,0,0,1-2.47,10.13s24.61-13,14.89-39.49C147.3,21.07,118.08,29.6,112.52,35Z" fill="#996464"/>
          </g>
          <g>
            <path d="M102.79,133.21s27.31,8.53,45.66,3.41l6,64.87s-31.58,8.11-62.73-7.68Z" fill="#fff"/>
            <g>
              <path d="M103.21,115.28s24.76-6,49.08,0-.85,21.34-.85,21.34S96.81,154.54,103.21,115.28Z" fill="#ffc1ac"/>
              <g>
                <path d="M102.79,133.21s27.31,8.53,45.66,3.41l6,64.87s-31.58,8.11-62.73-7.68Z" fill="#fff"/>
                <path d="M102.79,133.21s27.31,8.53,45.66,3.41l6,64.87s-31.58,8.11-62.73-7.68Z" fill="#000309" opacity="0.05"/>
                <path d="M96.74,166.23l-5,27.58c31.15,15.79,62.73,7.68,62.73,7.68l-1.34-14.63C133.28,182.5,114.15,176.13,96.74,166.23Z" fill="#000309" opacity="0.1"/>
              </g>
              <g>
                <path d="M113.88,111.44s-26.63-2.13-37.51,3c-18.13,8.5-24.53,13.73-33.61,18.31-2.62,1.32-27.57-36-27.57-36L0,97.55s23.18,64.74,30.77,67.14,44.58-13.22,44.58-13.22-3.29,50.44-2.44,56.85,23.48,20.05,23.48,20.05S119,131.5,113.88,111.44Z" fill="#773c65"/>
                <path d="M51.53,128c-3.15,1.78-6,3.34-8.77,4.73s-27.57-36-27.57-36L0,97.55s23.18,64.74,30.77,67.14c4.16,1.31,17.39-3,28.53-7.17A279.92,279.92,0,0,1,51.53,128Z" fill="#000e23" opacity="0.2"/>
                <path d="M139.91,112.3S128,172,145.46,233.07c0,0,18.78-3.84,29.45-15.37,0,0-6.83-50.35-9-61.87,0,0,32,20.91,33.71,26s-28.89,37-27.61,40.88,7.85,15.15,11.69,12.59,45.37-44.94,41.95-56.46-52.92-57.61-52.92-57.61S154.42,113.58,139.91,112.3Z" fill="#773c65"/>
              </g>
            </g>
            <path d="M172.05,222.74s-.9-3-5.4-.3-14.68,8.69,1.8,3.29c0,0-22.78,15.29,1.8,3.6,0,0-17.39,18,2.7,3.9,0,0-16.19,20.08,2.09,3,0,0,.9,3,3.3,3s3.9-3.89,3.9-3.89S174.45,229.33,172.05,222.74Z" fill="#ffc1ac"/>
          </g>
        </g>
        <path d="M99.52,71s6.89-4.59,11.48,0" fill="none" stroke="#996464" stroke-linecap="round" stroke-miterlimit="10" stroke-width="0.5"/>
        <path d="M120.23,73.42s8.11-1.69,10.66,4.29" fill="none" stroke="#996464" stroke-linecap="round" stroke-miterlimit="10" stroke-width="0.5"/>
      </g>
    </g>
  </g>
</svg>
