<svg xmlns="http://www.w3.org/2000/svg" xmlns:xlink="http://www.w3.org/1999/xlink" width="224.95" height="262.52" viewBox="0 0 224.95 262.52">
  <defs>
    <clipPath id="b54eb056-2920-4bfa-8d3b-5bf79215a5cd">
      <circle cx="112.47" cy="112.47" r="112.47" fill="none"/>
    </clipPath>
  </defs>
  <title>intercAsset 34</title>
  <g id="70094274-c9bf-4a5a-b6f0-ab92dccf32d1" data-name="Layer 2">
    <g id="b0eef003-3dc1-423b-9b6a-4746f4b39ade" data-name="Layer 1">
      <circle cx="112.47" cy="112.47" r="112.47" fill="#efefef"/>
      <g clip-path="url(#b54eb056-2920-4bfa-8d3b-5bf79215a5cd)">
        <path d="M75.46,154.38l-1.33.33s-12.68,11.46-20.38,31.86,7,41.42,7,41.42Z" fill="#ffd8cf"/>
        <path d="M121.12,54.42S95.65,40,85.63,50.36s-6.94,18.3-16,20.74S53.08,77.81,54,92.7s7.75,12.51,2.89,25.87,11.36,30.1,35.44,22.07c14.82-4.94,12.7-3.9,24.55-4.51S121.12,54.42,121.12,54.42Z" fill="#ff9c5e"/>
        <polygon points="104.97 120.99 100.82 148.28 78.83 153.37 104.78 179.68 143.58 155.61 126.33 150.75 128.59 113.71 104.97 120.99" fill="#ffd8cf"/>
        <path d="M126.92,141.07l1.67-27.36L105,121l-4.15,27.29A56.72,56.72,0,0,0,126.92,141.07Z" fill="#e7b8b4" opacity="0.7"/>
        <path d="M113.14,64.1s-30.84,1.27-36.26,36,20.87,43.16,38,40.22,25.39-27,27.75-37.33S141.11,64.27,113.14,64.1Z" fill="#ffd8cf"/>
        <path d="M120.75,65c13.18,8.41,15,26.64,13.18,34.5-2.36,10.35-10.66,34.4-27.75,37.33A39.3,39.3,0,0,1,90,136.11c7.66,4.58,17.15,5.55,24.79,4.23,17.09-2.93,25.39-27,27.75-37.33C144.71,93.68,141.8,69.73,120.75,65Z" fill="#fdc4bd" opacity="0.6"/>
        <path d="M152.5,154.33l-15.91-2.08s-38,18.67-43.27-2.49a79.59,79.59,0,0,0-17.86,3.85c-8.41,3.06-22,65.19-25,76.67s5.25,32.24,5.25,32.24S126,234.91,152,221.91l-.22-25.27C147.89,181.69,139.72,164,152.5,154.33Z" fill="#ff889e"/>
        <path d="M158.07,221.91c11.63-.13,18.19-15.2,29.82-15.29-3.94-13.18-8.71-25.16-8.71-25.16S169.71,154,152.5,154.33c-19.17.38-6,34.93-6,34.93Z" fill="#ffd8cf"/>
        <path d="M127.87,101c-.8,3.95-13.08,24.64.48,34.51,15.1,11,36.91,6.54,51.45-17.15C183.92,104.68,170.21,104,175,91s-5.15-16.82-17.7-25.79c-7.87-5.62-14.91-27.65-38.84-16.44,0,0-12.95,3.74-13.74,19.43,0,0,0,16.07,12.17,18.68S128.74,96.74,127.87,101Z" fill="#ffaa57"/>
        <path d="M175,91c3.15-8.54-.06-13.11-6.16-17.77,1.95,3.85,2,7.89-1.2,13.19-7.14,11.87,6.18,15.15-.43,27.85-14.68,16.11-31.54,19.75-44.29,14a14.72,14.72,0,0,0,5.43,7.31c15.1,11,36.91,6.54,51.45-17.15C183.92,104.68,170.21,104,175,91Z" fill="#ff9c5e"/>
        <path d="M82.08,94.24s6.08-6.08,12.16,0" fill="none" stroke="#ffaa57" stroke-linecap="round" stroke-miterlimit="10" stroke-width="0.5"/>
        <path d="M103.21,96.22s7-5,12,2.07" fill="none" stroke="#ffaa57" stroke-linecap="round" stroke-miterlimit="10" stroke-width="0.5"/>
      </g>
    </g>
  </g>
</svg>
