<svg xmlns="http://www.w3.org/2000/svg" width="131.91" height="84.4" viewBox="0 0 131.91 84.4">
  <title>intercAsset 14</title>
  <g id="ede3c57a-b187-4c08-92da-ba5cdd2425d7" data-name="Layer 2">
    <g id="0e1c05ff-0f96-4952-a57e-1f6af8cada70" data-name="Layer 1">
      <g>
        <g>
          <path d="M0,84.4A481.35,481.35,0,0,0,.35,26l1.53-.09a483.41,483.41,0,0,1-.21,58.45Z" fill="#28b260"/>
          <path d="M1.62,84.33a483.41,483.41,0,0,0,.21-58.45A412.28,412.28,0,0,0,121,0a526.35,526.35,0,0,1,10.9,59.71A463.94,463.94,0,0,1,1.62,84.33Z" fill="#2ecc71"/>
          <path d="M7.72,66.8Q8,54.53,7.61,42.43c7.73-.53,13.74-7.36,13.11-14.86A415,415,0,0,0,102.47,10c1.53,7.55,9.08,11.77,17.09,9Q122,31.29,123.9,43.85c-8.25,2.8-14.13,11.1-13.37,19A460.88,460.88,0,0,1,22.07,79.62C22.25,71.88,15.67,66.31,7.72,66.8Z" fill="#28b260"/>
        </g>
        <path d="M65.62,65.11c-10.74,2.06-19.49-4.85-20.05-14.73S52.34,31.3,62.42,29.16,82,32.81,83.21,42.78,76.35,63.07,65.62,65.11Z" fill="#2ecc71"/>
      </g>
    </g>
  </g>
</svg>
