<svg xmlns="http://www.w3.org/2000/svg" xmlns:xlink="http://www.w3.org/1999/xlink" width="862.39" height="899.28" viewBox="0 0 862.39 899.28">
  <defs>
    <clipPath id="0f115d5e-5c9a-4411-ac4c-15de542d4f5a">
      <path id="b839e44b-93f9-472c-91e6-634e40b02f96" data-name="&lt;Clipping Path&gt;" d="M226.07,491.14s16.37-39-30.78-35.85L74,798.52s-23.54,45.11-33,45.73S5,842.84,28.33,852.67s31.17,13.09,40,3,19.25-24,19.25-24l-12.47,40.6s40.14-51.89,16.14-71.14c0,0,133.11-164.08,126.5-235.61a31.69,31.69,0,0,1-1.87-28.29c6.55-15.58,10.22-46.13,10.22-46.13" fill="#f0a475"/>
    </clipPath>
    <clipPath id="be62043a-df37-4075-bfa6-2319aa47c5b5">
      <path id="baa64043-2ff7-405c-a9ae-3533d98d5973" data-name="&lt;Clipping Path&gt;" d="M296.43,455.1s-56.67-18.9-98.57-3.09a10.54,10.54,0,0,0-6.64,10.5l20.69,355.76a2.26,2.26,0,0,1,0,.45c-.31,3.59-4.53,50.66-12.66,54.72-8.45,4.23-33.8,12.68-8.45,12.68s33.81,0,38-12.68c1.29-3.87,2.58-8.13,3.75-12.18a3.32,3.32,0,0,1,6.5.59h0a3.33,3.33,0,0,0,6.63,0c1.72-17.83.57-40-14.17-46.58a3.29,3.29,0,0,1-1.87-3.9c6.89-24.45,53.46-195.34,26.77-258.56a3.27,3.27,0,0,1,3.09-4.57c22,.58,104.53,1.8,104.53-12.84,0-16.91-63.39-80.29-63.39-80.29" fill="#fdb483"/>
    </clipPath>
    <clipPath id="ad0c3daa-9419-476f-a962-2298e262ad32">
      <path id="347af8f7-1800-47d5-807f-2599c17dd2eb" data-name="&lt;Clipping Path&gt;" d="M559.17,423.61s42.89,47.58,17.53,89.83-267.59,34.62-267.59,34.62S288,459.32,220.37,446.65c0,0,147.87-31.33,198.58-18.66S559.17,423.61,559.17,423.61Z" fill="#155c8f"/>
    </clipPath>
    <clipPath id="c8a88088-5bf2-492f-94f1-c93216fd1c64">
      <path id="cad9f9e9-14ce-4258-99a3-ec4254e94907" data-name="&lt;Clipping Path&gt;" d="M780.38,555.18l-16.49,10.38,11.74-21.26c-13.72-29.47-27.6-43.48-27.6-43.48A364.66,364.66,0,0,0,722.44,668l26.1,14.84L723.69,681C732.23,756.08,760.16,806,760.16,806l23.36,1.7C816.24,686.47,800.24,603.89,780.38,555.18Z" fill="#4dc6cc"/>
    </clipPath>
    <clipPath id="15bb3f74-b0f6-4024-ac82-9762d258b092">
      <path id="025b84d4-f332-4d67-b4aa-b3c313adf328" data-name="&lt;Clipping Path&gt;" d="M705.18,620.65l-10,13,3-20.19c-19.41-19.24-34.45-26.25-34.45-26.25a306.52,306.52,0,0,0,28.6,139.32l24.91,4.08-20.12,5.83c28.63,56.7,65.22,87.89,65.22,87.89l18.92-5.48C771.77,713.73,735.06,653.27,705.18,620.65Z" fill="#44baba"/>
    </clipPath>
    <clipPath id="2145618c-80fb-4393-8407-84493dcf3516">
      <path id="79b5bf31-1cc7-44d0-8db7-65c49be47e22" data-name="&lt;Clipping Path&gt;" d="M861.59,626.48l-16.32,1.41,17-11.38c1.09-27.31-3.89-43.13-3.89-43.13a306.54,306.54,0,0,0-83.5,115.13l13.81,21.14-17.89-10.92c-22.51,59.41-20.83,107.45-20.83,107.45l16.81,10.26C837.86,738.43,857.7,670.54,861.59,626.48Z" fill="#4dc6cc"/>
    </clipPath>
    <clipPath id="f408a825-256c-4562-93ca-48cda6e9f700">
      <rect id="36da47a9-4b1d-48d7-932c-ebac5ae73c17" data-name="&lt;Rectangle&gt;" x="710.95" y="795.59" width="101.7" height="83.76" rx="1.92" ry="1.92" fill="#b3b7d4"/>
    </clipPath>
  </defs>
  <title>intercAsset 12</title>
  <g id="20107ead-31ad-4421-8bb7-7507fecb6914" data-name="Layer 2">
    <g id="081006f1-402a-4f0b-ab91-d1adf6cdde11" data-name="Layer 1">
      <g>
        <path id="6786f3c3-bc54-458a-8142-432eef568e3e" data-name="&lt;Clipping Path&gt;" d="M226.07,491.14s16.37-39-30.78-35.85L74,798.52s-23.54,45.11-33,45.73S5,842.84,28.33,852.67s31.17,13.09,40,3,19.25-24,19.25-24l-12.47,40.6s40.14-51.89,16.14-71.14c0,0,133.11-164.08,126.5-235.61a31.69,31.69,0,0,1-1.87-28.29c6.55-15.58,10.22-46.13,10.22-46.13" fill="#f0a475"/>
        <g clip-path="url(#0f115d5e-5c9a-4411-ac4c-15de542d4f5a)">
          <path d="M100.14,801.23H91.79S60.5,872.16,41.72,840.87,0,851.3,0,851.3l43.81,35.47L96,897.2l33.38-73Z" fill="#4d5ba3"/>
        </g>
      </g>
      <path d="M330.77,431,634.92,238.33s32.35-176.76,140.73-109C892.71,202.6,850.42,481.93,831,581.83c-8,41.31-31.06,78.36-65.12,103.06C716,721.07,625,758.27,462,758,157.15,757.39,139.68,447.44,330.77,431Z" fill="#fdbf38"/>
      <path d="M283,519.1s35.46,93.4,262,34.53a186.37,186.37,0,0,0,82.08-45.73c56.11-53.77,134-171.79,61.59-378.52l-32.44,29-21.3,79.94L330.77,431Z" fill="#fcc860"/>
      <g>
        <path id="f3304a76-8175-4623-aa0d-005b6f687f48" data-name="&lt;Clipping Path&gt;" d="M296.43,455.1s-56.67-18.9-98.57-3.09a10.54,10.54,0,0,0-6.64,10.5l20.69,355.76a2.26,2.26,0,0,1,0,.45c-.31,3.59-4.53,50.66-12.66,54.72-8.45,4.23-33.8,12.68-8.45,12.68s33.81,0,38-12.68c1.29-3.87,2.58-8.13,3.75-12.18a3.32,3.32,0,0,1,6.5.59h0a3.33,3.33,0,0,0,6.63,0c1.72-17.83.57-40-14.17-46.58a3.29,3.29,0,0,1-1.87-3.9c6.89-24.45,53.46-195.34,26.77-258.56a3.27,3.27,0,0,1,3.09-4.57c22,.58,104.53,1.8,104.53-12.84,0-16.91-63.39-80.29-63.39-80.29" fill="#fdb483"/>
        <g clip-path="url(#be62043a-df37-4075-bfa6-2319aa47c5b5)">
          <path d="M235.74,809.58l-6.26,4.17s-2.09,60.5-29.21,58.41-35.46,16.69-35.46,16.69l43.81,10.43,50.07-2.08L269.12,868l-14.6-54.24Z" fill="#4d5ba3"/>
        </g>
      </g>
      <g>
        <path id="bfd53485-7e25-4981-8a65-4ad2a6951df6" data-name="&lt;Clipping Path&gt;" d="M559.17,423.61s42.89,47.58,17.53,89.83-267.59,34.62-267.59,34.62S288,459.32,220.37,446.65c0,0,147.87-31.33,198.58-18.66S559.17,423.61,559.17,423.61Z" fill="#155c8f"/>
        <g clip-path="url(#ad0c3daa-9419-476f-a962-2298e262ad32)">
          <path d="M328,465.43l-2-.64c-1-.31-1.36,1.19-.41,1.5l2,.65c.95.31,1.36-1.2.41-1.51Z" fill="#155c8f"/>
          <path d="M297.79,565.77v.67a.78.78,0,0,0,1.55,0v-.67a.78.78,0,0,0-1.55,0Z" fill="#2e77a3"/>
          <path d="M225.47,444.63a451.32,451.32,0,0,1,85,9.89c.24.06.35-.32.1-.37a451.47,451.47,0,0,0-85.06-9.91.2.2,0,0,0,0,.39Z" fill="#2e77a3"/>
          <path d="M223.48,448.76a169.51,169.51,0,0,1,51,10.36c.24.09.34-.29.1-.37a169.56,169.56,0,0,0-51.15-10.38c-.25,0-.25.38,0,.39Z" fill="#2e77a3"/>
          <path d="M317.7,555.4a56.67,56.67,0,0,0-2-49.38c-.12-.22-.46,0-.34.2a56.29,56.29,0,0,1,2,49c-.1.22.23.42.33.19Z" fill="#2e77a3"/>
          <path d="M331.85,546.62a98.53,98.53,0,0,0,21.39-19.88c.15-.2-.12-.47-.28-.28a97.59,97.59,0,0,1-21.3,19.82c-.21.14,0,.48.19.34Z" fill="#2e77a3"/>
          <path d="M374.27,439l47.86,17.24c.23.09.34-.29.1-.37l-47.86-17.25c-.23-.08-.34.29-.1.38Z" fill="#2e77a3"/>
          <path d="M329.1,446.28a914.78,914.78,0,0,0,125.63,21.39c.25,0,.24-.36,0-.39A913.6,913.6,0,0,1,329.2,445.9c-.24-.06-.35.32-.1.38Z" fill="#2e77a3"/>
        </g>
      </g>
      <g>
        <path d="M429.32,377.64a17.92,17.92,0,0,0,13.33-22.77l-23-74.76a5.31,5.31,0,0,1,.16-3.62c2.3-5.48,8.8-23.29,4.86-41.2a2.11,2.11,0,0,0-1.51-1.6c-2.26-.57-6.92-.18-7.92,12.06,0,0-7-22.6-19.07-29-7.91-4.19-12.76-2.27-15.49,2a8.4,8.4,0,0,0-.84,1.7c-1.92,5.29-9.62,31.14,12.94,54.74a6.55,6.55,0,0,1,1.77,3.64l13.23,84a17.92,17.92,0,0,0,21.5,14.72Z" fill="#f0a475"/>
        <path d="M426.26,340.23c1.32-.29,2.82-.7,4.54-1.25A23.72,23.72,0,0,0,445,326.85c13.22-26.89,56.13-110.21,82.91-116,0,0,20.88-2.61,25.8,30.74S455.5,370.29,455.5,370.29s-5.27,6.22-18.58,10.29c-16.62,5.08-31.77-11.36-25.47-27.56h0A20.81,20.81,0,0,1,426.26,340.23Z" fill="#f0a475"/>
      </g>
      <g>
        <g>
          <path id="73c40ea1-8e20-48e8-9b44-367f6fd089c1" data-name="&lt;Clipping Path&gt;" d="M780.38,555.18l-16.49,10.38,11.74-21.26c-13.72-29.47-27.6-43.48-27.6-43.48A364.66,364.66,0,0,0,722.44,668l26.1,14.84L723.69,681C732.23,756.08,760.16,806,760.16,806l23.36,1.7C816.24,686.47,800.24,603.89,780.38,555.18Z" fill="#4dc6cc"/>
          <g clip-path="url(#c8a88088-5bf2-492f-94f1-c93216fd1c64)">
            <g>
              <path d="M750.13,551.77Q754.38,664,769.21,775.51q4.24,31.71,9.34,63.3c.15.93,1.59.64,1.44-.29q-17.78-110.32-25.09-222-2.1-32.31-3.31-64.66c0-.93-1.5-1-1.46-.11Z" fill="#b0e7ed"/>
              <path d="M755.32,625a331.67,331.67,0,0,1,27.45-29.15c.68-.65-.27-1.76-1-1.11a336.39,336.39,0,0,0-27.7,29.43c-.6.73.61,1.55,1.21.83Z" fill="#b0e7ed"/>
              <path d="M767,739.54q12.78-18,24.77-36.59c.51-.8-.7-1.63-1.21-.83q-12,18.55-24.76,36.59a.73.73,0,0,0,1.2.83Z" fill="#b0e7ed"/>
              <path d="M759.7,671.22a278.4,278.4,0,0,1,20.4-24.69c.63-.69-.32-1.8-1-1.11a280.43,280.43,0,0,0-20.65,25c-.56.76.65,1.58,1.21.82Z" fill="#b0e7ed"/>
              <path d="M752.83,588.55l-20.7-11.3c-.82-.45-1.66.76-.83,1.21L752,589.75c.82.45,1.65-.75.83-1.2Z" fill="#b0e7ed"/>
              <path d="M756.8,653.64l-24.25-13.87c-.82-.46-1.65.74-.83,1.21L756,654.85c.82.46,1.65-.74.83-1.21Z" fill="#b0e7ed"/>
              <path d="M771.2,779.79a122.23,122.23,0,0,0-21-9.57.73.73,0,0,0-.49,1.38A120.8,120.8,0,0,1,770.37,781c.82.47,1.65-.73.83-1.2Z" fill="#b0e7ed"/>
              <path d="M762.94,717.19a266.72,266.72,0,0,1-37.82-17.91c-.81-.46-1.65.74-.83,1.21a268.85,268.85,0,0,0,38.16,18.08c.88.34,1.37-1,.49-1.38Z" fill="#b0e7ed"/>
            </g>
          </g>
        </g>
        <g>
          <path id="e99db702-1b66-44c8-9a05-a314536e0feb" data-name="&lt;Clipping Path&gt;" d="M705.18,620.65l-10,13,3-20.19c-19.41-19.24-34.45-26.25-34.45-26.25a306.52,306.52,0,0,0,28.6,139.32l24.91,4.08-20.12,5.83c28.63,56.7,65.22,87.89,65.22,87.89l18.92-5.48C771.77,713.73,735.06,653.27,705.18,620.65Z" fill="#44baba"/>
          <g clip-path="url(#15bb3f74-b0f6-4024-ac82-9762d258b092)">
            <g>
              <path d="M680.33,626.79q36.1,87.29,80.34,170.88,12.6,23.77,25.84,47.2c.39.69,1.44,0,1-.65Q741.35,762.41,703,676.48q-11.09-24.87-21.48-50c-.3-.73-1.49-.39-1.18.34Z" fill="#b0e7ed"/>
              <path d="M705.79,683a279.38,279.38,0,0,1,13.14-31c.35-.71-.73-1.31-1.08-.59a283.79,283.79,0,0,0-13.26,31.29c-.26.75.93,1,1.2.3Z" fill="#b0e7ed"/>
              <path d="M748.39,770q4.83-17.94,8.86-36.08c.17-.78-1-1.08-1.2-.3q-4,18.13-8.85,36.08a.61.61,0,0,0,1.19.3Z" fill="#b0e7ed"/>
              <path d="M722.74,718.2a232,232,0,0,1,8.88-25.43c.3-.72-.78-1.32-1.08-.59a235.91,235.91,0,0,0-9,25.72c-.22.77,1,1.06,1.2.3Z" fill="#b0e7ed"/>
              <path d="M693.19,655l-19.62-2.87c-.78-.12-1.09,1.08-.3,1.19l19.62,2.87c.78.11,1.08-1.08.3-1.19Z" fill="#b0e7ed"/>
              <path d="M715.32,705.18l-23.18-3.86c-.77-.13-1.08,1.07-.3,1.2L715,706.38c.78.13,1.08-1.07.3-1.2Z" fill="#b0e7ed"/>
              <path d="M763.49,800.47A101.67,101.67,0,0,0,744.17,799a.62.62,0,0,0,0,1.23,100.82,100.82,0,0,1,19,1.39c.77.13,1.08-1.06.3-1.19Z" fill="#b0e7ed"/>
              <path d="M738.71,753.51a223.91,223.91,0,0,1-35.06-3.09c-.77-.13-1.08,1.07-.3,1.2a226.78,226.78,0,0,0,35.37,3.12.62.62,0,0,0,0-1.23Z" fill="#b0e7ed"/>
            </g>
          </g>
        </g>
        <g>
          <path id="6c0a03d4-053a-4407-8748-22d3671b0144" data-name="&lt;Clipping Path&gt;" d="M861.59,626.48l-16.32,1.41,17-11.38c1.09-27.31-3.89-43.13-3.89-43.13a306.54,306.54,0,0,0-83.5,115.13l13.81,21.14-17.89-10.92c-22.51,59.41-20.83,107.45-20.83,107.45l16.81,10.26C837.86,738.43,857.7,670.54,861.59,626.48Z" fill="#4dc6cc"/>
          <g clip-path="url(#2145618c-80fb-4393-8407-84493dcf3516)">
            <g>
              <path d="M840.29,612.28q-40,85.54-71.86,174.62-9,25.33-17.39,50.92c-.25.75.94,1.09,1.18.33q29.19-89.31,66.71-175.61,10.86-25,22.41-49.62c.34-.71-.71-1.36-1.05-.64Z" fill="#b0e7ed"/>
              <path d="M816,669a280.84,280.84,0,0,1,31.75-11.23c.76-.22.47-1.41-.29-1.19a281.41,281.41,0,0,0-32,11.34c-.73.31-.14,1.39.58,1.08Z" fill="#b0e7ed"/>
              <path d="M780.59,759.14q16.49-8.57,32.6-17.83c.69-.39.1-1.48-.58-1.08Q796.5,749.5,780,758.05a.62.62,0,0,0,.59,1.09Z" fill="#b0e7ed"/>
              <path d="M801.46,705.27a234,234,0,0,1,24.76-10.61c.74-.27.46-1.47-.29-1.2a237.33,237.33,0,0,0-25,10.73c-.71.35-.13,1.43.58,1.08Z" fill="#b0e7ed"/>
              <path d="M828.15,640.81,817,624.4c-.44-.65-1.53-.07-1.09.58l11.13,16.42c.44.65,1.53.07,1.08-.59Z" fill="#b0e7ed"/>
              <path d="M806.07,691l-12.8-19.71c-.43-.66-1.51-.08-1.08.59L805,691.59c.43.66,1.52.08,1.09-.58Z" fill="#b0e7ed"/>
              <path d="M768.27,790.86a103.55,103.55,0,0,0-12-15.22.62.62,0,0,0-.9.85,101.23,101.23,0,0,1,11.79,15c.43.67,1.52.09,1.09-.58Z" fill="#b0e7ed"/>
              <path d="M786.19,740.88a224.56,224.56,0,0,1-21.38-27.94c-.43-.67-1.51-.09-1.08.58a226.76,226.76,0,0,0,21.56,28.21c.53.59,1.43-.26.9-.85Z" fill="#b0e7ed"/>
            </g>
          </g>
        </g>
        <g>
          <rect id="79ea461e-32fd-4804-a127-490716d700f1" data-name="&lt;Rectangle&gt;" x="710.95" y="795.59" width="101.7" height="83.76" rx="1.92" ry="1.92" fill="#b3b7d4"/>
          <g clip-path="url(#f408a825-256c-4562-93ca-48cda6e9f700)">
            <rect x="747.7" y="795.59" width="101.7" height="83.76" rx="1.92" ry="1.92" fill="#edf1f6" opacity="0.37"/>
          </g>
        </g>
      </g>
      <path d="M488,246.3s5.79-229.19,81-244.24,98.39,56.72,99,71.19,13.31,152.6,9.26,175.85S488,246.3,488,246.3Z" fill="#0d537c"/>
      <path d="M609.51,442.15,664,236.9C636.16,226,635.17,209,635.17,209s-71.48,2.08-97.29.1-39.72,27.79-39.72,27.79L458.39,344.73,441,378a131.85,131.85,0,0,1-16,23.8s-23.58,19.65-10.44,35,67.44,69.67,112.6,64.41S598.5,484.78,609.51,442.15Z" fill="#2979ff"/>
      <path d="M574.84,199.23a1.43,1.43,0,0,1-.15.39c-1.24,2.12-13.79,23.34-23.43,31.66-10.15,8.77-9.34,27.22,20.24,12,28.66-14.74,56.74-25.83,63.12-33.52a1.4,1.4,0,0,0,.13-1.54c-2.36-4.57-14-27.77-16.66-45.1a1.42,1.42,0,0,0-1.18-1.2l-21.25-3.5-.23,0h-21.9a1.46,1.46,0,0,0-1.38,1.93l3.54,10.47a.94.94,0,0,0,0,.09C575.91,171.64,578.78,183.7,574.84,199.23Z" fill="#fdb483"/>
      <path d="M605.05,84.41l-1.11-14.84a1,1,0,0,0-.8-.91c-7.62-1.43-71.29-13.11-72.59-4.11-4,28.08-1.25,55.09-1.25,55.09,4.36,40.59,36.52,51.41,50.08,54.18a20.06,20.06,0,0,0,10.72-.76l28-9.95s-7.54-39-8.08-48.63a32.19,32.19,0,0,0-.47-4L605.5,88A35.5,35.5,0,0,1,605.05,84.41Z" fill="#fdb483"/>
      <rect x="400.86" y="180.12" width="85.92" height="133.96" rx="1.58" ry="1.58" fill="#d3d6e5"/>
      <g>
        <path d="M521.33,295.52l55,9.53c3.31.57,4.78,3.6,3.27,6.75l-17.34,36.31a8.66,8.66,0,0,1-8.73,4.68l-55-9.53c-3.32-.58-4.79-3.6-3.28-6.76l17.34-36.31A8.65,8.65,0,0,1,521.33,295.52Z" fill="#fff" opacity="0.66" style="isolation: isolate"/>
        <path d="M527.39,307.81l55,9.53c3.32.57,4.79,3.59,3.28,6.75L568.34,360.4a8.66,8.66,0,0,1-8.74,4.67l-55-9.52c-3.32-.58-4.78-3.6-3.28-6.76l17.34-36.31A8.68,8.68,0,0,1,527.39,307.81Z" fill="#fff" opacity="0.7" style="isolation: isolate"/>
      </g>
      <path d="M577.56,102.23c-1-6.76-6.95-11.56-13.69-12.11-1-.09-1.06-1.65-.06-1.57,7.61.63,14.18,5.81,15.32,13.62.14,1-1.42,1-1.57.06Z" fill="#573c37"/>
      <path d="M543.24,86.28c-4.64-1.55-9.29.62-11.81,4.63-.37.59-1.31,0-.94-.53,2.77-4.39,7.92-6.85,13-5.14.66.22.38,1.26-.28,1Z" fill="#573c37"/>
      <path d="M559.08,143.61a13.25,13.25,0,0,1-4.72,4.45c-4,2.26-8.44,1.76-12.5-.06-.71-.32-.09-1.35.62-1,5.53,2.48,12.24,1.52,15.56-4a.61.61,0,0,1,1,.62Z" fill="#573c37"/>
      <g>
        <path d="M563.58,397.75a17.91,17.91,0,0,0,.88-26.37l-55.77-54.81a5.33,5.33,0,0,1-1.58-3.26c-.59-5.92-3.35-24.67-15.34-38.55a2.09,2.09,0,0,0-2.08-.69c-2.27.57-6.18,3.13-1.23,14.38,0,0-16.93-16.54-30.57-16.42-8.95.09-12.3,4.08-12.65,9.16a8.61,8.61,0,0,0,.06,1.9c.83,5.56,6.36,32,37.44,42a6.57,6.57,0,0,1,3.29,2.36L537.66,395a17.91,17.91,0,0,0,25.92,2.71Z" fill="#fdb483"/>
        <path d="M551.15,362.14c1.31-.29,2.82-.7,4.54-1.24a23.72,23.72,0,0,0,14.17-12.14c13.23-26.89,56.14-110.21,82.91-116,0,0,20.89-2.61,25.81,30.74S580.39,392.2,580.39,392.2s-5.27,6.22-18.58,10.29c-16.62,5.08-31.77-11.36-25.47-27.56h0A20.81,20.81,0,0,1,551.15,362.14Z" fill="#fdb483"/>
      </g>
      <path d="M500,480.58s46,15.34,81.06-8.77" fill="none" stroke="#f4f4f4" stroke-linecap="round" stroke-miterlimit="10" stroke-width="0.25"/>
      <path d="M506.59,474s46,15.34,81.07-8.76" fill="none" stroke="#f4f4f4" stroke-linecap="round" stroke-miterlimit="10" stroke-width="0.25"/>
    </g>
  </g>
</svg>
