<svg xmlns="http://www.w3.org/2000/svg" xmlns:xlink="http://www.w3.org/1999/xlink" viewBox="0 0 783.324 473.151"><defs><clipPath id="0a015da0-87c7-40ac-b779-f4bf30a20282"><path id="8bec51e5-2a88-4792-b296-8ae36b5cb367" data-name="&lt;Clipping Path&gt;" d="M228.384,422l1.4,15.536s-4.6,2.424-1.818,15.425c0,0,43.315-11.747,42.737-13.7s-18.648-1.928-18.648-1.928l-10.536-3.265-2.109-15.327Z" fill="#fdb483"/></clipPath><clipPath id="b773c625-3c48-4f66-9eab-1d8e5a4ac931"><path id="ecc11ddc-327f-44eb-a2eb-d41e92cfb3b2" data-name="&lt;Clipping Path&gt;" d="M231.1,435.083l1.4,15.536s-4.6,2.423-1.818,15.425c0,0,43.315-11.747,42.737-13.7s-18.648-1.929-18.648-1.929l-10.536-3.264-.427-15.825Z" fill="#fdb483"/></clipPath><clipPath id="ef27d387-a345-413f-ae68-232c1dae207b"><path id="923f75e9-3afa-4537-bd64-575b397a0655" data-name="&lt;Clipping Path&gt;" d="M84.7,189.321l.516,21.069s13.639,10.137,22.493-1.973l-3.01-18.152Z" fill="#fdb483"/></clipPath><linearGradient id="0d016e69-3230-4a17-857e-9aad7800d425" x1="109.002" y1="272.338" x2="130.849" y2="250.488" gradientTransform="matrix(0.966, -0.249, -0.234, -0.975, 61.57, 529.557)" gradientUnits="userSpaceOnUse"><stop offset="0" stop-color="#007cff"/><stop offset="1" stop-color="#002aff"/></linearGradient><clipPath id="55b113fb-6418-4d89-9b34-5ac60d0e0d46"><path id="1603d06c-8553-49cb-8391-db0c4c5789f3" data-name="&lt;Clipping Path&gt;" d="M363.322,364.232s-7.341-2.25-10.692,5.865l16.57,18.5s9.1,13.674,7.806,16.438-6.01,9.984.4,4.9,8.551-6.778,7.079-10.832-3.793-9.177-3.793-9.177l9.541,9.843s-8.432-19.423-17.609-15.631" fill="#cc8b77"/></clipPath><clipPath id="41f42655-24ed-42b3-87b9-0259f88338d5"><path id="12a64cd3-5cbe-44b6-8472-553589e44f2d" data-name="&lt;Clipping Path&gt;" d="M362.8,373s-4.713-6.061-12.12-1.347l2.923,24.666s-.416,16.419-3.06,17.938-10.657,4.716-2.487,4.243,10.893-.631,12.018-4.8,2.172-9.689,2.172-9.689l2.15,13.538s4.264-20.74-5.425-22.912" fill="#cc8b77"/></clipPath><clipPath id="5c5f5598-a0a1-421e-81f1-ac797fc20d2e"><path id="71f2458c-1462-4209-b99d-d959af9e221f" data-name="&lt;Clipping Path&gt;" d="M372.571,180.319s16.673,13.778,15.157,54.7-16.673,130.352-24.251,148.541c0,0-13.642,1.516-15.158-1.516,0,0-1.515-147.025,1.516-156.119,0,0-28.8-19.7-27.283-37.893S372.571,180.319,372.571,180.319Z" fill="#7799f2"/></clipPath><clipPath id="fad7dd5a-520f-4e23-af40-5d1c9b5fe0cd"><path id="42b7f329-7259-41d3-b737-3c5a8306057b" data-name="&lt;Clipping Path&gt;" d="M363.477,100.122s-8.754-11.96-4.041-23.407l-16.16,6.06s2.693,14.815-8.6,17.347c-5.333,1.2,3.031,10.61,3.031,10.61h19.7Z" fill="#cc8b77"/></clipPath><clipPath id="6c7417aa-7b55-4fd8-ac11-080616b7b67a"><path id="fb0f31bc-68c8-4d6b-9159-ded32ce8671f" data-name="&lt;Clipping Path&gt;" d="M363.477,100.122s-15.158,10.61-28.8,0a13.764,13.764,0,0,0-8.91,2.855c-5.61,4.007-6.06,18.987-6.06,30.3,0,21.22,2.844,54.756,2.844,54.756s16.683,22.009,50.352-7.62c0,0-7.912-15.116-6.4-19.663s10.61-21.22,10.61-21.22,4.547-24.252,15.157-24.252C392.275,115.279,368.024,104.669,363.477,100.122Z" fill="#2962ff"/></clipPath><clipPath id="047c9b22-57dc-4f3d-9e9d-4f34fc7af5e7"><path id="ea20a1b6-b82b-4278-a27d-0b5da825ef30" data-name="&lt;Clipping Path&gt;" d="M42.353,334.99l-5.982,3.765,4.261-7.714c-4.978-10.693-10.014-15.779-10.014-15.779a132.289,132.289,0,0,0-9.289,60.664l9.473,5.383-9.018-.654c3.1,27.237,13.235,45.337,13.235,45.337l8.476.614C55.366,382.631,49.563,352.663,42.353,334.99Z" fill="#4dc6cc"/></clipPath><clipPath id="18e028fc-8d95-4d91-817c-bf44fde2f5dd"><path id="a4c689b0-9530-4d21-a0b0-08abb31d89d7" data-name="&lt;Clipping Path&gt;" d="M15.067,358.748l-3.62,4.715,1.11-7.327c-7.046-6.981-12.5-9.522-12.5-9.522a111.255,111.255,0,0,0,10.376,50.553l9.042,1.481-7.3,2.116c10.392,20.576,23.668,31.892,23.668,31.892l6.864-1.989C39.232,392.523,25.91,370.582,15.067,358.748Z" fill="#44baba"/></clipPath><clipPath id="68983089-0919-448a-b52c-f5ebf3661630"><path id="869790f4-5269-4530-8212-f3ff37dce10d" data-name="&lt;Clipping Path&gt;" d="M71.826,360.861l-5.923.511,6.156-4.126c.395-9.911-1.412-15.652-1.412-15.652a111.256,111.256,0,0,0-30.3,41.776l5.01,7.672-6.491-3.961c-8.169,21.555-7.558,38.989-7.558,38.989l6.1,3.723C63.213,401.487,70.412,376.848,71.826,360.861Z" fill="#4dc6cc"/></clipPath><clipPath id="9144ac2e-0d24-4e9a-a1b7-d7f9888e00d9"><rect id="f05e5097-5016-4aed-a5fb-c3d993b4104e" data-name="&lt;Rectangle&gt;" x="17.159" y="422.227" width="36.905" height="30.392" rx="1.915" ry="1.915" fill="#b3b7d4"/></clipPath><clipPath id="01981147-1b12-4a24-9eab-09639f5c2270"><path id="84391e66-9e63-40c3-bcb5-9b3167ec3ae8" data-name="&lt;Clipping Path&gt;" d="M753.562,330.7l-5.983,3.765,4.262-7.714c-4.979-10.693-10.015-15.78-10.015-15.78a132.316,132.316,0,0,0-9.289,60.664l9.473,5.383-9.018-.654c3.1,27.237,13.235,45.337,13.235,45.337l8.476.614C766.574,378.34,760.771,348.371,753.562,330.7Z" fill="#4dc6cc"/></clipPath><clipPath id="3aba6071-aa6b-4c13-b6f5-14066cb813bc"><path id="8d1e00d7-37a0-44a4-a29e-0125f7bf2606" data-name="&lt;Clipping Path&gt;" d="M726.275,354.456l-3.619,4.715,1.11-7.327c-7.047-6.98-12.5-9.522-12.5-9.522a111.255,111.255,0,0,0,10.377,50.553l9.042,1.481-7.3,2.116c10.391,20.576,23.667,31.893,23.667,31.893l6.864-1.989C750.44,388.231,737.118,366.29,726.275,354.456Z" fill="#44baba"/></clipPath><clipPath id="51b724dc-7426-49e4-9db9-24b1ebfc744e"><path id="74d78696-c718-4972-917c-a6da8042d941" data-name="&lt;Clipping Path&gt;" d="M783.034,356.569l-5.922.511,6.156-4.126c.394-9.91-1.413-15.652-1.413-15.652a111.255,111.255,0,0,0-30.3,41.777l5.009,7.671-6.49-3.96c-8.169,21.554-7.559,38.989-7.559,38.989l6.1,3.722C774.421,397.2,781.62,372.557,783.034,356.569Z" fill="#4dc6cc"/></clipPath><clipPath id="b721a6fd-4f2d-4d2d-aaea-f65473322d8b"><rect id="863c20b6-3d8d-4cbf-bdcd-26feb82efd82" data-name="&lt;Rectangle&gt;" x="728.368" y="417.936" width="36.905" height="30.392" rx="1.915" ry="1.915" fill="#b3b7d4"/></clipPath></defs><title>intercAsset 1</title><g style="isolation:isolate"><g id="9f6514da-f97c-41e7-9b15-d8a3debc26b0" data-name="Layer 2"><g id="4a88249a-e5cb-4692-9122-0da62edfddcd" data-name="Layer 2"><path d="M366.911,7.575c2.092-.753,4.341-.976,6.494-1.526,16.9-4.324,126.345-30.38,152.764,73.423,32.818,128.945,166.4,169.348,178.187,201.139,3.235,8.728-61.087,71.12-61.433,80.422-.916,24.586,32.672,87.066-96.76,33.249C430.89,346.353,396,365.722,315.369,449.776S24.2,371.635,80.669,272.444,192.043,193.769,224.8,190.937c30.717-2.655,68.573-32.781,81.566-110.378,5.461-32.615,27.473-60.319,58.347-72.167Q365.8,7.975,366.911,7.575Z" fill="#f0f8ff"/><path d="M266.945,170.944s1.489-2.86,3.275-1.7a6.484,6.484,0,0,1,2.4,3.285l-1.58,1.051-2.474-.776Z" fill="#b77b6a"/><rect x="244.131" y="150.185" width="25.182" height="38.107" rx="0.992" ry="0.992" transform="translate(-14.499 24.37) rotate(-5.286)" fill="#efefef"/><path id="8190f456-2198-4894-aab5-119c831f8df0" data-name="&lt;Clipping Path&gt;" d="M228.384,422l1.4,15.536s-4.6,2.424-1.818,15.425c0,0,43.315-11.747,42.737-13.7s-18.648-1.928-18.648-1.928l-10.536-3.265-2.109-15.327Z" fill="#fdb483"/><g clip-path="url(#0a015da0-87c7-40ac-b779-f4bf30a20282)"><path d="M228.179,437.409c1.1-.813,1.586-1.108,5.493,3.477s6.477-8.294,9.757-7.988S273.64,438,273.64,438l-2.132,5.733-45.684,11.6S222.421,441.663,228.179,437.409Z" fill="#6b2828"/></g><path id="b40b403e-18e3-4ce6-bcf8-25f034a05db0" data-name="&lt;Clipping Path&gt;" d="M231.1,435.083l1.4,15.536s-4.6,2.423-1.818,15.425c0,0,43.315-11.747,42.737-13.7s-18.648-1.929-18.648-1.929l-10.536-3.264-.427-15.825Z" fill="#fdb483"/><g clip-path="url(#b773c625-3c48-4f66-9eab-1d8e5a4ac931)"><path d="M230.9,450.491c1.1-.813,1.586-1.107,5.493,3.478s6.477-8.294,9.757-7.988,30.211,5.1,30.211,5.1l-2.132,5.733-45.684,11.6S225.139,454.746,230.9,450.491Z" fill="#6b2828"/></g><path d="M147.09,247.889s1.55,5.164,13.42-1.177,38.359-16.889,38.359-16.889,8.377-17,19.319-11.016-8.269,14.067-8.269,14.067-10.43,4.022-11.8,5.056-48.495,32.581-53.487,31.923S138.18,249.4,138.18,249.4Z" fill="#fdb483"/><path d="M482.6,421.968a18.459,18.459,0,0,1,16.2-8.413,19.45,19.45,0,0,0,14.417-5.666,11.515,11.515,0,0,1,7.7-3.141c6.324-.16,16.327.2,17.771,3.937,2.134,5.527,1.149,15.54-4.432,16.2-4.743.558-36.034,4.79-45.331,6.049a6.1,6.1,0,0,1-6.89-7.064A10.662,10.662,0,0,1,482.6,421.968Z" fill="#cdd8f6"/><polygon points="479.03 405.954 472.534 417.608 488.774 419.519 498.899 407.482 481.323 402.133 479.03 405.954" fill="#8c5246"/><polygon points="518.578 397.93 517.431 407.1 535.581 408.247 537.149 396.21 518.578 397.93" fill="#8c5246"/><path d="M581.11,318.409l107.33-68s11.413-62.375,49.66-38.449c41.307,25.84,26.385,124.409,19.529,159.665A58.663,58.663,0,0,1,734.648,408c-17.605,12.765-49.7,25.9-107.232,25.786C519.843,433.579,513.677,324.2,581.11,318.409Z" fill="#2979ff"/><path d="M564.252,349.491s12.515,32.958,92.453,12.183a65.746,65.746,0,0,0,28.964-16.136c19.8-18.973,47.284-60.622,21.733-133.574L695.955,222.2l-7.515,28.21-107.33,68Z" fill="#2962ff"/><path d="M607.646,286.847V264.252s-6.926-8.3-7.146-14.343,1.1-15.28,7.8-12.971,8.134,23.305,8.134,23.305.972,18.531,1.32,22.316S607.646,286.847,607.646,286.847Z" fill="#8c5246"/><path d="M636.6,253.225s2.042-80.877,28.593-86.188,34.72,20.016,34.924,25.121,4.7,53.849,3.268,62.053S636.6,253.225,636.6,253.225Z" fill="#312122"/><path d="M640.18,249.909s4.905-10.511,14.014-9.81,34.334-.033,34.334-.033.35,5.989,10.16,9.843l-22.773,85.835s-7.357,15.065-37.837,22.423L597,319.628l22.444-8.949-1.333-24.334Z" fill="#fdbf38"/><path d="M605.93,286.11l13.607-5.573a.752.752,0,0,1,1.012.5l6.867,26.1s-3.842,3.018-21.308,8.858l-.645-29.173A.752.752,0,0,1,605.93,286.11Z" fill="#edb433"/><polygon points="627.416 307.137 632.546 280.481 624.616 275.601 620.783 281.929 627.416 307.137" fill="#d8a235"/><path d="M667.238,236.616a.483.483,0,0,1-.054.136c-.438.747-4.866,8.235-8.267,11.172-3.582,3.093-3.3,9.6,7.143,4.233,10.112-5.2,20.02-9.117,22.274-11.832a.493.493,0,0,0,.046-.542c-.835-1.614-4.955-9.8-5.881-15.916a.5.5,0,0,0-.417-.422l-7.5-1.235a.457.457,0,0,0-.083-.007h-7.727a.514.514,0,0,0-.487.679l1.249,3.7c0,.014.007.02.01.034A22.133,22.133,0,0,1,667.238,236.616Z" fill="#844942"/><path d="M651.609,189.087c.487-3.378,25.877,1.5,25.877,1.5s-.5,7.716.593,6.164,5.884-6.36,6.669-1.258c.9,5.844-4.555,8.141-5.1,10.7s2.854,17.674,2.854,17.674l-9.876,3.512a7.062,7.062,0,0,1-3.783.27c-4.786-.978-16.135-4.8-17.674-19.12A89.628,89.628,0,0,1,651.609,189.087Z" fill="#8b5144"/><rect x="604.297" y="226.778" width="30.32" height="47.271" rx="1.585" ry="1.585" fill="#d3d6e5"/><path d="M648.356,270.593l19.413,3.362a1.574,1.574,0,0,1,1.157,2.384l-6.119,12.813a3.06,3.06,0,0,1-3.083,1.649l-19.413-3.362a1.574,1.574,0,0,1-1.156-2.384l6.118-12.813A3.06,3.06,0,0,1,648.356,270.593Z" fill="#fff" opacity="0.66" style="isolation:isolate"/><path d="M650.493,274.929l19.413,3.362a1.575,1.575,0,0,1,1.157,2.384l-6.119,12.813a3.06,3.06,0,0,1-3.083,1.65l-19.413-3.362a1.575,1.575,0,0,1-1.157-2.384l6.119-12.813A3.06,3.06,0,0,1,650.493,274.929Z" fill="#fff" opacity="0.7" style="isolation:isolate"/><path d="M653.688,316.762l13.838-13.544s5.3,6.624,7.213,6.772,2.261-50.971,23.949-60.081c0,0,19.185,3.816,10.058,25.692s-19.432,53.232-19.432,53.232-7.655,14.574-20.169,4.122S653.688,316.762,653.688,316.762Z" fill="#ffc662"/><path d="M619.632,268.066a18.682,18.682,0,0,0,12.915,15.072,2.28,2.28,0,0,1,1.145.854L655.5,315.611l10.561-10.56-24.3-24.733a1.873,1.873,0,0,1-.533-1.168c-.169-2.1-1.016-8.736-5.156-13.713a.731.731,0,0,0-.728-.244c-.8.191-2.186,1.074-.524,5.063,0,0-5.86-5.952-10.672-6-3.157-.034-4.367,1.354-4.527,3.144A3.054,3.054,0,0,0,619.632,268.066Z" fill="#8c5246"/><path d="M597,319.628l-53.921-21.39s-16.219-5.284-24.225,7.085a12.392,12.392,0,0,0-1.928,6.5l-1.684,88.156h21.91l6.275-67.5,73.015,5.394Z" fill="#33375c"/><path d="M611.349,333.092l-56.1-17.481s-16.354-9.125-26.445,8.741-53.933,79.8-53.933,79.8l20.877,9.047s43.147-32.013,54.282-67.156c0,0,25.419,21.112,88.043,12.122Z" fill="#3e416c"/><path d="M435.978,432.8a18.459,18.459,0,0,1,16.2-8.413,19.462,19.462,0,0,0,14.418-5.666,11.5,11.5,0,0,1,7.7-3.141c6.324-.16,16.328.2,17.771,3.937,2.134,5.527,1.149,15.54-4.432,16.2-4.742.558-36.034,4.79-45.331,6.05a6.1,6.1,0,0,1-6.89-7.064A10.662,10.662,0,0,1,435.978,432.8Z" fill="#cdd8f6"/><path d="M668.2,202.386a5.207,5.207,0,0,0-4.832-4.276c-.348-.029-.376-.581-.022-.552a5.75,5.75,0,0,1,5.4,4.806c.051.35-.5.371-.551.022Z" fill="#573c37"/><path d="M656.088,196.755a3.58,3.58,0,0,0-4.17,1.636c-.13.206-.46.018-.329-.189a3.963,3.963,0,0,1,4.6-1.814c.231.077.135.445-.1.367Z" fill="#573c37"/><path d="M661.675,216.986a4.647,4.647,0,0,1-1.664,1.57,4.77,4.77,0,0,1-4.412-.02c-.25-.112-.03-.477.218-.366a4.218,4.218,0,0,0,5.491-1.4.213.213,0,0,1,.367.217Z" fill="#573c37"/><path d="M209.375,313.026l-73.362-2.048S67.823,182.6,28.518,212.261c-42.45,32.038-16.82,137.791-6,175.472a64.028,64.028,0,0,0,28.457,37.352c20.361,12.2,56.517,23.414,119.058,17.808C286.98,432.409,283.25,312.894,209.375,313.026Z" fill="#2979ff"/><path d="M230.671,345.214s-10.465,37.03-99.366,22.067A71.767,71.767,0,0,1,98.271,352.5C74.933,333.758,34.682,293.243,55.5,211.482l19.817,7.891L86.184,249.33l73.581,72.818Z" fill="#2962ff"/><path d="M118.658,202.752s22.645,13.1,30.105,44.575a2.474,2.474,0,0,1-.65,2.3l-6.884,7s-28.943-39.118-24.038-54.545" fill="#ededed"/><path d="M207.684,203.873l8.467,0a.6.6,0,0,1,.588.713l-6.962,35.756a1.2,1.2,0,0,1-1.808.786l-6.776-4.237a.768.768,0,0,1-.347-.8l6.25-31.738A.6.6,0,0,1,207.684,203.873Z" fill="#505669"/><path d="M157.393,309.1s.4,12.26,16.03,8.975,43.559-5.4,51.078,3.089,11.883,38.926,11.877,50.443,5.118,56.34,5.118,56.34l-14.478.153L177.078,344.3l-36.98-4.546-15.536-22.027Z" fill="#31375c"/><path d="M93.408,323.918s-17.156,44.8,33.174,39.372,55.992,1.185,61.571,14.582S231.989,444.9,231.989,444.9l16.725-3.971-36.868-97.987s-.041-15.916-48.827-16.039-30.561-10.747-30.561-10.747Z" fill="#3e416c"/><path d="M76.235,213.042l38.157-11.228a4.426,4.426,0,0,1,4.993,1.761,246.964,246.964,0,0,1,32.831,73.434l13.12,33.731s-47.753,19.283-68.082,19.182S76.235,213.042,76.235,213.042Z" fill="#fff"/><path d="M72.865,276.181s4.98,38.012,11.37,53.627c1.13,2.76,2.634,19.9,2.634,19.9s.9,17.735,11,18.285c9.3.507,2.405-15.1,1.253-17.581a.07.07,0,0,1,.11-.083c1.041.935,4.8,4.036,5.17.426.5-4.873-9.478-12.576-9.736-17.117-.293-5.152-9.709-62.2-9.709-62.2Z" fill="#fdb483"/><path d="M67.426,223.145a10.405,10.405,0,0,1,1.212-3.693c1.776-3.223,5.888-8.737,12.01-5.425,8.39,4.539,11.117,40.009,8.836,59.569-.567,4.856-3.983,4.538-3.983,4.538l-13.79,2.242S62.7,259.764,67.426,223.145Z" fill="#ededed"/><path id="01ab4c52-60c0-4349-915d-f005758d26a5" data-name="&lt;Clipping Path&gt;" d="M84.7,189.321l.516,21.069s13.639,10.137,22.493-1.973l-3.01-18.152Z" fill="#fdb483"/><g clip-path="url(#ef27d387-a345-413f-ae68-232c1dae207b)"><path d="M112.74,200.254s-21.4,4.442-25.062-8.056S112.74,200.254,112.74,200.254Z" fill="#fdb483" opacity="0.39" style="mix-blend-mode:multiply"/></g><path d="M112.115,143.5s19.937,45.047-1.3,52.878-32.707-13.246-32.707-13.246L75.2,152.1Z" fill="#fdb483"/><path d="M86.826,193.754S51.637,181.712,62.6,158.945c0,0-3.263-16.007,14.737-20.951,0,0,20.56-24.156,21.986-8.306,0,0,17.473-9.615,16.065,6.919,0,0,16.279-1.476,4.005,12.283a41.1,41.1,0,0,1-38.265,9.781s8.56,8.131,5.784,19C86.913,177.668,90.129,187.559,86.826,193.754Z" fill="#804d4c"/><path d="M87.475,177.9c2.18,3.448,1.66,7.689-1.161,9.472s-6.875.434-9.055-3.014-1.659-7.689,1.162-9.473S85.3,174.454,87.475,177.9Z" fill="#fdb483"/><path d="M80.561,157.182c0-.034.026.1.068.163a1.338,1.338,0,0,0,.154.249,3.017,3.017,0,0,0,.452.479,6.809,6.809,0,0,0,1.2.783,11.482,11.482,0,0,0,1.369.582,11.865,11.865,0,0,0,1.44.453,36.34,36.34,0,0,0,6.026,1.039l1.531.151,1.538.088c1.025.069,2.052.112,3.081.121,2.056.071,4.115.015,6.175,0-2.057.1-4.114.245-6.176.26-1.031.035-2.063.035-3.095.009l-1.549-.024-1.548-.087a36.87,36.87,0,0,1-6.174-.8,12.47,12.47,0,0,1-1.523-.411,12.272,12.272,0,0,1-1.5-.564,7.674,7.674,0,0,1-1.417-.851,3.934,3.934,0,0,1-.629-.617,2.3,2.3,0,0,1-.265-.4,1.5,1.5,0,0,1-.193-.559Z" fill="#804d4c"/><path d="M64.328,159.226a4.567,4.567,0,0,1-2.361-.9,5.6,5.6,0,0,1-1.566-1.818,8.655,8.655,0,0,1-.82-2.179l-.2-1.132-.1-1.138.227,1.114.318,1.084a8.2,8.2,0,0,0,1.009,1.973,4.945,4.945,0,0,0,1.553,1.445,3.727,3.727,0,0,0,1.9.516Z" fill="#804d4c"/><path d="M66.129,157.871a7.828,7.828,0,0,1-1.9,1.122,6.986,6.986,0,0,1-2.092.526,5.411,5.411,0,0,1-2.114-.208,6.485,6.485,0,0,1-1.869-.909,6.341,6.341,0,0,0,1.926.656,5.018,5.018,0,0,0,1.981-.053,6.32,6.32,0,0,0,1.825-.71,7.065,7.065,0,0,0,1.518-1.17Z" fill="#804d4c"/><path d="M97.617,170.621a6.561,6.561,0,0,1,5.594-5.9c.434-.075.408-.77-.033-.694a7.246,7.246,0,0,0-6.256,6.627c-.025.445.67.411.7-.033Z" fill="#804d4c"/><path d="M112.2,162.219a4.511,4.511,0,0,1,5.415,1.595c.186.244.579-.028.392-.275a4.994,4.994,0,0,0-5.971-1.77c-.281.123-.12.573.164.45Z" fill="#804d4c"/><path d="M104.724,186.035a7.565,7.565,0,0,0,2.926,2.312,7.783,7.783,0,0,0,7.162-.66c.39-.218-.019-.78-.406-.565-3.045,1.7-6.939,1.486-9.117-1.492a.348.348,0,0,0-.565.405Z" fill="#573c37"/><g id="b8139baf-4212-41e3-8132-669da18a1a48" data-name="Layer 2"><g id="dacf8f67-35d6-4a47-b2af-166427846208" data-name="Layer 1-2"><path d="M98.135,234.669l21.072-5.424a2.335,2.335,0,0,1,2.858,1.732l3.542,14.764a2.43,2.43,0,0,1-1.744,2.916l-21.072,5.423a2.336,2.336,0,0,1-2.858-1.731l-3.541-14.765A2.429,2.429,0,0,1,98.135,234.669Z" fill="#00b1ff" opacity="0.66" style="isolation:isolate"/><path d="M103.366,237.8l21.072-5.423a2.336,2.336,0,0,1,2.858,1.731l3.542,14.765a2.432,2.432,0,0,1-1.744,2.916l-21.072,5.423a2.335,2.335,0,0,1-2.858-1.731l-3.542-14.765A2.432,2.432,0,0,1,103.366,237.8Z" opacity="0.7" fill="url(#0d016e69-3230-4a17-857e-9aad7800d425)" style="isolation:isolate"/></g></g><path d="M334.522,100.283s-13.468-.673-16.161,15.488-11.448,51.849-11.448,51.849l-40.537,5.305,4.175,3.449s35.016,6.06,44.443.674,11.447-38.383,14.141-46.463S334.522,100.283,334.522,100.283Z" fill="#cc8b77"/><path d="M360.06,90.708s10.861.188,10.861-6.969c0,0,11.929-3.976,7.953-11.928,0,0,9.542-8.748,3.181-15.905,0,0,7.157-11.133,0-15.9,0,0-3.181-15.9-11.929-12.724,0,0-1.59-10.338-14.314-4.771,0,0-12.724-9.543-16.7-2.386,0,0-15.905-.8-15.905,7.157,0,0-12.724,4.772-7.952,15.11,0,0-6.362,11.133-.8,16.7,0,0-5.566,10.338,2.386,15.109,0,0-1.59,11.134,6.362,11.929,0,0,9.543,10.338,16.7,4.771C339.907,90.9,356.356,96.882,360.06,90.708Z" fill="#155c8f"/><path id="3c552454-c145-4623-b49d-957dc0e35f2b" data-name="&lt;Clipping Path&gt;" d="M363.322,364.232s-7.341-2.25-10.692,5.865l16.57,18.5s9.1,13.674,7.806,16.438-6.01,9.984.4,4.9,8.551-6.778,7.079-10.832-3.793-9.177-3.793-9.177l9.541,9.843s-8.432-19.423-17.609-15.631" fill="#cc8b77"/><g clip-path="url(#55b113fb-6418-4d89-9b34-5ac60d0e0d46)"><path d="M374.034,381.631l-1.3,2.36s15.192,19.884,3.422,20.326-3.541,13.423-3.541,13.423l16.845-6.874,11.063-13.127-15.458-20.8Z" fill="#4d5ba3"/></g><path id="3faa094f-fc7f-46e9-8607-eb127c36b311" data-name="&lt;Clipping Path&gt;" d="M362.8,373s-4.713-6.061-12.12-1.347l2.923,24.666s-.416,16.419-3.06,17.938-10.657,4.716-2.487,4.243,10.893-.631,12.018-4.8,2.172-9.689,2.172-9.689l2.15,13.538s4.264-20.74-5.425-22.912" fill="#cc8b77"/><g clip-path="url(#41f42655-24ed-42b3-87b9-0259f88338d5)"><path d="M361.568,393.393l-2.419,1.185s1,25-8.883,18.6-10.612,8.949-10.612,8.949l17.735,4.058,16.6-4.384-.694-25.9Z" fill="#4d5ba3"/></g><path d="M377.118,139.531s0,101.553,9.094,103.069,16.673-1.516,21.221,0,10.61,0,10.61,0a40.634,40.634,0,0,0-25.768-6.063l-1.515-54.566s16.673-75.786-4.548-66.692C386.212,115.279,371.055,130.436,377.118,139.531Z" fill="#cc8b77"/><path id="c3b43a16-d813-48fc-b495-54febe9c0416" data-name="&lt;Clipping Path&gt;" d="M372.571,180.319s16.673,13.778,15.157,54.7-16.673,130.352-24.251,148.541c0,0-13.642,1.516-15.158-1.516,0,0-1.515-147.025,1.516-156.119,0,0-28.8-19.7-27.283-37.893S372.571,180.319,372.571,180.319Z" fill="#7799f2"/><g clip-path="url(#5c5f5598-a0a1-421e-81f1-ac797fc20d2e)"><polyline points="346.183 307.272 371.557 369.632 357.416 387.813 344.622 366.265 346.183 307.272" fill="#7799f2" opacity="0.5" style="mix-blend-mode:multiply"/><g opacity="0.5" style="mix-blend-mode:multiply"><path d="M345.632,293.309a.779.779,0,0,0,0-1.557.779.779,0,0,0,0,1.557Z" fill="#7799f2"/></g><g opacity="0.5" style="mix-blend-mode:multiply"><path d="M361.768,185.871c1.835,10.854,7.75,23.46,16.649,30.345,5.7,4.408,15.328,5.007,18.337-2.823.089-.234-.287-.336-.376-.1-1.925,5.011-7.59,6.841-12.464,5.446-4.942-1.414-8.591-5.666-11.5-9.653a55.308,55.308,0,0,1-10.271-23.314c-.042-.247-.417-.142-.376.1Z" fill="#7799f2"/></g><g opacity="0.5" style="mix-blend-mode:multiply"><path d="M361.786,199.4c11.683,0,23.35-.133,34.76-2.917.243-.059.14-.435-.1-.375-11.38,2.777-23.009,2.907-34.656,2.9a.2.2,0,0,0,0,.389Z" fill="#7799f2"/></g><g opacity="0.5" style="mix-blend-mode:multiply"><path d="M317.9,190.641c29.9,5.321,61.665,10.5,90.367-2.571.228-.1.03-.439-.2-.336-28.6,13.03-60.289,7.832-90.067,2.532-.245-.044-.351.331-.1.375Z" fill="#7799f2"/></g><g opacity="0.5" style="mix-blend-mode:multiply"><path d="M379.78,214.1a308.321,308.321,0,0,1-8.238,101.825c-3.983,15.971-8.754,31.748-12.147,47.864-3.4,16.162-3.354,33.529-9.845,48.879-.1.228.239.427.336.2,6.16-14.569,6.249-30.846,9.311-46.187,3.41-17.083,8.508-33.76,12.721-50.649A308.615,308.615,0,0,0,380.169,214.1c-.022-.248-.411-.25-.389,0Z" fill="#7799f2"/></g><g opacity="0.5" style="mix-blend-mode:multiply"><path d="M346.19,378.74A44.79,44.79,0,0,0,366,380.68c4.021-.544,8.6-1.178,9.8-5.6a.2.2,0,0,0-.375-.1c-1.568,5.778-11.441,5.752-15.8,5.693a45.334,45.334,0,0,1-13.331-2.3c-.239-.076-.342.3-.1.375Z" fill="#7799f2"/></g></g><path d="M351.351,221.38c0,1.515-9.1,59.113-10.61,65.176s28.8,84.88,28.8,86.4c0,0-4.547,10.61-12.125,9.094s-48.5-89.427-48.5-101.553,9.542-84.607,13.865-93.838S351.351,221.38,351.351,221.38Z" fill="#7799f2"/><path id="133168da-7ddf-40d0-a05c-4a0dc89c7d9a" data-name="&lt;Clipping Path&gt;" d="M363.477,100.122s-8.754-11.96-4.041-23.407l-16.16,6.06s2.693,14.815-8.6,17.347c-5.333,1.2,3.031,10.61,3.031,10.61h19.7Z" fill="#cc8b77"/><g clip-path="url(#fad7dd5a-520f-4e23-af40-5d1c9b5fe0cd)"><path d="M341,91.266S355.4,94.9,356.743,80.082s-17.508,10.774-17.508,10.774" fill="#cc8b77" opacity="0.35" style="mix-blend-mode:multiply"/></g><path d="M331.1,43.72c0,1.753-7.014,40.328,8.767,45.588s22.794-17.534,22.794-17.534l-10.52-24.547Z" fill="#cc8b77"/><path id="42e51f7e-6a84-418f-ad74-9f4b4beab052" data-name="&lt;Clipping Path&gt;" d="M363.477,100.122s-15.158,10.61-28.8,0a13.764,13.764,0,0,0-8.91,2.855c-5.61,4.007-6.06,18.987-6.06,30.3,0,21.22,2.844,54.756,2.844,54.756s16.683,22.009,50.352-7.62c0,0-7.912-15.116-6.4-19.663s10.61-21.22,10.61-21.22,4.547-24.252,15.157-24.252C392.275,115.279,368.024,104.669,363.477,100.122Z" fill="#2962ff"/><g clip-path="url(#6c7417aa-7b55-4fd8-ac11-080616b7b67a)"><path d="M311.851,196.231a.778.778,0,0,0,0-1.556.778.778,0,0,0,0,1.556Z" fill="#d69644"/><path d="M359.842,159.015l4.26.921c.244.052.348-.323.1-.376l-4.26-.92c-.244-.053-.348.322-.1.375Z" fill="#5288ff"/><path d="M359.937,163.319l1.571-.225c.247-.035.142-.41-.1-.375l-1.571.224c-.247.036-.142.411.1.376Z" fill="#5288ff"/><path d="M330.617,100.654c7.124,4.136,15.348,6.246,23.575,4.888,9.44-1.558,16.658-7.928,23.476-14.178.185-.17-.091-.444-.276-.275-6.373,5.842-13.067,11.877-21.767,13.784-8.576,1.879-17.329-.211-24.812-4.555a.2.2,0,0,0-.2.336Z" fill="#d69644"/><path d="M320.965,186.855a36.863,36.863,0,0,0,12.389,5.389c.244.056.348-.319.1-.376a36.563,36.563,0,0,1-12.3-5.349c-.208-.141-.4.2-.2.336Z" fill="#5288ff"/><path d="M323.472,187.111l4.264,1.122a.2.2,0,0,0,.1-.375l-4.265-1.122a.2.2,0,0,0-.1.375Z" fill="#5288ff"/><path d="M362.979,178.348a58.749,58.749,0,0,0,6.28,1.371c.245.039.35-.336.1-.376a58.8,58.8,0,0,1-6.28-1.37.2.2,0,0,0-.1.375Z" fill="#5288ff"/><path d="M366.109,176.606l5.853,1.266c.244.053.349-.322.1-.375l-5.854-1.266c-.244-.053-.348.322-.1.375Z" fill="#5288ff"/><path d="M376.676,140.73a18.731,18.731,0,0,1-3.642-5.514c-.1-.229-.434-.031-.336.2a18.993,18.993,0,0,0,3.7,5.592c.173.182.448-.094.275-.275Z" fill="#5288ff"/><path d="M373.675,141.64l-1.346-.9c-.209-.139-.4.2-.2.336l1.347.9c.209.139.4-.2.2-.336Z" fill="#5288ff"/></g><path d="M326.441,48.434s4.04,5.387,10.1,0a7.353,7.353,0,0,0,10.1,2.693s2.02,6.734,7.407,4.714c0,0,2.021,16.834,8.081,10.774s-8.081-28.955-8.081-28.955H338.562l-12.121,1.346S323.748,45.067,326.441,48.434Z" fill="#155c8f"/><path d="M351.461,62.754a5.862,5.862,0,0,0-4.582-5.636c-.382-.1-.311-.714.077-.616a6.472,6.472,0,0,1,5.121,6.328c-.007.4-.623.321-.616-.076Z" fill="#155c8f"/><path d="M335.31,55.683a4.03,4.03,0,0,0-4.394,2.475c-.113.25-.51.092-.4-.16a4.464,4.464,0,0,1,4.843-2.74c.269.05.219.475-.052.425Z" fill="#155c8f"/><path d="M345.281,79.025a4.884,4.884,0,0,1-1.454,1.916,5.023,5.023,0,0,1-4.582.742c-.279-.073-.114-.49.163-.418a4.437,4.437,0,0,0,5.456-2.4.224.224,0,0,1,.417.162Z" fill="#573c37"/><path d="M367.011,71.029c-1.022,2.435-3.231,3.828-4.935,3.113s-2.257-3.268-1.236-5.7,3.231-3.828,4.935-3.113S368.032,68.6,367.011,71.029Z" fill="#cc8b77"/><g opacity="0.5" style="mix-blend-mode:multiply"><path d="M341.433,233.23a140.535,140.535,0,0,0,13.253,5.577c.236.085.338-.291.1-.376a139.289,139.289,0,0,1-13.159-5.537c-.225-.109-.423.227-.2.336Z" fill="#7799f2"/></g><g opacity="0.5" style="mix-blend-mode:multiply"><path d="M342.139,229.456q7.937,4.182,16.188,7.691c.228.1.427-.238.2-.336q-8.256-3.512-16.189-7.691c-.221-.117-.418.219-.2.336Z" fill="#7799f2"/></g><g opacity="0.5" style="mix-blend-mode:multiply"><path d="M337.37,196.891c.446,7,1.629,14.323,4.508,20.774,1.649,3.7,4.056,6.669,8.394,6.39.249-.015.251-.405,0-.389-10.208.655-12.063-19.72-12.513-26.775-.015-.249-.405-.25-.389,0Z" fill="#7799f2"/></g><g opacity="0.5" style="mix-blend-mode:multiply"><path d="M320.631,195.375a41.071,41.071,0,0,0,41-1.547c.212-.133.017-.47-.2-.336a40.662,40.662,0,0,1-40.606,1.547c-.222-.116-.419.219-.2.336Z" fill="#7799f2"/></g><g opacity="0.5" style="mix-blend-mode:multiply"><path d="M317.267,217.942c9.249,2.067,14.153-7.29,15.112-14.977.031-.248-.358-.246-.389,0-.927,7.429-5.629,16.612-14.619,14.6-.244-.055-.348.32-.1.375Z" fill="#7799f2"/></g><g opacity="0.5" style="mix-blend-mode:multiply"><path d="M343.052,234.891l-2.3,5.745c-.093.233.283.334.375.1l2.3-5.745c.093-.233-.283-.334-.375-.1Z" fill="#7799f2"/></g><g opacity="0.5" style="mix-blend-mode:multiply"><path d="M338.309,249.2c-2.623,11.336-6.453,23.014-7.917,34.553-.523,4.124,1.612,8.095,3.014,11.879q3.063,8.274,6.4,16.447a550.091,550.091,0,0,0,29.023,60.257c.122.218.459.022.336-.2a549.658,549.658,0,0,1-28.28-58.445q-2.829-6.87-5.47-13.817c-2.1-5.521-5.194-11.432-4.382-17.446,1.494-11.058,5.139-22.253,7.655-33.127.057-.244-.318-.348-.375-.1Z" fill="#7799f2"/></g><g opacity="0.5" style="mix-blend-mode:multiply"><path d="M353.4,379.758a14.313,14.313,0,0,0,15.651-14.166.2.2,0,0,0-.39,0A13.945,13.945,0,0,1,353.4,379.369c-.249-.019-.248.37,0,.389Z" fill="#7799f2"/></g><path d="M246.544,155.686s5.323-2.406,9.762-.962,7.807-2.046,7.807-2.046" fill="none" stroke="#ddd" stroke-linecap="round" stroke-miterlimit="10" stroke-width="0.5"/><path d="M246.87,159.205s5.323-2.406,9.761-.962,7.808-2.046,7.808-2.046" fill="none" stroke="#ddd" stroke-linecap="round" stroke-miterlimit="10" stroke-width="0.5"/><path d="M247.193,162.7s5.324-2.406,9.762-.962,7.808-2.046,7.808-2.046" fill="none" stroke="#ddd" stroke-linecap="round" stroke-miterlimit="10" stroke-width="0.5"/><path d="M247.937,165.712s5.323-2.407,9.762-.963,7.807-2.046,7.807-2.046" fill="none" stroke="#ddd" stroke-linecap="round" stroke-miterlimit="10" stroke-width="0.5"/><path d="M247.937,168.72s5.323-2.407,9.762-.963,7.807-2.045,7.807-2.045" fill="none" stroke="#ddd" stroke-linecap="round" stroke-miterlimit="10" stroke-width="0.5"/><path d="M247.937,171.972s5.323-2.406,9.762-.962,7.807-2.046,7.807-2.046" fill="none" stroke="#ddd" stroke-linecap="round" stroke-miterlimit="10" stroke-width="0.5"/><path d="M248.352,175.224s5.323-2.406,9.761-.962,7.808-2.046,7.808-2.046" fill="none" stroke="#ddd" stroke-linecap="round" stroke-miterlimit="10" stroke-width="0.5"/><path d="M248.7,178.994s5.324-2.407,9.762-.963,7.808-2.046,7.808-2.046" fill="none" stroke="#ddd" stroke-linecap="round" stroke-miterlimit="10" stroke-width="0.5"/><path d="M249.049,182.763s5.323-2.407,9.762-.963,7.807-2.046,7.807-2.046" fill="none" stroke="#ddd" stroke-linecap="round" stroke-miterlimit="10" stroke-width="0.5"/><path d="M271.212,172.292s-7.26-4.613-9.1-1.623,4.272,7.5,7.351,6.733C274.137,176.234,271.212,172.292,271.212,172.292Z" fill="#cc8b77"/><path d="M337.865,121.9l21.372,3.7a1.734,1.734,0,0,1,1.274,2.625l-6.737,14.106a3.369,3.369,0,0,1-3.393,1.816l-21.373-3.7a1.733,1.733,0,0,1-1.273-2.625l6.736-14.106A3.37,3.37,0,0,1,337.865,121.9Z" fill="#fff" opacity="0.66" style="isolation:isolate"/><path d="M340.217,126.673l21.373,3.7A1.733,1.733,0,0,1,362.863,133L356.127,147.1a3.367,3.367,0,0,1-3.394,1.816l-21.372-3.7a1.734,1.734,0,0,1-1.274-2.625l6.736-14.106A3.37,3.37,0,0,1,340.217,126.673Z" fill="#fff" opacity="0.7" style="isolation:isolate"/><path id="837555f1-e9d4-4b95-9a43-a36e16f4d9bc" data-name="&lt;Clipping Path&gt;" d="M42.353,334.99l-5.982,3.765,4.261-7.714c-4.978-10.693-10.014-15.779-10.014-15.779a132.289,132.289,0,0,0-9.289,60.664l9.473,5.383-9.018-.654c3.1,27.237,13.235,45.337,13.235,45.337l8.476.614C55.366,382.631,49.563,352.663,42.353,334.99Z" fill="#4dc6cc"/><g clip-path="url(#047c9b22-57dc-4f3d-9e9d-4f34fc7af5e7)"><path d="M31.377,333.752q1.539,40.729,6.926,81.188,1.538,11.508,3.388,22.971c.054.337.575.234.521-.1q-6.447-40.035-9.1-80.553-.764-11.722-1.2-23.463c-.013-.338-.542-.38-.529-.039Z" fill="#b0e7ed"/><path d="M33.26,360.319a121.014,121.014,0,0,1,9.962-10.58c.248-.235-.1-.637-.348-.4a122.242,122.242,0,0,0-10.052,10.681c-.219.263.221.561.438.3Z" fill="#b0e7ed"/><path d="M37.483,401.889q4.638-6.543,8.987-13.28c.185-.287-.253-.588-.438-.3q-4.35,6.736-8.987,13.279c-.2.279.24.579.438.3Z" fill="#b0e7ed"/><path d="M34.85,377.1a101.041,101.041,0,0,1,7.4-8.962c.231-.248-.114-.652-.347-.4a102.141,102.141,0,0,0-7.493,9.064c-.2.276.236.576.438.3Z" fill="#b0e7ed"/><path d="M32.356,347.1,24.845,343c-.3-.163-.6.274-.3.438l7.512,4.1c.3.163.6-.274.3-.438Z" fill="#b0e7ed"/><path d="M33.8,370.718,25,365.686c-.3-.169-.6.268-.3.438l8.8,5.032c.3.169.6-.268.3-.438Z" fill="#b0e7ed"/><path d="M39.024,416.493a44.384,44.384,0,0,0-7.6-3.471.266.266,0,0,0-.177.5,43.621,43.621,0,0,1,7.479,3.408c.3.169.6-.268.3-.438Z" fill="#b0e7ed"/><path d="M36.027,393.779a96.894,96.894,0,0,1-13.724-6.5c-.3-.17-.6.268-.3.438a97.562,97.562,0,0,0,13.847,6.56.266.266,0,0,0,.178-.5Z" fill="#b0e7ed"/></g><path id="ba4235e9-703b-4811-bcdd-a3a96b32f8ac" data-name="&lt;Clipping Path&gt;" d="M15.067,358.748l-3.62,4.715,1.11-7.327c-7.046-6.981-12.5-9.522-12.5-9.522a111.255,111.255,0,0,0,10.376,50.553l9.042,1.481-7.3,2.116c10.392,20.576,23.668,31.892,23.668,31.892l6.864-1.989C39.232,392.523,25.91,370.582,15.067,358.748Z" fill="#44baba"/><g clip-path="url(#18e028fc-8d95-4d91-817c-bf44fde2f5dd)"><path d="M6.049,360.975q13.1,31.671,29.154,62.007,4.57,8.628,9.375,17.127c.141.25.522.017.381-.234Q28.192,410.184,14.273,379q-4.023-9.023-7.795-18.154c-.109-.262-.539-.141-.429.125Z" fill="#b0e7ed"/><path d="M15.287,381.376a102.083,102.083,0,0,1,4.768-11.25c.128-.257-.263-.474-.391-.216a102.767,102.767,0,0,0-4.81,11.357c-.1.272.338.378.433.109Z" fill="#b0e7ed"/><path d="M30.748,412.928q1.747-6.512,3.212-13.095c.062-.281-.371-.39-.433-.109q-1.464,6.582-3.213,13.1a.224.224,0,0,0,.434.109Z" fill="#b0e7ed"/><path d="M21.437,394.146a84.978,84.978,0,0,1,3.223-9.228c.109-.263-.281-.481-.392-.216A85.964,85.964,0,0,0,21,394.037c-.079.277.354.385.433.109Z" fill="#b0e7ed"/><path d="M10.715,371.213,3.6,370.172c-.283-.041-.394.392-.109.433l7.119,1.041c.283.042.394-.391.109-.433Z" fill="#b0e7ed"/><path d="M18.746,389.421l-8.409-1.4c-.283-.047-.393.386-.11.434l8.41,1.4c.282.047.393-.386.109-.433Z" fill="#b0e7ed"/><path d="M36.225,424a37.4,37.4,0,0,0-7.009-.518.223.223,0,0,0,.006.446,36.771,36.771,0,0,1,6.894.5c.282.048.392-.385.109-.433Z" fill="#b0e7ed"/><path d="M27.233,406.957a81.3,81.3,0,0,1-12.72-1.119c-.282-.048-.393.385-.109.433A82.163,82.163,0,0,0,27.239,407.4a.224.224,0,0,0-.006-.447Z" fill="#b0e7ed"/></g><path id="9fbdd359-6474-44bb-a0e2-bbe939a83127" data-name="&lt;Clipping Path&gt;" d="M71.826,360.861l-5.923.511,6.156-4.126c.395-9.911-1.412-15.652-1.412-15.652a111.256,111.256,0,0,0-30.3,41.776l5.01,7.672-6.491-3.961c-8.169,21.555-7.558,38.989-7.558,38.989l6.1,3.723C63.213,401.487,70.412,376.848,71.826,360.861Z" fill="#4dc6cc"/><g clip-path="url(#68983089-0919-448a-b52c-f5ebf3661630)"><path d="M64.1,355.709q-14.529,31.042-26.078,63.363-3.28,9.2-6.31,18.478c-.089.273.341.4.43.123q10.593-32.412,24.205-63.727,3.942-9.057,8.134-18c.121-.258-.259-.493-.381-.233Z" fill="#b0e7ed"/><path d="M55.277,376.3a101.882,101.882,0,0,1,11.52-4.075c.276-.08.172-.514-.105-.434A102.861,102.861,0,0,0,55.065,375.9c-.265.112-.051.5.212.394Z" fill="#b0e7ed"/><path d="M42.43,409q5.985-3.105,11.831-6.468c.249-.143.038-.537-.212-.393q-5.844,3.363-11.831,6.468a.223.223,0,0,0,.212.393Z" fill="#b0e7ed"/><path d="M50.005,389.452a85,85,0,0,1,8.985-3.85c.268-.1.165-.532-.105-.434a85.878,85.878,0,0,0-9.091,3.891c-.258.129-.046.521.211.393Z" fill="#b0e7ed"/><path d="M59.691,366.063l-4.037-5.956c-.161-.236-.555-.026-.394.212q2.019,2.977,4.037,5.956c.161.236.555.026.394-.212Z" fill="#b0e7ed"/><path d="M51.676,384.278l-4.643-7.151c-.156-.24-.55-.029-.393.212l4.642,7.151c.156.24.55.029.394-.212Z" fill="#b0e7ed"/><path d="M37.96,420.511a37.31,37.31,0,0,0-4.348-5.522c-.2-.208-.524.1-.325.306a36.714,36.714,0,0,1,4.28,5.428c.155.24.549.029.393-.212Z" fill="#b0e7ed"/><path d="M44.464,402.376a81.272,81.272,0,0,1-7.759-10.142c-.156-.24-.55-.029-.393.212a82.207,82.207,0,0,0,7.826,10.236c.193.214.518-.092.326-.306Z" fill="#b0e7ed"/></g><rect id="d6fdf527-1783-43fb-b73a-0282e0dfc318" data-name="&lt;Rectangle&gt;" x="17.159" y="422.227" width="36.905" height="30.392" rx="1.915" ry="1.915" fill="#b3b7d4"/><g clip-path="url(#9144ac2e-0d24-4e9a-a1b7-d7f9888e00d9)"><rect x="30.495" y="422.227" width="36.905" height="30.392" rx="1.915" ry="1.915" fill="#edf1f6" opacity="0.37"/></g><path id="526bf43d-b721-4f9c-84e7-e08ce03db357" data-name="&lt;Clipping Path&gt;" d="M753.562,330.7l-5.983,3.765,4.262-7.714c-4.979-10.693-10.015-15.78-10.015-15.78a132.316,132.316,0,0,0-9.289,60.664l9.473,5.383-9.018-.654c3.1,27.237,13.235,45.337,13.235,45.337l8.476.614C766.574,378.34,760.771,348.371,753.562,330.7Z" fill="#4dc6cc"/><g clip-path="url(#01981147-1b12-4a24-9eab-09639f5c2270)"><path d="M742.585,329.461q1.54,40.729,6.926,81.188,1.537,11.506,3.388,22.97c.055.337.576.234.521-.1q-6.447-40.033-9.1-80.552-.764-11.724-1.2-23.464c-.013-.338-.543-.38-.53-.038Z" fill="#b0e7ed"/><path d="M744.469,356.027a121.153,121.153,0,0,1,9.961-10.58c.248-.234-.1-.637-.348-.4a122.221,122.221,0,0,0-10.051,10.681c-.22.263.22.561.438.3Z" fill="#b0e7ed"/><path d="M748.691,397.6q4.638-6.541,8.987-13.279c.186-.288-.252-.589-.438-.3q-4.349,6.736-8.987,13.279a.266.266,0,0,0,.438.3Z" fill="#b0e7ed"/><path d="M746.058,372.807a101.066,101.066,0,0,1,7.4-8.963c.23-.248-.115-.652-.348-.4a102.127,102.127,0,0,0-7.493,9.063c-.2.277.236.576.438.3Z" fill="#b0e7ed"/><path d="M743.564,342.805l-7.511-4.1c-.3-.162-.6.274-.3.438l7.511,4.1c.3.163.6-.274.3-.438Z" fill="#b0e7ed"/><path d="M745.007,366.427l-8.8-5.033c-.3-.169-.6.268-.3.438l8.8,5.033c.295.169.6-.268.3-.438Z" fill="#b0e7ed"/><path d="M750.232,412.2a44.486,44.486,0,0,0-7.6-3.471.266.266,0,0,0-.178.5,43.666,43.666,0,0,1,7.48,3.408c.295.17.6-.267.3-.438Z" fill="#b0e7ed"/><path d="M747.235,389.487a96.675,96.675,0,0,1-13.724-6.5c-.295-.169-.6.268-.3.438a97.677,97.677,0,0,0,13.847,6.561.266.266,0,0,0,.177-.5Z" fill="#b0e7ed"/></g><path id="5f65952e-cf75-4973-9e48-03014127390c" data-name="&lt;Clipping Path&gt;" d="M726.275,354.456l-3.619,4.715,1.11-7.327c-7.047-6.98-12.5-9.522-12.5-9.522a111.255,111.255,0,0,0,10.377,50.553l9.042,1.481-7.3,2.116c10.391,20.576,23.667,31.893,23.667,31.893l6.864-1.989C750.44,388.231,737.118,366.29,726.275,354.456Z" fill="#44baba"/><g clip-path="url(#3aba6071-aa6b-4c13-b6f5-14066cb813bc)"><path d="M717.257,356.683q13.1,31.673,29.154,62.008,4.571,8.627,9.375,17.127c.142.25.523.016.381-.234q-16.767-29.693-30.686-60.872-4.023-9.022-7.795-18.153c-.108-.263-.539-.142-.429.124Z" fill="#b0e7ed"/><path d="M726.5,377.085a101.832,101.832,0,0,1,4.769-11.251c.127-.257-.263-.474-.392-.215a102.8,102.8,0,0,0-4.81,11.357c-.1.271.338.377.433.109Z" fill="#b0e7ed"/><path d="M741.956,408.637q1.749-6.513,3.212-13.1a.223.223,0,0,0-.433-.109q-1.462,6.582-3.212,13.095a.224.224,0,0,0,.433.11Z" fill="#b0e7ed"/><path d="M732.646,389.854a84.759,84.759,0,0,1,3.222-9.228c.109-.263-.281-.481-.391-.215a85.735,85.735,0,0,0-3.264,9.334c-.08.277.354.385.433.109Z" fill="#b0e7ed"/><path d="M721.924,366.921l-7.12-1.041c-.282-.041-.393.392-.109.434l7.12,1.041c.282.041.393-.392.109-.434Z" fill="#b0e7ed"/><path d="M729.955,385.129l-8.41-1.4c-.282-.047-.393.386-.109.433l8.409,1.4c.283.047.393-.386.11-.434Z" fill="#b0e7ed"/><path d="M747.433,419.705a37.309,37.309,0,0,0-7.009-.519.224.224,0,0,0,.006.447,36.688,36.688,0,0,1,6.894.5c.282.047.393-.386.109-.433Z" fill="#b0e7ed"/><path d="M738.441,402.666a81.436,81.436,0,0,1-12.72-1.12c-.282-.047-.392.386-.109.433a82.285,82.285,0,0,0,12.835,1.134.224.224,0,0,0-.006-.447Z" fill="#b0e7ed"/></g><path id="8109fe46-913e-4a14-bc68-66218dc3cfc5" data-name="&lt;Clipping Path&gt;" d="M783.034,356.569l-5.922.511,6.156-4.126c.394-9.91-1.413-15.652-1.413-15.652a111.255,111.255,0,0,0-30.3,41.777l5.009,7.671-6.49-3.96c-8.169,21.554-7.559,38.989-7.559,38.989l6.1,3.722C774.421,397.2,781.62,372.557,783.034,356.569Z" fill="#4dc6cc"/><g clip-path="url(#51b724dc-7426-49e4-9db9-24b1ebfc744e)"><path d="M775.3,351.418q-14.527,31.043-26.077,63.363-3.28,9.195-6.31,18.477c-.09.273.34.4.429.123q10.593-32.412,24.205-63.726,3.942-9.058,8.135-18c.12-.257-.26-.493-.382-.232Z" fill="#b0e7ed"/><path d="M766.485,372a101.951,101.951,0,0,1,11.52-4.075c.276-.079.172-.514-.105-.434a102.936,102.936,0,0,0-11.627,4.116c-.265.112-.051.5.212.393Z" fill="#b0e7ed"/><path d="M753.638,404.707q5.986-3.1,11.831-6.467c.25-.144.038-.537-.211-.394q-5.846,3.363-11.831,6.468a.223.223,0,0,0,.211.393Z" fill="#b0e7ed"/><path d="M761.214,385.161a84.905,84.905,0,0,1,8.984-3.851c.268-.1.165-.532-.105-.434A85.878,85.878,0,0,0,761,384.767c-.258.129-.045.522.212.394Z" fill="#b0e7ed"/><path d="M770.9,361.771l-4.037-5.956c-.16-.236-.555-.026-.393.212l4.037,5.956c.16.236.554.026.393-.212Z" fill="#b0e7ed"/><path d="M762.884,379.986l-4.642-7.15c-.156-.241-.55-.03-.394.211q2.322,3.576,4.643,7.151c.155.24.55.03.393-.212Z" fill="#b0e7ed"/><path d="M749.168,416.219a37.422,37.422,0,0,0-4.347-5.522c-.2-.208-.524.1-.326.306a36.818,36.818,0,0,1,4.28,5.428c.155.24.549.03.393-.212Z" fill="#b0e7ed"/><path d="M755.672,398.084a81.454,81.454,0,0,1-7.759-10.141c-.155-.241-.549-.03-.393.211a82.133,82.133,0,0,0,7.826,10.236c.193.214.518-.092.326-.306Z" fill="#b0e7ed"/></g><rect id="c097ad4b-ff60-41ce-bb16-bd248582f2b7" data-name="&lt;Rectangle&gt;" x="728.368" y="417.936" width="36.905" height="30.392" rx="1.915" ry="1.915" fill="#b3b7d4"/><g clip-path="url(#b721a6fd-4f2d-4d2d-aaea-f65473322d8b)"><rect x="741.703" y="417.936" width="36.905" height="30.392" rx="1.915" ry="1.915" fill="#edf1f6" opacity="0.37"/></g></g></g></g></svg>