<svg xmlns="http://www.w3.org/2000/svg" xmlns:xlink="http://www.w3.org/1999/xlink" viewBox="0 0 864.6 821.9"><defs><style>.cls-1,.cls-6{fill:#fdb483;}.cls-2,.cls-22,.cls-23,.cls-24,.cls-25,.cls-26{isolation:isolate;}.cls-3{fill:#5a9e52;}.cls-4{fill:#94c234;}.cls-5{clip-path:url(#clip-path);}.cls-6{opacity:0.39;mix-blend-mode:multiply;}.cls-7{fill:#804d4c;}.cls-8{fill:#573c37;}.cls-9{fill:#7ba1ff;}.cls-10{fill:#6b2828;}.cls-11{fill:#2c58ff;}.cls-12{fill:#efefef;}.cls-13{fill:#557ed6;}.cls-14{fill:#131313;}.cls-15{fill:#00345b;}.cls-16{fill:#cacaca;}.cls-17{fill:#2e77a3;}.cls-18{fill:#5a4945;}.cls-19{fill:#303030;}.cls-20{fill:#3f2e26;}.cls-21{fill:#e8e8e8;}.cls-22{fill:#00b1ff;}.cls-22,.cls-25{opacity:0.66;}.cls-23,.cls-24,.cls-26{opacity:0.7;}.cls-23{fill:url(#linear-gradient);}.cls-24{fill:url(#linear-gradient-2);}.cls-25,.cls-26{fill:#fff;}</style><clipPath id="clip-path" transform="translate(-86.7 -129.7)"><path id="_Clipping_Path_" data-name="&lt;Clipping Path&gt;" class="cls-1" d="M597.6,365.4l2,32.9s-19.8,17.7-35.3,0l2.2-28.7Z"/></clipPath><linearGradient id="linear-gradient" x1="577.02" y1="526.34" x2="613.16" y2="490.2" gradientTransform="matrix(0.98, 0.16, 0.18, -0.99, -82.51, 898.98)" gradientUnits="userSpaceOnUse"><stop offset="0" stop-color="#007cff"/><stop offset="1" stop-color="#002aff"/></linearGradient><linearGradient id="linear-gradient-2" x1="349.35" y1="562.72" x2="394.49" y2="517.59" gradientTransform="matrix(1, -0.03, 0.09, -1, -48.96, 1014.53)" xlink:href="#linear-gradient"/></defs><title>affiliates</title><g class="cls-2"><g id="Layer_1" data-name="Layer 1"><path class="cls-3" d="M586.7,206.1s10,34.7,39.9,43.5l16.9-19s-31.1-15.5-33.1-39.5Z" transform="translate(-86.7 -129.7)"/><path class="cls-4" d="M621.8,222.8a8.7,8.7,0,1,1-8.7-8.6A8.7,8.7,0,0,1,621.8,222.8Z" transform="translate(-86.7 -129.7)"/><path class="cls-4" d="M595.3,210.5c0,1.4-.9,2.6-2,2.6s-2-1.2-2-2.6.9-2.6,2-2.6S595.3,209,595.3,210.5Z" transform="translate(-86.7 -129.7)"/><path class="cls-4" d="M625.3,241.6a2,2,0,1,1-1.8,3.5,2.2,2.2,0,0,1-1.4-2.9C622.6,241.2,624,240.9,625.3,241.6Z" transform="translate(-86.7 -129.7)"/><path class="cls-4" d="M637.5,228.8c1,.5,1.5,1.6,1.1,2.3a1.9,1.9,0,0,1-2.6.5c-1-.5-1.5-1.6-1.1-2.3A1.9,1.9,0,0,1,637.5,228.8Z" transform="translate(-86.7 -129.7)"/><path class="cls-4" d="M610,200.1c0,1.1-.7,2.1-1.6,2.1s-1.6-1-1.6-2.1a1.9,1.9,0,0,1,1.6-2.1C609.3,198,610,198.9,610,200.1Z" transform="translate(-86.7 -129.7)"/><path class="cls-3" d="M516.3,130.3s-35.7-5.5-56.2,18.1l10.2,23.3s27.1-21.8,49.7-13.6Z" transform="translate(-86.7 -129.7)"/><path class="cls-4" d="M486.4,155.2a8.7,8.7,0,1,1,11.5-4.3A8.7,8.7,0,0,1,486.4,155.2Z" transform="translate(-86.7 -129.7)"/><path class="cls-4" d="M508.7,136.2c-1.3-.6-2-1.9-1.5-2.9a2.4,2.4,0,0,1,3.2-.7c1.3.6,2,1.9,1.5,2.9S510,136.8,508.7,136.2Z" transform="translate(-86.7 -129.7)"/><path class="cls-4" d="M467.9,150.5a2.3,2.3,0,0,1-3.3,0,2.4,2.4,0,0,1,.8-3.1c1.2-.9,2.6-.9,3.3-.1S469,149.6,467.9,150.5Z" transform="translate(-86.7 -129.7)"/><path class="cls-4" d="M474.4,166.9a1.9,1.9,0,0,1-2.6,0,1.9,1.9,0,0,1,.7-2.5,1.9,1.9,0,0,1,2.6,0A1.9,1.9,0,0,1,474.4,166.9Z" transform="translate(-86.7 -129.7)"/><path class="cls-4" d="M512,154c-1.1-.5-1.6-1.5-1.2-2.3a1.8,1.8,0,0,1,2.5-.6c1.1.5,1.6,1.5,1.2,2.3A1.8,1.8,0,0,1,512,154Z" transform="translate(-86.7 -129.7)"/><path class="cls-3" d="M360.7,228.4s-35.7-5.5-56.2,18l10.2,23.3s27.1-21.7,49.7-13.5Z" transform="translate(-86.7 -129.7)"/><path class="cls-4" d="M330.8,253.2a8.7,8.7,0,0,1-4.3-11.5,8.8,8.8,0,0,1,11.6-4.2,8.7,8.7,0,1,1-7.3,15.7Z" transform="translate(-86.7 -129.7)"/><path class="cls-4" d="M353.1,234.3c-1.3-.6-2-1.9-1.5-2.9a2.4,2.4,0,0,1,3.2-.7c1.3.6,2,1.9,1.5,2.9A2.4,2.4,0,0,1,353.1,234.3Z" transform="translate(-86.7 -129.7)"/><path class="cls-4" d="M312.3,248.6a2.3,2.3,0,0,1-3.3,0c-.7-.8-.3-2.3.8-3.2a2.5,2.5,0,0,1,3.3,0C313.8,246.3,313.4,247.7,312.3,248.6Z" transform="translate(-86.7 -129.7)"/><path class="cls-4" d="M318.8,265a1.9,1.9,0,0,1-2.6,0,1.9,1.9,0,0,1,.7-2.5,1.9,1.9,0,0,1,2.6,0A1.9,1.9,0,0,1,318.8,265Z" transform="translate(-86.7 -129.7)"/><path class="cls-4" d="M356.4,252.1a1.9,1.9,0,0,1-1.2-2.4c.3-.8,1.5-1,2.5-.5a1.8,1.8,0,0,1,1.2,2.3C358.6,252.3,357.4,252.5,356.4,252.1Z" transform="translate(-86.7 -129.7)"/><path class="cls-3" d="M619.5,396.7s35.1,8.5,57.5-13.2l-8.1-24.1s-28.9,19.4-50.7,9.3Z" transform="translate(-86.7 -129.7)"/><path class="cls-4" d="M651.4,374.5a8.7,8.7,0,0,1-8.6,15.1,8.7,8.7,0,1,1,8.6-15.1Z" transform="translate(-86.7 -129.7)"/><path class="cls-4" d="M627.5,391.4a2.4,2.4,0,0,1,1.3,3.1,2.5,2.5,0,0,1-3.3.4c-1.2-.7-1.8-2.1-1.2-3S626.3,390.7,627.5,391.4Z" transform="translate(-86.7 -129.7)"/><path class="cls-4" d="M669.4,380.7c1.2-.8,2.7-.7,3.3.3s.1,2.3-1.1,3.1-2.7.6-3.3-.3S668.2,381.5,669.4,380.7Z" transform="translate(-86.7 -129.7)"/><path class="cls-4" d="M664.3,363.8a1.9,1.9,0,0,1,2.6.2c.5.7.1,1.8-.9,2.5a1.8,1.8,0,0,1-2.5-.2A1.9,1.9,0,0,1,664.3,363.8Z" transform="translate(-86.7 -129.7)"/><path class="cls-4" d="M625.8,373.5a1.9,1.9,0,0,1,1,2.4c-.4.8-1.6.9-2.6.4a2,2,0,0,1-1-2.5A1.9,1.9,0,0,1,625.8,373.5Z" transform="translate(-86.7 -129.7)"/><path class="cls-3" d="M705.6,520s35.1-8.5,45.1-38l-18.2-17.7s-16.9,30.4-40.8,31.4Z" transform="translate(-86.7 -129.7)"/><circle class="cls-4" cx="723.4" cy="494.3" r="8.7" transform="translate(-229.9 493.2) rotate(-42.8)"/><path class="cls-4" d="M710.3,511.6c1.5.1,2.6,1,2.5,2.1a2.2,2.2,0,0,1-2.6,1.9c-1.5,0-2.6-1-2.5-2.1S708.9,511.6,710.3,511.6Z" transform="translate(-86.7 -129.7)"/><path class="cls-4" d="M742.7,483c.7-1.3,2.1-1.9,3-1.3s1.2,2,.5,3.2a2.4,2.4,0,0,1-3,1.3C742.2,485.7,742,484.2,742.7,483Z" transform="translate(-86.7 -129.7)"/><path class="cls-4" d="M730.4,470.2c.6-.9,1.7-1.4,2.4-1a1.8,1.8,0,0,1,.4,2.6c-.6,1-1.6,1.5-2.4,1S729.9,471.2,730.4,470.2Z" transform="translate(-86.7 -129.7)"/><ellipse class="cls-4" cx="700.5" cy="498" rx="1.6" ry="2.1" transform="translate(86.4 1047) rotate(-87.6)"/><path class="cls-3" d="M625,581.8s-20.7-29.6-51.8-28.2L563.3,577s34.4,4.6,44,26.6Z" transform="translate(-86.7 -129.7)"/><path class="cls-4" d="M586.3,577.3a8.7,8.7,0,1,1,11.1,5.4A8.7,8.7,0,0,1,586.3,577.3Z" transform="translate(-86.7 -129.7)"/><path class="cls-4" d="M615.4,580.4a2.1,2.1,0,1,1,3.8-1.3c.5,1.4,0,2.8-1,3.1S615.9,581.8,615.4,580.4Z" transform="translate(-86.7 -129.7)"/><path class="cls-4" d="M577,560.7c-1.5-.2-2.5-1.3-2.3-2.4s1.4-1.8,2.8-1.6,2.5,1.3,2.3,2.4S578.4,560.9,577,560.7Z" transform="translate(-86.7 -129.7)"/><path class="cls-4" d="M569.6,576.7c-1.1-.1-2-1-1.8-1.8a1.8,1.8,0,0,1,2.2-1.3c1.2.2,2,1,1.8,1.9A1.8,1.8,0,0,1,569.6,576.7Z" transform="translate(-86.7 -129.7)"/><path class="cls-4" d="M604.8,595c-.3-1.1,0-2.2.9-2.5a2.2,2.2,0,0,1,1.3,4A2,2,0,0,1,604.8,595Z" transform="translate(-86.7 -129.7)"/><path class="cls-3" d="M352.8,500.3S332.2,470.7,301,472l-9.9,23.4s34.5,4.7,44.1,26.7Z" transform="translate(-86.7 -129.7)"/><path class="cls-4" d="M314.2,495.8a8.7,8.7,0,1,1,11,5.4A8.6,8.6,0,0,1,314.2,495.8Z" transform="translate(-86.7 -129.7)"/><path class="cls-4" d="M343.3,498.9a2.4,2.4,0,0,1,1-3.1,2.5,2.5,0,0,1,2.8,1.8c.4,1.4-.1,2.8-1.1,3.1S343.7,500.3,343.3,498.9Z" transform="translate(-86.7 -129.7)"/><path class="cls-4" d="M304.8,479.2a2.5,2.5,0,0,1-2.3-2.4,2.4,2.4,0,0,1,2.9-1.6,2.5,2.5,0,0,1,2.3,2.4A2.4,2.4,0,0,1,304.8,479.2Z" transform="translate(-86.7 -129.7)"/><path class="cls-4" d="M297.4,495.2a1.9,1.9,0,0,1-1.8-1.9c.1-.8,1.2-1.4,2.3-1.2a1.8,1.8,0,0,1,1.8,1.8A1.9,1.9,0,0,1,297.4,495.2Z" transform="translate(-86.7 -129.7)"/><path class="cls-4" d="M332.7,513.5a1.9,1.9,0,0,1,.8-2.5c.8-.3,1.8.4,2.2,1.5s0,2.2-.9,2.4A1.7,1.7,0,0,1,332.7,513.5Z" transform="translate(-86.7 -129.7)"/><path class="cls-3" d="M337.3,684.4s35.7-5.1,48.5-33.6l-16.5-19.3s-19.6,28.7-43.6,27.4Z" transform="translate(-86.7 -129.7)"/><circle class="cls-4" cx="357.5" cy="660.5" r="8.7" transform="translate(-432 266.1) rotate(-40.9)"/><path class="cls-4" d="M342.8,676.5c1.4.2,2.5,1.3,2.3,2.4s-1.4,1.8-2.8,1.6-2.5-1.2-2.3-2.3A2.3,2.3,0,0,1,342.8,676.5Z" transform="translate(-86.7 -129.7)"/><path class="cls-4" d="M377.7,651c.9-1.2,2.3-1.6,3.2-1s.9,2.1.1,3.3a2.3,2.3,0,0,1-3.1,1A2.4,2.4,0,0,1,377.7,651Z" transform="translate(-86.7 -129.7)"/><path class="cls-4" d="M366.7,637.2c.7-.9,1.8-1.3,2.5-.8a2.2,2.2,0,0,1-2.4,3.4A2,2,0,0,1,366.7,637.2Z" transform="translate(-86.7 -129.7)"/><path class="cls-4" d="M334.5,660.5c1.2.2,2,1,1.9,1.9s-1.2,1.4-2.3,1.3a1.9,1.9,0,0,1-1.8-1.9C332.4,660.9,333.4,660.4,334.5,660.5Z" transform="translate(-86.7 -129.7)"/><path class="cls-3" d="M263.7,404.5s35.8-5.2,48.5-33.6l-16.5-19.4s-19.6,28.7-43.6,27.4Z" transform="translate(-86.7 -129.7)"/><path class="cls-4" d="M285.1,372a8.6,8.6,0,0,1,7.4,9.7,8.7,8.7,0,1,1-17.2-2.3A8.6,8.6,0,0,1,285.1,372Z" transform="translate(-86.7 -129.7)"/><path class="cls-4" d="M269.2,396.6c1.5.2,2.5,1.2,2.3,2.3s-1.4,1.8-2.8,1.6-2.5-1.2-2.3-2.3S267.8,396.4,269.2,396.6Z" transform="translate(-86.7 -129.7)"/><path class="cls-4" d="M304.2,371c.8-1.1,2.2-1.6,3.1-.9s.9,2.1.1,3.2a2.3,2.3,0,0,1-3.1,1C303.4,373.7,303.3,372.2,304.2,371Z" transform="translate(-86.7 -129.7)"/><path class="cls-4" d="M293.1,357.2a1.9,1.9,0,0,1,2.5-.7,1.8,1.8,0,0,1,.1,2.6,1.9,1.9,0,0,1-2.5.7C292.5,359.3,292.5,358.2,293.1,357.2Z" transform="translate(-86.7 -129.7)"/><path class="cls-4" d="M261,380.5a1.9,1.9,0,0,1,1.8,1.9,1.8,1.8,0,0,1-2.3,1.3,1.9,1.9,0,0,1-1.8-1.9C258.8,381,259.8,380.4,261,380.5Z" transform="translate(-86.7 -129.7)"/><path class="cls-3" d="M489.6,505.1s35.8-5.2,48.5-33.6l-16.4-19.4S502,480.8,478,479.5Z" transform="translate(-86.7 -129.7)"/><path class="cls-4" d="M511,472.6a8.6,8.6,0,0,1,7.4,9.8,8.7,8.7,0,0,1-9.7,7.4,8.7,8.7,0,1,1,2.3-17.2Z" transform="translate(-86.7 -129.7)"/><path class="cls-4" d="M495.2,497.2a2.4,2.4,0,0,1,2.3,2.3,2.4,2.4,0,0,1-2.9,1.6,2.4,2.4,0,0,1-2.3-2.3C492.5,497.7,493.7,497,495.2,497.2Z" transform="translate(-86.7 -129.7)"/><path class="cls-4" d="M530.1,471.7a2.3,2.3,0,0,1,3.1-1c.9.6,1,2.1.1,3.3s-2.2,1.6-3.1.9S529.3,472.8,530.1,471.7Z" transform="translate(-86.7 -129.7)"/><path class="cls-4" d="M519,457.9a1.6,1.6,0,1,1,2.6,1.8,1.8,1.8,0,0,1-2.4.8A1.8,1.8,0,0,1,519,457.9Z" transform="translate(-86.7 -129.7)"/><path class="cls-4" d="M486.9,481.2a1.8,1.8,0,0,1,1.8,1.8,1.8,1.8,0,0,1-2.2,1.3,1.6,1.6,0,1,1,.4-3.1Z" transform="translate(-86.7 -129.7)"/><path class="cls-3" d="M650.5,702.9s35.8-5.2,48.5-33.6l-16.4-19.4s-19.7,28.7-43.6,27.4Z" transform="translate(-86.7 -129.7)"/><circle class="cls-4" cx="670.7" cy="679" r="8.7" transform="translate(-361.1 416.5) rotate(-37.4)"/><path class="cls-4" d="M656.1,695a2.4,2.4,0,0,1,2.3,2.3,2.4,2.4,0,0,1-2.9,1.6,2.4,2.4,0,0,1-2.3-2.3C653.4,695.5,654.6,694.8,656.1,695Z" transform="translate(-86.7 -129.7)"/><path class="cls-4" d="M691,669.5c.8-1.2,2.2-1.7,3.1-1a2.2,2.2,0,0,1,.1,3.2c-.8,1.2-2.2,1.7-3.1,1S690.2,670.6,691,669.5Z" transform="translate(-86.7 -129.7)"/><path class="cls-4" d="M680,655.7a1.7,1.7,0,0,1,2.4-.8,1.8,1.8,0,0,1,.1,2.6,1.8,1.8,0,0,1-2.4.8A1.8,1.8,0,0,1,680,655.7Z" transform="translate(-86.7 -129.7)"/><path class="cls-4" d="M647.8,679a1.8,1.8,0,0,1,1.8,1.8,1.8,1.8,0,0,1-2.2,1.3,1.6,1.6,0,1,1,.4-3.1Z" transform="translate(-86.7 -129.7)"/><path class="cls-3" d="M496.8,733s22.5,28.3,53.5,25l8.4-24s-34.7-2.5-45.6-23.9Z" transform="translate(-86.7 -129.7)"/><path class="cls-4" d="M535.7,735.1a8.7,8.7,0,1,1-11.4-4.7A8.8,8.8,0,0,1,535.7,735.1Z" transform="translate(-86.7 -129.7)"/><path class="cls-4" d="M506.4,733.8a2.4,2.4,0,0,1-.8,3.2c-1,.4-2.3-.3-2.9-1.7a2.4,2.4,0,0,1,.9-3.1A2.3,2.3,0,0,1,506.4,733.8Z" transform="translate(-86.7 -129.7)"/><path class="cls-4" d="M546.1,751.1c1.4.1,2.5,1.1,2.4,2.2s-1.3,1.9-2.8,1.8-2.5-1.1-2.4-2.2S544.6,751,546.1,751.1Z" transform="translate(-86.7 -129.7)"/><path class="cls-4" d="M552.4,734.6a2,2,0,0,1,2,1.8,1.9,1.9,0,0,1-2.2,1.4c-1.2-.1-2-.9-1.9-1.8S551.3,734.5,552.4,734.6Z" transform="translate(-86.7 -129.7)"/><path class="cls-4" d="M516.1,718.6a1.8,1.8,0,0,1-.7,2.5c-.8.4-1.8-.2-2.2-1.3s-.2-2.2.6-2.5A1.8,1.8,0,0,1,516.1,718.6Z" transform="translate(-86.7 -129.7)"/><path class="cls-3" d="M288.5,794.3S311,822.5,342,819.2l8.4-23.9s-34.7-2.5-45.7-23.9Z" transform="translate(-86.7 -129.7)"/><path class="cls-4" d="M327.3,796.4a8.5,8.5,0,0,1-4.7,11.3,8.7,8.7,0,0,1-6.6-16A8.5,8.5,0,0,1,327.3,796.4Z" transform="translate(-86.7 -129.7)"/><path class="cls-4" d="M298.1,795.1c.5,1.3.2,2.7-.9,3.1s-2.2-.3-2.8-1.6a2.4,2.4,0,0,1,.9-3.2A2.3,2.3,0,0,1,298.1,795.1Z" transform="translate(-86.7 -129.7)"/><path class="cls-4" d="M337.7,812.4a2.4,2.4,0,0,1,2.5,2.2,2.3,2.3,0,0,1-2.8,1.7c-1.4-.1-2.5-1.1-2.4-2.2A2.4,2.4,0,0,1,337.7,812.4Z" transform="translate(-86.7 -129.7)"/><path class="cls-4" d="M344.1,795.9c1.1.1,2,.9,1.9,1.7s-1,1.6-2.2,1.5-2-.9-1.9-1.8A1.9,1.9,0,0,1,344.1,795.9Z" transform="translate(-86.7 -129.7)"/><path class="cls-4" d="M307.8,779.8a1.7,1.7,0,1,1-2.3-1.3A2,2,0,0,1,307.8,779.8Z" transform="translate(-86.7 -129.7)"/><path class="cls-3" d="M571.5,857.8S594,886,625,882.7l8.4-24s-34.7-2.4-45.7-23.8Z" transform="translate(-86.7 -129.7)"/><path class="cls-4" d="M610.3,859.9a8.5,8.5,0,0,1-4.7,11.3,8.7,8.7,0,0,1-6.6-16A8.5,8.5,0,0,1,610.3,859.9Z" transform="translate(-86.7 -129.7)"/><path class="cls-4" d="M581.1,858.6c.5,1.3.2,2.7-.9,3.1s-2.2-.3-2.8-1.6-.2-2.8.9-3.2S580.5,857.2,581.1,858.6Z" transform="translate(-86.7 -129.7)"/><path class="cls-4" d="M620.7,875.9a2.4,2.4,0,0,1,2.5,2.2,2.3,2.3,0,0,1-2.8,1.7c-1.4-.1-2.5-1.1-2.4-2.2A2.2,2.2,0,0,1,620.7,875.9Z" transform="translate(-86.7 -129.7)"/><path class="cls-4" d="M627.1,859.4c1.1.1,2,.9,1.9,1.7s-1,1.5-2.2,1.4a1.7,1.7,0,0,1-1.9-1.7A1.9,1.9,0,0,1,627.1,859.4Z" transform="translate(-86.7 -129.7)"/><path class="cls-4" d="M590.8,843.3a1.7,1.7,0,1,1-2.3-1.3A2,2,0,0,1,590.8,843.3Z" transform="translate(-86.7 -129.7)"/><path class="cls-3" d="M369.5,380.7S392,408.9,423,405.6l8.4-24s-34.7-2.5-45.6-23.8Z" transform="translate(-86.7 -129.7)"/><path class="cls-4" d="M408.4,382.8a8.7,8.7,0,0,1-4.7,11.3,8.7,8.7,0,1,1,4.7-11.3Z" transform="translate(-86.7 -129.7)"/><path class="cls-4" d="M379.1,381.5a2.2,2.2,0,0,1-.8,3.1,2.3,2.3,0,0,1-2.8-1.6c-.6-1.3-.2-2.8.8-3.2A2.3,2.3,0,0,1,379.1,381.5Z" transform="translate(-86.7 -129.7)"/><path class="cls-4" d="M418.8,398.8c1.4.1,2.5,1.1,2.4,2.2s-1.3,1.9-2.8,1.7-2.5-1.1-2.4-2.2S417.3,398.6,418.8,398.8Z" transform="translate(-86.7 -129.7)"/><path class="cls-4" d="M425.1,382.3a2,2,0,0,1,2,1.7,1.9,1.9,0,0,1-2.2,1.4c-1.2-.1-2-.8-1.9-1.7S424,382.2,425.1,382.3Z" transform="translate(-86.7 -129.7)"/><path class="cls-4" d="M388.8,366.2a1.9,1.9,0,0,1-.7,2.6,1.9,1.9,0,0,1-2.2-1.3,1.9,1.9,0,0,1,.7-2.6A1.9,1.9,0,0,1,388.8,366.2Z" transform="translate(-86.7 -129.7)"/><path class="cls-3" d="M230.6,639.7s35-9,44.6-38.6l-18.4-17.5s-16.5,30.6-40.5,31.9Z" transform="translate(-86.7 -129.7)"/><path class="cls-4" d="M248.4,605.1a8.6,8.6,0,0,1,8.4,8.9,8.7,8.7,0,1,1-8.4-8.9Z" transform="translate(-86.7 -129.7)"/><path class="cls-4" d="M235.2,631.2c1.5.1,2.6,1,2.6,2.1a2.5,2.5,0,0,1-2.7,1.9c-1.4,0-2.6-1-2.5-2.1S233.8,631.2,235.2,631.2Z" transform="translate(-86.7 -129.7)"/><path class="cls-4" d="M267.2,602.1c.7-1.2,2.1-1.8,3-1.3s1.2,2,.5,3.2-2,1.9-3,1.3A2.3,2.3,0,0,1,267.2,602.1Z" transform="translate(-86.7 -129.7)"/><path class="cls-4" d="M254.8,589.6a1.9,1.9,0,0,1,2.4-1.1,2,2,0,0,1,.4,2.6c-.6,1-1.6,1.5-2.4,1A1.7,1.7,0,0,1,254.8,589.6Z" transform="translate(-86.7 -129.7)"/><path class="cls-4" d="M225.3,616.2a1.8,1.8,0,0,1,2,1.6,1.8,1.8,0,0,1-2.1,1.5c-1.1,0-2.1-.7-2-1.6S224.1,616.1,225.3,616.2Z" transform="translate(-86.7 -129.7)"/><path class="cls-3" d="M400,929.8s-20.7-29.6-51.8-28.2L338.3,925s34.4,4.6,44,26.6Z" transform="translate(-86.7 -129.7)"/><path class="cls-4" d="M361.3,925.3a8.7,8.7,0,1,1,11.1,5.4A8.7,8.7,0,0,1,361.3,925.3Z" transform="translate(-86.7 -129.7)"/><path class="cls-4" d="M390.4,928.4a2.1,2.1,0,1,1,3.8-1.3c.5,1.4,0,2.8-1,3.1S390.9,929.8,390.4,928.4Z" transform="translate(-86.7 -129.7)"/><path class="cls-4" d="M352,908.7c-1.5-.2-2.5-1.3-2.3-2.4s1.4-1.8,2.8-1.6,2.5,1.3,2.3,2.4S353.4,908.9,352,908.7Z" transform="translate(-86.7 -129.7)"/><path class="cls-4" d="M344.6,924.7c-1.1-.1-2-1-1.8-1.8a1.8,1.8,0,0,1,2.2-1.3c1.2.2,2,1,1.8,1.9A1.8,1.8,0,0,1,344.6,924.7Z" transform="translate(-86.7 -129.7)"/><path class="cls-4" d="M379.8,943c-.3-1.1,0-2.2.9-2.5a2.2,2.2,0,0,1,1.3,4A2,2,0,0,1,379.8,943Z" transform="translate(-86.7 -129.7)"/><path class="cls-3" d="M450.3,915.4s35.7-5.1,48.5-33.6l-16.5-19.3s-19.6,28.7-43.6,27.4Z" transform="translate(-86.7 -129.7)"/><circle class="cls-4" cx="470.5" cy="891.5" r="8.7" transform="translate(-555.8 396.6) rotate(-40.9)"/><path class="cls-4" d="M455.8,907.5c1.4.2,2.5,1.3,2.3,2.4s-1.4,1.8-2.8,1.6-2.5-1.2-2.3-2.3A2.3,2.3,0,0,1,455.8,907.5Z" transform="translate(-86.7 -129.7)"/><path class="cls-4" d="M490.7,882c.9-1.2,2.3-1.6,3.2-1s.9,2.1.1,3.3a2.3,2.3,0,0,1-3.1,1A2.4,2.4,0,0,1,490.7,882Z" transform="translate(-86.7 -129.7)"/><path class="cls-4" d="M479.7,868.2c.7-.9,1.8-1.3,2.5-.8a2.2,2.2,0,0,1-2.4,3.4A2,2,0,0,1,479.7,868.2Z" transform="translate(-86.7 -129.7)"/><path class="cls-4" d="M447.5,891.5c1.2.2,2,1,1.9,1.9s-1.2,1.4-2.3,1.3a1.9,1.9,0,0,1-1.8-1.9C445.4,891.9,446.4,891.4,447.5,891.5Z" transform="translate(-86.7 -129.7)"/><path class="cls-3" d="M269.3,899.4s35.7-5.1,48.5-33.6l-16.5-19.3s-19.6,28.7-43.6,27.4Z" transform="translate(-86.7 -129.7)"/><circle class="cls-4" cx="289.5" cy="875.5" r="8.7" transform="translate(-589.6 274.1) rotate(-40.9)"/><path class="cls-4" d="M274.8,891.5c1.4.2,2.5,1.3,2.3,2.4s-1.4,1.8-2.8,1.6-2.5-1.2-2.3-2.3A2.3,2.3,0,0,1,274.8,891.5Z" transform="translate(-86.7 -129.7)"/><path class="cls-4" d="M309.7,866c.9-1.2,2.3-1.6,3.2-1s.9,2.1.1,3.3a2.3,2.3,0,0,1-3.1,1A2.4,2.4,0,0,1,309.7,866Z" transform="translate(-86.7 -129.7)"/><path class="cls-4" d="M298.7,852.2c.7-.9,1.8-1.3,2.5-.8a2.2,2.2,0,0,1-2.4,3.4A2,2,0,0,1,298.7,852.2Z" transform="translate(-86.7 -129.7)"/><path class="cls-4" d="M266.5,875.5c1.2.2,2,1,1.9,1.9s-1.2,1.4-2.3,1.3a1.9,1.9,0,0,1-1.8-1.9C264.4,875.9,265.4,875.4,266.5,875.5Z" transform="translate(-86.7 -129.7)"/><path class="cls-3" d="M696.8,871s22.5,28.3,53.5,25l8.4-24s-34.7-2.5-45.6-23.9Z" transform="translate(-86.7 -129.7)"/><path class="cls-4" d="M735.7,873.1a8.7,8.7,0,1,1-11.4-4.7A8.8,8.8,0,0,1,735.7,873.1Z" transform="translate(-86.7 -129.7)"/><path class="cls-4" d="M706.4,871.8a2.4,2.4,0,0,1-.8,3.2c-1,.4-2.3-.3-2.9-1.7a2.4,2.4,0,0,1,.9-3.1A2.3,2.3,0,0,1,706.4,871.8Z" transform="translate(-86.7 -129.7)"/><path class="cls-4" d="M746.1,889.1c1.4.1,2.5,1.1,2.4,2.2s-1.3,1.9-2.8,1.8-2.5-1.1-2.4-2.2S744.6,889,746.1,889.1Z" transform="translate(-86.7 -129.7)"/><path class="cls-4" d="M752.4,872.6a2,2,0,0,1,2,1.8,1.9,1.9,0,0,1-2.2,1.4c-1.2-.1-2-.9-1.9-1.8S751.3,872.5,752.4,872.6Z" transform="translate(-86.7 -129.7)"/><path class="cls-4" d="M716.1,856.6a1.8,1.8,0,0,1-.7,2.5c-.8.4-1.8-.2-2.2-1.3s-.2-2.2.6-2.5A1.8,1.8,0,0,1,716.1,856.6Z" transform="translate(-86.7 -129.7)"/><path class="cls-3" d="M540.8,908s22.5,28.3,53.5,25l8.4-24s-34.7-2.5-45.6-23.9Z" transform="translate(-86.7 -129.7)"/><path class="cls-4" d="M579.7,910.1a8.7,8.7,0,1,1-11.4-4.7A8.8,8.8,0,0,1,579.7,910.1Z" transform="translate(-86.7 -129.7)"/><path class="cls-4" d="M550.4,908.8a2.4,2.4,0,0,1-.8,3.2c-1,.4-2.3-.3-2.9-1.7a2.4,2.4,0,0,1,.9-3.1A2.3,2.3,0,0,1,550.4,908.8Z" transform="translate(-86.7 -129.7)"/><path class="cls-4" d="M590.1,926.1c1.4.1,2.5,1.1,2.4,2.2s-1.3,1.9-2.8,1.8-2.5-1.1-2.4-2.2S588.6,926,590.1,926.1Z" transform="translate(-86.7 -129.7)"/><path class="cls-4" d="M596.4,909.6a2,2,0,0,1,2,1.8,1.9,1.9,0,0,1-2.2,1.4c-1.2-.1-2-.9-1.9-1.8S595.3,909.5,596.4,909.6Z" transform="translate(-86.7 -129.7)"/><path class="cls-4" d="M560.1,893.6a1.8,1.8,0,0,1-.7,2.5c-.8.4-1.8-.2-2.2-1.3s-.2-2.2.6-2.5A1.8,1.8,0,0,1,560.1,893.6Z" transform="translate(-86.7 -129.7)"/><path id="_Clipping_Path_2" data-name="&lt;Clipping Path&gt;" class="cls-1" d="M597.6,365.4l2,32.9s-19.8,17.7-35.3,0l2.2-28.7Z" transform="translate(-86.7 -129.7)"/><g class="cls-5"><path class="cls-6" d="M555.4,386.3s33.9,4,37.9-16S555.4,386.3,555.4,386.3Z" transform="translate(-86.7 -129.7)"/></g><path class="cls-1" d="M548.6,297.8s-24.9,72.9,9.2,82.2S607,354.9,607,354.9l.3-48.8Z" transform="translate(-86.7 -129.7)"/><path class="cls-7" d="M594.9,372.6s53.2-23.6,33-57.5c0,0,2.9-25.4-25.9-30.7,0,0-35.3-34.8-35.4-9.9,0,0-28.5-12.6-24.1,13,0,0-25.5-.1-4.5,19.7,0,0,25,22.1,60.9,10,0,0-12.2,13.8-6.4,30.4C592.5,347.6,588.9,363.4,594.9,372.6Z" transform="translate(-86.7 -129.7)"/><path class="cls-1" d="M591.7,348c-2.9,5.7-1.6,12.2,3.1,14.6s10.8-.3,13.7-5.9,1.5-12.2-3.1-14.6S594.6,342.3,591.7,348Z" transform="translate(-86.7 -129.7)"/><path class="cls-7" d="M571.2,314.4a6,6,0,0,0,3-1.2,6.7,6.7,0,0,0,2.2-2.5,13.3,13.3,0,0,0,1.3-3.3l.3-1.8.2-1.7v1.8a11.1,11.1,0,0,1-.2,1.7,14,14,0,0,1-1,3.5,7.7,7.7,0,0,1-2.2,2.9,7.1,7.1,0,0,1-3.4,1.6Z" transform="translate(-86.7 -129.7)"/><path class="cls-7" d="M569.1,312.8a9.2,9.2,0,0,0,2.7,1.6,9.5,9.5,0,0,0,3,.8,8.1,8.1,0,0,0,3.1-.2,11.1,11.1,0,0,0,2.9-1.4,11.2,11.2,0,0,1-2.8,1.6,7.4,7.4,0,0,1-3.3.5,11.3,11.3,0,0,1-3.2-.5,10.8,10.8,0,0,1-3-1.6Z" transform="translate(-86.7 -129.7)"/><path class="cls-7" d="M577.6,339.4a10.1,10.1,0,0,0-9.5-8.4c-.6-.1-.7-1.2,0-1.1,5.3.4,9.8,4,10.6,9.4.1.7-1,.7-1.1.1Z" transform="translate(-86.7 -129.7)"/><path class="cls-7" d="M553.8,328.3a6.8,6.8,0,0,0-8.1,3.2.4.4,0,0,1-.7-.4,7.8,7.8,0,0,1,9-3.5c.5.1.3.9-.2.7Z" transform="translate(-86.7 -129.7)"/><path class="cls-8" d="M568.7,364.2a11.5,11.5,0,0,1-4.2,4c-3.6,2.1-7.6,1.6-11.2,0-.7-.3-.1-1.2.5-1,5,2.3,11,1.4,14-3.5.3-.6,1.3-.1.9.5Z" transform="translate(-86.7 -129.7)"/><path id="_Path_" data-name="&lt;Path&gt;" class="cls-9" d="M532.9,739.3c1.9-41.8-2-84.4-1.7-126.5a100.3,100.3,0,0,1,5.9-43.1,6.2,6.2,0,0,1,1.3-2.4c2-2,5.3-1,7.9.1,25,10.3,54.6,7.9,77.4-6.7,4.5,6.9,5.8,15.3,6.9,23.4,1.8,13.2,3.8,26.3,4.2,39.5h0c.1,2.8.2,5.7.1,8.5-.3,16.5-3.4,32.7-5.9,48.9-1.6,10.6-3.1,21.2-3.2,32-.1,8.7,1.1,16.7-.8,25.3-4.9,21.2-4.9,44.2-6.9,65.9s-4.4,46.2-6.2,69.4a24.6,24.6,0,0,1-.2,2.8c-1.2.3-19,4.4-19-.2q-2.1-67.5-4.3-135c-.6-18.9-1.2-38.1-6-56.2l-6,.6q-16.2,89.4-32.6,178.6c-.9,5.3-2.1,10.9-5.5,14.3s-10,2.5-11-2.8C530.5,830.3,530.9,784.9,532.9,739.3Z" transform="translate(-86.7 -129.7)"/><path id="_Path_2" data-name="&lt;Path&gt;" class="cls-10" d="M597.9,884.1a88.1,88.1,0,0,1,20.5.9,74,74,0,0,0,16.9,9.5,14.7,14.7,0,0,1,4.9,2.7c1.2,1.4,1.8,3.7.6,5.2s-3,1.4-4.6,1.4a197.5,197.5,0,0,1-37.6-3.2,4.2,4.2,0,0,1-2.1-.8,6,6,0,0,1-.8-1.6A18.4,18.4,0,0,1,597.9,884.1Z" transform="translate(-86.7 -129.7)"/><path id="_Path_3" data-name="&lt;Path&gt;" class="cls-10" d="M541.6,883.4a87,87,0,0,0-20.3,2.1A74.3,74.3,0,0,1,505,896a12.5,12.5,0,0,0-4.7,3.1c-1.2,1.4-1.6,3.8-.3,5.1s3,1.3,4.6,1.2a197.4,197.4,0,0,0,37.4-5.5,3.7,3.7,0,0,0,2-.9,5.1,5.1,0,0,0,.7-1.7A18.2,18.2,0,0,0,541.6,883.4Z" transform="translate(-86.7 -129.7)"/><path class="cls-11" d="M643.1,543.4c-.6-6.3-1.3-12.6-2-18.8-4.4-39.2-8.8-78.8-22.1-115.7-3.2-9.2-11.6-19.7-20.5-10.3a27.4,27.4,0,0,1-3.9,3.5c-8.8,6.1-20.7,5.5-30.4,1.9s-13.5-15.3-24-10.8-14.2,21.5-15.6,31.3c-2.4,17.9-3.5,36.4-5.4,54.5-3.3,32.2-6.7,64.5-8,96.9-.5,13.4-.8,27-3.6,40.1,7.2,1.8,14.7,1.3,22,1.3,17.3-.1,34.5,2.7,51.8,3.8,13.8.9,27.9.8,41.3-2.6,2.2-.5,28.1-6,27.9-7.3Z" transform="translate(-86.7 -129.7)"/><path class="cls-12" d="M649.4,603.7c.4-.1.6-.3.3-.7-1.5-2.6-3.8-7.5-6.2-13.1-1.8-28.2-4.6-56.4-9.5-84.1-6.1-34.1-19.2-65.8-27-99.4-2.3-9.9-14.1-9-18.5-2.1l-1,.2a41.8,41.8,0,0,0-13.9-8.1c-6.3-2.2-12.8,3.6-12.8,9.7s-.1,13.2-.2,19.7A996.3,996.3,0,0,0,541,588.2v.2l-1.8,8.4c-1.4,4.2-2.9,9-3,12.8l-.3,1.1c-1.2,4.7,1.5,8.9,6,10.5a132.2,132.2,0,0,0,103.4-5.1l1.3-.7.8-.4,1.6-1.2a7.8,7.8,0,0,0,2-4.3A7.6,7.6,0,0,0,649.4,603.7Z" transform="translate(-86.7 -129.7)"/><path id="_Path_4" data-name="&lt;Path&gt;" class="cls-1" d="M684.3,307.2a26.5,26.5,0,0,1,3.3-6.5c1.4-1.8,3.7-3.7,5.9-2.8s2.6,3.7,2.5,6c-.4,10.7-5,20.6-9.6,30.3a37.1,37.1,0,0,1-10.4-4.6,26.1,26.1,0,0,0,4.1-12.5c.3-4.7-.5-9.9,2.2-13.7l1.7.8Z" transform="translate(-86.7 -129.7)"/><path class="cls-13" d="M547,605.8a127.5,127.5,0,0,1,48.6-17.2c.2,0,.1-.4-.1-.3a126.3,126.3,0,0,0-48.7,17.2c-.2.1,0,.5.2.3Z" transform="translate(-86.7 -129.7)"/><path class="cls-13" d="M554.8,608.7a128.1,128.1,0,0,1,48.6-17.2c.3,0,.2-.4-.1-.4a127,127,0,0,0-48.7,17.3c-.2.1,0,.4.2.3Z" transform="translate(-86.7 -129.7)"/><path class="cls-11" d="M546.4,642.7a44.1,44.1,0,0,1-5.7-12c-.1-.2-.5-.1-.4.1a48.2,48.2,0,0,0,5.8,12.1c.1.2.4.1.3-.2Z" transform="translate(-86.7 -129.7)"/><path class="cls-11" d="M541.3,645.1l-9.3-7.9c-.2-.1-.5.2-.3.3l9.4,7.9c.2.1.4-.1.2-.3Z" transform="translate(-86.7 -129.7)"/><path id="_Path_5" data-name="&lt;Path&gt;" class="cls-14" d="M834.1,900c-1.9,1.5.6,2.7,1.8,2.8a21,21,0,0,0,6.6-.4,3,3,0,0,0,1.5-.7c.4-.2.6-.6.9-1s2.4-2.7,2.6-3.9a5.1,5.1,0,0,0-.8-2.9c-1-1.9-2.7-3.9-2.6-6.2-4.7.5-9.2-1.1-13.1.2-.4,1.6-1.6,2.9-1,4.2-.4-.8-11.7,2-13.1,2.3s-4.3.8-6.5,1-5-.7-6,1a6.5,6.5,0,0,0-.5,2,8.1,8.1,0,0,0,.1,1.6,3,3,0,0,0,2,1.8C815.3,905.2,824.6,899.8,834.1,900Z" transform="translate(-86.7 -129.7)"/><path id="_Path_6" data-name="&lt;Path&gt;" class="cls-12" d="M838.4,684l-32.1-.8c-.6-1.4,2.1-.2,2.1,1.3a706.6,706.6,0,0,0,12.9,144.4c4,20.5,8.9,41,9,61.8h13.2q2.3-98,4.4-195.8c.1-3.3,0-7.1-2.6-9.2S840.8,684.1,838.4,684Z" transform="translate(-86.7 -129.7)"/><path id="_Path_7" data-name="&lt;Path&gt;" class="cls-12" d="M928.9,881.2a27.2,27.2,0,0,0,16.4-5.9L914,820.1a120.4,120.4,0,0,1-8.9-18,86.1,86.1,0,0,1-4.9-24.1c-4.5-90.2-4.5-90.2,2.2-109.6.9-2.5,17.3-11.8,0,0-6.3,4.4-30.3.8-37.9,1.9-1.7.3-3.5.6-4.6,1.8s.6,6.5-1.1,5.6c-13.5-8-4.5,2.8-2.4,27.9.7,8.8,10,65,12.6,73.4,4.7,14.9,11,30.3,20.5,42.7C904.2,840.8,914,858.4,928.9,881.2Z" transform="translate(-86.7 -129.7)"/><path id="_Path_8" data-name="&lt;Path&gt;" class="cls-15" d="M918.1,556.4c-2.5-34.4-8.6-70-27.9-99.4-13.9-21.1-33.1-45.6-59.9-23.5-2.4,1.9-19.1-5.6-20.7-3a9.6,9.6,0,0,0-11.4,4.8c-9.1,16-12.4,33.6-13.8,51.7-1.7,20.8-2.2,41.8-2.8,62.6-.3,9.7-.5,19.3-.7,29-3.7,25.9-5.6,51.8-1.3,77.8a8.6,8.6,0,0,0,1.2,3.4c.1,6.6.2,13.1.4,19.6.1,4.2,3.2,9.7,7.8,10.3a342.8,342.8,0,0,0,122-4.9c4.7-1.1,7.6-5.8,7.8-10.3A969.5,969.5,0,0,0,918.1,556.4Z" transform="translate(-86.7 -129.7)"/><path class="cls-1" d="M711.3,320.7c.7-4.5,2.5-9.3.7-13.5l-1.8.5-.9,2.7a22,22,0,0,0-1.7-6.7c-1-2.1-2.8-4.3-5.1-4s-3.2,3-3.6,5.2c-1.8,10.2.6,20.6,2.9,30.6a33.4,33.4,0,0,0,10.8-2.1A26,26,0,0,1,711.3,320.7Z" transform="translate(-86.7 -129.7)"/><path id="_Path_9" data-name="&lt;Path&gt;" class="cls-15" d="M796,487.6c17.1,6.4,34.4-42.3,12.7-49.7-19.5-6.8-51-4.7-69.1-16.3a36.4,36.4,0,0,1-16.5-25.1q-6-32.5-10.3-65.3l-14.1.8.3,82.2c0,5.3.1,10.8,2,15.8s5.4,8.6,9,12.1C733.7,464.9,768.7,477.4,796,487.6Z" transform="translate(-86.7 -129.7)"/><path id="_Path_10" data-name="&lt;Path&gt;" class="cls-16" d="M720.8,390a94.1,94.1,0,0,0-21.1,2.9,1,1,0,1,0,.5,1.9,142.4,142.4,0,0,1,20.6-3.2C721.8,391.5,721.9,390,720.8,390Z" transform="translate(-86.7 -129.7)"/><path id="_Path_11" data-name="&lt;Path&gt;" class="cls-16" d="M753.3,466.1c-2.5-9.4-3.4-26.1,4.7-33.4.8-.7-.3-1.7-1.1-1.1-9.5,7.1-8.2,25.2-6.3,35.1C750.9,468.5,753.7,467.8,753.3,466.1Z" transform="translate(-86.7 -129.7)"/><path id="_Path_12" data-name="&lt;Path&gt;" class="cls-16" d="M721.9,396.5c-2.9-.6-5.9.1-8.8.6s-8.3,1.7-12.5,2.7a1.5,1.5,0,0,0,.8,2.9l9.3-2.2c3.5-.8,7.3-2.1,10.9-2.2C722.6,398.2,723,396.7,721.9,396.5Z" transform="translate(-86.7 -129.7)"/><path id="_Path_13" data-name="&lt;Path&gt;" class="cls-16" d="M765.4,469.2c-2.8-11.5-4.5-22.3,1.9-33.1a1.3,1.3,0,0,0-2.1-1.5c-9.1,9.8-6.2,23.9-3.5,35.6C762.3,472.5,765.9,471.5,765.4,469.2Z" transform="translate(-86.7 -129.7)"/><path id="_Path_14" data-name="&lt;Path&gt;" class="cls-1" d="M842.4,412.7a30.6,30.6,0,0,0,3.6-15.5c-.2-11.3-1.6-23-6.7-32.9-6-11.4-19.7-21.9-32.9-17.6-15.5,5-12.9,26.2-10.8,40.2,1.7,11.1,6.3,22.2,14.8,29C823,426.2,836.2,423.4,842.4,412.7Z" transform="translate(-86.7 -129.7)"/><path id="_Path_15" data-name="&lt;Path&gt;" class="cls-14" d="M939.3,889.9c-1.1,2.3,1.8,2.4,3.1,2a18.6,18.6,0,0,0,6.2-3.3,4,4,0,0,0,1.3-1.3,5.7,5.7,0,0,0,.4-1.4c.2-1.4,1.2-3.7.9-5s-1.3-1.8-2.1-2.5-5-4.2-6-6.5c-4.4,2.6-11.1,5.6-14.4,8.6,1.8,1.3,2,2.4,3.1,3.4-.7-.6-10.7,7.1-11.9,8s-3.9,2.6-6,3.8-5.2,1.5-5.4,3.6a4.7,4.7,0,0,0,.4,2.3,2.9,2.9,0,0,0,.8,1.4,3.3,3.3,0,0,0,2.7,1C923.1,903.3,929.9,893.9,939.3,889.9Z" transform="translate(-86.7 -129.7)"/><g id="_Group_" data-name="&lt;Group&gt;"><path id="_Path_16" data-name="&lt;Path&gt;" class="cls-16" d="M874.7,462.9l-2.1-4.6c-27.8,5.4-55.6,10.2-83.7,12.5l-.6,4.6C817.5,473.4,846.5,468.7,874.7,462.9Z" transform="translate(-86.7 -129.7)"/><path id="_Path_17" data-name="&lt;Path&gt;" class="cls-16" d="M785.1,559.7c.1,1.5.1,2.9.2,4.4a830.6,830.6,0,0,0,115.1-16.3c-.3-1.8-.7-3.7-1.1-5.6C861.7,550.1,823.8,556.4,785.1,559.7Z" transform="translate(-86.7 -129.7)"/><path id="_Path_18" data-name="&lt;Path&gt;" class="cls-16" d="M793.1,645.9c.2,1.1.3,2.2.5,3.3,8.3-1,16.5-2.2,24.5-3.3A798.1,798.1,0,0,0,909,628.1c0-1.5-.1-3.1-.2-4.6-23.4,6-47.1,11.2-71.5,15.5C823.4,641.4,808.4,644,793.1,645.9Z" transform="translate(-86.7 -129.7)"/><path id="_Path_19" data-name="&lt;Path&gt;" class="cls-16" d="M785.6,573.1c0,.7.1,1.4.1,2.1,39.4-2.7,78.7-8.5,116.7-15.6-.1-.9-.3-1.8-.4-2.7-30.1,5.3-60,10.4-90.8,13.8C802.7,571.6,794.1,572.4,785.6,573.1Z" transform="translate(-86.7 -129.7)"/><path id="_Path_20" data-name="&lt;Path&gt;" class="cls-16" d="M787.7,482.5c-.1.7-.1,1.5-.2,2.2,30.8-2.5,61.4-6.8,91.3-12.1l-1.1-2.7c-24.8,4.3-49.7,8.3-75,11.1Z" transform="translate(-86.7 -129.7)"/><path id="_Path_21" data-name="&lt;Path&gt;" class="cls-16" d="M795.9,662a476.7,476.7,0,0,0,113.6-20.7V639a495.6,495.6,0,0,1-114.1,20.4A23.8,23.8,0,0,0,795.9,662Z" transform="translate(-86.7 -129.7)"/></g><path id="_Path_22" data-name="&lt;Path&gt;" class="cls-1" d="M745,565.3a16.6,16.6,0,0,0-4.8,2.4,5.7,5.7,0,0,0-2.4,4.7,3.4,3.4,0,0,0,3.7,3.1,2,2,0,0,0,.3,1.5c3.7,1.1,7.4-1.3,10.8-3.1a45.6,45.6,0,0,1,8.2-3.4c2.4-.8,5.1-1.6,6.3-3.7a7,7,0,0,0,.3-5.3,45.9,45.9,0,0,0-2.4-5L751.6,559a4.8,4.8,0,0,0-2,.7,1.6,1.6,0,0,0-.5,2,4.4,4.4,0,0,1,2.5,1.3Z" transform="translate(-86.7 -129.7)"/><path id="_Path_23" data-name="&lt;Path&gt;" class="cls-17" d="M886.1,365.8a10.7,10.7,0,0,0-9-5.5,1.3,1.3,0,0,1,.1-.6c4.4-3.7,6.1-10.6.8-16.7a13.1,13.1,0,0,0-4.6-3.5,76,76,0,0,0-16.6-9.7l-1.4-.5a23.2,23.2,0,0,0-19.9-19.2,28.9,28.9,0,0,0-8.3,0c-11.2-5.6-24.1-.2-30.6,9.6l-1.5.8a16.2,16.2,0,0,0-7,10.5h-.4c-9.8,2.5-16,12.6-12.9,22.3,1.5,4.7,6,8.7,11.2,8.5l7.4-.3a11.6,11.6,0,0,0,7.1-2.9l1.5.7a18.1,18.1,0,0,0,5.5,1.2,17.6,17.6,0,0,0,6.9,5.8c6.7,3.2,12.7,3,18.6,1.5l1.6,1.3a20.1,20.1,0,0,0,2.7,1.7,19.9,19.9,0,0,0-2.5,4.8c-2.4,6.1,2.6,12.5,8.1,14.4l3.3.7c-2.3,6,.7,14.4,7.6,15.9,8.9,1.8,17.6-.8,23.3-8,4-5,4.6-10.1,5.1-15.6C887.5,379,890.4,372.8,886.1,365.8Z" transform="translate(-86.7 -129.7)"/><path id="_Path_24" data-name="&lt;Path&gt;" class="cls-18" d="M303.9,211.7a24.2,24.2,0,0,0,.1-7.6c-.3-2.5-1.5-5.4-4.1-5.7s-4.3,2.2-5.4,4.4c-4.9,10.2-5.6,21.9-6.1,33.3-2.4-.6-1.1.9,9.2.1-.3-4.7,3.4-8.7,5.3-13s5.4-9,4.8-14h-2.1C305,210,304.5,210.9,303.9,211.7Z" transform="translate(-86.7 -129.7)"/><path id="_Path_25" data-name="&lt;Path&gt;" class="cls-11" d="M431.7,730.7c-2.4-43.4,2.6-87.7,2.2-131.4a87.2,87.2,0,0,0-7.4-44.8,7.2,7.2,0,0,0-1.6-2.4c-2.5-2.1-6.7-1-10,.1-31.4,10.7-68.5,8.2-97.2-6.9-5.6,7.1-7.3,15.8-8.7,24.3-2.2,13.6-4.7,27.3-5.3,41h0c-.1,3-.2,5.9-.1,8.9.4,17.1,4.4,33.9,7.5,50.8,2,10.9,3.8,22,4,33.1.1,9.1-1.4,17.5,1,26.4,6.1,22,6.1,45.9,8.7,68.3,2.7,24.1,5.5,48.1,7.7,72.2l.3,2.8c1.4.4,23.8,4.6,23.8-.2L362,732.8c.8-19.7-.9-86.1,5.1-104.8l7.4.6c13.7,61.8,29.9,170.1,43.5,231.9,1.2,5.5,2.7,11.3,7,14.9s12.5,2.5,13.8-3C434.8,825.2,434.3,778,431.7,730.7Z" transform="translate(-86.7 -129.7)"/><path id="_Path_26" data-name="&lt;Path&gt;" class="cls-18" d="M391.8,308.1c0-16.1-14-29.1-31.3-29.1s-31.3,13-31.3,29.1a24.8,24.8,0,0,0,1.2,7.7v2a83.5,83.5,0,0,0,1.3,17.3c2.2,11.1,8,21.5,18.9,27.8a24.5,24.5,0,0,0,12.1,3.7c5.8-.1,11.2-3.1,15.2-6.8,13.4-12.3,14.6-30.7,13.6-48.2A19.8,19.8,0,0,0,391.8,308.1Z" transform="translate(-86.7 -129.7)"/><path id="_Path_27" data-name="&lt;Path&gt;" class="cls-19" d="M346.3,362.5a19.4,19.4,0,0,0,5.1,5.2c2.6,1.6,5.9,2,9,2.1s7.9-.4,11-2.4,7.6-5.8,9-7.9c4.6-7.1,7.6-12,10-19.8a23.6,23.6,0,0,0,1.4-7.4,2.2,2.2,0,0,0-2.5,1.1,5.7,5.7,0,0,0-.4,2.6c-.2,4.9-2.6,9.4-5.1,13.7s-7.8,7.1-11.2,10.1-8.1,5.1-12.9,4.8l-1.8-.4a4.4,4.4,0,0,1-2-3c-.3-1.2-.7-2.5-1.9-3.1s-3.1-.1-2.9,1.1,1,1.4,1,2.1-1.3,1.4-2.2,1.2a4.4,4.4,0,0,1-2.3-1.7l-4.5-4.9c-.6-.7-1.3-1.3-2.2-.9C342.1,357.6,344.5,360.1,346.3,362.5Z" transform="translate(-86.7 -129.7)"/><path id="_Path_28" data-name="&lt;Path&gt;" class="cls-20" d="M357.6,873.5a126.4,126.4,0,0,0-26.8,1,100.9,100.9,0,0,1-22.3,11.1c-2.3.8-4.7,1.6-6.4,3.2s-2.4,4.3-.8,6,3.9,1.7,6,1.7a303,303,0,0,0,49.5-3.7,6.3,6.3,0,0,0,2.7-1,4.4,4.4,0,0,0,1-1.9A18.6,18.6,0,0,0,357.6,873.5Z" transform="translate(-86.7 -129.7)"/><path id="_Path_29" data-name="&lt;Path&gt;" class="cls-20" d="M438.2,870.5a116.7,116.7,0,0,0-23.6,5.1,87.6,87.6,0,0,1-17.4,13.2,16.1,16.1,0,0,0-5,3.8c-1.2,1.7-1.3,4.2.5,5.4s3.7.9,5.6.6a262.1,262.1,0,0,0,42.9-11,5.2,5.2,0,0,0,2.2-1.2,3.2,3.2,0,0,0,.5-1.9A17.4,17.4,0,0,0,438.2,870.5Z" transform="translate(-86.7 -129.7)"/><path id="_Path_30" data-name="&lt;Path&gt;" class="cls-12" d="M297.8,236.9c.7-4.3.8-10-2.6-11.3s-6.9,3.5-8.9,7.6l-13.2,26.9c-8.6,17.5-17.3,35.4-20.8,54.7-1.4,7.9-1.7,16.9,2.9,22,2.9,3.2,7.1,4.2,11.1,4.8,20,2.9,18-19.8,20.8-37.6C290.7,281.7,294.2,259.3,297.8,236.9Z" transform="translate(-86.7 -129.7)"/><path id="_Path_31" data-name="&lt;Path&gt;" class="cls-19" d="M307.9,611a27.3,27.3,0,0,0,7,.1,24.9,24.9,0,0,0,12.5-5.1,31.5,31.5,0,0,0,6.9-8.6,64.7,64.7,0,0,0,6.6-15.6h-1.5c-.8,2.6-1.6,5.3-2.6,7.9-2.3,6.3-6.5,13.9-13.2,17.7s-12.4,2.6-19,2.4c-.9-.1-1.2,1.3-.2,1.4h.2a.8.8,0,0,1,.2-.6C305.5,610.2,307.2,610.9,307.9,611Z" transform="translate(-86.7 -129.7)"/><path id="_Path_32" data-name="&lt;Path&gt;" class="cls-19" d="M334.1,599.2a88.6,88.6,0,0,0,7.2-17.4h-.4a64.7,64.7,0,0,1-6.6,15.6,31.5,31.5,0,0,1-6.9,8.6,24.9,24.9,0,0,1-12.5,5.1,27.3,27.3,0,0,1-7-.1c-.7-.1-2.4-.8-3.1-.3a.8.8,0,0,0-.2.6C316.2,612.8,328.7,609,334.1,599.2Z" transform="translate(-86.7 -129.7)"/><path id="_Path_33" data-name="&lt;Path&gt;" class="cls-12" d="M435.2,580.6l-.3-89.7c-.1-25.2-5.9-51.9-9.6-76.8-2.1-13.7-4.5-18.5-10.7-30.7-.9-1.7-1-2.9-9.3-5.5-1.7-.6-6-3-8.2-2.7-10.7,1.9-21.7-2.2-32.4-.4s-30.4-3.8-39.3,3.9c-12,10.5-12.8,35.5-14.7,51.8-2.6,22-8.7,44.4-9.7,66.5-1,19.5-1.5,38.9-1.8,58.4-.2,10.1-3.9,45.4,5.2,52.2,5.3,4,19.6,5.6,34.3,6.1h2c5.9.2,11.9.2,17.3.1,8-.2,14.8-.6,18.5-.9,17.1-1.6,34-5.1,50.8-8.9,3-.7,6.3-1.6,7.9-4.4S435.2,582.9,435.2,580.6Z" transform="translate(-86.7 -129.7)"/><path id="_Path_34" data-name="&lt;Path&gt;" class="cls-12" d="M304.7,425.9c4.4,4.6,9.3,9,14.9,10.4s11.9-1.1,13.8-7.1-.4-12.1-2.9-17.7c-6.2-14.3-14-27.6-21.8-40.9l-24.6-42.2c-2.5-4.2-5.2-8.7-9.1-10.9-6.8-4-21.8,1.8-22.6,11s10.9,28,14.3,35.8C276.6,386.8,288.4,408.7,304.7,425.9Z" transform="translate(-86.7 -129.7)"/><path id="_Path_35" data-name="&lt;Path&gt;" class="cls-21" d="M360.2,379c.5-.7,1.1-1.6.8-2.3a2.8,2.8,0,0,0-1.6-1.2q-4.5-1.8-9-3.3a4.2,4.2,0,0,0-3.1-.1,3.5,3.5,0,0,0-1.1,1l-5.6,7.5a2.2,2.2,0,0,0-.6,1.3c0,.5.5,1,.9,1.4a82.2,82.2,0,0,1,5.7,6.1c1.3,1.6,2.8,5.2,5.3,3.6s2.6-5,3.6-6.8A42.4,42.4,0,0,1,360.2,379Z" transform="translate(-86.7 -129.7)"/><path id="_Path_36" data-name="&lt;Path&gt;" class="cls-21" d="M370.4,388.4a26,26,0,0,0,1.2,4.6.9.9,0,0,0,.4.6c.6.4,1.4-.3,1.8-.8a74.6,74.6,0,0,1,12-13.2,7.8,7.8,0,0,0,2.3-2.5,2.5,2.5,0,0,0-.3-3.2,5.1,5.1,0,0,0-2.1-1l-5.2-1.5a8.6,8.6,0,0,0-3.2-.5,9.6,9.6,0,0,0-2.8,1.1c-2,1.2-7.9,3.7-8.1,6.2s1.7,3.5,2.3,4.8A30.9,30.9,0,0,1,370.4,388.4Z" transform="translate(-86.7 -129.7)"/><path id="_Path_37" data-name="&lt;Path&gt;" class="cls-12" d="M438.9,293.9Q425,349.7,408.3,405.1c-1.3,4.3-2.7,8.7-2.2,13.1s2.9,9,7.4,10.9,12.1.1,16.2-3.7,6.1-9,8-14a341.3,341.3,0,0,0,20-142.7c-.4-5-.9-10.1.8-14.8.8-2.5,2.1-5.6.1-7.5s-8.1-2.1-10,.1-1.8,12.2-2.5,16C444.1,273,441.6,283.5,438.9,293.9Z" transform="translate(-86.7 -129.7)"/><path id="_Path_38" data-name="&lt;Path&gt;" class="cls-18" d="M446.1,221.2a24.5,24.5,0,0,1,.7-7.6c.6-2.4,2.2-5.1,4.7-5.1s4.1,2.6,4.9,4.9c3.7,10.8,3,22.4,2.3,33.8,2.4-.3.9,1-9.2-1,.9-4.6-2.4-8.9-3.8-13.4s-4.3-9.7-3.1-14.6l2,.2Z" transform="translate(-86.7 -129.7)"/><path id="_Path_39" data-name="&lt;Path&gt;" class="cls-15" d="M216.9,726.8c-2.3-42.4,2.6-85.6,2.2-128.3a85.1,85.1,0,0,0-7.3-43.7,7.2,7.2,0,0,0-1.6-2.4c-2.4-2-6.5-.9-9.7.1-30.7,10.5-66.9,8-94.8-6.7-5.6,6.9-7.1,15.5-8.5,23.7-2.2,13.3-4.6,26.6-5.2,40h0c-.1,2.8-.2,5.7-.1,8.6.3,16.7,4.2,33.1,7.3,49.5,2,10.8,3.7,21.6,3.9,32.4.1,8.9-1.4,17,1,25.7,5.9,21.5,6,44.8,8.5,66.7,2.6,23.5,5.3,47,7.5,70.4l.3,2.8c1.4.4,23.2,4.5,23.2-.2l5.3-136.7c.7-19.2-.9-84,4.9-102.3l7.3.6c13.4,60.3,29.1,166,42.5,226.3,1.2,5.3,2.6,11.1,6.8,14.5s12.2,2.5,13.4-2.8C219.9,819,219.5,772.9,216.9,726.8Z" transform="translate(-86.7 -129.7)"/><path id="_Path_40" data-name="&lt;Path&gt;" class="cls-1" d="M177.8,314.2c0-15.6-13.6-28.2-30.4-28.2s-30.3,12.6-30.3,28.2a26.1,26.1,0,0,0,1.1,7.5v1.9a79.8,79.8,0,0,0,1.3,16.9c2.1,10.8,7.7,20.8,18.3,27,3.5,2,7.5,3.6,11.8,3.5s10.8-2.9,14.7-6.5c13-12,14.2-29.9,13.2-46.8A20.7,20.7,0,0,0,177.8,314.2Z" transform="translate(-86.7 -129.7)"/><path id="_Path_41" data-name="&lt;Path&gt;" class="cls-9" d="M220.3,580.2l-.3-87.5c-.1-24.6-5.7-50.7-9.3-75-2.1-13.3-4.4-18-10.5-29.9-.8-1.7-1-2.8-9-5.4-1.8-.6-5.9-2.9-8-2.6-10.5,1.8-21.2-2.2-31.7-.4s-29.7-3.7-38.3,3.8c-11.7,10.3-12.5,34.6-14.4,50.6-2.5,21.5-8.4,43.3-9.5,64.9-.9,19-1.4,38-1.8,56.9-.1,9.9-3.7,44.4,5.1,51,5.2,3.9,19.2,5.5,33.5,5.9h2c5.8.1,11.6.1,16.9,0,7.8-.2,14.4-.5,18-.9,16.7-1.5,33.2-4.9,49.6-8.7,2.9-.6,6.1-1.5,7.7-4.2S220.3,582.5,220.3,580.2Z" transform="translate(-86.7 -129.7)"/><path id="_Path_42" data-name="&lt;Path&gt;" class="cls-14" d="M129.6,882.6c-2,1.7.8,3.1,2.1,3.3a22.9,22.9,0,0,0,7.4-.5,4.9,4.9,0,0,0,1.8-.8,4,4,0,0,0,1-1.2c.8-1.1,2.7-3,3-4.4a5.3,5.3,0,0,0-1-3.3c-1.1-2.2-3-4.4-2.9-7-5.4.6-10.5-1.3-14.9.2-.4,1.8-1.8,3.3-1.1,4.8-.4-1-13.3,2.3-14.8,2.6a64.6,64.6,0,0,1-7.5,1.1c-1.9.2-5.6-.7-6.7,1.2a6,6,0,0,0-.6,2.3,5.5,5.5,0,0,0,.2,1.8,3.7,3.7,0,0,0,2.2,2C108.3,888.6,118.9,882.5,129.6,882.6Z" transform="translate(-86.7 -129.7)"/><path id="_Path_43" data-name="&lt;Path&gt;" class="cls-14" d="M218.9,885c2,1.8-.7,3.3-2.1,3.5a21.3,21.3,0,0,1-7.1-.5,4.9,4.9,0,0,1-1.8-.8,3.8,3.8,0,0,1-.9-1.3c-.8-1.3-2.6-3.3-2.9-4.8s.4-2.4.9-3.5,2.9-6.7,2.8-9.5c5.2.7,12.7.7,17,2.2-1.2,2.2-.9,3.5-1.5,5,.4-1,12.9,2.4,14.4,2.8a59.7,59.7,0,0,0,7.2,1.1c1.8.2,5.4-.8,6.5,1.3a7.1,7.1,0,0,1,.6,2.5,6.2,6.2,0,0,1-.2,1.9,3.5,3.5,0,0,1-2.1,2.2C239.5,891.4,229.3,884.8,218.9,885Z" transform="translate(-86.7 -129.7)"/><path id="_Path_44" data-name="&lt;Path&gt;" class="cls-7" d="M192.3,295.3a22.8,22.8,0,0,0-2.5-3.9c-.9-5.4-3.2-10.5-6.6-13.7a7.2,7.2,0,0,0-6.4-2.1,24.6,24.6,0,0,0-8.4-1.8,28.9,28.9,0,0,0-9.5-3.9c-17.4-3.4-36.3,3.7-46.2,18.3-1.5-6.1-13.1-7.1-14.1.2s1.5,13.6,8.7,16.6,10.3.4,13.8-3.1l.5-.3c6.1-3.6,13-7.9,20.2-9.7,5.3,1.9,10.6,6.3,14.8,10.3a25.9,25.9,0,0,0,8.5,5.5,14.3,14.3,0,0,0,1.6,3,7.9,7.9,0,0,0,7.1,8.3,20.9,20.9,0,0,0,5.6-.4,7.4,7.4,0,0,0-.4,1.4c-.5,2-1,9-3.2,10.1-5,2.4-4.4,9.9,0,12.5s11.5-.6,10.9-6.2c-.2-1.5,1-4.2,1.5-5.6a47.9,47.9,0,0,0,2.1-5.7,27,27,0,0,0,1.2-6.3c.1-.9-.4-5.4-.1-5.8a5,5,0,0,0,.6-5.2,6.1,6.1,0,0,0,.5-1.2A16.3,16.3,0,0,0,192.3,295.3Z" transform="translate(-86.7 -129.7)"/><g id="Layer_2" data-name="Layer 2"><g id="Layer_1-2" data-name="Layer 1-2"><path class="cls-22" d="M573.8,466.9l35.5,5.8a3.9,3.9,0,0,1,3.1,4.6L607.9,502a3.9,3.9,0,0,1-4.5,3.2l-35.6-5.9a3.8,3.8,0,0,1-3.1-4.5l4.5-24.7A4,4,0,0,1,573.8,466.9Z" transform="translate(-86.7 -129.7)"/><path class="cls-23" d="M579.6,475.1l35.5,5.9a3.8,3.8,0,0,1,3.2,4.5l-4.5,24.7a4,4,0,0,1-4.6,3.2l-35.5-5.8a3.9,3.9,0,0,1-3.2-4.6l4.5-24.7A4,4,0,0,1,579.6,475.1Z" transform="translate(-86.7 -129.7)"/></g></g><g id="Layer_2-2" data-name="Layer 2"><g id="Layer_1-2-2" data-name="Layer 1-2"><path class="cls-22" d="M342.3,433.3l45.3-1.5a4.3,4.3,0,0,1,4.5,4.7l-2.7,31.3a5.9,5.9,0,0,1-5.4,5.1l-45.3,1.5a4.3,4.3,0,0,1-4.5-4.7l2.8-31.3A5.7,5.7,0,0,1,342.3,433.3Z" transform="translate(-86.7 -129.7)"/><path class="cls-24" d="M350.6,442l45.2-1.6a4.3,4.3,0,0,1,4.6,4.7l-2.8,31.3a5.7,5.7,0,0,1-5.3,5.1L347,483.1a4.4,4.4,0,0,1-4.5-4.8l2.7-31.2A5.8,5.8,0,0,1,350.6,442Z" transform="translate(-86.7 -129.7)"/></g></g><path class="cls-25" d="M135.4,429.5h39.9a4,4,0,0,1,4.1,4.3L178,461.5a4.8,4.8,0,0,1-4.6,4.4H133.5a4.1,4.1,0,0,1-4.1-4.4l1.4-27.7A4.6,4.6,0,0,1,135.4,429.5Z" transform="translate(-86.7 -129.7)"/><path class="cls-26" d="M143,437.4h39.9a4,4,0,0,1,4.1,4.3l-1.5,27.7a4.6,4.6,0,0,1-4.5,4.4H141.1a4.2,4.2,0,0,1-4.2-4.4l1.5-27.7A4.6,4.6,0,0,1,143,437.4Z" transform="translate(-86.7 -129.7)"/><rect class="cls-25" x="814.2" y="493.2" width="31.9" height="42.67" rx="3.8" ry="3.8" transform="translate(184.3 1185.5) rotate(-86.9)"/><rect class="cls-26" x="820.8" y="500.5" width="31.9" height="42.67" rx="3.8" ry="3.8" transform="translate(183.2 1199) rotate(-86.9)"/><path id="_Path_45" data-name="&lt;Path&gt;" class="cls-15" d="M880.8,466c-3.5-15.6-23.6-18.9-27.5.8-3.6,17.8-4.8,36-12.8,53.2a33.5,33.5,0,0,1-20.3,17.7q-28.1,9.3-56.6,17.4c.8,4,1.7,8.1,2.5,12.1l72.8-11c4.7-.7,9.6-1.5,13.7-3.8s7-5.8,9.7-9.4C879.6,519.5,886.4,491.1,880.8,466Z" transform="translate(-86.7 -129.7)"/><path id="_Path_46" data-name="&lt;Path&gt;" class="cls-16" d="M814.8,540.4a75.5,75.5,0,0,0,5.1,18c.4,1.1,2.1.3,1.7-.7a118.1,118.1,0,0,1-5.4-17.5C816,539.4,814.7,539.5,814.8,540.4Z" transform="translate(-86.7 -129.7)"/><path id="_Path_47" data-name="&lt;Path&gt;" class="cls-16" d="M878.1,502.4c-7.9,3.4-22.6,6.3-30.1.3-.7-.6-1.5.5-.8,1.1,7.5,7.2,23.3,3.8,31.9.9C880.6,504.2,879.6,501.8,878.1,502.4Z" transform="translate(-86.7 -129.7)"/><path id="_Path_48" data-name="&lt;Path&gt;" class="cls-16" d="M820.4,538.7c-.2,2.6.8,5.1,1.6,7.5s2.6,7,4,10.5c.6,1.5,3,.5,2.4-1.1s-2.1-5.2-3.1-7.8-2.8-6-3.3-9.1C821.8,537.8,820.4,537.7,820.4,538.7Z" transform="translate(-86.7 -129.7)"/><path id="_Path_49" data-name="&lt;Path&gt;" class="cls-16" d="M879.5,491.5c-9.9,3.9-19.3,6.8-29.6,2.7a1.2,1.2,0,0,0-1.1,2c9.8,6.6,22,2.2,32-1.7C882.7,493.8,881.4,490.7,879.5,491.5Z" transform="translate(-86.7 -129.7)"/><g id="_Group_2" data-name="&lt;Group&gt;"><path id="_Path_50" data-name="&lt;Path&gt;" class="cls-11" d="M544.6,476.3c-13.6,9.1-8.9-43.9-9.6-50.4s-1.9-20.2,4.5-25.9c11.3-10.2,42.2,1.9,55.7,3.4a107.7,107.7,0,0,0,43.7-4c3.1-1,6.3-2.1,8.9-4.2,7-5.5,27.1-68.2,28.5-67.8l14,3.9c-4.2,19.3-8.3,38.8-12.7,58.1-3.4,14.9-4.1,32.3-14.8,44.3-6.8,7.5-16.8,11.6-26.7,14C609.8,454,568,460.5,544.6,476.3Z" transform="translate(-86.7 -129.7)"/></g></g></g></svg>