<svg xmlns="http://www.w3.org/2000/svg" xmlns:xlink="http://www.w3.org/1999/xlink" viewBox="0 0 522.695 525.924"><defs><clipPath id="36ddd477-8837-405a-8b6c-7f5833ec67b1"><path id="86b151e8-a6a7-46fe-8abf-e71954b81391" data-name="&lt;Clipping Path&gt;" d="M236.535,430.819l8.909,9.82s4.164-1.482,10.7,7.741c0,0-32.279,20.333-33.169,18.845s9.526-12.774,9.526-12.774l4.023-8.47-9.653-9.375Z" fill="#fdb483"/></clipPath><clipPath id="45131eda-b8d5-4235-9499-c6c99d4d4d80"><path id="038404ec-c8d5-4ac1-b194-5c0ca9fcf64d" data-name="&lt;Clipping Path&gt;" d="M269.1,469.75l-10.055,8.643s-3.949-1.986-11.571,6.359c0,0,29.517,24.168,30.585,22.8s-7.875-13.855-7.875-13.855l-2.944-8.9,10.738-8.11Z" fill="#fdb483"/></clipPath><clipPath id="c7076749-3f4d-4793-96d8-2ea53c33cee3"><path id="834d60aa-18d7-4159-af53-f11095b00efa" data-name="&lt;Clipping Path&gt;" d="M265.253,177.9,267.48,191.5s12.9,9.906,20.939-2.638l-6.635-13.916Z" fill="#fdb483"/></clipPath></defs><title>intercAsset 1</title><g style="isolation:isolate"><g id="7aa2bf83-8a2e-46ce-81c0-a0c266457e62" data-name="Layer 2"><g id="f2b547a5-51c8-4427-8ff9-6c2a42ad0311" data-name="Layer 2"><path d="M127.887,77.48c1.355-1.584,3.085-2.808,4.584-4.256C144.238,61.86,205.188,10.033,291.027,62.19,374.7,113.034,476.084,196.9,500.436,217.345a66.6,66.6,0,0,1,16.36,20.137c10.659,20.461,15.4,55.738-63.429,71.985C338.709,333.1,317.742,355.855,291.027,461.76s-273.535,71.4-273.535-35.634S71.758,310.342,97.14,292.837c23.8-16.414,40.675-58.527,15.265-127.791-10.68-29.113-5.594-61.9,14.07-85.881Q127.167,78.322,127.887,77.48Z" fill="#f0f8ff"/><path d="M66.921,382.859l3.709-2.71a6.376,6.376,0,0,1,8.61,1.006l7.514,8.793a6.377,6.377,0,0,1-.509,8.816L81.6,403.079l3.587,3.588,5.471-4.656a12.9,12.9,0,0,0,1.433-18.218l-6.853-8a12.9,12.9,0,0,0-17.962-1.589l-4.592,3.758Z" fill="#4c60ab"/><path id="f7ee5a0f-692e-47ec-8c2e-d9886c55d382" data-name="&lt;Clipping Path&gt;" d="M236.535,430.819l8.909,9.82s4.164-1.482,10.7,7.741c0,0-32.279,20.333-33.169,18.845s9.526-12.774,9.526-12.774l4.023-8.47-9.653-9.375Z" fill="#fdb483"/><g clip-path="url(#36ddd477-8837-405a-8b6c-7f5833ec67b1)"><path d="M246.291,439.559c-1.142.22-1.6.355-.986,5.438s-8.916-.722-10.613,1.5-14.2,21.831-14.2,21.831l4.813,1.967,33.548-21.9S252.266,438.406,246.291,439.559Z" fill="#6b2828"/></g><path id="0330adfe-942b-4f09-980f-3b5a776acf6d" data-name="&lt;Clipping Path&gt;" d="M269.1,469.75l-10.055,8.643s-3.949-1.986-11.571,6.359c0,0,29.517,24.168,30.585,22.8s-7.875-13.855-7.875-13.855l-2.944-8.9,10.738-8.11Z" fill="#fdb483"/><g clip-path="url(#45131eda-b8d5-4235-9499-c6c99d4d4d80)"><path d="M258.34,477.216c1.106.36,1.549.551.306,5.519s8.937.385,10.345,2.805,11.391,23.42,11.391,23.42l-5.019,1.356L244.78,484.435S252.553,475.333,258.34,477.216Z" fill="#6b2828"/></g><path d="M266.936,301.591a54.682,54.682,0,0,1-6.825,13.162c-4.2,5.528-57.716,18.575-74.3,32.286s-8.846,31.18-4.423,37.151,49.313,57.5,49.313,57.5l10.172-6.855s-20.123-52.188-32.507-61.7c0,0,56.39-19.018,74.744-15.922s19.226,48.181,19.226,48.181.832,4.172-8.832,12.853c-9.48,8.516-28.527,52.63-28.527,52.63l8.4,11.5,52.779-55.614c.375-.395.78-.759,1.191-1.117,2-1.739,9.662-11.075,4.632-49.193-5.75-43.564-10.789-64.138-10.149-74.859S266.936,301.591,266.936,301.591Z" fill="#0062d8"/><path d="M360.122,88.756s-.628,8.057,4.687,12.461V111.9h8.069v-3.964s7.191-3.072,7.064-7.868L362.636,85.8Z" fill="#fdb483"/><path d="M191.046,233.468l-5.439-13.343a5.163,5.163,0,0,1-.311-1.1c-.48-2.852-2.378-15.337.633-18.253,2.817-2.729,14.661,1.022,18.672,2.4a2.149,2.149,0,0,1,1.444,1.95c.147,3.543-.189,12.578-6.856,17.279a2.636,2.636,0,0,0-1.123,2.318A8.667,8.667,0,0,0,200,230.11C202.317,232.486,191.046,233.468,191.046,233.468Z" fill="#fdb483"/><path d="M241.9,213.726a38.726,38.726,0,0,1,21.346-20.792c7.523-2.949,17.728-4.568,31.171-3.933,29.814,1.409,48.421-14.017,55.088-20.772a16.227,16.227,0,0,0,3.878-6.333c2.99-9.08,10.978-35.035,10.121-50.749h10.521l-.953,49.32a31.25,31.25,0,0,1-7.934,20.23c-1.79,2-3.864,4.221-6.193,6.55-8.768,8.768-30.16,25.25-30.511,35.07s6.845,57.988-6.6,79.274c0,0-9.71,10.456-54.9,0,0,0,5.247-33.983-9.326-45.933,0,0-15.162,30.248-21.963,31.742s-42.279-37.717-46.013-53.4l11.95-4.481s13.444,25.394,29.5,28.008C231.086,257.525,229.848,241.7,241.9,213.726Z" fill="#2979ff"/><path id="736875f5-b80a-49ba-b19a-a50b8d410e07" data-name="&lt;Clipping Path&gt;" d="M265.253,177.9,267.48,191.5s12.9,9.906,20.939-2.638l-6.635-13.916Z" fill="#fdb483"/><g clip-path="url(#c7076749-3f4d-4793-96d8-2ea53c33cee3)"><path d="M290.214,181.624s-16.677,7.612-21.994-1.928S290.214,181.624,290.214,181.624Z" fill="#fdb483" opacity="0.39" style="mix-blend-mode:multiply"/></g><path d="M279.149,135.325s24.681,33.133,8.769,43.486-29.211-4.751-29.211-4.751l-8.147-24.838Z" fill="#fdb483"/><path d="M267.812,181.127s-31.018-3.305-26.284-23.963c0,0-5.645-12.484,8.156-19.874,0,0,12.322-23.579,16.436-10.881,0,0,12.5-11.113,14.425,2.67,0,0,13.039-4.234,5.559,9.3A34.471,34.471,0,0,1,256.629,153.5s8.513,5.057,8.263,14.46C264.892,167.955,269.361,175.446,267.812,181.127Z" fill="#804d4c"/><path d="M265.4,168.042c2.423,2.414,2.786,5.979.811,7.962s-5.542,1.633-7.966-.781-2.787-5.98-.811-7.963S262.972,165.627,265.4,168.042Z" fill="#fdb483"/><path d="M255.968,152.359c-.018-.052.027.052.069.091a1.037,1.037,0,0,0,.161.166,2.427,2.427,0,0,0,.442.3,5.667,5.667,0,0,0,1.1.417,12.008,12.008,0,0,0,2.475.332,30.271,30.271,0,0,0,5.113-.249q1.283-.139,2.555-.365c.852-.131,1.7-.283,2.543-.464,1.7-.317,3.371-.739,5.055-1.128-1.661.473-3.315.979-5,1.382-.836.223-1.679.418-2.528.592q-1.266.292-2.553.5a31.02,31.02,0,0,1-5.207.513,13.623,13.623,0,0,1-2.665-.227,6.491,6.491,0,0,1-1.335-.433,3.372,3.372,0,0,1-.646-.4,1.993,1.993,0,0,1-.3-.284,1.329,1.329,0,0,1-.278-.45Z" fill="#804d4c"/><path d="M243.013,157.153a3.871,3.871,0,0,1-2.142-.321,4.73,4.73,0,0,1-1.625-1.225,7.235,7.235,0,0,1-1.065-1.649l-.362-.9-.284-.916.4.865.47.822a6.869,6.869,0,0,0,1.2,1.406,4.083,4.083,0,0,0,1.532.863,3.035,3.035,0,0,0,1.609.047Z" fill="#804d4c"/><path d="M244.284,155.675a6.658,6.658,0,0,1-1.374,1.274,5.9,5.9,0,0,1-1.638.809,4.55,4.55,0,0,1-1.782.2,5.464,5.464,0,0,1-1.7-.416,5.332,5.332,0,0,0,1.7.157,4.18,4.18,0,0,0,1.595-.43,5.266,5.266,0,0,0,1.336-.93,5.785,5.785,0,0,0,.993-1.236Z" fill="#804d4c"/><path d="M272.335,160.2a5.5,5.5,0,0,1,3.478-5.865c.342-.143.191-.706-.156-.562a6.075,6.075,0,0,0-3.883,6.583c.062.369.623.211.561-.156Z" fill="#804d4c"/><path d="M282.7,150.619a3.782,3.782,0,0,1,4.725.3c.2.165.469-.131.27-.3a4.19,4.19,0,0,0-5.213-.338c-.207.153.009.491.218.338Z" fill="#804d4c"/><path d="M281.014,171.486a6.351,6.351,0,0,0,2.823,1.347,6.527,6.527,0,0,0,5.734-1.872c.279-.251-.16-.635-.437-.386-2.175,1.953-5.4,2.505-7.734.474a.292.292,0,0,0-.386.437Z" fill="#573c37"/><path d="M270,196.121c2.884,1.869,6.371,3.384,9.879,2.832,4.3-.676,7.271-4.129,9.924-7.275.16-.191-.114-.467-.275-.276-2.234,2.651-4.545,5.411-7.905,6.619-4.048,1.455-7.991-.009-11.426-2.236-.211-.136-.406.2-.2.336Z" fill="#7da6ef"/><path d="M276.288,219.171l23.063-7.221a1.931,1.931,0,0,1,2.6,1.951l.512,17.41a3.755,3.755,0,0,1-2.438,3.529l-23.063,7.22a1.931,1.931,0,0,1-2.6-1.951l-.512-17.41A3.753,3.753,0,0,1,276.288,219.171Z" fill="#fff" opacity="0.66" style="isolation:isolate"/><path d="M281.051,222.7l23.063-7.221a1.931,1.931,0,0,1,2.6,1.951l.512,17.41a3.755,3.755,0,0,1-2.437,3.529l-23.064,7.22a1.931,1.931,0,0,1-2.6-1.951l-.512-17.41A3.754,3.754,0,0,1,281.051,222.7Z" fill="#fff" opacity="0.7" style="isolation:isolate"/><path d="M328.431,222.317s-2.281-9.986-5.461-12.427,9.1,1.209,11.909.531C334.879,210.421,328.305,217.662,328.431,222.317Z" fill="#5498fc"/><path d="M446.9,24.094a7.069,7.069,0,0,0-6.994.571L429.5,31.522a.829.829,0,0,1-1.174-.276l-3.118-5.367a2.208,2.208,0,0,0-3.068-.77L394.946,41.891l0,0-.146.095-.147.091,0,0L367.909,59.564a2.207,2.207,0,0,0-.607,3.1l3.534,5.1a.829.829,0,0,1-.249,1.18l-10.571,6.473a7.194,7.194,0,0,0-3.332,7.743c.71,2.954,3.339,6.646,10.3,10.6,0,0,13.208,6.506,25.726,2a4.606,4.606,0,0,1,4.67.967l1.135,1.045a7.583,7.583,0,0,0,3.565,1.852,54.3,54.3,0,0,0,14.509.756c11.214-.709,11.625,6.944,11.625,6.944l-11.368,7.753a1.107,1.107,0,0,0-.328,1.479l4.428,7.461a1.159,1.159,0,0,1-.389,1.579l-7.081,4.361a.923.923,0,0,0-.436.752c-.051,1.171.2,3.89,3.724,3.1,4.342-.969,25.068-15.317,26.167-16.079,1.156-.67,22.95-13.337,25.672-16.857,2.211-2.86-.145-4.238-1.228-4.69a.921.921,0,0,0-.865.077l-6.957,4.557a1.158,1.158,0,0,1-1.594-.319l-4.874-7.178a1.106,1.106,0,0,0-1.478-.331l-11.848,7S433,96.367,438.409,86.516a54.309,54.309,0,0,0,5.48-13.456,7.591,7.591,0,0,0-.162-4.014l-.464-1.471a4.605,4.605,0,0,1,1.108-4.639c9.4-9.416,9.122-24.137,9.122-24.137C452.753,29.286,449.731,25.5,446.9,24.094ZM365.96,77.32l8.717-5.718,16.271,20.414c-24.53,3.6-26.249-8.5-26.134-12.665A2.517,2.517,0,0,1,365.96,77.32Zm76.333-17.926-11.568-23.4,8.879-5.463a2.517,2.517,0,0,1,2.326-.173C445.751,32.022,455.97,38.716,442.293,59.394Z" fill="#ffc927"/><circle cx="410.542" cy="66.761" r="15.702" fill="#ffaf28"/><path d="M370.015,96.7c.12.63,5.285,5.175,13.875,2.642s-11.783-16.408-11.783-16.408a6.325,6.325,0,0,0-6.4-.253.69.69,0,0,0-.305.791,10.978,10.978,0,0,0,5.4,6.817,1.1,1.1,0,0,1,.286,1.734A4.986,4.986,0,0,0,370.015,96.7Z" fill="#f7c4a1"/><path d="M204.365,368.24s2.629,3.427,5.331,2.929" fill="none" stroke="#7da6ef" stroke-linecap="round" stroke-miterlimit="10" stroke-width="0.13" opacity="0.7"/><path d="M203.113,370.2s3.439,1.7,4.637,4.019" fill="none" stroke="#7da6ef" stroke-linecap="round" stroke-miterlimit="10" stroke-width="0.13" opacity="0.7"/><path d="M324.639,289.075s-.789,9-11.162,13.991" fill="none" stroke="#7da6ef" stroke-linecap="round" stroke-miterlimit="10" stroke-width="0.13" opacity="0.7"/><path d="M324.259,286.924s-.789,9-11.162,13.991" fill="none" stroke="#7da6ef" stroke-linecap="round" stroke-miterlimit="10" stroke-width="0.13" opacity="0.7"/><path d="M116.569,251.8s5.691-13.425,25.465-12.55c0,0-4.886-7.648-2.519-16.805a.254.254,0,0,0-.3-.319c-3.193.763-24.108,6.151-31.109,18A20.456,20.456,0,0,1,116.569,251.8Z" fill="#06bca5"/><circle cx="124.596" cy="235.96" r="3.648" fill="#4dcdc1"/><path d="M424.677,266.657s-7.083,14.693-29.128,12.648c0,0,5.046,8.808,1.908,18.912a.283.283,0,0,0,.317.372c3.609-.679,27.268-5.571,35.73-18.432A22.882,22.882,0,0,1,424.677,266.657Z" fill="#06bca5"/><circle cx="414.855" cy="283.922" r="4.081" fill="#4dcdc1"/><path d="M130.352,322.873s-.56,6.434-3.916,8.952c0,0,8.112,6.154,20.141,0,0,0-.84-5.595,0-7.274C146.577,324.551,134.268,330.146,130.352,322.873Z" fill="#06bca5"/><path d="M388.3,154.077s6.065,2.219,7.619,6.116c0,0,8.058-6.225,5.256-19.443,0,0-5.62-.65-7.021-1.9C394.156,138.852,396.345,152.194,388.3,154.077Z" fill="#06bca5"/><path d="M168.038,293.394s-1.527,3.8-4.029,4.707c0,0,3.786,5.232,12.22,3.719,0,0,.524-3.549,1.343-4.412C177.572,297.408,169.071,298.529,168.038,293.394Z" fill="#06bca5"/><path d="M.254,389.2l46.773-36.667,58.705,75.338L58.97,465.6a.663.663,0,0,1-.942-.112L.137,390.121A.664.664,0,0,1,.254,389.2Z" fill="#ffaf28"/><path d="M58.123,347.955H77.64a1.682,1.682,0,0,1,1.682,1.682v92.726a1.682,1.682,0,0,1-1.682,1.682H58.123a0,0,0,0,1,0,0v-96.09A0,0,0,0,1,58.123,347.955Z" transform="translate(-231.774 129.091) rotate(-38.543)" fill="#efa63c"/><rect x="54.711" y="398.014" width="8.806" height="11.415" rx="2.25" ry="2.25" transform="translate(338.049 105.929) rotate(51.457)" fill="#fff"/><path d="M395.982,7.751V26.392a1.115,1.115,0,0,0,1.115,1.115h.478a1.115,1.115,0,0,0,1.1-.9l3.593-18.641a1.114,1.114,0,0,0-1.1-1.326H397.1A1.115,1.115,0,0,0,395.982,7.751Z" fill="#ffc82d"/><path d="M368.9,6.183l4.226-5.85a.8.8,0,0,1,1.409.2l7.95,22.4a.969.969,0,0,1-.13.893l-.391.539a.969.969,0,0,1-1.589-.032L368.882,7.1A.8.8,0,0,1,368.9,6.183Z" fill="#ffc82d"/><path d="M361.531,34.913v-6.38a.552.552,0,0,1,.856-.46l15.244,10.084a.551.551,0,0,1,.248.46v1.689a.552.552,0,0,1-.736.52L361.9,35.433A.551.551,0,0,1,361.531,34.913Z" fill="#ffc82d"/></g></g></g></svg>