<svg xmlns="http://www.w3.org/2000/svg" xmlns:xlink="http://www.w3.org/1999/xlink" viewBox="0 0 380.111 254.456"><defs><linearGradient id="3893793c-827c-4766-b072-21a4f8af164c" x1="44.911" y1="173.813" x2="118.402" y2="173.813" gradientUnits="userSpaceOnUse"><stop offset="0.003" stop-color="#aef6bf"/><stop offset="1" stop-color="#8ed3bb"/></linearGradient><clipPath id="ef7c9a15-681d-4d1c-8c88-09ab8d90f32f"><path id="78298bbd-8520-4825-94bd-b36871523f1d" data-name="&lt;Clipping Path&gt;" d="M262.807,120.415l.991,15.692s-9.475,8.422-16.845,0l1.053-13.687Z" fill="#fdb483"/></clipPath></defs><title>intercAsset 3</title><g style="isolation:isolate"><g id="fac1f7dd-220b-4287-86e2-a3adf48c2647" data-name="Layer 2"><g id="08d3fac9-1452-426a-895a-a278f197f01a" data-name="Objects"><path d="M205.679,172l-6.07,22.2-30.26,10.352s-9.555,7.963.8,8.759c26.248,2.02,42.2-12.74,42.2-12.74l4.778-27.871Z" fill="#fdb483"/><path d="M226.889,178.921c5.412-9.564,10.425-24.863,9.677-29.722-1.382-8.986-4.147-10.368-4.147-10.368s-4.147-4.838-9.677.691c-3.186,3.187-13.017,18.735-18.662,32.487C208.005,171.831,220.87,172.413,226.889,178.921Z" fill="#0057ff"/><path d="M36.363,180.447,18.322,198.488H19.71L1.67,180.447v1.388q9.02-9.02,18.04-18.04H18.322l18.041,18.04a.982.982,0,0,0,1.388-1.388L19.71,162.407a1,1,0,0,0-1.388,0L.281,180.447a1,1,0,0,0,0,1.388q9.021,9.02,18.041,18.041a1,1,0,0,0,1.388,0q9.021-9.021,18.041-18.041A.982.982,0,0,0,36.363,180.447Z" fill="#812d65"/><path d="M349.207,73.869,378.441,103.1v-1.388l-29.234,29.235h1.387L321.36,101.716V103.1l29.234-29.235a.982.982,0,0,0-1.387-1.388Q334.59,87.1,319.971,101.716a1,1,0,0,0,0,1.388l29.236,29.235a1,1,0,0,0,1.387,0L379.83,103.1a1,1,0,0,0,0-1.388L350.594,72.481A.982.982,0,0,0,349.207,73.869Z" fill="#95d7bd"/><path d="M169.947,30.57V63.946a.992.992,0,0,0,1.478.848q15.04-8.344,30.082-16.688a.991.991,0,0,0,0-1.7q-15.042-8.343-30.082-16.688c-1.106-.613-2.1,1.082-.992,1.7q15.042,8.343,30.082,16.688v-1.7q-15.04,8.345-30.082,16.688l1.478.848V30.57A.983.983,0,0,0,169.947,30.57Z" fill="#7ea1f4"/><polygon points="340.491 12.981 331.479 29.254 350.652 29.24 340.491 12.981" fill="#812d65"/><path d="M119.709,60.341a7.845,7.845,0,0,0-8.743,6.964A7.456,7.456,0,1,0,125.75,66.5a7.71,7.71,0,0,0-9.535-5.733" fill="#95d7bd"/><path d="M57.325,61.794a3,3,0,1,0-.354,5.949,2.96,2.96,0,1,0-1.042-5.778" fill="#e2af4c"/><path d="M258.717,27.233a4.611,4.611,0,0,0-5.138,4.093,4.381,4.381,0,1,0,8.688-.473,4.53,4.53,0,0,0-5.6-3.369" fill="#eac689"/><path d="M33.447,125.339a4.409,4.409,0,1,0-.52,8.75,4.355,4.355,0,1,0-1.533-8.5" fill="#1f2f6e"/><path d="M261.536,136.771a4.409,4.409,0,1,0-.519,8.75,4.355,4.355,0,1,0-1.535-8.5" fill="#7ea1f4"/><rect x="127.737" y="104.925" width="15.882" height="15.883" transform="translate(50.241 -41.561) rotate(21.291)" fill="#cd6e95"/><rect x="294.082" y="49.139" width="15.883" height="15.882" transform="translate(41.335 -105.762) rotate(21.289)" fill="#5665c7"/><rect x="85.834" y="104.677" width="7.941" height="7.941" transform="translate(-36.107 45.279) rotate(-23.709)" fill="#5665c7"/><path d="M95.8,233.144c-7.431-.508-23.6-4.522-31.2-8.437a15.057,15.057,0,0,1-4.128-3.464c-1.447-1.468-2.133-3.9-1-5.625,2-3.034,7.092-1.329,10.014-3.491s1.923-7.095-.812-9.511S62.2,199.4,58.833,197.98c-3.237-1.367-6.371-3.577-7.616-6.864s.185-7.7,3.558-8.685c2.067-.605,4.379.127,6.4-.625,3.492-1.3,3.991-6.438,1.9-9.52s-5.746-4.635-9.139-6.181-6.96-3.484-8.492-6.883.42-8.428,4.147-8.465c3.438-.034,6.516,3.962,9.68,2.616,3.465-1.474,1.942-6.615.313-10.01a41.917,41.917,0,0,1-4.111-17.619c-.044-4.027.9-8.683,4.465-10.56,4.667-2.458,10.473,1.928,11.856,7.017s-.067,10.453-.681,15.692c-.318,2.707-.38,5.588.88,8.006s4.228,4.135,6.772,3.155c2.793-1.077,3.662-4.5,4.518-7.365s2.9-6.148,5.87-5.764c2.486.321,3.842,3.073,4.332,5.531a22.518,22.518,0,0,1-4.8,18.649c-1.591,1.885-3.53,3.555-4.534,5.807s-.657,5.4,1.535,6.528c2.718,1.405,5.869-1.221,7.141-4s1.813-6.087,4.122-8.093c3.834-3.332,10.458-.536,12.326,4.188s.186,10.143-2.429,14.5-6.142,8.144-8.427,12.68c-.919,1.824-1.578,4.171-.331,5.788,1.593,2.066,5.087,1.193,6.773-.8s2.291-4.662,3.572-6.935,3.873-4.289,6.329-3.411c2.26.809,3.091,3.546,3.386,5.93,2.126,17.2-8.885,32.492-22.337,40.861" fill="url(#3893793c-827c-4766-b072-21a4f8af164c)"/><path d="M62.193,131.652c.49,5.093,2.008,10.208,3.21,15.174,1.125,4.65,2.316,9.286,3.606,13.894,2.48,8.85,5.349,17.621,8.442,26.274,2.913,8.15,6.134,16.187,9.554,24.138,3.744,8.7,7.263,17.886,11.975,26.118.141.245.576.081.471-.2-3.27-8.623-7.775-16.869-11.442-25.339-3.55-8.2-6.905-16.486-9.969-24.88-3.037-8.318-5.7-16.741-8.071-25.271-1.277-4.586-2.507-9.183-3.648-13.806-1.314-5.327-2.157-10.935-3.894-16.135-.04-.12-.248-.11-.234.032Z" fill="#202c43"/><path d="M81.64,195.841c5.326-7.372,10.773-14.579,16.808-21.393.284-.321-.188-.8-.474-.473a190.526,190.526,0,0,0-16.821,21.581c-.2.308.278.575.487.285Z" fill="#202c43"/><path d="M82.032,196.552c-1.981-1.837-4.577-1.666-7.108-1.956A35.084,35.084,0,0,1,61.7,190.045a.39.39,0,0,0-.394.673,30.925,30.925,0,0,0,9.715,4.027c3.424.788,7.762.164,10.706,2.206.238.165.519-.2.309-.4Z" fill="#202c43"/><path d="M93.208,224.273a69.823,69.823,0,0,0-22.05-6,.312.312,0,0,0-.082.609,198.209,198.209,0,0,1,21.961,5.793c.233.08.4-.3.171-.405Z" fill="#202c43"/><path d="M92.946,223.5c4.937-8.829,11.363-15.569,18.762-22.32.241-.22-.078-.646-.354-.457-7.989,5.462-14.441,14-18.869,22.507-.158.3.293.572.461.27Z" fill="#202c43"/><path d="M69.8,164.116a34.018,34.018,0,0,0-12.633-5.39c-.347-.06-.5.443-.148.538A44.074,44.074,0,0,1,69.57,164.5c.244.156.464-.228.226-.387Z" fill="#202c43"/><path d="M69.767,164.452a55.732,55.732,0,0,0,12.043-9.233c.274-.277-.127-.646-.417-.416-3.946,3.131-7.414,6.778-11.793,9.363a.166.166,0,0,0,.167.286Z" fill="#202c43"/><path d="M343.045,166.185c-11.205,1.455-19.2,8.686-26.92,16.931a49.676,49.676,0,0,0-13.2,30.5c-.1,1.612-.079,3.381.937,4.638,1.61,1.992,4.712,1.642,7.169.919a51.124,51.124,0,0,0,34.586-36.481c1.342-5.654,1.437-12.3-2.573-16.506" fill="#7ea1f4"/><path d="M335.784,182.429c-7.848,9.286-15.5,18.725-23.184,28.151-7.414,9.1-15.236,17.99-22.211,27.433-.264.357.323.806.618.475,7.924-8.9,15.117-18.541,22.611-27.807,7.52-9.3,15.05-18.584,22.4-28.018.128-.164-.094-.4-.234-.234Z" fill="#202c43"/><path d="M323.068,189.714c-.223,2.86-1.069,6.075-.64,8.924.045.3.482.25.556,0,.821-2.752.414-6.074.587-8.924.021-.325-.478-.321-.5,0Z" fill="#202c43"/><path d="M316.145,207.3a82.025,82.025,0,0,0,10.33-4.132c.653-.281.089-1.229-.556-.953a81.062,81.062,0,0,0-9.99,4.575.281.281,0,0,0,.216.51Z" fill="#202c43"/><path d="M293.892,175.381s11.591,1.892,10.672,6.591-3.219,48.5-3.219,48.5h-26.7Z" fill="#d0d5dd"/><path d="M15.1,95.682a4.041,4.041,0,1,0-.476,8.021,3.992,3.992,0,1,0-1.407-7.791" fill="#eac689"/><path d="M260.64,134l3.158,2.106s11.581,0,21.056,4.211c0,0,0,85.276-8.422,95.8,0,0-49.9,14.519-68.846-3.379,0,0,13.048-92.425,18.311-95.583s24.215-1.053,24.215-1.053Z" fill="#0057ff"/><path id="41b372d1-6477-4ed2-b3a1-3dc645f8ed90" data-name="&lt;Clipping Path&gt;" d="M262.807,120.415l.991,15.692s-9.475,8.422-16.845,0l1.053-13.687Z" fill="#fdb483"/><g clip-path="url(#ef7c9a15-681d-4d1c-8c88-09ab8d90f32f)"><path d="M242.684,130.368s16.2,1.906,18.1-7.621S242.684,130.368,242.684,130.368Z" fill="#fdb483" opacity="0.39" style="mix-blend-mode:multiply"/></g><path d="M293.75,188.615s-4-6.129-8.2-13.551c5.5-5.946,13.471-6.352,17.058-6.189,3.793,9.239,7.214,19.386,8.82,27.95,0,0-5.052,13.892-57.466,7.577l-3.789-8.209S283.015,194.3,293.75,188.615Z" fill="#fdb483"/><path d="M284.909,178.511c-4.943-8.737-9.523-22.715-8.841-27.153,1.263-8.21,3.789-9.473,3.789-9.473s3.789-4.42,8.841.632c2.911,2.911,11.893,17.115,17.05,29.68C302.162,172.034,290.409,172.566,284.909,178.511Z" fill="#0057ff"/><path d="M239.449,88.148s-11.88,34.779,4.414,39.213,23.443-11.977,23.443-11.977l.136-23.251Z" fill="#fdb483"/><path d="M261.52,123.848S286.886,112.6,277.253,96.4c0,0,1.382-12.109-12.318-14.609,0,0-16.855-16.612-16.881-4.739,0,0-13.612-6.007-11.488,6.189,0,0-12.194-.035-2.176,9.389A30.663,30.663,0,0,0,263.466,97.4s-5.831,6.6-3.06,14.5C260.406,111.9,258.661,119.459,261.52,123.848Z" fill="#804d4c"/><path d="M260,112.109c-1.395,2.7-.732,5.823,1.481,6.964s5.138-.126,6.533-2.831.732-5.822-1.481-6.963S261.4,109.4,260,112.109Z" fill="#fdb483"/><path d="M264.7,96.238a1.23,1.23,0,0,1-.118.48,1.86,1.86,0,0,1-.184.331,3.09,3.09,0,0,1-.448.519,5.785,5.785,0,0,1-1.025.736,11.419,11.419,0,0,1-2.207.916,27.581,27.581,0,0,1-4.558.97q-1.147.173-2.3.268c-.767.081-1.535.143-2.3.179-1.535.112-3.074.13-4.61.177,1.532-.134,3.064-.237,4.587-.435.763-.079,1.522-.184,2.278-.307q1.139-.157,2.261-.394a26.872,26.872,0,0,0,4.388-1.193,10.6,10.6,0,0,0,1.994-.958,4.968,4.968,0,0,0,.809-.649,2.1,2.1,0,0,0,.284-.365.911.911,0,0,0,.086-.176c.023-.04.031-.141.028-.074Z" fill="#804d4c"/><path d="M275.937,95.816a2.653,2.653,0,0,0,1.326-.454,3.583,3.583,0,0,0,1.063-1.128,6.031,6.031,0,0,0,.648-1.508l.181-.822.113-.841.016.854-.056.859a6.374,6.374,0,0,1-.441,1.7,4.242,4.242,0,0,1-1.042,1.5,3.483,3.483,0,0,1-1.75.879Z" fill="#804d4c"/><path d="M275.132,95.128a5.119,5.119,0,0,0,1.157.78,4.679,4.679,0,0,0,1.371.435,3.666,3.666,0,0,0,1.462-.056,4.7,4.7,0,0,0,1.4-.581,4.875,4.875,0,0,1-1.32.829,4.086,4.086,0,0,1-1.572.326,5.3,5.3,0,0,1-1.621-.228,5.873,5.873,0,0,1-1.53-.7Z" fill="#804d4c"/><path d="M251.992,107.36a4.9,4.9,0,0,0-4.542-4.02c-.328-.028-.354-.546-.021-.519a5.406,5.406,0,0,1,5.081,4.518c.048.329-.471.349-.518.021Z" fill="#804d4c"/><path d="M240.606,102.066a3.366,3.366,0,0,0-3.92,1.538c-.122.194-.432.017-.31-.178a3.727,3.727,0,0,1,4.323-1.7c.217.073.126.418-.093.345Z" fill="#804d4c"/><path d="M247.715,119.278a5.638,5.638,0,0,1-2.024,1.909,5.8,5.8,0,0,1-5.365-.023c-.305-.137-.037-.581.265-.446,2.373,1.061,5.253.652,6.678-1.7a.259.259,0,0,1,.446.264Z" fill="#573c37"/><path d="M283.13,174.608l-2.185-2.078c-.181-.173-.457.1-.275.275l2.185,2.078c.181.173.457-.1.275-.275Z" fill="#557ed6"/><path d="M281.061,175.975l-4.579-3c-.21-.138-.405.2-.2.336l4.578,3c.21.138.406-.2.2-.336Z" fill="#557ed6"/><path d="M244.72,137.172c2.33,2.752,5.5,5.405,9.261,5.648,4.091.265,7.7-2.049,10.982-4.184.209-.136.014-.473-.2-.336-3.241,2.11-6.685,4.355-10.729,4.044-3.752-.288-6.7-2.674-9.043-5.447-.162-.192-.436.085-.275.275Z" fill="#557ed6"/><path d="M285.983,175.326c3.854-4.833,11.278-4.782,16.923-4.988.25-.009.251-.4,0-.39-5.727.21-13.279.188-17.2,5.1-.154.194.119.471.276.275Z" fill="#557ed6"/><path d="M242.634,155.785H266.8a1.931,1.931,0,0,1,1.9,2.639l-4.713,16.768a3.754,3.754,0,0,1-3.38,2.639H236.437a1.932,1.932,0,0,1-1.9-2.639l4.713-16.768A3.755,3.755,0,0,1,242.634,155.785Z" fill="#fff" opacity="0.66" style="isolation:isolate"/><path d="M246.124,160.579h24.167a1.932,1.932,0,0,1,1.9,2.639l-4.713,16.768a3.755,3.755,0,0,1-3.381,2.638H239.928a1.931,1.931,0,0,1-1.9-2.639l4.713-16.768A3.754,3.754,0,0,1,246.124,160.579Z" fill="#fff" opacity="0.7" style="isolation:isolate"/><path d="M67.075,230.476H310.789s-9.157,23.463-117.345,23.972C84.594,254.961,67.075,230.476,67.075,230.476Z" fill="#eaeaea"/><path d="M259.317,195.683s-10.51-2.415-10.712,2.6c-.083,2.033-1.981,7.764,2.53,7.4C257.18,205.194,259.317,195.683,259.317,195.683Z" fill="#fdb483"/><g opacity="0.24"><path d="M243.33,193.245s4.025-1.872,1.779-5.71-7.021-2.621-4.119-7.769,6.459-2.9,3.557-6.646-4.68.28-4.212,1.216a1.131,1.131,0,0,0,1.5.468,1.1,1.1,0,0,1-.936-1.4c.187-1.31,2.808-.842,3.276.936s-12.543,6.834-9.079,9.642,4.867,4.867,3.557,6.178,3.182,3.276,3.182,3.276Z" fill="#e5e5e5"/><path d="M241.8,193.882a2.73,2.73,0,0,1-.723-3.4c.913-2.283,2.853-1.559,1.674-4.621s-2.625-1.726-1.446-3.952,1.9.167,1.712.723-.609.279-.609.279.457-.056.381-.835-1.142-.5-1.332.556,5.1,4.064,3.691,5.734-1.979,2.895-1.446,3.674-1.294,1.949-1.294,1.949Z" fill="#e5e5e5"/></g><path d="M234.442,194.1l1.648,14.961c.092.947,10.436.972,10.549.044l.553-4.018a2.35,2.35,0,0,0,1.081.54,2.257,2.257,0,0,0,.462.047,2.9,2.9,0,0,0,2.017-.922,5.8,5.8,0,0,0,1.21-5.928,2.744,2.744,0,0,0-1.937-1.777,2.486,2.486,0,0,0-1.771.328l.447-3.252a.95.95,0,0,0-.944-1.065H235.388A.951.951,0,0,0,234.442,194.1Zm12.927,9.7.693-5.032c.05-.056.1-.111.153-.162a1.98,1.98,0,0,1,1.353-.647,1.318,1.318,0,0,1,.266.026,1.828,1.828,0,0,1,1.245,1.206,4.852,4.852,0,0,1-1,4.882,1.825,1.825,0,0,1-1.618.62A1.675,1.675,0,0,1,247.369,203.8Z" fill="#fff"/><path d="M249.625,198.617s2.485-1.668,3.114-.472.755,4.687-.157,5.663-2.94.818-3.216-.378A11.528,11.528,0,0,1,249.625,198.617Z" fill="#fdb483"/><polygon points="197.031 232.234 197.031 230.476 238.008 230.476 238.008 232.743 197.031 232.234" fill="#8e8585"/><polygon points="119.7 163.804 129.574 220.11 211.112 220.11 202.084 163.804 119.7 163.804" fill="#b6aead"/><polyline points="154.062 199.54 157.493 231.508 176.078 231.508 169.788 199.54 155.777 199.54" fill="#8e8585"/><rect x="146.709" y="230.476" width="40.136" height="1.758" fill="#8e8585"/><rect x="144.467" y="168.043" width="29.317" height="1.123" fill="#8e8585"/><path d="M117.929,21.337,75.055,40.127a2.6,2.6,0,0,0-1.338,3.426L87.636,75.312a2.6,2.6,0,0,0,3.426,1.338l42.874-18.791a2.6,2.6,0,0,0,1.338-3.426L121.355,22.675A2.6,2.6,0,0,0,117.929,21.337Zm15.757,33.792a.866.866,0,0,1-.446,1.142L90.366,75.062a.868.868,0,0,1-1.142-.446L75.305,42.857a.868.868,0,0,1,.446-1.142l42.874-18.79a.866.866,0,0,1,1.142.446l13.919,31.758Z" fill="#0057ff"/><path d="M117.8,25.181a.869.869,0,0,0-.5.437L105.731,49.033a1.735,1.735,0,0,1-2.044.9l-25.06-7.36a.867.867,0,0,0-.488,1.664l25.06,7.359a3.465,3.465,0,0,0,4.086-1.791l11.573-23.414a.867.867,0,0,0-1.054-1.206Z" fill="#0057ff"/><path d="M96.646,54.334a.867.867,0,0,0-.658.582L90.092,71.7a.867.867,0,1,0,1.636.574l5.9-16.781a.867.867,0,0,0-.978-1.156Z" fill="#0057ff"/><path d="M114.616,46.752a.867.867,0,1,0-.686,1.591l16.335,7.038a.867.867,0,0,0,.686-1.592Z" fill="#0057ff"/><path d="M359.056,108.934l-3.911-2.609a1.142,1.142,0,0,0-1.529.249l-1.139,1.465a.487.487,0,0,1-.625.131l-.217-.119a18.187,18.187,0,0,1-6.094-6.095l-.119-.217a.485.485,0,0,1,.129-.626l1.464-1.139a1.143,1.143,0,0,0,.248-1.529l-2.608-3.911a1.135,1.135,0,0,0-1.531-.345l-1.636.983a2.305,2.305,0,0,0-1.052,1.365c-.589,2.146-.146,5.85,5.31,11.306,4.34,4.34,7.571,5.507,9.792,5.507a5.683,5.683,0,0,0,1.513-.2,2.3,2.3,0,0,0,1.366-1.052l.983-1.634A1.135,1.135,0,0,0,359.056,108.934Zm-.211,1.2-.981,1.636a1.664,1.664,0,0,1-.982.761c-1.981.544-5.442.093-10.68-5.144s-5.689-8.7-5.145-10.681a1.666,1.666,0,0,1,.763-.983l1.635-.981a.494.494,0,0,1,.665.149l1.416,2.127,1.19,1.784a.5.5,0,0,1-.108.663l-1.464,1.139a1.128,1.128,0,0,0-.3,1.447l.117.211a18.789,18.789,0,0,0,6.352,6.353l.212.117a1.128,1.128,0,0,0,1.447-.3l1.139-1.464a.5.5,0,0,1,.663-.108l3.911,2.609A.491.491,0,0,1,358.845,110.135Z" fill="#8e8585"/><path d="M351.188,97.248a5.481,5.481,0,0,1,5.475,5.475.322.322,0,1,0,.644,0,6.126,6.126,0,0,0-6.119-6.119.322.322,0,0,0,0,.644Z" fill="#8e8585"/><path d="M351.188,99.181a3.546,3.546,0,0,1,3.543,3.542.322.322,0,1,0,.644,0,4.193,4.193,0,0,0-4.187-4.187.323.323,0,0,0,0,.645Z" fill="#8e8585"/><path d="M351.188,101.113a1.612,1.612,0,0,1,1.611,1.61.322.322,0,1,0,.644,0,2.257,2.257,0,0,0-2.255-2.254.322.322,0,0,0,0,.644Z" fill="#8e8585"/><path d="M298.194.238a1.027,1.027,0,0,0-1.041-.164l-26.3,10.615a.519.519,0,1,0,.389.963L296.367,1.515,283.9,16.214a.519.519,0,0,0,.793.671L297.348,1.963l-1.691,8.487-1.7,11.381a.524.524,0,0,1-.26.378.493.493,0,0,1-.438.02l-7.081-2.784-3.4-1.423a.519.519,0,0,0-.68.278.5.5,0,0,0-.022.109h-.012l-1.687,6.515-2.421-8.456,12.618-9.4a.519.519,0,1,0-.62-.831L277.27,15.681l-9.142-3.7a.52.52,0,0,0-.39.963l9.191,3.719,2.451,8.556a1.032,1.032,0,0,0,.993.745h.012a1.025,1.025,0,0,0,.675-.272.48.48,0,0,0,.052-.036l5.019-5.133,6.73,2.669a1.515,1.515,0,0,0,1.335-.075,1.555,1.555,0,0,0,.783-1.127l1.7-11.36,1.87-9.379A1.046,1.046,0,0,0,298.194.238Zm-16.363,23.2,1.1-4.225,1.716.721.443.175Z" fill="#eac689"/></g></g></g></svg>