<svg id="Capa_1" data-name="Capa 1" xmlns="http://www.w3.org/2000/svg" viewBox="0 0 378 378"><defs><style>.cls-1{fill:#0072ff;stroke:#0072ff;stroke-miterlimit:10;stroke-width:10px;}</style></defs><title>cool</title><path class="cls-1" d="M322,330.7a89,89,0,0,1-132,0,8,8,0,0,0-12,10.6,105,105,0,0,0,156,0,8,8,0,0,0-12-10.6Z" transform="translate(-67 -67)"/><path class="cls-1" d="M416,152h-8.3a183.8,183.8,0,0,0-303.4,0H96a24.1,24.1,0,0,0-24,24v80c0,101.5,82.5,184,184,184s184-82.5,184-184V176A24.1,24.1,0,0,0,416,152ZM256,88a167.5,167.5,0,0,1,131.9,64H124.2A167.2,167.2,0,0,1,256,88ZM88,176a8,8,0,0,1,8-8H416a8,8,0,0,1,8,8v80a24.1,24.1,0,0,1-24,24H320a24.1,24.1,0,0,1-24-24V232a16,16,0,0,0-16-16H232a16,16,0,0,0-16,16v24a24.1,24.1,0,0,1-24,24H112a24.1,24.1,0,0,1-24-24ZM256,424c-80.9,0-148.7-57.5-164.5-133.8A39.8,39.8,0,0,0,112,296h80a40,40,0,0,0,40-40V232h48v24a40,40,0,0,0,40,40h80a39.8,39.8,0,0,0,20.5-5.8C404.7,366.5,336.9,424,256,424Z" transform="translate(-67 -67)"/></svg>