<svg xmlns="http://www.w3.org/2000/svg" xmlns:xlink="http://www.w3.org/1999/xlink" viewBox="0 0 890.9 494.5"><defs><style>.cls-1,.cls-48{fill:#fdb483;}.cls-2,.cls-41{fill:#67a1ff;}.cls-3{fill:#4dc6cc;}.cls-4{fill:#44baba;}.cls-5{fill:#b3b7d4;}.cls-6{fill:#0057ff;}.cls-7{fill:#0d537c;}.cls-8{fill:#155c8f;}.cls-9{isolation:isolate;}.cls-10{fill:#e8e8e8;}.cls-11{opacity:0.24;}.cls-12{fill:#e5e5e5;}.cls-13{fill:#f0a475;}.cls-14{clip-path:url(#clip-path);}.cls-15{fill:#4d5ba3;}.cls-16{clip-path:url(#clip-path-2);}.cls-17{clip-path:url(#clip-path-3);}.cls-18{fill:#2e77a3;}.cls-19{clip-path:url(#clip-path-4);}.cls-20{fill:#4ea89b;}.cls-21,.cls-23{opacity:0.67;}.cls-22,.cls-23,.cls-56{fill:#edf1f6;}.cls-24{fill:none;stroke:#0d537c;stroke-miterlimit:10;}.cls-25{fill:#573c37;}.cls-26{fill:#14293a;}.cls-27{clip-path:url(#clip-path-5);}.cls-28{fill:#2e7fb0;}.cls-29{fill:#f0f4f7;}.cls-30{fill:#fbaa91;}.cls-31{clip-path:url(#clip-path-6);}.cls-32{clip-path:url(#clip-path-7);}.cls-33{fill:#ef654a;}.cls-34{clip-path:url(#clip-path-8);}.cls-35{fill:#fff;}.cls-36{opacity:0.5;}.cls-36,.cls-41,.cls-48{mix-blend-mode:multiply;}.cls-37{fill:#7799f2;}.cls-38{clip-path:url(#clip-path-9);}.cls-39{fill:#6b2828;}.cls-40{clip-path:url(#clip-path-10);}.cls-41{opacity:0.3;}.cls-42{fill:#d64170;}.cls-43{fill:#628fce;}.cls-44{clip-path:url(#clip-path-11);}.cls-45{clip-path:url(#clip-path-12);}.cls-46{fill:#c23360;}.cls-47{clip-path:url(#clip-path-13);}.cls-48{opacity:0.39;}.cls-49{fill:#804d4c;}.cls-50{fill:#557ed6;}.cls-51{clip-path:url(#clip-path-14);}.cls-52{fill:#b0e7ed;}.cls-53{clip-path:url(#clip-path-15);}.cls-54{clip-path:url(#clip-path-16);}.cls-55{clip-path:url(#clip-path-17);}.cls-56{opacity:0.37;}</style><clipPath id="clip-path" transform="translate(-45.1 -322.3)"><path id="_Clipping_Path_" data-name="&lt;Clipping Path&gt;" class="cls-1" d="M770.9,649.4s6.8-16-12.6-14.7L708.6,775.5S698.9,794,695,794.2s-14.8-.5-5.2,3.5,12.8,5.4,16.4,1.2,7.9-9.8,7.9-9.8L709,805.7s16.5-21.2,6.6-29.1c0,0,54.6-67.3,51.9-96.7a13,13,0,0,1-.7-11.6c2.6-6.4,4.1-18.9,4.1-18.9"/></clipPath><clipPath id="clip-path-2" transform="translate(-45.1 -322.3)"><path id="_Clipping_Path_2" data-name="&lt;Clipping Path&gt;" class="cls-1" d="M799.8,634.6s-26-8.7-43.3,0l8.6,149.1s-1.7,20.8-5.2,22.5-13.8,5.2-3.4,5.2,13.8,0,15.6-5.2,3.4-12.1,3.4-12.1l1.8,17.3s6.9-26-5.2-29.5c0,0,24.2-83.2,10.4-109.2,0,0,45.1,1.8,45.1-5.2s-26.1-32.9-26.1-32.9"/></clipPath><clipPath id="clip-path-3" transform="translate(-45.1 -322.3)"><path id="_Clipping_Path_3" data-name="&lt;Clipping Path&gt;" class="cls-6" d="M884.8,620.7s17.3,22.6,6.9,39.9S805,672.7,805,672.7s-8.7-36.4-36.4-41.6c0,0,59-10.4,79.8-5.2A48.7,48.7,0,0,0,884.8,620.7Z"/></clipPath><clipPath id="clip-path-4" transform="translate(-45.1 -322.3)"><path id="_Clipping_Path_4" data-name="&lt;Clipping Path&gt;" class="cls-2" d="M845.6,505.2s16.3,4.1,20.4,32.6-2,54.9,22.4,87.5c0,0,4.9,30.3-56.1-.2,0,0-33.4-70-.9-113.3C831.4,511.8,839.5,513.4,845.6,505.2Z"/></clipPath><clipPath id="clip-path-5" transform="translate(-45.1 -322.3)"><path id="_Clipping_Path_5" data-name="&lt;Clipping Path&gt;" class="cls-7" d="M220.3,579.3,208.4,792.7s6.6,7.9,19.8,2.6L273,581.9l1.3,209.5s14.5,6.6,21.1,0l14.5-237.1-10.6-11.9H244.8Z"/></clipPath><clipPath id="clip-path-6" transform="translate(-45.1 -322.3)"><path id="_Clipping_Path_6" data-name="&lt;Clipping Path&gt;" class="cls-8" d="M258.5,392.3l-50.1,14.4s15.8,79.1,9.3,133.1-9.3,51.4-9.3,51.4h39.5S279.6,508.8,258.5,392.3Z"/></clipPath><clipPath id="clip-path-7" transform="translate(-45.1 -322.3)"><path id="_Clipping_Path_7" data-name="&lt;Clipping Path&gt;" class="cls-8" d="M278.3,394.3l32.2,23.6,15.8,36.9-7.9,63.3,1.3,73.7H307.9s-18.5-50-15.8-94.8S282.2,400.9,278.3,394.3Z"/></clipPath><clipPath id="clip-path-8" transform="translate(-45.1 -322.3)"><path id="_Clipping_Path_8" data-name="&lt;Clipping Path&gt;" class="cls-8" d="M208.7,406.6s-37.8,60.1-33.9,89.1,51.1,27,51.1,27-6.5-14.7,4.1-19.6c0,0-19.6-10.1-26.2-10.1,0,0,22.4-27.6,23.7-38.2S224.6,409.2,208.7,406.6Z"/></clipPath><clipPath id="clip-path-9" transform="translate(-45.1 -322.3)"><path id="_Clipping_Path_9" data-name="&lt;Clipping Path&gt;" class="cls-1" d="M421.5,771.6l-15,14.5s2.6,6.5-11.5,17.3c0,0-33.8-49.6-31.5-51.1s20.6,14.2,20.6,14.2l13.5,5.9,14.2-15.7Z"/></clipPath><clipPath id="clip-path-10" transform="translate(-45.1 -322.3)"><path id="_Clipping_Path_10" data-name="&lt;Clipping Path&gt;" class="cls-2" d="M556.2,667.6s-51.8,31.4-64,34.1c0,0-31.4,43.7-72.3,72.3l-15-15s62.7-96.8,81.8-100.9S553.5,660.8,556.2,667.6Z"/></clipPath><clipPath id="clip-path-11" transform="translate(-45.1 -322.3)"><path id="_Clipping_Path_11" data-name="&lt;Clipping Path&gt;" class="cls-1" d="M512.6,763.1l4.1,20.4s6.8,1.4,8.2,19.1c0,0-60,1.4-60-1.3s23.2-9.6,23.2-9.6l12.2-8.2-5.4-20.4Z"/></clipPath><clipPath id="clip-path-12" transform="translate(-45.1 -322.3)"><path id="_Clipping_Path_12" data-name="&lt;Clipping Path&gt;" class="cls-2" d="M624.5,648.7s-.1,36.7-135.1,23c0,0,20.5,32.8,27.3,94.1l-24.5,5.5s-45.9-93.1-38.7-132.7a3.4,3.4,0,0,1,2.7-2.8c11.1-2.2,60.7-11.6,93.2-10.4C586.2,626.7,624.5,648.7,624.5,648.7Z"/></clipPath><clipPath id="clip-path-13" transform="translate(-45.1 -322.3)"><path id="_Clipping_Path_13" data-name="&lt;Clipping Path&gt;" class="cls-1" d="M605.4,501.4l1.3,20.4s-12.3,10.9-21.8,0l1.3-17.8Z"/></clipPath><clipPath id="clip-path-14" transform="translate(-45.1 -322.3)"><path id="_Clipping_Path_14" data-name="&lt;Clipping Path&gt;" class="cls-3" d="M131.9,493.4l-6,3.8,4.3-7.8c-5-10.7-10.1-15.8-10.1-15.8a132.7,132.7,0,0,0-9.3,60.8l9.5,5.4-9-.7c3.1,27.3,13.2,45.4,13.2,45.4l8.5.6C144.9,541.1,139.1,511.1,131.9,493.4Z"/></clipPath><clipPath id="clip-path-15" transform="translate(-45.1 -322.3)"><path id="_Clipping_Path_15" data-name="&lt;Clipping Path&gt;" class="cls-4" d="M104.6,517.2l-3.7,4.7,1.1-7.3c-7-7-12.5-9.6-12.5-9.6a112.7,112.7,0,0,0,10.4,50.7l9.1,1.4-7.3,2.2c10.4,20.6,23.7,31.9,23.7,31.9l6.8-2C128.8,551,115.4,529,104.6,517.2Z"/></clipPath><clipPath id="clip-path-16" transform="translate(-45.1 -322.3)"><path id="_Clipping_Path_16" data-name="&lt;Clipping Path&gt;" class="cls-3" d="M161.4,519.3l-5.9.5,6.1-4.1c.4-9.9-1.4-15.7-1.4-15.7a111.4,111.4,0,0,0-30.3,41.8l5,7.7-6.5-3.9c-8.2,21.5-7.6,39-7.6,39l6.1,3.7C152.8,560,160,535.3,161.4,519.3Z"/></clipPath><clipPath id="clip-path-17" transform="translate(-45.1 -322.3)"><rect id="_Rectangle_" data-name="&lt;Rectangle&gt;" class="cls-5" x="106.7" y="580.7" width="37" height="30.44" rx="1.9" ry="1.9"/></clipPath></defs><title>employers</title><g class="cls-9"><g id="Layer_1" data-name="Layer 1"><polygon class="cls-5" points="775.4 360 750.6 489.2 755.9 489.2 787.8 360 775.4 360"/><polygon class="cls-5" points="832 360 856.8 489.2 851.5 489.2 819.6 360 832 360"/><path class="cls-10" d="M788.6,668.2s-12.4,15.9,44.3,14.1,70.7-1.7,76.1-15.9,15.9-99.1,24.7-102.6-10.6-12.4-15.9,7.1-12.4,90.2-35.4,92S788.6,668.2,788.6,668.2Z" transform="translate(-45.1 -322.3)"/><polygon class="cls-5" points="498.9 360 474.1 489.2 479.4 489.2 511.2 360 498.9 360"/><polygon class="cls-5" points="555.5 360 580.3 489.2 574.9 489.2 543.1 360 555.5 360"/><path class="cls-10" d="M512.1,668.2s-12.4,15.9,44.3,14.1,70.7-1.7,76-15.9,16-99.1,24.8-102.6-10.6-12.4-15.9,7.1-12.4,90.2-35.4,92S512.1,668.2,512.1,668.2Z" transform="translate(-45.1 -322.3)"/><g class="cls-11"><path class="cls-12" d="M434.8,584.3s-6.1-2.8-2.7-8.7,10.7-4,6.3-11.8-9.9-4.5-5.4-10.2,7.1.4,6.4,1.9a1.8,1.8,0,0,1-2.3.7,1.7,1.7,0,0,0,1.4-2.2c-.3-2-4.3-1.2-5,1.5s19.2,10.4,13.9,14.7-7.4,7.4-5.4,9.4-4.9,5-4.9,5Z" transform="translate(-45.1 -322.3)"/><path class="cls-12" d="M437.1,585.3s2.5-1.7,1.1-5.2-4.3-2.4-2.5-7,4-2.7,2.2-6.1-2.9.3-2.6,1.1.9.5.9.5-.7-.1-.6-1.3,1.8-.8,2.1.8-7.8,6.2-5.7,8.8,3.1,4.4,2.2,5.6,2,3,2,3Z" transform="translate(-45.1 -322.3)"/></g><path class="cls-6" d="M446.9,584H428.1a1.5,1.5,0,0,0-1.5,1.7l.7,4.9a3.8,3.8,0,0,0-2.7-.5,4.4,4.4,0,0,0-3,2.7,9.6,9.6,0,0,0-.3,4.8,8.1,8.1,0,0,0,2.2,4.3,4.4,4.4,0,0,0,3.1,1.4h.7a3.5,3.5,0,0,0,1.6-.8l.9,6.1c.1,1.4,15.9,1.4,16.1-.1l2.5-22.8A1.5,1.5,0,0,0,446.9,584ZM427,601.8a3,3,0,0,1-2.5-1,7.3,7.3,0,0,1-1.8-3.5,6.4,6.4,0,0,1,.3-3.9,3,3,0,0,1,1.9-1.9h.4a2.9,2.9,0,0,1,2.1,1,.2.2,0,0,0,.2.2l1.1,7.7A2.8,2.8,0,0,1,427,601.8Z" transform="translate(-45.1 -322.3)"/><path class="cls-13" d="M849.3,526.7c-4.9-14-13.7-11.1-13.7-11.1-13.2,5.7-26.9,61.1-26.9,61.1-9.5,6.4-54.4,18.9-54.4,18.9s-9.3-6.1-11.4-3.5-5.1,10.7-2.4,14.3,18.6-2,18.6-2c24.1-3.2,58.8-13.8,58.8-13.8S854.3,540.6,849.3,526.7Z" transform="translate(-45.1 -322.3)"/><path id="_Clipping_Path_17" data-name="&lt;Clipping Path&gt;" class="cls-1" d="M770.9,649.4s6.8-16-12.6-14.7L708.6,775.5S698.9,794,695,794.2s-14.8-.5-5.2,3.5,12.8,5.4,16.4,1.2,7.9-9.8,7.9-9.8L709,805.7s16.5-21.2,6.6-29.1c0,0,54.6-67.3,51.9-96.7a13,13,0,0,1-.7-11.6c2.6-6.4,4.1-18.9,4.1-18.9" transform="translate(-45.1 -322.3)"/><g class="cls-14"><path class="cls-15" d="M719.3,776.6h-3.4s-12.9,29.1-20.6,16.3-17.1,4.2-17.1,4.2l18,14.6,21.4,4.3,13.7-30Z" transform="translate(-45.1 -322.3)"/></g><path id="_Clipping_Path_18" data-name="&lt;Clipping Path&gt;" class="cls-1" d="M799.8,634.6s-26-8.7-43.3,0l8.6,149.1s-1.7,20.8-5.2,22.5-13.8,5.2-3.4,5.2,13.8,0,15.6-5.2,3.4-12.1,3.4-12.1l1.8,17.3s6.9-26-5.2-29.5c0,0,24.2-83.2,10.4-109.2,0,0,45.1,1.8,45.1-5.2s-26.1-32.9-26.1-32.9" transform="translate(-45.1 -322.3)"/><g class="cls-16"><path class="cls-15" d="M774.9,780l-2.6,1.7s-.8,24.8-11.9,24-14.6,6.8-14.6,6.8l18,4.3,20.5-.8,4.3-12-6-22.3Z" transform="translate(-45.1 -322.3)"/></g><path id="_Clipping_Path_19" data-name="&lt;Clipping Path&gt;" class="cls-6" d="M884.8,620.7s17.3,22.6,6.9,39.9S805,672.7,805,672.7s-8.7-36.4-36.4-41.6c0,0,59-10.4,79.8-5.2A48.7,48.7,0,0,0,884.8,620.7Z" transform="translate(-45.1 -322.3)"/><g class="cls-17"><path class="cls-18" d="M799.9,680v.3a.8.8,0,0,0,1.6,0V680a.8.8,0,0,0-1.6,0Z" transform="translate(-45.1 -322.3)"/><path class="cls-2" d="M770.7,630.4a194.5,194.5,0,0,1,34.8,4.1c.3,0,.4-.4.1-.4a194.5,194.5,0,0,0-34.9-4.1c-.2,0-.2.4,0,.4Z" transform="translate(-45.1 -322.3)"/><path class="cls-2" d="M769.9,632.1a71.4,71.4,0,0,1,20.9,4.3.2.2,0,0,0,.1-.4,72.1,72.1,0,0,0-21-4.3.2.2,0,1,0,0,.4Z" transform="translate(-45.1 -322.3)"/><path class="cls-2" d="M808.7,675.8a23.9,23.9,0,0,0-.9-20.4c-.1-.2-.4,0-.3.2a23.6,23.6,0,0,1,.8,20.1c-.1.2.3.3.4.1Z" transform="translate(-45.1 -322.3)"/><path class="cls-2" d="M814.4,672.2a39.8,39.8,0,0,0,8.8-8.1.2.2,0,0,0-.3-.3,41.9,41.9,0,0,1-8.7,8.1c-.2.1,0,.5.2.3Z" transform="translate(-45.1 -322.3)"/><path class="cls-2" d="M831.7,628.1l19.6,7.1a.2.2,0,0,0,.2-.4l-19.7-7.1a.2.2,0,0,0-.1.4Z" transform="translate(-45.1 -322.3)"/><path class="cls-2" d="M813.2,631.1a391.7,391.7,0,0,0,51.6,8.8c.2,0,.2-.4,0-.4a387.4,387.4,0,0,1-51.5-8.8c-.3,0-.4.3-.1.4Z" transform="translate(-45.1 -322.3)"/></g><path class="cls-1" d="M809,446.2c0,2.1-8.1,46.8,10.2,52.9s26.4-20.3,26.4-20.3l-12.2-28.5Z" transform="translate(-45.1 -322.3)"/><polygon class="cls-1" points="786.3 166.6 786.3 197.2 804.6 187 799.1 153.2 786.3 166.6"/><path id="_Clipping_Path_20" data-name="&lt;Clipping Path&gt;" class="cls-2" d="M845.6,505.2s16.3,4.1,20.4,32.6-2,54.9,22.4,87.5c0,0,4.9,30.3-56.1-.2,0,0-33.4-70-.9-113.3C831.4,511.8,839.5,513.4,845.6,505.2Z" transform="translate(-45.1 -322.3)"/><g class="cls-19"><path class="cls-20" d="M820.6,608.3a.8.8,0,0,0,0-1.6.8.8,0,0,0,0,1.6Z" transform="translate(-45.1 -322.3)"/><g class="cls-21"><path class="cls-22" d="M830.6,623.8a125.1,125.1,0,0,0,20,5.2" transform="translate(-45.1 -322.3)"/></g><g class="cls-21"><path class="cls-22" d="M832,622.8a53.2,53.2,0,0,0,12.6-1.8" transform="translate(-45.1 -322.3)"/></g><g class="cls-21"><path class="cls-22" d="M886.5,617.9c1.1,2,.6,4.5-.4,6.5a17.5,17.5,0,0,1-10.9,9.2" transform="translate(-45.1 -322.3)"/></g><g class="cls-21"><path class="cls-22" d="M827.9,515c4,.6,8.1,1.1,12.1.3s7.9-2.8,9.9-6.3" transform="translate(-45.1 -322.3)"/></g><path class="cls-23" d="M823,605.3c1.7-1.6,43.6-54.8,38.6-65.8s-44.3,57.6-44.3,57.6Z" transform="translate(-45.1 -322.3)"/></g><path class="cls-7" d="M809.2,446.2s10.9,24.6,33.3,25.2c0,0-2.5,39.9,4.3,45s19.4,13.8,20,28.3c0,0,28.8-24.9,7.4-44.5s-6.9-46.3-20.5-54c0,0-27.4-20.5-42-14.5s-12.6,25.3-4.2,28.5C807.5,460.2,808.3,450.5,809.2,446.2Z" transform="translate(-45.1 -322.3)"/><path class="cls-1" d="M861.8,534c-3.9-15.9-13.8-13.7-13.8-13.7-15.1,4.8-36.3,63.7-36.3,63.7-11.1,6-61.6,14.6-61.6,14.6s-9.4-7.7-12-5.2-6.8,11.2-4.3,15.4,20.6,0,20.6,0c26.7-.8,65.9-8.5,65.9-8.5S865.6,549.8,861.8,534Z" transform="translate(-45.1 -322.3)"/><path class="cls-1" d="M847.9,477.5c-1.3,3.1-4.1,4.9-6.3,4s-2.9-4.2-1.6-7.3,4.1-4.8,6.3-3.9S849.2,474.4,847.9,477.5Z" transform="translate(-45.1 -322.3)"/><path class="cls-24" d="M808.3,444.5s16,41.1,33.7,26.1" transform="translate(-45.1 -322.3)"/><path class="cls-7" d="M819.6,470.9a6.2,6.2,0,0,0-7.2-3.1c-.4.1-.7-.5-.3-.6a7,7,0,0,1,8.1,3.4c.2.4-.4.6-.6.3Z" transform="translate(-45.1 -322.3)"/><path class="cls-25" d="M820.2,487.3a7.3,7.3,0,0,1-1.7,3.1c-1.7,2-4.1,2.5-6.6,2.3-.4-.1-.3-.7.2-.7,3.3.3,6.7-1.4,7.4-4.9a.4.4,0,0,1,.7.2Z" transform="translate(-45.1 -322.3)"/><path class="cls-26" d="M274.3,791.4S269,798,269,809.8h56.7s3.9,0,2.6-2.6-22.4-4-26.3-6.6-8-10.5-8-10.5Z" transform="translate(-45.1 -322.3)"/><path id="_Clipping_Path_21" data-name="&lt;Clipping Path&gt;" class="cls-7" d="M220.3,579.3,208.4,792.7s6.6,7.9,19.8,2.6L273,581.9l1.3,209.5s14.5,6.6,21.1,0l14.5-237.1-10.6-11.9H244.8Z" transform="translate(-45.1 -322.3)"/><g class="cls-27"><path class="cls-28" d="M203,577a.8.8,0,0,0,0-1.5.8.8,0,0,0,0,1.5Z" transform="translate(-45.1 -322.3)"/><path class="cls-28" d="M266.5,582.1a141.3,141.3,0,0,1,16.4-11.4c.2-.1,0-.4-.2-.3a133.2,133.2,0,0,0-16.4,11.4c-.2.2,0,.5.2.3Z" transform="translate(-45.1 -322.3)"/><path class="cls-28" d="M264.5,586.7a169,169,0,0,0,15.1-8.2c.2-.2,0-.5-.2-.4a147.8,147.8,0,0,1-15.1,8.3c-.2.1,0,.4.2.3Z" transform="translate(-45.1 -322.3)"/><path class="cls-28" d="M280.9,548.7c-1.6,2.4-.6,5.8-.9,8.5-.4,5.7-2,11-5.8,15.4a.2.2,0,0,0,.3.3,24.3,24.3,0,0,0,5-9.7,31.5,31.5,0,0,0,.9-5.2c.2-2.7-.7-6.8.8-9.1.2-.2-.2-.4-.3-.2Z" transform="translate(-45.1 -322.3)"/><path class="cls-28" d="M270.7,549.7a108.2,108.2,0,0,1-2.3,27.8c0,.2.4.3.4.1a113.6,113.6,0,0,0,2.3-27.9c0-.2-.4-.2-.4,0Z" transform="translate(-45.1 -322.3)"/><path class="cls-28" d="M253.7,553.5a509.1,509.1,0,0,1,52.4-1.1c.2,0,.2-.4,0-.4-17.5-.5-34.9-.1-52.4,1.1-.2,0-.2.4,0,.4Z" transform="translate(-45.1 -322.3)"/><path class="cls-28" d="M214.8,793q1.5-55.9,5.7-111.7,2.1-27.6,4.8-55.2c.9-9.2,1.9-18.4,2.9-27.6s2.5-17.9,2.7-26.8a.2.2,0,1,0-.4,0c-.1,8.6-1.6,17.3-2.6,25.8s-2,18.4-2.9,27.6q-2.9,28-4.9,56.2-4.2,55.8-5.7,111.7c0,.2.4.2.4,0Z" transform="translate(-45.1 -322.3)"/><path class="cls-28" d="M277.4,590.3a118.4,118.4,0,0,0,6.5,17.5c.1.3.4.1.3-.2a116.8,116.8,0,0,1-6.4-17.4c0-.3-.4-.2-.4.1Z" transform="translate(-45.1 -322.3)"/><path class="cls-28" d="M298,563.5h.1a.2.2,0,1,0-.4,0c0,.4.7.5.7.1a.2.2,0,0,0-.4-.2Z" transform="translate(-45.1 -322.3)"/><path class="cls-28" d="M297.8,563.5c-.8,13.1,1.8,25.8,6.7,37.9,1,2.5,2.1,6.9,5.1,7.8a2.8,2.8,0,0,0,3.7-2.9.2.2,0,1,0-.4,0c-3.4,1.6-5.5,1.2-6.3-1a28.3,28.3,0,0,1-1.7-4c-.7-1.7-1.4-3.4-2-5.2s-2-6.5-2.8-9.8a79.4,79.4,0,0,1-1.9-22.8c0-.2-.4-.2-.4,0Z" transform="translate(-45.1 -322.3)"/><path class="cls-28" d="M216.9,605.5c15.4.5,22.9-18.8,21.2-31.8-.1-.2-.5-.1-.4.1,1.7,12.7-5.6,31.8-20.8,31.3-.2,0-.2.4,0,.4Z" transform="translate(-45.1 -322.3)"/><path class="cls-28" d="M294.9,677.8a44.8,44.8,0,0,1,8.2,6.1c.2.2.4-.1.3-.2a41.8,41.8,0,0,0-8.3-6.2c-.2-.1-.4.2-.2.3Z" transform="translate(-45.1 -322.3)"/><path class="cls-28" d="M294.9,685.6l3.3,2.1c.2.1.4-.2.2-.4l-3.3-2c-.2-.2-.4.2-.2.3Z" transform="translate(-45.1 -322.3)"/><path class="cls-28" d="M227.3,753.5l5.3-5.8c.2-.1-.1-.4-.3-.2l-5.3,5.7a.2.2,0,0,0,.3.3Z" transform="translate(-45.1 -322.3)"/><path class="cls-28" d="M229.7,760l4.9-4.5c.2-.2,0-.4-.2-.3l-4.9,4.5c-.2.2.1.5.2.3Z" transform="translate(-45.1 -322.3)"/></g><path class="cls-8" d="M341.4,499.1s-5.2-22.5-11.8-25.2-5.3,19.8-5.3,19.8Z" transform="translate(-45.1 -322.3)"/><path class="cls-29" d="M284.2,395.6l-25.7-3.3L246,420.6l-4,118.5,7.9,9.3h55.3l-7.9-101.5S290.8,400.8,284.2,395.6Z" transform="translate(-45.1 -322.3)"/><path class="cls-30" d="M278.2,396.2s2.7,6.6-5.2,7.9-14.5-9.2-14.5-9.2l-1.3-17.1Z" transform="translate(-45.1 -322.3)"/><path id="_Clipping_Path_22" data-name="&lt;Clipping Path&gt;" class="cls-8" d="M258.5,392.3l-50.1,14.4s15.8,79.1,9.3,133.1-9.3,51.4-9.3,51.4h39.5S279.6,508.8,258.5,392.3Z" transform="translate(-45.1 -322.3)"/><g class="cls-31"><path class="cls-8" d="M224.5,398.9c-.7-5.8-1.4-11.6-2.2-17.4-.1-1-1.6-1-1.5,0,.7,5.8,1.4,11.6,2.2,17.4.1,1,1.6,1,1.5,0Z" transform="translate(-45.1 -322.3)"/><path class="cls-28" d="M254.4,393.9c-6.3,7.8-12.9,15.4-19.9,22.6a.6.6,0,0,0,.1.4c3.2.5,13.6.9,14.8,3.8s-1.8,5.1-2.7,6.8-2.6,5-4,7.5-3.7,5.1-3.1,7.6,2.4,5,3.3,7.5,1.7,5.3,2.5,8q9.9,31.5,17.7,63.8a.2.2,0,0,0,.4-.1c-4.4-18-9.2-35.9-14.6-53.6-2.2-7.6-4.2-15.6-7.4-22.9-2.3-4.9.6-8.2,2.9-12.6l6.6-12.5c.1-.1.1-.3-.1-.3-3.5-1-7.1-1.8-10.7-2.5-1.4-.2-4.1,0-4.1-1.9s3.5-3.7,3.9-4.2c5.1-5.5,10-11.3,14.7-17.1a.2.2,0,0,0-.3-.3Z" transform="translate(-45.1 -322.3)"/><path class="cls-28" d="M220,475.4a6.8,6.8,0,0,0,3.1-2.7c.2-.3-.2-.5-.3-.2a7.6,7.6,0,0,1-3,2.6c-.2.1,0,.4.2.3Z" transform="translate(-45.1 -322.3)"/><path class="cls-28" d="M220.8,477.7a15.7,15.7,0,0,1,5.7-.4c.2,0,.2-.4,0-.4a18.7,18.7,0,0,0-5.8.4c-.2,0-.1.4.1.4Z" transform="translate(-45.1 -322.3)"/><path class="cls-28" d="M219.6,539.8c7.2,1.9,14.4,3.6,21.7,1.5.2-.1.1-.5-.1-.4-7.2,2.1-14.4.4-21.5-1.5a.2.2,0,0,0-.1.4Z" transform="translate(-45.1 -322.3)"/><path class="cls-28" d="M220.1,544.6a45.3,45.3,0,0,0,18.7.3c.2,0,.1-.4-.1-.3a48,48,0,0,1-18.5-.3c-.2-.1-.3.3-.1.3Z" transform="translate(-45.1 -322.3)"/><path class="cls-28" d="M238.9,540.7c1.8,6.5-.4,13-4,18.6-1.8,2.7-4,5.5-6.9,7.1-5,2.7-12,1.4-13.4-4.7-.1-.3-.4-.2-.4.1,1.8,7.6,10.6,7.7,15.9,3.6,7-5.5,11.5-16.2,9.2-24.8,0-.3-.4-.2-.4.1Z" transform="translate(-45.1 -322.3)"/></g><path id="_Clipping_Path_23" data-name="&lt;Clipping Path&gt;" class="cls-8" d="M278.3,394.3l32.2,23.6,15.8,36.9-7.9,63.3,1.3,73.7H307.9s-18.5-50-15.8-94.8S282.2,400.9,278.3,394.3Z" transform="translate(-45.1 -322.3)"/><g class="cls-32"><path class="cls-28" d="M307.7,409.8a.8.8,0,0,0,0-1.6.8.8,0,0,0,0,1.6Z" transform="translate(-45.1 -322.3)"/><path class="cls-28" d="M285.8,400.4a196.9,196.9,0,0,0,6.2,18.8c.9,2.4,1.8,4.7,2.9,7,.2.7,2.2,3.6,1.9,4.3s-2.9,1.1-4.6.9c-.2,0-.2.2-.1.4,4.5,4.9,9.4,8.6,8.5,16-.5,4.8-2.1,9.6-3.1,14.3-2.1,9.7-4.3,19.5-6.4,29.3-.1.3.3.4.4.1,2.7-12.6,5.5-25.2,8.3-37.9.7-3.4,3.1-8.6,1.7-11.9s-3.3-3.8-4.8-5.5c-3-3.3-4.4-4.4,1.1-3.9.1.1.2-.1.1-.2a202.2,202.2,0,0,1-11.7-31.8c-.1-.3-.4-.2-.4.1Z" transform="translate(-45.1 -322.3)"/><path class="cls-28" d="M307.3,423.9a78.6,78.6,0,0,0,3.6,40.2c0,.2.4.1.3-.1a78.9,78.9,0,0,1-3.5-40c0-.2-.4-.3-.4-.1Z" transform="translate(-45.1 -322.3)"/><path class="cls-28" d="M302.9,419.8l3-2.5c.2-.1-.1-.4-.2-.3l-3,2.5c-.2.2.1.4.2.3Z" transform="translate(-45.1 -322.3)"/><path class="cls-28" d="M303.9,422l1.7-.6a.2.2,0,0,0-.1-.4l-1.7.6c-.2.1-.1.5.1.4Z" transform="translate(-45.1 -322.3)"/><path class="cls-28" d="M309.1,543.8a104,104,0,0,1,11.2-.3c.2.1.2-.3,0-.3a83.5,83.5,0,0,0-11.2.2.2.2,0,1,0,0,.4Z" transform="translate(-45.1 -322.3)"/><path class="cls-28" d="M308.3,550.7l12.3-2c.2,0,.1-.4-.1-.4l-12.3,2c-.2,0-.1.4.1.4Z" transform="translate(-45.1 -322.3)"/><path class="cls-28" d="M309,543.9c-3,6.6,2.3,14.4,6.6,19.2s11.4,8.7,12.9,1.1c0-.3-.3-.4-.4-.1-1.6,8.5-9.8,1.3-11.7-.7a35.1,35.1,0,0,1-4-5.3c-2.6-4.2-5.4-9-3.1-14,.1-.2-.2-.4-.3-.2Z" transform="translate(-45.1 -322.3)"/><path class="cls-28" d="M312.1,588.6l12.5-.3a.2.2,0,1,0,0-.4l-12.5.3a.2.2,0,1,0,0,.4Z" transform="translate(-45.1 -322.3)"/></g><polygon class="cls-33" points="289.6 125.1 250.3 150.3 197.6 150.3 194.9 213.5 252.8 217.6 285.8 196.4 289.6 125.1"/><path class="cls-30" d="M231.6,503.4l3.6-1.8,6.5-2-.3,5.6,5.2.5s5.8,16.5-5.9,17-16.7-3.1-16.7-3.1S220.8,505.2,231.6,503.4Z" transform="translate(-45.1 -322.3)"/><path class="cls-30" d="M332.5,488.2a35.2,35.2,0,0,1,3.7,5.5c1.3,2.6,7.9,5.3,5.3,9.2,0,0,3.9,6.6,0,7.9s-10.6,5.3-14.5,2.6S326.2,495.8,332.5,488.2Z" transform="translate(-45.1 -322.3)"/><path class="cls-30" d="M305.2,352.1s-5.2,31.6-22.3,38.2c0,0-27.7-1.3-21.1-23.7,0,0-9.2,1.3-9.2-5.3s9.2-14.5,13.1-1.3l7.9-23.7Z" transform="translate(-45.1 -322.3)"/><path class="cls-6" d="M267.2,355.6s1.7,23.7,27.8,23.9c0,0-1.6,14.7-2.9,16.1s-7.9,5.2-15.8,3.9-22.4-19.8-21.1-23.7S264.7,363,267.2,355.6Z" transform="translate(-45.1 -322.3)"/><path class="cls-6" d="M303.9,358.2s11.2-2.8,11.2-12-17.1-22.4-30.3-23.8a25.8,25.8,0,0,0-21,7.9l-5.3,22.4s6.6,1.4,6.6,7.9c0,0,11.8-7.9,15.8-14.4C280.9,346.2,287.4,355.8,303.9,358.2Z" transform="translate(-45.1 -322.3)"/><path class="cls-26" d="M200.3,808.9h36.9s-1.3-6.5-3.9-9.2-4-7.9-10.6-9.2a16.7,16.7,0,0,0-18.4,9.2S200.3,803.7,200.3,808.9Z" transform="translate(-45.1 -322.3)"/><path id="_Clipping_Path_24" data-name="&lt;Clipping Path&gt;" class="cls-8" d="M208.7,406.6s-37.8,60.1-33.9,89.1,51.1,27,51.1,27-6.5-14.7,4.1-19.6c0,0-19.6-10.1-26.2-10.1,0,0,22.4-27.6,23.7-38.2S224.6,409.2,208.7,406.6Z" transform="translate(-45.1 -322.3)"/><g class="cls-34"><path class="cls-28" d="M190.5,433.5a.8.8,0,0,0,0-1.5.8.8,0,0,0,0,1.5Z" transform="translate(-45.1 -322.3)"/><path class="cls-28" d="M209.4,409.1a50.8,50.8,0,0,1,9.2,49.5c-.1.3.3.4.3.2a50.8,50.8,0,0,0-9.2-49.9c-.2-.2-.5,0-.3.2Z" transform="translate(-45.1 -322.3)"/><path class="cls-28" d="M217.8,472.8c.2-2.9.4-5.8.4-8.7a.2.2,0,1,0-.4,0,84.4,84.4,0,0,1-.4,8.7c-.1.3.3.3.4,0Z" transform="translate(-45.1 -322.3)"/><path class="cls-28" d="M203.2,492.2a12.9,12.9,0,0,0-12.2,1c-.2.1,0,.4.2.3a12.4,12.4,0,0,1,11.8-1c.2.1.4-.2.2-.3Z" transform="translate(-45.1 -322.3)"/><path class="cls-28" d="M195.7,487.8a16.4,16.4,0,0,1,6.1,2.1c.2.1.4-.2.2-.3a16.4,16.4,0,0,0-6.3-2.2.2.2,0,1,0,0,.4Z" transform="translate(-45.1 -322.3)"/><path class="cls-28" d="M224.7,503.4a11.1,11.1,0,0,0-4.2,14.8c.1.2.5,0,.4-.2a10.8,10.8,0,0,1,4-14.3c.2-.1,0-.5-.2-.3Z" transform="translate(-45.1 -322.3)"/><path class="cls-28" d="M220.3,502.8v.5a.2.2,0,1,0,.4,0v-.5a.2.2,0,1,0-.4,0Z" transform="translate(-45.1 -322.3)"/></g><path class="cls-6" d="M279.4,361.1a6.2,6.2,0,0,1,7.6.4c.3.3.8-.1.5-.4a6.8,6.8,0,0,0-8.5-.4c-.4.2.1.7.4.4Z" transform="translate(-45.1 -322.3)"/><path class="cls-6" d="M296.7,363.3a4.2,4.2,0,0,1,3.1,4.3.2.2,0,1,0,.4,0,4.5,4.5,0,0,0-3.4-4.7c-.2-.1-.4.3-.1.4Z" transform="translate(-45.1 -322.3)"/><path class="cls-35" d="M273.3,381.7a6.6,6.6,0,0,0,1.6,3.1,7.4,7.4,0,0,0,6.4,2.1c.4,0,.2-.7-.2-.6-3.2.3-6.5-1.4-7.2-4.7-.1-.4-.7-.3-.6.1Z" transform="translate(-45.1 -322.3)"/><g class="cls-36"><path class="cls-37" d="M720,513.9c.2,0,.2-.4,0-.4a.2.2,0,1,0,0,.4Z" transform="translate(-45.1 -322.3)"/></g><path id="_Clipping_Path_25" data-name="&lt;Clipping Path&gt;" class="cls-1" d="M421.5,771.6l-15,14.5s2.6,6.5-11.5,17.3c0,0-33.8-49.6-31.5-51.1s20.6,14.2,20.6,14.2l13.5,5.9,14.2-15.7Z" transform="translate(-45.1 -322.3)"/><g class="cls-38"><path class="cls-39" d="M408.3,787.4c-.4-1.8-.7-2.5-8.6-1.2s.6-14.1-3-16.6-35.1-21.2-35.1-21.2l-2.8,7.7,36.3,51.5S410.4,796.7,408.3,787.4Z" transform="translate(-45.1 -322.3)"/></g><path id="_Clipping_Path_26" data-name="&lt;Clipping Path&gt;" class="cls-2" d="M556.2,667.6s-51.8,31.4-64,34.1c0,0-31.4,43.7-72.3,72.3l-15-15s62.7-96.8,81.8-100.9S553.5,660.8,556.2,667.6Z" transform="translate(-45.1 -322.3)"/><g class="cls-40"><path class="cls-41" d="M547.3,677.3s-48.2,0-52.3-1.7,13.9,15.6,14.7,30.3-40.9,33.5-40.9,33.5-21.2-66.2-16.3-69.5S534.3,657.6,547.3,677.3Z" transform="translate(-45.1 -322.3)"/><path class="cls-42" d="M434.9,701.4a.8.8,0,0,0,0-1.6.8.8,0,0,0,0,1.6Z" transform="translate(-45.1 -322.3)"/><path class="cls-43" d="M402,753.5c.3-1,10.3,7.1,11.1,7.7l9.8,8L442.5,785c.2.2.4-.1.2-.3l-23.3-18.9-11.3-9.1c-1.7-1.4-3.7-4.2-6.1-4a.2.2,0,0,0-.2.2l-.2.5a.2.2,0,0,0,.4.1Z" transform="translate(-45.1 -322.3)"/></g><path id="_Clipping_Path_27" data-name="&lt;Clipping Path&gt;" class="cls-1" d="M512.6,763.1l4.1,20.4s6.8,1.4,8.2,19.1c0,0-60,1.4-60-1.3s23.2-9.6,23.2-9.6l12.2-8.2-5.4-20.4Z" transform="translate(-45.1 -322.3)"/><g class="cls-44"><path class="cls-39" d="M518.7,782.8c-1.7-.7-2.4-.8-5.7,6.5s-11.5-8.2-15.5-6.5-36.8,18-36.8,18l4.9,6.5,62.9-2.4S527.7,786,518.7,782.8Z" transform="translate(-45.1 -322.3)"/></g><path class="cls-6" d="M602.6,519l4.1,2.8s15,0,27.3,5.4c0,0,0,110.5-10.9,124.1,0,0-61.4-2.7-85.9-25.9,0,0,13.6-98.2,20.4-102.3s31.4-1.3,31.4-1.3Z" transform="translate(-45.1 -322.3)"/><path id="_Clipping_Path_28" data-name="&lt;Clipping Path&gt;" class="cls-2" d="M624.5,648.7s-.1,36.7-135.1,23c0,0,20.5,32.8,27.3,94.1l-24.5,5.5s-45.9-93.1-38.7-132.7a3.4,3.4,0,0,1,2.7-2.8c11.1-2.2,60.7-11.6,93.2-10.4C586.2,626.7,624.5,648.7,624.5,648.7Z" transform="translate(-45.1 -322.3)"/><g class="cls-45"><path class="cls-46" d="M519.7,727.6l-1.6-.4c-1-.2-1.4,1.3-.4,1.5l1.6.4a.8.8,0,1,0,.4-1.5Z" transform="translate(-45.1 -322.3)"/><path class="cls-43" d="M488.5,765.9c13.1-4,26.3-7.4,39.7-10.4.2-.1.1-.5-.1-.4-13.4,3-26.6,6.5-39.7,10.4-.2.1-.1.5.1.4Z" transform="translate(-45.1 -322.3)"/><path class="cls-43" d="M544,625.9l16,4.1c.2,0,.3-.4.1-.4l-16-4c-.2-.1-.3.3-.1.3Z" transform="translate(-45.1 -322.3)"/><path class="cls-43" d="M552.2,632.9l5.7,1.6c.3.1.4-.3.1-.4l-5.7-1.6c-.2-.1-.3.3-.1.4Z" transform="translate(-45.1 -322.3)"/><path class="cls-43" d="M556.3,626.8a102,102,0,0,1,77.7,46c.2.2.5,0,.4-.2a102.6,102.6,0,0,0-78.1-46.2c-.2,0-.2.4,0,.4Z" transform="translate(-45.1 -322.3)"/><path class="cls-43" d="M612.3,641.6c-11.9,3.6-24.3,8.1-33.4,17-3.4,3.4-7.7,8.1-7.7,13.3s2.6,6.7,6.4,6.7a.2.2,0,1,0,0-.4c-8.5,0-6-9-3.7-12.8a30.9,30.9,0,0,1,4.8-6,51.4,51.4,0,0,1,10.1-7.8c7.4-4.4,15.5-7.2,23.6-9.6.3-.1.2-.5-.1-.4Z" transform="translate(-45.1 -322.3)"/><path class="cls-43" d="M589.7,646.5c7.8,5.8,15.8,12,19.2,21.4.1.3.5.2.4-.1-3.5-9.5-11.5-15.8-19.4-21.6-.2-.2-.4.1-.2.3Z" transform="translate(-45.1 -322.3)"/><path class="cls-43" d="M591.4,642.7c8.7,4.3,22.1,11.9,21.5,23.1a.2.2,0,1,0,.4,0c.6-11.4-12.9-19.1-21.7-23.4-.2-.1-.4.2-.2.3Z" transform="translate(-45.1 -322.3)"/><path class="cls-43" d="M490.6,668.2a33,33,0,0,1-3.6-7.3c0-.3-.4-.2-.3.1a29.5,29.5,0,0,0,3.5,7.4c.2.3.5.1.4-.2Z" transform="translate(-45.1 -322.3)"/><path class="cls-43" d="M487.4,669.7l-5.7-4.9c-.2-.1-.5.1-.3.3l5.8,4.9c.2.1.4-.1.2-.3Z" transform="translate(-45.1 -322.3)"/></g><path id="_Clipping_Path_29" data-name="&lt;Clipping Path&gt;" class="cls-1" d="M605.4,501.4l1.3,20.4s-12.3,10.9-21.8,0l1.3-17.8Z" transform="translate(-45.1 -322.3)"/><g class="cls-47"><path class="cls-48" d="M579.4,514.3s20.9,2.5,23.4-9.8S579.4,514.3,579.4,514.3Z" transform="translate(-45.1 -322.3)"/></g><path class="cls-1" d="M645.5,589.8s-5.2-8-10.6-17.6c7.1-7.7,17.4-8.2,22.1-8,4.9,12,9.3,25.1,11.4,36.2,0,0-6.6,18-74.4,9.8l-4.9-10.6S631.6,597.1,645.5,589.8Z" transform="translate(-45.1 -322.3)"/><path class="cls-6" d="M634,576.7c-6.4-11.3-12.3-29.4-11.4-35.2,1.6-10.6,4.9-12.3,4.9-12.3s4.9-5.7,11.4.9c3.8,3.7,15.4,22.1,22.1,38.4C656.4,568.3,641.2,569,634,576.7Z" transform="translate(-45.1 -322.3)"/><path class="cls-15" d="M597.4,605.2l-21.9-54.3a4.9,4.9,0,0,0-4.5-3H478.4a3.4,3.4,0,0,0-3.1,4.7L500.6,612H634.2l-1.2-4.8Z" transform="translate(-45.1 -322.3)"/><path class="cls-15" d="M750.3,605.2l-22-54.3a4.8,4.8,0,0,0-4.4-3H631.3a3.4,3.4,0,0,0-3.1,4.7L653.5,612H787.1l-1.2-4.8Z" transform="translate(-45.1 -322.3)"/><path class="cls-1" d="M575.2,459.6s-15.4,45.1,5.7,50.8,30.3-15.5,30.3-15.5l.2-30.1Z" transform="translate(-45.1 -322.3)"/><path class="cls-49" d="M603.7,505.9s32.9-14.6,20.4-35.6c0,0,1.8-15.7-15.9-18.9,0,0-21.9-21.5-21.9-6.1,0,0-17.6-7.8-14.9,8,0,0-15.8-.1-2.8,12.1a39.8,39.8,0,0,0,37.7,6.2s-7.6,8.6-4,18.8C602.3,490.4,600,500.2,603.7,505.9Z" transform="translate(-45.1 -322.3)"/><path class="cls-1" d="M601.8,490.7c-1.8,3.5-1,7.5,1.9,9s6.7-.2,8.5-3.7.9-7.5-2-9S603.6,487.2,601.8,490.7Z" transform="translate(-45.1 -322.3)"/><path class="cls-49" d="M607.7,470.1c0,.3-.1.4-.1.6l-.3.4-.5.6-1.3,1a8.4,8.4,0,0,1-1.4.6l-1.4.6a41.6,41.6,0,0,1-5.9,1.3l-3,.3-3,.3-5.9.2a58.7,58.7,0,0,0,5.9-.5l3-.4,2.9-.5a28.2,28.2,0,0,0,5.7-1.5l1.4-.5,1.2-.7a4.8,4.8,0,0,0,1.1-.9l.4-.4c0-.1.1-.2.1-.3v-.2Z" transform="translate(-45.1 -322.3)"/><path class="cls-49" d="M622.4,469.7a3.9,3.9,0,0,0,1.8-.6,5,5,0,0,0,1.4-1.5,7,7,0,0,0,.8-2l.2-1.1v1.1a5.5,5.5,0,0,1-.6,2.2,5,5,0,0,1-1.3,1.9,5.1,5.1,0,0,1-2.2,1.1Z" transform="translate(-45.1 -322.3)"/><path class="cls-49" d="M621.3,468.8a7.8,7.8,0,0,0,1.5,1,6.1,6.1,0,0,0,1.8.5,4.5,4.5,0,0,0,2-.1,4.8,4.8,0,0,0,1.8-.8,10.8,10.8,0,0,1-1.8,1.1,6.8,6.8,0,0,1-4,0,8.8,8.8,0,0,1-2-.9Z" transform="translate(-45.1 -322.3)"/><path class="cls-49" d="M591.4,484.5a6.4,6.4,0,0,0-5.9-5.2c-.4,0-.4-.7,0-.7a7,7,0,0,1,6.6,5.9c0,.4-.6.4-.7,0Z" transform="translate(-45.1 -322.3)"/><path class="cls-49" d="M576.7,477.7a4.3,4.3,0,0,0-5.1,2c-.2.2-.6,0-.4-.3a4.9,4.9,0,0,1,5.6-2.2c.3.1.1.6-.1.5Z" transform="translate(-45.1 -322.3)"/><path class="cls-25" d="M585.9,500a7.8,7.8,0,0,1-2.7,2.4c-2.2,1.3-4.6,1-6.9,0a.3.3,0,0,1,.3-.6c3.1,1.4,6.8.9,8.7-2.2.2-.4.8,0,.6.4Z" transform="translate(-45.1 -322.3)"/><path class="cls-50" d="M631.7,571.7l-2.8-2.7c-.2-.2-.5.1-.3.2l2.8,2.7c.2.2.5-.1.3-.2Z" transform="translate(-45.1 -322.3)"/><path class="cls-50" d="M629,573.4l-5.9-3.8c-.2-.2-.4.2-.2.3l5.9,3.9c.2.1.4-.2.2-.4Z" transform="translate(-45.1 -322.3)"/><path class="cls-50" d="M574,626.6a130.3,130.3,0,0,1,50.1,16c.3.2.5-.2.2-.3A129.7,129.7,0,0,0,574,626.2a.2.2,0,1,0,0,.4Z" transform="translate(-45.1 -322.3)"/><path class="cls-50" d="M582,523.1c3,3.5,7.1,7,12,7.3s9.9-2.7,14.2-5.4c.2-.2,0-.5-.2-.4-4.2,2.8-8.7,5.7-14,5.3s-8.6-3.5-11.7-7.1c-.2-.2-.4.1-.3.3Z" transform="translate(-45.1 -322.3)"/><path class="cls-50" d="M635.4,572.5c5-6.3,14.6-6.2,21.9-6.5a.2.2,0,1,0,0-.4c-7.4.3-17.1.3-22.2,6.6-.1.2.1.5.3.3Z" transform="translate(-45.1 -322.3)"/><path id="_Clipping_Path_30" data-name="&lt;Clipping Path&gt;" class="cls-3" d="M131.9,493.4l-6,3.8,4.3-7.8c-5-10.7-10.1-15.8-10.1-15.8a132.7,132.7,0,0,0-9.3,60.8l9.5,5.4-9-.7c3.1,27.3,13.2,45.4,13.2,45.4l8.5.6C144.9,541.1,139.1,511.1,131.9,493.4Z" transform="translate(-45.1 -322.3)"/><g class="cls-51"><path class="cls-52" d="M120.9,492.1c1,27.2,3.3,54.4,6.9,81.4,1.1,7.6,2.2,15.3,3.4,23a.3.3,0,1,0,.5-.2q-6.4-40-9.1-80.6c-.5-7.8-.9-15.7-1.2-23.5,0-.4-.5-.4-.5-.1Z" transform="translate(-45.1 -322.3)"/><path class="cls-52" d="M122.8,518.8a100.3,100.3,0,0,1,10-10.6c.2-.3-.1-.7-.4-.4a113.9,113.9,0,0,0-10.1,10.7c-.2.2.3.5.5.3Z" transform="translate(-45.1 -322.3)"/><path class="cls-52" d="M127,560.4c3.1-4.4,6.1-8.8,9-13.3a.3.3,0,1,0-.4-.3c-2.9,4.5-5.9,8.9-9,13.3a.3.3,0,1,0,.4.3Z" transform="translate(-45.1 -322.3)"/><path class="cls-52" d="M124.4,535.6a80.5,80.5,0,0,1,7.4-9c.2-.3-.1-.7-.4-.4-2.6,2.9-5.1,5.9-7.5,9.1-.2.2.3.5.5.3Z" transform="translate(-45.1 -322.3)"/><path class="cls-52" d="M121.9,505.5l-7.6-4.1c-.2-.2-.6.3-.3.4l7.6,4.2c.3.1.6-.3.3-.5Z" transform="translate(-45.1 -322.3)"/><path class="cls-52" d="M123.3,529.2l-8.8-5.1c-.3-.1-.6.3-.3.5l8.8,5c.3.2.6-.3.3-.4Z" transform="translate(-45.1 -322.3)"/><path class="cls-52" d="M128.5,575a40.4,40.4,0,0,0-7.6-3.5.3.3,0,1,0-.1.5,45.3,45.3,0,0,1,7.4,3.4.3.3,0,1,0,.3-.4Z" transform="translate(-45.1 -322.3)"/><path class="cls-52" d="M125.5,552.3a100.9,100.9,0,0,1-13.7-6.5.3.3,0,1,0-.3.4,117.8,117.8,0,0,0,13.9,6.6.3.3,0,1,0,.1-.5Z" transform="translate(-45.1 -322.3)"/></g><path id="_Clipping_Path_31" data-name="&lt;Clipping Path&gt;" class="cls-4" d="M104.6,517.2l-3.7,4.7,1.1-7.3c-7-7-12.5-9.6-12.5-9.6a112.7,112.7,0,0,0,10.4,50.7l9.1,1.4-7.3,2.2c10.4,20.6,23.7,31.9,23.7,31.9l6.8-2C128.8,551,115.4,529,104.6,517.2Z" transform="translate(-45.1 -322.3)"/><g class="cls-53"><path class="cls-52" d="M95.5,519.4q13.2,31.8,29.2,62.1c3.1,5.8,6.2,11.5,9.4,17.2.2.2.5,0,.4-.3-11.2-19.8-21.5-40.1-30.7-60.9-2.7-6.1-5.3-12.1-7.8-18.2-.2-.3-.6-.2-.5.1Z" transform="translate(-45.1 -322.3)"/><path class="cls-52" d="M104.8,539.8a78.6,78.6,0,0,1,4.8-11.2c.1-.3-.3-.5-.4-.2a94,94,0,0,0-4.9,11.3c-.1.3.4.4.5.1Z" transform="translate(-45.1 -322.3)"/><path class="cls-52" d="M120.3,571.4c1.1-4.3,2.2-8.7,3.2-13.1a.3.3,0,0,0-.5-.1c-.9,4.4-2,8.8-3.2,13.1a.3.3,0,0,0,.5.1Z" transform="translate(-45.1 -322.3)"/><path class="cls-52" d="M110.9,552.6a77.7,77.7,0,0,1,3.3-9.2c.1-.3-.3-.5-.4-.2a73.2,73.2,0,0,0-3.3,9.3c-.1.3.4.4.4.1Z" transform="translate(-45.1 -322.3)"/><path class="cls-52" d="M100.2,529.7l-7.1-1.1a.3.3,0,0,0-.1.5l7.1,1c.3,0,.4-.4.1-.4Z" transform="translate(-45.1 -322.3)"/><path class="cls-52" d="M108.2,547.9l-8.4-1.4c-.3-.1-.4.4-.1.4l8.4,1.4c.3.1.4-.4.1-.4Z" transform="translate(-45.1 -322.3)"/><path class="cls-52" d="M125.7,582.5a40.5,40.5,0,0,0-7-.5c-.3,0-.3.5,0,.4a39.3,39.3,0,0,1,6.9.6.3.3,0,0,0,.1-.5Z" transform="translate(-45.1 -322.3)"/><path class="cls-52" d="M116.7,565.5a90.9,90.9,0,0,1-12.7-1.2.3.3,0,0,0-.1.5,78.1,78.1,0,0,0,12.8,1.1.2.2,0,1,0,0-.4Z" transform="translate(-45.1 -322.3)"/></g><path id="_Clipping_Path_32" data-name="&lt;Clipping Path&gt;" class="cls-3" d="M161.4,519.3l-5.9.5,6.1-4.1c.4-9.9-1.4-15.7-1.4-15.7a111.4,111.4,0,0,0-30.3,41.8l5,7.7-6.5-3.9c-8.2,21.5-7.6,39-7.6,39l6.1,3.7C152.8,560,160,535.3,161.4,519.3Z" transform="translate(-45.1 -322.3)"/><g class="cls-54"><path class="cls-52" d="M153.7,514.1c-9.7,20.8-18.5,41.9-26.2,63.5-2.1,6.1-4.3,12.3-6.3,18.5-.1.3.4.4.5.1q10.5-32.4,24.2-63.8c2.6-6,5.3-12.1,8.1-18,.2-.3-.2-.5-.3-.3Z" transform="translate(-45.1 -322.3)"/><path class="cls-52" d="M144.8,534.8a93.9,93.9,0,0,1,11.6-4.1c.2-.1.1-.5-.1-.5a116.1,116.1,0,0,0-11.7,4.2c-.3.1,0,.5.2.4Z" transform="translate(-45.1 -322.3)"/><path class="cls-52" d="M132,567.5c4-2.1,7.9-4.2,11.8-6.5.3-.1,0-.5-.2-.4-3.9,2.3-7.9,4.4-11.9,6.5-.2.1,0,.5.3.4Z" transform="translate(-45.1 -322.3)"/><path class="cls-52" d="M139.5,547.9c3-1.4,6-2.7,9-3.8.3-.1.2-.6-.1-.5-3.1,1.2-6.1,2.5-9.1,3.9-.2.2,0,.6.2.4Z" transform="translate(-45.1 -322.3)"/><path class="cls-52" d="M149.2,524.5l-4-6c-.2-.2-.6,0-.4.3,1.4,1.9,2.7,3.9,4.1,5.9.1.3.5,0,.3-.2Z" transform="translate(-45.1 -322.3)"/><path class="cls-52" d="M141.2,542.7l-4.6-7.1c-.2-.3-.6,0-.4.2l4.6,7.2c.2.2.6,0,.4-.3Z" transform="translate(-45.1 -322.3)"/><path class="cls-52" d="M127.5,579a33.2,33.2,0,0,0-4.4-5.5.2.2,0,1,0-.3.3,44.3,44.3,0,0,1,4.3,5.4c.1.3.5.1.4-.2Z" transform="translate(-45.1 -322.3)"/><path class="cls-52" d="M134,560.9a76.5,76.5,0,0,1-7.8-10.2c-.1-.2-.5,0-.4.2a87.9,87.9,0,0,0,7.9,10.3.2.2,0,0,0,.3-.3Z" transform="translate(-45.1 -322.3)"/></g><rect id="_Rectangle_2" data-name="&lt;Rectangle&gt;" class="cls-5" x="61.5" y="258.4" width="37" height="30.44" rx="1.9" ry="1.9"/><g class="cls-55"><rect class="cls-56" x="74.9" y="258.4" width="37" height="30.44" rx="1.9" ry="1.9"/></g><rect class="cls-10" y="286.3" width="791.2" height="14.71"/><polygon class="cls-10" points="38.2 301 42.6 487 54.4 487 63.2 301 38.2 301"/><polygon class="cls-10" points="717.9 301 713.5 487 701.7 487 692.9 301 717.9 301"/></g></g></svg>