<svg xmlns="http://www.w3.org/2000/svg" xmlns:xlink="http://www.w3.org/1999/xlink" viewBox="0 0 145.074 106.607"><defs><clipPath id="d14d6cf3-50bd-484f-bd40-165922f0364b" transform="translate(0 -8.05)"><path d="M143.358,55.92c0,30.883-32.776,58.219-59.514,57.357-30.867-1-52.325-26.474-52.325-57.357a55.92,55.92,0,1,1,111.839,0Z" fill="none"/></clipPath><clipPath id="4ffabdfb-c8a7-479e-8fa5-cb58d354b878" transform="translate(0 -8.05)"><path id="3c23cea2-86f2-43d9-b049-70c1944fffb4" data-name="&lt;Clipping Path&gt;" d="M92.68,41.171l.689,10.91s-6.588,5.855-11.711,0l.732-9.515Z" fill="#fdb483"/></clipPath></defs><title>intercAsset 10</title><g style="isolation:isolate"><g id="d34542e6-5ffd-405b-bf5e-63c059ae05d5" data-name="Layer 2"><g id="142a736d-bb12-48db-a88c-9c4d91dd0d9e" data-name="Objects"><circle cx="85.569" cy="62.963" r="41.976" fill="#c7deff"/><g clip-path="url(#d14d6cf3-50bd-484f-bd40-165922f0364b)"><path d="M91.173,50.617l2.2,1.464s8.051,0,14.638,2.928c0,0,3.438,47.055-2.312,53.093,0,0-26.163,14.375-48.589-6.038,0,0,6.253-47.055,9.913-49.251s16.834-.732,16.834-.732Z" transform="translate(0 -8.05)" fill="#0057ff"/><path id="5277eff2-1253-4d58-921a-f46771947db4" data-name="&lt;Clipping Path&gt;" d="M92.68,41.171l.689,10.91s-6.588,5.855-11.711,0l.732-9.515Z" transform="translate(0 -8.05)" fill="#fdb483"/><g clip-path="url(#4ffabdfb-c8a7-479e-8fa5-cb58d354b878)"><path d="M78.69,48.091s11.259,1.325,12.584-5.3S78.69,48.091,78.69,48.091Z" transform="translate(0 -8.05)" fill="#fdb483" opacity="0.39" style="mix-blend-mode:multiply"/></g><path d="M114.192,88.586s-2.779-4.261-5.7-9.421c3.823-4.134,9.365-4.416,11.859-4.3a105.863,105.863,0,0,1,6.131,19.431s-3.512,9.659-39.951,5.269L83.9,93.854S106.728,92.537,114.192,88.586Z" transform="translate(0 -8.05)" fill="#fdb483"/><path d="M92.182,93.151s-12.938,0-12.65,3.163c.214,2.361,3.737,4.025,7.475,3.162S92.182,93.151,92.182,93.151Z" transform="translate(0 -8.05)" fill="#fdb483"/><path d="M108.045,81.562c-3.436-6.075-6.621-15.792-6.146-18.878.878-5.708,2.634-6.586,2.634-6.586s2.634-3.073,6.147.439c2.023,2.024,8.268,11.9,11.853,20.634C120.04,77.058,111.869,77.428,108.045,81.562Z" transform="translate(0 -8.05)" fill="#0057ff"/><path d="M76.44,18.739S68.181,42.918,79.509,46s16.3-8.327,16.3-8.327L95.9,21.509Z" transform="translate(0 -8.05)" fill="#fdb483"/><path d="M91.784,43.558s17.636-7.817,10.939-19.083c0,0,.96-8.418-8.564-10.157,0,0-11.718-11.548-11.736-3.294,0,0-9.464-4.176-7.987,4.3,0,0-8.478-.025-1.513,6.527a21.319,21.319,0,0,0,20.215,3.32s-4.055,4.588-2.128,10.077C91.01,35.251,89.8,40.507,91.784,43.558Z" transform="translate(0 -8.05)" fill="#804d4c"/><path d="M90.73,35.4c-.97,1.88-.509,4.048,1.03,4.842s3.572-.088,4.542-1.968.508-4.048-1.03-4.842S91.7,33.517,90.73,35.4Z" transform="translate(0 -8.05)" fill="#fdb483"/><path d="M94.151,24.359a.977.977,0,0,1-.095.395,1.428,1.428,0,0,1-.143.255,2.2,2.2,0,0,1-.337.384,4.178,4.178,0,0,1-.745.525,8.037,8.037,0,0,1-1.567.63,19.172,19.172,0,0,1-3.195.64c-1.068.144-2.139.226-3.209.273-1.07.065-2.141.064-3.209.083,1.065-.106,2.129-.191,3.185-.342,1.057-.132,2.111-.3,3.146-.525a18.565,18.565,0,0,0,3.025-.864,7.15,7.15,0,0,0,1.354-.672,3.252,3.252,0,0,0,.53-.438,1.276,1.276,0,0,0,.172-.231.45.45,0,0,0,.045-.1c.011-.013.01-.086.006.01Z" transform="translate(0 -8.05)" fill="#804d4c"/><path d="M101.8,23.911a1.642,1.642,0,0,0,.858-.25,2.388,2.388,0,0,0,.742-.727,4.123,4.123,0,0,0,.481-1.02,8.022,8.022,0,0,0,.243-1.149,8.26,8.26,0,0,1,.012,1.2,4.53,4.53,0,0,1-.275,1.208,3.034,3.034,0,0,1-.722,1.1,2.517,2.517,0,0,1-1.281.676Z" transform="translate(0 -8.05)" fill="#804d4c"/><path d="M101.348,23.468a3.293,3.293,0,0,0,.747.555,3.13,3.13,0,0,0,.915.334,2.854,2.854,0,0,0,1.984-.364,3.122,3.122,0,0,1-2.014.882,3.77,3.77,0,0,1-1.165-.126,4.17,4.17,0,0,1-1.121-.475Z" transform="translate(0 -8.05)" fill="#804d4c"/><path d="M85.16,32.1A3.4,3.4,0,0,0,82,29.3c-.228-.019-.246-.379-.015-.36a3.759,3.759,0,0,1,3.533,3.141c.033.229-.327.242-.361.014Z" transform="translate(0 -8.05)" fill="#804d4c"/><path d="M77.245,28.415a2.341,2.341,0,0,0-2.726,1.069c-.085.135-.3.012-.215-.123a2.591,2.591,0,0,1,3-1.186c.151.051.088.291-.064.24Z" transform="translate(0 -8.05)" fill="#804d4c"/><path d="M82.187,40.381a3.92,3.92,0,0,1-1.407,1.328,4.039,4.039,0,0,1-3.73-.017c-.212-.095-.026-.4.184-.31A3.567,3.567,0,0,0,81.877,40.2a.18.18,0,0,1,.31.184Z" transform="translate(0 -8.05)" fill="#573c37"/><path d="M106.851,78.806l-1.52-1.445c-.181-.173-.457.1-.275.275l1.519,1.445c.182.173.457-.1.276-.275Z" transform="translate(0 -8.05)" fill="#557ed6"/><path d="M105.4,79.747l-3.183-2.085c-.21-.138-.405.2-.2.336l3.183,2.085c.21.138.406-.2.2-.336Z" transform="translate(0 -8.05)" fill="#557ed6"/><path d="M80.063,52.863c1.628,1.924,3.842,3.772,6.472,3.944,2.859.186,5.381-1.424,7.673-2.916.209-.137.015-.474-.2-.336-2.241,1.458-4.624,3.018-7.421,2.8-2.6-.2-4.63-1.853-6.253-3.771-.162-.191-.436.085-.275.275Z" transform="translate(0 -8.05)" fill="#557ed6"/><path d="M108.834,79.389c2.669-3.347,7.814-3.308,11.724-3.451.249-.009.251-.4,0-.389-4,.146-9.264.135-12,3.565-.154.194.119.471.276.275Z" transform="translate(0 -8.05)" fill="#557ed6"/><path d="M78.655,65.762h16.8A1.343,1.343,0,0,1,96.775,67.6L93.5,79.254a2.61,2.61,0,0,1-2.351,1.834h-16.8a1.342,1.342,0,0,1-1.319-1.834L76.3,67.6A2.61,2.61,0,0,1,78.655,65.762Z" transform="translate(0 -8.05)" fill="#fff" opacity="0.66" style="isolation:isolate"/><path d="M81.081,69.1h16.8A1.342,1.342,0,0,1,99.2,70.929L95.925,82.587a2.61,2.61,0,0,1-2.35,1.834h-16.8a1.343,1.343,0,0,1-1.319-1.834l3.277-11.658A2.61,2.61,0,0,1,81.081,69.1Z" transform="translate(0 -8.05)" fill="#fff" opacity="0.7" style="isolation:isolate"/></g><path d="M53.732,76.076,49.6,91.209,28.971,98.265s-6.512,5.427.543,5.97c17.89,1.376,28.765-8.684,28.765-8.684l3.256-19Z" transform="translate(0 -8.05)" fill="#fdb483"/><path d="M68.188,80.793c3.688-6.518,7.105-16.946,6.6-20.257-.943-6.125-2.827-7.067-2.827-7.067s-2.827-3.3-6.595.471c-2.172,2.172-8.873,12.769-12.72,22.142C55.317,75.96,64.086,76.358,68.188,80.793Z" transform="translate(0 -8.05)" fill="#0057ff"/><path d="M17.656,103.549H130.551s-4.242,10.869-54.357,11.1C25.771,114.891,17.656,103.549,17.656,103.549Z" transform="translate(0 -8.05)" fill="#eaeaea"/><polygon points="62.167 99.49 62.167 98.322 89.39 98.322 89.39 99.828 62.167 99.49" fill="#8e8585"/><polygon points="10.793 54.028 17.352 91.435 71.522 91.435 65.524 54.028 10.793 54.028" fill="#b6aead"/><polyline points="33.621 77.769 35.9 99.007 48.247 99.007 44.068 77.769 34.76 77.769" fill="#8e8585"/><rect x="28.736" y="98.322" width="26.664" height="1.168" fill="#8e8585"/><rect x="27.247" y="56.844" width="19.477" height="0.746" fill="#8e8585"/><path d="M34.3,9.2H62.947a2.794,2.794,0,0,1,2.794,2.794V22.8a2.793,2.793,0,0,1-2.793,2.793H34.3A2.793,2.793,0,0,1,31.509,22.8V11.993A2.794,2.794,0,0,1,34.3,9.2Z" fill="#5fb0e7" style="mix-blend-mode:multiply"/><path d="M31.805,8.445h32.13A1.051,1.051,0,0,1,64.987,9.5V23.783a1.055,1.055,0,0,1-1.055,1.055H31.805a1.051,1.051,0,0,1-1.051-1.051V9.5A1.051,1.051,0,0,1,31.805,8.445Z" fill="#fff"/><path d="M64.987,17.547V19.6H30.754V17.547A1.053,1.053,0,0,1,31.809,16.5H63.936A1.052,1.052,0,0,1,64.987,17.547Z" transform="translate(0 -8.05)" fill="#aec1ff"/><path d="M63.638,21.33v9.863H32.044V28.042c1.275-1.748,3.017-2.91,7-.555,3.83,2.263,3.819-5.025,8.2-4.648s5.541,6.91,8.935,1.917S63.638,21.33,63.638,21.33Z" transform="translate(0 -8.05)" fill="#aec1ff" opacity="0.5"/><rect x="32.044" y="13.219" width="6.224" height="0.424" fill="#aec1ff" opacity="0.5"/><rect x="32.044" y="13.972" width="10.52" height="0.424" fill="#aec1ff" opacity="0.5"/><rect x="32.044" y="14.726" width="7.898" height="0.424" fill="#aec1ff" opacity="0.5"/><rect x="32.044" y="15.48" width="9.531" height="0.424" fill="#aec1ff" opacity="0.5"/><rect x="32.044" y="16.234" width="6.224" height="0.424" fill="#aec1ff" opacity="0.5"/><path d="M31.013,58.7A15.211,15.211,0,0,1,2.5,58.7Z" transform="translate(0 -8.05)" fill="#5fb0e7" style="mix-blend-mode:multiply"/><path d="M2.725,43.6a15.2,15.2,0,0,0-1.9,13.617l14.389-4.937Z" transform="translate(0 -8.05)" fill="#18bdf7"/><path d="M17.39,35.659V50.87l11.186,10.3A15.207,15.207,0,0,0,17.39,35.659Z" transform="translate(0 -8.05)" fill="#18bdf7"/><path d="M15.211,37.066A15.173,15.173,0,0,0,2.725,43.6l12.486,8.68Z" transform="translate(0 -8.05)" fill="#f9b253"/><path d="M12.385,67.218A15.208,15.208,0,0,0,26.4,62.579l-11.186-10.3Z" transform="translate(0 -8.05)" fill="#b8ecff"/><path d="M.822,57.214a15.225,15.225,0,0,0,11.563,10l2.826-14.941Z" transform="translate(0 -8.05)" fill="#15a7ce"/><path d="M115.428,32.688h27.751a1.381,1.381,0,0,1,1.381,1.381v8.762a1.381,1.381,0,0,1-1.381,1.381H120.17c-.116.926-.766,2.755-4.11,2.755,0,0,1.376-.252,1.663-2.755h-2.3a1.381,1.381,0,0,1-1.381-1.381V34.069A1.381,1.381,0,0,1,115.428,32.688Z" transform="translate(0 -8.05)" fill="#5fb0e7" style="mix-blend-mode:multiply"/><path d="M115.941,31.994h27.752a1.381,1.381,0,0,1,1.381,1.381v8.762a1.381,1.381,0,0,1-1.381,1.381h-23.01c-.115.926-.766,2.755-4.109,2.755,0,0,1.376-.252,1.663-2.755h-2.3a1.38,1.38,0,0,1-1.38-1.381V33.375A1.38,1.38,0,0,1,115.941,31.994Z" transform="translate(0 -8.05)" fill="#ebfaff"/><rect x="135.392" y="33.214" width="8.767" height="9.056" rx="0.844" ry="0.844" transform="translate(279.551 67.434) rotate(180)" fill="#80d4dd"/><path d="M116.013,33.214h17.931a.256.256,0,0,1,.256.256V34.1a.256.256,0,0,1-.256.256H116.013a.257.257,0,0,1-.257-.257v-.627a.257.257,0,0,1,.257-.257Z" transform="translate(249.957 59.519) rotate(-180)" fill="#80d4dd"/><path d="M120.047,35.193h13.9a.256.256,0,0,1,.256.256v.627a.256.256,0,0,1-.256.256h-13.9a.257.257,0,0,1-.257-.257V35.45A.257.257,0,0,1,120.047,35.193Z" transform="translate(253.991 63.477) rotate(-180)" fill="#80d4dd"/><path d="M116.013,37.172h17.931a.256.256,0,0,1,.256.256v.627a.257.257,0,0,1-.257.257H116.013a.257.257,0,0,1-.257-.257v-.627a.257.257,0,0,1,.257-.257Z" transform="translate(249.957 67.434) rotate(180)" fill="#80d4dd"/><path d="M117.511,39.151h16.433a.256.256,0,0,1,.256.256v.627a.257.257,0,0,1-.257.257H117.511a.257.257,0,0,1-.257-.257v-.627A.257.257,0,0,1,117.511,39.151Z" transform="translate(251.455 71.392) rotate(-180)" fill="#80d4dd"/><path d="M127.4,41.13h6.543a.256.256,0,0,1,.256.256v.627a.256.256,0,0,1-.256.256H127.4a.257.257,0,0,1-.257-.257v-.627a.256.256,0,0,1,.256-.256Z" transform="translate(261.345 75.351) rotate(-180)" fill="#80d4dd"/></g></g></g></svg>