<svg xmlns="http://www.w3.org/2000/svg" xmlns:xlink="http://www.w3.org/1999/xlink" viewBox="0 0 507.64 365.099"><defs><clipPath id="e8a87ab8-e289-447e-9113-99dea1550a87" transform="translate(0 -28)"><path d="M562.64,194.5c0,107.419-114,202.5-207,199.5-107.364-3.463-182-92.081-182-199.5S260.72,0,368.14,0,562.64,87.081,562.64,194.5Z" fill="none"/></clipPath><clipPath id="75afa198-a6cb-4be4-bb3c-1a9339b806a7" transform="translate(0 -28)"><path id="230673cf-9bbc-4b2f-b689-aa3d11df9a76" data-name="&lt;Clipping Path&gt;" d="M386.37,143.2l2.4,37.945s-22.913,20.367-40.733,0l2.545-33.095Z" fill="#fdb483"/></clipPath></defs><title>intercAsset 4</title><g style="isolation:isolate"><g id="7cc24774-a8a1-4886-8db5-dd36b98a3953" data-name="Layer 2"><g id="5e55a53f-64bf-4266-ac9b-c0a735f80dd4" data-name="Layer 1"><path d="M24.5,162.055h23v49h-23A24.5,24.5,0,0,1,0,186.555H0A24.5,24.5,0,0,1,24.5,162.055Z" transform="translate(0 -28)" fill="#0250cc"/><path d="M42.071,114.666H363.208a18.026,18.026,0,0,1,18.026,18.026v180.87a0,0,0,0,1,0,0H42.071a18.026,18.026,0,0,1-18.026-18.026V132.693A18.026,18.026,0,0,1,42.071,114.666Z" fill="#f2f2f2"/><path d="M28.031,171.555H193.969A24.031,24.031,0,0,0,218,147.523v-4.857H42.071a18.027,18.027,0,0,0-18.026,18.027v10.524A24.135,24.135,0,0,0,28.031,171.555Z" transform="translate(0 -28)" fill="#606060" opacity="0.1"/><path d="M196.5,161.805H32.786A35,35,0,0,0,0,184.555H0V154.762a27.957,27.957,0,0,1,27.957-27.957H196.5a17.5,17.5,0,0,1,17.5,17.5h0A17.5,17.5,0,0,1,196.5,161.805Z" transform="translate(0 -28)" fill="#0057ff"/><polygon points="51.642 105.465 54.985 111.001 61.283 112.47 57.052 117.361 57.6 123.805 51.642 121.292 45.683 123.805 46.231 117.361 42 112.47 48.298 111.001 51.642 105.465" fill="#ffda73"/><polygon points="83.404 105.465 86.748 111.001 93.046 112.47 88.814 117.361 89.363 123.805 83.404 121.292 77.445 123.805 77.994 117.361 73.762 112.47 80.06 111.001 83.404 105.465" fill="#ffda73"/><polygon points="115.167 105.465 118.51 111.001 124.808 112.47 120.577 117.361 121.125 123.805 115.167 121.292 109.208 123.805 109.756 117.361 105.525 112.47 111.823 111.001 115.167 105.465" fill="#ffda73"/><polygon points="146.929 105.465 150.273 111.001 156.571 112.47 152.34 117.361 152.888 123.805 146.929 121.292 140.97 123.805 141.519 117.361 137.288 112.47 143.585 111.001 146.929 105.465" fill="#ffda73"/><polygon points="178.692 105.465 182.035 111.001 188.333 112.47 184.102 117.361 184.651 123.805 178.692 121.292 172.733 123.805 173.281 117.361 169.05 112.47 175.348 111.001 178.692 105.465" fill="#ffda73"/><path d="M57.5,296.055h0a3.009,3.009,0,0,1-3-3v-93a3.009,3.009,0,0,1,3-3h0a3.009,3.009,0,0,1,3,3v93A3.009,3.009,0,0,1,57.5,296.055Z" transform="translate(0 -28)" fill="#0057ff"/><g opacity="0.56"><path d="M232.552,218.555H83.89a3.4,3.4,0,0,1-3.39-3.39h0a3.4,3.4,0,0,1,3.39-3.39H232.552a3.4,3.4,0,0,1,3.389,3.39h0A3.4,3.4,0,0,1,232.552,218.555Z" transform="translate(0 -28)" fill="#454545" opacity="0.2"/><path d="M232.552,235.055H83.89a3.4,3.4,0,0,1-3.39-3.39h0a3.4,3.4,0,0,1,3.39-3.39H232.552a3.4,3.4,0,0,1,3.389,3.39h0A3.4,3.4,0,0,1,232.552,235.055Z" transform="translate(0 -28)" fill="#454545" opacity="0.2"/><path d="M232.552,251.555H83.89a3.4,3.4,0,0,1-3.39-3.39h0a3.4,3.4,0,0,1,3.39-3.39H232.552a3.4,3.4,0,0,1,3.389,3.39h0A3.4,3.4,0,0,1,232.552,251.555Z" transform="translate(0 -28)" fill="#454545" opacity="0.2"/><path d="M232.552,268.055H83.89a3.4,3.4,0,0,1-3.39-3.39h0a3.4,3.4,0,0,1,3.39-3.39H232.552a3.4,3.4,0,0,1,3.389,3.39h0A3.4,3.4,0,0,1,232.552,268.055Z" transform="translate(0 -28)" fill="#454545" opacity="0.2"/><rect x="80.5" y="249.397" width="127.912" height="7.158" rx="3.16" ry="3.16" fill="#454545" opacity="0.2"/></g><circle cx="361.64" cy="219" r="146" fill="#c7deff"/><path d="M250.9,264.608l-14.389,52.637-71.733,24.54s-22.653,18.877,1.887,20.765c62.226,4.787,100.05-30.2,100.05-30.2l11.326-66.071Z" transform="translate(0 -28)" fill="#fdb483"/><path d="M301.184,281.015c12.828-22.672,24.712-58.941,22.941-70.459-3.278-21.3-9.832-24.579-9.832-24.579s-9.831-11.47-22.94,1.639c-7.554,7.553-30.86,44.412-44.242,77.013C256.417,264.207,286.914,265.588,301.184,281.015Z" transform="translate(0 -28)" fill="#0057ff"/><g clip-path="url(#e8a87ab8-e289-447e-9113-99dea1550a87)"><path d="M381.129,176.057l7.638,5.091s28,0,50.916,10.184c0,0,11.957,163.668-8.043,184.668,0,0-91,50-169-21,0,0,21.749-163.668,34.477-171.306s58.554-2.546,58.554-2.546Z" transform="translate(0 -28)" fill="#0057ff"/><path id="b2d651be-499b-4c43-b8f6-ab53def476f6" data-name="&lt;Clipping Path&gt;" d="M386.37,143.2l2.4,37.945s-22.913,20.367-40.733,0l2.545-33.095Z" transform="translate(0 -28)" fill="#fdb483"/><g clip-path="url(#75afa198-a6cb-4be4-bb3c-1a9339b806a7)"><path d="M337.711,167.271s39.162,4.608,43.769-18.429S337.711,167.271,337.711,167.271Z" transform="translate(0 -28)" fill="#fdb483" opacity="0.39" style="mix-blend-mode:multiply"/></g><path d="M461.194,308.121s-9.664-14.821-19.819-32.769c13.3-14.377,32.576-15.36,41.249-14.966,9.171,22.342,17.445,46.879,21.327,67.586,0,0-12.216,33.6-138.959,18.325l-9.162-19.852S435.235,321.864,461.194,308.121Z" transform="translate(0 -28)" fill="#fdb483"/><path d="M384.64,324s-45,0-44,11c.746,8.212,13,14,26,11S384.64,324,384.64,324Z" transform="translate(0 -28)" fill="#fdb483"/><path d="M439.816,283.689c-11.954-21.129-23.029-54.929-21.378-65.662,3.054-19.851,9.162-22.9,9.162-22.9s9.162-10.69,21.378,1.527c7.04,7.039,28.759,41.388,41.23,71.77C481.536,268.025,453.115,269.312,439.816,283.689Z" transform="translate(0 -28)" fill="#0057ff"/><path d="M329.887,65.178S301.16,149.277,340.56,160s56.69-28.961,56.69-28.961l.328-56.227Z" transform="translate(0 -28)" fill="#fdb483"/><path d="M383.257,151.5S444.6,124.315,421.3,85.129c0,0,3.342-29.28-29.786-35.327,0,0-40.757-40.168-40.822-11.46,0,0-32.915-14.524-27.779,14.967,0,0-29.487-.086-5.261,22.705,0,0,28.853,25.518,70.31,11.545,0,0-14.1,15.961-7.4,35.051C380.563,122.61,376.344,140.892,383.257,151.5Z" transform="translate(0 -28)" fill="#804d4c"/><path d="M379.59,123.119c-3.373,6.54-1.77,14.079,3.582,16.839s12.423-.3,15.8-6.845,1.77-14.079-3.581-16.839S382.963,116.578,379.59,123.119Z" transform="translate(0 -28)" fill="#fdb483"/><path d="M390.2,84.758a2.42,2.42,0,0,1-.222.872,3.814,3.814,0,0,1-.375.691,3.725,3.725,0,0,1-.46.6,4.248,4.248,0,0,1-.507.545,13.589,13.589,0,0,1-2.326,1.717,21.761,21.761,0,0,1-2.547,1.252l-1.3.546-1.335.446a66.3,66.3,0,0,1-10.9,2.5l-2.759.426-2.773.311-2.772.311-2.781.214c-3.7.332-7.42.435-11.13.61,3.706-.262,7.416-.451,11.107-.869l2.77-.278,2.757-.374,2.757-.375,2.737-.487A65.8,65.8,0,0,0,380.872,90.7l1.3-.467,1.254-.561a20.924,20.924,0,0,0,2.42-1.259,12.589,12.589,0,0,0,2.11-1.631,3.3,3.3,0,0,0,.429-.483,2.967,2.967,0,0,0,.374-.509,2.877,2.877,0,0,0,.277-.536,1.839,1.839,0,0,0,.132-.466Z" transform="translate(0 -28)" fill="#804d4c"/><path d="M418.162,84.453a7.129,7.129,0,0,0,3.507-1.4,9.209,9.209,0,0,0,2.556-2.991,14.972,14.972,0,0,0,1.419-3.78c.115-.669.25-1.339.349-2.014l.182-2.043-.053,2.056c-.056.683-.149,1.365-.223,2.051a15.408,15.408,0,0,1-1.213,3.969,9.851,9.851,0,0,1-2.535,3.363,7.927,7.927,0,0,1-3.931,1.824Z" transform="translate(0 -28)" fill="#804d4c"/><path d="M415.71,82.626a13.211,13.211,0,0,0,3.063,1.83,11.675,11.675,0,0,0,3.492.905,11.486,11.486,0,0,0,1.818.023,10.571,10.571,0,0,0,1.794-.349,11.564,11.564,0,0,0,3.327-1.581,11.7,11.7,0,0,1-3.248,1.828,10.788,10.788,0,0,1-1.825.488,11.9,11.9,0,0,1-1.9.109,12.321,12.321,0,0,1-3.742-.7,14,14,0,0,1-3.436-1.75Z" transform="translate(0 -28)" fill="#804d4c"/><path d="M360.217,111.634c-.787-5.423-5.577-9.273-10.983-9.721-.793-.066-.855-1.32-.05-1.253,6.107.506,11.377,4.661,12.286,10.923.116.8-1.138.844-1.253.051Z" transform="translate(0 -28)" fill="#804d4c"/><path d="M332.686,98.834a8.139,8.139,0,0,0-9.481,3.719c-.295.468-1.045.041-.748-.431,2.219-3.521,6.35-5.494,10.452-4.123.525.176.305,1.011-.223.835Z" transform="translate(0 -28)" fill="#804d4c"/><path d="M349.875,140.455a13.653,13.653,0,0,1-4.893,4.616c-4.151,2.351-8.756,1.829-12.975-.057-.736-.33-.089-1.405.64-1.079,5.74,2.568,12.7,1.577,16.15-4.12a.627.627,0,0,1,1.078.64Z" transform="translate(0 -28)" fill="#573c37"/><path d="M435.319,274.446q-2.642-2.514-5.284-5.027c-.181-.173-.457.1-.275.275l5.284,5.027c.181.172.457-.1.275-.275Z" transform="translate(0 -28)" fill="#557ed6"/><path d="M430.371,277.794,419.3,270.541c-.21-.138-.406.2-.2.336l11.071,7.253c.21.138.405-.2.2-.336Z" transform="translate(0 -28)" fill="#557ed6"/><path d="M342.829,183.529c5.4,6.541,12.963,12.757,21.735,13.529,10,.88,18.88-4.8,26.88-10.032.209-.136.014-.473-.2-.336-7.5,4.9-15.614,10.178-24.93,10.062-9.415-.118-17.48-6.55-23.214-13.5-.16-.193-.434.084-.275.276Z" transform="translate(0 -28)" fill="#557ed6"/><path d="M442.247,275.751c8.912-11.811,27.744-11.63,41.089-12.1.25-.008.251-.4,0-.389-13.511.479-32.39.323-41.425,12.3-.151.2.187.394.336.2Z" transform="translate(0 -28)" fill="#557ed6"/><path d="M337.588,228.734h58.44c3.524,0,5.578,2.857,4.588,6.381l-11.4,40.546a9.077,9.077,0,0,1-8.175,6.381H322.6c-3.524,0-5.578-2.856-4.587-6.381l11.4-40.546A9.077,9.077,0,0,1,337.588,228.734Z" transform="translate(0 -28)" fill="#fff" opacity="0.66" style="isolation:isolate"/><path d="M346.029,240.326h58.439c3.525,0,5.579,2.857,4.588,6.381l-11.4,40.547a9.077,9.077,0,0,1-8.174,6.381h-58.44c-3.524,0-5.578-2.857-4.588-6.381l11.4-40.547A9.078,9.078,0,0,1,346.029,240.326Z" transform="translate(0 -28)" fill="#fff" opacity="0.7" style="isolation:isolate"/></g></g></g></g></svg>