<svg height="512pt" viewBox="-95 0 512 512" width="512pt" xmlns="http://www.w3.org/2000/svg"><path d="m90.839844 512h189.933594c13.683593 0 24.773437-11.09375 24.773437-24.773438v-272.515624h-239.480469v272.515624c0 13.679688 11.089844 24.773438 24.773438 24.773438zm0 0" fill="#f6d190"/><path d="m66.066406 214.710938v99.097656h82.578125v49.546875c0 22.804687 18.488281 41.289062 41.292969 41.289062h74.320312c22.804688 0 41.292969-18.484375 41.292969-41.289062v-148.644531zm0 0" fill="#ecbd83"/><path d="m73.492188 214.710938h-7.425782v.375c2.441406-.246094 4.917969-.375 7.425782-.375zm0 0" fill="#e2a975"/><path d="m123.871094 214.710938c19.371094 0 34.847656 16.671874 32.859375 36.445312-1.699219 16.941406-16.378907 29.617188-33.402344 29.617188h-49.003906c43.050781 0 71.050781 32.949218 74.054687 75.003906.304688 4.28125 3.90625 7.578125 8.199219 7.578125 4.949219 0 8.617187-4.03125 8.265625-8.964844-1.441406-20.261719-7.777344-38.253906-17.859375-52.734375-2.632813-3.78125-1.644531-9.039062 2.304687-11.417969 6.414063-3.855469 11.917969-9.148437 16.039063-15.511719 1.3125-2.027343 3.308594-3.550781 5.625-4.238281 2.28125-.675781 4.492187-1.511719 6.625-2.492187 2.097656-.96875 4.589844-.328125 5.992187 1.507812 9.0625 11.863282 23.351563 19.53125 39.398438 19.53125 6.640625 0 12.980469-1.3125 18.773438-3.695312 3.234374-1.328125 6.945312-.394532 9.179687 2.292968 9.097656 10.941407 22.804687 17.917969 38.109375 17.917969 5.796875 0 11.339844-1.054687 16.515625-2.890625v-87.949218zm0 0" fill="#e2a975"/><path d="m90.839844 0c-18.242188 0-33.03125 14.789062-33.03125 33.03125v206.453125h66.0625v-206.453125c0-18.242188-14.789063-33.03125-33.03125-33.03125zm0 0" fill="#f6d190"/><path d="m74.324219 165.160156v-160.738281c-9.832031 5.71875-16.515625 16.414063-16.515625 28.609375v206.453125h66.0625v-41.289063h-16.515625c-18.242188 0-33.03125-14.792968-33.03125-33.035156zm0 0" fill="#ecbd83"/><path d="m156.902344 256c-18.242188 0-33.03125-14.789062-33.03125-33.03125v-57.808594c0-18.242187 14.789062-33.03125 33.03125-33.03125 18.246094 0 33.035156 14.789063 33.035156 33.03125v57.808594c0 18.242188-14.789062 33.03125-33.035156 33.03125zm0 0" fill="#f6d190"/><path d="m173.421875 239.484375c-18.246094 0-33.035156-14.789063-33.035156-33.03125v-69.898437c-9.832031 5.71875-16.515625 16.410156-16.515625 28.605468v57.808594c0 18.242188 14.789062 33.03125 33.03125 33.03125 13.402344 0 24.933594-7.96875 30.113281-19.4375-4.144531 1.875-8.753906 2.921875-13.59375 2.921875zm0 0" fill="#ecbd83"/><path d="m148.644531 363.355469c0-45.609375-28.714843-82.582031-74.320312-82.582031h49.546875c18.242187 0 33.03125-14.789063 33.03125-33.03125 0-18.242188-14.789063-33.03125-33.03125-33.03125h-50.382813c-40.585937 0-73.488281 32.902343-73.488281 73.488281 0 11.410156 2.65625 22.660156 7.757812 32.867187l53.949219 107.894532c2.867188 5.730468 4.359375 12.054687 4.359375 18.464843v39.800781c0 13.679688 11.089844 24.773438 24.773438 24.773438h57.804687zm0 0" fill="#f6d190"/><path d="m222.96875 272.515625c-18.242188 0-33.03125-14.789063-33.03125-33.03125v-57.808594c0-18.242187 14.789062-33.03125 33.03125-33.03125s33.03125 14.789063 33.03125 33.03125v57.808594c0 18.242187-14.789062 33.03125-33.03125 33.03125zm0 0" fill="#f6d190"/><path d="m239.484375 256c-18.242187 0-33.03125-14.789062-33.03125-33.03125v-69.902344c-9.832031 5.71875-16.515625 16.414063-16.515625 28.613282v57.804687c0 18.242187 14.789062 33.03125 33.03125 33.03125 13.402344 0 24.9375-7.960937 30.121094-19.429687-4.144532 1.871093-8.765625 2.914062-13.605469 2.914062zm0 0" fill="#ecbd83"/><path d="m289.03125 289.03125c-18.242188 0-33.03125-14.789062-33.03125-33.03125v-57.808594c0-18.242187 14.789062-33.03125 33.03125-33.03125 18.246094 0 33.035156 14.789063 33.035156 33.03125v57.808594c0 18.242188-14.789062 33.03125-33.035156 33.03125zm0 0" fill="#f6d190"/><path d="m305.550781 272.515625c-18.246093 0-33.035156-14.789063-33.035156-33.03125v-69.902344c-9.832031 5.722657-16.515625 16.414063-16.515625 28.609375v57.808594c0 18.242188 14.789062 33.03125 33.03125 33.03125 13.402344 0 24.933594-7.96875 30.113281-19.4375-4.144531 1.871094-8.753906 2.921875-13.59375 2.921875zm0 0" fill="#ecbd83"/><path d="m280.773438 512h-189.933594c-13.683594 0-24.773438-11.09375-24.773438-24.773438v-24.773437h239.484375v24.773437c0 13.679688-11.09375 24.773438-24.777343 24.773438zm0 0" fill="#b3e59f"/><path d="m82.582031 462.453125h-16.515625v24.773437c0 13.679688 11.089844 24.773438 24.773438 24.773438h189.933594c10.773437 0 19.953124-6.914062 23.367187-16.515625h-188.527344c-18.242187 0-33.03125-14.789063-33.03125-33.03125zm0 0" fill="#95d6a4"/><g fill="#ecbd83"><path d="m66.066406 264.257812c-4.5625 0-8.257812 3.695313-8.257812 8.257813 0 4.558594 3.695312 8.257813 8.257812 8.257813h57.804688c12.195312 0 22.898437-6.683594 28.621094-16.515626zm0 0"/><path d="m113.703125 445.933594c-16.054687 0-30-9.742188-37.113281-24.132813-.035156-.078125-.074219-.152343-.113282-.226562l-74.800781-149.082031c-1.09375 5.046874-1.675781 10.332031-1.675781 15.707031 0 11.410156 2.65625 22.660156 7.761719 32.867187l53.945312 107.894532c2.644531 5.285156 4.144531 11.078124 4.359375 16.972656v16.515625h239.484375v-16.515625zm0 0"/></g></svg>