<svg id="Layer_2" data-name="Layer 2" xmlns="http://www.w3.org/2000/svg" viewBox="0 0 288.2 298.8"><defs><style>.cls-1{fill:#f7dcd3;}.cls-2{fill:#0072ff;}.cls-3{fill:#ecc9bf;}.cls-4{fill:#10173f;}.cls-5{fill:#01a9ff;}.cls-6{fill:#1aa9e2;}.cls-7{fill:#f7dcd2;}.cls-8{fill:#f9dcd4;}.cls-9{fill:#eec9c0;}.cls-10{fill:#f8ddd4;}.cls-11{fill:#000f9f;}.cls-12{fill:#2b2597;}.cls-13{fill:#cddbfe;}.cls-14{fill:#dce8fe;}.cls-15{fill:#95cae7;}.cls-16{fill:#f8dcd3;}.cls-17{fill:#f8dbd2;}.cls-18{fill:#fadcd1;}.cls-19{fill:#cce6ff;}.cls-20{fill:#badcf7;}.cls-21{fill:#8faafc;}.cls-22{fill:#adc4fc;}.cls-23{fill:#253ab7;}.cls-24{fill:#fadbcf;}.cls-25{fill:#2e3c7e;}.cls-26{fill:#2d259b;}.cls-27{fill:#366e9a;}.cls-28{fill:#fadbd5;}.cls-29{fill:#283479;}.cls-30,.cls-31{fill:none;stroke:#0072ff;stroke-miterlimit:10;}.cls-31{stroke-dasharray:3.02 3.02;}.cls-32{fill:#8ea9fb;}.cls-33{fill:#4545da;}</style></defs><title>footer-people-img</title><path class="cls-1" d="M328.8,644.7V654h7.9s-1.4-8.9-1.1-11.3S328.8,644.7,328.8,644.7Z" transform="translate(-314.7 -381.9)"/><path class="cls-1" d="M361.3,645.4v9.3h7.9s-1.4-8.9-1.1-11.3S361.3,645.4,361.3,645.4Z" transform="translate(-314.7 -381.9)"/><path class="cls-2" d="M327,553.5h33.8s3.4,39.4,3.2,44.2c0,0,3,45.8,4.9,48.1h-8.1s-.7-15.9-8-27.6a9.5,9.5,0,0,1-1.3-3.3c-.9-3.4-2.4-10.5-2.4-14.9a23.2,23.2,0,0,0-.4-4.6c-1-5.4-3.5-14.9-6.5-3l-6,53.4h-8.1s-4.4-25.6-1.1-36.3c0,0,3.8-14.2-.7-26.8a16.1,16.1,0,0,1-.8-3.8C324.9,573.4,323.9,559.5,327,553.5Z" transform="translate(-314.7 -381.9)"/><path class="cls-3" d="M316.3,514.3s-2.2,15.5-.7,20.4,11-8.7,11-8.7.1-9.1,3.6-13.9S316.3,514.3,316.3,514.3Z" transform="translate(-314.7 -381.9)"/><polygon class="cls-4" points="68.2 113.8 63.7 127.7 71 127.7 76.6 113.8 68.2 113.8"/><path class="cls-3" d="M367.4,515.8s1.2,4.9.9,6.8-7.3,10.6-7.3,10.6-10.4-17.6-2.1-20.7S367.4,515.8,367.4,515.8Z" transform="translate(-314.7 -381.9)"/><path class="cls-5" d="M334.1,489.9l-4.1,2.5-2.4,25.2s-2.3,2.9-1.2,8.3,1.4,23.7-.3,29h35.2s-8.2-24.3-1.4-37.6l-6.2-24.1s-4-5.5-17.4-4A5.7,5.7,0,0,0,334.1,489.9Z" transform="translate(-314.7 -381.9)"/><path class="cls-6" d="M314.7,515.9l14.3,1.6s7.3-10.7,7.3-14.4v-3.8a10.2,10.2,0,0,0-6.3-6.9A47.1,47.1,0,0,0,314.7,515.9Z" transform="translate(-314.7 -381.9)"/><path class="cls-6" d="M359.9,517.3l8.4-.7s-6-19.4-14.6-23.4C353.7,493.2,356.4,512.3,359.9,517.3Z" transform="translate(-314.7 -381.9)"/><path class="cls-7" d="M315.1,532.9s6.7-8.8,12.8-9.7c0,0,7.8-2.2,9.3-8.6,0,0-.6-9.6,6.1-13.8,0,0,4.1-3.1.7,6.5a14.2,14.2,0,0,0-.1,5.1,3.7,3.7,0,0,1-.4,2.5c-3.2,5.3-14.8,24.4-23.4,28C320.1,542.9,314.7,544.3,315.1,532.9Z" transform="translate(-314.7 -381.9)"/><path class="cls-8" d="M361,533.3s.5-9,8.2-11.7c0,0,7.1-7.2,8-9.4,0,0-1-8.3,3.3-9.8,0,0,6.4-1.7,0,3.4,0,0-2.7,5.5,4.7,2.1,0,0,6.5-6.4,2.7.6s-5.2,5.8-5.2,5.8-10.5,20-17.1,21.9A3.3,3.3,0,0,1,361,533.3Z" transform="translate(-314.7 -381.9)"/><path class="cls-9" d="M336.3,489.4a15.6,15.6,0,0,0,12.7,4.1l-1.2-10.7-7-3.6S340.4,488.7,336.3,489.4Z" transform="translate(-314.7 -381.9)"/><path class="cls-10" d="M354.1,469.9s4.4,7.9,0,13.4c0,0-9.1,7.7-12.5-2.8a3.6,3.6,0,0,0-2.4-2.2s-2.6-2.5.7-3.9C339.9,474.4,346.5,464,354.1,469.9Z" transform="translate(-314.7 -381.9)"/><path class="cls-11" d="M339.5,475a3.2,3.2,0,0,1,4.2,3.3s.8.9,2.1-2.3a2.5,2.5,0,0,0-.1-2,4.9,4.9,0,0,1-.1-2.4c.4-1.6,2-3.5,7.7-.9,0,0,1.6.6,2.4,3.7,0,0,1.2,1.8,1.9.1,0,0,.8-5.6-.6-8.6l-.3-.4c-.8-1.2-5.4-6.5-14.5-2.1a22.2,22.2,0,0,0-5.5,3.3s-2.2,3,1.9,3.5C338.6,470.2,337.3,474.6,339.5,475Z" transform="translate(-314.7 -381.9)"/><path class="cls-12" d="M329.2,651.9c1.1.6,3.8,1.5,5.9-.1a1.1,1.1,0,0,1,1.5.1,8.3,8.3,0,0,0,5.6,2.9,1.6,1.6,0,0,1,.9.3c1.6.8,6,3.5-.9,4.1H328.4s-.7-4.5,0-6.9A.7.7,0,0,1,329.2,651.9Z" transform="translate(-314.7 -381.9)"/><path class="cls-12" d="M362,653.3c1.1.5,3.8,1.5,5.9-.2a1.1,1.1,0,0,1,1.5.2,7.9,7.9,0,0,0,5.6,2.8l1,.3c1.5.9,5.9,3.6-.9,4.1H361.2s-.7-4.4,0-6.9A.6.6,0,0,1,362,653.3Z" transform="translate(-314.7 -381.9)"/><path class="cls-13" d="M475.9,592.1s-36,8-25.7,48l37.2,23.1,29.9-4.1,26.2-6.7S519.1,583,475.9,592.1Z" transform="translate(-314.7 -381.9)"/><path class="cls-14" d="M479.5,601.4c-10.2,5.9-29.7,21.9-2.8,48.2l21.1,9.5,26.9-1.9,6.2-6.3s-4-45.9-40.3-51.6A16.7,16.7,0,0,0,479.5,601.4Z" transform="translate(-314.7 -381.9)"/><path class="cls-11" d="M413,550l28.9,1s10,14,4.8,36.6a18.3,18.3,0,0,0-.4,5.2c.6,6.4,2.3,21.8,6.2,29.2a46.3,46.3,0,0,1,5.1,19.6l-11.1,1.1s-12.1-45.5-15.9-53.4c0,0-6.5-5.2-3.9,9.5,0,0,8.7,24.2,5.9,35.5l-8.7-1.6S404.5,587.9,413,550Z" transform="translate(-314.7 -381.9)"/><polygon class="cls-15" points="82.7 126.6 86.8 141.4 94.1 141.4 90.1 126.6 82.7 126.6"/><path class="cls-16" d="M441.2,522.2s.5,9.4,2.4,14.2a25.1,25.1,0,0,1,.7,8.5,31.3,31.3,0,0,0,1.3,11.6,14.8,14.8,0,0,1,.8,4.6c0,3.1-.5,8-2.6,11.8,0,0-1.5,2.1,1.2,3.3,0,0,2.3,1.4-.7,4.3,0,0-.3,3.2,3.8.9,0,0,4.6-2.1,1.8-10.6,0,0-1.3-3,.7-9.2a3.6,3.6,0,0,0,.2-1c.3-4.4,1.9-36.4-1.5-40.2Z" transform="translate(-314.7 -381.9)"/><path class="cls-17" d="M423.9,483.8s-2.7,9.9,2.7,12.2c0,0,5.3,2.2,0,7.9,0,0,2.8,7,10.3,1.4l4.2-14.8-4.3-7.3-8.2-3.5Z" transform="translate(-314.7 -381.9)"/><path class="cls-18" d="M414.8,517.3s-6.6,14.3-8.2,20c0,0-2.2,2.8-2.3-4.9a51.6,51.6,0,0,0-1.8-7.9s-.4-2.6,1.6-6.5a1.8,1.8,0,0,0,.1-1.6c-.2-.8-.7-1.6-1.7-.3s-2.2,3.7-2.1-.9c0,0-.8-4-1.9.7a5.6,5.6,0,0,1-.4,1.2c-.3.7-.8,2.7.1,7.3a10.9,10.9,0,0,1,.1,1.8c-.2,3.7-.4,16.9,6.3,21.8a1.9,1.9,0,0,0,2.7-.4c3-3.6,10.8-14,12.1-23.8Z" transform="translate(-314.7 -381.9)"/><path class="cls-19" d="M427.4,503.9a.7.7,0,0,0-.9-.2c-2.4,1.5-11.5,7.5-12.9,12.4,0,0-1.5,3.3,2.7,6a2.8,2.8,0,0,1,1.1,1.3A30.1,30.1,0,0,1,413,550l28.9,1s-9.9-13.9-1.4-25.1a3.1,3.1,0,0,0,.6-1.6l.4-22S431.7,510.3,427.4,503.9Z" transform="translate(-314.7 -381.9)"/><path class="cls-20" d="M441,523.8s-4.3-14.2-3.3-18.4,8.4,4.7,8.4,4.7,4.4,6.6,5,12.9Z" transform="translate(-314.7 -381.9)"/><path class="cls-2" d="M426.5,474.6c-1.7,1.5-7.4,7.1-3,9.1a2.3,2.3,0,0,0,1.4.1c2.1-.7,8.3-2.1,7.7,4.1a2,2,0,0,0,1.5,2.1,7.8,7.8,0,0,0,3.1-.4,1.2,1.2,0,0,1,1.4.4c.6.8,1,2.1-1.1,3.3a3.5,3.5,0,0,0-2.3,5s2.6,7.4,2.1,12.2a2.5,2.5,0,0,0,.2,1.5c.6,1.2,2.3,3,6.3,1.4,0,0,8.9-4.1,4.1-7.5,0,0-10.5-8.9-5.2-14,0,0,6.3-8.1-2.1-11a5.8,5.8,0,0,0-1.9-.2,4.6,4.6,0,0,1-2.3-.1,3.2,3.2,0,0,1-2.5-2.9c-.2-1.8-1.3-5.5-6.5-3.6A1.9,1.9,0,0,0,426.5,474.6Z" transform="translate(-314.7 -381.9)"/><path class="cls-21" d="M388,641s26-38.5,75.9,4.3c0,0,4.6,5.6,29.7,5.6,0,0,21.9,2.5-6.9,26.4a14.7,14.7,0,0,1-9.4,3.4H401.5a13.8,13.8,0,0,1-10.8-5.1C384.7,668.3,376.4,654.2,388,641Z" transform="translate(-314.7 -381.9)"/><path class="cls-22" d="M397.7,645.3s25.1-26.9,53.1,0c0,0,7,7,19.5,8.8,0,0,2.1,10-20,9H406S394.3,656.3,397.7,645.3Z" transform="translate(-314.7 -381.9)"/><path class="cls-11" d="M490.8,649.1c-5.8,3.6-15.6,12.5-3.4,26.8a13.1,13.1,0,0,0,10.3,4.8h84.2a13.2,13.2,0,0,0,8.9-3.4c8.8-7.5,25.2-27.2-7.2-49.6,0,0-19.4-14.2-41.5-1a15,15,0,0,0-4.7,5c-2.5,4.4-11.3,13.4-40.4,15.4A12.3,12.3,0,0,0,490.8,649.1Z" transform="translate(-314.7 -381.9)"/><path class="cls-23" d="M570.9,633.1c7.7,4.2,26.3,17.2,5.6,35.9a6.5,6.5,0,0,1-4.6,1.8l-66.7,1.4a5,5,0,0,1-4.1-2c-4-5.1-12.6-18.1,2.6-19h.7c4.3-.9,48.7-9.6,61.4-17.8A4.9,4.9,0,0,1,570.9,633.1Z" transform="translate(-314.7 -381.9)"/><polygon class="cls-24" points="138.4 275 136.4 280.1 140.6 286.1 144.6 276.8 138.4 275"/><polygon class="cls-24" points="141.8 285.3 139.8 290.5 144 296.5 148 287.1 141.8 285.3"/><path class="cls-25" d="M455.2,669.4l6.4,2.8s13.7-24.5,17.2-26.8c0,0,7-2.8,25.3,5.8l-9.6-23.6L471.4,626Z" transform="translate(-314.7 -381.9)"/><path class="cls-26" d="M439,656.8s2,3.1,7.6,2.7,5.1.9,5.1.9.3,5.5,4.2,6.1c0,0-.1,4.4-3.6,1.9,0,0-3.1-3.1-9.4-4.1,0,0-4.7-2.1-6.2-5.7C436.7,658.6,435.1,654.5,439,656.8Z" transform="translate(-314.7 -381.9)"/><path class="cls-26" d="M442.1,676.7l3.2.2a5.8,5.8,0,0,0,4.7-2.1c1.4-1.5,3.6-3.4,5.4-2.1s3.8,2.1,4.5,2a.8.8,0,0,1,.9.5c.6,1.3,1.7,4.2-.4,4.9H439.6a.8.8,0,0,1-.8-.7,2,2,0,0,1,1.3-2.5A2.8,2.8,0,0,1,442.1,676.7Z" transform="translate(-314.7 -381.9)"/><path class="cls-1" d="M546.9,646.7s13.2-.8,23.2-7.6a13,13,0,0,0,3.5-14.5Z" transform="translate(-314.7 -381.9)"/><path class="cls-2" d="M525.3,630.7s20.5-11.3,25.3-20.6a9,9,0,0,1,1.5-1.9c3.7-3.2,15.4-11.5,21,5.8,0,0,3.8,9.7-.5,17.3a6.6,6.6,0,0,1-2.8,2.7c-5,2.9-21.4,12.1-28.2,16.8a38.8,38.8,0,0,0-3.3,2.3c-1.5,1.4-6.4,4.4-9.5-2.7C528.8,650.4,522.9,640.7,525.3,630.7Z" transform="translate(-314.7 -381.9)"/><path class="cls-27" d="M510.7,574.6h8.4l4.8,13.7-7.9.4Z" transform="translate(-314.7 -381.9)"/><path class="cls-1" d="M511.3,580.6s-2.1,7.3,1.8,11.3,4.8,4.7,5.2,9c0,0,3.9,21.4,22,23.6,0,0,18.7,1.3,10.9-7.5l-.6-.7c-.7-1.1-3.2-4.2-9.6-4.8h-.6a15.4,15.4,0,0,1-15.3-8.3,42.9,42.9,0,0,1-5.2-14.4,45.8,45.8,0,0,1-.8-5.5s-.7-3.5-1.6-.1c0,0,.6,7.1-1.8,3.2C515.7,586.4,513.6,578.8,511.3,580.6Z" transform="translate(-314.7 -381.9)"/><path class="cls-28" d="M558.7,579.5s-10.2,9.7-4.5,17.7c0,0,5.9-2.3,4.5,9.1s8.4,0,8.4,0-.8-8.4-2-9.9,3.7.8,3.7.8l2.2-8.5-5.9-9.9Z" transform="translate(-314.7 -381.9)"/><path class="cls-11" d="M564.1,573.9s-8.5,1.2-4.1,8.7l.7.7c1.3.8,4.8,3.5,1.3,6.3,0,0-1.6,1.7,1.3,1.1,0,0,3.5-1.9,4.5.1,0,0,1.8,3.7-2.7,4,0,0-4.1,2.8,1.4,4.3,0,0,7.2,1.1,8.1-7.4a2.5,2.5,0,0,1,.2-.7c.3-1,1.3-5-4.4-8.1a2.8,2.8,0,0,1-1-.9c-.6-.9-1.8-3-1.2-4.8a3.6,3.6,0,0,0-.2-1.8C567.5,574.4,566.5,573.5,564.1,573.9Z" transform="translate(-314.7 -381.9)"/><path class="cls-29" d="M451.4,656.7s4.8,6.7,10.6,5c0,0,5.6-28.7,15.9-31,0,0,10.5,0,25,20.3a28.2,28.2,0,0,0,29.7,3.7s-10.1-11.4-7.3-24c0,0-9.4,5.1-33.3-8.7,0,0-15.5-6.7-23.2-2.3C468.8,619.7,452.7,637.7,451.4,656.7Z" transform="translate(-314.7 -381.9)"/><path class="cls-30" d="M527.2,578.8l.9-1.2" transform="translate(-314.7 -381.9)"/><path class="cls-31" d="M529.7,575.1c7.9-12.8,30.7-55.6,3.4-88.9a6,6,0,0,0-5.8-1.9c-5.4,1.2-14.5,5.3-10,18.3,6.1,17.9,36.3-6.6,41.3-18.5l.3-.7c2.7-4.5,32.7-58.3-53.5-86.1h-.3c-2.9-1.1-57-20.9-98.8,14l-.3.2c-2.4,1.7-39.8,30.1-9.8,86" transform="translate(-314.7 -381.9)"/><path class="cls-30" d="M397,498.7a8.3,8.3,0,0,0,.7,1.3" transform="translate(-314.7 -381.9)"/><polygon class="cls-32" points="170.3 26.6 191.3 0 149.1 8.8 170.3 26.6"/><polygon class="cls-33" points="183.7 8.8 189.2 19.6 149.1 8.8 183.7 8.8"/></svg>