<svg xmlns="http://www.w3.org/2000/svg" xmlns:xlink="http://www.w3.org/1999/xlink" viewBox="0 0 77.964 76.063"><defs><clipPath id="68537824-5c7b-40f5-9bfe-494c7414e99e" transform="translate(0 -5.833)"><path d="M89.422,40.521c0,22.38-23.75,42.189-43.125,41.564C23.929,81.363,8.38,62.9,8.38,40.521a40.521,40.521,0,0,1,81.042,0Z" fill="none"/></clipPath><clipPath id="29be2f54-f6b6-442b-9f1a-a8a9a3d80695" transform="translate(0 -5.833)"><path id="ca89c139-d191-4902-89fa-b86888dccf23" data-name="&lt;Clipping Path&gt;" d="M52.7,29.834l.5,7.906s-4.773,4.243-8.486,0l.531-6.9Z" fill="#fdb483"/></clipPath></defs><title>intercAsset 7</title><g style="isolation:isolate"><g id="baf36a9a-2c30-4c09-80c8-593c25eec817" data-name="Layer 2"><g id="f350c9b8-6090-4f0d-97a1-e38a48e5769e" data-name="Objects"><circle cx="47.547" cy="45.626" r="30.417" fill="#c7deff"/><g clip-path="url(#68537824-5c7b-40f5-9bfe-494c7414e99e)"><path d="M51.607,36.679,53.2,37.74a30.117,30.117,0,0,1,10.608,2.121s2.491,34.1-1.676,38.474c0,0-18.958,10.416-35.208-4.376,0,0,4.531-34.1,7.183-35.689s12.2-.53,12.2-.53Z" transform="translate(0 -5.833)" fill="#0057ff"/><path id="75a821d1-ad78-47a6-97d6-aea9826007f6" data-name="&lt;Clipping Path&gt;" d="M52.7,29.834l.5,7.906s-4.773,4.243-8.486,0l.531-6.9Z" transform="translate(0 -5.833)" fill="#fdb483"/><g clip-path="url(#29be2f54-f6b6-442b-9f1a-a8a9a3d80695)"><path d="M42.562,34.849s8.158.96,9.118-3.84S42.562,34.849,42.562,34.849Z" transform="translate(0 -5.833)" fill="#fdb483" opacity="0.39" style="mix-blend-mode:multiply"/></g><path d="M68.288,64.193s-2.014-3.088-4.129-6.827c2.77-2.995,6.786-3.2,8.593-3.118A76.732,76.732,0,0,1,77.2,68.329s-2.546,7-28.951,3.817L46.336,68.01S62.879,67.056,68.288,64.193Z" transform="translate(0 -5.833)" fill="#fdb483"/><path d="M52.339,67.5s-9.376,0-9.167,2.292c.155,1.711,2.708,2.916,5.417,2.291S52.339,67.5,52.339,67.5Z" transform="translate(0 -5.833)" fill="#fdb483"/><path d="M63.834,59.1c-2.491-4.4-4.8-11.444-4.454-13.68.636-4.136,1.909-4.772,1.909-4.772s1.909-2.227,4.454.318c1.466,1.467,5.991,8.623,8.589,14.952C72.526,55.839,66.6,56.108,63.834,59.1Z" transform="translate(0 -5.833)" fill="#0057ff"/><path d="M40.932,13.579S34.947,31.1,43.155,33.334,54.966,27.3,54.966,27.3l.068-11.714Z" transform="translate(0 -5.833)" fill="#fdb483"/><path d="M52.05,31.564S64.83,25.9,59.977,17.735c0,0,.7-6.1-6.206-7.359,0,0-8.491-8.369-8.5-2.388,0,0-6.858-3.026-5.788,3.118,0,0-6.143-.018-1.1,4.73a15.446,15.446,0,0,0,14.648,2.406s-2.938,3.325-1.542,7.3C51.489,25.544,50.61,29.353,52.05,31.564Z" transform="translate(0 -5.833)" fill="#804d4c"/><path d="M51.287,25.65a2.317,2.317,0,1,0,4.037,2.082,2.317,2.317,0,1,0-4.037-2.082Z" transform="translate(0 -5.833)" fill="#fdb483"/><path d="M53.909,17.648a.814.814,0,0,1-.082.342,1.073,1.073,0,0,1-.117.206,1.68,1.68,0,0,1-.267.3,3.083,3.083,0,0,1-.569.392,5.939,5.939,0,0,1-1.165.451,14.014,14.014,0,0,1-2.338.433c-.779.093-1.558.14-2.335.163s-1.554.022-2.328.025c.77-.089,1.541-.163,2.3-.284s1.526-.241,2.271-.415a13.4,13.4,0,0,0,2.169-.657,5.013,5.013,0,0,0,.951-.493,2.192,2.192,0,0,0,.355-.3.8.8,0,0,0,.1-.146c.006-.019.024-.044.019-.05s0-.051-.008.063Z" transform="translate(0 -5.833)" fill="#804d4c"/><path d="M59.3,17.184a.978.978,0,0,0,.563-.123,1.6,1.6,0,0,0,.54-.475,3.565,3.565,0,0,0,.589-1.539,3.818,3.818,0,0,1-.128,1.777,2.242,2.242,0,0,1-.52.848,1.9,1.9,0,0,1-.986.549Z" transform="translate(0 -5.833)" fill="#804d4c"/><path d="M59.071,16.9a2.122,2.122,0,0,0,.49.413,2.184,2.184,0,0,0,.628.271,2.018,2.018,0,0,0,1.434-.193,2.288,2.288,0,0,1-1.464.711,2.836,2.836,0,0,1-.879-.063,3.036,3.036,0,0,1-.863-.333Z" transform="translate(0 -5.833)" fill="#804d4c"/><path d="M47.251,23.257a2.468,2.468,0,0,0-2.289-2.025c-.165-.014-.178-.275-.01-.261a2.725,2.725,0,0,1,2.56,2.276c.024.166-.237.176-.261.01Z" transform="translate(0 -5.833)" fill="#804d4c"/><path d="M41.515,20.591a1.693,1.693,0,0,0-1.975.775c-.062.1-.218.008-.156-.09a1.876,1.876,0,0,1,2.177-.859c.11.036.064.21-.046.174Z" transform="translate(0 -5.833)" fill="#804d4c"/><path d="M45.1,29.262a2.843,2.843,0,0,1-1.02.962,2.927,2.927,0,0,1-2.7-.012c-.153-.069-.018-.293.134-.225a2.585,2.585,0,0,0,3.364-.858.131.131,0,0,1,.225.133Z" transform="translate(0 -5.833)" fill="#573c37"/><path d="M63.006,57.068l-1.1-1.047c-.181-.173-.457.1-.275.275l1.1,1.047c.181.173.457-.1.275-.275Z" transform="translate(0 -5.833)" fill="#557ed6"/><path d="M61.944,57.742l-2.307-1.511c-.21-.138-.405.2-.2.336l2.306,1.511c.21.137.406-.2.2-.336Z" transform="translate(0 -5.833)" fill="#557ed6"/><path d="M43.519,38.345a7.2,7.2,0,0,0,4.721,2.872c2.084.137,3.922-1.031,5.594-2.12.209-.136.014-.473-.2-.336-1.613,1.05-3.331,2.179-5.344,2.026a6.737,6.737,0,0,1-4.5-2.718c-.162-.191-.436.085-.275.276Z" transform="translate(0 -5.833)" fill="#557ed6"/><path d="M64.443,57.566c1.925-2.413,5.639-2.381,8.458-2.485.249-.009.251-.4,0-.389-2.911.107-6.742.1-8.733,2.6-.155.194.119.471.275.275Z" transform="translate(0 -5.833)" fill="#557ed6"/><path d="M42.536,47.654H54.711a.973.973,0,0,1,.956,1.329L53.293,57.43a1.892,1.892,0,0,1-1.7,1.33H39.414a.973.973,0,0,1-.955-1.33l2.374-8.447A1.891,1.891,0,0,1,42.536,47.654Z" transform="translate(0 -5.833)" fill="#fff" opacity="0.66" style="isolation:isolate"/><path d="M44.3,50.069H56.47a.972.972,0,0,1,.955,1.329l-2.374,8.447a1.89,1.89,0,0,1-1.7,1.33H41.173a.973.973,0,0,1-.956-1.33L42.591,51.4A1.892,1.892,0,0,1,44.3,50.069Z" transform="translate(0 -5.833)" fill="#fff" opacity="0.7" style="isolation:isolate"/></g><path d="M24.476,55.127l-3,10.967L6.534,71.206s-4.72,3.933.393,4.326A28.989,28.989,0,0,0,27.771,69.24l2.36-13.765Z" transform="translate(0 -5.833)" fill="#fdb483"/><path d="M34.952,58.546c2.672-4.724,5.148-12.28,4.779-14.68-.683-4.437-2.048-5.12-2.048-5.12s-2.048-2.39-4.779.341c-1.574,1.574-6.43,9.253-9.218,16.045C25.625,55.044,31.979,55.332,34.952,58.546Z" transform="translate(0 -5.833)" fill="#0057ff"/><rect x="5.39" y="20.938" width="23.592" height="15.546" rx="6.002" ry="6.002" transform="translate(-7.672 0.477) rotate(-17.072)" fill="#ba5966"/><rect x="5.26" y="20.515" width="23.592" height="15.546" rx="1.675" ry="1.675" transform="translate(-7.553 0.42) rotate(-17.072)" fill="#ff7a8c"/><rect x="7.213" y="27.566" width="4.09" height="4.375" rx="2.002" ry="2.002" transform="translate(-8.327 -1.804) rotate(-17.072)" fill="#ffbf40"/><rect x="8.572" y="33.674" width="4.256" height="1.551" transform="translate(-9.642 -1.174) rotate(-17.073)" fill="#eff3f4"/><rect x="13.597" y="32.13" width="4.256" height="1.551" transform="matrix(0.956, -0.294, 0.294, 0.956, -8.967, 0.233)" fill="#eff3f4"/><rect x="18.622" y="30.587" width="4.256" height="1.551" transform="translate(-8.293 1.64) rotate(-17.073)" fill="#eff3f4"/><rect x="23.647" y="29.044" width="4.256" height="1.551" transform="translate(-7.619 3.048) rotate(-17.073)" fill="#eff3f4"/><text transform="matrix(0.956, -0.294, 0.294, 0.956, 15.455, 19.009)" font-size="3.358" fill="#fff" font-family="Montserrat-ExtraBold, Montserrat" font-weight="700">BANK</text><path d="M10.725,61.724a72.113,72.113,0,0,0-4.807-7.318l.183-.139a72.236,72.236,0,0,1,4.827,7.309Z" transform="translate(0 -5.833)" fill="#28b260"/><path d="M10.921,61.581A72.286,72.286,0,0,0,6.1,54.272a61.776,61.776,0,0,0,12.72-13.124,78.585,78.585,0,0,1,6.317,6.544A69.534,69.534,0,0,1,10.921,61.581Z" transform="translate(0 -5.833)" fill="#2ecc71"/><path d="M10.227,58.887Q9.24,57.336,8.19,55.856a2.109,2.109,0,0,0,.4-2.942,62.246,62.246,0,0,0,8.744-8.975,1.867,1.867,0,0,0,2.876-.3q1.326,1.329,2.6,2.739a2.9,2.9,0,0,0-.09,3.481A69.168,69.168,0,0,1,13.082,59.3,1.924,1.924,0,0,0,10.227,58.887Z" transform="translate(0 -5.833)" fill="#28b260"/><path d="M17.311,53.87a2.415,2.415,0,0,1-3.725-.173,3.157,3.157,0,0,1,.341-4.046,2.483,2.483,0,0,1,3.725-.028A3.226,3.226,0,0,1,17.311,53.87Z" transform="translate(0 -5.833)" fill="#2ecc71"/><path d="M0,68.41a72.27,72.27,0,0,0,6.418-5.955l.167.158A72.142,72.142,0,0,1,.179,68.586Z" transform="translate(0 -5.833)" fill="#28b260"/><path d="M.173,68.58A72.434,72.434,0,0,0,6.58,62.608,61.8,61.8,0,0,0,21.633,72.972a78.867,78.867,0,0,1-5.4,7.316A69.536,69.536,0,0,1,.173,68.58Z" transform="translate(0 -5.833)" fill="#2ecc71"/><path d="M2.714,67.448q1.366-1.23,2.651-2.512a2.108,2.108,0,0,0,2.968-.092,62.255,62.255,0,0,0,10.3,7.133,1.868,1.868,0,0,0,.774,2.786q-1.09,1.528-2.269,3.023a2.9,2.9,0,0,0-3.447.489A69.106,69.106,0,0,1,2.786,70.332,1.926,1.926,0,0,0,2.714,67.448Z" transform="translate(0 -5.833)" fill="#28b260"/><path d="M8.838,73.6a2.415,2.415,0,0,1-.448-3.7,3.158,3.158,0,0,1,4.047-.336,2.483,2.483,0,0,1,.645,3.669A3.224,3.224,0,0,1,8.838,73.6Z" transform="translate(0 -5.833)" fill="#2ecc71"/><path d="M13.2,42.176a2.451,2.451,0,1,1-2.452-2.449A2.451,2.451,0,0,1,13.2,42.176Z" transform="translate(0 -5.833)" fill="#ffbf40"/><path d="M10.744,44.278a2.106,2.106,0,0,1,0-4.211h0a2.106,2.106,0,0,1,0,4.211Zm0-3.889h0a1.784,1.784,0,1,0,0,3.567h0a1.784,1.784,0,0,0,0-3.567Z" transform="translate(0 -5.833)" fill="#ffdf67"/><path d="M10.7,58.634a2.451,2.451,0,1,1-2.452-2.449A2.451,2.451,0,0,1,10.7,58.634Z" transform="translate(0 -5.833)" fill="#ffbf40"/><path d="M8.244,60.736a2.105,2.105,0,0,1,0-4.21h0a2.105,2.105,0,0,1,0,4.21Zm0-3.888h0a1.784,1.784,0,0,0,0,3.567h0a1.784,1.784,0,0,0,0-3.567Z" transform="translate(0 -5.833)" fill="#ffdf67"/></g></g></g></svg>