<svg xmlns="http://www.w3.org/2000/svg" xmlns:xlink="http://www.w3.org/1999/xlink" viewBox="0 0 800 803.1"><defs><style>.cls-1,.cls-20{fill:#fdb483;}.cls-12,.cls-2{fill:#bccfff;}.cls-3{fill:#7ba1ff;}.cls-4{fill:#4dc6cc;}.cls-5{fill:#44baba;}.cls-6{fill:#b3b7d4;}.cls-7{isolation:isolate;}.cls-8{fill:#e8e8e8;}.cls-9{clip-path:url(#clip-path);}.cls-10{fill:#6b2828;}.cls-11{clip-path:url(#clip-path-2);}.cls-12{opacity:0.3;}.cls-12,.cls-20{mix-blend-mode:multiply;}.cls-13{fill:#d64170;}.cls-14{fill:#94aeff;}.cls-15{clip-path:url(#clip-path-3);}.cls-16{fill:#2c58ff;}.cls-17{clip-path:url(#clip-path-4);}.cls-18{fill:#c23360;}.cls-19{clip-path:url(#clip-path-5);}.cls-20{opacity:0.39;}.cls-21{fill:#4d5ba3;}.cls-22{fill:#804d4c;}.cls-23{fill:#557ed6;}.cls-24{clip-path:url(#clip-path-6);}.cls-25{fill:#b0e7ed;}.cls-26{clip-path:url(#clip-path-7);}.cls-27{clip-path:url(#clip-path-8);}.cls-28{clip-path:url(#clip-path-9);}.cls-29{fill:#edf1f6;opacity:0.37;}.cls-30{opacity:0.24;}.cls-31{fill:#6875a0;}.cls-32{fill:#573c37;}</style><clipPath id="clip-path" transform="translate(-103 -90.8)"><path id="_Clipping_Path_" data-name="&lt;Clipping Path&gt;" class="cls-1" d="M370.3,806.8,338,838.2s5.6,14-25,37.2c0,0-72.8-107-67.8-110.2S289.6,796,289.6,796l29.2,12.6,30.7-33.9Z"/></clipPath><clipPath id="clip-path-2" transform="translate(-103 -90.8)"><path id="_Clipping_Path_2" data-name="&lt;Clipping Path&gt;" class="cls-2" d="M661,582.6s-111.8,67.6-138.2,73.5c0,0-67.7,94.2-156,155.9l-32.3-32.3S469.8,570.8,511,562,655.2,567.9,661,582.6Z"/></clipPath><clipPath id="clip-path-3" transform="translate(-103 -90.8)"><path id="_Clipping_Path_3" data-name="&lt;Clipping Path&gt;" class="cls-1" d="M566.9,788.5l8.8,44.1s14.7,3,17.7,41.2c0,0-129.5,3-129.5-2.9s50-20.6,50-20.6l26.5-17.7-11.7-44.1Z"/></clipPath><clipPath id="clip-path-4" transform="translate(-103 -90.8)"><path id="_Clipping_Path_4" data-name="&lt;Clipping Path&gt;" class="cls-3" d="M808.4,541.7s-.3,79.1-291.5,49.7c0,0,44.1,70.6,58.8,203l-52.9,11.8s-99-200.8-83.5-286.3a7.7,7.7,0,0,1,6-6c23.9-4.8,130.8-25.1,201-22.5C725.8,494.3,808.4,541.7,808.4,541.7Z"/></clipPath><clipPath id="clip-path-5" transform="translate(-103 -90.8)"><path id="_Clipping_Path_5" data-name="&lt;Clipping Path&gt;" class="cls-1" d="M767.1,223.9l2.8,43.9s-26.5,23.5-47.1,0l3-38.3Z"/></clipPath><clipPath id="clip-path-6" transform="translate(-103 -90.8)"><path id="_Clipping_Path_6" data-name="&lt;Clipping Path&gt;" class="cls-4" d="M201.2,283.8l-9.1,5.7,6.5-11.8c-7.6-16.2-15.3-24-15.3-24A202.6,202.6,0,0,0,169.2,346l14.4,8.2-13.7-1c4.7,41.5,20.1,69,20.1,69l12.9,1C221,356.3,212.2,310.6,201.2,283.8Z"/></clipPath><clipPath id="clip-path-7" transform="translate(-103 -90.8)"><path id="_Clipping_Path_7" data-name="&lt;Clipping Path&gt;" class="cls-5" d="M159.7,319.9l-5.6,7.2,1.7-11.2c-10.7-10.6-19-14.5-19-14.5a169.9,169.9,0,0,0,15.8,77l13.8,2.2-11.2,3.2c15.9,31.4,36.1,48.6,36.1,48.6l10.4-3C196.4,371.3,176.2,337.9,159.7,319.9Z"/></clipPath><clipPath id="clip-path-8" transform="translate(-103 -90.8)"><path id="_Clipping_Path_8" data-name="&lt;Clipping Path&gt;" class="cls-4" d="M246,323.1l-9,.8,9.4-6.3c.6-15.1-2.2-23.8-2.2-23.8a169.4,169.4,0,0,0-46.1,63.6l7.7,11.7-9.9-6.1c-12.5,32.8-11.5,59.4-11.5,59.4l9.3,5.6C232.9,384.9,243.9,347.5,246,323.1Z"/></clipPath><clipPath id="clip-path-9" transform="translate(-103 -90.8)"><rect id="_Rectangle_" data-name="&lt;Rectangle&gt;" class="cls-6" x="162.8" y="416.5" width="56.2" height="46.25" rx="1.9" ry="1.9"/></clipPath></defs><title>freelancers</title><g class="cls-7"><g id="Layer_1" data-name="Layer 1"><polygon class="cls-6" points="524.4 521 470.9 799.7 482.4 799.7 551.1 521 524.4 521"/><polygon class="cls-8" points="62.1 384.5 8.6 803.1 20.1 803.1 88.8 384.5 62.1 384.5"/><polygon class="cls-6" points="646.5 516.3 700 795 688.5 795 619.8 516.3 646.5 516.3"/><path class="cls-8" d="M558.6,581.3s-26.7,34.4,95.5,30.6,152.7-3.9,164.1-34.4,34.4-213.8,53.5-221.4-22.9-26.8-34.4,15.2S810.6,566,761,569.9,558.6,581.3,558.6,581.3Z" transform="translate(-103 -90.8)"/><path id="_Clipping_Path_9" data-name="&lt;Clipping Path&gt;" class="cls-1" d="M370.3,806.8,338,838.2s5.6,14-25,37.2c0,0-72.8-107-67.8-110.2S289.6,796,289.6,796l29.2,12.6,30.7-33.9Z" transform="translate(-103 -90.8)"/><g class="cls-9"><path class="cls-10" d="M341.8,841c-.9-3.9-1.4-5.4-18.6-2.7s1.4-30.4-6.3-35.8-75.8-45.6-75.8-45.6L235,773.5l78.3,111.1S346.4,861.1,341.8,841Z" transform="translate(-103 -90.8)"/></g><path id="_Clipping_Path_10" data-name="&lt;Clipping Path&gt;" class="cls-2" d="M661,582.6s-111.8,67.6-138.2,73.5c0,0-67.7,94.2-156,155.9l-32.3-32.3S469.8,570.8,511,562,655.2,567.9,661,582.6Z" transform="translate(-103 -90.8)"/><g class="cls-11"><path class="cls-12" d="M641.8,603.3s-104.1,0-112.9-3.5,30,33.5,31.8,65.3-88.3,72.3-88.3,72.3-45.9-142.9-35.3-150S613.6,561,641.8,603.3Z" transform="translate(-103 -90.8)"/><path class="cls-13" d="M399.2,654.4a.8.8,0,0,0,0-1.6.8.8,0,0,0,0,1.6Z" transform="translate(-103 -90.8)"/><path class="cls-14" d="M328,767.6c-.2-2.7,9,4.3,9.5,4.6l4.6,3.8,10.7,8.7,20.7,16.7,42.2,34.2c.2.2.5-.1.3-.2l-53.7-43.6-26.1-21.1c.2.1-9-7.8-8.6-3.1.1.3.5.3.4,0Z" transform="translate(-103 -90.8)"/></g><path id="_Clipping_Path_11" data-name="&lt;Clipping Path&gt;" class="cls-1" d="M566.9,788.5l8.8,44.1s14.7,3,17.7,41.2c0,0-129.5,3-129.5-2.9s50-20.6,50-20.6l26.5-17.7-11.7-44.1Z" transform="translate(-103 -90.8)"/><g class="cls-15"><path class="cls-10" d="M580.1,831c-3.7-1.4-5.3-1.8-12.4,14.1S543,827.4,534.2,831s-79.4,38.8-79.4,38.8l10.6,14.1,135.8-5.3S599.5,838,580.1,831Z" transform="translate(-103 -90.8)"/></g><path class="cls-16" d="M761.1,261.9l8.8,5.9s32.4,0,58.8,11.8c0,0,0,238.3-23.5,267.7,0,0-132.4-5.9-185.3-55.9,0,0,29.4-211.8,44.1-220.7s67.6-2.9,67.6-2.9Z" transform="translate(-103 -90.8)"/><path id="_Clipping_Path_12" data-name="&lt;Clipping Path&gt;" class="cls-3" d="M808.4,541.7s-.3,79.1-291.5,49.7c0,0,44.1,70.6,58.8,203l-52.9,11.8s-99-200.8-83.5-286.3a7.7,7.7,0,0,1,6-6c23.9-4.8,130.8-25.1,201-22.5C725.8,494.3,808.4,541.7,808.4,541.7Z" transform="translate(-103 -90.8)"/><g class="cls-17"><path class="cls-18" d="M582,712.9l-3.5-.9a.8.8,0,1,0-.4,1.5l3.5.9c1,.2,1.4-1.3.4-1.5Z" transform="translate(-103 -90.8)"/><path class="cls-16" d="M514.9,794.3c28.2-8.6,56.7-16,85.5-22.4.2-.1.1-.5-.1-.4q-43.2,9.6-85.5,22.4c-.3.1-.1.5.1.4Z" transform="translate(-103 -90.8)"/><path class="cls-16" d="M634.7,492.3l34.5,8.7c.2.1.3-.3.1-.3L634.8,492c-.2-.1-.3.3-.1.3Z" transform="translate(-103 -90.8)"/><path class="cls-16" d="M652.4,507.3l12.3,3.6c.3,0,.4-.3.1-.4L652.5,507c-.3-.1-.4.3-.1.3Z" transform="translate(-103 -90.8)"/><path class="cls-16" d="M661.2,494.2c52.5,3.6,102.8,27.1,139.9,64.4A208.5,208.5,0,0,1,829,593.5c.2.2.5,0,.4-.2-28.5-44.3-73.4-77.2-124-91.7a215.6,215.6,0,0,0-44.2-7.8.2.2,0,1,0,0,.4Z" transform="translate(-103 -90.8)"/><path class="cls-16" d="M782.1,526.5c-23.7,7.1-48,16-67,32.3-8.7,7.4-19.1,17.8-21.2,29.5-1.5,8.4,3.7,18.4,13.2,17.7a.2.2,0,1,0,0-.4c-7.7.6-13.2-6.7-13.2-13.9s3.6-12.5,7.4-17.6a93.9,93.9,0,0,1,23.8-22.4c17.3-11.7,37.2-18.8,57.1-24.8a.2.2,0,0,0-.1-.4Z" transform="translate(-103 -90.8)"/><path class="cls-16" d="M733.3,536.7c16.8,12.4,34.4,26,41.6,46.4.1.2.5.1.4-.1-7.2-20.5-25-34.1-41.8-46.6-.2-.2-.4.2-.2.3Z" transform="translate(-103 -90.8)"/><path class="cls-16" d="M737,528.6a138.3,138.3,0,0,1,30.5,19.7c8.9,7.7,17.2,17.9,16,30.3,0,.2.4.2.4,0,1-11.4-5.7-21-13.7-28.5-9.7-9-21.2-16.2-33-21.9-.2-.1-.4.3-.2.4Z" transform="translate(-103 -90.8)"/><path class="cls-16" d="M519.1,584a67.1,67.1,0,0,1-7.6-16c-.1-.3-.5-.2-.4.1a70,70,0,0,0,7.7,16.1c.1.2.5,0,.3-.2Z" transform="translate(-103 -90.8)"/><path class="cls-16" d="M512.4,587.1,500,576.7c-.2-.2-.5.1-.3.2l12.4,10.5a.2.2,0,1,0,.3-.3Z" transform="translate(-103 -90.8)"/></g><path id="_Clipping_Path_13" data-name="&lt;Clipping Path&gt;" class="cls-1" d="M767.1,223.9l2.8,43.9s-26.5,23.5-47.1,0l3-38.3Z" transform="translate(-103 -90.8)"/><g class="cls-19"><path class="cls-20" d="M710.9,251.7s45.2,5.4,50.6-21.2S710.9,251.7,710.9,251.7Z" transform="translate(-103 -90.8)"/></g><path class="cls-1" d="M853.6,414.5s-11.2-17.1-22.9-37.9c15.4-16.6,37.6-17.7,47.7-17.2,10.6,25.8,20.1,54.1,24.6,78.1,0,0-14.1,38.8-160.6,21.1l-10.6-22.9S823.6,430.4,853.6,414.5Z" transform="translate(-103 -90.8)"/><path class="cls-16" d="M828.9,386.3c-13.8-24.4-26.6-63.5-24.7-75.9,3.5-22.9,10.6-26.5,10.6-26.5s10.6-12.3,24.7,1.8c8.1,8.1,33.2,47.8,47.6,82.9C877.1,368.2,844.3,369.7,828.9,386.3Z" transform="translate(-103 -90.8)"/><path class="cls-21" d="M749.9,447.8l-47.4-117a10.3,10.3,0,0,0-9.6-6.5H493.2a7.2,7.2,0,0,0-6.7,10.1L541,462.5H829.3l-2.7-10.3Z" transform="translate(-103 -90.8)"/><path class="cls-1" d="M701.8,133.8S668.7,231,714.2,243.3s65.5-33.4,65.5-33.4l.4-65Z" transform="translate(-103 -90.8)"/><path class="cls-22" d="M763.5,233.5s70.9-31.4,44-76.7c0,0,3.9-33.8-34.4-40.8,0,0-47.1-46.4-47.2-13.2,0,0-38-16.8-32.1,17.3,0,0-34.1-.1-6.1,26.2,0,0,33.4,29.5,81.3,13.3,0,0-16.3,18.5-8.6,40.5C760.4,200.1,755.5,221.3,763.5,233.5Z" transform="translate(-103 -90.8)"/><path class="cls-1" d="M759.3,200.7c-3.9,7.6-2.1,16.3,4.1,19.5s14.4-.4,18.3-7.9,2-16.3-4.2-19.5S763.2,193.2,759.3,200.7Z" transform="translate(-103 -90.8)"/><path class="cls-22" d="M732,156.1a8,8,0,0,0,4.1-1.6A10.9,10.9,0,0,0,739,151a18.2,18.2,0,0,0,1.7-4.4c.1-.8.3-1.5.4-2.3l.2-2.4v2.4l-.3,2.4a18.1,18.1,0,0,1-1.4,4.5,12.4,12.4,0,0,1-2.9,3.9,10.4,10.4,0,0,1-4.5,2.1Z" transform="translate(-103 -90.8)"/><path class="cls-22" d="M729.1,154a16.2,16.2,0,0,0,3.6,2.1,13.8,13.8,0,0,0,4,1h2.2a7.1,7.1,0,0,0,2-.4,11.5,11.5,0,0,0,3.9-1.8A17.6,17.6,0,0,1,741,157a8,8,0,0,1-2.1.5l-2.2.2a16.5,16.5,0,0,1-4.3-.9,14.4,14.4,0,0,1-3.9-2Z" transform="translate(-103 -90.8)"/><path class="cls-23" d="M823.7,375.6l-6.1-5.8a.2.2,0,0,0-.3.3l6.1,5.8c.2.2.4-.1.3-.3Z" transform="translate(-103 -90.8)"/><path class="cls-23" d="M818,379.5l-12.8-8.4c-.2-.1-.4.2-.2.3l12.8,8.4c.2.2.4-.2.2-.3Z" transform="translate(-103 -90.8)"/><path class="cls-23" d="M699.3,493.8a274.3,274.3,0,0,1,108.4,34.6c.2.1.4-.2.2-.3a276.4,276.4,0,0,0-108.6-34.7.2.2,0,1,0,0,.4Z" transform="translate(-103 -90.8)"/><path class="cls-23" d="M716.8,270.5c6.1,7.4,14.7,14.5,24.6,15.6,11.7,1.3,22.2-5.4,31.6-11.5.2-.2,0-.5-.2-.4-8.9,5.8-18.7,12.2-29.8,11.6s-19.5-7.7-25.9-15.6c-.2-.2-.4.1-.3.3Z" transform="translate(-103 -90.8)"/><path class="cls-23" d="M831.7,377.1c10.2-13.7,32.1-13.5,47.5-14,.2,0,.2-.4,0-.4-15.5.5-37.6.3-47.9,14.2-.1.2.2.4.4.2Z" transform="translate(-103 -90.8)"/><rect class="cls-8" y="372" width="665.9" height="14.37"/><polygon class="cls-8" points="565.1 384.5 618.5 798.3 607.1 798.3 538.4 384.5 565.1 384.5"/><path id="_Clipping_Path_14" data-name="&lt;Clipping Path&gt;" class="cls-4" d="M201.2,283.8l-9.1,5.7,6.5-11.8c-7.6-16.2-15.3-24-15.3-24A202.6,202.6,0,0,0,169.2,346l14.4,8.2-13.7-1c4.7,41.5,20.1,69,20.1,69l12.9,1C221,356.3,212.2,310.6,201.2,283.8Z" transform="translate(-103 -90.8)"/><g class="cls-24"><path class="cls-25" d="M184.5,281.9q2.3,62,10.5,123.5c1.6,11.7,3.3,23.3,5.2,35,.1.5.8.3.8-.2q-9.9-60.9-13.9-122.6-1.2-17.9-1.8-35.7a.4.4,0,1,0-.8,0Z" transform="translate(-103 -90.8)"/><path class="cls-25" d="M187.3,322.3a192.8,192.8,0,0,1,15.2-16.1c.4-.4-.1-1-.5-.6a195.3,195.3,0,0,0-15.3,16.2c-.4.4.3.9.6.5Z" transform="translate(-103 -90.8)"/><path class="cls-25" d="M193.8,385.6c4.7-6.7,9.2-13.4,13.6-20.3.3-.4-.3-.8-.6-.4-4.4,6.8-9,13.6-13.7,20.2-.3.4.4.9.7.5Z" transform="translate(-103 -90.8)"/><path class="cls-25" d="M189.8,347.8A161.7,161.7,0,0,1,201,334.2c.4-.4-.1-1-.5-.6a149,149,0,0,0-11.4,13.8c-.3.4.4.9.7.4Z" transform="translate(-103 -90.8)"/><path class="cls-25" d="M186,302.2l-11.5-6.3c-.4-.2-.9.5-.4.7l11.4,6.2c.5.3.9-.4.5-.6Z" transform="translate(-103 -90.8)"/><path class="cls-25" d="M188.2,338.1l-13.4-7.6c-.5-.3-.9.4-.5.6l13.4,7.7c.5.2.9-.4.5-.7Z" transform="translate(-103 -90.8)"/><path class="cls-25" d="M196.1,407.8a67.7,67.7,0,0,0-11.6-5.3c-.4-.2-.7.6-.2.8a72.3,72.3,0,0,1,11.4,5.1c.4.3.9-.4.4-.6Z" transform="translate(-103 -90.8)"/><path class="cls-25" d="M191.6,373.2a133.2,133.2,0,0,1-20.9-9.9c-.5-.2-.9.4-.5.7a150.7,150.7,0,0,0,21.1,10c.5.2.7-.6.3-.8Z" transform="translate(-103 -90.8)"/></g><path id="_Clipping_Path_15" data-name="&lt;Clipping Path&gt;" class="cls-5" d="M159.7,319.9l-5.6,7.2,1.7-11.2c-10.7-10.6-19-14.5-19-14.5a169.9,169.9,0,0,0,15.8,77l13.8,2.2-11.2,3.2c15.9,31.4,36.1,48.6,36.1,48.6l10.4-3C196.4,371.3,176.2,337.9,159.7,319.9Z" transform="translate(-103 -90.8)"/><g class="cls-26"><path class="cls-25" d="M145.9,323.3q19.9,48.1,44.4,94.4c4.6,8.7,9.4,17.4,14.3,26,.2.4.8,0,.5-.3q-25.5-45.3-46.7-92.7c-4-9.1-8-18.3-11.8-27.6-.2-.4-.8-.2-.7.2Z" transform="translate(-103 -90.8)"/><path class="cls-25" d="M160,354.3a182.1,182.1,0,0,1,7.2-17.1c.2-.4-.4-.7-.5-.3a155.1,155.1,0,0,0-7.4,17.3c-.1.4.5.6.7.1Z" transform="translate(-103 -90.8)"/><path class="cls-25" d="M183.5,402.4c1.8-6.6,3.4-13.3,4.9-20,.1-.4-.6-.6-.7-.1-1.4,6.6-3.1,13.3-4.8,19.9-.2.4.5.6.6.2Z" transform="translate(-103 -90.8)"/><path class="cls-25" d="M169.4,373.8a117.6,117.6,0,0,1,4.9-14.1c.1-.4-.5-.7-.6-.3a119.6,119.6,0,0,0-5,14.2c-.1.4.5.6.7.2Z" transform="translate(-103 -90.8)"/><path class="cls-25" d="M153,338.9l-10.8-1.6c-.4-.1-.6.6-.2.7l10.9,1.5c.4.1.6-.6.1-.6Z" transform="translate(-103 -90.8)"/><path class="cls-25" d="M165.3,366.6l-12.8-2.1c-.5-.1-.6.5-.2.6l12.8,2.1c.4.1.6-.5.2-.6Z" transform="translate(-103 -90.8)"/><path class="cls-25" d="M191.9,419.2a55.1,55.1,0,0,0-10.7-.8c-.4,0-.4.7,0,.7a53.1,53.1,0,0,1,10.5.8c.4,0,.6-.6.2-.7Z" transform="translate(-103 -90.8)"/><path class="cls-25" d="M178.2,393.3a139.8,139.8,0,0,1-19.4-1.7c-.4-.1-.6.6-.2.6a128.7,128.7,0,0,0,19.6,1.8c.4,0,.4-.7,0-.7Z" transform="translate(-103 -90.8)"/></g><path id="_Clipping_Path_16" data-name="&lt;Clipping Path&gt;" class="cls-4" d="M246,323.1l-9,.8,9.4-6.3c.6-15.1-2.2-23.8-2.2-23.8a169.4,169.4,0,0,0-46.1,63.6l7.7,11.7-9.9-6.1c-12.5,32.8-11.5,59.4-11.5,59.4l9.3,5.6C232.9,384.9,243.9,347.5,246,323.1Z" transform="translate(-103 -90.8)"/><g class="cls-27"><path class="cls-25" d="M234.3,315.3q-22.2,47.3-39.7,96.4c-3.3,9.3-6.5,18.7-9.6,28.1-.2.4.5.6.6.2q16.2-49.3,36.9-97c4-9.2,8.1-18.3,12.3-27.4.2-.4-.3-.7-.5-.3Z" transform="translate(-103 -90.8)"/><path class="cls-25" d="M220.8,346.6a159.9,159.9,0,0,1,17.6-6.2c.4-.1.2-.8-.2-.7a186.2,186.2,0,0,0-17.7,6.3.3.3,0,1,0,.3.6Z" transform="translate(-103 -90.8)"/><path class="cls-25" d="M201.3,396.4q9.1-4.8,18-9.9a.3.3,0,0,0-.3-.6c-5.9,3.4-12,6.7-18,9.9a.3.3,0,1,0,.3.6Z" transform="translate(-103 -90.8)"/><path class="cls-25" d="M212.8,366.6a137.1,137.1,0,0,1,13.7-5.8c.4-.2.3-.8-.2-.7a139.6,139.6,0,0,0-13.8,5.9.3.3,0,1,0,.3.6Z" transform="translate(-103 -90.8)"/><path class="cls-25" d="M227.6,331l-6.2-9a.3.3,0,1,0-.6.3l6.2,9.1c.2.3.8,0,.6-.4Z" transform="translate(-103 -90.8)"/><path class="cls-25" d="M215.4,358.8l-7.1-10.9a.3.3,0,0,0-.6.3l7.1,10.9c.2.3.8,0,.6-.3Z" transform="translate(-103 -90.8)"/><path class="cls-25" d="M194.5,413.9a53,53,0,0,0-6.6-8.4.4.4,0,0,0-.5.5,57.1,57.1,0,0,1,6.5,8.2.3.3,0,0,0,.6-.3Z" transform="translate(-103 -90.8)"/><path class="cls-25" d="M204.4,386.3a125.7,125.7,0,0,1-11.8-15.4c-.3-.4-.9-.1-.6.3a119.1,119.1,0,0,0,11.9,15.6c.3.3.8-.2.5-.5Z" transform="translate(-103 -90.8)"/></g><rect id="_Rectangle_2" data-name="&lt;Rectangle&gt;" class="cls-6" x="59.8" y="325.7" width="56.2" height="46.25" rx="1.9" ry="1.9"/><g class="cls-28"><rect class="cls-29" x="80.1" y="325.7" width="56.2" height="46.25" rx="1.9" ry="1.9"/></g><g class="cls-30"><path class="cls-31" d="M420.1,417.8s-10.6-5-4.7-15.1,18.6-7,10.9-20.6-17-7.6-9.4-17.5,12.4.7,11.2,3.2-4,1.2-4,1.2,3-.2,2.5-3.7-7.4-2.2-8.7,2.5,33.2,18,24,25.5-12.8,12.8-9.4,16.3-8.4,8.6-8.4,8.6Z" transform="translate(-103 -90.8)"/><path class="cls-31" d="M424.2,419.4s4.3-2.9,1.9-8.9-7.5-4.2-4.4-12.3,6.9-4.5,3.8-10.4-5,.4-4.5,1.9,1.6.7,1.6.7-1.2-.1-1-2.2,3-1.3,3.5,1.5-13.5,10.8-9.8,15.2,5.3,7.6,3.9,9.7,3.4,5.1,3.4,5.1Z" transform="translate(-103 -90.8)"/></g><path class="cls-16" d="M441.1,417.3H408.4a2.4,2.4,0,0,0-2.4,2.8l1.1,8.6a6.4,6.4,0,0,0-4.6-.9,7.4,7.4,0,0,0-5.2,4.7,14.4,14.4,0,0,0-.6,8.3,15.4,15.4,0,0,0,3.8,7.4,7.8,7.8,0,0,0,5.4,2.4h1.2a6.2,6.2,0,0,0,2.8-1.4l1.5,10.6c.3,2.4,27.6,2.4,27.9-.1l4.3-39.6A2.4,2.4,0,0,0,441.1,417.3ZM406.6,448a4.9,4.9,0,0,1-4.3-1.6,12.2,12.2,0,0,1-3.1-6.1,11.8,11.8,0,0,1,.5-6.8,4.8,4.8,0,0,1,3.3-3.2h.7a5.1,5.1,0,0,1,3.5,1.7l.4.4,1.9,13.3A4.7,4.7,0,0,1,406.6,448Z" transform="translate(-103 -90.8)"/><path class="cls-22" d="M740.5,189.2c-.9-6.2-6.4-10.7-12.6-11.2-.9-.1-1-1.5,0-1.4,7,.5,13,5.3,14.1,12.5.1,1-1.3,1-1.5.1Z" transform="translate(-103 -90.8)"/><path class="cls-22" d="M708.9,174.5c-4.3-1.5-8.6.5-10.9,4.2a.5.5,0,1,1-.9-.5c2.6-4,7.3-6.3,12-4.7.6.2.4,1.2-.2,1Z" transform="translate(-103 -90.8)"/><path class="cls-32" d="M728.6,222.4a16.7,16.7,0,0,1-5.6,5.3c-4.8,2.7-10.1,2.1-14.9-.1-.9-.4-.1-1.6.7-1.2,6.6,2.9,14.6,1.8,18.6-4.8.5-.8,1.7,0,1.2.8Z" transform="translate(-103 -90.8)"/></g></g></svg>