<?xml version="1.0"?>
<svg xmlns="http://www.w3.org/2000/svg" height="512px" viewBox="0 1 511 511.9988" width="512px" class=""><g><path d="m511.503906 131.742188v360.296874c0 11.023438-8.9375 19.960938-19.960937 19.960938h-471.082031c-11.023438 0-19.960938-8.9375-19.960938-19.960938v-471.082031c0-11.023437 8.9375-19.960937 19.960938-19.960937 11.023437 0 19.960937 8.9375 19.960937 19.960937v268.515625l27.554687-28.101562c7.71875-7.871094 20.355469-7.996094 28.226563-.277344s7.996094 20.359375.277344 28.230469l-56.058594 57.167969v125.585937h38.925781v-98.808594c0-11.023437 8.9375-19.960937 19.960938-19.960937 11.023437 0 19.960937 8.9375 19.960937 19.960937v98.808594h37.925781v-182.46875c0-11.09375 9.042969-20.058594 20.136719-19.960937 10.953125.097656 19.78125 9.003906 19.78125 19.960937v182.46875h37.925781v-182.644531c0-10.957032 8.832032-19.863282 19.785157-19.960938 11.09375-.097656 20.136719 8.867188 20.136719 19.960938v182.644531h38.925781v-187.636719c0-10.996094 8.890625-19.917968 19.886719-19.960937 11.054687-.039063 20.035156 8.910156 20.035156 19.960937v187.636719h38.925781v-259.496094c0-10.996093 8.890625-19.917969 19.886719-19.960937 11.050781-.039063 20.035156 8.910156 20.035156 19.960937v259.496094h38.921875v-340.335937c0-10.996094 8.894531-19.921876 19.886719-19.960938 11.054687-.042969 20.039062 8.90625 20.039062 19.960938zm-350.515625 90.304687 29.265625-29.457031c.054688-.054688.109375-.109375.160156-.164063 4.136719-4.257812 9.5-6.789062 14.375-6.789062h.113282c4.652344.035156 9.863281 2.496093 13.945312 6.582031l23.46875 23.46875c11.230469 11.226562 25.867188 17.566406 41.226563 17.851562.347656.007813.699219.011719 1.050781.011719 15.617188 0 31.023438-6.476562 42.410156-17.863281.039063-.039062.078125-.078125.117188-.117188l178.652344-181.613281c7.730468-7.855469 7.625-20.496093-.234376-28.226562-7.859374-7.730469-20.496093-7.628907-28.226562.230469l-178.585938 181.542968c-3.925781 3.90625-9.050781 6.125-14.121093 6.125-.105469 0-.214844 0-.320313-.003906-4.902344-.089844-9.910156-2.339844-13.738281-6.167969l-23.46875-23.46875c-11.488281-11.488281-26.742187-18.148437-41.847656-18.273437-.148438 0-.292969 0-.441407 0-15.640624 0-31.257812 6.835937-42.925781 18.808594l-29.195312 29.386718c-7.769531 7.820313-7.730469 20.460938.089843 28.230469 7.820313 7.769531 20.460938 7.726563 28.230469-.09375zm0 0" data-original="#000000" class="active-path" data-old_color="#0072ff" fill="#0072ff"/></g> </svg>
