<svg xmlns="http://www.w3.org/2000/svg" xmlns:xlink="http://www.w3.org/1999/xlink" viewBox="0 0 368.392 365.099"><defs><clipPath id="b5a5dc16-d983-4e97-b60a-08d5b7dcfc93" transform="translate(0 -28)"><path d="M423.392,194.5c0,107.419-114,202.5-207,199.5-107.364-3.463-182-92.081-182-199.5S121.473,0,228.892,0,423.392,87.081,423.392,194.5Z" fill="none"/></clipPath><clipPath id="cd8c2bde-e02e-4bcd-8f7f-6f6780904096" transform="translate(0 -28)"><path id="b116122b-7b71-434f-a6fb-11dbb93ede47" data-name="&lt;Clipping Path&gt;" d="M247.123,143.2l2.4,37.945s-22.912,20.367-40.733,0l2.546-33.095Z" fill="#fdb483"/></clipPath></defs><title>intercAsset 2</title><g style="isolation:isolate"><g id="ca1c8a81-076f-4fe5-8187-09aa9f722f02" data-name="Layer 2"><g id="73d77cd6-b65a-4fc6-ae2c-dabc322239ad" data-name="Layer 1"><circle cx="222.392" cy="219" r="146" fill="#c7deff"/><g clip-path="url(#b5a5dc16-d983-4e97-b60a-08d5b7dcfc93)"><path d="M241.882,176.057l7.637,5.091s28,0,50.916,10.184c0,0,11.957,163.668-8.043,184.668,0,0-91,50-169-21,0,0,21.749-163.668,34.478-171.306s58.553-2.546,58.553-2.546Z" transform="translate(0 -28)" fill="#0057ff"/><path id="45b848d5-6f5c-42ac-a8b6-57887223b0ab" data-name="&lt;Clipping Path&gt;" d="M247.123,143.2l2.4,37.945s-22.912,20.367-40.733,0l2.546-33.095Z" transform="translate(0 -28)" fill="#fdb483"/><g clip-path="url(#cd8c2bde-e02e-4bcd-8f7f-6f6780904096)"><path d="M198.463,167.271s39.162,4.608,43.769-18.429S198.463,167.271,198.463,167.271Z" transform="translate(0 -28)" fill="#fdb483" opacity="0.39" style="mix-blend-mode:multiply"/></g><path d="M321.947,308.121s-9.665-14.821-19.82-32.769c13.3-14.377,32.577-15.36,41.249-14.966,9.171,22.342,17.445,46.879,21.327,67.586,0,0-12.216,33.6-138.959,18.325l-9.162-19.852S295.987,321.864,321.947,308.121Z" transform="translate(0 -28)" fill="#fdb483"/><path d="M245.392,324s-45,0-44,11c.747,8.212,13,14,26,11S245.392,324,245.392,324Z" transform="translate(0 -28)" fill="#fdb483"/><path d="M300.568,283.689c-11.954-21.129-23.029-54.929-21.378-65.662,3.054-19.851,9.162-22.9,9.162-22.9s9.162-10.69,21.379,1.527c7.039,7.039,28.758,41.388,41.229,71.77C342.288,268.025,313.867,269.312,300.568,283.689Z" transform="translate(0 -28)" fill="#0057ff"/><path d="M190.639,65.178s-28.727,84.1,10.673,94.822S258,131.039,258,131.039l.329-56.227Z" transform="translate(0 -28)" fill="#fdb483"/><path d="M244.009,151.5s61.34-27.189,38.046-66.375c0,0,3.341-29.28-29.786-35.327,0,0-40.758-40.168-40.822-11.46,0,0-32.916-14.524-27.779,14.967,0,0-29.488-.086-5.261,22.705,0,0,28.852,25.518,70.309,11.545,0,0-14.1,15.961-7.4,35.051C241.316,122.61,237.1,140.892,244.009,151.5Z" transform="translate(0 -28)" fill="#804d4c"/><path d="M240.343,123.119c-3.374,6.54-1.77,14.079,3.581,16.839s12.424-.3,15.8-6.845,1.769-14.079-3.582-16.839S243.716,116.578,240.343,123.119Z" transform="translate(0 -28)" fill="#fdb483"/><path d="M250.956,84.758a2.4,2.4,0,0,1-.222.872,4.977,4.977,0,0,1-.835,1.293,4.178,4.178,0,0,1-.507.545,13.582,13.582,0,0,1-2.325,1.717,21.852,21.852,0,0,1-2.548,1.252l-1.3.546-1.334.446a66.352,66.352,0,0,1-10.9,2.5l-2.76.426-2.773.311-2.772.311-2.78.214c-3.7.332-7.421.435-11.131.61,3.707-.262,7.417-.451,11.107-.869l2.77-.278,2.758-.374,2.756-.375,2.737-.487A65.84,65.84,0,0,0,241.625,90.7l1.3-.467,1.254-.561a20.924,20.924,0,0,0,2.42-1.259,12.638,12.638,0,0,0,2.111-1.631,3.426,3.426,0,0,0,.429-.483,3.015,3.015,0,0,0,.373-.509,2.762,2.762,0,0,0,.277-.536,1.851,1.851,0,0,0,.133-.466Z" transform="translate(0 -28)" fill="#804d4c"/><path d="M278.915,84.453a7.132,7.132,0,0,0,3.507-1.4,9.194,9.194,0,0,0,2.555-2.991,14.972,14.972,0,0,0,1.419-3.78c.115-.669.25-1.339.349-2.014l.182-2.043-.052,2.056c-.057.683-.15,1.365-.224,2.051a15.408,15.408,0,0,1-1.213,3.969,9.848,9.848,0,0,1-2.534,3.363,7.935,7.935,0,0,1-3.931,1.824Z" transform="translate(0 -28)" fill="#804d4c"/><path d="M276.462,82.626a13.232,13.232,0,0,0,3.063,1.83,11.675,11.675,0,0,0,3.492.905,11.5,11.5,0,0,0,1.819.023,10.56,10.56,0,0,0,1.793-.349,11.551,11.551,0,0,0,3.327-1.581,11.7,11.7,0,0,1-3.248,1.828,10.788,10.788,0,0,1-1.825.488,11.888,11.888,0,0,1-1.9.109,12.322,12.322,0,0,1-3.743-.7,14.037,14.037,0,0,1-3.436-1.75Z" transform="translate(0 -28)" fill="#804d4c"/><path d="M220.97,111.634c-.788-5.423-5.577-9.273-10.984-9.721-.792-.066-.855-1.32-.05-1.253,6.108.506,11.377,4.661,12.287,10.923.115.8-1.138.844-1.253.051Z" transform="translate(0 -28)" fill="#804d4c"/><path d="M193.438,98.834a8.138,8.138,0,0,0-9.48,3.719c-.3.468-1.046.041-.749-.431,2.219-3.521,6.35-5.494,10.453-4.123.524.176.305,1.011-.224.835Z" transform="translate(0 -28)" fill="#804d4c"/><path d="M210.627,140.455a13.653,13.653,0,0,1-4.893,4.616c-4.15,2.351-8.756,1.829-12.974-.057-.737-.33-.09-1.405.64-1.079,5.74,2.568,12.7,1.577,16.149-4.12a.627.627,0,0,1,1.078.64Z" transform="translate(0 -28)" fill="#573c37"/><path d="M296.071,274.446q-2.642-2.514-5.284-5.027c-.181-.173-.457.1-.275.275l5.284,5.027c.182.172.457-.1.275-.275Z" transform="translate(0 -28)" fill="#557ed6"/><path d="M291.123,277.794l-11.071-7.253c-.21-.138-.405.2-.2.336l11.07,7.253c.211.138.406-.2.2-.336Z" transform="translate(0 -28)" fill="#557ed6"/><path d="M203.581,183.529c5.4,6.541,12.964,12.757,21.736,13.529,10,.88,18.88-4.8,26.88-10.032.208-.136.014-.473-.2-.336-7.5,4.9-15.613,10.178-24.929,10.062-9.415-.118-17.48-6.55-23.215-13.5-.159-.193-.433.084-.275.276Z" transform="translate(0 -28)" fill="#557ed6"/><path d="M303,275.751c8.912-11.811,27.745-11.63,41.089-12.1.25-.008.251-.4,0-.389-13.511.479-32.39.323-41.425,12.3-.151.2.187.394.336.2Z" transform="translate(0 -28)" fill="#557ed6"/><path d="M198.341,228.734h58.44c3.524,0,5.578,2.857,4.587,6.381l-11.4,40.546a9.075,9.075,0,0,1-8.174,6.381h-58.44c-3.524,0-5.578-2.856-4.588-6.381l11.4-40.546A9.079,9.079,0,0,1,198.341,228.734Z" transform="translate(0 -28)" fill="#fff" opacity="0.66" style="isolation:isolate"/><path d="M206.781,240.326h58.44c3.524,0,5.578,2.857,4.587,6.381l-11.4,40.547a9.079,9.079,0,0,1-8.175,6.381H191.8c-3.524,0-5.578-2.857-4.587-6.381l11.4-40.547A9.079,9.079,0,0,1,206.781,240.326Z" transform="translate(0 -28)" fill="#fff" opacity="0.7" style="isolation:isolate"/></g><path d="M111.655,264.608,97.266,317.245l-71.734,24.54S2.879,360.662,27.42,362.55c62.225,4.787,100.049-30.2,100.049-30.2L138.8,266.276Z" transform="translate(0 -28)" fill="#fdb483"/><path d="M161.937,281.015c12.827-22.672,24.712-58.941,22.94-70.459-3.277-21.3-9.832-24.579-9.832-24.579s-9.831-11.47-22.94,1.639c-7.553,7.553-30.859,44.412-44.241,77.013C117.169,264.207,147.667,265.588,161.937,281.015Z" transform="translate(0 -28)" fill="#0057ff"/><path d="M143.392,346.833a6.084,6.084,0,0,1-1.792,4.481,6.477,6.477,0,0,1-4.183,1.493H5.975a7.14,7.14,0,0,1-4.183-1.493A6.08,6.08,0,0,1,0,346.833V259.3H143.392v87.529Z" transform="translate(0 -28)" fill="#ffd15c"/><path d="M141.6,351.314a6.477,6.477,0,0,1-4.183,1.493H5.975a7.14,7.14,0,0,1-4.183-1.493l69.9-60.046Z" transform="translate(0 -28)" fill="#f8b64c"/><path d="M143.392,259.3l-20.314,14.638L75.579,308a6.719,6.719,0,0,1-8.065,0l-47.2-34.055L0,259.3l20.314-14.638L64.526,213l3.287-2.39a6.722,6.722,0,0,1,8.065,0L79.164,213l21.21,15.236L110.83,235.7l12.248,8.962Z" transform="translate(0 -28)" fill="#40596b"/><path d="M123.078,231.522v42.42L75.579,308a6.719,6.719,0,0,1-8.065,0l-47.2-34.055V218.975A5.992,5.992,0,0,1,26.289,213h77.969Z" transform="translate(0 -28)" fill="#f2f2f2"/><path d="M89.321,273.046H94.1a15.785,15.785,0,0,1-7.17,7.468c-3.585,2.091-8.065,2.987-13.443,2.987a29.475,29.475,0,0,1-13.144-2.688,17.622,17.622,0,0,1-8.364-7.767,23.254,23.254,0,0,1-2.689-11.053,24.792,24.792,0,0,1,2.987-12.249,18.862,18.862,0,0,1,8.365-8.364,27.325,27.325,0,0,1,12.248-2.689,23.439,23.439,0,0,1,10.455,2.39,14.662,14.662,0,0,1,6.871,6.572,19.4,19.4,0,0,1,2.39,9.261,17.9,17.9,0,0,1-3.585,10.754,13.434,13.434,0,0,1-11.65,5.975,7.515,7.515,0,0,1-2.988-.6,3.027,3.027,0,0,1-1.2-2.091,8.6,8.6,0,0,1-6.273,2.688,7.718,7.718,0,0,1-6.274-2.688,9.693,9.693,0,0,1-2.688-7.17,18.257,18.257,0,0,1,2.987-10.157,11.111,11.111,0,0,1,9.56-5.377,7.4,7.4,0,0,1,6.273,3.286l.6-2.689h6.273L80.06,265.577a7.9,7.9,0,0,0-.3,2.091,1.1,1.1,0,0,0,.3.9c.3.3.3.3.6.3a6.762,6.762,0,0,0,2.987-1.493,12.462,12.462,0,0,0,3.884-4.78,16.055,16.055,0,0,0,1.493-6.273,12.421,12.421,0,0,0-4.182-9.56c-2.689-2.688-6.572-3.884-11.651-3.884a20.527,20.527,0,0,0-10.754,2.689,16.877,16.877,0,0,0-6.572,7.17,21.638,21.638,0,0,0-2.091,9.858,18.248,18.248,0,0,0,2.39,8.962,14.811,14.811,0,0,0,6.871,5.975,26.794,26.794,0,0,0,10.157,1.792,30.57,30.57,0,0,0,9.559-1.493A17.819,17.819,0,0,0,89.321,273.046Zm-25.392-9.56a6.678,6.678,0,0,0,1.195,4.481,4.147,4.147,0,0,0,2.987,1.493,5.62,5.62,0,0,0,2.39-.6,7.893,7.893,0,0,0,1.792-1.494,10.888,10.888,0,0,0,2.091-4.182,16.556,16.556,0,0,0,.9-5.078,6.324,6.324,0,0,0-1.2-4.183,4.151,4.151,0,0,0-2.988-1.493,5.514,5.514,0,0,0-3.585,1.493,8.206,8.206,0,0,0-2.688,4.481A16.588,16.588,0,0,0,63.929,263.486Z" transform="translate(0 -28)" fill="#ff7058"/></g></g></g></svg>