<?xml version="1.0" ?><!DOCTYPE svg  PUBLIC '-//W3C//DTD SVG 1.1//EN'  'http://www.w3.org/Graphics/SVG/1.1/DTD/svg11.dtd'><svg enable-background="new 0 0 512 512" height="512px" id="Calque_1" version="1.1" viewBox="0 0 512 512" width="512px" xml:space="preserve" xmlns="http://www.w3.org/2000/svg" xmlns:xlink="http://www.w3.org/1999/xlink"><g><g id="XMLID_1_"><g><path d="M137.39,418.83v14.82c0,17.12-13.88,31-31.01,31c-17.12,0-31-13.88-31-31v-215.8     c0-17.13,13.88-31.01,31-31.01c8.61,0,16.4,3.51,22.01,9.17c5.57,5.6,9,13.32,9,21.84V418.83z" fill="#DD6475"/><path d="M115.63,463.25c-2.92,0.91-6.03,1.4-9.25,1.4c-17.12,0-31-13.88-31-31v-215.8     c0-17.13,13.88-31.01,31-31.01c3.21,0,6.32,0.49,9.24,1.4c-12.6,3.94-21.74,15.71-21.74,29.61v215.8     C93.88,447.55,103.03,459.31,115.63,463.25z" opacity="0.2"/><path d="M384.43,257.47c18.94,0,35.42,15.36,35.42,34.3c0,18.95-16.48,34.31-35.42,34.31h-14.54     c18.95,0,34.31,15.36,34.31,34.3c0,18.95-15.36,34.31-34.31,34.31h-13.41c18.95,0,34.31,15.36,34.31,34.31     c0,18.94-15.36,34.3-34.31,34.3h-88h-29.93h-56.68c-24.57,0-44.48-19.91-44.48-44.47V217.85c0-8.52-3.43-16.24-9-21.84L267,57.4     c13.4-13.4,35.12-13.4,48.52,0s13.4,35.12,0,48.51l-37.92,38.58c-4.89,4.66-7.93,11.24-7.93,18.53     c0,14.15,11.46,25.83,25.63,25.84v-0.01h107.01c18.95,0,34.31,15.36,34.31,34.31s-15.36,34.31-34.31,34.31H384.43z" fill="#FDD6B1"/><path d="M267,79.4L136.39,210.01c-1.4-5.38-4.2-10.18-8-14L267,57.4c13.4-13.4,35.12-13.4,48.52,0     c9.54,9.54,12.29,23.29,8.24,35.26c-1.63-4.85-4.38-9.4-8.24-13.26C302.12,66,280.4,66,267,79.4z" fill="#FFFFFF" opacity="0.2"/><path d="M436.62,223.16c0,3.84-0.63,7.54-1.8,10.99c-4.59-13.55-17.41-23.3-32.51-23.3H295.3v0.01     c-14.17-0.01-25.63-11.69-25.63-25.84c0-3.93,0.88-7.66,2.47-10.98c4.1,8.72,12.92,14.81,23.16,14.82v-0.01h107.01     C421.26,188.85,436.62,204.21,436.62,223.16z" fill="#FFFFFF" opacity="0.2"/><path d="M388.99,418c1.17,3.45,1.8,7.15,1.8,11c0,18.94-15.36,34.3-34.31,34.3H181.87     c-24.57,0-44.48-19.91-44.48-44.47v-22c0,24.56,19.91,44.47,44.48,44.47h174.61C371.58,441.3,384.4,431.55,388.99,418z" opacity="0.2"/></g><g><path d="M137.39,418.83v14.82c0,17.12-13.88,31-31.01,31c-17.12,0-31-13.88-31-31v-215.8     c0-17.13,13.88-31.01,31-31.01c8.61,0,16.4,3.51,22.01,9.17c5.57,5.6,9,13.32,9,21.84V418.83z" fill="none"/><path d="M357.6,463.3h-1.12h-88h-29.93h-56.68c-24.57,0-44.48-19.91-44.48-44.47" fill="none"/><path d="M356.48,463.3c18.95,0,34.31-15.36,34.31-34.3c0-18.95-15.36-34.31-34.31-34.31" fill="none"/><path d="M369.89,326.08c18.95,0,34.31,15.36,34.31,34.3c0,18.95-15.36,34.31-34.31,34.31h-13.41h-25.47" fill="none"/><path d="M384.43,257.47c18.94,0,35.42,15.36,35.42,34.3c0,18.95-16.48,34.31-35.42,34.31h-14.54h-24.35" fill="none"/><path d="M295.3,188.85h107.01c18.95,0,34.31,15.36,34.31,34.31s-15.36,34.31-34.31,34.31h-17.88h-28.78" fill="none"/><path d="M128.39,196.01L267,57.4c13.4-13.4,35.12-13.4,48.52,0s13.4,35.12,0,48.51l-37.92,38.58" fill="none"/><path d="M277.6,144.49c-4.89,4.66-7.93,11.24-7.93,18.53c0,14.15,11.46,25.83,25.63,25.84h0.01" fill="none"/></g></g></g></svg>