<svg xmlns="http://www.w3.org/2000/svg" viewBox="0 0 619.222 428.477"><title>intercAsset 3</title><g id="21f54215-ad63-46df-b5a3-445145879ac1" data-name="Layer 2"><g id="c653cfe6-8e8c-401e-9072-36190459700a" data-name="Layer 2"><path d="M400.05,107.832h-228.8A12.753,12.753,0,0,0,158.5,120.585V276.839l82.926,63.184h88.453L412.8,276.839V120.585A12.753,12.753,0,0,0,400.05,107.832Z" fill="#f4f0dc"/><polygon points="125.328 428.477 126.041 428.477 443.435 428.477 445.26 428.477 445.973 428.477 329.877 340.023 241.424 340.023 125.328 428.477" fill="#86d7fb"/><polygon points="159.09 277.293 158.498 276.839 158.498 220.682 125.328 251.564 125.328 251.569 159.09 277.293" fill="#2a55c5"/><polygon points="412.803 220.682 412.803 276.839 411.653 277.713 411.658 277.713 445.973 251.569 445.973 251.564 412.803 220.682" fill="#2a55c5"/><polygon points="125.328 428.477 125.328 251.569 241.424 340.023 125.328 428.477" fill="#31b6f3"/><polygon points="445.973 428.477 445.973 251.569 329.877 340.023 445.973 428.477" fill="#167cd8"/><path d="M353.189,428.477s-13.382-31.632,7.3-30.821a43.614,43.614,0,0,1,31.631,15.4s-6.894-83.127,29.6-67.311,32.848,55.963,32.848,55.963,34.876-38.093,47.042-15.6-2.839,42.365-2.839,42.365Z" fill="#a8d454"/><path d="M371.873,428.477s-12.835-14.995-6.86-16.544,16.707,16.544,16.707,16.544Z" fill="#72b641"/><path d="M420.334,428.477s-11.065-58.256-4.426-61.575,19.473,61.575,19.473,61.575Z" fill="#72b641"/><path d="M461.492,428.477s19.584-30.485,25-28.714-10.511,28.714-10.511,28.714Z" fill="#72b641"/><path d="M324.228,185.776a45.9,45.9,0,1,0,13.444,32.456A45.6,45.6,0,0,0,324.228,185.776Zm-32.455,72.976a40.52,40.52,0,1,1,40.52-40.52A40.566,40.566,0,0,1,291.773,258.752Z" fill="#a8d454"/><path d="M313.7,203.505a2.689,2.689,0,0,0-3.8,0l-23.749,23.749-12.5-12.5a2.689,2.689,0,1,0-3.8,3.8l14.4,14.4a2.691,2.691,0,0,0,3.8,0L313.7,207.308A2.689,2.689,0,0,0,313.7,203.505Z" fill="#a8d454"/><path d="M76.278,347.033,38.434,384.878h2.912L3.5,347.033v2.911Q22.425,331.026,41.346,312.1H38.434q18.923,18.923,37.844,37.842c1.876,1.877,4.789-1.034,2.911-2.911q-18.921-18.921-37.843-37.842a2.089,2.089,0,0,0-2.912,0Q19.511,328.111.59,347.033a2.091,2.091,0,0,0,0,2.911l37.844,37.845a2.09,2.09,0,0,0,2.912,0l37.843-37.845C81.066,348.07,78.155,345.157,76.278,347.033Z" fill="#812d65"/><path d="M282.048,2.054V72.067a2.08,2.08,0,0,0,3.1,1.778Q316.7,56.34,348.25,38.839a2.078,2.078,0,0,0,0-3.557Q316.7,17.78,285.147.276c-2.319-1.286-4.4,2.269-2.079,3.556l63.1,35.007V35.282l-63.1,35.007,3.1,1.778V2.054C286.167-.6,282.048-.6,282.048,2.054Z" fill="#7ea1f4"/><polygon points="532.969 152.559 495.975 164.968 525.657 192.107 532.969 152.559" fill="#31b6f3"/><rect x="580.994" y="350.121" width="33.317" height="33.316" transform="translate(173.953 -191.964) rotate(21.289)" fill="#5665c7"/><rect x="84.65" y="209.902" width="16.657" height="16.659" transform="translate(-79.902 55.805) rotate(-23.709)" fill="#5665c7"/><path d="M113.849,99.463a8.478,8.478,0,1,0-1,16.826A8.374,8.374,0,1,0,109.9,99.946" fill="#eac689"/><path d="M501.4,331.654a8.478,8.478,0,1,0-1,16.826,8.374,8.374,0,1,0-2.951-16.344" fill="#eac689"/></g></g></svg>