<svg xmlns="http://www.w3.org/2000/svg" height="512pt" version="1.1" viewBox="-44 0 512 512" width="512pt">
<g id="surface1">
<path d="M 335.191406 159.152344 L 310.21875 134.1875 L 185.378906 259.027344 L 122.960938 196.609375 L 97.996094 221.570312 L 185.378906 308.964844 Z M 335.191406 159.152344 " style=" stroke:none;fill-rule:nonzero;fill:rgb(36.862745%,67.45098%,14.117647%);fill-opacity:1;" />
<path d="M 211.863281 0 L 211.863281 35.3125 L 388.414062 35.3125 L 388.414062 242.398438 C 388.707031 329.414062 339.5 409.03125 261.535156 447.683594 L 211.863281 472.523438 L 211.863281 512 L 277.328125 479.269531 C 367.046875 434.410156 423.726562 342.707031 423.726562 242.398438 L 423.726562 0 Z M 211.863281 0 " style=" stroke:none;fill-rule:nonzero;fill:rgb(36.862745%,67.45098%,14.117647%);fill-opacity:1;" />
<path d="M 162.1875 447.683594 C 84.222656 409.03125 35.015625 329.417969 35.3125 242.398438 L 35.3125 35.3125 L 211.863281 35.3125 L 211.863281 0 L 0 0 L 0 242.398438 C 0 342.707031 56.675781 434.410156 146.398438 479.269531 L 211.863281 512 L 211.863281 472.523438 Z M 162.1875 447.683594 " style=" stroke:none;fill-rule:nonzero;fill:rgb(30.588235%,56.470588%,11.764706%);fill-opacity:1;" />
<path d="M 35.3125 242.398438 C 35.015625 329.414062 84.222656 409.03125 162.191406 447.683594 L 211.863281 472.523438 L 211.863281 282.484375 L 185.378906 308.964844 L 97.988281 221.574219 L 122.949219 196.609375 L 185.378906 259.027344 L 211.863281 232.546875 L 211.863281 35.3125 L 35.3125 35.3125 Z M 35.3125 242.398438 " style=" stroke:none;fill-rule:nonzero;fill:rgb(71.372549%,92.156863%,57.254902%);fill-opacity:1;" />
<path d="M 310.21875 134.179688 L 335.191406 159.144531 L 211.863281 282.484375 L 211.863281 472.523438 L 261.535156 447.683594 C 339.5 409.035156 388.707031 329.417969 388.414062 242.398438 L 388.414062 35.3125 L 211.863281 35.3125 L 211.863281 232.546875 Z M 310.21875 134.179688 " style=" stroke:none;fill-rule:nonzero;fill:rgb(78.823529%,93.333333%,68.235294%);fill-opacity:1;" />
</g>
</svg>