<svg xmlns="http://www.w3.org/2000/svg" xmlns:xlink="http://www.w3.org/1999/xlink" viewBox="0 0 124.589 197.202"><defs><clipPath id="cb3b5c1a-7639-498a-9fb3-00d1735b86f7" transform="translate(-15.78 -6.88)"><circle cx="71.705" cy="71.705" r="71.705" fill="none"/></clipPath><clipPath id="03141566-249e-4c3a-9416-876457a77d16" transform="translate(-15.78 -6.88)"><path id="852a5706-b713-4c03-a2f2-5f3149ad78cf" data-name="&lt;Clipping Path&gt;" d="M42.9,55.257l.573,9.07s-5.477,4.868-9.737,0l.609-7.91Z" fill="#fdb483"/></clipPath><linearGradient id="99a9baca-4bcb-4807-95e0-2608e727d433" x1="51.581" y1="-49.527" x2="61.541" y2="-59.488" gradientTransform="matrix(0.984, 0.163, 0.18, -0.987, -3.825, 27.786)" gradientUnits="userSpaceOnUse"><stop offset="0" stop-color="#007cff"/><stop offset="1" stop-color="#002aff"/></linearGradient></defs><title>intercAsset 11</title><g style="isolation:isolate"><g id="5fda4a73-946d-479e-bcc2-ab3248e892bc" data-name="Layer 2"><g id="ee6fb903-d51e-4518-88a7-efcf0b97052a" data-name="Objects"><circle cx="55.925" cy="86.771" r="51.218" fill="#c7deff"/><path d="M92.343,21.243s1.876,6.528,7.5,8.179l3.189-3.564s-5.853-2.927-6.228-7.429Z" transform="translate(-15.78 -6.88)" fill="#5a9e52"/><path d="M98.947,24.4a1.633,1.633,0,1,1-1.633-1.632A1.633,1.633,0,0,1,98.947,24.4Z" transform="translate(-15.78 -6.88)" fill="#94c234"/><path d="M93.957,22.068a.388.388,0,1,1-.376-.487A.443.443,0,0,1,93.957,22.068Z" transform="translate(-15.78 -6.88)" fill="#94c234"/><path d="M99.606,27.925a.389.389,0,1,1-.606.111A.443.443,0,0,1,99.606,27.925Z" transform="translate(-15.78 -6.88)" fill="#94c234"/><path d="M101.9,25.518a.308.308,0,1,1-.481.088A.351.351,0,0,1,101.9,25.518Z" transform="translate(-15.78 -6.88)" fill="#94c234"/><path d="M96.733,20.118a.311.311,0,1,1-.3-.391A.354.354,0,0,1,96.733,20.118Z" transform="translate(-15.78 -6.88)" fill="#94c234"/><path d="M79.1,6.982s-6.715-1.022-10.566,3.4l1.906,4.387s5.1-4.1,9.351-2.556Z" transform="translate(-15.78 -6.88)" fill="#5a9e52"/><path d="M73.477,11.665a1.632,1.632,0,1,1,2.165-.8A1.632,1.632,0,0,1,73.477,11.665Z" transform="translate(-15.78 -6.88)" fill="#94c234"/><path d="M77.675,8.1a.441.441,0,0,1-.286-.544.5.5,0,1,1,.286.544Z" transform="translate(-15.78 -6.88)" fill="#94c234"/><path d="M69.994,10.789a.388.388,0,1,1,.152-.6A.443.443,0,0,1,69.994,10.789Z" transform="translate(-15.78 -6.88)" fill="#94c234"/><path d="M71.224,13.876a.308.308,0,1,1,.121-.473A.351.351,0,0,1,71.224,13.876Z" transform="translate(-15.78 -6.88)" fill="#94c234"/><path d="M78.288,11.441a.311.311,0,1,1,.251-.546.311.311,0,1,1-.251.546Z" transform="translate(-15.78 -6.88)" fill="#94c234"/><path d="M49.823,25.434s-6.715-1.023-10.566,3.4l1.906,4.386s5.1-4.095,9.351-2.555Z" transform="translate(-15.78 -6.88)" fill="#5a9e52"/><path d="M44.2,30.117a1.632,1.632,0,1,1,2.164-.8A1.632,1.632,0,0,1,44.2,30.117Z" transform="translate(-15.78 -6.88)" fill="#94c234"/><path d="M48.4,26.555a.388.388,0,1,1,.6-.137A.443.443,0,0,1,48.4,26.555Z" transform="translate(-15.78 -6.88)" fill="#94c234"/><path d="M40.717,29.241a.388.388,0,1,1,.153-.6A.443.443,0,0,1,40.717,29.241Z" transform="translate(-15.78 -6.88)" fill="#94c234"/><path d="M41.948,32.328a.308.308,0,1,1,.121-.474A.352.352,0,0,1,41.948,32.328Z" transform="translate(-15.78 -6.88)" fill="#94c234"/><path d="M49.011,29.893a.311.311,0,1,1,.48-.11A.356.356,0,0,1,49.011,29.893Z" transform="translate(-15.78 -6.88)" fill="#94c234"/><path d="M98.508,57.112s6.6,1.595,10.819-2.482L107.8,50.1s-5.437,3.642-9.536,1.744Z" transform="translate(-15.78 -6.88)" fill="#5a9e52"/><path d="M104.511,52.928a1.632,1.632,0,1,1-2.225.613A1.632,1.632,0,0,1,104.511,52.928Z" transform="translate(-15.78 -6.88)" fill="#94c234"/><path d="M100.023,56.117a.388.388,0,1,1-.61.085A.442.442,0,0,1,100.023,56.117Z" transform="translate(-15.78 -6.88)" fill="#94c234"/><path d="M107.906,54.1a.388.388,0,1,1-.2.581A.444.444,0,0,1,107.906,54.1Z" transform="translate(-15.78 -6.88)" fill="#94c234"/><path d="M106.945,50.919a.309.309,0,1,1-.161.461A.351.351,0,0,1,106.945,50.919Z" transform="translate(-15.78 -6.88)" fill="#94c234"/><path d="M99.7,52.739a.311.311,0,1,1-.488.068A.355.355,0,0,1,99.7,52.739Z" transform="translate(-15.78 -6.88)" fill="#94c234"/><path d="M114.711,80.306s6.6-1.6,8.492-7.148l-3.425-3.338s-3.174,5.723-7.688,5.906Z" transform="translate(-15.78 -6.88)" fill="#5a9e52"/><circle cx="102.292" cy="68.594" r="1.632" fill="#94c234"/><path d="M115.605,78.729a.388.388,0,1,1-.5.355A.443.443,0,0,1,115.605,78.729Z" transform="translate(-15.78 -6.88)" fill="#94c234"/><path d="M121.7,73.335a.388.388,0,1,1,.085.61A.442.442,0,0,1,121.7,73.335Z" transform="translate(-15.78 -6.88)" fill="#94c234"/><path d="M119.389,70.944a.309.309,0,1,1,.068.484A.353.353,0,0,1,119.389,70.944Z" transform="translate(-15.78 -6.88)" fill="#94c234"/><ellipse cx="113.761" cy="76.172" rx="0.3" ry="0.39" transform="translate(17.027 179.702) rotate(-87.556)" fill="#94c234"/><path d="M99.545,91.935S95.66,86.363,89.8,86.619l-1.866,4.4s6.484.879,8.294,5.018Z" transform="translate(-15.78 -6.88)" fill="#5a9e52"/><path d="M92.278,91.086A1.632,1.632,0,1,1,94.349,92.1,1.631,1.631,0,0,1,92.278,91.086Z" transform="translate(-15.78 -6.88)" fill="#94c234"/><path d="M97.751,91.675a.389.389,0,1,1,.513.34A.443.443,0,0,1,97.751,91.675Z" transform="translate(-15.78 -6.88)" fill="#94c234"/><path d="M90.513,87.957c-.267-.039-.458-.237-.428-.442a.442.442,0,0,1,.537-.3c.266.039.458.237.428.442A.443.443,0,0,1,90.513,87.957Z" transform="translate(-15.78 -6.88)" fill="#94c234"/><path d="M89.123,90.976c-.212-.031-.364-.188-.34-.351a.35.35,0,0,1,.426-.239c.212.031.364.189.341.351A.352.352,0,0,1,89.123,90.976Z" transform="translate(-15.78 -6.88)" fill="#94c234"/><path d="M95.754,94.418a.311.311,0,1,1,.411.272A.355.355,0,0,1,95.754,94.418Z" transform="translate(-15.78 -6.88)" fill="#94c234"/><path d="M48.341,76.6s-3.885-5.572-9.744-5.316l-1.866,4.4s6.484.878,8.294,5.017Z" transform="translate(-15.78 -6.88)" fill="#5a9e52"/><path d="M41.074,75.749a1.632,1.632,0,1,1,2.071,1.017A1.631,1.631,0,0,1,41.074,75.749Z" transform="translate(-15.78 -6.88)" fill="#94c234"/><path d="M46.547,76.338a.389.389,0,1,1,.513.34A.443.443,0,0,1,46.547,76.338Z" transform="translate(-15.78 -6.88)" fill="#94c234"/><path d="M39.309,72.621c-.267-.039-.458-.237-.428-.442a.443.443,0,0,1,.537-.3c.266.039.458.237.428.442A.443.443,0,0,1,39.309,72.621Z" transform="translate(-15.78 -6.88)" fill="#94c234"/><path d="M37.919,75.639c-.212-.031-.364-.188-.34-.351a.35.35,0,0,1,.426-.239c.212.031.364.189.341.352A.352.352,0,0,1,37.919,75.639Z" transform="translate(-15.78 -6.88)" fill="#94c234"/><path d="M44.55,79.081a.311.311,0,1,1,.411.273A.355.355,0,0,1,44.55,79.081Z" transform="translate(-15.78 -6.88)" fill="#94c234"/><path d="M45.423,111.242s6.722-.973,9.122-6.324l-3.1-3.644s-3.693,5.4-8.2,5.162Z" transform="translate(-15.78 -6.88)" fill="#5a9e52"/><circle cx="33.44" cy="99.864" r="1.632" fill="#94c234"/><path d="M46.46,109.755c.267.037.46.233.432.438a.443.443,0,0,1-.534.306c-.267-.037-.461-.233-.432-.438A.443.443,0,0,1,46.46,109.755Z" transform="translate(-15.78 -6.88)" fill="#94c234"/><path d="M53.029,104.953a.388.388,0,1,1,.028.615A.443.443,0,0,1,53.029,104.953Z" transform="translate(-15.78 -6.88)" fill="#94c234"/><path d="M50.955,102.357a.308.308,0,1,1,.022.488A.351.351,0,0,1,50.955,102.357Z" transform="translate(-15.78 -6.88)" fill="#94c234"/><path d="M44.9,106.74c.213.029.368.186.346.35a.356.356,0,0,1-.428.245c-.213-.03-.368-.187-.346-.351A.355.355,0,0,1,44.9,106.74Z" transform="translate(-15.78 -6.88)" fill="#94c234"/><path d="M31.579,58.568S38.3,57.6,40.7,52.244L37.6,48.6S33.909,54,29.4,53.763Z" transform="translate(-15.78 -6.88)" fill="#5a9e52"/><path d="M35.6,52.454a1.632,1.632,0,1,1-1.838,1.395A1.631,1.631,0,0,1,35.6,52.454Z" transform="translate(-15.78 -6.88)" fill="#94c234"/><path d="M32.616,57.082c.267.037.461.233.432.438a.442.442,0,0,1-.534.3c-.267-.036-.46-.232-.432-.438A.442.442,0,0,1,32.616,57.082Z" transform="translate(-15.78 -6.88)" fill="#94c234"/><path d="M39.186,52.28a.388.388,0,1,1,.027.615A.442.442,0,0,1,39.186,52.28Z" transform="translate(-15.78 -6.88)" fill="#94c234"/><path d="M37.111,49.684a.308.308,0,1,1,.022.488A.352.352,0,0,1,37.111,49.684Z" transform="translate(-15.78 -6.88)" fill="#94c234"/><path d="M31.06,54.066c.214.03.368.187.346.351a.355.355,0,0,1-.427.244c-.214-.029-.369-.186-.346-.35A.355.355,0,0,1,31.06,54.066Z" transform="translate(-15.78 -6.88)" fill="#94c234"/><path d="M74.084,77.5s6.723-.972,9.122-6.324l-3.1-3.643s-3.694,5.4-8.2,5.162Z" transform="translate(-15.78 -6.88)" fill="#5a9e52"/><path d="M78.1,71.385a1.632,1.632,0,1,1-1.838,1.395A1.631,1.631,0,0,1,78.1,71.385Z" transform="translate(-15.78 -6.88)" fill="#94c234"/><path d="M75.121,76.013c.267.036.461.232.432.438a.442.442,0,0,1-.534.305c-.267-.036-.46-.232-.432-.438A.442.442,0,0,1,75.121,76.013Z" transform="translate(-15.78 -6.88)" fill="#94c234"/><path d="M81.691,71.211a.388.388,0,1,1,.027.615A.443.443,0,0,1,81.691,71.211Z" transform="translate(-15.78 -6.88)" fill="#94c234"/><path d="M79.616,68.614a.309.309,0,1,1,.022.489A.352.352,0,0,1,79.616,68.614Z" transform="translate(-15.78 -6.88)" fill="#94c234"/><path d="M73.565,73c.214.03.368.186.346.351a.355.355,0,0,1-.427.244c-.214-.029-.369-.186-.346-.35A.354.354,0,0,1,73.565,73Z" transform="translate(-15.78 -6.88)" fill="#94c234"/><path d="M104.357,114.712s6.722-.973,9.122-6.324l-3.1-3.644s-3.694,5.4-8.2,5.163Z" transform="translate(-15.78 -6.88)" fill="#5a9e52"/><circle cx="92.374" cy="103.334" r="1.632" fill="#94c234"/><path d="M105.393,113.225c.267.037.461.233.433.438a.443.443,0,0,1-.534.306c-.267-.037-.461-.233-.433-.438A.444.444,0,0,1,105.393,113.225Z" transform="translate(-15.78 -6.88)" fill="#94c234"/><path d="M111.963,108.424a.388.388,0,1,1,.028.614A.442.442,0,0,1,111.963,108.424Z" transform="translate(-15.78 -6.88)" fill="#94c234"/><path d="M109.888,105.827a.309.309,0,1,1,.022.489A.353.353,0,0,1,109.888,105.827Z" transform="translate(-15.78 -6.88)" fill="#94c234"/><path d="M103.837,110.21c.214.029.369.186.346.35a.354.354,0,0,1-.427.245c-.214-.029-.368-.186-.346-.351A.355.355,0,0,1,103.837,110.21Z" transform="translate(-15.78 -6.88)" fill="#94c234"/><path d="M75.437,120.383s4.226,5.318,10.058,4.7l1.587-4.512s-6.527-.47-8.593-4.488Z" transform="translate(-15.78 -6.88)" fill="#5a9e52"/><path d="M82.743,120.775a1.632,1.632,0,1,1-2.131-.885A1.633,1.633,0,0,1,82.743,120.775Z" transform="translate(-15.78 -6.88)" fill="#94c234"/><path d="M77.243,120.53a.388.388,0,1,1-.533-.307A.443.443,0,0,1,77.243,120.53Z" transform="translate(-15.78 -6.88)" fill="#94c234"/><path d="M84.7,123.787c.269.022.473.207.455.414a.442.442,0,0,1-.517.333c-.268-.022-.472-.207-.455-.414A.442.442,0,0,1,84.7,123.787Z" transform="translate(-15.78 -6.88)" fill="#94c234"/><path d="M85.9,120.687c.213.017.375.165.361.329a.351.351,0,0,1-.411.265c-.213-.018-.375-.165-.361-.329A.351.351,0,0,1,85.9,120.687Z" transform="translate(-15.78 -6.88)" fill="#94c234"/><path d="M79.064,117.667a.311.311,0,1,1-.426-.246A.353.353,0,0,1,79.064,117.667Z" transform="translate(-15.78 -6.88)" fill="#94c234"/><path d="M36.241,131.909s4.226,5.317,10.058,4.694l1.586-4.512s-6.526-.47-8.592-4.488Z" transform="translate(-15.78 -6.88)" fill="#5a9e52"/><path d="M43.547,132.3a1.632,1.632,0,1,1-2.132-.885A1.633,1.633,0,0,1,43.547,132.3Z" transform="translate(-15.78 -6.88)" fill="#94c234"/><path d="M38.047,132.056a.388.388,0,1,1-.533-.308A.443.443,0,0,1,38.047,132.056Z" transform="translate(-15.78 -6.88)" fill="#94c234"/><path d="M45.5,135.312c.269.022.472.208.455.414a.442.442,0,0,1-.517.334c-.268-.023-.472-.208-.455-.415A.443.443,0,0,1,45.5,135.312Z" transform="translate(-15.78 -6.88)" fill="#94c234"/><path d="M46.7,132.212c.214.018.376.165.362.329a.352.352,0,0,1-.411.265c-.213-.018-.375-.165-.362-.329A.352.352,0,0,1,46.7,132.212Z" transform="translate(-15.78 -6.88)" fill="#94c234"/><path d="M39.868,129.192a.311.311,0,1,1-.426-.246A.355.355,0,0,1,39.868,129.192Z" transform="translate(-15.78 -6.88)" fill="#94c234"/><path d="M89.484,143.854s4.226,5.317,10.058,4.695l1.586-4.512s-6.527-.47-8.592-4.488Z" transform="translate(-15.78 -6.88)" fill="#5a9e52"/><path d="M96.79,144.246a1.632,1.632,0,1,1-2.132-.886A1.631,1.631,0,0,1,96.79,144.246Z" transform="translate(-15.78 -6.88)" fill="#94c234"/><path d="M91.29,144a.388.388,0,1,1-.533-.308A.442.442,0,0,1,91.29,144Z" transform="translate(-15.78 -6.88)" fill="#94c234"/><path d="M98.747,147.257c.269.023.472.208.455.414a.443.443,0,0,1-.517.334c-.268-.022-.472-.208-.455-.414A.443.443,0,0,1,98.747,147.257Z" transform="translate(-15.78 -6.88)" fill="#94c234"/><path d="M99.945,144.157c.214.018.376.165.362.329a.353.353,0,0,1-.411.266c-.213-.018-.375-.166-.362-.33A.353.353,0,0,1,99.945,144.157Z" transform="translate(-15.78 -6.88)" fill="#94c234"/><path d="M93.111,141.138a.311.311,0,1,1-.426-.246A.354.354,0,0,1,93.111,141.138Z" transform="translate(-15.78 -6.88)" fill="#94c234"/><path d="M51.487,54.091s4.226,5.318,10.058,4.7l1.587-4.512s-6.527-.47-8.593-4.488Z" transform="translate(-15.78 -6.88)" fill="#5a9e52"/><path d="M58.793,54.483a1.632,1.632,0,1,1-2.131-.885A1.633,1.633,0,0,1,58.793,54.483Z" transform="translate(-15.78 -6.88)" fill="#94c234"/><path d="M53.293,54.238a.388.388,0,1,1-.533-.307A.443.443,0,0,1,53.293,54.238Z" transform="translate(-15.78 -6.88)" fill="#94c234"/><path d="M60.751,57.5c.268.022.472.207.455.414a.445.445,0,0,1-.518.334c-.268-.023-.472-.208-.455-.415A.443.443,0,0,1,60.751,57.5Z" transform="translate(-15.78 -6.88)" fill="#94c234"/><path d="M61.949,54.4c.213.017.375.165.361.329a.351.351,0,0,1-.411.265c-.213-.018-.375-.165-.361-.329A.351.351,0,0,1,61.949,54.4Z" transform="translate(-15.78 -6.88)" fill="#94c234"/><path d="M55.114,51.375a.31.31,0,1,1-.426-.246A.353.353,0,0,1,55.114,51.375Z" transform="translate(-15.78 -6.88)" fill="#94c234"/><path d="M25.345,102.816s6.581-1.683,8.4-7.26l-3.469-3.292s-3.1,5.764-7.609,6.006Z" transform="translate(-15.78 -6.88)" fill="#5a9e52"/><path d="M28.69,96.308a1.632,1.632,0,1,1-1.68,1.584A1.632,1.632,0,0,1,28.69,96.308Z" transform="translate(-15.78 -6.88)" fill="#94c234"/><path d="M26.218,101.228a.388.388,0,1,1-.5.36A.442.442,0,0,1,26.218,101.228Z" transform="translate(-15.78 -6.88)" fill="#94c234"/><path d="M32.238,95.753a.388.388,0,1,1,.093.609A.442.442,0,0,1,32.238,95.753Z" transform="translate(-15.78 -6.88)" fill="#94c234"/><path d="M29.9,93.393a.308.308,0,1,1,.074.483A.352.352,0,0,1,29.9,93.393Z" transform="translate(-15.78 -6.88)" fill="#94c234"/><path d="M24.349,98.4a.311.311,0,1,1-.4.289A.353.353,0,0,1,24.349,98.4Z" transform="translate(-15.78 -6.88)" fill="#94c234"/><g clip-path="url(#cb3b5c1a-7639-498a-9fb3-00d1735b86f7)"><path id="27717a62-ad58-466b-918b-d386a8cc941a" data-name="&lt;Clipping Path&gt;" d="M42.9,55.257l.573,9.07s-5.477,4.868-9.737,0l.609-7.91Z" transform="translate(-15.78 -6.88)" fill="#fdb483"/><g clip-path="url(#03141566-249e-4c3a-9416-876457a77d16)"><path d="M31.264,61.01s9.361,1.1,10.462-4.405S31.264,61.01,31.264,61.01Z" transform="translate(-15.78 -6.88)" fill="#fdb483" opacity="0.39" style="mix-blend-mode:multiply"/></g><path d="M29.394,36.608s-6.867,20.1,2.551,22.664S45.5,52.35,45.5,52.35l.079-13.44Z" transform="translate(-15.78 -6.88)" fill="#fdb483"/><path d="M42.151,57.242s14.662-6.5,9.094-15.866c0,0,.8-7-7.12-8.444,0,0-9.742-9.6-9.758-2.739,0,0-7.867-3.472-6.639,3.577,0,0-7.049-.02-1.258,5.427a17.721,17.721,0,0,0,16.806,2.76s-3.371,3.815-1.769,8.378C41.507,50.335,40.5,54.705,42.151,57.242Z" transform="translate(-15.78 -6.88)" fill="#804d4c"/><path d="M41.274,50.457a2.94,2.94,0,0,0,.856,4.025,3.249,3.249,0,0,0,2.92-5.661A2.939,2.939,0,0,0,41.274,50.457Z" transform="translate(-15.78 -6.88)" fill="#fdb483"/><path d="M35.609,40.82a1.242,1.242,0,0,0,.677-.172,1.918,1.918,0,0,0,.619-.573,3.362,3.362,0,0,0,.418-.832,6.686,6.686,0,0,0,.223-.951,4.366,4.366,0,0,1-.18,2.021,2.564,2.564,0,0,1-.6.946,2.145,2.145,0,0,1-1.1.6Z" transform="translate(-15.78 -6.88)" fill="#804d4c"/><path d="M35.294,40.471a2.607,2.607,0,0,0,.59.468,2.544,2.544,0,0,0,.739.3,2.352,2.352,0,0,0,1.648-.259,2.618,2.618,0,0,1-1.678.777,3.19,3.19,0,0,1-.99-.088,3.475,3.475,0,0,1-.963-.388Z" transform="translate(-15.78 -6.88)" fill="#804d4c"/><path d="M37.4,48.072a2.819,2.819,0,0,0-2.615-2.314c-.188-.016-.2-.314-.012-.3a3.111,3.111,0,0,1,2.925,2.6c.027.189-.271.2-.3.012Z" transform="translate(-15.78 -6.88)" fill="#804d4c"/><path d="M30.846,45.025a1.937,1.937,0,0,0-2.256.885c-.071.112-.249.01-.179-.1a2.145,2.145,0,0,1,2.488-.981c.125.041.073.24-.053.2Z" transform="translate(-15.78 -6.88)" fill="#804d4c"/><path d="M34.937,54.931a3.239,3.239,0,0,1-1.165,1.1,3.343,3.343,0,0,1-3.088-.014c-.175-.078-.021-.334.153-.256a2.952,2.952,0,0,0,3.843-.981.149.149,0,0,1,.257.152Z" transform="translate(-15.78 -6.88)" fill="#573c37"/><path id="beb988c1-58ff-4113-9c40-80f04de1a59d" data-name="&lt;Path&gt;" d="M25.084,158.311c.521-11.525-.573-23.279-.478-34.874a27.444,27.444,0,0,1,1.625-11.893,1.823,1.823,0,0,1,.358-.654c.542-.558,1.468-.261,2.187.035a23.475,23.475,0,0,0,21.318-1.839,15.329,15.329,0,0,1,1.9,6.451c.5,3.623,1.037,7.239,1.17,10.878l0,.02h0c.028.782.044,1.564.029,2.348a102.243,102.243,0,0,1-1.646,13.475,63.658,63.658,0,0,0-.876,8.808c-.031,2.418.308,4.628-.233,7-1.332,5.83-1.336,12.182-1.9,18.139-.6,6.379-1.2,12.76-1.692,19.149-.02.254-.039.508-.059.763-.321.086-5.236,1.217-5.236-.055l-1.182-37.2c-.166-5.218-.342-10.513-1.665-15.484l-1.636.163q-4.494,24.615-8.989,49.229c-.264,1.445-.584,3-1.536,3.935a1.77,1.77,0,0,1-3.013-.77C24.416,183.391,24.517,170.856,25.084,158.311Z" transform="translate(-15.78 -6.88)" fill="#7ba1ff"/><path id="cbcf5ae4-2067-469b-ac79-cdd6c26b035c" data-name="&lt;Path&gt;" d="M43,198.214a23.059,23.059,0,0,1,5.634.237,21.03,21.03,0,0,0,4.66,2.62,3.608,3.608,0,0,1,1.343.761,1.115,1.115,0,0,1,.167,1.414,1.6,1.6,0,0,1-1.256.391,54.652,54.652,0,0,1-10.364-.882,1.043,1.043,0,0,1-.57-.229.952.952,0,0,1-.217-.443A4.9,4.9,0,0,1,43,198.214Z" transform="translate(-15.78 -6.88)" fill="#6b2828"/><path id="80dd251f-645a-4073-840c-e596e86f539c" data-name="&lt;Path&gt;" d="M27.482,198.028a23.112,23.112,0,0,0-5.61.576,21.008,21.008,0,0,1-4.494,2.894,3.618,3.618,0,0,0-1.3.841A1.115,1.115,0,0,0,16,203.76a1.6,1.6,0,0,0,1.278.315,54.69,54.69,0,0,0,10.292-1.5,1.051,1.051,0,0,0,.555-.263.948.948,0,0,0,.19-.455A4.9,4.9,0,0,0,27.482,198.028Z" transform="translate(-15.78 -6.88)" fill="#6b2828"/><path d="M55.457,104.305l-.573-5.186c-1.193-10.791-2.414-21.7-6.07-31.893C47.908,64.7,45.6,61.8,43.159,64.4a6.59,6.59,0,0,1-1.08.97c-2.434,1.68-5.7,1.507-8.372.509-2.332-.872-3.74-4.2-6.613-2.95-2.708,1.18-3.933,5.906-4.3,8.607-.672,4.941-.965,10.038-1.484,15.023-.925,8.884-1.85,17.776-2.215,26.7A64.845,64.845,0,0,1,18.1,124.31c1.971.515,4.464,1.467,6.5,1.46,4.768-.017,9.078-.358,13.837-.043a36.942,36.942,0,0,0,11.4-.711c.605-.151,7.727-1.669,7.687-2.035Q56.49,113.642,55.457,104.305Z" transform="translate(-15.78 -6.88)" fill="#2c58ff"/><path d="M57.188,120.92c.11-.021.149-.08.086-.19a38.1,38.1,0,0,1-1.716-3.619,208.992,208.992,0,0,0-2.633-23.159c-1.67-9.415-5.272-18.152-7.42-27.411-.632-2.724-3.885-2.48-5.1-.576-.094.021-.188.04-.282.058A11.749,11.749,0,0,0,36.286,63.8a2.8,2.8,0,0,0-3.52,2.681c0,1.8-.027,3.614-.07,5.426a275.665,275.665,0,0,0-5.383,44.752c0,.017,0,.034,0,.051-.168.773-.337,1.545-.513,2.315a15.063,15.063,0,0,0-.828,3.52c-.024.1-.047.2-.072.3a2.429,2.429,0,0,0,1.652,2.908,36.474,36.474,0,0,0,28.51-1.418,2.491,2.491,0,0,0,.339-.2l.237-.1.42-.324a2.047,2.047,0,0,0,.57-1.191A2.184,2.184,0,0,0,57.188,120.92Z" transform="translate(-15.78 -6.88)" fill="#efefef"/><path id="29262728-a03b-486d-be2c-fb38b9556a41" data-name="&lt;Path&gt;" d="M66.812,39.2a6.192,6.192,0,0,1,.892-1.77c.379-.523,1.016-1.03,1.63-.789s.73,1.019.7,1.656c-.12,2.941-1.394,5.688-2.646,8.349A10.005,10.005,0,0,1,64.51,45.4a7.436,7.436,0,0,0,1.121-3.448c.086-1.3-.136-2.735.626-3.793l.465.24Z" transform="translate(-15.78 -6.88)" fill="#fdb483"/><path d="M29.027,121.64a35.7,35.7,0,0,1,13.354-4.729c.247-.035.142-.41-.1-.375A35.967,35.967,0,0,0,28.83,121.3a.2.2,0,0,0,.2.336Z" transform="translate(-15.78 -6.88)" fill="#557ed6"/><path d="M31.191,122.427A35.7,35.7,0,0,1,44.545,117.7c.247-.036.142-.411-.1-.375a35.967,35.967,0,0,0-13.448,4.768.2.2,0,0,0,.2.336Z" transform="translate(-15.78 -6.88)" fill="#557ed6"/><path d="M28.914,131.617a13.554,13.554,0,0,1-1.563-3.274c-.076-.237-.452-.136-.375.1a13.969,13.969,0,0,0,1.6,3.367c.137.208.474.014.336-.2Z" transform="translate(-15.78 -6.88)" fill="#2c58ff"/><path d="M27.5,132.24l-2.574-2.166c-.191-.161-.467.113-.276.275l2.575,2.167c.19.16.467-.114.275-.276Z" transform="translate(-15.78 -6.88)" fill="#2c58ff"/><path id="5e62727b-11d7-4907-a966-8ef473cc7717" data-name="&lt;Path&gt;" d="M108.077,202.582c-.5.421.181.756.509.787a5.515,5.515,0,0,0,1.8-.116,1.113,1.113,0,0,0,.436-.184,1.231,1.231,0,0,0,.239-.288,4.437,4.437,0,0,0,.721-1.076,1.247,1.247,0,0,0-.235-.793,3.731,3.731,0,0,1-.719-1.715c-1.3.143-2.537-.3-3.61.045-.09.452-.428.82-.271,1.174-.1-.233-3.231.554-3.6.626a17.362,17.362,0,0,1-1.8.27c-.471.042-1.375-.176-1.64.295a1.3,1.3,0,0,0-.14.553,1.111,1.111,0,0,0,.035.434.865.865,0,0,0,.537.5C102.906,204.035,105.468,202.544,108.077,202.582Z" transform="translate(-15.78 -6.88)" fill="#131313"/><path id="bac2755a-4539-4214-836d-3386c0570573" data-name="&lt;Path&gt;" d="M109.277,143.059l-8.84-.234c-.184-.381.579-.052.573.371a193.886,193.886,0,0,0,3.552,39.8c1.1,5.643,2.455,11.291,2.477,17.04l3.627-.006L111.9,146.07a2.3,2.3,0,0,0-2.622-3.011Z" transform="translate(-15.78 -6.88)" fill="#efefef"/><path id="1dbb8ad5-9722-450c-ac63-d31d055c23b9" data-name="&lt;Path&gt;" d="M134.2,197.407a7.4,7.4,0,0,0,4.533-1.632q-4.312-7.608-8.626-15.214a32.124,32.124,0,0,1-2.444-4.953,23.245,23.245,0,0,1-1.365-6.647c-1.242-24.846-1.242-24.846.616-30.2.242-.7,4.759-3.254,0,0-1.747,1.2-8.369.213-10.463.522a2.005,2.005,0,0,0-1.265.5c-.351.4.172,1.788-.285,1.519-3.736-2.2-1.242.791-.683,7.7.2,2.429,2.757,17.908,3.487,20.233a38.221,38.221,0,0,0,5.658,11.775C127.406,186.28,130.106,191.127,134.2,197.407Z" transform="translate(-15.78 -6.88)" fill="#efefef"/><path id="ab872d0e-2ca6-4edd-8597-a4c2b6441d4b" data-name="&lt;Path&gt;" d="M131.237,107.891c-.682-9.494-2.367-19.3-7.7-27.4-3.831-5.812-9.1-12.568-16.5-6.491-.669.55-5.259-1.518-5.711-.823a2.656,2.656,0,0,0-3.133,1.327c-2.506,4.4-3.406,9.263-3.808,14.26-.46,5.731-.6,11.5-.772,17.249q-.12,4-.189,7.993c-1.029,7.124-1.539,14.288-.371,21.451a2.556,2.556,0,0,0,.342.935q.04,2.7.1,5.394a2.974,2.974,0,0,0,2.16,2.838,94.347,94.347,0,0,0,33.624-1.359,3,3,0,0,0,2.16-2.837A268.89,268.89,0,0,0,131.237,107.891Z" transform="translate(-15.78 -6.88)" fill="#00345b"/><path d="M74.247,42.934c.184-1.247.688-2.56.183-3.717l-.489.131c-.083.249-.167.5-.25.745a6.024,6.024,0,0,0-.482-1.858c-.252-.572-.751-1.183-1.381-1.08s-.9.815-1.005,1.423c-.488,2.808.155,5.669.8,8.443a9.719,9.719,0,0,0,2.984-.594A7.181,7.181,0,0,1,74.247,42.934Z" transform="translate(-15.78 -6.88)" fill="#fdb483"/><path id="95dd5885-2e29-4628-a096-d8c8eb7fafe7" data-name="&lt;Path&gt;" d="M97.575,88.923c4.729,1.759,9.479-11.647,3.523-13.7-5.395-1.86-14.067-1.275-19.057-4.477a10.177,10.177,0,0,1-4.557-6.924q-1.632-8.975-2.825-18l-3.892.218q.041,11.337.08,22.674a11.861,11.861,0,0,0,.562,4.339,9.782,9.782,0,0,0,2.476,3.335C80.41,82.685,90.074,86.131,97.575,88.923Z" transform="translate(-15.78 -6.88)" fill="#00345b"/><path id="e2183220-f803-4db2-a876-100d43e0d00e" data-name="&lt;Path&gt;" d="M76.87,62.04a24.834,24.834,0,0,0-5.828.782.279.279,0,0,0,.144.539,37.786,37.786,0,0,1,5.678-.889C77.14,62.444,77.161,62.042,76.87,62.04Z" transform="translate(-15.78 -6.88)" fill="#cacaca"/><path id="b6b9829f-9f98-4d0b-9b91-c5ac452a0811" data-name="&lt;Path&gt;" d="M85.806,82.99c-.688-2.567-.916-7.177,1.306-9.188.217-.2-.094-.473-.314-.306-2.6,1.968-2.253,6.942-1.736,9.687C85.151,83.655,85.932,83.462,85.806,82.99Z" transform="translate(-15.78 -6.88)" fill="#cacaca"/><path id="c5b5a97a-aa52-4620-9b1a-55dd87a42050" data-name="&lt;Path&gt;" d="M77.161,63.82A6.55,6.55,0,0,0,74.743,64c-1.157.2-2.3.464-3.441.748a.405.405,0,0,0,.208.783c.855-.21,1.71-.417,2.569-.611a16.02,16.02,0,0,1,3.01-.609C77.367,64.3,77.452,63.879,77.161,63.82Z" transform="translate(-15.78 -6.88)" fill="#cacaca"/><path id="92e4317a-2131-4dc5-a601-aa1411ec54a9" data-name="&lt;Path&gt;" d="M89.14,83.871c-.757-3.191-1.241-6.158.532-9.127a.362.362,0,0,0-.572-.43c-2.515,2.711-1.714,6.6-.963,9.817C88.286,84.767,89.29,84.505,89.14,83.871Z" transform="translate(-15.78 -6.88)" fill="#cacaca"/><path id="7280eb40-4038-4b90-b7f7-9213988b852f" data-name="&lt;Path&gt;" d="M110.364,68.284a8.328,8.328,0,0,0,1-4.271,20.093,20.093,0,0,0-1.848-9.055c-1.636-3.14-5.43-6.058-9.064-4.87-4.256,1.39-3.548,7.222-2.969,11.088a12.6,12.6,0,0,0,4.077,8C105.04,72,108.661,71.246,110.364,68.284Z" transform="translate(-15.78 -6.88)" fill="#fdb483"/><path id="d593f65b-d488-49ef-af4c-9f3cd58bd430" data-name="&lt;Path&gt;" d="M137.079,199.806c-.312.635.508.667.846.555a5.946,5.946,0,0,0,1.727-.9,1.164,1.164,0,0,0,.351-.372,1.29,1.29,0,0,0,.11-.388,4.792,4.792,0,0,0,.242-1.377c-.061-.3-.341-.489-.578-.681a5.823,5.823,0,0,1-1.639-1.784,28.361,28.361,0,0,0-3.971,2.347c.5.361.543.676.853.956-.205-.185-2.948,1.957-3.282,2.191a18.759,18.759,0,0,1-1.662,1.052c-.447.248-1.434.427-1.491,1.008a1.414,1.414,0,0,0,.1.607,1.185,1.185,0,0,0,.224.413.93.93,0,0,0,.746.255C132.609,203.5,134.486,200.908,137.079,199.806Z" transform="translate(-15.78 -6.88)" fill="#131313"/><g id="a6627e99-3ccc-45d9-8cbd-67d1c9fca9b4" data-name="&lt;Group&gt;"><path id="0a9c1faf-9a49-4b23-9f62-35a74710a268" data-name="&lt;Path&gt;" d="M119.269,82.12q-.282-.632-.574-1.259A213.722,213.722,0,0,1,95.62,84.312c-.047.42-.1.84-.144,1.261A176.8,176.8,0,0,0,119.269,82.12Z" transform="translate(-15.78 -6.88)" fill="#cacaca"/><path id="b1de11f1-f7ab-48bd-8fca-9c5912e93e9c" data-name="&lt;Path&gt;" d="M94.588,108.794c.011.407.029.813.042,1.219a231.877,231.877,0,0,0,31.731-4.482c-.095-.519-.191-1.038-.293-1.556A257.528,257.528,0,0,1,94.588,108.794Z" transform="translate(-15.78 -6.88)" fill="#cacaca"/><path id="bf4bc288-2c6a-4385-9263-1aad8c189e14" data-name="&lt;Path&gt;" d="M96.789,132.571c.047.3.092.592.14.887,2.28-.273,4.541-.585,6.755-.887a220.65,220.65,0,0,0,25.053-4.917c-.02-.425-.038-.85-.06-1.274-6.44,1.661-12.98,3.1-19.7,4.268C105.131,131.316,101,132.037,96.789,132.571Z" transform="translate(-15.78 -6.88)" fill="#cacaca"/><path id="14c690e6-7e62-49c4-8161-2857657856ab" data-name="&lt;Path&gt;" d="M94.715,112.481c.009.194.024.387.034.58a279.133,279.133,0,0,0,32.169-4.293c-.038-.243-.082-.486-.121-.728-8.282,1.441-16.547,2.865-25.02,3.8C99.43,112.093,97.074,112.3,94.715,112.481Z" transform="translate(-15.78 -6.88)" fill="#cacaca"/><path id="0731bab5-e7f2-48c6-bf71-fec08c5e2bc1" data-name="&lt;Path&gt;" d="M95.3,87.518l-.054.608c8.482-.694,16.919-1.881,25.167-3.332-.1-.245-.194-.49-.3-.734-6.84,1.173-13.695,2.279-20.693,3.047Q97.361,87.333,95.3,87.518Z" transform="translate(-15.78 -6.88)" fill="#cacaca"/><path id="f6f3bea8-a1e3-4393-bce3-3c0f7bac05f0" data-name="&lt;Path&gt;" d="M97.547,136.991a130.441,130.441,0,0,0,31.333-5.7c-.007-.215-.016-.431-.023-.646a135.9,135.9,0,0,1-31.441,5.635C97.459,136.516,97.5,136.753,97.547,136.991Z" transform="translate(-15.78 -6.88)" fill="#cacaca"/></g><path id="049d3a51-8a56-4dc5-8b31-7132e6f7c0a3" data-name="&lt;Path&gt;" d="M83.542,110.348A4.578,4.578,0,0,0,82.2,111a1.543,1.543,0,0,0-.64,1.289.948.948,0,0,0,1.01.875.487.487,0,0,0,.079.41c1.019.287,2.038-.351,2.97-.853a13.24,13.24,0,0,1,2.257-.955,2.857,2.857,0,0,0,1.75-1.015,1.819,1.819,0,0,0,.068-1.465,9.925,9.925,0,0,0-.657-1.358l-3.677.682a1.261,1.261,0,0,0-.567.2.437.437,0,0,0-.144.538,1.114,1.114,0,0,1,.7.355Z" transform="translate(-15.78 -6.88)" fill="#fdb483"/><path id="5c27801e-b06a-4651-8803-272f70033198" data-name="&lt;Path&gt;" d="M122.414,55.351a2.992,2.992,0,0,0-2.488-1.51c.008-.052.019-.1.026-.155a3.093,3.093,0,0,0,.235-4.6,3.947,3.947,0,0,0-1.261-.983,22.15,22.15,0,0,0-4.577-2.665,3.526,3.526,0,0,0-.405-.139,6.39,6.39,0,0,0-5.483-5.3,7.96,7.96,0,0,0-2.271,0c-3.08-1.53-6.637-.036-8.441,2.642a4.609,4.609,0,0,0-.422.237,4.436,4.436,0,0,0-1.912,2.9c-.042.01-.085.015-.127.026a4.9,4.9,0,0,0-3.558,6.123,3.28,3.28,0,0,0,3.1,2.357l2.049-.081a3.135,3.135,0,0,0,1.94-.8c.141.068.284.132.433.187a5.4,5.4,0,0,0,1.516.333,4.733,4.733,0,0,0,1.9,1.606,7.26,7.26,0,0,0,5.125.4,4.314,4.314,0,0,0,.429.371,4.187,4.187,0,0,0,.735.445,6.838,6.838,0,0,0-.684,1.34c-.652,1.687.734,3.435,2.242,3.949a3.893,3.893,0,0,0,.914.193c-.641,1.678.185,3.984,2.1,4.388a6.241,6.241,0,0,0,6.4-2.2,7.34,7.34,0,0,0,1.422-4.308C122.815,58.988,123.615,57.3,122.414,55.351Z" transform="translate(-15.78 -6.88)" fill="#2e77a3"/><g id="e941ee0f-2cea-46f0-bb67-7e49790288a7" data-name="Layer 2"><g id="cef98cef-8d59-42c8-aa95-4a823b9e1ea1" data-name="Layer 1-2"><path d="M36.337,83.211l9.787,1.618A1.064,1.064,0,0,1,47,86.077l-1.241,6.81a1.108,1.108,0,0,1-1.264.895L34.7,92.164a1.064,1.064,0,0,1-.873-1.248l1.242-6.81A1.107,1.107,0,0,1,36.337,83.211Z" transform="translate(-15.78 -6.88)" fill="#00b1ff" opacity="0.66" style="isolation:isolate"/><path d="M37.941,85.482,47.728,87.1a1.064,1.064,0,0,1,.873,1.248l-1.241,6.81a1.108,1.108,0,0,1-1.264.895l-9.787-1.618a1.065,1.065,0,0,1-.874-1.248l1.242-6.81A1.108,1.108,0,0,1,37.941,85.482Z" transform="translate(-15.78 -6.88)" opacity="0.7" fill="url(#99a9baca-4bcb-4807-95e0-2608e727d433)" style="isolation:isolate"/></g></g><rect x="102.599" y="90.46" width="8.805" height="11.761" rx="1.054" ry="1.054" transform="translate(-10.84 191.019) rotate(-86.857)" fill="#fff" opacity="0.66" style="isolation:isolate"/><rect x="104.423" y="92.478" width="8.805" height="11.761" rx="1.054" ry="1.054" transform="translate(-11.131 194.748) rotate(-86.857)" fill="#fff" opacity="0.7" style="isolation:isolate"/><path id="359356d2-35ef-4763-97a1-d245cd085405" data-name="&lt;Path&gt;" d="M120.959,82.982c-.965-4.308-6.509-5.219-7.592.211-.981,4.917-1.308,9.937-3.528,14.679a9.186,9.186,0,0,1-5.571,4.852q-7.752,2.586-15.6,4.8.337,1.671.674,3.343l20.082-3.029a10.843,10.843,0,0,0,3.775-1.054,8.8,8.8,0,0,0,2.649-2.58C120.62,97.726,122.508,89.89,120.959,82.982Z" transform="translate(-15.78 -6.88)" fill="#00345b"/><path id="849e3c15-8c5d-4a39-84a3-7a7fc5e0e3db" data-name="&lt;Path&gt;" d="M102.764,103.489a21.229,21.229,0,0,0,1.413,4.948.25.25,0,0,0,.46-.195,32.367,32.367,0,0,1-1.49-4.8C103.088,103.2,102.73,103.236,102.764,103.489Z" transform="translate(-15.78 -6.88)" fill="#cacaca"/><path id="fededdd1-7eb0-4b2c-afbf-99583c32436c" data-name="&lt;Path&gt;" d="M120.223,93.011c-2.19.931-6.247,1.731-8.3.067-.2-.162-.409.143-.233.313,2.065,2,6.43,1.046,8.8.239C120.893,93.491,120.625,92.839,120.223,93.011Z" transform="translate(-15.78 -6.88)" fill="#cacaca"/><path id="7cd6372d-f53c-4fb7-ae81-385d5a43293e" data-name="&lt;Path&gt;" d="M104.305,103.005a5.622,5.622,0,0,0,.455,2.072c.322.976.7,1.935,1.089,2.884a.362.362,0,0,0,.667-.283c-.292-.713-.581-1.427-.858-2.146a13.644,13.644,0,0,1-.912-2.528C104.706,102.763,104.321,102.744,104.305,103.005Z" transform="translate(-15.78 -6.88)" fill="#cacaca"/><path id="7c05640b-71ae-4d75-95e6-256f6b35158b" data-name="&lt;Path&gt;" d="M120.592,90.007c-2.734,1.072-5.3,1.879-8.153.73-.331-.133-.617.346-.311.552,2.714,1.825,6.062.624,8.818-.447C121.491,90.63,121.135,89.794,120.592,90.007Z" transform="translate(-15.78 -6.88)" fill="#cacaca"/><g id="ee290a52-2fa3-475a-ac5e-073a10e9935a" data-name="&lt;Group&gt;"><path id="696da428-98db-46c7-ae19-d907b3484b62" data-name="&lt;Path&gt;" d="M28.3,85.8c-3.747,2.524-2.463-12.074-2.648-13.869-.215-2.077-.532-5.568,1.235-7.155,3.124-2.8,11.637.539,15.359.957a29.913,29.913,0,0,0,12.039-1.119,7.453,7.453,0,0,0,2.454-1.14c1.934-1.517,7.46-18.813,7.849-18.706l3.88,1.07c-1.174,5.342-2.309,10.695-3.524,16.029-.937,4.113-1.11,8.909-4.074,12.2a14.144,14.144,0,0,1-7.342,3.854C46.273,79.668,34.741,81.46,28.3,85.8Z" transform="translate(-15.78 -6.88)" fill="#2c58ff"/></g></g></g></g></g></svg>