<svg id="Capa_1" data-name="Capa 1" xmlns="http://www.w3.org/2000/svg" viewBox="0 0 378 378"><defs><style>.cls-1{fill:#0072ff;stroke:#0072ff;stroke-miterlimit:10;stroke-width:10px;}</style></defs><title>sad-icon</title><path class="cls-1" d="M178,330.7a8,8,0,0,0,.7,11.3,8.1,8.1,0,0,0,5.3,2,8,8,0,0,0,6-2.7,89,89,0,0,1,132,0,8,8,0,0,0,12-10.6,105,105,0,0,0-156,0Z" transform="translate(-67 -67)"/><path class="cls-1" d="M256,440c101.5,0,184-82.5,184-184S357.5,72,256,72,72,154.5,72,256,154.5,440,256,440Zm0-352c92.6,0,168,75.4,168,168S348.6,424,256,424,88,348.6,88,256,163.4,88,256,88Z" transform="translate(-67 -67)"/><path class="cls-1" d="M320,248a40,40,0,0,0,40-40,8,8,0,0,0-16,0,24,24,0,0,1-48,0,8,8,0,0,0-16,0A40,40,0,0,0,320,248Z" transform="translate(-67 -67)"/><path class="cls-1" d="M192,248a40,40,0,0,0,40-40,8,8,0,0,0-16,0,24,24,0,0,1-48,0,8,8,0,0,0-16,0A40,40,0,0,0,192,248Z" transform="translate(-67 -67)"/></svg>