<svg xmlns="http://www.w3.org/2000/svg" xmlns:xlink="http://www.w3.org/1999/xlink" viewBox="0 0 374.221 365.099"><defs><clipPath id="8343dd1f-95fe-48ef-a3a3-88312bb4bcc7" transform="translate(0 -28)"><path d="M429.221,194.5c0,107.419-114,202.5-207,199.5-107.363-3.463-182-92.081-182-199.5S127.3,0,234.721,0,429.221,87.081,429.221,194.5Z" fill="none"/></clipPath><clipPath id="538249d8-6d28-4e5e-b204-12f88c516679" transform="translate(0 -28)"><path id="1b3be0a8-14e9-4fdc-a030-ab1844612c78" data-name="&lt;Clipping Path&gt;" d="M252.952,143.2l2.4,37.945s-22.913,20.367-40.734,0l2.546-33.095Z" fill="#fdb483"/></clipPath></defs><title>intercAsset 1</title><g style="isolation:isolate"><g id="cf06abbc-3c7e-45b1-a1e2-e87b31d999ad" data-name="Layer 2"><g id="3915b6ce-81cd-41d1-85e9-fe5911101ece" data-name="Layer 1"><circle cx="228.221" cy="219" r="146" fill="#c7deff"/><g clip-path="url(#8343dd1f-95fe-48ef-a3a3-88312bb4bcc7)"><path d="M247.711,176.057l7.638,5.091s28,0,50.916,10.184c0,0,11.956,163.668-8.044,184.668,0,0-91,50-169-21,0,0,21.749-163.668,34.478-171.306s58.554-2.546,58.554-2.546Z" transform="translate(0 -28)" fill="#0057ff"/><path id="40665069-f58e-4256-831a-64a0ab973836" data-name="&lt;Clipping Path&gt;" d="M252.952,143.2l2.4,37.945s-22.913,20.367-40.734,0l2.546-33.095Z" transform="translate(0 -28)" fill="#fdb483"/><g clip-path="url(#538249d8-6d28-4e5e-b204-12f88c516679)"><path d="M204.293,167.271s39.162,4.608,43.769-18.429S204.293,167.271,204.293,167.271Z" transform="translate(0 -28)" fill="#fdb483" opacity="0.39" style="mix-blend-mode:multiply"/></g><path d="M327.776,308.121s-9.664-14.821-19.819-32.769c13.3-14.377,32.576-15.36,41.248-14.966,9.172,22.342,17.445,46.879,21.328,67.586,0,0-12.216,33.6-138.959,18.325l-9.162-19.852S301.817,321.864,327.776,308.121Z" transform="translate(0 -28)" fill="#fdb483"/><path d="M251.221,324s-45,0-44,11c.747,8.212,13,14,26,11S251.221,324,251.221,324Z" transform="translate(0 -28)" fill="#fdb483"/><path d="M306.4,283.689c-11.954-21.129-23.03-54.929-21.378-65.662,3.054-19.851,9.162-22.9,9.162-22.9s9.162-10.69,21.378,1.527c7.04,7.039,28.759,41.388,41.23,71.77C348.118,268.025,319.7,269.312,306.4,283.689Z" transform="translate(0 -28)" fill="#0057ff"/><path d="M196.469,65.178s-28.727,84.1,10.673,94.822,56.689-28.961,56.689-28.961l.329-56.227Z" transform="translate(0 -28)" fill="#fdb483"/><path d="M249.838,151.5s61.341-27.189,38.046-66.375c0,0,3.341-29.28-29.786-35.327,0,0-40.757-40.168-40.822-11.46,0,0-32.915-14.524-27.779,14.967,0,0-29.487-.086-5.261,22.705,0,0,28.852,25.518,70.309,11.545,0,0-14.1,15.961-7.4,35.051C247.145,122.61,242.926,140.892,249.838,151.5Z" transform="translate(0 -28)" fill="#804d4c"/><path d="M246.172,123.119c-3.373,6.54-1.77,14.079,3.581,16.839s12.424-.3,15.8-6.845,1.77-14.079-3.581-16.839S249.545,116.578,246.172,123.119Z" transform="translate(0 -28)" fill="#fdb483"/><path d="M256.786,84.758a2.42,2.42,0,0,1-.222.872,3.876,3.876,0,0,1-.375.691,3.783,3.783,0,0,1-.46.6,4.248,4.248,0,0,1-.507.545,13.589,13.589,0,0,1-2.326,1.717,21.774,21.774,0,0,1-2.548,1.252l-1.3.546-1.334.446a66.3,66.3,0,0,1-10.9,2.5l-2.759.426-2.774.311-2.772.311-2.78.214c-3.7.332-7.42.435-11.13.61,3.706-.262,7.416-.451,11.106-.869l2.77-.278,2.758-.374,2.756-.375,2.738-.487A65.8,65.8,0,0,0,247.454,90.7l1.3-.467,1.253-.561a20.937,20.937,0,0,0,2.421-1.259,12.589,12.589,0,0,0,2.11-1.631,3.364,3.364,0,0,0,.429-.483,3.021,3.021,0,0,0,.374-.509,2.812,2.812,0,0,0,.276-.536,1.809,1.809,0,0,0,.133-.466Z" transform="translate(0 -28)" fill="#804d4c"/><path d="M284.744,84.453a7.129,7.129,0,0,0,3.507-1.4,9.209,9.209,0,0,0,2.556-2.991,15.01,15.01,0,0,0,1.419-3.78c.115-.669.25-1.339.349-2.014l.182-2.043-.053,2.056c-.056.683-.15,1.365-.223,2.051a15.447,15.447,0,0,1-1.213,3.969,9.851,9.851,0,0,1-2.535,3.363,7.927,7.927,0,0,1-3.931,1.824Z" transform="translate(0 -28)" fill="#804d4c"/><path d="M282.292,82.626a13.211,13.211,0,0,0,3.063,1.83,11.676,11.676,0,0,0,3.491.905,11.5,11.5,0,0,0,1.819.023,10.571,10.571,0,0,0,1.794-.349,11.564,11.564,0,0,0,3.327-1.581,11.7,11.7,0,0,1-3.248,1.828,10.788,10.788,0,0,1-1.825.488,11.907,11.907,0,0,1-1.9.109,12.321,12.321,0,0,1-3.742-.7,14,14,0,0,1-3.436-1.75Z" transform="translate(0 -28)" fill="#804d4c"/><path d="M226.8,111.634c-.788-5.423-5.577-9.273-10.983-9.721-.793-.066-.855-1.32-.051-1.253,6.108.506,11.377,4.661,12.287,10.923.116.8-1.138.844-1.253.051Z" transform="translate(0 -28)" fill="#804d4c"/><path d="M199.267,98.834a8.138,8.138,0,0,0-9.48,3.719c-.3.468-1.045.041-.748-.431,2.219-3.521,6.35-5.494,10.452-4.123.525.176.3,1.011-.224.835Z" transform="translate(0 -28)" fill="#804d4c"/><path d="M216.456,140.455a13.643,13.643,0,0,1-4.892,4.616c-4.151,2.351-8.756,1.829-12.975-.057-.736-.33-.089-1.405.64-1.079,5.74,2.568,12.7,1.577,16.149-4.12a.627.627,0,0,1,1.078.64Z" transform="translate(0 -28)" fill="#573c37"/><path d="M301.9,274.446l-5.284-5.027c-.182-.173-.457.1-.275.275l5.284,5.027c.181.172.457-.1.275-.275Z" transform="translate(0 -28)" fill="#557ed6"/><path d="M296.952,277.794l-11.07-7.253c-.211-.138-.406.2-.2.336l11.071,7.253c.21.138.405-.2.2-.336Z" transform="translate(0 -28)" fill="#557ed6"/><path d="M209.411,183.529c5.4,6.541,12.963,12.757,21.735,13.529,10,.88,18.88-4.8,26.88-10.032.209-.136.014-.473-.2-.336-7.5,4.9-15.614,10.178-24.93,10.062-9.415-.118-17.48-6.55-23.214-13.5-.16-.193-.434.084-.275.276Z" transform="translate(0 -28)" fill="#557ed6"/><path d="M308.829,275.751c8.911-11.811,27.744-11.63,41.089-12.1.25-.008.251-.4,0-.389-13.512.479-32.39.323-41.425,12.3-.151.2.187.394.336.2Z" transform="translate(0 -28)" fill="#557ed6"/><path d="M204.17,228.734h58.44c3.524,0,5.578,2.857,4.588,6.381l-11.4,40.546a9.078,9.078,0,0,1-8.175,6.381h-58.44c-3.524,0-5.578-2.856-4.587-6.381L196,235.115A9.077,9.077,0,0,1,204.17,228.734Z" transform="translate(0 -28)" fill="#fff" opacity="0.66" style="isolation:isolate"/><path d="M212.61,240.326h58.44c3.524,0,5.578,2.857,4.588,6.381l-11.4,40.547a9.077,9.077,0,0,1-8.175,6.381H197.627c-3.525,0-5.578-2.857-4.588-6.381l11.4-40.547A9.077,9.077,0,0,1,212.61,240.326Z" transform="translate(0 -28)" fill="#fff" opacity="0.7" style="isolation:isolate"/></g><path d="M117.484,264.608,103.1,317.245l-71.733,24.54S8.709,360.662,33.249,362.55c62.226,4.787,100.05-30.2,100.05-30.2l11.326-66.071Z" transform="translate(0 -28)" fill="#fdb483"/><path d="M167.766,281.015c12.828-22.672,24.712-58.941,22.94-70.459-3.277-21.3-9.831-24.579-9.831-24.579s-9.832-11.47-22.94,1.639c-7.554,7.553-30.86,44.412-44.242,77.013C123,264.207,153.5,265.588,167.766,281.015Z" transform="translate(0 -28)" fill="#0057ff"/><rect x="25.871" y="100.499" width="113.24" height="74.618" rx="6.002" ry="6.002" transform="matrix(0.956, -0.294, 0.294, 0.956, -36.823, 2.29)" fill="#ba5966"/><rect x="25.247" y="98.469" width="113.24" height="74.618" rx="6.002" ry="6.002" transform="translate(-36.254 2.018) rotate(-17.072)" fill="#ff7a8c"/><rect x="34.621" y="132.317" width="19.633" height="20.998" rx="2.002" ry="2.002" transform="translate(-39.97 -8.661) rotate(-17.072)" fill="#ffbf40"/><rect x="41.145" y="161.631" width="20.428" height="7.443" transform="translate(-46.281 -5.636) rotate(-17.073)" fill="#eff3f4"/><rect x="65.264" y="154.224" width="20.428" height="7.443" transform="translate(-43.043 1.118) rotate(-17.072)" fill="#eff3f4"/><rect x="89.383" y="146.816" width="20.428" height="7.443" transform="translate(-39.806 7.874) rotate(-17.073)" fill="#eff3f4"/><rect x="113.502" y="139.409" width="20.428" height="7.443" transform="translate(-36.569 14.628) rotate(-17.073)" fill="#eff3f4"/><text transform="matrix(0.956, -0.294, 0.294, 0.956, 74.221, 91.278)" font-size="16.12" fill="#fff" font-family="Montserrat-ExtraBold, Montserrat" font-weight="700">BANK</text><path d="M51.478,296.268a346.751,346.751,0,0,0-23.071-35.124q.439-.332.879-.665a346.918,346.918,0,0,1,23.168,35.084C52.129,295.8,51.8,296.034,51.478,296.268Z" transform="translate(0 -28)" fill="#28b260"/><path d="M52.422,295.586A347.024,347.024,0,0,0,29.257,260.5a296.628,296.628,0,0,0,61.054-62.994,378.029,378.029,0,0,1,30.323,31.41A333.827,333.827,0,0,1,52.422,295.586Z" transform="translate(0 -28)" fill="#2ecc71"/><path d="M49.088,282.653q-4.737-7.445-9.777-14.548a10.12,10.12,0,0,0,1.929-14.123A298.645,298.645,0,0,0,83.211,210.9c3.925,3.911,10.126,3.437,13.805-1.441q6.364,6.381,12.5,13.15c-3.827,4.966-4.036,12.277-.432,16.706a331.666,331.666,0,0,1-46.291,45.3C59.815,279.9,53.659,279.193,49.088,282.653Z" transform="translate(0 -28)" fill="#28b260"/><path d="M83.093,258.571c-5.612,5.514-13.61,4.86-17.882-.831-4.274-5.708-3.548-14.125,1.636-19.42,5.183-5.278,13.18-5.619,17.88-.131C89.43,243.66,88.7,253.072,83.093,258.571Z" transform="translate(0 -28)" fill="#2ecc71"/><path d="M0,328.363a346.73,346.73,0,0,0,30.806-28.582q.4.379.8.757A347.291,347.291,0,0,1,.858,329.208Q.427,328.787,0,328.363Z" transform="translate(0 -28)" fill="#28b260"/><path d="M.83,329.181a347.146,347.146,0,0,0,30.752-28.668,296.684,296.684,0,0,0,72.255,49.749A378.142,378.142,0,0,1,77.9,385.378,333.83,333.83,0,0,1,.83,329.181Z" transform="translate(0 -28)" fill="#2ecc71"/><path d="M13.029,323.746q6.555-5.907,12.724-12.057A10.121,10.121,0,0,0,40,311.247a298.652,298.652,0,0,0,49.449,34.237c-3.206,4.52-1.708,10.556,3.712,13.374q-5.235,7.337-10.892,14.51c-5.533-2.949-12.776-1.942-16.545,2.347a331.615,331.615,0,0,1-52.353-38.129C17.521,333.867,17.2,327.679,13.029,323.746Z" transform="translate(0 -28)" fill="#28b260"/><path d="M42.423,353.281c-6.369-4.619-7.053-12.615-2.15-17.772,4.92-5.162,13.341-5.843,19.423-1.611,6.065,4.236,7.729,12.065,3.1,17.611C58.178,357.055,48.777,357.9,42.423,353.281Z" transform="translate(0 -28)" fill="#2ecc71"/><path d="M63.354,202.441a11.763,11.763,0,1,1-11.77-11.756A11.763,11.763,0,0,1,63.354,202.441Z" transform="translate(0 -28)" fill="#ffbf40"/><path d="M51.572,212.531a10.105,10.105,0,0,1,0-20.21h.006a10.105,10.105,0,0,1,0,20.21Zm0-18.666h-.006a8.561,8.561,0,0,0,0,17.122h.006a8.561,8.561,0,0,0,0-17.122Z" transform="translate(0 -28)" fill="#ffdf67"/><path d="M51.354,281.441a11.763,11.763,0,1,1-11.77-11.756A11.763,11.763,0,0,1,51.354,281.441Z" transform="translate(0 -28)" fill="#ffbf40"/><path d="M39.572,291.531a10.105,10.105,0,0,1,0-20.21h.006a10.105,10.105,0,0,1,0,20.21Zm0-18.666h-.006a8.561,8.561,0,0,0,0,17.122h.006a8.561,8.561,0,0,0,0-17.122Z" transform="translate(0 -28)" fill="#ffdf67"/></g></g></g></svg>