<svg id="Capa_1" data-name="Capa 1" xmlns="http://www.w3.org/2000/svg" viewBox="0 0 378 378"><defs><style>.cls-1{fill:#0072ff;stroke:#0072ff;stroke-miterlimit:10;stroke-width:10px;}</style></defs><title>smile-icon</title><path class="cls-1" d="M190,298.7a8,8,0,0,0-12,10.6,105,105,0,0,0,156,0,8,8,0,0,0-12-10.6,89,89,0,0,1-132,0Z" transform="translate(-67 -67)"/><path class="cls-1" d="M256,440c101.5,0,184-82.5,184-184S357.5,72,256,72,72,154.5,72,256,154.5,440,256,440Zm0-352c92.6,0,168,75.4,168,168S348.6,424,256,424,88,348.6,88,256,163.4,88,256,88Z" transform="translate(-67 -67)"/><path class="cls-1" d="M288,248a8,8,0,0,0,8-8,24,24,0,0,1,48,0,8,8,0,0,0,16,0,40,40,0,0,0-80,0A8,8,0,0,0,288,248Z" transform="translate(-67 -67)"/><path class="cls-1" d="M160,248a8,8,0,0,0,8-8,24,24,0,0,1,48,0,8,8,0,0,0,16,0,40,40,0,0,0-80,0A8,8,0,0,0,160,248Z" transform="translate(-67 -67)"/></svg>