<?xml version="1.0"?>
<svg xmlns="http://www.w3.org/2000/svg" height="512px" viewBox="-58 0 511 511.99912" width="512px"><g><path d="m374.234375 296.65625-59.015625-22.550781v-236.761719c0-20.589844-16.753906-37.34375-37.34375-37.34375h-162.828125c-17.699219 0-34.804687 5.75-49.210937 17.144531-1.746094 1.390625-43.703126 41.355469-51.351563 52.449219-9.082031 13.121094-13.984375 28.65625-13.984375 44.953125v309.316406c0 20.59375 16.753906 37.34375 37.34375 37.34375h168.152344c15.648437 19.949219 35.21875 35.796875 58.488281 47.304688 9.398437 4.648437 20.628906 4.648437 30.027344 0 89.042969-44.03125 100.824219-139.828125 101.753906-178.96875.347656-14.503907-8.507813-27.71875-22.03125-32.886719zm-79.015625-60.203125h-273.214844v-90.21875h273.214844zm-17.34375-216.453125c9.5625 0 17.34375 7.78125 17.34375 17.34375v88.890625h-274.71875c.050781-11.128906-.121094-11.910156.167969-15.964844h42.75c21.929687 0 39.769531-17.839843 39.769531-39.769531v-49.3125c3.863281-.78125 7.832031-1.1875 11.859375-1.1875zm-204.71875 17.351562c2.933594-2.933593 6.316406-5.667968 10.03125-8.03125v41.179688c0 10.898438-8.867188 19.769531-19.769531 19.769531h-37.710938c6-13.382812 12.039063-17.472656 47.449219-52.917969zm212.488281 453.234376c-3.847656 1.902343-8.445312 1.902343-12.296875 0-30.546875-15.109376-53.132812-38.386719-68.148437-67.648438-4.71875-9.195312-18.65625-5.992188-18.898438 4.34375-.074219 3.179688 1.082031 5.335938 6.117188 13.925781h-154.574219c-9.5625 0-17.34375-7.777343-17.34375-17.34375v-167.40625h274.71875v11.332031c-29.191406-5.660156-38.457031 1.609376-110.457031 28.867188-13.445313 5.136719-22.378907 18.300781-22.03125 32.886719.117187 4.910156 1.003906 22.984375 2.234375 26.433593 1.535156 4.304688 5.871094 7.125 10.574218 6.574219 5.488282-.644531 9.414063-5.613281 8.769532-11.097656-.875-7.492187-1.410156-15.023437-1.585938-22.382813-.140625-6.046874 3.53125-11.574218 9.179688-13.730468 69.96875-26.710938 68.582031-26.605469 76.246094-28.023438 11.480468-2.121094 23.242187-.890625 33.683593 3.085938l65.261719 24.9375c5.636719 2.152344 9.320312 7.667968 9.179688 13.726562-.847657 35.507813-11.367188 122.324219-90.628907 161.519532zm0 0" data-original="#000000" class="active-path" data-old_color="#2c58ff" fill="#2c58ff"/><path d="m279.496094 309.617188c-38.609375 0-70.023438 31.414062-70.023438 70.023437 0 38.613281 31.414063 70.023437 70.023438 70.023437 38.613281 0 70.023437-31.410156 70.023437-70.023437 0-38.609375-31.410156-70.023437-70.023437-70.023437zm0 120.046874c-27.582032 0-50.019532-22.441406-50.019532-50.023437s22.4375-50.023437 50.019532-50.023437c27.585937 0 50.023437 22.441406 50.023437 50.023437 0 27.585937-22.441406 50.023437-50.023437 50.023437zm0 0" data-original="#000000" class="active-path" data-old_color="#2c58ff" fill="#2c58ff"/><path d="m299.1875 348.355469c-5.222656-1.8125-10.917969.949219-12.726562 6.167969l-10.738282 30.917968c-.871094 2.507813-3.816406 3.609375-6.121094 2.265625l-12.335937-7.195312c-4.769531-2.785157-10.894531-1.167969-13.675781 3.601562-2.785156 4.769531-1.171875 10.894531 3.601562 13.675781l12.332032 7.195313c13.167968 7.679687 30.085937 1.433594 35.09375-12.980469l10.734374-30.921875c1.8125-5.214843-.949218-10.914062-6.164062-12.726562zm0 0" data-original="#000000" class="active-path" data-old_color="#2c58ff" fill="#2c58ff"/><path d="m182.363281 382.257812c-5.523437 0-10 4.476563-10 10 0 5.523438 4.476563 10 10 10h.023438c5.523437 0 9.988281-4.476562 9.988281-10 0-5.523437-4.488281-10-10.011719-10zm0 0" data-original="#000000" class="active-path" data-old_color="#2c58ff" fill="#2c58ff"/><path d="m101 215.472656c-7.4375 0-11.09375-4.824218-14.117188-6.8125-6.082031-3.984375-10.496093 3.195313-10.496093 7.433594 0 3.445312 2.480469 6.550781 7.445312 9.304688 4.964844 2.761718 10.789063 4.136718 17.476563 4.136718 30.460937 0 30.96875-30.886718 17.371094-40.792968-4.707032-3.429688-10.816407-6.546876-15.820313-8.480469-13.355469-5.148438-9.726563-13.90625 1.863281-13.90625 7.636719 0 11.382813 3.929687 14.164063 3.929687 4.914062 0 9.234375-9.035156 4.085937-13.519531-4.050781-3.523437-12.882812-4.476563-18.25-4.476563-26.980468 0-30.652344 22.503907-23.113281 33.402344 6.890625 9.96875 17.21875 10.160156 26.058594 16.957032 6.042969 4.652343 4.085937 12.824218-6.667969 12.824218zm0 0" data-original="#000000" class="active-path" data-old_color="#2c58ff" fill="#2c58ff"/><path d="m153.269531 211.441406c-1.675781-1.59375-4.679687-4.035156-6.980469-4.035156-4.03125 0-7.03125 5.179688-7.03125 8.6875 0 3.445312 2.484376 6.550781 7.445313 9.304688 4.964844 2.761718 10.789063 4.136718 17.476563 4.136718 29.988281 0 31.46875-30.523437 17.375-40.792968-11.863282-8.640626-24.300782-9.589844-24.300782-16.183594 0-1.722656.859375-3.1875 2.582032-4.394532 3.839843-2.683593 11.847656-2.183593 16.648437.152344 2.691406 1.3125 4.449219 1.964844 5.273437 1.964844 4.023438 0 6.414063-5.007812 6.414063-8.617188 0-7.710937-12.964844-9.375-20.578125-9.375-30.546875 0-33.765625 30.664063-14.894531 40.898438 10.792969 5.855469 21.199219 8.484375 21.199219 15.460938.003906 7.863281-14.050782 9.058593-20.628907 2.792968zm0 0" data-original="#000000" class="active-path" data-old_color="#2c58ff" fill="#2c58ff"/><path d="m212.78125 228.503906h32.675781c6.222657 0 6.199219-14.066406 0-14.066406h-23.574219v-56.667969c0-6.519531-16.132812-6.519531-16.132812 0v65.769531c0 3.457032 3.585938 4.964844 7.03125 4.964844zm0 0" data-original="#000000" class="active-path" data-old_color="#2c58ff" fill="#2c58ff"/></g> </svg>
