<?xml version="1.0" ?><svg viewBox="0 0 40 40" xmlns="http://www.w3.org/2000/svg"><title/><g id="Stripe"><path d="M34,20.52c0-2-1-3.56-2.81-3.56s-3,1.57-3,3.54c0,2.35,1.32,3.53,3.22,3.53a4.3,4.3,0,0,0,2.16-.51V22a4.21,4.21,0,0,1-1.91.42c-.75,0-1.42-.26-1.51-1.18H34C34,21.11,34,20.71,34,20.52Zm-3.84-.74c0-.88.53-1.24,1-1.24s1,.36,1,1.24ZM25.22,17a2.28,2.28,0,0,0-1.53.6l-.1-.48H21.88v9.07l1.95-.41v-2.2a2.23,2.23,0,0,0,1.38.49c1.39,0,2.66-1.12,2.66-3.59C27.86,18.19,26.58,17,25.22,17Zm-.47,5.36a1.18,1.18,0,0,1-.92-.37V19.07a1.14,1.14,0,0,1,.92-.39c.71,0,1.2.8,1.2,1.82S25.47,22.32,24.75,22.32Zm-5.54-7.41,1.95-.41v1.58l-1.95.42Zm0,2.18h1.95V23.9H19.21Zm-.48,0v1.79a1.36,1.36,0,0,0-1.48.4V23.9H15.31V17.09H17l.12.58A1.33,1.33,0,0,1,18.73,17.09Zm-5.51,0H14.7v1.66H13.22v2.76c0,1.15,1.23.79,1.48.69v1.58a3,3,0,0,1-1.37.26,2,2,0,0,1-2-2V15.81l1.9-.41Zm-2.28,4.75c0,1.39-1.11,2.2-2.73,2.2a5.39,5.39,0,0,1-2.12-.45V21.74a4.77,4.77,0,0,0,2.12.62c.43,0,.75-.11.75-.47,0-.93-3-.58-3-2.73,0-1.38,1-2.2,2.63-2.2a5.11,5.11,0,0,1,1.93.36v1.82a4.32,4.32,0,0,0-1.93-.49c-.41,0-.66.11-.66.42C8,19.94,10.93,19.52,10.94,21.84Z"/></g></svg>