<svg xmlns="http://www.w3.org/2000/svg" xmlns:xlink="http://www.w3.org/1999/xlink" viewBox="0 0 412.611 365.099"><defs><clipPath id="b959e0bd-b9ba-440a-8037-ea221fd72537" transform="translate(0 -28)"><path d="M467.611,194.5c0,107.419-114,202.5-207,199.5-107.364-3.463-182-92.081-182-199.5S165.691,0,273.111,0,467.611,87.081,467.611,194.5Z" fill="none"/></clipPath><clipPath id="921ffc55-0bd0-4951-a938-2e32378faf74" transform="translate(0 -28)"><path id="672c3f8e-a4f1-4ff6-a94d-dd47a69c5105" data-name="&lt;Clipping Path&gt;" d="M291.342,143.2l2.4,37.945s-22.912,20.367-40.733,0l2.546-33.095Z" fill="#fdb483"/></clipPath><clipPath id="95d1c287-e0fb-43bf-bfc3-7ac369626845" transform="translate(0 -28)"><circle cx="85.559" cy="140.771" r="70.227" transform="translate(-57.778 221.958) rotate(-88.237)" fill="#739fe0"/></clipPath><clipPath id="e19f7f5a-838d-452d-b9ad-b1bb1eb6f072" transform="translate(0 -28)"><path id="4d736601-0595-4289-8093-927bc2a5d9aa" data-name="&lt;Clipping Path&gt;" d="M76.627,130.465l-.688,16.261,15.034,9.97a.981.981,0,0,0,1.5-.643l2.479-13.221L80.291,124.968Z" fill="#f7b59c"/></clipPath></defs><title>intercAsset 3</title><g style="isolation:isolate"><g id="cb5330d1-04be-44b7-9cac-d6cb4c03a6f9" data-name="Layer 2"><g id="2b60e4b1-d4ce-4f8c-808e-ac4618143b08" data-name="Layer 1"><circle cx="266.611" cy="219" r="146" fill="#c7deff"/><g clip-path="url(#b959e0bd-b9ba-440a-8037-ea221fd72537)"><path d="M286.1,176.057l7.638,5.091s28,0,50.916,10.184c0,0,11.957,163.668-8.043,184.668,0,0-91,50-169-21,0,0,21.749-163.668,34.478-171.306s58.553-2.546,58.553-2.546Z" transform="translate(0 -28)" fill="#0057ff"/><path id="36e36df8-6980-4577-829a-92e495c16b7e" data-name="&lt;Clipping Path&gt;" d="M291.342,143.2l2.4,37.945s-22.912,20.367-40.733,0l2.546-33.095Z" transform="translate(0 -28)" fill="#fdb483"/><g clip-path="url(#921ffc55-0bd0-4951-a938-2e32378faf74)"><path d="M242.682,167.271s39.162,4.608,43.769-18.429S242.682,167.271,242.682,167.271Z" transform="translate(0 -28)" fill="#fdb483" opacity="0.39" style="mix-blend-mode:multiply"/></g><path d="M366.166,308.121s-9.665-14.821-19.82-32.769c13.3-14.377,32.576-15.36,41.249-14.966,9.171,22.342,17.445,46.879,21.327,67.586,0,0-12.216,33.6-138.959,18.325L260.8,326.445S340.206,321.864,366.166,308.121Z" transform="translate(0 -28)" fill="#fdb483"/><path d="M289.611,324s-45,0-44,11c.746,8.212,13,14,26,11S289.611,324,289.611,324Z" transform="translate(0 -28)" fill="#fdb483"/><path d="M344.787,283.689c-11.954-21.129-23.029-54.929-21.378-65.662,3.054-19.851,9.162-22.9,9.162-22.9s9.162-10.69,21.378,1.527c7.04,7.039,28.759,41.388,41.23,71.77C386.507,268.025,358.086,269.312,344.787,283.689Z" transform="translate(0 -28)" fill="#0057ff"/><path d="M234.858,65.178s-28.727,84.1,10.673,94.822,56.69-28.961,56.69-28.961l.329-56.227Z" transform="translate(0 -28)" fill="#fdb483"/><path d="M288.228,151.5s61.34-27.189,38.046-66.375c0,0,3.341-29.28-29.786-35.327,0,0-40.758-40.168-40.822-11.46,0,0-32.916-14.524-27.78,14.967,0,0-29.487-.086-5.26,22.705,0,0,28.852,25.518,70.309,11.545,0,0-14.1,15.961-7.4,35.051C285.535,122.61,281.315,140.892,288.228,151.5Z" transform="translate(0 -28)" fill="#804d4c"/><path d="M284.561,123.119c-3.373,6.54-1.769,14.079,3.582,16.839s12.423-.3,15.8-6.845,1.77-14.079-3.581-16.839S287.934,116.578,284.561,123.119Z" transform="translate(0 -28)" fill="#fdb483"/><path d="M295.175,84.758a2.4,2.4,0,0,1-.222.872,3.814,3.814,0,0,1-.375.691,3.725,3.725,0,0,1-.46.6,4.248,4.248,0,0,1-.507.545,13.55,13.55,0,0,1-2.326,1.717,21.761,21.761,0,0,1-2.547,1.252l-1.3.546-1.335.446a66.3,66.3,0,0,1-10.9,2.5l-2.759.426-2.773.311-2.772.311-2.781.214c-3.7.332-7.42.435-11.13.61,3.706-.262,7.416-.451,11.107-.869l2.77-.278,2.758-.374,2.756-.375,2.737-.487A65.8,65.8,0,0,0,285.843,90.7l1.3-.467,1.254-.561a20.924,20.924,0,0,0,2.42-1.259,12.589,12.589,0,0,0,2.11-1.631,3.372,3.372,0,0,0,.43-.483,3.015,3.015,0,0,0,.373-.509,2.818,2.818,0,0,0,.277-.536,1.851,1.851,0,0,0,.133-.466Z" transform="translate(0 -28)" fill="#804d4c"/><path d="M323.133,84.453a7.136,7.136,0,0,0,3.508-1.4,9.206,9.206,0,0,0,2.555-2.991,14.972,14.972,0,0,0,1.419-3.78c.115-.669.25-1.339.349-2.014l.182-2.043-.053,2.056c-.056.683-.149,1.365-.223,2.051a15.408,15.408,0,0,1-1.213,3.969,9.839,9.839,0,0,1-2.535,3.363,7.927,7.927,0,0,1-3.931,1.824Z" transform="translate(0 -28)" fill="#804d4c"/><path d="M320.681,82.626a13.232,13.232,0,0,0,3.063,1.83,11.675,11.675,0,0,0,3.492.905,11.488,11.488,0,0,0,1.818.023,10.552,10.552,0,0,0,1.794-.349,11.551,11.551,0,0,0,3.327-1.581,11.7,11.7,0,0,1-3.248,1.828,10.788,10.788,0,0,1-1.825.488,11.9,11.9,0,0,1-1.9.109,12.321,12.321,0,0,1-3.742-.7,14.037,14.037,0,0,1-3.436-1.75Z" transform="translate(0 -28)" fill="#804d4c"/><path d="M265.189,111.634c-.788-5.423-5.578-9.273-10.984-9.721-.793-.066-.855-1.32-.05-1.253,6.108.506,11.377,4.661,12.286,10.923.116.8-1.137.844-1.252.051Z" transform="translate(0 -28)" fill="#804d4c"/><path d="M237.657,98.834a8.138,8.138,0,0,0-9.48,3.719c-.3.468-1.046.041-.749-.431,2.219-3.521,6.35-5.494,10.453-4.123.524.176.305,1.011-.224.835Z" transform="translate(0 -28)" fill="#804d4c"/><path d="M254.846,140.455a13.653,13.653,0,0,1-4.893,4.616c-4.15,2.351-8.756,1.829-12.974-.057-.737-.33-.09-1.405.64-1.079,5.74,2.568,12.7,1.577,16.149-4.12a.627.627,0,0,1,1.078.64Z" transform="translate(0 -28)" fill="#573c37"/><path d="M340.29,274.446q-2.642-2.514-5.284-5.027c-.181-.173-.457.1-.275.275l5.284,5.027c.182.172.457-.1.275-.275Z" transform="translate(0 -28)" fill="#557ed6"/><path d="M335.342,277.794l-11.071-7.253c-.21-.138-.405.2-.2.336l11.071,7.253c.21.138.406-.2.2-.336Z" transform="translate(0 -28)" fill="#557ed6"/><path d="M247.8,183.529c5.4,6.541,12.964,12.757,21.736,13.529,10,.88,18.88-4.8,26.879-10.032.209-.136.015-.473-.2-.336-7.5,4.9-15.613,10.178-24.929,10.062-9.416-.118-17.481-6.55-23.215-13.5-.159-.193-.433.084-.275.276Z" transform="translate(0 -28)" fill="#557ed6"/><path d="M347.218,275.751c8.912-11.811,27.744-11.63,41.089-12.1.25-.008.251-.4,0-.389-13.511.479-32.39.323-41.425,12.3-.151.2.187.394.336.2Z" transform="translate(0 -28)" fill="#557ed6"/><path d="M242.56,228.734H301c3.525,0,5.578,2.857,4.588,6.381l-11.4,40.546a9.075,9.075,0,0,1-8.174,6.381h-58.44c-3.525,0-5.578-2.856-4.588-6.381l11.4-40.546A9.077,9.077,0,0,1,242.56,228.734Z" transform="translate(0 -28)" fill="#fff" opacity="0.66" style="isolation:isolate"/><path d="M251,240.326h58.44c3.524,0,5.578,2.857,4.587,6.381l-11.4,40.547a9.077,9.077,0,0,1-8.174,6.381h-58.44c-3.524,0-5.578-2.857-4.588-6.381l11.4-40.547A9.079,9.079,0,0,1,251,240.326Z" transform="translate(0 -28)" fill="#fff" opacity="0.7" style="isolation:isolate"/></g><path d="M155.873,264.608l-14.389,52.637-71.733,24.54S47.1,360.662,71.639,362.55c62.225,4.787,100.049-30.2,100.049-30.2l11.326-66.071Z" transform="translate(0 -28)" fill="#fdb483"/><path d="M206.156,281.015c12.827-22.672,24.712-58.941,22.94-70.459-3.277-21.3-9.832-24.579-9.832-24.579s-9.831-11.47-22.94,1.639c-7.554,7.553-30.86,44.412-44.242,77.013C161.388,264.207,191.886,265.588,206.156,281.015Z" transform="translate(0 -28)" fill="#0057ff"/><path d="M293.183,122.3s3.49-61.66-43.046-69.8c0,0-4.653-10.47,8.144-10.47,0,0,48.863,8.44,37.811,82.749Z" transform="translate(0 -28)" fill="#384b72"/><circle cx="296.092" cy="99.531" r="13.379" fill="#384b72"/><path d="M266.1,165c2.375,0,4.858-.073,7.42-.244,18.681-1.246,22.409-30.536,22.558-31.782l-3.465-.416c-.034.276-3.525,27.662-19.324,28.715a112.092,112.092,0,0,1-30.874-2.279l-.846,3.386A110.345,110.345,0,0,0,266.1,165Z" transform="translate(0 -28)" fill="#384b72"/><path d="M233.907,159.757c-.237,1.913,2.931,3.88,7.075,4.394s7.7-.619,7.934-2.532-2.93-3.881-7.075-4.4S234.145,157.844,233.907,159.757Z" transform="translate(0 -28)" fill="#384b72"/><path d="M289.693,127.531a6.4,6.4,0,1,0,6.4-6.4A6.4,6.4,0,0,0,289.693,127.531Z" transform="translate(0 -28)" fill="#516985"/><circle cx="85.559" cy="140.771" r="70.227" transform="translate(-57.778 193.958) rotate(-88.237)" fill="#739fe0"/><g clip-path="url(#95d1c287-e0fb-43bf-bfc3-7ac369626845)"><circle cx="85.559" cy="140.771" r="85.556" transform="translate(-74.481 73.73) rotate(-45)" fill="#d3bdfa"/><path d="M78.23,146.726s-18.323,0-24.735,3.206-9.62,11.451-8.245,16.948-5.955,19.239,1.832,26.567c6.993,6.582,12.508,5.776,14.887,4.879.27-.1.5-.2.687-.3,1.832-.916,0,24.277,0,24.277s46.264,2.748,49.012,0,3.664-60.463-2.748-66.876-24.277-8.7-24.277-8.7Z" transform="translate(0 -28)" fill="#41aba3"/><path id="2f128d66-1a58-44e4-a719-1fdb6136d47a" data-name="&lt;Clipping Path&gt;" d="M76.627,130.465l-.688,16.261,15.034,9.97a.981.981,0,0,0,1.5-.643l2.479-13.221L80.291,124.968Z" transform="translate(0 -28)" fill="#f7b59c"/><g clip-path="url(#e19f7f5a-838d-452d-b9ad-b1bb1eb6f072)"><path d="M75.481,140.771s2.291,1.832,4.123,0c0,0,10.535,17.864,19.7,14.658s-9.619-17.865-9.619-17.865l-9.595-7.253-5.521,4.047Z" transform="translate(0 -28)" fill="#f7b59c" opacity="0.45" style="mix-blend-mode:multiply"/></g><path d="M77.543,124.51c7.329-.458,8.245-12.368,8.245-13.742s11.451-5.038,14.2-3.664c2.616,1.307,3.31,9.7,3.436,10.306,4.026-2.438,7.557-11.135,5.726-16.261-2.291-6.413-5.039-4.123-6.871-2.748s-1.833-5.039-11.452-10.536,1.375,6.413-10.077,5.5S68.382,103.9,68.382,103.9c-5.955,0-10.078,5.039-5.5,10.078s.916,5.5,0,10.077c-.478,2.389,4.153,3.407,8.694,3.835A7.9,7.9,0,0,1,77.543,124.51Z" transform="translate(0 -28)" fill="#005173"/><path d="M89.452,131.381c8.427,3.664,16.262-.583,19.063-2.43-2.034-3.227-3.788-6.464-3.947-9.48a23.42,23.42,0,0,0-.583-4.1l.114-.071c-.126-.605-1.5-6.887-4.112-8.194-2.748-1.374-14.2,2.29-14.2,3.664,0,1.092-.583,8.834-4.5,12.2A15.654,15.654,0,0,0,89.452,131.381Z" transform="translate(0 -28)" fill="#f7b59c"/><path d="M108.515,128.951c-2.8,1.847-10.636,6.094-19.063,2.43a15.654,15.654,0,0,1-8.163-8.415,6.218,6.218,0,0,1-3.746,1.544,7.9,7.9,0,0,0-5.964,3.377,78.866,78.866,0,0,0,8.254.287c2.29,26.11,29.774,24.277,34.354,17.407C117.18,141.091,112.35,135.036,108.515,128.951Z" transform="translate(0 -28)" fill="#005173"/><rect x="63.125" y="122.249" width="21.071" height="10.819" transform="translate(140.126 231.206) rotate(-176.82)" fill="#72002c"/><path d="M61.969,141s0-14.2,2.29-16.032,7.787-8.7,10.535-6.871,1.374,2.748,3.207,3.665.916,2.29,2.29,3.206,3.206,4.581,2.29,4.581H78.459S72.046,141.458,69.3,141l-.458,1.832H61.969Z" transform="translate(0 -28)" fill="#f7b59c"/><path d="M68.611,142.6s.916,45.348-3.207,48.1-15.116-.458-12.825-9.619,10.535-42.6,10.535-42.6Z" transform="translate(0 -28)" fill="#f7b59c"/><path d="M89.681,134.358s8.013,2.4,11.674,1.591a.375.375,0,0,1,.434.494,20.811,20.811,0,0,0-1.114,3.87C100.675,141.229,92.43,139.855,89.681,134.358Z" transform="translate(0 -28)" fill="#e9fcff"/><path d="M89.681,122.907a2.589,2.589,0,0,1,.461-1.658,2.2,2.2,0,0,1,1.634-.924,2.987,2.987,0,0,1,1.739.481,6.138,6.138,0,0,1,.668.532,5.748,5.748,0,0,1,.537.653,6.721,6.721,0,0,1-.78-.274c-.245-.1-.5-.162-.733-.259a3.947,3.947,0,0,0-1.365-.219,1.99,1.99,0,0,0-1.164.487A6,6,0,0,0,89.681,122.907Z" transform="translate(0 -28)" fill="#ab6251"/><path d="M104.567,118.485a2.1,2.1,0,0,0-.908-1.053,1.772,1.772,0,0,0-1.513-.112,2.412,2.412,0,0,0-1.106.951,5,5,0,0,0-.305.619,4.649,4.649,0,0,0-.167.662,5.412,5.412,0,0,0,.475-.469c.145-.158.31-.291.447-.442a3.18,3.18,0,0,1,.923-.631,1.612,1.612,0,0,1,1.018-.045A4.833,4.833,0,0,1,104.567,118.485Z" transform="translate(0 -28)" fill="#ab6251"/><path d="M87.288,119.358a5.007,5.007,0,0,1,.868-2.092c1.174-1.652,3.084-1.86,4.955-1.483.867.175,1.056-1.186.192-1.36-2.214-.447-4.51-.1-6.013,1.714a6.387,6.387,0,0,0-1.363,3.03.688.688,0,0,0,1.361.191Z" transform="translate(0 -28)" fill="#005173"/><path d="M99.034,113.654a4.08,4.08,0,0,1,1.727-.669c1.64-.24,2.842.772,3.676,2.091.387.611,1.3-.046.913-.656a4.86,4.86,0,0,0-4.411-2.585,5.217,5.217,0,0,0-2.561.906.562.562,0,0,0,.656.913Z" transform="translate(0 -28)" fill="#005173"/></g><path d="M257.023,354.047,212.157,243.2a9.84,9.84,0,0,0-9.121-6.149H13.938a6.879,6.879,0,0,0-6.329,9.572l51.639,121.35H332.233l-2.589-9.786Z" transform="translate(0 -28)" fill="#4d5ba3"/></g></g></g></svg>