<?xml version="1.0"?>
<svg xmlns="http://www.w3.org/2000/svg" height="512px" viewBox="0 0 512 512" width="512px"><g><path d="m472 332v-212c0-22.054688-17.945312-40-40-40h-26v20c0 11.046875-8.953125 20-20 20s-20-8.953125-20-20v-20h-91v20c0 11.046875-8.953125 20-20 20s-20-8.953125-20-20v-20h-90v20c0 11.046875-8.953125 20-20 20s-20-8.953125-20-20v-20h-25c-22.054688 0-40 17.945312-40 40v312c0 22.054688 17.945312 40 40 40h352c22.054688 0 40-17.945312 40-40 0-11.046875 8.953125-20 20-20s20 8.953125 20 20c0 44.113281-35.886719 80-80 80h-352c-44.113281 0-80-35.886719-80-80v-312c0-44.113281 35.886719-80 80-80h25v-20c0-11.046875 8.953125-20 20-20s20 8.953125 20 20v20h90v-20c0-11.046875 8.953125-20 20-20s20 8.953125 20 20v20h91v-20c0-11.046875 8.953125-20 20-20s20 8.953125 20 20v20h26c44.113281 0 80 35.886719 80 80v212c0 11.046875-8.953125 20-20 20s-20-8.953125-20-20zm-255 66c-.015625 3.144531 2.714844 5.015625 6.210938 5 2.453124-.011719 5.050781-.996094 6.761718-2.699219l94.410156-108.011719c8.195313-9.476562 1.578126-24.289062-11-24.289062h-46.316406l36.59375-59h-70.984375l-46.085937 82.167969c-7.527344 13.421875 2.246094 29.832031 17.722656 29.832031h40.175781l-26.875 74.492188c-.417969.914062-.609375 1.75-.613281 2.507812zm0 0" data-original="#000000" class="active-path" data-old_color="#0072ff" fill="#0072ff"/></g> </svg>
