<?xml version="1.0"?>
<svg xmlns="http://www.w3.org/2000/svg" height="512px" viewBox="0 0 511.9998 511" width="512px" class=""><g><path d="m505.609375 38.902344c-12.132813-24.046875-39.667969-38.402344-73.660156-38.402344-48.628907 0-94.066407 19.15625-142.171875 39.441406-51.898438 21.878906-105.5625 44.503906-167.527344 44.503906-11.039062 0-19.988281 8.949219-19.988281 19.988282 0 11.039062 8.949219 19.988281 19.988281 19.988281 70.046875 0 130.085938-25.316406 183.058594-47.648437 44.277344-18.667969 86.09375-36.300782 126.640625-36.300782 18.308593 0 32.855469 6.296875 37.96875 16.433594 4.960937 9.835938 1.140625 24.167969-10.757813 40.371094l-20.363281 25.609375c-21.898437-9.425781-48.308594-5.226563-66.167969 12.632812l-20.320312 20.324219c-21.375-8.65625-44.722656-13.433594-69.164063-13.433594-101.945312 0-184.882812 82.9375-184.882812 184.882813 0 101.941406 82.9375 184.878906 184.882812 184.878906 28.371094 0 55.597657-6.261719 80.929688-18.609375 9.921875-4.839844 14.046875-16.804688 9.207031-26.726562-4.835938-9.921876-16.800781-14.042969-26.722656-9.207032-13.824219 6.738282-28.382813 11.15625-43.46875 13.21875v-8.648437c0-11.039063-8.949219-19.988281-19.988282-19.988281-11.039062 0-19.988281 8.949218-19.988281 19.988281v8.609375c-64.222656-8.921875-115.117187-60.085938-123.617187-124.441406h9.734375c11.039062 0 19.988281-8.949219 19.988281-19.988282 0-11.039062-8.949219-19.984375-19.988281-19.984375h-9.480469c9.167969-63.203125 59.28125-113.320312 122.484375-122.496093v7.476562c0 11.039062 8.949219 19.988281 19.988281 19.988281 11.039063 0 19.984375-8.949219 19.984375-19.988281v-7.738281c63.710938 8.410156 114.503907 58.363281 124.179688 121.667969h-10.324219c-11.039062 0-19.988281 8.949218-19.988281 19.988281 0 11.039062 8.949219 19.984375 19.988281 19.984375h10.871094c-2.230469 17.859375-7.757813 35.214844-16.308594 50.980468-5.261719 9.703126-1.660156 21.835938 8.042969 27.097657 9.699219 5.261719 21.835937 1.664062 27.097656-8.039063 14.566406-26.859375 22.261719-57.296875 22.261719-88.027344 0-33.734374-9.085938-65.382812-24.933594-92.636718l14.332031-14.335938c18.957031-18.957031 22.542969-47.550781 10.753907-70.15625l22.496093-28.292968c.148438-.183594.289063-.371094.429688-.558594 28.996093-39.238282 21.53125-68.472656 14.503906-82.40625zm-116.679687 136.851562 11.964843-11.964844c7.792969-7.792968 20.472657-7.792968 28.265625 0 7.792969 7.792969 7.792969 20.472657 0 28.265626l-10.074218 10.074218c-9.058594-9.835937-19.171876-18.683594-30.15625-26.375zm-325.644532-51.332031h-43.296875c-11.039062 0-19.988281-8.949219-19.988281-19.988281 0-11.039063 8.949219-19.988282 19.988281-19.988282h43.296875c11.039063 0 19.988282 8.949219 19.988282 19.988282 0 11.039062-8.949219 19.988281-19.988282 19.988281zm27.378906-86.160156c7.84375 7.765625 7.910157 20.421875.144532 28.265625-3.910156 3.949218-9.058594 5.925781-14.207032 5.925781-5.082031 0-10.164062-1.925781-14.058593-5.78125l-32.308594-31.980469c-7.84375-7.765625-7.90625-20.421875-.140625-28.265625 7.765625-7.84375 20.421875-7.910156 28.265625-.144531zm-1.078124 105.855469c7.886718 7.722656 8.023437 20.375.300781 28.265624l-31.308594 31.976563c-3.914063 4-9.097656 6.007813-14.28125 6.007813-5.042969 0-10.09375-1.898438-13.980469-5.707032-7.886718-7.71875-8.023437-20.375-.300781-28.261718l31.304687-31.980469c7.722657-7.886719 20.375-8.023438 28.265626-.300781zm212.621093 114.21875v48.058593h24.910157c11.039062 0 19.988281 8.949219 19.988281 19.988281 0 11.039063-8.949219 19.984376-19.988281 19.984376h-44.894532c-11.039062 0-19.988281-8.945313-19.988281-19.984376v-68.046874c0-11.039063 8.949219-19.988282 19.988281-19.988282 11.039063 0 19.984375 8.949219 19.984375 19.988282zm0 0" data-original="#000000" class="active-path" data-old_color="#0072ff" fill="#0072ff"/></g> </svg>
