<svg id="Layer_2" data-name="Layer 2" xmlns="http://www.w3.org/2000/svg" viewBox="0 0 288.2 298.8"><defs><style>.cls-1{fill:#f7dcd3;}.cls-2{fill:#0072ff;}.cls-3{fill:#ecc9bf;}.cls-4{fill:#10173f;}.cls-5{fill:#01a9ff;}.cls-6{fill:#1aa9e2;}.cls-7{fill:#f7dcd2;}.cls-8{fill:#f9dcd4;}.cls-9{fill:#eec9c0;}.cls-10{fill:#f8ddd4;}.cls-11{fill:#000f9f;}.cls-12{fill:#2b2597;}.cls-13{fill:#cddbfe;}.cls-14{fill:#dce8fe;}.cls-15{fill:#95cae7;}.cls-16{fill:#f8dcd3;}.cls-17{fill:#f8dbd2;}.cls-18{fill:#fadcd1;}.cls-19{fill:#cce6ff;}.cls-20{fill:#badcf7;}.cls-21{fill:#8faafc;}.cls-22{fill:#adc4fc;}.cls-23{fill:#253ab7;}.cls-24{fill:#fadbcf;}.cls-25{fill:#2e3c7e;}.cls-26{fill:#2d259b;}.cls-27{fill:#366e9a;}.cls-28{fill:#fadbd5;}.cls-29{fill:#283479;}.cls-30,.cls-31{fill:none;stroke:#0072ff;stroke-miterlimit:10;}.cls-31{stroke-dasharray:3.02 3.02;}.cls-32{fill:#8ea9fb;}.cls-33{fill:#4545da;}</style></defs><title>coming-soon-img</title><path class="cls-1" d="M235.3,620.9v9.3h7.9s-1.4-8.9-1.1-11.3S235.3,620.9,235.3,620.9Z" transform="translate(-221.2 -358.1)"/><path class="cls-1" d="M267.9,621.6v9.3h7.8s-1.3-8.9-1.1-11.3S267.9,621.6,267.9,621.6Z" transform="translate(-221.2 -358.1)"/><path class="cls-2" d="M233.5,529.8h33.8s3.5,39.3,3.2,44.1c0,0,3,45.9,4.9,48.2h-8.1s-.7-15.9-8-27.7a12.7,12.7,0,0,1-1.3-3.2c-.8-3.5-2.4-10.6-2.4-15a23.2,23.2,0,0,0-.4-4.6c-1-5.4-3.5-14.8-6.4-3l-6,53.5h-8.1s-4.4-25.7-1.2-36.4c0,0,3.8-14.2-.7-26.8a23.3,23.3,0,0,1-.8-3.8C231.4,549.6,230.4,535.8,233.5,529.8Z" transform="translate(-221.2 -358.1)"/><path class="cls-3" d="M222.8,490.5s-2.1,15.6-.7,20.4,11-8.6,11-8.6.1-9.2,3.6-14S222.8,490.5,222.8,490.5Z" transform="translate(-221.2 -358.1)"/><polygon class="cls-4" points="68.2 113.8 63.7 127.7 71 127.7 76.6 113.8 68.2 113.8"/><path class="cls-3" d="M273.9,492s1.2,4.9.9,6.8-7.3,10.7-7.3,10.7-10.3-17.6-2.1-20.7S273.9,492,273.9,492Z" transform="translate(-221.2 -358.1)"/><path class="cls-5" d="M240.6,466.2l-4,2.4-2.4,25.2s-2.4,2.9-1.3,8.3,1.4,23.7-.3,29.1h35.3s-8.3-24.4-1.5-37.7l-6.2-24.1s-3.9-5.5-17.4-4A5.8,5.8,0,0,0,240.6,466.2Z" transform="translate(-221.2 -358.1)"/><path class="cls-6" d="M221.2,492.2l14.3,1.5s7.3-10.6,7.3-14.4v-3.8a10.2,10.2,0,0,0-6.2-6.9A48.3,48.3,0,0,0,221.2,492.2Z" transform="translate(-221.2 -358.1)"/><path class="cls-6" d="M266.4,493.5l8.4-.7s-6-19.4-14.6-23.4C260.2,469.4,262.9,488.5,266.4,493.5Z" transform="translate(-221.2 -358.1)"/><path class="cls-7" d="M221.6,509.2s6.8-8.8,12.8-9.8c0,0,7.9-2.1,9.3-8.6,0,0-.6-9.6,6.1-13.8,0,0,4.1-3.1.7,6.5a14.4,14.4,0,0,0-.1,5.1,3.6,3.6,0,0,1-.4,2.5c-3.1,5.3-14.8,24.5-23.4,28.1C226.6,519.2,221.2,520.5,221.6,509.2Z" transform="translate(-221.2 -358.1)"/><path class="cls-8" d="M267.5,509.6s.5-9.1,8.2-11.7c0,0,7.1-7.2,8-9.5,0,0-1-8.3,3.3-9.7,0,0,6.4-1.8,0,3.3,0,0-2.7,5.5,4.7,2.2,0,0,6.5-6.4,2.7.5s-5.2,5.8-5.2,5.8-10.4,20.1-17.1,21.9C272.1,512.4,268.2,513.8,267.5,509.6Z" transform="translate(-221.2 -358.1)"/><path class="cls-9" d="M242.8,465.6a15.6,15.6,0,0,0,12.7,4.1L254.3,459l-7-3.5S246.9,464.9,242.8,465.6Z" transform="translate(-221.2 -358.1)"/><path class="cls-10" d="M260.6,446.1s4.4,8,0,13.4c0,0-9.1,7.8-12.4-2.8a3.9,3.9,0,0,0-2.4-2.2s-2.7-2.4.6-3.8C246.4,450.7,253.1,440.2,260.6,446.1Z" transform="translate(-221.2 -358.1)"/><path class="cls-11" d="M246,451.2a3.2,3.2,0,0,1,4.2,3.3s.8.9,2.1-2.3c0,0,.4-.6-.1-2a4.8,4.8,0,0,1-.1-2.4c.4-1.6,2-3.5,7.7-.9,0,0,1.6.6,2.4,3.7,0,0,1.2,1.9,1.9.1,0,0,.9-5.5-.6-8.5,0-.2-.1-.3-.2-.5s-5.5-6.5-14.6-2.1a19.2,19.2,0,0,0-5.4,3.4s-2.3,3,1.8,3.5C245.1,446.5,243.8,450.8,246,451.2Z" transform="translate(-221.2 -358.1)"/><path class="cls-12" d="M235.7,628.2c1.1.5,3.8,1.4,5.9-.2a1.1,1.1,0,0,1,1.5.1,7.6,7.6,0,0,0,5.6,2.9,3.8,3.8,0,0,1,1,.3c1.5.8,5.9,3.6-.9,4.1H234.9s-.7-4.4,0-6.9A.6.6,0,0,1,235.7,628.2Z" transform="translate(-221.2 -358.1)"/><path class="cls-12" d="M268.5,629.5c1.1.5,3.8,1.5,5.9-.2a1.2,1.2,0,0,1,1.5.2,8.6,8.6,0,0,0,5.6,2.9,1.7,1.7,0,0,1,1,.3c1.5.8,6,3.5-.9,4.1H267.7s-.7-4.5.1-6.9A.6.6,0,0,1,268.5,629.5Z" transform="translate(-221.2 -358.1)"/><path class="cls-13" d="M382.4,568.4s-35.9,7.9-25.7,47.9l37.2,23.1,29.9-4,26.2-6.8S425.6,559.3,382.4,568.4Z" transform="translate(-221.2 -358.1)"/><path class="cls-14" d="M386,577.6c-10.2,5.9-29.7,22-2.7,48.2l21,9.6,27-2,6.1-6.3s-4-45.9-40.3-51.6A17.9,17.9,0,0,0,386,577.6Z" transform="translate(-221.2 -358.1)"/><path class="cls-11" d="M319.5,526.2l28.9,1s10,14,4.8,36.7a18,18,0,0,0-.4,5.2c.6,6.4,2.3,21.8,6.3,29.2a46.5,46.5,0,0,1,5,19.5L353,618.9s-12.1-45.5-15.9-53.3c0,0-6.5-5.3-3.9,9.5,0,0,8.7,24.2,5.9,35.5l-8.7-1.6S311,564.2,319.5,526.2Z" transform="translate(-221.2 -358.1)"/><polygon class="cls-15" points="82.7 126.6 86.8 141.4 94.1 141.4 90.1 126.6 82.7 126.6"/><path class="cls-16" d="M347.7,498.5s.6,9.4,2.4,14.2a24.4,24.4,0,0,1,.7,8.4,30.1,30.1,0,0,0,1.4,11.6,12.5,12.5,0,0,1,.7,4.7c0,3-.4,8-2.6,11.8,0,0-1.5,2.1,1.2,3.3,0,0,2.3,1.3-.7,4.2,0,0-.3,3.3,3.8.9,0,0,4.6-2.1,1.8-10.5,0,0-1.3-3,.7-9.3a3,3,0,0,0,.2-1c.3-4.4,1.9-36.4-1.5-40.2Z" transform="translate(-221.2 -358.1)"/><path class="cls-17" d="M330.4,460s-2.7,10,2.7,12.3c0,0,5.3,2.2,0,7.9,0,0,2.8,7,10.3,1.4l4.2-14.8-4.3-7.4-8.2-3.5Z" transform="translate(-221.2 -358.1)"/><path class="cls-18" d="M321.3,493.5s-6.6,14.3-8.2,20c0,0-2.1,2.8-2.2-4.9a53.1,53.1,0,0,0-1.9-7.8,12.8,12.8,0,0,1,1.6-6.5,2.5,2.5,0,0,0,.2-1.7c-.3-.8-.8-1.6-1.8-.3s-2.1,3.7-2.1-.8c0,0-.7-4.1-1.9.7a3.6,3.6,0,0,1-.4,1.1c-.3.8-.7,2.7.1,7.3a11.5,11.5,0,0,1,.1,1.9c-.2,3.6-.4,16.8,6.3,21.7a2.1,2.1,0,0,0,2.8-.3c2.9-3.6,10.8-14.1,12.1-23.8Z" transform="translate(-221.2 -358.1)"/><path class="cls-19" d="M334,480.2a.8.8,0,0,0-1-.3c-2.4,1.6-11.5,7.5-12.9,12.4,0,0-1.4,3.3,2.8,6a2.6,2.6,0,0,1,1,1.3,29.8,29.8,0,0,1-4.4,26.6l28.9,1s-9.9-13.9-1.4-25.1a2.3,2.3,0,0,0,.6-1.6l.4-21.9S338.2,486.6,334,480.2Z" transform="translate(-221.2 -358.1)"/><path class="cls-20" d="M347.5,500.1s-4.2-14.2-3.3-18.5,8.4,4.7,8.4,4.7,4.4,6.7,5,12.9Z" transform="translate(-221.2 -358.1)"/><path class="cls-2" d="M333,450.9c-1.7,1.4-7.4,7-2.9,9a1.7,1.7,0,0,0,1.4.1c2-.6,8.2-2.1,7.6,4.2a2.1,2.1,0,0,0,1.6,2,6.1,6.1,0,0,0,3-.4,1.2,1.2,0,0,1,1.4.4c.6.8,1.1,2.1-1.1,3.3a3.5,3.5,0,0,0-2.3,5s2.6,7.4,2.1,12.3a2.2,2.2,0,0,0,.2,1.4c.6,1.2,2.3,3.1,6.3,1.5,0,0,8.9-4.2,4.1-7.6,0,0-10.5-8.9-5.1-13.9,0,0,6.2-8.2-2.1-11a4.1,4.1,0,0,0-1.9-.2,6.6,6.6,0,0,1-2.4-.1,3.4,3.4,0,0,1-2.5-3c-.2-1.8-1.2-5.5-6.5-3.6A1.8,1.8,0,0,0,333,450.9Z" transform="translate(-221.2 -358.1)"/><path class="cls-21" d="M294.5,617.2s26-38.4,75.9,4.3c0,0,4.7,5.6,29.7,5.7,0,0,21.9,2.4-6.9,26.3a14.4,14.4,0,0,1-9.3,3.4H308a14.2,14.2,0,0,1-10.8-5C291.2,644.6,282.9,630.5,294.5,617.2Z" transform="translate(-221.2 -358.1)"/><path class="cls-22" d="M304.2,621.5s25.1-26.9,53.1,0a36.3,36.3,0,0,0,19.5,8.8s2.2,10-20,9.1H312.5S300.8,632.6,304.2,621.5Z" transform="translate(-221.2 -358.1)"/><path class="cls-11" d="M397.3,625.3c-5.8,3.6-15.6,12.5-3.4,26.9a13.4,13.4,0,0,0,10.3,4.7h84.3a14,14,0,0,0,8.9-3.3c8.7-7.6,25.1-27.3-7.3-49.6,0,0-19.4-14.3-41.4-1.1a13.3,13.3,0,0,0-4.7,5c-2.6,4.4-11.3,13.4-40.5,15.4A15.1,15.1,0,0,0,397.3,625.3Z" transform="translate(-221.2 -358.1)"/><path class="cls-23" d="M477.4,609.3c7.7,4.2,26.3,17.2,5.7,35.9a7.5,7.5,0,0,1-4.7,1.9l-66.7,1.3a5,5,0,0,1-4.1-1.9c-4-5.1-12.6-18.2,2.6-19h.7c4.3-.8,48.7-9.6,61.4-17.8A4.9,4.9,0,0,1,477.4,609.3Z" transform="translate(-221.2 -358.1)"/><polygon class="cls-24" points="138.4 275 136.4 280.1 140.6 286.1 144.6 276.8 138.4 275"/><polygon class="cls-24" points="141.8 285.3 139.8 290.5 144 296.5 148 287.1 141.8 285.3"/><path class="cls-25" d="M361.8,645.7l6.3,2.8s13.8-24.5,17.3-26.9c0,0,7-2.8,25.2,5.9L401,603.9l-23.1-1.7Z" transform="translate(-221.2 -358.1)"/><path class="cls-26" d="M345.5,633s2.1,3.1,7.6,2.7,5.1.9,5.1.9.4,5.5,4.2,6.1c0,0-.1,4.4-3.6,2,0,0-3.1-3.1-9.4-4.1,0,0-4.7-2.1-6.2-5.8C343.2,634.8,341.6,630.7,345.5,633Z" transform="translate(-221.2 -358.1)"/><path class="cls-26" d="M348.7,652.9a20.2,20.2,0,0,0,3.1.3,6.4,6.4,0,0,0,4.7-2.1c1.4-1.6,3.6-3.5,5.4-2.2s3.9,2.1,4.5,2a1.1,1.1,0,0,1,.9.5c.6,1.3,1.8,4.2-.4,4.9H346.2a.8.8,0,0,1-.9-.6,2.1,2.1,0,0,1,1.3-2.6A3.8,3.8,0,0,1,348.7,652.9Z" transform="translate(-221.2 -358.1)"/><path class="cls-1" d="M453.4,622.9s13.2-.7,23.2-7.6a13.2,13.2,0,0,0,3.6-14.5Z" transform="translate(-221.2 -358.1)"/><path class="cls-2" d="M431.8,606.9s20.6-11.2,25.3-20.5a7.5,7.5,0,0,1,1.5-2c3.7-3.1,15.4-11.5,21,5.8,0,0,3.8,9.8-.4,17.3a7.8,7.8,0,0,1-2.9,2.8c-5,2.8-21.4,12-28.2,16.7a38.8,38.8,0,0,0-3.3,2.3c-1.5,1.4-6.4,4.5-9.5-2.7C435.3,626.6,429.4,617,431.8,606.9Z" transform="translate(-221.2 -358.1)"/><path class="cls-27" d="M417.2,550.8h8.4l4.8,13.8-7.9.3Z" transform="translate(-221.2 -358.1)"/><path class="cls-1" d="M417.8,556.8s-2.1,7.3,1.8,11.4,4.8,4.6,5.2,8.9c0,0,3.9,21.4,22,23.6,0,0,18.7,1.3,10.9-7.5l-.6-.7c-.6-1-3.2-4.2-9.6-4.8h-.6a15.4,15.4,0,0,1-15.3-8.3,45.6,45.6,0,0,1-5.2-14.3,48.4,48.4,0,0,1-.8-5.6s-.7-3.5-1.6-.1c0,0,.6,7.2-1.8,3.3C422.2,562.7,420.2,555.1,417.8,556.8Z" transform="translate(-221.2 -358.1)"/><path class="cls-28" d="M465.3,555.7s-10.2,9.7-4.6,17.8c0,0,5.9-2.4,4.6,9s8.3,0,8.3,0-.8-8.4-2-9.9,3.7.9,3.7.9l2.2-8.6-5.9-9.9Z" transform="translate(-221.2 -358.1)"/><path class="cls-11" d="M470.7,550.2s-8.6,1.1-4.1,8.6c.1.3.4.5.6.7s4.9,3.5,1.4,6.3c0,0-1.7,1.7,1.2,1.1,0,0,3.5-1.9,4.5.1,0,0,1.8,3.7-2.6,4,0,0-4.2,2.8,1.3,4.3,0,0,7.2,1.2,8.1-7.4.1-.2.1-.4.2-.6s1.3-5.1-4.4-8.2a2.4,2.4,0,0,1-.9-.8c-.7-1-1.9-3.1-1.3-4.9a2.8,2.8,0,0,0-.2-1.8C474,550.7,473,549.7,470.7,550.2Z" transform="translate(-221.2 -358.1)"/><path class="cls-29" d="M357.9,632.9s4.8,6.7,10.6,5.1c0,0,5.6-28.8,15.9-31.1,0,0,10.5,0,25,20.3a28.1,28.1,0,0,0,29.7,3.8s-10.1-11.5-7.3-24.1c0,0-9.4,5.1-33.3-8.6,0,0-15.5-6.8-23.2-2.4C375.3,595.9,359.3,613.9,357.9,632.9Z" transform="translate(-221.2 -358.1)"/><path class="cls-30" d="M433.7,555l.9-1.2" transform="translate(-221.2 -358.1)"/><path class="cls-31" d="M436.2,551.3c8-12.8,30.8-55.6,3.4-88.8a5.8,5.8,0,0,0-5.8-2c-5.3,1.3-14.4,5.3-10,18.4,6.1,17.8,36.3-6.7,41.3-18.5a1.6,1.6,0,0,1,.4-.7c2.7-4.6,32.6-58.4-53.6-86.1h-.3c-2.9-1.1-57-20.9-98.8,13.9l-.2.2c-2.4,1.8-39.9,30.1-9.9,86" transform="translate(-221.2 -358.1)"/><path class="cls-30" d="M303.5,474.9c.2.5.5.9.7,1.3" transform="translate(-221.2 -358.1)"/><polygon class="cls-32" points="170.3 26.6 191.3 0 149.1 8.8 170.3 26.6"/><polygon class="cls-33" points="183.7 8.8 189.2 19.6 149.1 8.8 183.7 8.8"/></svg>