<svg xmlns="http://www.w3.org/2000/svg" xmlns:xlink="http://www.w3.org/1999/xlink" width="186.71" height="214.69" viewBox="0 0 186.71 214.69">
  <defs>
    <clipPath id="ec471a8d-3ace-4628-ae39-605b06da63d3" transform="translate(0 -1.9)">
      <rect x="32.87" width="146.23" height="176.62" rx="6.3" ry="6.3" fill="none"/>
    </clipPath>
  </defs>
  <title>intercAsset 31</title>
  <g id="3e324bb5-c05c-4760-9859-90ced5a47624" data-name="Layer 2">
    <g id="33f24f64-3c4f-42b1-94f5-5d08085dbceb" data-name="Layer 1">
      <rect x="32.87" width="146.23" height="174.5" rx="6.3" ry="6.3" fill="#efefef"/>
      <g clip-path="url(#ec471a8d-3ace-4628-ae39-605b06da63d3)">
        <g>
          <g>
            <polygon points="96.37 99.08 96.02 114.25 114.62 114.3 115.29 96.31 96.37 99.08" fill="#ffc1ac"/>
            <path d="M96.22,107.11l.23-9.77,18.92-2.77-.59,15.7A131.11,131.11,0,0,0,96.22,107.11Z" transform="translate(0 -1.9)" fill="#f9a493"/>
            <path d="M123.26,59.86s3.88-9.58,13.77-9.22,21.7,10.75,12.53,24.68-4.73,20.59,4.61,22.1c0,0-27,11.38-28-10.84-.9-19.9,11.51-20.87,10-24.94-2.47-6.72-13-.2-13-.2" transform="translate(0 -1.9)" fill="#8c5454"/>
            <path d="M94.25,45.31S85,41.88,77.71,51.55,67.43,91.68,77.46,102C77.46,102,86.49,52.56,94.25,45.31Z" transform="translate(0 -1.9)" fill="#8c5454"/>
            <path d="M101.66,50S79,52.56,77,74.51c-1.77,19.87,7.54,33.06,20.7,30.86C117.17,102.1,119.47,92.7,121,83.15c0,0,7.5.2,7.44-7.92s-6-7.26-8.33-4.9C120.06,70.33,124.47,46.46,101.66,50Z" transform="translate(0 -1.9)" fill="#ffc1ac"/>
            <path d="M93,44.54S80.37,59.42,95.06,65.66l-.92-6s4.63,11.09,22.58,10.42c0,0-1,16.12.67,15.56S118.64,69.34,122.6,69s5.79,2.54,5.79,6.27-3.67,6.84-7.44,7.92a32.59,32.59,0,0,1-2,8.38s20.34-10.72,12.3-32.65C121.75,33.07,97.6,40.12,93,44.54Z" transform="translate(0 -1.9)" fill="#996464"/>
          </g>
          <g>
            <path d="M85,125.75s22.57,7.05,37.74,2.82l4.94,53.62s-26.11,6.7-51.85-6.35Z" transform="translate(0 -1.9)" fill="#fff"/>
            <g>
              <path d="M85.31,110.93s20.46-4.93,40.56,0-.7,17.64-.7,17.64S80,143.39,85.31,110.93Z" transform="translate(0 -1.9)" fill="#ffc1ac"/>
              <g>
                <path d="M85,125.75s22.57,7.05,37.74,2.82l4.94,53.62s-26.11,6.7-51.85-6.35Z" transform="translate(0 -1.9)" fill="#fff"/>
                <path d="M85,125.75s22.57,7.05,37.74,2.82l4.94,53.62s-26.11,6.7-51.85-6.35Z" transform="translate(0 -1.9)" fill="#000309" opacity="0.05"/>
                <path d="M80,153.05l-4.17,22.79c25.74,13,51.85,6.35,51.85,6.35l-1.12-12.1C110.16,166.49,94.35,161.22,80,153.05Z" transform="translate(0 -1.9)" fill="#000309" opacity="0.1"/>
              </g>
              <g>
                <path d="M94.13,107.76s-22-1.76-31,2.45c-15,7-20.27,11.35-27.78,15.13-2.16,1.1-22.79-29.73-22.79-29.73L0,96.28s19.16,53.51,25.43,55.49,36.85-10.92,36.85-10.92-2.72,41.69-2,47,19.4,16.58,19.4,16.58S98.36,124.34,94.13,107.76Z" transform="translate(0 -1.9)" fill="#773c65"/>
                <path d="M42.59,121.44c-2.6,1.46-5,2.76-7.25,3.9S12.55,95.61,12.55,95.61L0,96.28s19.16,53.51,25.43,55.49c3.44,1.08,14.37-2.48,23.58-5.92A235.48,235.48,0,0,1,42.59,121.44Z" transform="translate(0 -1.9)" fill="#000e23" opacity="0.2"/>
                <path d="M115.64,108.47s-9.87,49.38,4.59,99.82c0,0,15.52-3.18,24.34-12.7,0,0-5.65-41.62-7.41-51.15,0,0,26.45,17.29,27.86,21.52s-23.88,30.61-22.82,33.79,6.49,12.52,9.66,10.4,37.5-37.14,34.68-46.66-43.74-47.62-43.74-47.62S127.64,109.52,115.64,108.47Z" transform="translate(0 -1.9)" fill="#773c65"/>
              </g>
            </g>
            <path d="M142.2,199.75s-.74-2.48-4.46-.25-12.14,7.18,1.49,2.73c0,0-18.83,12.63,1.49,3,0,0-14.37,14.86,2.23,3.22,0,0-13.38,16.6,1.73,2.48,0,0,.74,2.47,2.72,2.47s3.23-3.22,3.23-3.22S144.18,205.2,142.2,199.75Z" transform="translate(0 -1.9)" fill="#ffc1ac"/>
          </g>
        </g>
      </g>
      <path d="M82.25,68.37s5.7-3.8,9.5,0" transform="translate(0 -1.9)" fill="none" stroke="#996464" stroke-linecap="round" stroke-miterlimit="10" stroke-width="0.5"/>
      <path d="M99.37,70.33s6.71-1.39,8.81,3.55" transform="translate(0 -1.9)" fill="none" stroke="#996464" stroke-linecap="round" stroke-miterlimit="10" stroke-width="0.5"/>
    </g>
  </g>
</svg>
