<svg xmlns="http://www.w3.org/2000/svg" xmlns:xlink="http://www.w3.org/1999/xlink" width="146.23" height="227.9" viewBox="0 0 146.23 227.9">
  <defs>
    <clipPath id="d198aedf-34dc-4c2a-ab83-002b5c2b7ede">
      <rect width="146.23" height="176.62" rx="6.3" ry="6.3" fill="none"/>
    </clipPath>
  </defs>
  <title>intercAsset 30</title>
  <g id="203f1531-3fe9-402a-95ed-21139c910076" data-name="Layer 2">
    <g id="c822ef74-c13b-4128-ab7d-fca4f3283535" data-name="Layer 1">
      <rect width="146.23" height="176.62" rx="6.3" ry="6.3" fill="#f4f4f4"/>
      <g>
        <path d="M58.23,83.71l.33,24.22-5.18,1.14s12.36,9.43,36.75.17l-8-.71,2.26-27.65Z" fill="#ffd7cc"/>
        <path d="M77.16,106.18a43,43,0,0,0,5.11,1.07l2.15-26.37L58.23,83.71l.2,14.4C64.69,100.79,70.59,104.4,77.16,106.18Z" fill="#000e23" opacity="0.1"/>
        <path d="M49.22,60c2.36-2.35,5.12-1,7.11.73a167,167,0,0,1,1.05-18.46l39.36-.7s9.21,45-2.13,54.25S58.8,99,57,78.75c-.12-1.36-.22-2.7-.3-4C50.59,76.43,45.12,64.06,49.22,60Z" fill="#ffd7cc"/>
        <path d="M55.57,59s1.13,15.26.94,24.49,10,21.86,28.82,20.35c21.1-1.7,15.39-20.71,15-29,0,0-.5,9.78-3.52,10s-2.45-4.71-7.34-4.52-17.9-2.45-19.41,5.09-8.48,5.08-8.29-7-.56-25-.56-25,7.91-1.13,8.29-11.49c0,0,11.49,3.77,22.41,2.82L88.53,43s9.83,1.67,13.41-3.23.94-9,.94-9a19.06,19.06,0,0,1-4.36,4s4.14-4.14.37-11.49c0,0-1.69,5.84-5.65,5.84s-23-18.28-33.53,0c0,0-5.09-2.64-9.23,3.77s.56,26,.56,26,4.53-.37,5.84,2.83" fill="#f07760"/>
      </g>
      <g clip-path="url(#d198aedf-34dc-4c2a-ab83-002b5c2b7ede)">
        <g>
          <g>
            <path d="M90.13,109.24s15.87,1.43,20.36,7.18c3.76,4.81,5,72.28,3.42,102.77,0,0-38.34,18.53-80.41,1.52l-.47-67s-7.76-28.48-1.1-36.85c5.3-6.65,21-8,21-8Z" fill="#2e6da7"/>
            <path d="M114.27,194.38c.09,9.34,0,18-.36,24.81,0,0-38.34,18.53-80.41,1.52l0-62.75C59.09,172.21,86.32,184.14,114.27,194.38Z" fill="#000309" opacity="0.2"/>
          </g>
          <g>
            <path d="M112.22,137.94l-.11,13.23L74,173.28s1.13.68,8.91,1.48c4,.41,38.08-5.09,38.08-5.09s5.81-9.92,2.14-31.37Z" fill="#ffc1ac"/>
            <path d="M34.61,150.48l21.72-10.84,8.81,19.58,38.12-10.47s9-2.45,13,2.11c0,0-51.13,31.92-54.81,32.68S40.5,164.16,34.61,150.48Z" fill="#ffd7cc"/>
            <path d="M108.62,140.71l16.63-1.61s-2.42-23.06-23.6-27.62C89.44,108.85,108.62,140.71,108.62,140.71Z" fill="#2e6da7"/>
          </g>
        </g>
      </g>
      <path d="M67.42,57.92s5.7-5.69,11.39-1.89" fill="none" stroke="#f07760" stroke-linecap="round" stroke-miterlimit="10" stroke-width="0.5"/>
      <path d="M84.3,56.07s6-2.9,8.5,1.92" fill="none" stroke="#f07760" stroke-linecap="round" stroke-miterlimit="10" stroke-width="0.5"/>
      <path d="M71.22,84.51s9.49,7.6,19,0" fill="none" stroke="#fff" stroke-linecap="round" stroke-miterlimit="10" stroke-width="0.5"/>
    </g>
  </g>
</svg>
