<svg xmlns="http://www.w3.org/2000/svg" xmlns:xlink="http://www.w3.org/1999/xlink" width="146.23" height="244.99" viewBox="0 0 146.23 244.99">
  <defs>
    <clipPath id="0f18bb4e-1ea0-4fe7-9f53-98c96cb07d17">
      <rect width="146.23" height="176.62" rx="6.3" ry="6.3" fill="none"/>
    </clipPath>
  </defs>
  <title>intercAsset 32</title>
  <g id="170df347-fad5-44cb-8474-b9bddfac795b" data-name="Layer 2">
    <g id="184c7e8f-25fc-4477-8129-1ff1a3f6685d" data-name="Layer 1">
      <rect width="146.23" height="176.62" rx="6.3" ry="6.3" fill="#e8e8e8"/>
      <g clip-path="url(#0f18bb4e-1ea0-4fe7-9f53-98c96cb07d17)">
        <g>
          <g>
            <path d="M80.18,39.18a8.62,8.62,0,0,1,10-3.75c6.72,2,21.6,10,20.7,28s-7.46,45.37,3.62,61.29c0,0-25.69.16-34.07-12.91S80.18,39.18,80.18,39.18Z" fill="#000e23"/>
            <polygon points="84.14 97.14 82.74 110.68 98.52 113.59 76.45 131.15 48.8 111.6 64.24 109.77 65.05 94.93 84.14 97.14" fill="#fba97d"/>
            <path d="M83,108.63l1.19-11.49L65.05,94.93l-.48,8.74C70.62,105.56,76.81,107.06,83,108.63Z" fill="#000309" opacity="0.1"/>
            <path d="M69,41.38s16.45-3.59,28.37,9.48S101.21,98,84.76,101.71,52.25,95.13,51.44,70.12,69,41.38,69,41.38Z" fill="#ffb785"/>
            <path d="M82.13,41.38S79.19,64.44,53.48,64.79c0,0-6.94,20.86,11.72,34.24l-1,11-14.52,1.09-13.12,9.1s-9-23.15,8.49-66C55.51,28.63,81.76,26.82,82.13,41.38Z" fill="#000e23"/>
            <path d="M81.21,39.87s-6,25.46,22.55,31.06c0,0,3.55-8.2,1.51-16.27S81.21,39.87,81.21,39.87Z" fill="#000e23"/>
            <path d="M106.47,74.83a47.36,47.36,0,0,1-3.74,11.09s6.21.53,8.08-4.35S110.55,73.16,106.47,74.83Z" fill="#ffb785"/>
            <path d="M48.66,67.46a47.3,47.3,0,0,0,.83,11.67s-6.14-1-6.72-6.24S45.13,64.82,48.66,67.46Z" fill="#ffb785"/>
          </g>
          <path d="M56.24,110.78s-24.05-3.06-34.32,22.11c0,0,4.82,9,18.44,14,0,0-.55,11.74,7.12,19.78l.05,8.15s24.45,6.07,51.31,2.2S100,168,100,168a47.91,47.91,0,0,0,6.73-18.69s11.36-4.83,17.33-13.3c0,0-4.14-22-31.61-23.83C92.45,112.14,78.31,129.35,56.24,110.78Z" fill="#ff6d75"/>
          <g>
            <g>
              <path d="M62.28,231.42c-1.9-18.49-14.8-64.72-14.8-64.72s-7.53-9.11-6.7-19.87c0,0-6.42-.81-15.62-9.59,0,0-5.37,38,31.09,96A32.51,32.51,0,0,1,62.28,231.42Z" fill="#fba97d"/>
              <path d="M40.34,149.4l.41,0a22.83,22.83,0,0,1,0-2.61s-6.42-.81-15.62-9.59a52.49,52.49,0,0,0-.25,7.5C30,146.51,34.93,148.68,40.34,149.4Z" fill="#000309" opacity="0.1"/>
              <path d="M51.16,225.15s11,25.84,6.56,10.34c0,0,6.3,13.43,2-.7,0,0,6.36,14,2-.56,0,0,6.08,13,.09-7,0,0,12.24,7.26-.63-3.61S51.16,225.15,51.16,225.15Z" fill="#fba97d"/>
            </g>
            <g>
              <path d="M77.26,232.26a35,35,0,0,1,6,2.53C122.74,179.11,119.53,141,119.53,141c-9.68,8.24-16.13,8.7-16.13,8.7.22,10.79-7.81,19.45-7.81,19.45S80.45,213.51,77.26,232.26Z" fill="#fba97d"/>
              <path d="M108.51,150.41c3.39-.57,7.59-1,10.9-2.47a49.06,49.06,0,0,0,.12-7c-9.68,8.24-16.13,8.7-16.13,8.7,0,.48,0,1,0,1.42C105.09,150.91,106.81,150.71,108.51,150.41Z" fill="#000309" opacity="0.1"/>
              <path d="M86.59,229.89s-14.9,23.78-8.1,9.18c0,0-9.74,14-1.86-1,0,0-8.49,12.81-1.86-.86,0,0-8.37,13.25,1-7,0,0-13.23,5.24,1.19-3.47S86.59,229.89,86.59,229.89Z" fill="#fba97d"/>
            </g>
          </g>
        </g>
        <path d="M58.87,72.17s5.7-5.7,11.4-1.9" fill="none" stroke="#000e23" stroke-linecap="round" stroke-miterlimit="10" stroke-width="0.5"/>
        <path d="M81.54,71.38s7.63-2.59,11.06,3.34" fill="none" stroke="#000e23" stroke-linecap="round" stroke-miterlimit="10" stroke-width="0.5"/>
      </g>
    </g>
  </g>
</svg>
