<svg xmlns="http://www.w3.org/2000/svg" xmlns:xlink="http://www.w3.org/1999/xlink" width="682.69" height="802.22" viewBox="0 0 682.69 802.22">
  <defs>
    <linearGradient id="36192acc-4a4d-4d2d-bbd9-c28c949c2712" x1="-30.13" y1="-134.25" x2="15.27" y2="-179.64" gradientTransform="matrix(1, 0, 0.02, -1, 84.01, -78.41)" gradientUnits="userSpaceOnUse">
      <stop offset="0" stop-color="#007cff"/>
      <stop offset="1" stop-color="#002aff"/>
    </linearGradient>
    <clipPath id="25a44731-1a06-460a-9dd4-98cebbcfde31">
      <path id="c676b510-776e-48fe-bc54-2661fdf97fd9" data-name="&lt;Clipping Path&gt;" d="M358.86,508.38S347.08,480.33,381,482.57l87.32,247.1s17,32.48,23.74,32.93,26-1,9.14,6.06-22.43,9.42-28.77,2.19-13.86-17.28-13.86-17.28l9,29.23s-28.9-37.36-11.62-51.22c0,0-95.84-118.13-91.08-169.63a22.81,22.81,0,0,0,1.35-20.36c-4.72-11.22-7.36-33.21-7.36-33.21" fill="#fdb483"/>
    </clipPath>
    <clipPath id="15909f29-29b7-4c75-a62a-683bed11b347">
      <path id="30a71ef3-a395-4ec5-8fe8-f3906df7a9ed" data-name="&lt;Clipping Path&gt;" d="M308.2,482.43s40.81-13.6,71-2.22a7.56,7.56,0,0,1,4.78,7.55L369.06,743.89a1.82,1.82,0,0,0,0,.33c.23,2.58,3.26,36.47,9.12,39.39,6.08,3,24.33,9.13,6.08,9.13s-24.34,0-27.38-9.13c-.93-2.78-1.86-5.85-2.7-8.77a2.39,2.39,0,0,0-4.68.43h0a2.4,2.4,0,0,1-4.77,0c-1.24-12.83-.41-28.81,10.2-33.53a2.38,2.38,0,0,0,1.35-2.82c-5-17.59-38.49-140.63-19.28-186.14a2.35,2.35,0,0,0-2.22-3.29c-15.85.42-75.25,1.3-75.25-9.25,0-12.17,45.63-57.8,45.63-57.8" fill="#fdb483"/>
    </clipPath>
    <clipPath id="751063ec-0ec7-421d-bd0e-b6bd729733b3">
      <path id="45bec186-1464-4448-aa54-046c15b45335" data-name="&lt;Clipping Path&gt;" d="M159.13,458.09s-30.42,39.55-12.17,70,152.12,21.3,152.12,21.3,15.21-63.89,63.88-73c0,0-103.43-18.25-139.94-9.12S159.13,458.09,159.13,458.09Z" fill="#155c8f"/>
    </clipPath>
    <clipPath id="14655439-5427-4373-86bb-d8a9cdaf6005">
      <path d="M227.78,255.41s-28.56,7.14-35.7,57.13,3.57,96.39-39.27,153.52c0,0-8.65,53.28,98.46-.28,0,0,58.63-122.9,1.5-198.76C252.77,267,238.49,269.69,227.78,255.41Z" fill="#2979ff"/>
    </clipPath>
  </defs>
  <title>intercAsset 19</title>
  <g id="17462094-bb34-4e8a-9162-3691ec709ac6" data-name="Layer 2">
    <g id="a489ddc4-d982-4bbc-a5e3-0df0a515dc91" data-name="Layer 1">
      <g id="ca30d362-9934-42c7-aebf-a20591aa0658" data-name="Layer 2">
        <g id="52287663-4b41-4b77-a7ee-e9ac9c0fb92d" data-name="Layer 1-2">
          <path d="M42.46,49.1l45.21.13a4.85,4.85,0,0,1,4.84,5L91.9,85.75a5,5,0,0,1-5,5l-45.21-.13a4.85,4.85,0,0,1-4.84-5l.61-31.54A5,5,0,0,1,42.46,49.1Z" fill="#00b1ff" opacity="0.66" style="isolation: isolate"/>
          <path d="M51.34,58.15l45.21.13a4.86,4.86,0,0,1,4.84,5l-.61,31.54a5.06,5.06,0,0,1-5,5l-45.21-.13a4.86,4.86,0,0,1-4.84-5l.62-31.54A5,5,0,0,1,51.34,58.15Z" opacity="0.7" fill="url(#36192acc-4a4d-4d2d-bbd9-c28c949c2712)" style="isolation: isolate"/>
        </g>
      </g>
      <g>
        <path d="M321.17,440.71l-13.64-3.27,11.87-49.35a18.68,18.68,0,0,1,18.22-14.36H536.89a18.78,18.78,0,0,1,18.37,15.06l9.8,48.91-13.75,2.75-9.8-48.91a4.73,4.73,0,0,0-4.62-3.79H337.62a4.71,4.71,0,0,0-4.59,3.62Z" fill="#f7be92"/>
        <rect x="212.95" y="434.68" width="442.19" height="22.37" fill="#e8e8e8"/>
        <path d="M290.61,426.76H528.94a2.76,2.76,0,0,1,2.76,2.76v7.14a0,0,0,0,1,0,0H287.86a0,0,0,0,1,0,0v-7.14A2.76,2.76,0,0,1,290.61,426.76Z" fill="#d7dde0"/>
        <path d="M517.22,360.67c-.15-.31-1.89-.58-4-.73C514,349.62,516,322.4,516,321.26c0-1.4-4-1-4.08.08l-2.78,38.51c-2.16,0-3.93.29-4,.82-.27,1.36.51,17.25,1.39,18.08s8.32,1,9.14,0S517.63,361.5,517.22,360.67Z" fill="#20233e"/>
        <path d="M410.05,430a2.11,2.11,0,0,1,.22-2.49c4.06-4.46,21-21.37,35.39-9.61C469.17,437.12,420.13,446.93,410.05,430Z" fill="#f4f4f4"/>
        <polygon points="587.93 445.56 682.69 796.29 669.65 800.03 560.23 453.51 587.93 445.56" fill="#e8e8e8"/>
        <polygon points="271.93 566.2 315.4 792.89 306.09 792.89 250.19 566.2 271.93 566.2" fill="#b3b7d4"/>
        <polygon points="172.56 566.2 129.09 792.89 138.41 792.89 194.3 566.2 172.56 566.2" fill="#b3b7d4"/>
        <path d="M327.82,541.36s21.74,27.95-77.63,24.84S126,563.1,116.67,538.26,88.72,364.36,73.19,358.15s18.64-21.73,28,12.42,21.74,158.37,62.11,161.48S327.82,541.36,327.82,541.36Z" fill="#e8e8e8"/>
        <path d="M221.22,293c7.33-24.65,19.18-19.92,19.18-19.92,17.76,9.49,34.19,105.8,34.19,105.8,12.7,10.93,73.4,30.93,73.4,30.93s13.49-5,17.16-1.34c5.11,5.1,5,13.25,1.16,19.72S341,425.5,341,425.5c-32.68-4.66-79.61-21.84-79.61-21.84S213.89,317.68,221.22,293Z" fill="#f0a475"/>
        <g>
          <path id="4a363963-75f3-48e1-99f9-757bd5e76a26" data-name="&lt;Clipping Path&gt;" d="M358.86,508.38S347.08,480.33,381,482.57l87.32,247.1s17,32.48,23.74,32.93,26-1,9.14,6.06-22.43,9.42-28.77,2.19-13.86-17.28-13.86-17.28l9,29.23s-28.9-37.36-11.62-51.22c0,0-95.84-118.13-91.08-169.63a22.81,22.81,0,0,0,1.35-20.36c-4.72-11.22-7.36-33.21-7.36-33.21" fill="#fdb483"/>
          <g clip-path="url(#25a44731-1a06-460a-9dd4-98cebbcfde31)">
            <path d="M449.53,731.63h6s22.53,51.06,36.05,28.53,30,7.51,30,7.51l-31.54,25.54-37.55,7.51-24-52.57Z" fill="#4d5ba3"/>
          </g>
        </g>
        <g>
          <path id="bf4f2f7c-ed38-4553-b00d-1d050af98e84" data-name="&lt;Clipping Path&gt;" d="M308.2,482.43s40.81-13.6,71-2.22a7.56,7.56,0,0,1,4.78,7.55L369.06,743.89a1.82,1.82,0,0,0,0,.33c.23,2.58,3.26,36.47,9.12,39.39,6.08,3,24.33,9.13,6.08,9.13s-24.34,0-27.38-9.13c-.93-2.78-1.86-5.85-2.7-8.77a2.39,2.39,0,0,0-4.68.43h0a2.4,2.4,0,0,1-4.77,0c-1.24-12.83-.41-28.81,10.2-33.53a2.38,2.38,0,0,0,1.35-2.82c-5-17.59-38.49-140.63-19.28-186.14a2.35,2.35,0,0,0-2.22-3.29c-15.85.42-75.25,1.3-75.25-9.25,0-12.17,45.63-57.8,45.63-57.8" fill="#fdb483"/>
          <g clip-path="url(#15909f29-29b7-4c75-a62a-683bed11b347)">
            <path d="M351.9,737.63l4.51,3s1.5,43.56,21,42.05,25.54,12,25.54,12l-31.54,7.51-36.05-1.5-7.51-21,10.51-39.05Z" fill="#4d5ba3"/>
          </g>
        </g>
        <g>
          <path id="8b03699f-9ad9-43a7-ae52-3c4673a48a9c" data-name="&lt;Clipping Path&gt;" d="M159.13,458.09s-30.42,39.55-12.17,70,152.12,21.3,152.12,21.3,15.21-63.89,63.88-73c0,0-103.43-18.25-139.94-9.12S159.13,458.09,159.13,458.09Z" fill="#155c8f"/>
          <g clip-path="url(#751063ec-0ec7-421d-bd0e-b6bd729733b3)">
            <path d="M285.85,491.16l1.44-.46c.95-.31.54-1.82-.42-1.51l-1.44.47c-.95.31-.54,1.81.42,1.5Z" fill="#155c8f"/>
            <path d="M305.89,562.11v.48a.78.78,0,0,0,1.56,0v-.48a.78.78,0,0,0-1.56,0Z" fill="#2e77a3"/>
            <path d="M359.29,474.56A327.81,327.81,0,0,0,298,481.69c-.25.05-.14.43.1.38A327.58,327.58,0,0,1,359.29,475c.25,0,.25-.4,0-.39Z" fill="#2e77a3"/>
            <path d="M360.73,477.53A124.19,124.19,0,0,0,323.88,485c-.23.09-.13.47.11.38a123.41,123.41,0,0,1,36.74-7.46c.25,0,.25-.4,0-.39Z" fill="#2e77a3"/>
            <path d="M293.18,554.47a40.66,40.66,0,0,1,1.42-35.21c.12-.22-.22-.42-.33-.2a41.09,41.09,0,0,0-1.43,35.61c.1.23.44,0,.34-.2Z" fill="#2e77a3"/>
            <path d="M282.87,548a70.64,70.64,0,0,1-15.33-14.26c-.15-.2-.43.08-.27.27a70.36,70.36,0,0,0,15.41,14.32c.2.15.4-.19.19-.33Z" fill="#2e77a3"/>
            <path d="M252.08,470.54,217.62,483c-.23.08-.13.46.11.37l34.45-12.41c.24-.08.13-.46-.1-.38Z" fill="#2e77a3"/>
            <path d="M284.6,475.76a662.87,662.87,0,0,1-90.36,15.39c-.25,0-.25.41,0,.39a662.8,662.8,0,0,0,90.46-15.41c.25-.06.14-.43-.1-.37Z" fill="#2e77a3"/>
          </g>
        </g>
        <path d="M288.45,149.74c.27,3.56,20.34,80.83-10.9,93.89s-48.94-32.15-48.94-32.15L246.26,160Z" fill="#fdb483"/>
        <polygon points="252.77 226.85 252.77 280.4 220.64 262.55 230.27 203.18 252.77 226.85" fill="#fdb483"/>
        <g>
          <path d="M227.78,255.41s-28.56,7.14-35.7,57.13,3.57,96.39-39.27,153.52c0,0-8.65,53.28,98.46-.28,0,0,58.63-122.9,1.5-198.76C252.77,267,238.49,269.69,227.78,255.41Z" fill="#2979ff"/>
          <g clip-path="url(#14655439-5427-4373-86bb-d8a9cdaf6005)">
            <path d="M271.74,435.62a.78.78,0,0,0,0-1.55.78.78,0,0,0,0,1.55Z" fill="#4ea89b"/>
            <path d="M254.12,463.25a229.4,229.4,0,0,1-35.07,9.13c-.25,0-.14.42.1.37a229.4,229.4,0,0,0,35.07-9.13c.24-.08.14-.46-.1-.37Z" fill="#4ea89b"/>
            <path d="M251.65,461.55a102.5,102.5,0,0,1-21.91-3.15.19.19,0,0,0-.1.37,102.27,102.27,0,0,0,22,3.17c.25,0,.25-.38,0-.39Z" fill="#4ea89b"/>
            <path d="M155.84,453c-5.29,12.36,9.72,24.7,20.07,27.87a.19.19,0,0,0,.11-.37c-10-3.06-25-15.16-19.84-27.3.1-.23-.24-.43-.34-.2Z" fill="#4ea89b"/>
            <path d="M258.78,272.34c-13.57,2-30,2.58-38.38-10.44-.14-.21-.48,0-.34.19,8.51,13.17,25.06,12.68,38.82,10.62.25,0,.14-.41-.1-.37Z" fill="#4ea89b"/>
            <path d="M267.44,431c-2.87-2.87-76.47-96.11-67.66-115.51s77.71,101.15,77.71,101.15Z" fill="#2961ff"/>
          </g>
        </g>
        <path d="M291.82,151.88S272.52,195,233.36,196c0,0,4.39,70-7.62,79.06s-34.12,24.21-35.08,49.65c0,0-50.53-43.65-13-78.19s12-81.11,36.05-94.62c0,0,48.06-36,73.6-25.54s22.16,44.46,7.32,50C294.64,176.36,293.32,159.39,291.82,151.88Z" fill="#0d537c"/>
        <path d="M198.14,308.6c4.19-19.23,13.8-23.6,19.38-24.46a12.23,12.23,0,0,1,8,1.58c22.88,13.21,53,84.77,60.76,103.88a12,12,0,0,0,7.07,6.86c22.53,8.1,80.47,17.25,98.25,19.94a12.24,12.24,0,0,0,9.16-2.3c5.09-3.82,13.07-7.08,17.19-5.6,7.09,2.53,12.21,18.39,7.89,26-3.85,6.78-29.49,2.08-35.05,1a11.67,11.67,0,0,0-2.21-.23c-39.9-.39-95.14-8.88-110.59-11.38a12.21,12.21,0,0,1-7.06-3.81C256.43,404.33,192.75,333.37,198.14,308.6Z" fill="#fdb483"/>
        <path d="M223.86,206.78c2.28,5.43,7.21,8.54,11,6.95s5-7.29,2.76-12.72-7.21-8.54-11-6.95S221.58,201.35,223.86,206.78Z" fill="#fdb483"/>
        <path d="M293.32,148.87s-28.16,72.1-59.13,45.81" fill="#0d537c"/>
        <path d="M273.45,195.07c2.35-4.58,7.78-6.55,12.73-5.31.72.19,1.16-.91.42-1.1-5.58-1.4-11.53.69-14.25,6-.34.67.76,1.09,1.1.42Z" fill="#0d537c"/>
        <path d="M272.46,223.85a12.81,12.81,0,0,0,3,5.59c3,3.36,7.23,4.29,11.56,3.89.75-.06.5-1.22-.24-1.15-5.89.54-11.78-2.46-13.12-8.57a.59.59,0,0,0-1.15.24Z" fill="#573c37"/>
        <polygon points="275.29 448.49 176.5 793.28 190.03 797.34 305.96 449.98 275.29 448.49" fill="#e8e8e8"/>
        <g>
          <path d="M587.21,267.06s-12.18,53.79,7.11,90.33l19.28,36.54S618.67,302.59,587.21,267.06Z" fill="#5bb59b"/>
          <path d="M588,407.49c1.17,6.6,2.67,13.25,5.93,19.1s8.54,10.87,15,12.45a34.83,34.83,0,0,0,9.07.62c3.33-.09,6.81-.3,9.68-2,3.74-2.2,5.71-6.46,7.23-10.53a122.86,122.86,0,0,0,5.82-21.23c.75-4.18,1.24-8.71-.71-12.48-2.64-5.1-8.83-7.16-14.5-8.08-9.43-1.54-22.41-2.33-31.44,1.51C586.28,390.21,586.76,400.29,588,407.49Z" fill="#d8dae9"/>
          <path d="M609.42,394.1c7.48.44,15.58-.71,20.29-3.24.95-.51,1.78-1.16,1.34-1.78s-2.52-1-4.26-1.22c-9-.93-18.95-1.35-27.75.15C586.14,390.19,602.57,393.7,609.42,394.1Z" fill="#524f63"/>
          <path d="M605.48,253.87s-6.09,102.5,8.12,140.06C613.6,393.93,622.73,302.59,605.48,253.87Z" fill="#63a590"/>
          <path d="M611.81,393.18h3.29c4.85-20.3,19.36-86,11.69-116.7,0,0-24.35,86.26-18.26,105.55C610,387.08,611.06,390.65,611.81,393.18Z" fill="#5bb59b"/>
        </g>
      </g>
      <path d="M0,2.81V146a2.81,2.81,0,0,0,2.81,2.81H135.93a2.81,2.81,0,0,0,2.81-2.81V2.81A2.81,2.81,0,0,0,135.93,0H2.81A2.81,2.81,0,0,0,0,2.81ZM130.23,136.86a2.84,2.84,0,0,1-2.84,2.84h-116a2.84,2.84,0,0,1-2.84-2.84V12a2.84,2.84,0,0,1,2.84-2.84h116A2.84,2.84,0,0,1,130.23,12Z" fill="#f7be92"/>
    </g>
  </g>
</svg>
