<svg xmlns="http://www.w3.org/2000/svg" viewBox="0 0 159.9 246.2"><defs><style>.cls-1{isolation:isolate;}.cls-2{opacity:0.19;}.cls-2,.cls-4{mix-blend-mode:multiply;}.cls-3{fill:#4588ff;}.cls-4{opacity:0.35;}</style></defs><title>img-h-3Asset 3</title><g class="cls-1"><g id="Layer_2" data-name="Layer 2"><g id="Layer_3" data-name="Layer 3"><g id="_Group_" data-name="&lt;Group&gt;" class="cls-2"><path class="cls-3" d="M257.9,214.6a6.7,6.7,0,0,1-1.8-.7L148.3,151.8a8.2,8.2,0,0,1-4.3-7V48.2a4.1,4.1,0,0,1,2.2-3.8,5.1,5.1,0,0,1,4.6.4l107.7,61.9a8.5,8.5,0,0,1,4.3,7.1v96.8a4,4,0,0,1-2.1,3.6A5.2,5.2,0,0,1,257.9,214.6Z" transform="translate(-144 -44)"/></g><g id="_Group_2" data-name="&lt;Group&gt;" class="cls-4"><path class="cls-3" d="M300.4,290.1a3.5,3.5,0,0,1-1.3-.5l-77.7-44.7a6.1,6.1,0,0,1-3.1-5.1V170.2a2.9,2.9,0,0,1,1.6-2.7,3.3,3.3,0,0,1,3.3.3l77.6,44.6a6.1,6.1,0,0,1,3.1,5.1v69.7a3,3,0,0,1-1.5,2.7A3.4,3.4,0,0,1,300.4,290.1Z" transform="translate(-144 -44)"/></g></g></g></g></svg>