<svg xmlns="http://www.w3.org/2000/svg" viewBox="0 0 166.4 239.1"><defs><style>.cls-1{isolation:isolate;}.cls-2{opacity:0.25;mix-blend-mode:multiply;}.cls-3{fill:#4588ff;}.cls-4{fill:#fff;}</style></defs><title>img-h-4Asset 4</title><g class="cls-1"><g id="Layer_2" data-name="Layer 2"><g id="Layer_3" data-name="Layer 3"><g id="_Group_" data-name="&lt;Group&gt;" class="cls-2"><path class="cls-3" d="M159.6,238.9a6.3,6.3,0,0,1-2.5-.9L6,151.1a11.9,11.9,0,0,1-6-9.9V5.9A5.6,5.6,0,0,1,3.1.6a6.9,6.9,0,0,1,6.5.5L160.4,87.9a11.5,11.5,0,0,1,6,9.9V233.3a5.6,5.6,0,0,1-6.8,5.6Z"/></g><path class="cls-4" d="M82.7,79.1c-17.9-11.9-33-2.1-33.8,22s13,53.1,30.8,65,33,2,33.8-22S100.5,91,82.7,79.1Zm22.2,61.2,5.7,3.8c-1.4,20-14.1,28.3-29.4,19.1l.3-7.6a3.7,3.7,0,0,0-1.3-2.8c-.8-.5-1.4-.1-1.5.9l-.2,7.7c-15.2-11.1-26.8-35.6-26.8-56.6l5.6,3.8c.8.5,1.5.1,1.5-.9a3.7,3.7,0,0,0-1.3-2.8l-5.7-3.8c1.4-20,14.1-28.3,29.3-19.1l-.2,7.6a3.2,3.2,0,0,0,1.3,2.8c.8.5,1.4.1,1.5-.9l.2-7.7c15.2,11.1,26.8,35.6,26.8,56.6l-5.7-3.8c-.7-.5-1.4-.1-1.4.9a3.6,3.6,0,0,0,1.3,2.8Z"/><path class="cls-4" d="M82.6,122.8l.6-18.9a3.3,3.3,0,0,0-1.3-2.8c-.8-.5-1.4-.1-1.4,1l-.7,19.6a2.8,2.8,0,0,0,.4,1.5l13,27.8c.5,1.1,1.4,1.7,1.9,1.3s.6-1.5.1-2.6h0Z"/></g></g></g></svg>