<svg xmlns="http://www.w3.org/2000/svg" viewBox="0 0 141.9 273"><defs><style>.cls-1{fill:#daecff;}.cls-2{fill:#fff8ff;}.cls-3{fill:#dcbae8;}.cls-4{fill:#872437;}.cls-5{fill:#bdbacf;}.cls-6{fill:#006859;}.cls-7{fill:#009681;}.cls-8{fill:#00b09d;}</style></defs><title>img-h-plantAsset 7</title><g id="Layer_2" data-name="Layer 2"><g id="Layer_3" data-name="Layer 3"><path class="cls-1" d="M141.9,243.8c0,16.1-31.8,29.2-71,29.2S0,259.9,0,243.8s31.8-29.1,70.9-29.1S141.9,227.8,141.9,243.8Z"/><path class="cls-2" d="M86.9,144.4,29.1,163.9v72.8c0,14.7,19.6,26.7,43.8,26.7s43.8-12,43.8-26.7V163.9Z"/><ellipse class="cls-3" cx="72.9" cy="163.9" rx="43.8" ry="26.7"/><path class="cls-4" d="M35.6,177.9c7.7,7.6,21.5,12.7,37.3,12.7s29.5-5.1,37.2-12.7a13.6,13.6,0,0,0,.9-4.8c0-12.8-17.1-23.2-38.1-23.2s-38.1,10.4-38.1,23.2A13.4,13.4,0,0,0,35.6,177.9Z"/><path class="cls-5" d="M72.9,140.3c22,0,40.7,10.8,40.7,23.6s-18.7,23.6-40.7,23.6-40.8-10.8-40.8-23.6,18.7-23.6,40.8-23.6m0-3.1c-24.2,0-43.8,11.9-43.8,26.7s19.6,26.7,43.8,26.7,43.8-12,43.8-26.7S97,137.2,72.9,137.2Z"/><path class="cls-6" d="M110.1,41c-3.7,7.7-3.7,16.7-3.7,25.3s0,19.3.1,29,0,22.2-3,32.8S94,148.8,84.2,153.7c-4.9,2.5-11.1,3.4-15.7.5a17.4,17.4,0,0,1-4.9-5.2c-11.1-17.5-.8-40.9,7.2-57.6A146.6,146.6,0,0,1,110.1,41Z"/><path class="cls-7" d="M26.9,120.5c-2.7-36.1-.9-73-9.7-108.1A145.7,145.7,0,0,1,49.1,118.8c8-25,16.1-50.4,15.9-76.7C65,29.6,72.7,0,72.7,0s4.5,28.3,8.7,42.1c2.8,9.4,3.4,19.3,4,29.1l2.4,42.9c11.9-36,43.8-85.5,43.8-85.5s-11.8,94.4-18,116c-7,24.5-30,41.2-56.2,35.4C33.5,174.7,28.4,140.4,26.9,120.5Z"/><path class="cls-8" d="M45.6,156.1c-5-13.7-.4-28.8,2.8-43.1,3.7-17,5.2-34.8,1.4-51.8a791.4,791.4,0,0,1,33.1,81.6c2.4,7.2,4.8,15,2.5,22.2s-14.5,18.9-22.7,16.9C56.3,180.3,47.8,162.1,45.6,156.1Z"/></g></g></svg>