<svg xmlns="http://www.w3.org/2000/svg" viewBox="0 0 585.9 775"><defs><style>.cls-1{fill:#0071ff;}.cls-2{fill:#daecff;}.cls-3{fill:#0565ce;}.cls-4{fill:#4588ff;}.cls-10,.cls-13,.cls-5{font-size:32px;fill:#fff;font-family:Montserrat-SemiBold, Montserrat;font-weight:700;}.cls-5{letter-spacing:0.04em;}.cls-13,.cls-6{letter-spacing:0.05em;}.cls-10,.cls-7{letter-spacing:0.06em;}.cls-8{letter-spacing:0.07em;}.cls-9{letter-spacing:0.08em;}.cls-11{letter-spacing:0.04em;}.cls-12{letter-spacing:0.06em;}.cls-14{letter-spacing:-0.01em;}.cls-15{letter-spacing:0.08em;}.cls-16{letter-spacing:0.07em;}.cls-17{letter-spacing:0.05em;}</style></defs><title>img-h-screenAsset 5</title><g id="Layer_2" data-name="Layer 2"><g id="Layer_3" data-name="Layer 3"><path class="cls-1" d="M585.9,339.6V767.5L572.5,775,13.4,437,6,8.7l12.6-7A10.9,10.9,0,0,1,30,1.5L571,313.8A29.6,29.6,0,0,1,585.9,339.6Z"/><path class="cls-2" d="M572.5,347.1V775L0,444.5V18.5A11.1,11.1,0,0,1,16.6,8.9l541,312.4A29.7,29.7,0,0,1,572.5,347.1Z"/><path class="cls-1" d="M25.6,385.5,243,418.4a5.3,5.3,0,0,0,7.9-4.6V389.1a5.3,5.3,0,0,0-2.6-4.6L31.9,262.6a5.3,5.3,0,0,0-8,4.6v24.7C23.9,293.8,23.9,384.6,25.6,385.5Z"/><path class="cls-3" d="M244.6,378.8,37.3,257.4c-7.9-4.5-14.3-.9-14.4,8.2L21.8,388.1c-.1,9,6.3,20.1,14.2,24.7L243.4,534.2c7.9,4.5,14.3.9,14.4-8.2l1.1-122.4C258.9,394.5,252.5,383.4,244.6,378.8Z"/><path class="cls-1" d="M239.3,384.2,31.9,262.8c-7.9-4.6-14.3-.9-14.3,8.2L16.4,393.4c0,9.1,6.4,20.2,14.3,24.7L238,539.5c7.9,4.6,14.4.9,14.4-8.2l1.2-122.4C253.6,399.8,247.2,388.7,239.3,384.2Z"/><path class="cls-1" d="M285.6,341.5,533,481.4a5.3,5.3,0,0,0,7.9-4.6V452.1a5.3,5.3,0,0,0-2.6-4.6L290.9,307.6a5.3,5.3,0,0,0-8,4.6v24.7A5.2,5.2,0,0,0,285.6,341.5Z"/><path class="cls-3" d="M534.6,441.8,296.3,302.4c-7.9-4.5-14.3-.9-14.4,8.2v33.5c-.1,9,6.3,20.1,14.2,24.7L534.4,508.2c7.9,4.5,14.3.9,14.4-8.2V466.6C548.9,457.5,542.5,446.4,534.6,441.8Z"/><path class="cls-4" d="M529.3,447.2,290.9,307.8c-7.9-4.6-14.3-.9-14.3,8.2l-.2,33.4c0,9.1,6.4,20.2,14.3,24.7L529,513.5c7.9,4.6,14.4.9,14.4-8.2l.2-33.4C543.6,462.8,537.2,451.7,529.3,447.2Z"/><path class="cls-1" d="M296.2,465.1,518.5,591a5.3,5.3,0,0,0,7.8-4.7l-.5-24.8A5.3,5.3,0,0,0,523,557L300.8,431a5.4,5.4,0,0,0-7.9,4.8l.6,24.7A5.2,5.2,0,0,0,296.2,465.1Z"/><path class="cls-3" d="M519.3,551.4,306.1,425.7c-8-4.4-14.4-.5-14.2,8.5l.6,33.5c.2,9.1,6.8,20,14.8,24.4L520.5,617.8c8,4.3,14.3.5,14.2-8.5l-.6-33.5C533.9,566.7,527.3,555.8,519.3,551.4Z"/><path class="cls-1" d="M514,556.9,300.8,431.2c-8-4.4-14.3-.6-14.1,8.5l.5,33.4c.2,9.1,6.9,20.1,14.9,24.5L515.3,623.2c8,4.4,14.3.6,14.1-8.5l-.5-33.4C528.7,572.2,522,561.3,514,556.9Z"/><path class="cls-2" d="M41.9,300.6v99.8a1.7,1.7,0,0,0,.7,1.3l8.7,5.8a1.6,1.6,0,0,0,2.5-1.3V305.9a1.6,1.6,0,0,0-.8-1.4l-8.7-5.2A1.6,1.6,0,0,0,41.9,300.6Z"/><path class="cls-2" d="M68.9,366.6v47.7a1.4,1.4,0,0,0,.7,1.3l8.7,5.8a1.6,1.6,0,0,0,2.5-1.3V371.8a1.4,1.4,0,0,0-.8-1.3l-8.7-5.3A1.6,1.6,0,0,0,68.9,366.6Z"/><path class="cls-2" d="M95.9,381.6v47.7a1.4,1.4,0,0,0,.7,1.3l8.7,5.8a1.6,1.6,0,0,0,2.5-1.3V386.8a1.4,1.4,0,0,0-.8-1.3l-8.7-5.3A1.6,1.6,0,0,0,95.9,381.6Z"/><path class="cls-2" d="M219.9,452.6v47.7a1.4,1.4,0,0,0,.7,1.3l8.7,5.8a1.6,1.6,0,0,0,2.5-1.3V457.8a1.4,1.4,0,0,0-.8-1.3l-8.7-5.3A1.6,1.6,0,0,0,219.9,452.6Z"/><path class="cls-2" d="M119.5,354.4v90.4a1.7,1.7,0,0,0,.7,1.4l8.7,5.8a1.6,1.6,0,0,0,2.5-1.4v-91a1.6,1.6,0,0,0-.8-1.3l-8.7-5.2A1.6,1.6,0,0,0,119.5,354.4Z"/><path class="cls-2" d="M144.9,379v79.4a1.5,1.5,0,0,0,.7,1.3l8.7,5.8a1.5,1.5,0,0,0,2.4-1.3V384.3a1.7,1.7,0,0,0-.7-1.4l-8.7-5.2A1.6,1.6,0,0,0,144.9,379Z"/><path class="cls-2" d="M195.9,409v79.4a1.5,1.5,0,0,0,.7,1.3l8.7,5.8a1.5,1.5,0,0,0,2.4-1.3V414.3a1.7,1.7,0,0,0-.7-1.4l-8.7-5.2A1.6,1.6,0,0,0,195.9,409Z"/><path class="cls-2" d="M170.9,374.6v99.8a1.7,1.7,0,0,0,.7,1.3l8.7,5.8a1.6,1.6,0,0,0,2.5-1.3V379.9a1.6,1.6,0,0,0-.8-1.4l-8.7-5.2A1.6,1.6,0,0,0,170.9,374.6Z"/><path class="cls-1" d="M296.2,557.1,518.5,683a5.3,5.3,0,0,0,7.8-4.7l-.5-24.8A5.3,5.3,0,0,0,523,649L300.8,523a5.4,5.4,0,0,0-7.9,4.8l.6,24.7A5.2,5.2,0,0,0,296.2,557.1Z"/><path class="cls-3" d="M519.3,643.4,306.1,517.7c-8-4.4-14.4-.5-14.2,8.5l.6,33.5c.2,9.1,6.8,20,14.8,24.4L520.5,709.8c8,4.3,14.3.5,14.2-8.5l-.6-33.5C533.9,658.7,527.3,647.8,519.3,643.4Z"/><path class="cls-1" d="M514,648.9,300.8,523.2c-8-4.4-14.3-.6-14.1,8.5l.5,33.4c.2,9.1,6.9,20.1,14.9,24.5L515.3,715.2c8,4.4,14.3.6,14.1-8.5l-.5-33.4C528.7,664.2,522,653.3,514,648.9Z"/><path class="cls-2" d="M322.2,546.1v4.5a19.1,19.1,0,0,1,5.6,6.1,14.3,14.3,0,0,1,2.1,7.4h-.1l-6.2-3.4a8,8,0,0,0-.8-3.6,6.6,6.6,0,0,0-2.4-2.3q-1.5-.7-2.1-.3a2.9,2.9,0,0,0-.6,2.1,4.6,4.6,0,0,0,.7,2.6,19.9,19.9,0,0,0,2.8,3.5,38.9,38.9,0,0,1,6.6,7.5,14.4,14.4,0,0,1,2.3,7.5c0,2.5-.6,4.1-2,4.8s-3.2.6-5.6-.5v4.3l-3-1.6v-4.3a22.9,22.9,0,0,1-6.3-6.1,14.5,14.5,0,0,1-2.5-8.3v-.2l6.1,3.4a8.3,8.3,0,0,0,1.1,4.1A9.1,9.1,0,0,0,321,576c1,.6,1.8.7,2.2.3a2.1,2.1,0,0,0,.7-1.9,5.6,5.6,0,0,0-.8-3,16.8,16.8,0,0,0-2.8-3.4,41,41,0,0,1-6.6-7.5,13.4,13.4,0,0,1-2.3-7.3q0-3.6,2.1-4.8c1.4-.8,3.4-.6,5.8.5v-4.4Z"/><path class="cls-1" d="M26.6,87.5,538,383.4a5.3,5.3,0,0,0,7.9-4.6V354.1a5.3,5.3,0,0,0-2.6-4.6L31.9,53.6a5.3,5.3,0,0,0-8,4.6V82.9A5.2,5.2,0,0,0,26.6,87.5Z"/><path class="cls-3" d="M539.6,343.8,37.3,48.4c-7.9-4.5-14.3-.9-14.4,8.2V90.1c-.1,9,6.3,20.1,14.2,24.7L539.4,410.2c7.9,4.5,14.3.9,14.4-8.2V368.6C553.9,359.5,547.5,348.4,539.6,343.8Z"/><path class="cls-1" d="M534.3,349.2,31.9,53.8C24,49.2,17.6,52.9,17.6,62l-.2,33.4c0,9.1,6.4,20.2,14.3,24.7L534,415.5c7.9,4.6,14.4.9,14.4-8.2l.2-33.4C548.6,364.8,542.2,353.7,534.3,349.2Z"/><path class="cls-1" d="M26.6,185.5,243,307.4a5.3,5.3,0,0,0,7.9-4.6V278.1a5.3,5.3,0,0,0-2.6-4.6L31.9,151.6a5.3,5.3,0,0,0-8,4.6v24.7A5.2,5.2,0,0,0,26.6,185.5Z"/><path class="cls-3" d="M244.6,267.8,37.3,146.4c-7.9-4.5-14.3-.9-14.4,8.2v33.5c-.1,9,6.3,20.1,14.2,24.7L244.4,334.2c7.9,4.5,14.3.9,14.4-8.2V292.6C258.9,283.5,252.5,272.4,244.6,267.8Z"/><path class="cls-1" d="M239.3,273.2,31.9,151.8c-7.9-4.6-14.3-.9-14.3,8.2l-.2,33.4c0,9.1,6.4,20.2,14.3,24.7L239,339.5c7.9,4.6,14.4.9,14.4-8.2l.2-33.4C253.6,288.8,247.2,277.7,239.3,273.2Z"/><text class="cls-5" transform="matrix(0.56, 0.34, -0.01, 1, 48.26, 110.23)">P<tspan class="cls-6" x="24.7" y="0">r</tspan><tspan class="cls-7" x="39.7" y="0">oje</tspan><tspan class="cls-8" x="95.5" y="0">c</tspan><tspan class="cls-7" x="116.2" y="0">t #5</tspan><tspan class="cls-9" x="187.7" y="0">4</tspan><tspan class="cls-7" x="211.8" y="0">c</tspan></text><text class="cls-10" transform="matrix(0.57, 0.33, 0, 1, 99.63, 234.5)">Sta<tspan class="cls-9" x="58.9" y="0">r</tspan><tspan x="74.7" y="0">t</tspan></text><text class="cls-10" transform="matrix(0.56, 0.34, -0.01, 1, 378.65, 402.35)">S<tspan class="cls-11" x="22" y="0">t</tspan><tspan class="cls-12" x="37" y="0">op</tspan></text><text class="cls-10" transform="matrix(0.57, 0.33, 0.01, 1, 351.69, 508.52)">16h 23min</text><text class="cls-13" transform="matrix(0.56, 0.34, -0.01, 1, 358.17, 599.51)">3<tspan class="cls-14" x="20.2" y="0">7</tspan><tspan class="cls-15" x="39.5" y="0">4</tspan><tspan class="cls-16" x="63.8" y="0">,</tspan><tspan class="cls-17" x="73.9" y="0">3</tspan><tspan class="cls-7" x="94.2" y="0">3 USD</tspan></text></g></g></svg>