<svg xmlns="http://www.w3.org/2000/svg" xmlns:xlink="http://www.w3.org/1999/xlink" viewBox="0 0 654.5 621.8"><defs><style>.cls-1{fill:#bababa;}.cls-2{fill:none;}.cls-3{fill:#ff8654;}.cls-4{fill:#0071ff;}.cls-5{fill:#b57b53;}.cls-6{fill:#eea270;}.cls-7{fill:#dcdcdc;}.cls-8{fill:#3c3c3c;}.cls-9{opacity:0.1;}.cls-10{fill:#fff;}.cls-11{fill:#858585;}.cls-12{fill:#cbcbcb;}.cls-13{fill:#454545;}.cls-14{isolation:isolate;}.cls-15{fill:#b0b0b0;}.cls-16{clip-path:url(#clip-path);}.cls-17{clip-path:url(#clip-path-2);}.cls-18{clip-path:url(#clip-path-3);}.cls-19{clip-path:url(#clip-path-4);}.cls-20{clip-path:url(#clip-path-5);}.cls-21{clip-path:url(#clip-path-6);}.cls-22{clip-path:url(#clip-path-7);}.cls-23{clip-path:url(#clip-path-8);}.cls-24{clip-path:url(#clip-path-9);}.cls-25{clip-path:url(#clip-path-10);}.cls-26{clip-path:url(#clip-path-11);}.cls-27{clip-path:url(#clip-path-12);}.cls-28{clip-path:url(#clip-path-13);}.cls-29{clip-path:url(#clip-path-14);}.cls-30{clip-path:url(#clip-path-15);}.cls-31{clip-path:url(#clip-path-16);}.cls-32{clip-path:url(#clip-path-17);}.cls-33{clip-path:url(#clip-path-18);}.cls-34{clip-path:url(#clip-path-19);}.cls-35{clip-path:url(#clip-path-20);}.cls-36{clip-path:url(#clip-path-21);}.cls-37{clip-path:url(#clip-path-22);}.cls-38{fill:#ababab;}.cls-39{fill:#813f0a;}.cls-40{fill:#999;}.cls-41{fill:#dedede;}.cls-42{fill:#e4c62e;}.cls-43{fill:#cdb228;}.cls-44{fill:#8e7c18;}.cls-45{fill:#f48500;}.cls-46{fill:#db7800;}.cls-47{fill:#995200;}.cls-48{fill:#00dcd9;}.cls-49{fill:#00c5c2;}.cls-50{fill:#008987;}.cls-51{clip-path:url(#clip-path-23);}.cls-52{fill:#242424;}.cls-53{fill:#272727;}.cls-54{fill:#282828;}.cls-55{fill:#292929;}.cls-56{fill:#2b2b2b;}.cls-57{fill:#2c2c2c;}.cls-58{fill:#2e2e2e;}.cls-59{fill:#303030;}.cls-60{clip-path:url(#clip-path-24);}.cls-61{fill:#202020;}.cls-62{fill:#343434;}.cls-63{fill:#212121;}.cls-64{fill:#3b3b3b;}.cls-65{clip-path:url(#clip-path-25);}.cls-66{fill:#232323;}.cls-67{fill:#008585;}.cls-68{fill:#00dbdc;}.cls-69{fill:#00979a;}.cls-70{fill:#333;}.cls-71{fill:#dbdbdb;}.cls-72{fill:#bdbdbd;}.cls-73{fill:#ededed;}.cls-74{fill:#b3b3b3;}.cls-75{fill:#daecff;}.cls-76{fill:#3f5782;}.cls-77{fill:#3f7aa7;}.cls-78{fill:#19202c;}.cls-79{fill:#2a3548;}.cls-80{fill:#3b5468;}.cls-81{fill:#ff7c40;}.cls-82{fill:#000f9f;}.cls-83{clip-path:url(#clip-path-26);}.cls-84{fill:#7f692e;}.cls-85{fill:#0565ce;}.cls-86{fill:#697f83;}</style><clipPath id="clip-path"><path class="cls-1" d="M250.9,86a1.3,1.3,0,0,0,.1.6V87l.2.8.2.4a1.9,1.9,0,0,0,.3.8,2.5,2.5,0,0,0,.4.8,2.6,2.6,0,0,0,.5.8c0,.1.1.2.2.3l.3.4.3.3.3.3c.1.1.4.3.5.5l.7.4a1.1,1.1,0,0,0-1.1.1,7.8,7.8,0,0,1-3.5-6.1A.9.9,0,0,0,250.9,86Z"/></clipPath><clipPath id="clip-path-2"><path class="cls-1" d="M249.9,87l.4-.2a7.8,7.8,0,0,0,3.5,6.1l-.4.2A7.8,7.8,0,0,1,249.9,87Z"/></clipPath><clipPath id="clip-path-3"><path class="cls-1" d="M252.4,96.2l-.5-.3-.5-.4-.8-.7-.5-.4-.7-.9L249,93l-.6-1-.3-.5-.3-.6c-.1-.1-.1-.4-.2-.5a4.3,4.3,0,0,1-.4-1.1l-.2-.6a4.3,4.3,0,0,0-.2-1.1V86.4a.8.8,0,0,0,.4.7,10.6,10.6,0,0,0,4.8,8.3A1,1,0,0,0,252.4,96.2Z"/></clipPath><clipPath id="clip-path-4"><path class="cls-1" d="M247.2,87.1a2.9,2.9,0,0,0,2.7-.1,7.8,7.8,0,0,0,3.5,6.1,3.3,3.3,0,0,0-1.4,2.3A10.6,10.6,0,0,1,247.2,87.1Z"/></clipPath><clipPath id="clip-path-5"><path class="cls-1" d="M254.9,92.8l1.1.7,1.2.6,1.2.7,8.6,5a1.4,1.4,0,0,0-1.5-.1l-11.7-6.8A1.1,1.1,0,0,1,254.9,92.8Z"/></clipPath><clipPath id="clip-path-6"><path class="cls-1" d="M251,78.1V86a.9.9,0,0,1-.6.8V78.9A.9.9,0,0,0,251,78.1Z"/></clipPath><clipPath id="clip-path-7"><path class="cls-1" d="M246.8,86.4V78.5c0,.3.2.5.5.7v7.9A.8.8,0,0,1,246.8,86.4Z"/></clipPath><clipPath id="clip-path-8"><path class="cls-1" d="M247.3,79.2a2.9,2.9,0,0,0,2.7-.1V87a2.9,2.9,0,0,1-2.7.1Z"/></clipPath><clipPath id="clip-path-9"><path class="cls-1" d="M266.3,104.2l-11.1-6.4-2.8-1.6a1,1,0,0,1-.4-.8l13,7.5A4,4,0,0,0,266.3,104.2Z"/></clipPath><clipPath id="clip-path-10"><path class="cls-1" d="M252,95.4a3.3,3.3,0,0,1,1.4-2.3l11.8,6.8c-.8.4-.9,1.8-.2,3Z"/></clipPath><clipPath id="clip-path-11"><path class="cls-1" d="M251.4,76.7a.3.3,0,0,0-.1.2c-.1.1-.2.2-.2.3a.4.4,0,0,1-.1.3v.6a.9.9,0,0,1-.6.8A2.3,2.3,0,0,1,251.4,76.7Z"/></clipPath><clipPath id="clip-path-12"><path class="cls-1" d="M251.1,76.9l.3-.2a2.3,2.3,0,0,0-1,2.2l-.4.2A2.3,2.3,0,0,1,251.1,76.9Z"/></clipPath><clipPath id="clip-path-13"><path class="cls-1" d="M249.6,73.6l.6-.3.4-.2h2.1l.7.2.9.3.7.4a.9.9,0,0,0-1.1.1C252.2,73,250.7,72.9,249.6,73.6Z"/></clipPath><clipPath id="clip-path-14"><path class="cls-1" d="M249.2,73.8l.4-.2c1.1-.7,2.6-.6,4.3.4l-.3.2C251.9,73.2,250.3,73.1,249.2,73.8Z"/></clipPath><clipPath id="clip-path-15"><path class="cls-1" d="M252.5,77.3l-.4-.3h-.5a.5.5,0,0,0-.5,0,2.3,2.3,0,0,0-1.1,2.2,2.9,2.9,0,0,1-2.7.1c0-3,2.2-4.2,4.8-2.7A1,1,0,0,0,252.5,77.3Z"/></clipPath><clipPath id="clip-path-16"><path class="cls-1" d="M246.8,78.5a1.1,1.1,0,0,1,.1-.5,3.1,3.1,0,0,1,.1-.9c0-.2.1-.4.1-.6l.3-.7.3-.6.4-.4.2-.3.4-.3.5-.4c1.1-.7,2.7-.6,4.4.4a3,3,0,0,0-1.5,2.3c-2.6-1.5-4.8-.3-4.8,2.7C247,79,246.8,78.8,246.8,78.5Z"/></clipPath><clipPath id="clip-path-17"><path class="cls-1" d="M264.5,101.2c.1-7.5.1-9.4.2-16.9l.5-.3-.2,18.9A4.1,4.1,0,0,1,264.5,101.2Z"/></clipPath><clipPath id="clip-path-18"><path class="cls-1" d="M252.1,76.5a3,3,0,0,1,1.5-2.3l14.3,8.2L265.2,84Z"/></clipPath><clipPath id="clip-path-19"><path class="cls-1" d="M264.7,84.3l-8.7-5-3.5-2a1,1,0,0,1-.4-.8L265.2,84Z"/></clipPath><clipPath id="clip-path-20"><path class="cls-1" d="M268.8,81.9v2.2c0,2.7-.1,5.4-.1,8.1v10.6a1.4,1.4,0,0,1-.6,1.3V82.2Z"/></clipPath><clipPath id="clip-path-21"><path class="cls-1" d="M255,73.9l1.4.8,1.4.8,1.4.8,2.9,1.7,1.4.8,5.3,3.1-.6.3L253.9,74A.9.9,0,0,1,255,73.9Z"/></clipPath><clipPath id="clip-path-22"><path class="cls-1" d="M265.2,84l2.7-1.6-.2,21.9c-.8.5-2-.2-2.7-1.4Z"/></clipPath><clipPath id="clip-path-23"><path class="cls-2" d="M533.1,327.9v1.9c0,1.7-1.1,3.5-3.5,4.9v-1.9C532,331.4,533.1,329.6,533.1,327.9Z"/></clipPath><clipPath id="clip-path-24"><path class="cls-2" d="M325.6,329.7v-1.9c0,1.8,1.2,3.6,3.6,5v1.9C326.8,333.3,325.6,331.5,325.6,329.7Z"/></clipPath><clipPath id="clip-path-25"><path class="cls-2" d="M438.3,385.9v1.9c-4.7,2.7-12.3,2.7-17.1,0v-1.9A19.3,19.3,0,0,0,438.3,385.9Z"/></clipPath><clipPath id="clip-path-26"><path class="cls-2" d="M169.7,454.9,34.6,376.3a3.2,3.2,0,0,1-1.4-1.9L168.4,453A3,3,0,0,0,169.7,454.9Z"/></clipPath></defs><title>img-h-womanAsset 6</title><g id="Layer_2" data-name="Layer 2"><g id="Layer_3" data-name="Layer 3"><path class="cls-3" d="M160.8,320.9s67.1-20.4,80.5-10.2c13.5,13.6-9.5,46.3-46,55.3S134,354.7,160.8,320.9Z"/><path class="cls-3" d="M241,442.4s5.1,10.6,14.7,9.9c2.6,3.2-8.3,9.6-8.3,9.6l-16.6-1.3-.6-10.5Z"/><path class="cls-3" d="M232.7,308.8s21.1-.9,24.9,14.4-9.5,126.6-17.2,134.2-20.1,2.9-22.1-3.8,9.6-117.9,9.6-117.9Z"/><path class="cls-4" d="M217.4,451.7s4.1-.7,10.1,2.5,15.7,5.3,20.7,3.2,4.4-3.6,3-5.7,7.2-.3,10.9.6,9.9,3.5,11.2,6-6.4,8.6-14.9,10.2-19.4-.9-22.3-.3-3.9,4-6.5,4.2-7.4.7-9-.5-3.9-9.7-3.7-14A40.4,40.4,0,0,1,217.4,451.7Z"/><path class="cls-3" d="M208.1,336.2s67.1-20.3,80.5-10.2c13.5,13.6-9.5,46.3-46,55.4S181.3,370.1,208.1,336.2Z"/><path class="cls-3" d="M288.3,457.8s5.1,10.5,14.7,9.9c2.6,3.2-8.3,9.5-8.3,9.5L278.1,476l-.6-10.6Z"/><path class="cls-3" d="M280,324.2s21.1-1,24.9,14.3-9.5,126.6-17.2,134.3-20.1,2.9-22.1-3.9S275.2,351,275.2,351Z"/><path class="cls-4" d="M264.7,467.1s4.1-.7,10.1,2.4,15.7,5.3,20.7,3.2,4.4-3.5,3-5.6,7.2-.4,10.9.5,9.9,3.5,11.2,6-6.4,8.7-14.9,10.3-19.4-.9-22.3-.4-3.9,4.1-6.5,4.3-7.4.7-9-.6-3.9-9.7-3.7-13.9A38.5,38.5,0,0,1,264.7,467.1Z"/><polygon class="cls-5" points="654.5 298.3 426.5 430.8 4 186.8 232 54.3 654.5 298.3"/><polygon class="cls-6" points="654.5 284.8 426.5 417.3 4 173.3 232 40.8 654.5 284.8"/><path class="cls-7" d="M479.2,95.4h-.1v-.2h0v-.2h0c0-.1-.1-.2-.1-.3h0v-.3h0a.1.1,0,0,1-.1-.1v-.2h0c0-.1-.1-.1-.1-.2h0c0-.1-.1-.1-.1-.2h0v-.2c-.1-.1-.1-.1-.1-.2h0V92h0a.4.4,0,0,1-.1-.3h0v-.2a.1.1,0,0,0-.1-.1h0V91h-.1a.1.1,0,0,0-.1-.1h0l-.2-.3h0l-.2-.3h0c0-.1,0-.1-.1-.2s0-.1-.1-.2h0l-.3-.5h0l-.5-.7h0a1,1,0,0,1-.4-.5h0l-.3-.4h0l-.3-.3h0l-.3-.3h-.1a.3.3,0,0,0-.1-.2h-.3a.1.1,0,0,0-.1-.1h-.6a.1.1,0,0,1-.1-.1h-1l-.3-.2h0l-.3-.2h-.1L328.6.9H324l-.3.2h0l-2,1.1h.3a.1.1,0,0,1,.1-.1h2.4a.1.1,0,0,1,.1.1h.6l.4.2h.4c0,.1.1.1.2.1h.1l.3.2,143.8,83,.3.2h0l.4.2h.4l.2.2h.1l.2.2h.3l.2.2h.2c0,.1,0,.1.1.2h.2c0,.1,0,.1.1.2l.2.2h.1c.1.1.2.2.2.3h.1l.2.3.3.3h0l.4.6h.1l.4.7h.1l.3.5c0,.1,0,.2.1.2s0,.2.1.2v.3a.1.1,0,0,0,.1.1v.4a.1.1,0,0,1,.1.1c0,.1.1.2.1.3h.1a.4.4,0,0,0,.1.3h0c0,.1.1.2.1.4h0c.1.1.1.3.2.4h0c0,.1.1.2.1.3h0v.3h0c0,.1.1.2.1.3h0a.6.6,0,0,0,.1.4h0v.4h0V96h0v.3h0v.4l-.3,111.5v.4h0v.3a.1.1,0,0,0-.1.1v.6h-.1v.2a.3.3,0,0,1-.1.2h0c0,.1,0,.2-.1.2h0l-.2.4c0,.2-.1.3-.2.5l-.3.3h0c-.1.1-.2.1-.2.2h-.1l-.2.3h-.1l-.3.2,1.9-1.1.3-.2h.1l.3-.2h0l.2-.3h.1a.5.5,0,0,0,.2-.4h0c.1,0,.1-.1.2-.2h0c0-.1,0-.1.1-.2h0c0-.2.1-.3.1-.4h.1v-.2h.1v-.2h.1V208h0v-.2h0v-.4h0l.4-111.6Z"/><path class="cls-8" d="M470.4,85.1a14.9,14.9,0,0,1,6.8,11.8l-.3,111.5c0,4.4-3.1,6.1-6.9,4L326.2,129.3a15,15,0,0,1-6.8-11.8L319.8,6c0-4.4,3-6.1,6.8-3.9Z"/><g class="cls-9"><path class="cls-10" d="M409.9,50.1l-90.4,51.5v15.9a15,15,0,0,0,6.8,11.8l14,8.1L451.3,74.1Z"/><path class="cls-10" d="M477.2,96.8c0-4.3-3.1-9.5-6.8-11.7l-7-4.1L352.3,144.4l20.6,11.9Z"/></g><path class="cls-11" d="M474.6,211.5h-.1a.1.1,0,0,1-.1.1v.2h-.1v.2a.1.1,0,0,0-.1.1h-.3a.2.2,0,0,1-.2.2h0l-.2.2h-.1a.1.1,0,0,1-.1.1h-.9l-99.1,57.6-.5.3h-.2l-.5.2H372l-.5.2h-6.6l-.6-.2h-1.4l-.6-.3L215.9,187.5c-1.6-.9-2.3-2-2.3-3.2v3.8c0,1.2.7,2.3,2.3,3.2l146.4,84.5.6.3h.2l.3.2h.1a.1.1,0,0,1,.1.1h2.3c.1,0,.2,0,.2.1h5.5l.4-.2h.1l.5-.2h.1l.6-.3,99.1-57.6h.7a.1.1,0,0,1,.1-.1h.5l.2-.2h.1v-.2h0v-.2h.3c0-.1,0-.1.1-.1h0v-.2h0v-3.6Z"/><path class="cls-7" d="M472.3,208.1c3.1,1.8,3.1,4.6.1,6.4l-99.1,57.6a12.5,12.5,0,0,1-11,0L215.9,187.5c-3.1-1.7-3.1-4.6-.1-6.3l99.1-57.6a11.9,11.9,0,0,1,11,0Z"/><path class="cls-12" d="M448.8,206.7c2.5,1.5,2.5,3.8,0,5.2l-46.7,27.2a10.2,10.2,0,0,1-9,0L271.3,168.7c-2.5-1.4-2.5-3.8-.1-5.2l46.7-27.2a10.2,10.2,0,0,1,9,0Z"/><g id="O6mOik.tif"><path class="cls-13" d="M408.9,213.7c3.9,2.2,7.8,4.4,11.6,6.7.7.3.7.7,0,1.1l-5,2.9a1.9,1.9,0,0,1-1.9,0l-2.3-1.4-3.4-1.9-3.8-2.2-1.8-1c-1-.6-1-.9,0-1.5l4.6-2.7A1.8,1.8,0,0,1,408.9,213.7Z"/><path class="cls-13" d="M396.3,230.1l3.9,2.2c.6.3.5.7,0,1.1l-2.4,1.3a1.7,1.7,0,0,1-1.8-.1h0l-1.1-.6-1.5-.9-1.5-.9-1-.6h-.1c-.7-.4-.6-.8.1-1.2l1.9-1.1a2,2,0,0,1,2.1,0Z"/><path class="cls-13" d="M389.1,183.2l1.1.6c.8.5.8.8,0,1.3l-4.7,2.7a1.8,1.8,0,0,1-2.2,0l-2.3-1.3-2.6-1.5c-.9-.5-.9-.9-.1-1.3L383,181a2,2,0,0,1,2.3,0l.5.2.9.5,1,.6Z"/><path class="cls-13" d="M370.7,166.4l.9.6q1.2.6,0,1.2l-1.8,1.1a1.8,1.8,0,0,1-2,0,9.5,9.5,0,0,1-1.7-1l-3.5-2c-.7-.4-.7-.8.1-1.2l1.7-1a1.9,1.9,0,0,1,2.3,0l.9.6.7.3.4.3.5.2Z"/><path class="cls-13" d="M359.3,159.8,363,162c.6.3.6.7-.1,1.1l-1.9,1.1a2,2,0,0,1-2.1,0l-1.1-.6-1.4-.9-1.5-.8-1-.6c-.8-.5-.8-.8,0-1.3l1.9-1.1a2.3,2.3,0,0,1,2,0Z"/><path class="cls-13" d="M392.3,194.5l2.5,1.5c.6.3.6.7-.1,1.1l-4.8,2.8a1.7,1.7,0,0,1-1.9,0h-.1l-1-.6-1.6-.9-1.6-.9-1-.6h0c-.6-.4-.7-.7-.1-1.1l5-2.9a1.8,1.8,0,0,1,1.9,0Z"/><path class="cls-13" d="M430.3,200.8l3.1,1.8c.6.4.6.8,0,1.1a11.8,11.8,0,0,1-1.9,1.1,2.2,2.2,0,0,1-2.2,0l-1.1-.6-1.5-.9h0l-1.4-.8-1.1-.6q-1.1-.6,0-1.2l1.8-1.1a2.1,2.1,0,0,1,2-.1Z"/><path class="cls-13" d="M422.3,196.2l2.2,1.3c.6.4.7.8,0,1.2l-1.7,1a2,2,0,0,1-2.4-.1l-1-.5-1.4-.8-1.7-1-.9-.5c-.6-.4-.7-.8,0-1.2l1.9-1.1a1.8,1.8,0,0,1,2,0Z"/><g class="cls-14"><path class="cls-13" d="M416.8,208.7l3.5,2c.7.4.6.8-.1,1.2l-4.7,2.7a1.7,1.7,0,0,1-2.1,0l-1.3-.7-1.3-.8-1.5-.9-1-.5h-.1c-.6-.3-.6-.7,0-1.1l4.9-2.8a1.8,1.8,0,0,1,2,0A9.5,9.5,0,0,1,416.8,208.7Z"/><path class="cls-13" d="M433.2,208.6l3.6,2.1c1,.6,1,.9,0,1.4l-4.6,2.7a2,2,0,0,1-2.2,0l-2-1.2-2.6-1.5-2.5-1.4-2-1.2c-1-.6-1-.8,0-1.4l4.5-2.7a2.4,2.4,0,0,1,2.3,0Z"/><path class="cls-13" d="M425.9,213.9l3.1,1.8c.5.3.4.7-.1,1l-5.1,3a1.7,1.7,0,0,1-1.7-.1H422l-1-.6-1.7-1-1.5-.8-1-.6h-.1c-.7-.4-.6-.8.1-1.2l4.8-2.8a1.9,1.9,0,0,1,1.9-.1Z"/></g><g class="cls-14"><path class="cls-13" d="M329.9,148.9l1,.6c.7.5.7.8,0,1.3l-4.8,2.7a1.8,1.8,0,0,1-2.2,0l-1.6-.9-3.3-1.9c-.9-.5-.9-.9-.1-1.3l4.9-2.8a1.8,1.8,0,0,1,2,0l2.5,1.4Z"/><path class="cls-13" d="M311.1,147.6l7.1,4.1c1,.6,1,.9,0,1.4l-4.5,2.7a1.8,1.8,0,0,1-2.3-.1l-1.5-.8-3-1.8-2.6-1.5-1.9-1.1c-1-.5-1-.8-.1-1.4l4.5-2.5a2,2,0,0,1,2.5,0Z"/><path class="cls-13" d="M337.8,153.5l1.4.9c1,.5,1,.8.1,1.3l-4.5,2.6a2.1,2.1,0,0,1-2.6,0l-.8-.4-1.5-.9-1.6-1-.8-.4c-.9-.5-.9-.9-.1-1.4l4.6-2.6a2.1,2.1,0,0,1,2.4,0Z"/><path class="cls-13" d="M324.2,155.2l2.6,1.5c.6.4.6.7-.1,1.1l-4.8,2.8a1.7,1.7,0,0,1-2.1,0l-.8-.5-1.7-1-1.5-.9-1.1-.6h-.1c-.6-.4-.6-.7,0-1.1l5-2.9a1.9,1.9,0,0,1,1.8,0Z"/><path class="cls-13" d="M303.2,152.6l3.4,2,5.5,3.2c.9.5,1,.9.1,1.4l-4.5,2.6a2.3,2.3,0,0,1-2.5,0c-2.2-1.3-4.4-2.6-6.7-3.8l-4.3-2.6c-1.1-.6-1.1-.9,0-1.5l4.4-2.6a2,2,0,0,1,2.3,0Z"/><path class="cls-13" d="M345.4,158l2.7,1.6c.3.1.2.7-.1.8s-3.4,2.1-5.1,3a1.7,1.7,0,0,1-1.8,0l-1.2-.7-1.5-.8-1.7-1-.9-.5c-.7-.4-.6-.8,0-1.2l5-2.9a2.9,2.9,0,0,1,1.6,0Z"/><path class="cls-13" d="M332.3,159.8l3.1,1.9c.5.3.5.7-.1,1l-5,2.9a1.9,1.9,0,0,1-1.8,0h-.1l-1-.6-1.7-1-1.4-.9-1.1-.6h-.1c-.6-.3-.6-.7,0-1l5-2.9a1.7,1.7,0,0,1,1.9,0Z"/><path class="cls-13" d="M318.6,161.5l2.1,1.2c.9.6.9.9,0,1.4l-4.6,2.7a2.1,2.1,0,0,1-2.3,0l-1-.6-1.5-.9-1.3-.7-1.2-.7c-.7-.5-.7-.9,0-1.3l4.7-2.7a2,2,0,0,1,2.3,0Z"/><path class="cls-13" d="M355.5,163.7l.8.5c.7.4.8.8.1,1.2l-4.8,2.8a2,2,0,0,1-2.2,0l-3-1.7-2-1.2c-.8-.5-.8-.8,0-1.3l4.7-2.7a2.2,2.2,0,0,1,2.2,0l1,.6,1.5.9Z"/><path class="cls-13" d="M287.7,162.6l1.9,1.2c.8.4.7.7-.1,1.2l-3,1.7-2.9,1.7a1.8,1.8,0,0,1-2.2,0l-1.5-.8-.9-.6-1.3-.7-1.3-.8c-.7-.4-.8-.8-.2-1.2l6.3-3.6a1.9,1.9,0,0,1,1.8,0Z"/><path class="cls-13" d="M303,162l5.1,3c1,.5,1,.8,0,1.4l-4.4,2.5a2,2,0,0,1-2.5.1l-3.3-1.9-4.4-2.5-3.7-2.2-3.7-2.1c-1.2-.7-1.2-1,0-1.7l4.1-2.4a2.2,2.2,0,0,1,2.7,0Z"/><path class="cls-13" d="M341.7,165.3l2.1,1.2c.6.4.6.8-.1,1.2l-4.8,2.8a1.8,1.8,0,0,1-2,0h0l-1.1-.6-1.5-.8-1.5-.9-1-.6h-.1q-1.1-.6,0-1.2l4.9-2.9a2.1,2.1,0,0,1,1.9,0Z"/><path class="cls-13" d="M328.3,167.1l.9.6c.8.4.9.8.1,1.2l-4.8,2.8a2,2,0,0,1-2.2,0l-3.3-1.9-1.6-.9c-.9-.6-.9-.9,0-1.4l4.7-2.8a1.8,1.8,0,0,1,2,0l1.1.6,1.6.9Z"/><path class="cls-13" d="M296.3,167.6l1.8,1c.8.5.7.8-.1,1.3l-2.9,1.7-3.1,1.8a1.8,1.8,0,0,1-2,0l-2.9-1.7-2.4-1.4c-.6-.3-.6-.7,0-1l6.3-3.7a2.1,2.1,0,0,1,1.9,0l.5.4,1.3.7Z"/><path class="cls-13" d="M314.3,168.6l2.6,1.5c.6.3.6.7-.1,1l-4.9,2.9a1.7,1.7,0,0,1-1.9,0l-1.2-.6-1.4-.9-1.6-.9-1-.5h0c-.8-.4-.7-.8,0-1.2l4.8-2.8a1.7,1.7,0,0,1,1.9,0Z"/><path class="cls-13" d="M379.3,171.4l1.1.6c.7.5.8.9,0,1.3l-1.8,1a1.8,1.8,0,0,1-2.2,0l-1.2-.7-1.3-.7-1.4-.9-1-.6q-1.2-.6,0-1.2l1.7-1.1a2,2,0,0,1,2.1,0Z"/><path class="cls-13" d="M350.9,170.6l1.3.8q1.1.6,0,1.2l-4.7,2.7a1.8,1.8,0,0,1-2.2,0l-1-.6-1.5-.8-1.5-.9-1.1-.6h0c-.7-.4-.7-.8-.1-1.2l4.9-2.8a2,2,0,0,1,2.1,0Z"/><path class="cls-13" d="M333.7,170.3l1.5.8,1.7,1,.9.5q1.1.6,0,1.2l-4.6,2.7a2.1,2.1,0,0,1-2.6,0l-1.7-1-3.1-1.8c-.8-.5-.8-.8,0-1.3l4.7-2.7a1.9,1.9,0,0,1,2.3,0Z"/><path class="cls-13" d="M371.6,173l1.8,1.1c.6.3.6.7,0,1.1l-5,2.9a1.9,1.9,0,0,1-1.9,0l-1-.6-1.6-.9-1.5-.9-1-.5c-.9-.6-.9-.9,0-1.4l4.7-2.7a1.8,1.8,0,0,1,2,0Z"/><path class="cls-13" d="M304.5,172.3l2,1.2c.9.5.8.8-.1,1.3l-2.9,1.7a29.1,29.1,0,0,1-3,1.7,1.8,1.8,0,0,1-2.1.1l-2.9-1.7-2.1-1.2c-.9-.5-.9-.8,0-1.4l5.9-3.4a2,2,0,0,1,2.2,0Z"/><path class="cls-13" d="M321.8,172.9l3.6,2.1c.5.3.6.7-.1,1l-4.9,2.9a1.8,1.8,0,0,1-2,0l-1.1-.6-1.5-.9-1.6-.9-.9-.5h-.1q-1.1-.6,0-1.2l4.9-2.8a1.8,1.8,0,0,1,2,0Z"/><path class="cls-13" d="M387.1,175.9l2.1,1.2c.8.5.8.9,0,1.3l-1.8,1.1a2,2,0,0,1-2,0l-.9-.5a9.5,9.5,0,0,0-1.7-1l-1.5-.9-1-.6c-.8-.5-.8-.8,0-1.3l1.8-1a1.8,1.8,0,0,1,2,0Z"/><path class="cls-13" d="M357.8,174.6l3,1.7c.7.4.6.8-.1,1.2l-4.8,2.8a1.7,1.7,0,0,1-1.9,0h-.1l-1-.6-1.6-.9-1.5-.9-1.1-.7h-.1c-.6-.3-.6-.7.1-1l4.9-2.9a1.8,1.8,0,0,1,2,0Z"/><path class="cls-13" d="M343.5,175.9l2.6,1.5c.9.5.9.9,0,1.4l-4.6,2.7a2.1,2.1,0,0,1-2.3-.1l-1-.5-1.4-.9-1.5-.8-1-.6c-.8-.5-.8-.8,0-1.3l4.6-2.7a2,2,0,0,1,2.3,0Z"/><path class="cls-13" d="M377.8,176.6l1.5.9,1.6.9.9.5c.7.5.7.9,0,1.3l-4.7,2.7a2,2,0,0,1-2.3,0l-2.7-1.6-2.1-1.2c-1-.6-1-.8,0-1.5l4.5-2.5a2.1,2.1,0,0,1,2.3-.1Z"/><path class="cls-13" d="M329.7,177.4l4.1,2.5c.6.3.6.7,0,1l-4.9,2.9a1.8,1.8,0,0,1-2.1-.1l-1.1-.6-1.4-.8-1.6-.9-1-.6h0c-.6-.4-.7-.8-.1-1.1l5-2.9a1.7,1.7,0,0,1,1.9,0Z"/><path class="cls-13" d="M313.7,177.7l3.3,1.9c.9.5.9.8,0,1.3l-6,3.4a1.7,1.7,0,0,1-2.1,0l-1.4-.8-2.2-1.3-2.1-1.2-1.3-.7c-.9-.6-.9-.9,0-1.4l5.8-3.3a1.8,1.8,0,0,1,2.3-.1Z"/><path class="cls-13" d="M366.9,179.9l2.5,1.4c.5.3.5.7-.1,1l-5,2.9a1.5,1.5,0,0,1-1.8,0h-.1l-1.1-.7-1.5-.8-1.5-.9-1.1-.6h0c-.7-.3-.7-.7-.1-1l5.1-3a1.7,1.7,0,0,1,1.7,0Z"/><path class="cls-13" d="M350.5,179.9a9.5,9.5,0,0,0,1.7,1l1.7,1,.8.5c.7.4.7.8.1,1.2l-4.9,2.9a2.1,2.1,0,0,1-1.9,0l-2.9-1.7-2.6-1.5c-.5-.3-.5-.7.1-1l5-2.9a2,2,0,0,1,2,0Z"/><path class="cls-13" d="M339.5,183.1l2.8,1.6c.6.4.6.8,0,1.1l-4.9,2.9a2,2,0,0,1-2.1,0l-.8-.5-1.8-1-2.5-1.5q-1.1-.6,0-1.2l4.8-2.8a1.8,1.8,0,0,1,2,0Z"/><path class="cls-13" d="M402.7,184.9l1.6.9,2.5,1.5c.8.4.8.8.1,1.3l-2,1.1a1.9,1.9,0,0,1-1.8,0l-3.5-2-1.8-1.1c-.7-.4-.7-.8.1-1.2l1.8-1a1.6,1.6,0,0,1,2,0A3.1,3.1,0,0,1,402.7,184.9Z"/><path class="cls-13" d="M374.3,184.1l3.5,2c.7.4.6.8,0,1.2l-4.9,2.8a1.7,1.7,0,0,1-1.9,0h-.1l-1-.6-1.6-.9-1.6-.9-1-.6h0c-.7-.4-.7-.8-.1-1.2l5-2.8a2,2,0,0,1,2.1.1Z"/><path class="cls-13" d="M360,185.4l3.2,1.9q1.1.6,0,1.2l-4.7,2.7a2.1,2.1,0,0,1-2.4,0l-.8-.5-1.6-.9-1.5-.9-.9-.5c-.9-.5-.9-.8-.1-1.3l4.8-2.8a1.8,1.8,0,0,1,2.1.1Z"/><path class="cls-13" d="M396.4,187.4l2.4,1.4c.6.3.7.7,0,1.1l-4.8,2.8a2,2,0,0,1-2.2,0l-1.1-.6-1.4-.8-1.5-.9-1.1-.6c-.7-.4-.6-.8,0-1.2l4.9-2.8a2,2,0,0,1,2-.1Z"/><path class="cls-13" d="M349.7,189l1,.6q1.1.6,0,1.2l-4.8,2.8a2,2,0,0,1-2.1,0l-3.1-1.8-2-1.2q-1.2-.6,0-1.2l4.5-2.6a2.1,2.1,0,0,1,2.7,0l1.1.7,1.2.6Z"/><path class="cls-13" d="M413.4,191.1l2.2,1.3c.8.5.8.8,0,1.3l-1.7,1a2.2,2.2,0,0,1-2.2,0l-1-.6-1.5-.9-1.5-.8-1-.7c-.8-.4-.8-.8-.1-1.2l1.9-1.1a1.8,1.8,0,0,1,2,0Z"/><path class="cls-13" d="M384,189.7l2.4,1.4c.5.3.5.7-.1,1.1l-4.9,2.8a1.8,1.8,0,0,1-2,0l-1.3-.8-1.4-.7-2.4-1.4c-.8-.5-.9-.8,0-1.2l4.8-2.9a1.9,1.9,0,0,1,1.9,0Z"/><path class="cls-13" d="M369.9,191.2l1.7.9c.8.5.8.8,0,1.3l-4.7,2.7a1.8,1.8,0,0,1-2.2,0l-1-.6-1.6-.8-1.4-.9-1-.6c-.7-.4-.8-.8,0-1.2l4.8-2.8a2,2,0,0,1,2.1,0Z"/><path class="cls-13" d="M405.2,192.4l2,1.2c.8.5.8.8,0,1.3s-3,1.8-4.6,2.6a1.9,1.9,0,0,1-2.4.1l-.9-.6-1.5-.9-1.5-.8-1-.6c-.8-.4-.8-.8-.1-1.2l4.8-2.8a2,2,0,0,1,2.1,0Z"/><path class="cls-13" d="M358.2,193.9l.9.6c.7.4.9.8.1,1.2l-4.8,2.8a2,2,0,0,1-2.1,0l-1-.6-1.6-.9-1.4-.8-1-.6c-.8-.5-.9-.8-.1-1.3l4.8-2.8a1.8,1.8,0,0,1,2,0l1.2.7,1.2.7Z"/><path class="cls-13" d="M376.6,195l3.6,2.1c.6.4.6.7.1,1.1l-5.2,3a1.9,1.9,0,0,1-1.8-.1l-1-.6-1.7-.9-1.4-.9-1.1-.6c-.7-.4-.7-.8,0-1.1l4.9-2.9a1.8,1.8,0,0,1,2,0Z"/><path class="cls-13" d="M412,196.3l3.9,2.4c.6.3.5.7-.1,1l-4.9,2.9a1.8,1.8,0,0,1-2,0l-2.6-1.5-1.5-.9-1.1-.6h0c-.6-.4-.7-.8,0-1.2l5-2.9a1.9,1.9,0,0,1,1.9,0Z"/><path class="cls-13" d="M364.5,197.6l3.3,1.8c.6.4.6.8-.1,1.1l-4.9,2.9a1.8,1.8,0,0,1-2,0l-1.3-.8-1.3-.7-2.6-1.5c-.7-.4-.6-.8,0-1.2l4.9-2.8a1.7,1.7,0,0,1,1.9,0Z"/><path class="cls-13" d="M386.5,200.7l2,1.2c.9.5.9.8.1,1.3l-4.8,2.8a1.8,1.8,0,0,1-2,0l-2.6-1.5-1.7-1-.9-.5q-1.1-.6,0-1.2l4.8-2.7a1.8,1.8,0,0,1,2.2,0Z"/><path class="cls-13" d="M375.3,203.7l.9.5c.7.5.7.9-.1,1.3l-4.6,2.7a2,2,0,0,1-2.3,0l-1-.5-1.5-.9-1.5-.9-1-.5c-.8-.5-.8-.8-.1-1.3l4.8-2.7a1.8,1.8,0,0,1,2.2,0Z"/><path class="cls-13" d="M410.4,205l1.3.7c.7.4.7.8,0,1.3l-4.7,2.7a1.8,1.8,0,0,1-2.2,0l-1-.6-1.5-.9-1.6-.9-1-.6h0c-.6-.3-.7-.7,0-1.1l5-2.9a1.9,1.9,0,0,1,1.8,0Z"/><path class="cls-13" d="M396,206.2l1.1.6c.8.5.8.8,0,1.3l-4.8,2.8a2,2,0,0,1-2.1,0l-.7-.4-1.6-1-1.4-.7-1.3-.8c-.9-.5-.9-.8,0-1.3l4.7-2.8a2,2,0,0,1,2.1,0l.9.5,1.7,1Z"/><path class="cls-13" d="M383.6,208.6l1.1.6c.6.4.7.8-.1,1.2l-4.7,2.8a2,2,0,0,1-2.1,0l-2.5-1.4-2.7-1.6c-.7-.4-.6-.9.1-1.3l4.8-2.7a1.7,1.7,0,0,1,1.9,0l1.1.6,1.6.9Z"/><path class="cls-13" d="M401.5,209.4l1.6.9,1.5.9,1,.6h0c.7.4.7.7,0,1.1l-4.8,2.9a2,2,0,0,1-2.1,0l-5.1-3c-.7-.4-.8-.8,0-1.2l4.8-2.8a2,2,0,0,1,2.1,0Z"/><path class="cls-13" d="M389.4,211.9l3.7,2.2c.7.4.8.7,0,1.2l-4.8,2.8a1.8,1.8,0,0,1-2,0,4.1,4.1,0,0,1-1.1-.7l-1.5-.8-1.5-.8-1.1-.7q-1.1-.6,0-1.2l4.7-2.7a1.9,1.9,0,0,1,2.3,0Z"/><path class="cls-13" d="M408.3,222.8l3.8,2.2c1,.6,1,.8,0,1.4l-4.5,2.7a2.1,2.1,0,0,1-2.4,0l-7.6-4.5-7.7-4.4c-1.1-.7-1.1-.9,0-1.6l4.3-2.5a2.3,2.3,0,0,1,2.5,0l3.3,2,4.4,2.5Z"/></g><path class="cls-13" d="M390.8,222.2l4.6,2.7c1,.5,1,.9,0,1.4l-2.8,1.7-2.9,1.7a2,2,0,0,1-2.3,0l-2.1-1.3-2.9-1.6c-.8-.5-.8-.8.1-1.3l5.7-3.3A1.9,1.9,0,0,1,390.8,222.2Z"/><path class="cls-13" d="M381.7,221.6l1.2.7c1,.6.9.9-.1,1.4a9.5,9.5,0,0,1-1.7,1,2,2,0,0,1-2.2.1l-1-.6-1.6-1-1.4-.8-1.1-.6h0c-.6-.4-.7-.7-.1-1.1l2.3-1.3a2.1,2.1,0,0,1,1.9,0C379.1,220.2,380.4,220.9,381.7,221.6Z"/><path class="cls-13" d="M373.5,212.2h.1l2.2,1.3.7.4,2.1,1.2c.8.5.8.8,0,1.3l-3,1.7-3,1.8a1.8,1.8,0,0,1-2,0c-1.4-.7-2.7-1.5-4-2.3l-1.3-.7c-.7-.4-.6-.8,0-1.2l6.1-3.5A2,2,0,0,1,373.5,212.2Z"/><path class="cls-13" d="M364.7,207.1l1.8,1,2.2,1.3,1.4.8c.8.5.8.9,0,1.3l-6,3.5a1.8,1.8,0,0,1-2,0l-4.6-2.6-2.9-1.7c-.6-.3-.6-.7.1-1.1l6.1-3.6a2,2,0,0,1,2.1.1Z"/><path class="cls-13" d="M330.3,187.3l9.6,5.5,19.3,11.1c1.1.7,1.1.9,0,1.6l-5.5,3.2a2.1,2.1,0,0,1-2.6,0l-1.1-.6-1-.6-36.4-21c-1-.6-1-.9,0-1.5l5.6-3.3a2,2,0,0,1,2.5,0Z"/><path class="cls-13" d="M318.2,142.2l1.7,1,1.4.8,1,.6c.9.5.9.8.1,1.3l-4.7,2.7a2,2,0,0,1-2.3,0l-3.2-1.8-1.8-1.1c-.7-.4-.8-.8,0-1.2l4.8-2.8a2,2,0,0,1,2.1,0Z"/><path class="cls-13" d="M399.7,198.7l3.5,2.1c.8.5.8.8,0,1.3l-4.7,2.7a1.7,1.7,0,0,1-2.1,0l-1.1-.6-1.5-.9-.3-.2-.6-.3-.8-.5-.9-.5h0c-.7-.4-.6-.7-.1-1.1l4.8-2.8a2.3,2.3,0,0,1,2.4,0Z"/><path class="cls-13" d="M360.7,166.7l1.6,1,1.7,1,.8.4c.7.4.8.8.1,1.3l-4.9,2.8a2,2,0,0,1-2.1,0l-5.1-3q-1.1-.6,0-1.2l4.9-2.9a2.1,2.1,0,0,1,2,.1Z"/><path class="cls-13" d="M421.6,201.9l2.7,1.6c.6.3.7.7,0,1.1l-4.9,2.9a2,2,0,0,1-2,0l-1.1-.6-1.5-.9-1.6-.9-1-.6c-.7-.5-.7-.8.1-1.3l4.6-2.7a2,2,0,0,1,2.3,0Z"/><path class="cls-13" d="M352,155.7l2.1,1.2c.6.3.7.7,0,1.1l-1.8,1.1a2,2,0,0,1-2.2,0l-1.1-.6-1.4-.9-1.6-.9-.9-.5c-.8-.5-.8-.8,0-1.3l1.8-1.1a2.3,2.3,0,0,1,2,0Z"/><path class="cls-13" d="M345,151.6c1.1.6,1.1.9.1,1.5l-1.8,1a4,4,0,0,1-1.5.1l-3.3-1.8-2.5-1.5a.5.5,0,0,1,0-.8,13.8,13.8,0,0,1,2.4-1.4,1.7,1.7,0,0,1,1.7.1l1.3.7,1.3.7Z"/><path class="cls-13" d="M336.5,146.7q1,.6,0,1.2l-1.9,1.1a1.9,1.9,0,0,1-1.8.1l-3.5-2-2-1.2c-.6-.3-.6-.7,0-1.1l2-1.1a1.8,1.8,0,0,1,2,0l2.6,1.5Z"/><path class="cls-13" d="M324.6,139.8l3.2,1.9c.6.3.6.7-.1,1.1l-1.9,1.1a1.8,1.8,0,0,1-2,0l-1-.6-1.6-.9-2.5-1.4c-.8-.5-.8-.9-.1-1.3l1.9-1.1a1.8,1.8,0,0,1,2,0Z"/><path class="cls-13" d="M438.2,205.4l1.3.7,1.5.9,1.1.7c.7.4.6.7,0,1.1l-2,1.2a1.9,1.9,0,0,1-1.8,0l-3.8-2.2-1.5-.9c-.7-.3-.7-.8,0-1.2l1.9-1a1.8,1.8,0,0,1,2,0Z"/><path class="cls-13" d="M393.3,179.5h0l.8.4,1.5.9,1.6,1,.9.5c.6.3.7.7,0,1.1a11.8,11.8,0,0,1-1.9,1.1,1.8,1.8,0,0,1-2,0l-3.8-2.1-1.4-.8c-.7-.4-.7-.9.1-1.3l1.5-.9A2.1,2.1,0,0,1,393.3,179.5Z"/></g><polygon class="cls-15" points="355.1 220.8 317.7 242.6 261.3 210 298.7 188.3 355.1 220.8"/><g class="cls-14"><g class="cls-14"><g class="cls-14"><path class="cls-1" d="M250.9,86a1.3,1.3,0,0,0,.1.6V87l.2.8.2.4a1.9,1.9,0,0,0,.3.8,2.5,2.5,0,0,0,.4.8,2.6,2.6,0,0,0,.5.8c0,.1.1.2.2.3l.3.4.3.3.3.3c.1.1.4.3.5.5l.7.4a1.1,1.1,0,0,0-1.1.1,7.8,7.8,0,0,1-3.5-6.1A.9.9,0,0,0,250.9,86Z"/><g class="cls-16"><g class="cls-14"><path class="cls-1" d="M252.1,89.8a7.8,7.8,0,0,1-1.2-3.8.9.9,0,0,1-.6.8,7.8,7.8,0,0,0,3.5,6.1,1.1,1.1,0,0,1,1.1-.1A7.7,7.7,0,0,1,252.1,89.8Z"/><path class="cls-1" d="M254.3,92.4c-.1-.1-.3-.2-.3-.3l-.3-.2-.3-.3-.3-.3-.3-.4-.2-.3-.3-.4-.2-.4a.5.5,0,0,1-.2-.4l-.2-.4c-.1-.1-.1-.2-.2-.4v-.4l-.2-.4v-.4a.8.8,0,0,0-.1-.4v-.3c0-.1-.1-.3-.1-.4V86a.9.9,0,0,1-.6.8,7.4,7.4,0,0,0,1,3.5l.3.4h0a7.3,7.3,0,0,0,2.2,2.1,1.1,1.1,0,0,1,1.1-.1l-.4-.2Z"/><path class="cls-1" d="M254.3,92.4c-.1-.1-.3-.2-.3-.3l-.3-.2-.3-.3-.3-.3-.3-.4-.2-.3-.3-.4-.2-.4a.5.5,0,0,1-.2-.4l-.2-.4c-.1-.1-.1-.2-.2-.4v-.4l-.2-.4v-.4a.8.8,0,0,0-.1-.4v-.3c0-.1-.1-.3-.1-.4V86a.9.9,0,0,1-.6.8,6.2,6.2,0,0,0,.9,3.2c0,.1.3.4.6,1.1h0a8.4,8.4,0,0,0,2,1.8,1.1,1.1,0,0,1,1.1-.1l-.4-.2Z"/><path class="cls-1" d="M254.3,92.4c-.1-.1-.3-.2-.3-.3l-.3-.2-.3-.3-.3-.3-.3-.4-.2-.3-.3-.4-.2-.4a.5.5,0,0,1-.2-.4l-.2-.4c-.1-.1-.1-.2-.2-.4v-.4l-.2-.4v-.4a.8.8,0,0,0-.1-.4v-.3c0-.1-.1-.3-.1-.4V86a.9.9,0,0,1-.6.8,6.7,6.7,0,0,0,.8,3l.9,1.5h0a5.5,5.5,0,0,0,1.8,1.6,1.1,1.1,0,0,1,1.1-.1l-.4-.2Z"/><path class="cls-1" d="M254.3,92.4c-.1-.1-.3-.2-.3-.3l-.3-.2-.3-.3-.3-.3-.3-.4-.2-.3-.3-.4-.2-.4a.5.5,0,0,1-.2-.4l-.2-.4c-.1-.1-.1-.2-.2-.4v-.4l-.2-.4v-.4a.8.8,0,0,0-.1-.4v-.3c0-.1-.1-.3-.1-.4V86a.9.9,0,0,1-.6.8,5.8,5.8,0,0,0,.7,2.8,7.2,7.2,0,0,1,1.1,1.8h0a5.5,5.5,0,0,0,1.7,1.4,1.1,1.1,0,0,1,1.1-.1l-.4-.2Z"/><path class="cls-1" d="M254.3,92.4c-.1-.1-.3-.2-.3-.3l-.3-.2-.3-.3-.3-.3-.3-.4-.2-.3-.3-.4-.2-.4a.5.5,0,0,1-.2-.4l-.2-.4c-.1-.1-.1-.2-.2-.4v-.4l-.2-.4v-.4a.8.8,0,0,0-.1-.4v-.3c0-.1-.1-.3-.1-.4V86a.9.9,0,0,1-.6.8,6.6,6.6,0,0,0,.6,2.7,4.6,4.6,0,0,1,1.3,2h.1a6.1,6.1,0,0,0,1.5,1.3,1.1,1.1,0,0,1,1.1-.1l-.4-.2Z"/><path class="cls-1" d="M254.3,92.4c-.1-.1-.3-.2-.3-.3l-.3-.2-.3-.3-.3-.3-.3-.4-.2-.3-.3-.4-.2-.4a.5.5,0,0,1-.2-.4l-.2-.4c-.1-.1-.1-.2-.2-.4v-.4l-.2-.4v-.4a.8.8,0,0,0-.1-.4v-.3c0-.1-.1-.3-.1-.4V86a.9.9,0,0,1-.6.8,7.4,7.4,0,0,0,.5,2.5,7.2,7.2,0,0,1,1.6,2.4h0l1.4,1.1a1.1,1.1,0,0,1,1.1-.1l-.4-.2Z"/><path class="cls-1" d="M254.3,92.4c-.1-.1-.3-.2-.3-.3l-.3-.2-.3-.3-.3-.3-.3-.4-.2-.3-.3-.4-.2-.4a.5.5,0,0,1-.2-.4l-.2-.4c-.1-.1-.1-.2-.2-.4v-.4l-.2-.4v-.4a.8.8,0,0,0-.1-.4v-.3c0-.1-.1-.3-.1-.4V86a.9.9,0,0,1-.6.8,5.9,5.9,0,0,0,.5,2.3,7.7,7.7,0,0,1,1.7,2.7h0l1.3,1a1.1,1.1,0,0,1,1.1-.1l-.4-.2Z"/><path class="cls-1" d="M254.3,92.4c-.1-.1-.3-.2-.3-.3l-.3-.2-.3-.3-.3-.3-.3-.4-.2-.3-.3-.4-.2-.4a.5.5,0,0,1-.2-.4l-.2-.4c-.1-.1-.1-.2-.2-.4v-.4l-.2-.4v-.4a.8.8,0,0,0-.1-.4v-.3c0-.1-.1-.3-.1-.4V86a.9.9,0,0,1-.6.8,6,6,0,0,0,.4,2.2,6.6,6.6,0,0,1,2,3h0l1.1.8a1.1,1.1,0,0,1,1.1-.1l-.4-.2Z"/><path class="cls-1" d="M254.3,92.4c-.1-.1-.3-.2-.3-.3l-.3-.2-.3-.3-.3-.3-.3-.4-.2-.3-.3-.4-.2-.4a.5.5,0,0,1-.2-.4l-.2-.4c-.1-.1-.1-.2-.2-.4v-.4l-.2-.4v-.4a.8.8,0,0,0-.1-.4v-.3c0-.1-.1-.3-.1-.4V86a.9.9,0,0,1-.6.8,6.9,6.9,0,0,0,.3,2,8.2,8.2,0,0,1,2.3,3.3h0l.9.7a1.1,1.1,0,0,1,1.1-.1l-.4-.2Z"/><path class="cls-1" d="M254.3,92.4c-.1-.1-.3-.2-.3-.3l-.3-.2-.3-.3-.3-.3-.3-.4-.2-.3-.3-.4-.2-.4a.5.5,0,0,1-.2-.4l-.2-.4c-.1-.1-.1-.2-.2-.4v-.4l-.2-.4v-.4a.8.8,0,0,0-.1-.4v-.3c0-.1-.1-.3-.1-.4V86a.9.9,0,0,1-.6.8,5.7,5.7,0,0,0,.3,1.8c.5.1,2.6,3.2,2.4,3.7h0l.8.6a1.1,1.1,0,0,1,1.1-.1l-.4-.2Z"/><path class="cls-1" d="M254.3,92.4c-.1-.1-.3-.2-.3-.3l-.3-.2-.3-.3-.3-.3-.3-.4-.2-.3-.3-.4-.2-.4a.5.5,0,0,1-.2-.4l-.2-.4c-.1-.1-.1-.2-.2-.4v-.4l-.2-.4v-.4a.8.8,0,0,0-.1-.4v-.3c0-.1-.1-.3-.1-.4V86a.9.9,0,0,1-.6.8,8.8,8.8,0,0,0,.2,1.6c.3,0,.5.2.8.7,2,3,2,3,1.9,3.3h0l.6.4a1.1,1.1,0,0,1,1.1-.1l-.4-.2Z"/><path class="cls-1" d="M254.3,92.4c-.1-.1-.3-.2-.3-.3l-.3-.2-.3-.3-.3-.3-.3-.4-.2-.3-.3-.4-.2-.4a.5.5,0,0,1-.2-.4l-.2-.4c-.1-.1-.1-.2-.2-.4v-.4l-.2-.4v-.4a.8.8,0,0,0-.1-.4v-.3c0-.1-.1-.3-.1-.4V86a.9.9,0,0,1-.6.8,6.8,6.8,0,0,0,.2,1.4c.1,0,.3,0,.7.5,2.3,3.6,2.3,3.6,2.1,3.8h0l.5.3a1.1,1.1,0,0,1,1.1-.1l-.4-.2Z"/><path class="cls-1" d="M254.3,92.4c-.1-.1-.3-.2-.3-.3l-.3-.2-.3-.3-.3-.3-.3-.4-.2-.3-.3-.4-.2-.4a.5.5,0,0,1-.2-.4l-.2-.4c-.1-.1-.1-.2-.2-.4v-.4l-.2-.4v-.4a.8.8,0,0,0-.1-.4v-.3c0-.1-.1-.3-.1-.4V86a.9.9,0,0,1-.6.8,4.9,4.9,0,0,0,.1,1.2c.2,0,.4,0,.7.5l1.1,1.9a10.4,10.4,0,0,1,1.2,1.7.5.5,0,0,1,.1.6h0l.3.2a1.1,1.1,0,0,1,1.1-.1l-.4-.2Z"/><path class="cls-1" d="M254.3,92.4c-.1-.1-.3-.2-.3-.3l-.3-.2-.3-.3-.3-.3-.3-.4-.2-.3-.3-.4-.2-.4a.5.5,0,0,1-.2-.4l-.2-.4c-.1-.1-.1-.2-.2-.4v-.4l-.2-.4v-.4a.8.8,0,0,0-.1-.4v-.3c0-.1-.1-.3-.1-.4V86a.9.9,0,0,1-.6.8,4.1,4.1,0,0,0,.1,1.1q.3-.2.6.3c.5.7.8,1.5,1.2,2.1l1.4,1.9c.2.3.1.4,0,.6h.2a1.1,1.1,0,0,1,1.1-.1l-.4-.2Z"/><path class="cls-1" d="M254.3,92.4c-.1-.1-.3-.2-.3-.3l-.3-.2-.3-.3-.3-.3-.3-.4-.2-.3-.3-.4-.2-.4a.5.5,0,0,1-.2-.4l-.2-.4c-.1-.1-.1-.2-.2-.4v-.4l-.2-.4v-.4a.8.8,0,0,0-.1-.4v-.3c0-.1-.1-.3-.1-.4V86a.9.9,0,0,1-.6.8,2.8,2.8,0,0,0,.1.9h0a.4.4,0,0,1,.5.2,23.9,23.9,0,0,1,1.2,2.2c.5.8,1.2,1.4,1.7,2.2a.6.6,0,0,1,0,.6h0a1.1,1.1,0,0,1,1.1-.1l-.4-.2Z"/><path class="cls-1" d="M254.3,92.4c-.1-.1-.3-.2-.3-.3l-.3-.2-.3-.3-.3-.3-.3-.4-.2-.3-.3-.4-.2-.4a.5.5,0,0,1-.2-.4l-.2-.4c-.1-.1-.1-.2-.2-.4v-.4l-.2-.4v-.4a.8.8,0,0,0-.1-.4v-.3c0-.1-.1-.3-.1-.4V86a.9.9,0,0,1-.6.8v.7c.3,0,.4,0,.6.3s.9,1.7,1.4,2.5,1.2,1.4,1.7,2.2,0,.2,0,.3h.9l-.4-.2Z"/><path class="cls-1" d="M254.3,92.4c-.1-.1-.3-.2-.3-.3l-.3-.2-.3-.3-.3-.3-.3-.4-.2-.3-.3-.4-.2-.4a.5.5,0,0,1-.2-.4l-.2-.4c-.1-.1-.1-.2-.2-.4v-.4l-.2-.4v-.4a.8.8,0,0,0-.1-.4v-.3c0-.1-.1-.3-.1-.4V86a.9.9,0,0,1-.6.8v.5a.6.6,0,0,1,.6.3,16.3,16.3,0,0,1,1.1,2.3,13,13,0,0,0,1.7,2.2c.2.1.3.3.4.4s.1.1.1.2h.7l-.4-.2Z"/><path class="cls-1" d="M254.3,92.4c-.1-.1-.3-.2-.3-.3l-.3-.2-.3-.3-.3-.3-.3-.4-.2-.3-.3-.4-.2-.4a.5.5,0,0,1-.2-.4l-.2-.4c-.1-.1-.1-.2-.2-.4v-.4l-.2-.4v-.4a.8.8,0,0,0-.1-.4v-.3c0-.1-.1-.3-.1-.4V86a.9.9,0,0,1-.6.8v.4c.5-.1.6.1.9.9a14.5,14.5,0,0,0,1.7,3.1l1.4,1.5h.6l-.4-.2Z"/><path class="cls-1" d="M252.8,90.9l-.2-.3-.3-.4-.2-.4a.5.5,0,0,1-.2-.4l-.2-.4c-.1-.1-.1-.2-.2-.4v-.4l-.2-.4v-.4a.8.8,0,0,0-.1-.4v-.3c0-.1-.1-.3-.1-.4V86a.9.9,0,0,1-.6.8V87c.4-.1.4-.1,1.2,1.7a13.1,13.1,0,0,0,1.1,2l.8.9-.3-.3Z"/><path class="cls-1" d="M253.4,91.6l.3.3h0l-.3-.3Z"/><path class="cls-1" d="M254.3,92.4c-.1-.1-.3-.2-.3-.3l-.3-.2.7.8h.5l-.4-.2Z"/><path class="cls-1" d="M254.3,92.4c-.1-.1-.3-.2-.3-.3l-.3-.2-.3-.3-.3-.3-.3-.4-.2-.3-.3-.4-.2-.4a.5.5,0,0,1-.2-.4l-.2-.4c-.1-.1-.1-.2-.2-.4v-.4l-.2-.4v-.4a.8.8,0,0,0-.1-.4v-.3c0-.1-.1-.3-.1-.4V86a.9.9,0,0,1-.6.8c.5-.1.5.1.8.8a9.7,9.7,0,0,0,3.4,5.1h.4l-.4-.2Z"/><path class="cls-1" d="M254.3,92.4c-.1-.1-.3-.2-.3-.3l-.3-.2-.3-.3-.3-.3-.3-.4-.2-.3-.3-.4-.2-.4a.5.5,0,0,1-.2-.4l-.2-.4c-.1-.1-.1-.2-.2-.4v-.4l-.2-.4v-.4a.8.8,0,0,0-.1-.4v-.3c0-.1-.1-.3-.1-.4V86a.9.9,0,0,1-.3.6c.2,0,.3.3.4.7,1.2,4,3.6,5.4,3.6,5.4h.3l-.4-.2Z"/><path class="cls-1" d="M251.5,88.6c.1.2.1.3.2.4l.2.4h0a3,3,0,0,1-.4-1Z"/><path class="cls-1" d="M251.5,88.5h0Z"/><path class="cls-1" d="M251.1,87.4a.8.8,0,0,0-.1-.4v-.3c0-.1-.1-.3-.1-.4V86a.6.6,0,0,1-.2.5q.2,0,.3.6l.3,1.1a.6.6,0,0,0-.1-.4Z"/><path class="cls-1" d="M251.4,88.2v.3a.4.4,0,0,0-.1-.3Z"/><path class="cls-1" d="M254.3,92.4c-.1-.1-.3-.2-.3-.3l-.3-.2-.3-.3-.3-.3-.3-.4-.2-.3-.3-.4-.2-.4-.2-.3a8.1,8.1,0,0,0,2.8,3.2h.2l-.4-.2Z"/><path class="cls-1" d="M253,91.2a.3.3,0,0,0-.1-.2A.3.3,0,0,1,253,91.2Z"/><path class="cls-1" d="M252.8,90.9h0Z"/><path class="cls-1" d="M253.1,91.3Z"/><path class="cls-1" d="M253.4,91.6Z"/><path class="cls-1" d="M253.4,91.5l-.3-.2Z"/><path class="cls-1" d="M254.3,92.4c-.1-.1-.3-.2-.3-.3l-.3-.2-.3-.3a6.1,6.1,0,0,0,1.4,1.1h.1l-.4-.2Z"/><polygon class="cls-1" points="252.3 90.2 252.3 90.2 252.3 90.2 252.3 90.2"/><path class="cls-1" d="M251.9,89.4l-.2-.4c-.1-.1-.1-.2-.2-.4v-.4l-.2-.4v-.4a.8.8,0,0,0-.1-.4v-.3a1.5,1.5,0,0,1-.1-.7.4.4,0,0,1-.1.3c.1.1.1.2.2.5a8.8,8.8,0,0,0,1.2,3.3.1.1,0,0,1,.1.1l-.2-.4A.5.5,0,0,1,251.9,89.4Z"/><path class="cls-1" d="M252.8,90.9l-.2-.3Z"/><path class="cls-1" d="M252.6,90.6Z"/><path class="cls-1" d="M252.5,90.5l-.2-.3Z"/><path class="cls-1" d="M251.4,88.2h0Z"/><path class="cls-1" d="M251.4,88.4v-.1Z"/><path class="cls-1" d="M251.2,87.8Z"/><path class="cls-1" d="M251.3,88.2a.8.8,0,0,0-.1-.4A.8.8,0,0,1,251.3,88.2Z"/><path class="cls-1" d="M251,87v-.3c0-.1-.1-.3-.1-.4v.2a11.1,11.1,0,0,0,.3,1.3v-.4A.8.8,0,0,0,251,87Z"/><path class="cls-1" d="M254.8,92.8h0Z"/><path class="cls-1" d="M250.9,86.3V86h0a3.7,3.7,0,0,1,.1.8h0v-.3C251,86.6,250.9,86.4,250.9,86.3Z"/><path class="cls-1" d="M250.9,86h0Z"/></g></g></g><g class="cls-14"><path class="cls-1" d="M249.9,87l.4-.2a7.8,7.8,0,0,0,3.5,6.1l-.4.2A7.8,7.8,0,0,1,249.9,87Z"/><g class="cls-17"><g class="cls-14"><path class="cls-1" d="M249.9,87v.2l.4-.2v-.2Z"/><path class="cls-1" d="M249.9,87.2v.2l.3-.2V87Z"/><path class="cls-1" d="M250,87.4h0l.3-.2h0Z"/><path class="cls-1" d="M250,87.5v.2l.3-.2v-.2Z"/><path class="cls-1" d="M250,87.7v.2l.4-.2c0-.1-.1-.1-.1-.2Z"/><path class="cls-1" d="M250,87.9v.2l.4-.2v-.2Z"/><path class="cls-1" d="M250,88.1a.1.1,0,0,1,.1.1l.3-.2h0Z"/><path class="cls-1" d="M250.1,88.2v.2l.4-.2V88Z"/><path class="cls-1" d="M250.1,88.4v.2l.3-.2v-.2Z"/><path class="cls-1" d="M250.2,88.6v.2l.4-.2v-.2Z"/><path class="cls-1" d="M250.2,88.8c0,.1.1.1.1.2l.3-.2v-.2Z"/><path class="cls-1" d="M250.3,89v.2l.4-.2c0-.1,0-.2-.1-.2Z"/><path class="cls-1" d="M250.3,89.2h.1l.4-.2h-.1Z"/><path class="cls-1" d="M250.4,89.3c0,.1.1.1.1.2l.3-.2v-.2Z"/><path class="cls-1" d="M250.5,89.5v.2l.4-.2v-.2Z"/><path class="cls-1" d="M250.5,89.7h.1l.4-.2h-.1Z"/><path class="cls-1" d="M250.6,89.8V90l.4-.2c-.1,0-.1-.1-.1-.2Z"/><path class="cls-1" d="M250.7,90a.3.3,0,0,1,.1.2l.4-.2c-.1,0-.1-.1-.1-.2Z"/><path class="cls-1" d="M250.8,90.2l.2.3.4-.2-.2-.3Z"/><path class="cls-1" d="M251,90.5l.3.5.3-.2c-.1-.2-.2-.3-.2-.5Z"/><path class="cls-1" d="M251.3,91l.2.3.3-.2-.2-.3Z"/><path class="cls-1" d="M251.5,91.3c0,.1.1.1.1.2l.4-.2-.2-.2Z"/><path class="cls-1" d="M251.6,91.5l.2.2.3-.2v-.2Z"/><path class="cls-1" d="M251.8,91.7h.1l.4-.2h-.2Z"/><path class="cls-1" d="M251.9,91.8V92l.4-.2c0-.1-.1-.1-.1-.2Z"/><path class="cls-1" d="M252,92h.2l.3-.2a.1.1,0,0,0-.1-.1Z"/><path class="cls-1" d="M252.2,92.1c0,.1.1.1.1.2l.4-.2-.2-.2Z"/><path class="cls-1" d="M252.3,92.3h.2l.4-.2h-.2Z"/><path class="cls-1" d="M252.5,92.4h.2l.3-.2h-.1Z"/><path class="cls-1" d="M252.7,92.5c0,.1.1.1.1.2l.4-.2-.2-.2Z"/><path class="cls-1" d="M252.8,92.7h.2l.3-.2h-.1Z"/><path class="cls-1" d="M253,92.8h.1l.4-.2h-.2Z"/><path class="cls-1" d="M253.1,92.9h.2l.3-.2h-.1Z"/><path class="cls-1" d="M253.3,93h.1l.4-.2h-.2Z"/><path class="cls-1" d="M253.4,93.1h0l.4-.2h0Z"/></g></g></g><g class="cls-14"><path class="cls-1" d="M252.4,96.2l-.5-.3-.5-.4-.8-.7-.5-.4-.7-.9L249,93l-.6-1-.3-.5-.3-.6c-.1-.1-.1-.4-.2-.5a4.3,4.3,0,0,1-.4-1.1l-.2-.6a4.3,4.3,0,0,0-.2-1.1V86.4a.8.8,0,0,0,.4.7,10.6,10.6,0,0,0,4.8,8.3A1,1,0,0,0,252.4,96.2Z"/><g class="cls-18"><g class="cls-14"><path class="cls-1" d="M252,95.4a10.6,10.6,0,0,1-4.8-8.3.8.8,0,0,1-.4-.7,10.9,10.9,0,0,0,1.6,5.6,11.2,11.2,0,0,0,4,4.2A1,1,0,0,1,252,95.4Z"/></g></g></g><g class="cls-14"><path class="cls-1" d="M247.2,87.1a2.9,2.9,0,0,0,2.7-.1,7.8,7.8,0,0,0,3.5,6.1,3.3,3.3,0,0,0-1.4,2.3A10.6,10.6,0,0,1,247.2,87.1Z"/><g class="cls-19"><g class="cls-14"><path class="cls-1" d="M249.9,87a2.9,2.9,0,0,1-2.7.1,10.6,10.6,0,0,0,4.8,8.3,3.3,3.3,0,0,1,1.4-2.3A7.8,7.8,0,0,1,249.9,87Z"/><path class="cls-1" d="M251.3,91c.2.4.5,1.1.2,1.3s-2-1.4-1.7-2.4.2-.7,1.2.6h0a6.6,6.6,0,0,1-1.1-3.5,2.9,2.9,0,0,1-2.7.1,10.6,10.6,0,0,0,4.8,8.3,3.3,3.3,0,0,1,1.4-2.3A7,7,0,0,1,251.3,91Z"/><path class="cls-1" d="M251.5,91.3c.1.3.4.8.1,1s-2-1.3-1.9-2.3.1-.9,1,.1h.1a7.3,7.3,0,0,1-.9-3.2,2.9,2.9,0,0,1-2.7.1,10.6,10.6,0,0,0,4.8,8.3,3.3,3.3,0,0,1,1.4-2.3A6.4,6.4,0,0,1,251.5,91.3Z"/><path class="cls-1" d="M251.6,91.5c.1.2.3.6.1.9s-2.1-1.1-2-2.4,0-1,.9-.1h.1a6.7,6.7,0,0,1-.8-3,2.9,2.9,0,0,1-2.7.1,10.6,10.6,0,0,0,4.8,8.3,3.3,3.3,0,0,1,1.4-2.3A8.6,8.6,0,0,1,251.6,91.5Z"/><path class="cls-1" d="M251.8,91.7c0,.1.2.5,0,.7s-2.1-.9-2.2-2.3.3-.9.9-.4h.1a7.2,7.2,0,0,1-.7-2.8,2.9,2.9,0,0,1-2.7.1,10.6,10.6,0,0,0,4.8,8.3,3.3,3.3,0,0,1,1.4-2.3A5.2,5.2,0,0,1,251.8,91.7Z"/><path class="cls-1" d="M251.9,91.8a.6.6,0,0,1,0,.6c-.6.7-2.3-1.1-2.3-2.4s.2-1,.9-.4h0a8.8,8.8,0,0,1-.6-2.7,2.9,2.9,0,0,1-2.7.1,10.6,10.6,0,0,0,4.8,8.3,3.3,3.3,0,0,1,1.4-2.3A8.7,8.7,0,0,1,251.9,91.8Z"/><path class="cls-1" d="M252,92a.5.5,0,0,1,0,.5c-.5.7-2.1-.8-2.4-2.2s.1-1.3.8-.9h.1a5.7,5.7,0,0,1-.6-2.5,2.9,2.9,0,0,1-2.7.1,10.6,10.6,0,0,0,4.8,8.3,3.3,3.3,0,0,1,1.4-2.3Z"/><path class="cls-1" d="M252.1,92.5c-.4.7-2-.3-2.5-2s.1-1.6.7-1.2h.1a5.9,5.9,0,0,1-.5-2.3,2.9,2.9,0,0,1-2.7.1,10.6,10.6,0,0,0,4.8,8.3,3.3,3.3,0,0,1,1.4-2.3,5.3,5.3,0,0,1-1.2-1A.8.8,0,0,1,252.1,92.5Z"/><path class="cls-1" d="M252.3,92.4c-.4.9-1.9.2-2.6-1.5s-.2-2.1.6-1.8h0a9.3,9.3,0,0,1-.4-2.2,2.9,2.9,0,0,1-2.7.1,10.6,10.6,0,0,0,4.8,8.3,3.3,3.3,0,0,1,1.4-2.3l-1.1-.8Z"/><path class="cls-1" d="M249.9,91.4c-.8-1.5-.5-2.7.3-2.4h.1a7.1,7.1,0,0,1-.4-2,2.9,2.9,0,0,1-2.7.1,10.6,10.6,0,0,0,4.8,8.3,3.3,3.3,0,0,1,1.4-2.3l-.9-.7C252.2,93.3,250.8,92.9,249.9,91.4Z"/><path class="cls-1" d="M250.2,91.8c-1.1-1.4-1.1-3.1,0-3h0a5.7,5.7,0,0,1-.3-1.8,2.9,2.9,0,0,1-2.7.1,10.6,10.6,0,0,0,4.8,8.3,3.3,3.3,0,0,1,1.4-2.3,1.9,1.9,0,0,1-.7-.6C252.3,93.2,251.1,93.1,250.2,91.8Z"/><path class="cls-1" d="M250.7,92.4c-1.5-1.4-1.9-3.7-.6-3.8h.1a4.5,4.5,0,0,1-.3-1.6,2.9,2.9,0,0,1-2.7.1,10.6,10.6,0,0,0,4.8,8.3,3.3,3.3,0,0,1,1.4-2.3l-.6-.4C252.5,93.1,251.7,93.3,250.7,92.4Z"/><path class="cls-1" d="M250.8,92.6c-1.7-1.4-2.1-4.1-.7-4.2a5.9,5.9,0,0,1-.2-1.4,2.9,2.9,0,0,1-2.7.1,10.6,10.6,0,0,0,4.8,8.3,3.3,3.3,0,0,1,1.4-2.3l-.4-.3C252.6,93.2,251.8,93.4,250.8,92.6Z"/><path class="cls-1" d="M251.2,93c-2-1.2-2.8-4.4-1.2-4.7h.1a5,5,0,0,1-.2-1.2,2.9,2.9,0,0,1-2.7.1,10.6,10.6,0,0,0,4.8,8.3,3.3,3.3,0,0,1,1.4-2.3l-.3-.2A1.6,1.6,0,0,1,251.2,93Z"/><path class="cls-1" d="M251.3,93.1c-1.9-1.1-3.1-4.5-1.3-5h0c0-.4-.1-.7-.1-1.1a2.9,2.9,0,0,1-2.7.1,10.6,10.6,0,0,0,4.8,8.3,3.3,3.3,0,0,1,1.4-2.3h-.1A1.6,1.6,0,0,1,251.3,93.1Z"/><path class="cls-1" d="M253.1,93.3l.3-.2Z"/><path class="cls-1" d="M251.3,93.2c-1.9-1.1-3.2-4.7-1.3-5.3h0c0-.3-.1-.6-.1-.9a2.9,2.9,0,0,1-2.7.1,10.6,10.6,0,0,0,4.8,8.3,3.1,3.1,0,0,1,1.1-2.1A1.7,1.7,0,0,1,251.3,93.2Z"/><path class="cls-1" d="M251.5,93.4c-2.2-1.1-3.6-5.1-1.5-5.7,0-.2-.1-.4-.1-.7a2.9,2.9,0,0,1-2.7.1,10.6,10.6,0,0,0,4.8,8.3,3.3,3.3,0,0,1,.9-1.9A1.7,1.7,0,0,1,251.5,93.4Z"/><path class="cls-1" d="M251.6,93.5c-2.3-1.1-3.8-5.2-1.7-6h.1a.7.7,0,0,1-.1-.5,2.9,2.9,0,0,1-2.7.1,10.6,10.6,0,0,0,4.8,8.3,3.1,3.1,0,0,1,.7-1.7A1.2,1.2,0,0,1,251.6,93.5Z"/><path class="cls-1" d="M251.6,93.6c-2.2-1-4.1-5.5-1.6-6.2a.6.6,0,0,1-.1-.4,2.9,2.9,0,0,1-2.7.1,10.6,10.6,0,0,0,4.8,8.3,2.8,2.8,0,0,1,.6-1.5Z"/><path class="cls-1" d="M249.9,87.2h0V87a2.9,2.9,0,0,1-2.7.1,10.6,10.6,0,0,0,4.8,8.3,2.7,2.7,0,0,1,.5-1.4l-.9-.3C249.5,92.6,247.2,88.2,249.9,87.2Z"/><path class="cls-1" d="M249.4,87.3a3.3,3.3,0,0,1-2.2-.2,10.6,10.6,0,0,0,4.8,8.3,2.4,2.4,0,0,1,.5-1.3h-.3C250,93.6,247.1,88.7,249.4,87.3Z"/><path class="cls-1" d="M249.1,87.4h0a2.4,2.4,0,0,1-1.9-.2,10.6,10.6,0,0,0,4.8,8.3,2.8,2.8,0,0,1,.4-1.2C250,93.8,247.3,89,249.1,87.4Z"/><path class="cls-1" d="M248.7,87.4h.1a2.9,2.9,0,0,1-1.6-.3,10.6,10.6,0,0,0,4.8,8.3,2.6,2.6,0,0,1,.3-1.1C250.1,93.8,247.4,89.3,248.7,87.4Z"/><path class="cls-1" d="M248.6,87.4h0a3.2,3.2,0,0,1-1.4-.3,10.6,10.6,0,0,0,4.8,8.3,2.2,2.2,0,0,1,.3-1C249.8,93.7,247.4,89.3,248.6,87.4Z"/><path class="cls-1" d="M248.3,87.5h.1a2.7,2.7,0,0,1-1.2-.3,10.6,10.6,0,0,0,4.8,8.3,2.9,2.9,0,0,1,.2-.9C249.8,93.7,247.5,89.6,248.3,87.5Z"/><path class="cls-1" d="M248.1,87.6v-.2a1.7,1.7,0,0,1-1-.3,10.6,10.6,0,0,0,4.8,8.3,1.9,1.9,0,0,1,.2-.7C249.8,93.8,247.5,89.8,248.1,87.6Z"/><path class="cls-1" d="M248,87.4h0l-.8-.3a10.6,10.6,0,0,0,4.8,8.3c0-.2.1-.4.1-.6C249.6,93.6,247.5,89.8,248,87.4Z"/><path class="cls-1" d="M247.9,87.4h0l-.7-.2a10.6,10.6,0,0,0,4.8,8.3c0-.2.1-.3.1-.5C249.6,93.6,247.5,89.9,247.9,87.4Z"/><path class="cls-1" d="M247.7,87.6v-.3l-.5-.2a10.6,10.6,0,0,0,4.8,8.3.8.8,0,0,1,.1-.4A8.6,8.6,0,0,1,247.7,87.6Z"/><path class="cls-1" d="M249.8,89.9c-.3.8,1,2.6,1.6,2.4h0c.2-.1.3-.4.1-.8S250.1,89.2,249.8,89.9Z"/><path class="cls-1" d="M249.8,90c-.2.7,1,2.4,1.6,2.2s.3-.2,0-.9S250.1,89.3,249.8,90Z"/><path class="cls-1" d="M249.9,90c-.3.8.8,2.4,1.4,2.2s.2-.5-.1-1.1S250,89.6,249.9,90Z"/><path class="cls-1" d="M249.9,90c-.3.6.8,2.3,1.4,2.1s.1-.3.1-.4S250.2,89.5,249.9,90Z"/><path class="cls-1" d="M250,90.1c-.4.5.7,2.2,1.3,2s.1-.5.1-.5S250.2,89.6,250,90.1Z"/><path class="cls-1" d="M247.5,87.3h-.3a10.6,10.6,0,0,0,4.8,8.3v-.2A9.9,9.9,0,0,1,247.5,87.3Z"/><path class="cls-1" d="M250,90.1c-.3.6.7,2.1,1.2,1.9h0c.2,0,.2-.2.1-.5S250.2,89.7,250,90.1Z"/><path class="cls-1" d="M250,90.2c-.2.5.7,1.9,1.2,1.8s.2-.2,0-.6S250.2,89.8,250,90.2Z"/><path class="cls-1" d="M250,90.3c-.2.5.7,1.8,1.1,1.6s.2-.2.1-.6S250.2,89.9,250,90.3Z"/><path class="cls-1" d="M250.1,90.3c-.2.5.6,1.7,1,1.6s0-.5,0-.7S250.2,90,250.1,90.3Z"/><path class="cls-1" d="M250.1,90.4c-.2.4.5,1.5,1,1.4s.2-.1,0-.5S250.2,90,250.1,90.4Z"/><path class="cls-1" d="M250.2,90.4c-.3.3.4,1.4.8,1.3s.1-.1.1-.2S250.4,90.1,250.2,90.4Z"/><path class="cls-1" d="M250.2,90.5c-.2.2.4,1.3.8,1.2v-.2C251,91,250.4,90.2,250.2,90.5Z"/><path class="cls-1" d="M250.2,90.5c-.2.3.4,1.2.7,1.1s.1-.1.1-.2S250.4,90.3,250.2,90.5Z"/><path class="cls-1" d="M250.3,90.6c-.2.2.3,1,.6.9s.1-.1,0-.2S250.4,90.4,250.3,90.6Z"/><path class="cls-1" d="M250.4,90.6a.1.1,0,0,1-.1.1v.4c.2.3.3.4.4.4h.1C251,91.3,250.6,90.6,250.4,90.6Z"/><path class="cls-1" d="M250.4,90.7h0c-.1.1.2.6.3.6s.1,0,.1-.1S250.6,90.7,250.4,90.7Z"/><path class="cls-1" d="M250.5,90.9h0a.2.2,0,0,0,.2.2h0S250.6,90.9,250.5,90.9Z"/></g></g></g><g class="cls-14"><path class="cls-1" d="M254.9,92.8l1.1.7,1.2.6,1.2.7,8.6,5a1.4,1.4,0,0,0-1.5-.1l-11.7-6.8A1.1,1.1,0,0,1,254.9,92.8Z"/><g class="cls-20"><g class="cls-14"><path class="cls-1" d="M253.8,92.9l11.7,6.8h.3L254,92.8Z"/><path class="cls-1" d="M254,92.8l11.8,6.8h.2l-11.8-6.8Z"/><path class="cls-1" d="M265,98.8l-.6-.3-.6-.4-.6-.3-.6-.3-.6-.4-.6-.3-.6-.4-.6-.3-.6-.3-.6-.4-.6-.3-.5-.4-.6-.3-.6-.3-.6-.4-.6-.3-.6-.4-.6-.3h-.1L266,99.5h.2l-.6-.3Z"/><path class="cls-1" d="M254.3,92.7l.6.3.6.4.6.3.6.4.6.3.6.3.5.4.6.3.6.4.6.3.6.3.6.4.6.3.6.4.6.3.6.3.6.4.6.3.6.4.6.3h.1l-11.9-6.8Z"/><path class="cls-1" d="M254.4,92.7l11.9,6.8h.2l-12-6.9Z"/><path class="cls-1" d="M254.5,92.7l12,6.9h.1l-12-6.9Z"/><path class="cls-1" d="M254.6,92.7l12,6.9a.1.1,0,0,1,.1.1l-12-7Z"/><path class="cls-1" d="M265.6,99l-.6-.4-.7-.3-.6-.4-.6-.3-.6-.4-.6-.3-.6-.4-.6-.3-.6-.4-.6-.3-.6-.4-.6-.3-.6-.4-.6-.3-.6-.3-.6-.4-.5-.3-.6-.4h-.1l12,7h.2l-.7-.3Z"/><path class="cls-1" d="M254.8,92.7l12.1,7h.1l-12.2-7Z"/><path class="cls-1" d="M265.7,99.1l-.6-.4-.6-.4-.7-.3-.6-.4-.6-.4-.6-.3-.6-.4-.6-.3-.6-.3-.6-.4-.6-.3-.6-.4-1.2-.7-1.2-.6-1.1-.7h-.1l12.2,7h0l-.6-.4Z"/></g></g></g><g class="cls-14"><path class="cls-1" d="M251,78.1V86a.9.9,0,0,1-.6.8V78.9A.9.9,0,0,0,251,78.1Z"/><g class="cls-21"><g class="cls-14"><path class="cls-1" d="M250.3,86.8h0V78.9h0Z"/><path class="cls-1" d="M250.3,86.8l.3-.2V78.7l-.3.2Z"/><path class="cls-1" d="M250.7,78.7v7.9h.1V78.6Z"/><path class="cls-1" d="M250.7,86.5c.1-.1.1-.1.1-.2v.2Z"/><path class="cls-1" d="M250.8,86.3h.1V78.3h-.1Z"/><path class="cls-1" d="M250.9,86.2h0V78.2h0Z"/><path class="cls-1" d="M250.9,86.1h0V78.1h0Z"/><path class="cls-1" d="M250.9,86h0V78.1h0Z"/></g></g></g><polygon class="cls-1" points="253.4 93.1 265.2 99.9 265.5 99.7 253.8 92.9 253.4 93.1"/><polygon class="cls-1" points="249.9 87 250.3 86.8 250.4 78.9 250 79.1 249.9 87"/><g class="cls-14"><path class="cls-1" d="M246.8,86.4V78.5c0,.3.2.5.5.7v7.9A.8.8,0,0,1,246.8,86.4Z"/><g class="cls-22"><g class="cls-14"><path class="cls-1" d="M246.8,78.5v7.9a.8.8,0,0,0,.4.7V79.2C247,79,246.8,78.8,246.8,78.5Z"/></g></g></g><g class="cls-14"><path class="cls-1" d="M247.3,79.2a2.9,2.9,0,0,0,2.7-.1V87a2.9,2.9,0,0,1-2.7.1Z"/><g class="cls-23"><g class="cls-14"><path class="cls-1" d="M247.2,87.1h.3V79.3h-.3Z"/><path class="cls-1" d="M247.5,87.2h.2V79.4c-.1,0-.2,0-.2-.1Z"/><path class="cls-1" d="M247.7,87.3h.2V79.4h-.1Z"/><path class="cls-1" d="M247.9,87.3a.1.1,0,0,0,.1.1V79.5h-.2Z"/><path class="cls-1" d="M248,87.4h.2V79.5h-.2Z"/><path class="cls-1" d="M248.2,87.4h.2V79.5h-.2Z"/><path class="cls-1" d="M248.4,87.4h.2V79.5h-.2Z"/><path class="cls-1" d="M248.6,87.4h.2V79.5h-.2Z"/><path class="cls-1" d="M248.8,87.4h.3V79.5h-.2Z"/><path class="cls-1" d="M249.1,87.3h.4V79.4h-.4Z"/><path class="cls-1" d="M249.5,87.3l.4-.3V79.1l-.5.3Z"/></g></g></g><g class="cls-14"><path class="cls-1" d="M266.3,104.2l-11.1-6.4-2.8-1.6a1,1,0,0,1-.4-.8l13,7.5A4,4,0,0,0,266.3,104.2Z"/><g class="cls-24"><g class="cls-14"><path class="cls-1" d="M265,102.9l-13-7.5a1,1,0,0,0,.4.8l.7.4.7.4.7.4.7.4,1.5.8.7.5.7.4.7.4.7.4.7.4.7.4.7.4.6.4.7.4.7.4.7.3.6.4.7.4.7.4A4,4,0,0,1,265,102.9Z"/></g></g></g><g class="cls-14"><path class="cls-1" d="M252,95.4a3.3,3.3,0,0,1,1.4-2.3l11.8,6.8c-.8.4-.9,1.8-.2,3Z"/><g class="cls-25"><g class="cls-14"><path class="cls-1" d="M252,95.2v.2l13,7.5c0-.1-.1-.2-.1-.3Z"/><path class="cls-1" d="M252.1,95c0,.1-.1.1-.1.2l12.9,7.4v-.2Z"/><path class="cls-1" d="M252.1,94.9h0l12.7,7.4v-.2Z"/><path class="cls-1" d="M252.1,94.8h0l12.6,7.3V102Z"/><path class="cls-1" d="M252.2,94.7h-.1l12.6,7.2c-.1-.1-.1-.1-.1-.2Z"/><path class="cls-1" d="M252.2,94.5v.2l12.4,7.1h0Z"/><path class="cls-1" d="M252.3,94.4h-.1l12.4,7.2v-.2Z"/><path class="cls-1" d="M252.3,94.3h0l12.3,7.1h0Z"/><path class="cls-1" d="M252.4,94.2h-.1l12.3,7.1v-.2Z"/><path class="cls-1" d="M252.4,94.2l12.1,7a.1.1,0,0,1,.1-.1l-12.1-7A.1.1,0,0,0,252.4,94.2Z"/><path class="cls-1" d="M252.5,94.1l12.1,7v-.2L252.5,94Z"/><path class="cls-1" d="M252.5,94l12.1,6.9h0l-12-6.9Z"/><path class="cls-1" d="M252.6,93.9l12,6.9v-.2l-11.9-6.9Z"/><path class="cls-1" d="M252.7,93.7l11.9,6.9v-.2l-11.8-6.9C252.8,93.6,252.8,93.7,252.7,93.7Z"/><path class="cls-1" d="M252.9,93.5l11.8,6.9.5-.5-11.8-6.8Z"/></g></g></g><g class="cls-14"><path class="cls-1" d="M251.4,76.7a.3.3,0,0,0-.1.2c-.1.1-.2.2-.2.3a.4.4,0,0,1-.1.3v.6a.9.9,0,0,1-.6.8A2.3,2.3,0,0,1,251.4,76.7Z"/><g class="cls-26"><g class="cls-14"><path class="cls-1" d="M250.4,78.9a.9.9,0,0,0,.6-.8c0-1.1.4-1.4.4-1.4A2.3,2.3,0,0,0,250.4,78.9Z"/><path class="cls-1" d="M250.4,78.9h0a.9.9,0,0,0,.6-.8,1.9,1.9,0,0,1,.1-.8h0V77h0a.1.1,0,0,0,.1-.1h.1A2.5,2.5,0,0,0,250.4,78.9Z"/><path class="cls-1" d="M251.4,76.7Z"/><path class="cls-1" d="M250.4,78.8h.3a.9.9,0,0,0,.3-.6,1.9,1.9,0,0,1,.1-.8h0V77h0a.1.1,0,0,0,.1-.1h.1A2.2,2.2,0,0,0,250.4,78.8Z"/><path class="cls-1" d="M250.4,78.6h.4a1.7,1.7,0,0,0,.2-.5,1.9,1.9,0,0,1,.1-.8h0V77h0a.1.1,0,0,0,.1-.1h.1A2.2,2.2,0,0,0,250.4,78.6Z"/><path class="cls-1" d="M250.4,78.4c.4-.1.5-.1.5,0a.4.4,0,0,0,.1-.3,1.9,1.9,0,0,1,.1-.8h0V77h0a.1.1,0,0,0,.1-.1h.1A2.3,2.3,0,0,0,250.4,78.4Z"/><path class="cls-1" d="M250.4,78.3c.5-.2.5-.2.6,0v-.2a1.9,1.9,0,0,1,.1-.8h0V77h0a.1.1,0,0,0,.1-.1h.1A2.4,2.4,0,0,0,250.4,78.3Z"/><path class="cls-1" d="M250.5,78.1c.5-.2.5-.2.5.1h0a1.9,1.9,0,0,1,.1-.8h0V77h0a.1.1,0,0,0,.1-.1h.1A1.8,1.8,0,0,0,250.5,78.1Z"/><path class="cls-1" d="M250.5,77.9l.5-.2v.4h0a1.9,1.9,0,0,1,.1-.8h0V77h0a.1.1,0,0,0,.1-.1h.1A1.9,1.9,0,0,0,250.5,77.9Z"/><path class="cls-1" d="M250.6,77.7h.4c.1,0,0,0,0,.1h0a.4.4,0,0,0,.1-.3h0V77h0a.1.1,0,0,0,.1-.1h.1A2,2,0,0,0,250.6,77.7Z"/><path class="cls-1" d="M251.4,76.7Z"/><path class="cls-1" d="M250.7,77.5l.4-.3h0V77h0a.1.1,0,0,0,.1-.1h.1A1.8,1.8,0,0,0,250.7,77.5Z"/><path class="cls-1" d="M251.4,76.7Z"/><path class="cls-1" d="M250.8,77.3a.8.8,0,0,0,.4-.4h0a.1.1,0,0,0,.1-.1h.1A1.7,1.7,0,0,0,250.8,77.3Z"/></g></g></g><g class="cls-14"><path class="cls-1" d="M251.1,76.9l.3-.2a2.3,2.3,0,0,0-1,2.2l-.4.2A2.3,2.3,0,0,1,251.1,76.9Z"/><g class="cls-27"><g class="cls-14"><path class="cls-1" d="M250.4,77.5l.4-.2a1.7,1.7,0,0,1,.6-.6l-.3.2A1.3,1.3,0,0,0,250.4,77.5Z"/><path class="cls-1" d="M250.3,77.7l.4-.2v-.2l-.4.2Z"/><path class="cls-1" d="M250.2,77.9l.4-.2c0-.1,0-.1.1-.2l-.4.2C250.3,77.8,250.3,77.9,250.2,77.9Z"/><path class="cls-1" d="M250.2,78.1l.3-.2c0-.1.1-.1.1-.2l-.4.2Z"/><path class="cls-1" d="M250.1,78.3l.4-.2v-.2l-.3.2Z"/><path class="cls-1" d="M250.1,78.5l.3-.2v-.2l-.4.2Z"/><path class="cls-1" d="M250.1,78.6l.3-.2h0l-.3.2Z"/><path class="cls-1" d="M250,78.8l.4-.2v-.2l-.3.2C250.1,78.7,250,78.7,250,78.8Z"/><path class="cls-1" d="M250,79l.4-.2v-.2l-.4.2Z"/><path class="cls-1" d="M250,79.1l.4-.2h0l-.4.2Z"/><polygon class="cls-1" points="250 79.1 250.4 78.9 250.4 78.9 250 79.1 250 79.1"/></g></g></g><g class="cls-14"><path class="cls-1" d="M249.6,73.6l.6-.3.4-.2h2.1l.7.2.9.3.7.4a.9.9,0,0,0-1.1.1C252.2,73,250.7,72.9,249.6,73.6Z"/><g class="cls-28"><g class="cls-14"><path class="cls-1" d="M249.8,73.4l-.2.2Z"/><path class="cls-1" d="M250.6,73.1l-.8.3c1.1-.5,2.5-.3,4.1.6a.9.9,0,0,1,1.1-.1,5.6,5.6,0,0,0-3-.9A3.4,3.4,0,0,0,250.6,73.1Z"/><path class="cls-1" d="M249.8,73.5h0Z"/><path class="cls-1" d="M253,73.1h-2.7l-.4.2h-.1a4,4,0,0,1,3.9.4c.2-.1.3,0,.4,0s.7-.2.9,0l-1.6-.7Z"/><path class="cls-1" d="M249.8,73.5h0Z"/><path class="cls-1" d="M253,73.1h-2.7l-.4.2h-.1a4.1,4.1,0,0,1,3.7.2h.8a.8.8,0,0,1,.7.1l-1.6-.7Z"/><path class="cls-1" d="M249.8,73.5h0Z"/><path class="cls-1" d="M253,73.1h-2.7l-.4.2h-.1a3.7,3.7,0,0,1,3.4.1l1.3.2c.2-.1.3,0,.5.1l-1.6-.7Z"/><path class="cls-1" d="M249.8,73.5h0Z"/><path class="cls-1" d="M253,73.1h-2.7l-.4.2h-.1a3.6,3.6,0,0,1,3.2,0h.7l.9.3h.4l-1.6-.7Z"/><path class="cls-1" d="M249.8,73.5h0Z"/><path class="cls-1" d="M253,73.1h-2.7l-.4.2h-.1a3.6,3.6,0,0,1,2.9-.1,2.9,2.9,0,0,1,2,.4h.3l-1.6-.7Z"/><path class="cls-1" d="M249.8,73.5h0Z"/><path class="cls-1" d="M253,73.1h-2.7l-.4.2h-.1a3.1,3.1,0,0,1,2.7-.1,2.9,2.9,0,0,1,2.2.4h.3l-1.6-.7Z"/><path class="cls-1" d="M249.8,73.5h0Z"/><path class="cls-1" d="M253,73.1h-2.7l-.4.2h-.1a3.5,3.5,0,0,1,2.5-.2c.7-.3,1.1-.1,2.5.5h.2l-1.6-.7Z"/><path class="cls-1" d="M253,73.1h-2.7l-.4.2h-.1a4,4,0,0,1,2.2-.3,4.3,4.3,0,0,1,2.9.6h.1l-1.6-.7Z"/><path class="cls-1" d="M249.8,73.5h0Z"/><path class="cls-1" d="M253,73.1h-2.7l-.4.2h-.1a3,3,0,0,1,1.9-.3,3.9,3.9,0,0,1,2.9.5,4.3,4.3,0,0,0-1.2-.5Z"/><path class="cls-1" d="M249.8,73.5h0Z"/><path class="cls-1" d="M255,73.9l-.4-.2.4.2Z"/><path class="cls-1" d="M249.8,73.5h0Z"/><path class="cls-1" d="M253,73.1h-2.7l-.4.2h-.1a2.4,2.4,0,0,1,1.7-.3,3,3,0,0,1,2.1,0H253Z"/><path class="cls-1" d="M253.6,73.2Z"/><path class="cls-1" d="M249.8,73.5h0Z"/><path class="cls-1" d="M252,73h-1.7l-.4.2h-.1l1.4-.4a3,3,0,0,1,1.3-.1H252Z"/><path class="cls-1" d="M252.8,73Z"/><path class="cls-1" d="M252,73h0Z"/><path class="cls-1" d="M249.8,73.5h0Z"/><path class="cls-1" d="M252,73Z"/><path class="cls-1" d="M251.1,73h-.8l-.4.2h-.1a2,2,0,0,1,1.1-.3,1.5,1.5,0,0,1,.9-.2h-.7Z"/><path class="cls-1" d="M249.8,73.5h0Z"/><path class="cls-1" d="M251.2,73Z"/><path class="cls-1" d="M250.6,73.1h-.3l-.4.2h-.1l.7-.3.7-.2h-.6Z"/><path class="cls-1" d="M249.8,73.5h0Z"/><path class="cls-1" d="M250.4,73.2h0Z"/><path class="cls-1" d="M249.9,73.4h-.1l.3-.2h.2Z"/></g></g></g><g class="cls-14"><path class="cls-1" d="M249.2,73.8l.4-.2c1.1-.7,2.6-.6,4.3.4l-.3.2C251.9,73.2,250.3,73.1,249.2,73.8Z"/><g class="cls-29"><g class="cls-14"><path class="cls-1" d="M249.2,73.8l.5-.3.4-.2-.5.3Z"/><path class="cls-1" d="M249.7,73.5h.5l.3-.2h-.4Z"/><path class="cls-1" d="M250.2,73.4h.3l.4-.2h-.4Z"/><path class="cls-1" d="M250.5,73.4h.3l.4-.3h-.3Z"/><path class="cls-1" d="M250.8,73.4h.3l.4-.2h-.3Z"/><path class="cls-1" d="M251.1,73.4h.3l.3-.2h-.2Z"/><path class="cls-1" d="M251.4,73.4h.2l.4-.2h-.3Z"/><path class="cls-1" d="M251.6,73.4h.3l.4-.2H252Z"/><path class="cls-1" d="M251.9,73.5h.2l.4-.2h-.2Z"/><path class="cls-1" d="M252.1,73.6h.3l.3-.2h-.2Z"/><path class="cls-1" d="M252.4,73.6h.2l.4-.2h-.3Z"/><path class="cls-1" d="M252.6,73.7h.3l.3-.2H253Z"/><path class="cls-1" d="M252.9,73.8h.2l.4-.2h-.3Z"/><path class="cls-1" d="M253.1,73.9l.3.2.3-.2-.2-.2Z"/><path class="cls-1" d="M253.4,74.1h.2l.3-.2h-.2Z"/></g></g></g><g class="cls-14"><path class="cls-1" d="M252.5,77.3l-.4-.3h-.5a.5.5,0,0,0-.5,0,2.3,2.3,0,0,0-1.1,2.2,2.9,2.9,0,0,1-2.7.1c0-3,2.2-4.2,4.8-2.7A1,1,0,0,0,252.5,77.3Z"/><g class="cls-30"><g class="cls-14"><path class="cls-1" d="M252.1,76.5c-2.6-1.5-4.8-.3-4.8,2.7a2.9,2.9,0,0,0,2.7-.1,2.3,2.3,0,0,1,1.1-2.2c.1-.1.6-.1,1.4.4A1,1,0,0,1,252.1,76.5Z"/><path class="cls-1" d="M252.1,76.5c-2.6-1.5-4.8-.3-4.8,2.7a2.8,2.8,0,0,0,2.2.2l.5-.3a2.3,2.3,0,0,1,1.1-2.2h.7l.5.2.2.2A1,1,0,0,1,252.1,76.5Z"/><path class="cls-1" d="M252.1,76.5c-2.6-1.5-4.8-.3-4.8,2.7a2.8,2.8,0,0,0,1.8.3l.9-.5h0a2.4,2.4,0,0,1,1.1-2.1h.7l.5.2.2.2A1,1,0,0,1,252.1,76.5Z"/><path class="cls-1" d="M252.1,76.5c-2.6-1.5-4.8-.3-4.8,2.7a2.7,2.7,0,0,0,1.6.3,2.3,2.3,0,0,1,1.1-.7h0a2.3,2.3,0,0,1,1.1-1.9h.7l.5.2.2.2A1,1,0,0,1,252.1,76.5Z"/><path class="cls-1" d="M252.1,76.5c-2.6-1.5-4.8-.3-4.8,2.7a3.2,3.2,0,0,0,1.4.3c.1-.2.3-.5,1.4-.9h0a2,2,0,0,1,1-1.7h.7l.5.2.2.2A1,1,0,0,1,252.1,76.5Z"/><path class="cls-1" d="M252.1,76.5c-2.6-1.5-4.8-.3-4.8,2.7a2.1,2.1,0,0,0,1.2.3c.3-.5.6-.7,1.5-1h.1a2.1,2.1,0,0,1,1-1.6h.7l.5.2.2.2A1,1,0,0,1,252.1,76.5Z"/><path class="cls-1" d="M252.1,76.5c-2.6-1.5-4.8-.3-4.8,2.7a1.7,1.7,0,0,0,1,.3c.3-.6.3-.6,1.8-1.2h0a2.2,2.2,0,0,1,1-1.4h.7l.5.2.2.2A1,1,0,0,1,252.1,76.5Z"/><path class="cls-1" d="M252.1,76.5c-2.6-1.5-4.8-.3-4.8,2.7l.8.3c.3-.7.3-.7,2.1-1.4a1.4,1.4,0,0,1,.9-1.2h.7l.5.2.2.2A1,1,0,0,1,252.1,76.5Z"/><path class="cls-1" d="M252.1,76.5c-2.6-1.5-4.8-.3-4.8,2.7l.6.2a1.3,1.3,0,0,1,.6-.9c.5-.4,1.1-.3,1.7-.6h0a2.2,2.2,0,0,1,.9-1h.7l.5.2.2.2A1,1,0,0,1,252.1,76.5Z"/><path class="cls-1" d="M252.1,76.5c-2.6-1.5-4.8-.3-4.8,2.7l.5.2a1.9,1.9,0,0,1,.5-1.2c.6-.4,1.4-.2,2-.5a2,2,0,0,1,.8-.8h.7l.5.2.2.2A1,1,0,0,1,252.1,76.5Z"/><path class="cls-1" d="M252.1,76.5c-2.6-1.5-4.8-.3-4.8,2.7h.3c0-.3.1-1.2.6-1.5a1.2,1.2,0,0,1,.9-.1l1.3-.2h0a1.3,1.3,0,0,1,.7-.6h.7l.5.2.2.2A1,1,0,0,1,252.1,76.5Z"/></g></g></g><g class="cls-14"><path class="cls-1" d="M246.8,78.5a1.1,1.1,0,0,1,.1-.5,3.1,3.1,0,0,1,.1-.9c0-.2.1-.4.1-.6l.3-.7.3-.6.4-.4.2-.3.4-.3.5-.4c1.1-.7,2.7-.6,4.4.4a3,3,0,0,0-1.5,2.3c-2.6-1.5-4.8-.3-4.8,2.7C247,79,246.8,78.8,246.8,78.5Z"/><g class="cls-31"><g class="cls-14"><path class="cls-1" d="M249.2,73.8a4.4,4.4,0,0,0-1.8,2,8.9,8.9,0,0,0-.6,2.7c0,.3.2.5.5.7,0-3,2.2-4.2,4.8-2.7a3,3,0,0,1,1.5-2.3C251.9,73.2,250.3,73.1,249.2,73.8Z"/><path class="cls-1" d="M249.2,73.8l-.5.4-.3.2-.3.4-.2.2c-.1.2-.3.3-.3.5l-.2.3-.3.7v.4a4.1,4.1,0,0,0-.1,1.1v.5c0,.3.2.5.5.7,0-3,2.2-4.2,4.8-2.7a3.1,3.1,0,0,1,.9-1.9c-.1-.2,0-.4.3-.5h.1C251.8,73.2,250.3,73.1,249.2,73.8Z"/><path class="cls-1" d="M249.2,73.8l-.5.4-.3.2-.3.4-.2.2c-.1.2-.3.3-.3.5l-.2.3-.3.7v.4a4.1,4.1,0,0,0-.1,1.1v.5c0,.3.2.5.5.7,0-3,2.2-4.2,4.8-2.7a2.5,2.5,0,0,1,.8-1.7c-.2-.4-.2-.7.2-.8h0A4.1,4.1,0,0,0,249.2,73.8Z"/><path class="cls-1" d="M249.2,73.8l-.5.4-.3.2-.3.4-.2.2c-.1.2-.3.3-.3.5l-.2.3-.3.7v.4a4.1,4.1,0,0,0-.1,1.1v.5c0,.3.2.5.5.7,0-3,2.2-4.2,4.8-2.7a3.5,3.5,0,0,1,.6-1.6c-.2-.3-.5-.9.2-1.1h0A4,4,0,0,0,249.2,73.8Z"/><path class="cls-1" d="M252.6,73.8h0a3.7,3.7,0,0,0-3.4.1l-.5.4-.3.2-.3.4-.2.2c-.1.2-.3.3-.3.5l-.2.3-.3.7v.4a4.1,4.1,0,0,0-.1,1.1v.5c0,.3.2.5.5.7,0-3,2.2-4.2,4.8-2.7a2,2,0,0,1,.6-1.4C252.3,74.6,251.9,74,252.6,73.8Z"/><path class="cls-1" d="M252.4,73.6a3.9,3.9,0,0,0-3.2.2l-.5.4-.3.2-.3.4-.2.2c-.1.2-.3.3-.3.5l-.2.3-.3.7v.4a4.1,4.1,0,0,0-.1,1.1v.5c0,.3.2.5.5.7,0-3,2.2-4.2,4.8-2.7a2.4,2.4,0,0,1,.5-1.3C252.2,74.8,251.5,74,252.4,73.6Z"/><path class="cls-1" d="M252.1,73.6h0a3.2,3.2,0,0,0-2.9.2l-.5.4-.3.2-.3.4-.2.2c-.1.2-.3.3-.3.5l-.2.3-.3.7v.4a4.1,4.1,0,0,0-.1,1.1v.5c0,.3.2.5.5.7,0-3,2.2-4.2,4.8-2.7a2.8,2.8,0,0,1,.4-1.2C252,74.8,251.2,74,252.1,73.6Z"/><path class="cls-1" d="M251.9,73.5h0a3.2,3.2,0,0,0-2.7.3l-.5.4-.3.2-.3.4-.2.2c-.1.2-.3.3-.3.5l-.2.3-.3.7v.4a4.1,4.1,0,0,0-.1,1.1v.5c0,.3.2.5.5.7,0-3,2.2-4.2,4.8-2.7a4.5,4.5,0,0,1,.3-1.1C251.8,74.8,250.8,73.9,251.9,73.5Z"/><path class="cls-1" d="M251.6,73.4a3.8,3.8,0,0,0-2.4.4l-.5.4-.3.2-.3.4-.2.2c-.1.2-.3.3-.3.5l-.2.3-.3.7v.4a4.1,4.1,0,0,0-.1,1.1v.5c0,.3.2.5.5.7,0-3,2.2-4.2,4.8-2.7a1.9,1.9,0,0,1,.3-1C251.5,74.8,250.5,73.9,251.6,73.4Z"/><path class="cls-1" d="M251.3,73.4h.1a3.3,3.3,0,0,0-2.2.4l-.5.4-.3.2-.3.4-.2.2c-.1.2-.3.3-.3.5l-.2.3-.3.7v.4a4.1,4.1,0,0,0-.1,1.1v.5c0,.3.2.5.5.7,0-3,2.2-4.2,4.8-2.7a2.9,2.9,0,0,1,.2-.9C251.1,74.6,250.2,73.9,251.3,73.4Z"/><path class="cls-1" d="M250.6,74.3c-.1-.3-.1-.7.5-.9h0a3.1,3.1,0,0,0-1.9.4l-.5.4-.3.2-.3.4-.2.2c-.1.2-.3.3-.3.5l-.2.3-.3.7v.4a4.1,4.1,0,0,0-.1,1.1v.5c0,.3.2.5.5.7,0-3,2.2-4.2,4.8-2.7a2.4,2.4,0,0,1,.2-.8C250.8,74.6,250.8,74.6,250.6,74.3Z"/><path class="cls-1" d="M250.3,74.4c0-.1-.3-.6.5-1h0a2.9,2.9,0,0,0-1.6.4l-.5.4-.3.2-.3.4-.2.2c-.1.2-.3.3-.3.5l-.2.3-.3.7v.4a4.1,4.1,0,0,0-.1,1.1v.5c0,.3.2.5.5.7,0-3,2.2-4.2,4.8-2.7a2.5,2.5,0,0,1,.2-.7Z"/><path class="cls-1" d="M250,74.5c-.3-.4,0-.9.5-1.1a2,2,0,0,0-1.3.4l-.5.4-.3.2-.3.4-.2.2c-.1.2-.3.3-.3.5l-.2.3-.3.7v.4a4.1,4.1,0,0,0-.1,1.1v.5c0,.3.2.5.5.7,0-3,2.2-4.2,4.8-2.7a4.3,4.3,0,0,1,.1-.5l-1.3-.8C250.5,74.9,250.1,74.7,250,74.5Z"/><path class="cls-1" d="M249.6,74.7c-.3-.5,0-1,.5-1.3h.1l-1,.4-.5.4-.3.2-.3.4-.2.2c-.1.2-.3.3-.3.5l-.2.3-.3.7v.4a4.1,4.1,0,0,0-.1,1.1v.5c0,.3.2.5.5.7,0-3,2.2-4.2,4.8-2.7,0-.1.1-.3.1-.4l-1.6-.9Z"/><polygon class="cls-1" points="249.7 73.5 249.7 73.5 249.7 73.5 249.7 73.5"/><path class="cls-1" d="M249.7,73.5l-.5.3-.5.4-.3.2-.3.4-.2.2c-.1.2-.3.3-.3.5l-.2.3-.3.7v.4a4.1,4.1,0,0,0-.1,1.1v.5c0,.3.2.5.5.7,0-3,2.2-4.2,4.8-2.7v-.2a9.6,9.6,0,0,0-2.6-1C248.5,74.9,249,73.9,249.7,73.5Z"/></g></g></g><g class="cls-14"><path class="cls-1" d="M264.5,101.2c.1-7.5.1-9.4.2-16.9l.5-.3-.2,18.9A4.1,4.1,0,0,1,264.5,101.2Z"/><g class="cls-32"><g class="cls-14"><path class="cls-1" d="M264.7,85.4v15.8a4.1,4.1,0,0,0,.5,1.7l.2-18.9-.5.3Z"/></g></g></g><g class="cls-14"><path class="cls-1" d="M252.1,76.5a3,3,0,0,1,1.5-2.3l14.3,8.2L265.2,84Z"/><g class="cls-33"><g class="cls-14"><path class="cls-1" d="M252.1,76.5,265.2,84h.1l-13.1-7.6Z"/><path class="cls-1" d="M252.2,76.3l13.1,7.6h.2l-13.3-7.7Z"/><path class="cls-1" d="M252.2,76.1l13.3,7.7h.1L252.2,76Z"/><path class="cls-1" d="M252.2,76l13.4,7.7h.2l-13.5-7.8Z"/><path class="cls-1" d="M252.3,75.8l13.5,7.8h.1l-13.6-7.9Z"/><path class="cls-1" d="M252.3,75.7l13.6,7.9h.1l-13.7-7.9Z"/><path class="cls-1" d="M252.3,75.6,266,83.5h.1l-13.7-7.9Z"/><path class="cls-1" d="M252.4,75.5l13.7,7.9h.1l-13.8-8Z"/><path class="cls-1" d="M252.4,75.4l13.8,8h.2l-13.9-8A.1.1,0,0,1,252.4,75.4Z"/><path class="cls-1" d="M252.5,75.3l13.9,8h.1l-13.9-8Z"/><path class="cls-1" d="M252.6,75.2l13.9,8h.1l-13.9-8C252.6,75.1,252.6,75.1,252.6,75.2Z"/><path class="cls-1" d="M252.7,75.1l13.9,8h.2l-14.1-8.1Z"/><path class="cls-1" d="M252.7,74.9,266.8,83h.2l-14.1-8.1Z"/><path class="cls-1" d="M252.9,74.8,267,82.9h.2L253,74.6C253,74.7,252.9,74.7,252.9,74.8Z"/><path class="cls-1" d="M253,74.6l14.2,8.2.7-.4-14.3-8.2Z"/></g></g></g><g class="cls-14"><path class="cls-1" d="M264.7,84.3l-8.7-5-3.5-2a1,1,0,0,1-.4-.8L265.2,84Z"/><g class="cls-34"><g class="cls-14"><path class="cls-1" d="M252.5,77.3l.6.3.6.3.6.4.6.3.5.4.6.3,1.2.7.6.3.6.4.6.3.6.4.6.3.7.4.6.3.6.4.6.4.7.3.6.4.7.4.5-.3-13.1-7.5A1,1,0,0,0,252.5,77.3Z"/></g></g></g><path class="cls-1" d="M247.4,78.7v0Z"/><path class="cls-1" d="M247.3,87.7h0Z"/><path class="cls-1" d="M251.4,76.1a.1.1,0,0,1,.1.1A.1.1,0,0,0,251.4,76.1Z"/><path class="cls-1" d="M247.3,88v0Z"/><path class="cls-1" d="M251.7,95.2l-.4-.3Z"/><path class="cls-1" d="M247.3,87.7Z"/><path class="cls-1" d="M251.5,76.2Z"/><path class="cls-1" d="M251.4,76.1a2.7,2.7,0,0,0-4,2.2A2.7,2.7,0,0,1,251.4,76.1Z"/><path class="cls-1" d="M247.3,79.2a1.1,1.1,0,0,1,.1-.5,1.1,1.1,0,0,0-.1.5c0,4.5,0,3.4-.1,7.9,0,.2.1.3.1.5s-.1-.3-.1-.5C247.3,82.6,247.3,83.7,247.3,79.2Z"/><path class="cls-1" d="M251.7,76.2l.4.3L265.2,84c-.1,7.7-.1,11.2-.2,18.9l-13-7.5-.3-.2.3.2,13,7.5c.1-8.7.1-10.2.2-18.9l-13.1-7.5Z"/><path class="cls-1" d="M247.3,88a10.9,10.9,0,0,0,4,6.9A10.9,10.9,0,0,1,247.3,88Z"/><path class="cls-1" d="M251.5,76.2h0Z"/><path class="cls-1" d="M251.7,76.2Z"/><path class="cls-1" d="M251.7,76.2Z"/><g class="cls-14"><path class="cls-1" d="M268.8,81.9v2.2c0,2.7-.1,5.4-.1,8.1v10.6a1.4,1.4,0,0,1-.6,1.3V82.2Z"/><g class="cls-35"><g class="cls-14"><path class="cls-1" d="M268.1,104.1h0V82.2h0Z"/><path class="cls-1" d="M268.1,104.1l.3-.3V82.1h-.3Z"/><path class="cls-1" d="M268.4,103.8a.3.3,0,0,0,.1-.2V82h-.2Z"/><path class="cls-1" d="M268.6,83.3v20.3c.1,0,.1-.1.1-.2V81.9h0Z"/><path class="cls-1" d="M268.6,103.4V81.9h-.1Z"/><path class="cls-1" d="M268.7,103.2V81.9h0Z"/><path class="cls-1" d="M268.7,103V81.9h0Z"/><path class="cls-1" d="M268.7,102.8h0V81.9h0Z"/></g></g></g><g class="cls-14"><path class="cls-1" d="M255,73.9l1.4.8,1.4.8,1.4.8,2.9,1.7,1.4.8,5.3,3.1-.6.3L253.9,74A.9.9,0,0,1,255,73.9Z"/><g class="cls-36"><g class="cls-14"><path class="cls-1" d="M253.9,74l14.3,8.2h.2l-14.3-8.2Z"/><path class="cls-1" d="M254.1,73.9l14.3,8.2h.2l-14.3-8.2Z"/><path class="cls-1" d="M267.2,81.2l-.7-.4-.7-.4-.7-.5-.7-.4-.7-.4-.7-.4-.7-.4-.7-.4-.7-.4-.7-.4-.8-.4-.7-.4-.7-.5-.7-.4-.7-.4-.7-.4-.7-.4-.7-.4h-.2L268.6,82h0l-.7-.4Z"/><path class="cls-1" d="M254.5,73.8l.7.4.7.4.7.4.7.4.7.4.7.5.7.4.8.4.7.4.7.4.7.4.7.4.7.4.7.4.7.4.7.5.7.4.7.4.7.4.7.4h.1l-14.1-8.1Z"/><path class="cls-1" d="M254.6,73.8l14.1,8.1h.1l-14.1-8.1Z"/><path class="cls-1" d="M254.7,73.8l14.1,8.1h0l-14.1-8.1Z"/><path class="cls-1" d="M254.7,73.8l14.1,8.1h0l-14-8.1Z"/><path class="cls-1" d="M267.5,81.1l-.7-.4-.7-.4-.6-.4-.7-.4-.7-.4-.7-.4-.7-.4-.7-.4-.7-.4-.7-.4-.7-.4-.7-.4-.7-.4-.8-.4-.7-.4-.7-.5-.7-.4-.7-.4h-.1l14,8.1h0l-.6-.4Z"/><path class="cls-1" d="M254.9,73.8l13.9,8.1h0l-13.8-8Z"/><polygon class="cls-1" points="268.2 81.5 267.5 81.1 266.9 80.7 266.2 80.3 265.5 79.9 264.8 79.5 264.1 79.2 263.5 78.8 262.1 78 260.7 77.1 260 76.7 259.2 76.3 257.8 75.5 256.4 74.7 255 73.9 255 73.9 268.8 81.9 268.8 81.9 268.2 81.5"/></g></g></g><polygon class="cls-1" points="267.7 104.3 268.1 104.1 268.2 82.2 267.9 82.4 267.7 104.3"/><polygon class="cls-1" points="253.6 74.2 267.9 82.4 268.2 82.2 253.9 74 253.6 74.2"/><g class="cls-14"><path class="cls-1" d="M265.2,84l2.7-1.6-.2,21.9c-.8.5-2-.2-2.7-1.4Z"/><g class="cls-37"><g class="cls-14"><path class="cls-1" d="M265,102.9l.3.4V83.9h-.2Z"/><path class="cls-1" d="M265.3,103.3c0,.1.1.1.2.2V83.7l-.2.2Z"/><path class="cls-1" d="M265.5,103.5l.2.2V83.6h-.2Z"/><path class="cls-1" d="M265.7,103.7c0,.1.1.1.1.2V83.5h-.1Z"/><path class="cls-1" d="M265.8,103.9h.2V83.4h-.2Z"/><path class="cls-1" d="M266,104h.2V83.3h-.2Z"/><path class="cls-1" d="M266.2,104.1c0,.1.1.1.2.1v-21h-.2Z"/><path class="cls-1" d="M266.4,104.2h.2V83.1h-.2Z"/><path class="cls-1" d="M266.6,104.3h.2l.2-21.5-.3.2Z"/><path class="cls-1" d="M266.8,104.4h.4l.2-21.8-.4.2Z"/><path class="cls-1" d="M267.2,104.5l.5-.2.2-21.9-.5.3Z"/></g></g></g></g><path class="cls-38" d="M294.9,102.8V83c0-2.7-1.8-5.5-5.5-7.6l-.3-.2h-5.5a.1.1,0,0,0-.1-.1h-13c0,.1-.1.1-.2.1H267a.1.1,0,0,0-.1.1h-.5l-.5.2h-1l-.5.2h-.1l-.3.2a.1.1,0,0,0-.1.1l-.5.2-.2.2h-1.8l-.2.2h-.1a.1.1,0,0,0-.1.1h-.1l-.3.3h-.1a.2.2,0,0,1-.2.2c0,.1,0,.1-.1.1l-.2.3h0l-.2.3h-.3c0,.1-.1.1-.1.2h-.1c0,.1-.1.1-.1.2H259c0,.1-.1.1-.1.2h-.2a.4.4,0,0,1-.1.3h0a.4.4,0,0,1-.1.3h0v.2h0v.2h0c-.1.1-.1.1-.1.2h0v.2a.1.1,0,0,0-.1.1h0v.2h0v19.9Z"/><path class="cls-39" d="M294.9,98.8V89.2c-.2-2.6-2-5.2-5.4-7.1l-.3-.2a.1.1,0,0,1-.1-.1h-1.3a.1.1,0,0,1-.1-.1h-.9l-.4-.2h-.1l-.5-.2h-.1l-.4-.2H271.6c-.1,0-.1,0-.1.1h-3.2l-.4.2h-.5l-.4.2h-.6l-.5.2h-.1l-.4.2h-.1l-.4.2h0l-.5.2h-.1l-.3.2h-.1l-.5.3h-.9c0,.1-.1.1-.1.2h-.5a.1.1,0,0,0-.1.1h-.6c0,.1,0,.1-.1.1H261a.1.1,0,0,1-.1.1h0l-.3.3h-.1c0,.1-.1.1-.2.2h-.1c0,.1-.1.1-.2.2h0a.2.2,0,0,0-.2.2h-.1c0,.1-.1.1-.1.2h-.1a.3.3,0,0,0-.1.2h-.2l-.2.2h-.1c-.1.1-.1.1-.1.2h-.1c0,.1,0,.1-.1.2h0a.4.4,0,0,1-.1.3h0v.2h-.1v.2h-.1v.2h-.1V89h0v.2h0v9.4Z"/><path class="cls-40" d="M291.3,74.4a30.3,30.3,0,0,0-14.8-3.5c-5.6,0-10.9,1.2-14.8,3.5s-6.1,5.3-6.1,8.6,2.2,6.3,6.2,8.5a32.2,32.2,0,0,0,29.6,0c3.9-2.2,6.1-5.3,6-8.5S295.2,76.7,291.3,74.4Zm-1.7,16.1c-7.2,4.2-18.9,4.2-26.1,0s-7.2-10.9-.1-15.1,18.9-4.1,26.1,0S296.8,86.4,289.6,90.5Z"/><path class="cls-41" d="M276.5,116.7a20.9,20.9,0,0,0,20.9-20.8V83.6h0v.2h0v.2h0v.2h-.1v.2h-.1v.2h0v.2h0v.2a.1.1,0,0,1-.1.1v.2a.1.1,0,0,0-.1.1c0,.1-.1.1-.1.2h0l-.2.3h0l-.2.3h0l-.2.2h0c-.1,0-.1.1-.2.2h0c-.1,0-.1.1-.2.2h-.1c0,.1-.1.1-.2.2h0l-.3.3h-.1l-.2.2h-.1l-.3.3h0l-.2.2a.1.1,0,0,0-.1.1h-.2a.1.1,0,0,1-.1.1l-.3.2h0l-.3.2H293l-.3.2h-.1l-.2.2H292a.1.1,0,0,1-.1.1h-.2l-.3.2-.5.3-.4.2h-.2l-.5.3h-.2l-.4.2h-.1l-.5.2h-.1l-.5.2h-.1l-.6.2h0l-.5.2H265.4l-.5-.2h-2.7a.5.5,0,0,1-.4-.2,13.3,13.3,0,0,1-3.5-2.6l-.4-.5a9.5,9.5,0,0,1-1.8-2.8,7.5,7.5,0,0,1-.5-2.6V95.8a20.8,20.8,0,0,0,20.9,20.9Z"/></g><g class="cls-14"><polygon class="cls-42" points="511.6 242.4 481.9 259.6 452.1 242.4 481.7 225.2 511.6 242.4"/><polygon class="cls-43" points="511.6 242.4 511.6 245.2 481.9 262.4 481.9 259.6 511.6 242.4"/><polygon class="cls-44" points="481.9 259.6 481.9 262.4 452.1 245.2 452.1 242.4 481.9 259.6"/></g><g class="cls-14"><polygon class="cls-45" points="548.3 264 518.6 281.3 488.7 264 518.4 246.8 548.3 264"/><polygon class="cls-46" points="548.3 264 548.2 266.8 518.6 284 518.6 281.3 548.3 264"/><polygon class="cls-47" points="518.6 281.3 518.6 284 488.7 266.8 488.7 264 518.6 281.3"/></g><g class="cls-14"><polygon class="cls-48" points="584.7 285.1 555 302.3 525.2 285.1 554.9 267.8 584.7 285.1"/><polygon class="cls-49" points="584.7 285.1 584.7 287.8 555 305.1 555 302.3 584.7 285.1"/><polygon class="cls-50" points="555 302.3 555 305.1 525.2 287.8 525.2 285.1 555 302.3"/></g><g class="cls-14"><g class="cls-14"><g class="cls-51"><g class="cls-14"><path class="cls-52" d="M533.1,327.9v1.9h0V328h0"/><path class="cls-53" d="M533.1,328v0"/><path class="cls-54" d="M533.1,328.7v1.9a1.4,1.4,0,0,0-.2.6v-1.9c.1-.2.1-.4.2-.6"/><path class="cls-55" d="M532.9,329.3v1.9a1.6,1.6,0,0,1-.4.7V330a1.6,1.6,0,0,0,.4-.7"/><path class="cls-56" d="M532.5,330v1.9a4.3,4.3,0,0,1-.4.7v-1.9a4.3,4.3,0,0,0,.4-.7"/><path class="cls-57" d="M532.1,330.7v1.9l-.8.9v-1.9l.8-.9"/><path class="cls-58" d="M531.3,331.6v1.9a9.7,9.7,0,0,1-1.5,1.1v-1.9a9.7,9.7,0,0,0,1.5-1.1"/><path class="cls-59" d="M529.8,332.7v1.9h-.2v-1.9h.2"/></g></g></g><g class="cls-14"><g class="cls-60"><g class="cls-14"><path class="cls-61" d="M329.2,332.8v1.9c-2.4-1.4-3.6-3.2-3.6-5v-1.9c0,1.8,1.2,3.6,3.6,5"/></g></g></g><polygon class="cls-62" points="529.6 332.8 529.6 334.7 438.2 387.8 438.3 385.9 529.6 332.8"/><polygon class="cls-63" points="421.1 385.9 421.1 387.8 329.2 334.7 329.2 332.8 421.1 385.9"/><path class="cls-64" d="M529.6,322.9c4.7,2.7,4.7,7.1,0,9.9l-91.3,53.1a19.3,19.3,0,0,1-17.2,0l-91.9-53.1c-4.8-2.8-4.8-7.2-.1-9.9l91.4-53.1c4.7-2.8,12.4-2.8,17.1,0Z"/><g class="cls-14"><g class="cls-65"><g class="cls-14"><path class="cls-59" d="M438.3,385.9v1.9l-2.6,1.1V387l2.7-1.1"/><path class="cls-58" d="M435.6,387v1.9a8.6,8.6,0,0,1-2.3.6v-1.9a8.6,8.6,0,0,0,2.3-.6"/><path class="cls-57" d="M433.3,387.6v1.9l-1.5.2v-1.9l1.5-.2"/><path class="cls-56" d="M431.8,387.8v1.9h-1.4v-1.9h1.4"/><path class="cls-55" d="M430.4,387.9v1.9h-1.2v-1.9h1.2"/><path class="cls-54" d="M429.2,387.9v1.9H428v-1.9h1.2"/><path class="cls-53" d="M428,387.9v1.9l-1.2-.2v-1.9l1.2.2"/><path class="cls-52" d="M426.8,387.7v1.9l-1.2-.2v-1.9l1.2.2"/><path class="cls-66" d="M425.6,387.5v1.9l-1.3-.3v-1.9l1.2.3"/><path class="cls-63" d="M424.4,387.2v1.9l-1.4-.5v-1.9a6.6,6.6,0,0,0,1.5.5"/><path class="cls-61" d="M422.9,386.7v1.9l-1.8-.8v-1.9l1.8.8"/></g></g></g></g><path class="cls-67" d="M268.3,133.8h0v.2h0v.2h0v.2h-.1c0,.1,0,.1-.1.2h-.2c0,.1-.1.1-.1.2h-.1l-.2.3h-.1l-.2.2h-.2l-.2.2h-.4a.1.1,0,0,0-.1.1h-.4l-56.8,33-.6.3H208l-.6.3h-.1l-.6.2-.5.2h-6.6l-.7-.2h-.1l-.7-.2h-.2l-.6-.2h-.1l-.5-.2h-.3l-.6-.4L159,149.3v2l36.8,21.2.6.3h.3l.4.2h.2l.6.2h8.9l.5-.2h.1l.6-.2h.2l.6-.3,56.8-33h.4a.1.1,0,0,1,.1-.1l.2-.2h.6l.2-.2a.1.1,0,0,0,.1-.1l.2-.2h.1c0-.1.1-.1.1-.2h.1v-.2h0a.1.1,0,0,0,.1-.1h.1v-.2h.1v-.2h0V136h.1Z"/><path class="cls-68" d="M265.5,130c3.6,2,3.7,5.4.1,7.5l-56.8,33a14.2,14.2,0,0,1-13,0L159,149.3l69.8-40.5Z"/><polygon class="cls-69" points="190.6 167.5 260.4 127 257 125 187.2 165.6 190.6 167.5"/><path class="cls-70" d="M192.1,122.6v.2H192c-.1.1-.1.1-.1.2h-.1v.2h-.3a.1.1,0,0,1-.1.1H191l-38.2,22.2-.4.2h-.1l-.3.2h-4.4l-.3-.2-20.1-11.6a1.9,1.9,0,0,1-1.1-1.6v2.6a1.8,1.8,0,0,0,1.1,1.6l20.1,11.6.2.2h4.9l.4-.2L191,126.7h0c.1,0,.1,0,.1-.1h.3a.1.1,0,0,0,.1-.1h.2a.1.1,0,0,1,.1-.1h.1v-.2h.2v-.2h0v-2.6Z"/><path class="cls-13" d="M191,120.9c1.5.9,1.5,2.3,0,3.2l-38.2,22.2a5.9,5.9,0,0,1-5.5,0l-20.1-11.6c-1.5-.8-1.5-2.3,0-3.2l38.2-22.2a6.6,6.6,0,0,1,5.5,0Z"/><path class="cls-10" d="M153.5,109h-.1a1.9,1.9,0,0,0-1.8,0l-30.8,17.9-1.4,1.5v.2h0v.6c0,.1,0,.2.1.2h.5l2.6-.8,30.9-17.9h0c0-.1,0-.1.1-.1h.2v-.7h0C153.9,109.3,153.7,109.1,153.5,109Zm.1.9Zm.1,0Zm0-.1Zm.1-.1Zm0,0h0Zm0-.1Zm-34.4,18.9Zm0,.1Zm0,0h0ZM153.5,110Z"/><g class="cls-14"><polygon class="cls-71" points="333.7 272.9 333.7 280 273.7 314.6 273.7 310.1 333.7 272.9"/><polygon class="cls-72" points="273.7 314.6 140.6 237.3 140.6 232.8 273.7 310.1 273.7 314.6"/><polygon class="cls-73" points="273.7 310.1 140.6 232.8 200.5 195.5 333.7 272.9 273.7 310.1"/></g><g id="O6mOik.tif-2" data-name="O6mOik.tif"><path class="cls-74" d="M287.4,280.5l11.8,6.8c.6.4.7.7,0,1.1l-5.1,3a1.8,1.8,0,0,1-2-.1l-2.3-1.3-3.5-2-3.8-2.2-1.9-1.1c-1-.6-1-.9,0-1.5l4.7-2.7A2,2,0,0,1,287.4,280.5Z"/><path class="cls-74" d="M274.5,297.2l3.9,2.2c.6.4.5.8,0,1.1a17.1,17.1,0,0,1-2.3,1.3,1.8,1.8,0,0,1-1.9,0h0l-1.1-.7-1.6-.9-1.5-.9-1-.6h-.1c-.7-.4-.6-.8.1-1.2l2-1.1a1.8,1.8,0,0,1,2.1-.1Z"/><path class="cls-74" d="M267.2,249.4l1.1.6c.8.5.8.9,0,1.3l-4.8,2.8a1.8,1.8,0,0,1-2.2,0l-2.4-1.3-2.7-1.6c-.8-.5-.8-.8,0-1.3l4.7-2.8a2.1,2.1,0,0,1,2.4,0l.5.3.9.5,1,.6Z"/><path class="cls-74" d="M248.4,232.3l1,.6q1,.6,0,1.2l-1.9,1.1a2.1,2.1,0,0,1-2,.1l-1.8-1-3.5-2.1c-.7-.4-.7-.8.1-1.3l1.7-.9a2,2,0,0,1,2.3,0l1,.5.7.4.4.3.5.2Z"/><path class="cls-74" d="M236.8,225.6l3.8,2.2c.6.4.5.8-.1,1.1l-2,1.2a2,2,0,0,1-2.1-.1l-1.1-.6-1.5-.8-1.4-.9-1.1-.6c-.8-.5-.8-.8,0-1.3l1.9-1.1a1.8,1.8,0,0,1,2,0Z"/><path class="cls-74" d="M270.5,260.9l2.5,1.5c.6.4.6.8-.1,1.2l-4.9,2.8a2,2,0,0,1-2,.1c0-.1,0-.1-.1-.1l-1-.6-1.6-.9-1.6-1-1-.5h-.1c-.6-.3-.6-.7,0-1l5.1-3a1.9,1.9,0,0,1,1.9,0Z"/><path class="cls-74" d="M309.1,267.4l3.1,1.8c.7.4.7.7,0,1.1l-1.8,1.1a2,2,0,0,1-2.3,0l-1.1-.6-1.5-.9h0l-1.5-.8-1.1-.7q-1-.6,0-1.2l1.9-1.1a1.8,1.8,0,0,1,2,0A17.1,17.1,0,0,1,309.1,267.4Z"/><path class="cls-74" d="M301,262.7l2.2,1.3q1.1.6,0,1.2l-1.7,1a2.3,2.3,0,0,1-2.5,0l-.9-.6-1.5-.8-1.7-1-.9-.5c-.7-.4-.8-.9,0-1.3l1.8-1.1a2,2,0,0,1,2.1,0Z"/><g class="cls-14"><path class="cls-74" d="M295.4,275.3l3.5,2.1q1.1.6,0,1.2l-4.9,2.8a1.7,1.7,0,0,1-2.1,0l-1.3-.8-1.3-.7-1.5-.9-1.1-.6h-.1q-.9-.6,0-1.2l5-2.9a2.2,2.2,0,0,1,2.1,0A9.5,9.5,0,0,0,295.4,275.3Z"/><path class="cls-74" d="M312.1,275.3l3.6,2.1c1.1.6,1,.9,0,1.5l-4.6,2.7a2,2,0,0,1-2.3-.1l-2-1.1-2.6-1.5-2.7-1.5-1.9-1.2c-1.1-.6-1.1-.9-.1-1.5l4.6-2.7a2.4,2.4,0,0,1,2.3,0Z"/><path class="cls-74" d="M304.7,280.7l3.1,1.8c.5.3.4.7-.1,1l-5.2,3a1.7,1.7,0,0,1-1.8,0h0l-1.1-.6-1.6-1-1.6-.9-1-.6h-.1c-.7-.4-.6-.8,0-1.2l5-2.9a1.9,1.9,0,0,1,1.9,0Z"/></g><g class="cls-14"><path class="cls-74" d="M206.9,214.5l1,.6c.7.4.7.8,0,1.3l-4.9,2.8a1.8,1.8,0,0,1-2.2,0l-1.7-1-3.4-1.9c-.8-.5-.8-.9,0-1.4l4.9-2.8a2,2,0,0,1,2.1,0l2.5,1.5Z"/><path class="cls-74" d="M187.7,213.1l7.3,4.3c1,.6,1,.8-.1,1.4l-4.6,2.7a1.8,1.8,0,0,1-2.3-.1l-1.5-.9-3.1-1.7-2.6-1.5-1.9-1.2c-1-.5-1-.8-.1-1.4l4.5-2.6a2.1,2.1,0,0,1,2.6,0Z"/><path class="cls-74" d="M214.9,219.2l1.5.8c.9.6.9.9,0,1.4l-4.5,2.7a2.1,2.1,0,0,1-2.7-.1l-.8-.4-1.6-.9-1.6-1-.8-.4c-.9-.5-.9-.9,0-1.4l4.7-2.7a2.1,2.1,0,0,1,2.4,0Z"/><path class="cls-74" d="M201,220.9l2.7,1.5c.6.4.6.8,0,1.1l-5,2.9a1.7,1.7,0,0,1-2.1,0l-.9-.5a9.5,9.5,0,0,0-1.7-1l-1.5-.9-1.1-.6h-.1c-.6-.3-.6-.7,0-1.1l5.1-2.9a1.7,1.7,0,0,1,1.8-.1Z"/><path class="cls-74" d="M179.7,218.3l3.4,2,5.7,3.2c.9.6.9.9,0,1.5s-3,1.8-4.6,2.6a2,2,0,0,1-2.5,0l-6.8-3.9-4.4-2.6c-1.1-.6-1.1-.9,0-1.5l4.5-2.7a2.1,2.1,0,0,1,2.4,0Z"/><path class="cls-74" d="M222.7,223.7l2.7,1.6a.6.6,0,0,1-.1.9l-5.2,3.1a1.9,1.9,0,0,1-1.9-.1l-1.1-.6-1.6-.9-1.7-1-.9-.5q-1.1-.6,0-1.2c1.6-1,3.3-2,5.1-2.9a2.2,2.2,0,0,1,1.6-.1Z"/><path class="cls-74" d="M209.3,225.6l3.2,1.9c.5.3.4.7-.1,1l-5.1,3a2.1,2.1,0,0,1-1.9,0h0l-1-.6-1.8-.9-1.5-.9-1.1-.6h0c-.6-.3-.7-.7,0-1l5-3a2,2,0,0,1,2,0Z"/><path class="cls-74" d="M195.3,227.3l2.2,1.3c.9.5.9.8,0,1.3s-3.1,1.9-4.7,2.8a2,2,0,0,1-2.3,0l-1-.6-1.6-.9-1.3-.8-1.3-.7q-1.1-.6,0-1.2l4.9-2.8a2,2,0,0,1,2.3,0Z"/><path class="cls-74" d="M232.9,229.6l.9.5c.7.4.8.8,0,1.2l-4.9,2.9a2.2,2.2,0,0,1-2.2,0l-3.1-1.8-2-1.2c-.8-.5-.8-.8.1-1.3l4.7-2.8a2.4,2.4,0,0,1,2.3,0l1,.6,1.5.9Z"/><path class="cls-74" d="M163.8,228.5l2,1.1c.8.5.7.8-.1,1.3l-3,1.7-3,1.7a2.1,2.1,0,0,1-2.3.1l-1.4-.9-1-.5-1.3-.8-1.4-.8c-.7-.4-.8-.8-.1-1.2l6.4-3.7a2.1,2.1,0,0,1,1.9,0Z"/><path class="cls-74" d="M179.5,227.9l5.2,2.9c1,.6.9.9-.1,1.5l-4.4,2.6a2.1,2.1,0,0,1-2.6,0l-3.3-1.9-4.5-2.6-3.8-2.2-3.7-2.1c-1.3-.8-1.3-1,0-1.8l4.1-2.4a2.4,2.4,0,0,1,2.8,0Z"/><path class="cls-74" d="M218.9,231.1l2.1,1.3c.7.4.6.8,0,1.2l-4.9,2.8a2,2,0,0,1-2.1,0h-.1l-1-.6-1.5-.9-1.6-.9-1-.6h-.1q-1-.6,0-1.2l5-2.9a1.7,1.7,0,0,1,1.9,0Z"/><path class="cls-74" d="M205.3,233l.9.6c.8.5.8.8,0,1.3l-4.8,2.8a2,2,0,0,1-2.3-.1l-3.3-1.9-1.6-.9c-1-.6-1-.9-.1-1.4l4.8-2.8a2,2,0,0,1,2.1,0l1,.6,1.7.9Z"/><path class="cls-74" d="M172.6,233.5l1.8,1.1c.9.5.8.8-.1,1.3l-2.9,1.7-3.2,1.8a1.8,1.8,0,0,1-2,0l-3-1.7-2.4-1.4c-.6-.3-.6-.7,0-1.1l6.4-3.7a2.3,2.3,0,0,1,2,0l.5.3,1.3.8Z"/><path class="cls-74" d="M191,234.5l2.6,1.5c.6.4.6.8,0,1.1l-5.1,3a2.1,2.1,0,0,1-1.9,0l-1.2-.7-1.5-.9-1.6-.9-1-.6h0c-.8-.4-.7-.8,0-1.2l4.9-2.9a1.7,1.7,0,0,1,1.9,0Z"/><path class="cls-74" d="M257.2,237.4l1.1.6c.8.5.8.9,0,1.3l-1.8,1.1a2.1,2.1,0,0,1-2.3-.1l-1.2-.7-1.3-.7-1.5-.9-1-.6c-.8-.5-.8-.8,0-1.3l1.8-1a1.8,1.8,0,0,1,2.1,0Z"/><path class="cls-74" d="M228.3,236.6l1.3.7c.7.5.7.9-.1,1.3l-4.7,2.8a2,2,0,0,1-2.2,0l-1.1-.7-1.5-.8-1.5-.9-1.1-.6h-.1c-.6-.4-.7-.8,0-1.2l5-2.9a2,2,0,0,1,2.1,0Z"/><path class="cls-74" d="M210.8,236.2l1.4.9,1.8,1,.9.5q1,.6,0,1.2l-4.7,2.8a2.1,2.1,0,0,1-2.6-.1l-1.7-.9-3.2-1.9c-.8-.5-.9-.8,0-1.3l4.8-2.8a1.8,1.8,0,0,1,2.3.1Z"/><path class="cls-74" d="M249.3,239l1.9,1.1q.9.6,0,1.2l-5.1,2.9a1.7,1.7,0,0,1-1.9,0l-1.1-.6-1.6-.9-1.6-.9-.9-.6c-.9-.5-.9-.8-.1-1.3l4.8-2.8a2,2,0,0,1,2.1,0Z"/><path class="cls-74" d="M181,238.3l2,1.2c.9.5.9.8,0,1.4l-3,1.7-3,1.7a2,2,0,0,1-2.2.1l-3-1.7-2.1-1.3c-.9-.5-.9-.8,0-1.3l6-3.5a1.9,1.9,0,0,1,2.3,0Z"/><path class="cls-74" d="M198.6,238.9l3.7,2.1c.5.4.5.7-.1,1.1l-5.1,2.9a1.7,1.7,0,0,1-2,0l-1-.6-1.6-.9-1.6-.9-1-.6h0q-1.1-.6,0-1.2l4.9-2.9a2,2,0,0,1,2.1,0Z"/><path class="cls-74" d="M265.1,242l2.2,1.2c.7.5.7.9,0,1.3l-1.9,1.1a1.8,1.8,0,0,1-2,0l-.9-.5-1.7-1-1.6-.9-1-.6c-.8-.5-.8-.8,0-1.3l1.8-1.1a2,2,0,0,1,2.1,0Z"/><path class="cls-74" d="M235.3,240.6l3,1.8c.7.4.6.8,0,1.2l-5,2.8a1.7,1.7,0,0,1-1.9.1h-.1l-1-.6-1.6-.9-1.6-.9-1.1-.7h0c-.7-.3-.7-.7,0-1.1l5-2.9a2,2,0,0,1,2,0Z"/><path class="cls-74" d="M220.7,242l2.6,1.5c1,.5,1,.9.1,1.4l-4.7,2.7a2.1,2.1,0,0,1-2.4,0l-1-.6-1.4-.8-1.5-.9-1-.6c-.9-.5-.9-.8,0-1.3l4.6-2.8a2.1,2.1,0,0,1,2.4,0Z"/><path class="cls-74" d="M255.7,242.7l1.4.9,1.8,1,.8.5c.7.4.8.8,0,1.2l-4.8,2.8a1.9,1.9,0,0,1-2.3,0l-2.7-1.6-2.2-1.2c-1-.6-1-.9,0-1.5l4.6-2.7a2,2,0,0,1,2.3,0Z"/><path class="cls-74" d="M206.6,243.5l4.3,2.5c.6.4.6.7,0,1.1l-5,2.9a2,2,0,0,1-2.2,0l-1.1-.7-1.5-.8-1.6-.9-.9-.6h-.1c-.6-.4-.7-.8-.1-1.2l5.1-2.9a1.8,1.8,0,0,1,2,0Z"/><path class="cls-74" d="M190.4,243.8l3.3,1.9c.9.5.9.8,0,1.3l-6.1,3.6a2,2,0,0,1-2.1,0l-1.4-.9a17.1,17.1,0,0,1-2.3-1.3l-2.1-1.2-1.4-.8c-.9-.5-.9-.8,0-1.3l5.9-3.5a2.1,2.1,0,0,1,2.4,0Z"/><path class="cls-74" d="M244.6,246l2.5,1.5c.6.3.5.7-.1,1l-5.1,3a2.1,2.1,0,0,1-1.9,0h0l-1.1-.6-1.6-.9-1.5-.9-1.1-.6h-.1c-.6-.3-.6-.7,0-1.1s3.4-2,5.2-2.9a1.7,1.7,0,0,1,1.7-.1Z"/><path class="cls-74" d="M227.8,246.1a9.5,9.5,0,0,1,1.7,1l1.8,1,.8.5c.7.4.8.8.1,1.2l-5,2.9a1.7,1.7,0,0,1-1.9,0l-3-1.7-2.6-1.5c-.5-.3-.5-.7.1-1.1l5-2.9a2.2,2.2,0,0,1,2.2.1Z"/><path class="cls-74" d="M216.6,249.3l2.9,1.7c.6.3.6.7,0,1.1l-5,2.9a2,2,0,0,1-2.1,0l-.9-.5-1.7-1-2.6-1.5c-.7-.4-.7-.8,0-1.3l4.9-2.8a1.8,1.8,0,0,1,2,0Z"/><path class="cls-74" d="M281,251.1l1.6,1,2.6,1.5c.8.4.8.8,0,1.3l-1.9,1.1a2.1,2.1,0,0,1-1.9,0l-3.5-2-1.9-1.1c-.6-.4-.7-.8.1-1.3l1.8-1a2,2,0,0,1,2.1,0Z"/><path class="cls-74" d="M252.1,250.3l3.6,2.1c.6.4.6.8-.1,1.2l-4.9,2.8a1.8,1.8,0,0,1-2,.1.1.1,0,0,0-.1-.1l-1-.6-1.7-.9-1.5-1-1.1-.5h0c-.7-.3-.7-.7,0-1.1s3.3-2,5.1-2.9a1.8,1.8,0,0,1,2,.1Z"/><path class="cls-74" d="M237.5,251.7l3.3,1.9q1,.6,0,1.2l-4.8,2.8a2,2,0,0,1-2.4-.1l-.9-.4-1.6-1-1.5-.9-1-.5c-.8-.5-.8-.8,0-1.3l4.8-2.8a1.8,1.8,0,0,1,2.2,0Z"/><path class="cls-74" d="M274.6,253.6l2.5,1.5c.6.4.7.8,0,1.2l-5,2.8a2,2,0,0,1-2.2,0l-1.1-.6-1.5-.9-1.4-.8-1.1-.7c-.8-.4-.7-.8,0-1.2l4.9-2.9a1.8,1.8,0,0,1,2,0Z"/><path class="cls-74" d="M227.1,255.3l1,.6q1.1.6,0,1.2l-4.9,2.9a2.2,2.2,0,0,1-2.2,0l-3.1-1.8-2.1-1.2c-.7-.5-.7-.8,0-1.3l4.6-2.7a2.1,2.1,0,0,1,2.7.1l1.2.6,1.2.7Z"/><path class="cls-74" d="M291.9,257.4l2.3,1.4c.8.5.8.8-.1,1.3l-1.7,1a2.2,2.2,0,0,1-2.2,0l-1-.6-1.6-.9-1.5-.9-1.1-.6c-.7-.5-.7-.8,0-1.3l1.9-1.1a2,2,0,0,1,2,0Z"/><path class="cls-74" d="M262,256l2.4,1.5c.6.3.5.7-.1,1l-5,2.9a1.7,1.7,0,0,1-2,0l-1.4-.8-1.3-.8-2.5-1.4c-.8-.5-.9-.7,0-1.2l4.9-2.9a1.9,1.9,0,0,1,1.9,0Z"/><path class="cls-74" d="M247.6,257.5l1.7,1c.9.5.9.8,0,1.3l-4.7,2.8a1.9,1.9,0,0,1-2.3,0l-1.1-.6-1.5-.9-1.5-.8-1-.7q-1-.6,0-1.2l4.9-2.9a2,2,0,0,1,2.1,0Z"/><path class="cls-74" d="M283.5,258.8l2.1,1.2c.8.5.8.8,0,1.3l-4.7,2.7a1.8,1.8,0,0,1-2.4,0l-.9-.5-1.6-.9-1.5-.9-1-.6c-.8-.4-.8-.8-.1-1.2l4.9-2.8a1.8,1.8,0,0,1,2.1-.1Z"/><path class="cls-74" d="M235.7,260.3l1,.6c.6.4.8.8,0,1.2l-4.9,2.8a2,2,0,0,1-2.2.1l-.9-.6-1.6-.9-1.5-.9-1.1-.6c-.8-.5-.8-.8-.1-1.3l4.9-2.8a2.2,2.2,0,0,1,2.2,0l1.2.7,1.2.7Z"/><path class="cls-74" d="M254.4,261.5l3.7,2.1c.6.3.6.7.1,1.1l-5.3,3a1.7,1.7,0,0,1-1.9-.1l-1-.6-1.6-.9-1.5-.9-1.1-.6q-1.1-.6,0-1.2l5-2.9a1.8,1.8,0,0,1,2,0Z"/><path class="cls-74" d="M290.5,262.8l4,2.4c.6.3.4.7-.1,1l-5.1,2.9a1.8,1.8,0,0,1-2,0l-2.6-1.5-1.6-.9-1-.6H282c-.6-.4-.7-.8,0-1.2l5.1-3a2.1,2.1,0,0,1,1.9.1Z"/><path class="cls-74" d="M242.1,264.1l3.3,1.9c.7.3.7.7,0,1.1l-5,2.9a2,2,0,0,1-2.1,0l-1.3-.8-1.3-.7-2.6-1.6c-.7-.4-.7-.8-.1-1.2l5.1-2.9a2.1,2.1,0,0,1,1.9,0Z"/><path class="cls-74" d="M264.5,267.2l2.1,1.3c.9.5.9.7,0,1.3l-4.9,2.8a1.8,1.8,0,0,1-2,0l-2.7-1.5-1.7-1-.9-.5c-.7-.4-.6-.8,0-1.2l4.9-2.8a1.8,1.8,0,0,1,2.2,0Z"/><path class="cls-74" d="M253.1,270.3l.9.5c.7.5.7.9,0,1.3l-4.7,2.7a2.1,2.1,0,0,1-2.5.1l-.9-.6-1.6-.9-1.5-.8-1-.6c-.8-.5-.9-.8-.1-1.3l4.9-2.8a1.8,1.8,0,0,1,2.2,0Z"/><path class="cls-74" d="M288.9,271.6l1.3.7c.7.5.7.9,0,1.3l-4.8,2.8a1.8,1.8,0,0,1-2.2,0l-1.1-.6-1.5-.9-1.6-1-1-.5h0c-.7-.4-.7-.8-.1-1.1l5.2-3a1.7,1.7,0,0,1,1.8,0Z"/><path class="cls-74" d="M274.2,272.8l1.1.7q1.2.6,0,1.2l-4.9,2.9a2,2,0,0,1-2.1,0l-.7-.4-1.7-1-1.3-.8-1.4-.8c-.9-.5-.9-.8,0-1.3l4.8-2.8a2.2,2.2,0,0,1,2.2,0l.8.5,1.8,1Z"/><path class="cls-74" d="M261.6,275.3l1,.6q1,.6,0,1.2l-4.8,2.8a2,2,0,0,1-2.1.1l-2.6-1.5-2.7-1.6c-.8-.4-.6-.9.1-1.3l4.8-2.8a2,2,0,0,1,2,0l1.1.6,1.6,1Z"/><path class="cls-74" d="M279.8,276.1l1.6.9,1.5.9,1.1.6h0q1,.6,0,1.2l-5,2.9a2,2,0,0,1-2.1,0l-5.2-3q-1.1-.6,0-1.2l4.9-2.9a1.8,1.8,0,0,1,2.2,0Z"/><path class="cls-74" d="M267.4,278.6l3.9,2.3c.7.4.7.7,0,1.2l-4.9,2.8a1.8,1.8,0,0,1-2.1,0l-1.1-.6-1.5-.9-1.6-.8-1-.7c-.8-.4-.8-.8-.1-1.2l4.8-2.8a2.1,2.1,0,0,1,2.4,0Z"/><path class="cls-74" d="M286.7,289.8l3.9,2.2c1,.6,1,.8,0,1.4l-4.6,2.7a2.1,2.1,0,0,1-2.4,0l-7.8-4.5-7.8-4.5c-1.2-.7-1.2-1,0-1.6l4.3-2.5a2.1,2.1,0,0,1,2.6,0l3.4,1.9,4.5,2.6Z"/></g><path class="cls-74" d="M268.9,289.1l4.7,2.7c1,.6,1,.9,0,1.5l-2.9,1.7a29.1,29.1,0,0,1-3,1.7,1.8,1.8,0,0,1-2.2,0l-2.2-1.2-2.9-1.7c-.9-.5-.9-.8,0-1.3l5.9-3.4C267.4,288.4,267.8,288.5,268.9,289.1Z"/><path class="cls-74" d="M259.6,288.5l1.2.7c1,.6,1,.9,0,1.5l-1.7,1a2,2,0,0,1-2.3,0l-1.1-.6-1.6-.9-1.4-.9-1.1-.6h0c-.7-.3-.7-.7-.1-1.1l2.4-1.3a1.5,1.5,0,0,1,1.8,0Z"/><path class="cls-74" d="M251.3,278.9h0l2.3,1.3.7.4,2.1,1.2c.9.5.9.8,0,1.3l-3,1.8-3.1,1.8a1.8,1.8,0,0,1-2,0l-4.1-2.3-1.3-.8c-.6-.4-.6-.8,0-1.1s4.1-2.5,6.2-3.7A2.2,2.2,0,0,1,251.3,278.9Z"/><path class="cls-74" d="M242.3,273.7l1.8,1.1,2.3,1.3,1.4.9c.8.4.8.8.1,1.2l-6.2,3.6a1.8,1.8,0,0,1-2,0l-4.8-2.7-2.9-1.7c-.6-.3-.6-.7.1-1.1l6.2-3.6a1.8,1.8,0,0,1,2.1,0Z"/><path class="cls-74" d="M207.3,253.5l9.8,5.7,19.6,11.3c1.1.7,1.2.9,0,1.6l-5.6,3.3a2.2,2.2,0,0,1-2.7,0l-1-.7-1.1-.6-37-21.4c-1.1-.6-1.1-.8-.1-1.5l5.8-3.3a2,2,0,0,1,2.5,0Z"/><path class="cls-74" d="M194.9,207.6l1.8,1.1,1.4.8,1.1.6c.8.5.8.8,0,1.3l-4.8,2.8a1.9,1.9,0,0,1-2.3,0l-3.2-1.9-1.9-1.1q-1.2-.6,0-1.2l4.9-2.9a2.2,2.2,0,0,1,2.2,0Z"/><path class="cls-74" d="M277.9,265.2l3.6,2.1c.8.5.8.9,0,1.3l-4.8,2.8a1.7,1.7,0,0,1-2.1,0l-1.1-.6-1.6-.9-.3-.2-.5-.3-.8-.5-1-.5h0c-.7-.3-.6-.7-.1-1.1l4.9-2.8a2.1,2.1,0,0,1,2.4,0Z"/><path class="cls-74" d="M238.3,232.6l1.6,1,1.7,1,.9.5c.6.4.7.8,0,1.2l-5,2.9a2,2,0,0,1-2.1,0l-5.2-3c-.7-.4-.7-.9,0-1.3l4.9-2.9a2,2,0,0,1,2.1.1Z"/><path class="cls-74" d="M300.3,268.5,303,270c.6.4.7.8,0,1.2l-5,2.9a1.8,1.8,0,0,1-2,0l-1.1-.6-1.6-.9-1.6-.9-1-.6c-.8-.5-.7-.8.1-1.3l4.7-2.7a2.1,2.1,0,0,1,2.3-.1Z"/><path class="cls-74" d="M229.4,221.4l2.1,1.2c.6.4.7.8,0,1.2l-1.9,1a1.8,1.8,0,0,1-2.1.1l-1.2-.7-1.4-.8-1.6-.9-1-.6c-.8-.5-.8-.8,0-1.3l1.9-1.1a2,2,0,0,1,2,0Z"/><path class="cls-74" d="M222.2,217.2c1.1.6,1.1.9.1,1.5a10.8,10.8,0,0,1-1.8,1.1,2.9,2.9,0,0,1-1.6,0l-3.3-1.8-2.6-1.5a.6.6,0,0,1,.1-.8l2.4-1.4a1.7,1.7,0,0,1,1.8,0l1.3.8,1.3.7Z"/><path class="cls-74" d="M213.6,212.2q1.1.6,0,1.2l-2,1.2a1.7,1.7,0,0,1-1.8,0l-3.5-2-2.1-1.2c-.6-.3-.6-.7,0-1.1l2-1.1a2,2,0,0,1,2.1,0l2.7,1.5Z"/><path class="cls-74" d="M201.5,205.2l3.2,1.9c.6.4.6.8,0,1.1l-2,1.2a1.8,1.8,0,0,1-2,0l-1-.6a9.5,9.5,0,0,1-1.7-1,20.1,20.1,0,0,1-2.5-1.4c-.8-.5-.9-.9-.1-1.3a11.8,11.8,0,0,1,1.9-1.1,1.8,1.8,0,0,1,2,0Z"/><path class="cls-74" d="M317.2,272l1.3.8,1.5.9,1.1.6c.7.4.7.8.1,1.2l-2.1,1.2a1.7,1.7,0,0,1-1.8,0l-3.9-2.2-1.5-.9c-.7-.4-.8-.8,0-1.2a11.8,11.8,0,0,1,1.9-1.1,2,2,0,0,1,2.1,0Z"/><path class="cls-74" d="M271.4,245.6h.1l.7.5,1.5.8,1.7,1,.9.5c.7.4.7.8.1,1.2l-2,1.2a2,2,0,0,1-2,0l-3.9-2.3-1.4-.7c-.7-.5-.7-.9.1-1.3l1.5-.9C269.9,244.9,270.3,244.9,271.4,245.6Z"/></g><path class="cls-3" d="M254.6,212s4.3-21.1,12-21.1c5.7.5,2.9,9.1,2.9,9.1s16.3-6.7,21.5-3.8.5,16.7-5.7,19.6a68.5,68.5,0,0,1-12.5,4.3Z"/><path class="cls-3" d="M202.2,209.9s17.2-13.4,25.5-13.4,16.6,5.1,17.9,10.9-6.4,3.2-6.4,3.2-6.4,9.6-12.8,10.9a42.3,42.3,0,0,1-11.5.6Z"/><path class="cls-4" d="M151.5,273.2h0a16.2,16.2,0,0,0,8.3-21.5l-27.1-61.4a16.2,16.2,0,0,0-21.5-8.3h0a16.2,16.2,0,0,0-8.3,21.4L130,264.8A16.3,16.3,0,0,0,151.5,273.2Z"/><path class="cls-4" d="M134.9,269.2h0a16.3,16.3,0,0,0,22.7,4.1L212.7,235a16.3,16.3,0,0,0,4.1-22.7h0a16.3,16.3,0,0,0-22.7-4.1L139,246.5A16.2,16.2,0,0,0,134.9,269.2Z"/><ellipse class="cls-75" cx="142.6" cy="548" rx="116.2" ry="73.8"/><path class="cls-76" d="M133.7,511.1h-1.2l-37-5.8a7.7,7.7,0,0,1,2.4-15.2l36.9,5.8a7.6,7.6,0,0,1-1.1,15.2Z"/><path class="cls-76" d="M150.7,511.3a7.5,7.5,0,0,1-7.4-6,7.7,7.7,0,0,1,5.8-9.2l43.5-9.5a7.6,7.6,0,1,1,3.3,14.9l-43.5,9.6Z"/><path class="cls-77" d="M153.8,499.1c-5,5.7-20.6,6.1-25,0h-1.3l-.3,12.3c0,10.8,27.9,11.2,27.9.1l.3-12.4Z"/><path class="cls-76" d="M151.3,493.7c5.4,3.1,5.4,8.2,0,11.4s-14.2,3.1-19.7,0-5.4-8.3,0-11.4S145.8,490.5,151.3,493.7Z"/><path class="cls-78" d="M150.4,436.3c-3.6,4.2-15,4.4-18.2,0h-.9l-.2,58.5c-.1,7.9,20.2,8.2,20.2.1l.2-58.6Z"/><path class="cls-79" d="M148.5,432.3c4,2.3,4,6.1.1,8.3a15.7,15.7,0,0,1-14.3,0c-4-2.2-4-6-.1-8.3S144.6,430.1,148.5,432.3Z"/><path class="cls-77" d="M153.8,356.8c-5,5.8-20.6,6.2-25,0h-1.3l-.3,94.9c0,10.8,27.9,11.2,27.9.1l.3-95Z"/><path class="cls-79" d="M151.3,351.4c5.4,3.2,5.4,8.3,0,11.4s-14.2,3.2-19.7,0-5.4-8.2,0-11.4S145.8,348.3,151.3,351.4Z"/><path class="cls-76" d="M90.2,565.2a7.7,7.7,0,0,1-5.4-13.1l40.9-40.9A7.6,7.6,0,0,1,136.5,522L95.6,562.9A7.8,7.8,0,0,1,90.2,565.2Z"/><path class="cls-76" d="M195.6,565.2a7.8,7.8,0,0,1-5.4-2.3l-41.5-41.5a7.7,7.7,0,0,1,0-10.9,7.6,7.6,0,0,1,10.8,0l41.6,41.6a7.6,7.6,0,0,1,0,10.8A7.8,7.8,0,0,1,195.6,565.2Z"/><path class="cls-80" d="M256.4,394.3l.9-.2h1l.8.3L123.9,315.9h-3.1l-.7.4L42.6,361.1l135.1,78.5,77.5-44.7,1-.5Z"/><path class="cls-4" d="M198.2,200c-12.9-20.7-41-26.8-41-26.8-34.4-7-45.3,5.5-45.3,5.5s-11.2,13.2-11.2,31c0,12.2,12.8,47.4,13.7,75.4-.4,19.4-6.1,51.8-6.6,56.7-1,9.7,25.6,37.4,85.2,22a28.5,28.5,0,0,0,9.6-8.7l.7-72.1c.2-4,.5-8.2.8-12.7C207.1,222.8,198.2,200,198.2,200Z"/><path class="cls-81" d="M130.4,148.1s2.9,17.3,0,25.2c-.5,4,16.8,17.3,32.1,13.9,8.9-2,8.4-6.5,8.4-6.5s-7.4-12.3-6.4-24.2S140.8,145.6,130.4,148.1Z"/><path class="cls-3" d="M188.3,113.2a40.9,40.9,0,1,1-40.9-40.8A40.9,40.9,0,0,1,188.3,113.2Z"/><path class="cls-3" d="M188.3,115.9s1.2,38.5-7.7,46.8-23.3-5.4-45.2-10.5,17.7-48.1,17.7-48.1Z"/><path class="cls-10" d="M178.9,181.8l-10.7-6s-27.2-2.5-37-8.9l-5.1,7.2s6.8,13.2,24.3,14.9,25.5-5.1,25.5-5.1Z"/><path class="cls-82" d="M158.4,66.7s33.1,5.8,34.7,35.6c-.8,23.2-19.8,28.1-22.3,30.6s-8.3-8.3-14.1,2.5,2.5,13.3,5.8,17.4c1.7,4.1-5,9.1-11.6,9.9s-8.8,8.3-19.7,4.2-12.6-15.8-20.8-27.4-11.6-35.6-2.5-52.9S147.6,65,158.4,66.7Z"/><path class="cls-4" d="M222.4,290.5h0a16.3,16.3,0,0,0,8.3-21.5l-27.2-61.4a16.2,16.2,0,0,0-21.4-8.3h0a16.3,16.3,0,0,0-8.4,21.5l27.2,61.4A16.2,16.2,0,0,0,222.4,290.5Z"/><path class="cls-4" d="M209.3,290.7h0a16.3,16.3,0,0,0,22.8-3.4l40-53.9a16.3,16.3,0,0,0-3.3-22.8h0A16.4,16.4,0,0,0,246,214l-40.1,53.9A16.4,16.4,0,0,0,209.3,290.7Z"/><path class="cls-82" d="M119.9,97.9A25,25,0,1,1,95,73,24.9,24.9,0,0,1,119.9,97.9Z"/><g class="cls-14"><g class="cls-83"><g class="cls-14"><path class="cls-84" d="M169.7,454.9,34.6,376.3a3.2,3.2,0,0,1-1.4-1.9L168.4,453a3,3,0,0,0,1.3,1.9"/></g></g></g><path class="cls-85" d="M271.1,354.5c-3.2-26.7-53.9-47.1-53.9-47.1l-14.5,1.7c-48.6,14.1-90.2-7-90.2-7s-12.7,49.9-.6,71,63.3,28.1,90.1,26.8,67.2-26.2,67.2-26.2S272.3,368.6,271.1,354.5Z"/><polygon class="cls-80" points="168.4 453 33.2 374.4 0.2 259.9 135.3 338.4 168.4 453"/><path class="cls-86" d="M141.7,326.9l.9-.2h1a1.1,1.1,0,0,1,.8.3L9.3,248.5H6.2l-.8.4A7.2,7.2,0,0,0,3.9,250l-.3.3-.6.6H2.9l-.3.4a1,1,0,0,0-.4.5v.2c-.1,0-.1,0-.1.1H1.9l-.3.5a.8.8,0,0,0-.2.5H1.3c-.1,0-.1.1-.2.2l-.2.5-.2.5h0c-.1.1-.1.3-.2.4a1.4,1.4,0,0,1-.2.6v.6a2.2,2.2,0,0,0-.1.8H0v1.3a5,5,0,0,0,.2,1.2l135.1,78.5a4.1,4.1,0,0,1-.1-1.2c-.1-.1,0-.3,0-.4v-.9a5.2,5.2,0,0,1,.2-1.1v-.2c.1-.4.3-.8.4-1.2h0l.6-1.3h0a7.5,7.5,0,0,0,.7-1.2c.1,0,.1,0,.1-.1a10.5,10.5,0,0,0,.8-1.1h.1a5.2,5.2,0,0,1,1-1.1l1.5-1.1.9-.4Z"/><path class="cls-86" d="M140.6,327.4c2.3-1.3,4.5-.8,5.2,1.6l31.9,110.6,77.5-44.7c3-1.8,5.5-.4,5.5,3.1a12.4,12.4,0,0,1-5.4,9.4l-81.7,47.1c-2.4,1.4-4.6.8-5.2-1.5L135.3,338.4c-.8-2.8.9-7.3,3.8-9.9Z"/></g></g></svg>